<svg xmlns:xlink="http://www.w3.org/1999/xlink" version="1.1" class="highcharts-root" style="font-family: Helvetica, Arial, sans-serif; font-size: 1rem;" xmlns="http://www.w3.org/2000/svg" width="600" height="400" viewBox="0 0 600 400" aria-label="Interactive chart" aria-hidden="false"><desc aria-hidden="true">Created with Highcharts 11.4.8</desc><defs aria-hidden="true"><filter id="highcharts-drop-shadow-18"><feDropShadow dx="1" dy="1" flood-color="#000000" flood-opacity="0.75" stdDeviation="2.5"></feDropShadow></filter><clipPath id="highcharts-jpq6uxj-104383-"><rect x="0" y="0" width="533" height="253" fill="none"></rect></clipPath></defs><rect fill="#1f1f20" class="highcharts-background" filter="none" x="0" y="0" width="600" height="400" rx="0" ry="0" aria-hidden="true"></rect><rect fill="none" class="highcharts-plot-background" x="57" y="42" width="533" height="253" filter="none" aria-hidden="true"></rect><g class="highcharts-grid highcharts-xaxis-grid" data-z-index="1" aria-hidden="true"><path fill="none" stroke="#707073" stroke-width="0" stroke-dasharray="none" data-z-index="1" class="highcharts-grid-line" d="M 57.5 42 L 57.5 295" opacity="1"></path><path fill="none" stroke="#707073" stroke-width="0" stroke-dasharray="none" data-z-index="1" class="highcharts-grid-line" d="M 137.5 42 L 137.5 295" opacity="1"></path><path fill="none" stroke="#707073" stroke-width="0" stroke-dasharray="none" data-z-index="1" class="highcharts-grid-line" d="M 217.5 42 L 217.5 295" opacity="1"></path><path fill="none" stroke="#707073" stroke-width="0" stroke-dasharray="none" data-z-index="1" class="highcharts-grid-line" d="M 297.5 42 L 297.5 295" opacity="1"></path><path fill="none" stroke="#707073" stroke-width="0" stroke-dasharray="none" data-z-index="1" class="highcharts-grid-line" d="M 377.5 42 L 377.5 295" opacity="1"></path><path fill="none" stroke="#707073" stroke-width="0" stroke-dasharray="none" data-z-index="1" class="highcharts-grid-line" d="M 457.5 42 L 457.5 295" opacity="1"></path><path fill="none" stroke="#707073" stroke-width="0" stroke-dasharray="none" data-z-index="1" class="highcharts-grid-line" d="M 537.5 42 L 537.5 295" opacity="1"></path></g><g class="highcharts-grid highcharts-yaxis-grid" data-z-index="1" aria-hidden="true"><path fill="none" stroke="#707073" stroke-width="1" stroke-dasharray="none" data-z-index="1" class="highcharts-grid-line" d="M 57 295.5 L 590 295.5" opacity="1"></path><path fill="none" stroke="#707073" stroke-width="1" stroke-dasharray="none" data-z-index="1" class="highcharts-grid-line" d="M 57 253.5 L 590 253.5" opacity="1"></path><path fill="none" stroke="#707073" stroke-width="1" stroke-dasharray="none" data-z-index="1" class="highcharts-grid-line" d="M 57 211.5 L 590 211.5" opacity="1"></path><path fill="none" stroke="#707073" stroke-width="1" stroke-dasharray="none" data-z-index="1" class="highcharts-grid-line" d="M 57 169.5 L 590 169.5" opacity="1"></path><path fill="none" stroke="#707073" stroke-width="1" stroke-dasharray="none" data-z-index="1" class="highcharts-grid-line" d="M 57 126.5 L 590 126.5" opacity="1"></path><path fill="none" stroke="#707073" stroke-width="1" stroke-dasharray="none" data-z-index="1" class="highcharts-grid-line" d="M 57 84.5 L 590 84.5" opacity="1"></path><path fill="none" stroke="#707073" stroke-width="1" stroke-dasharray="none" data-z-index="1" class="highcharts-grid-line" d="M 57 42.5 L 590 42.5" opacity="1"></path></g><rect fill="none" class="highcharts-plot-border" data-z-index="1" stroke="#606063" stroke-width="0" x="57" y="42" width="533" height="253" aria-hidden="true"></rect><g class="highcharts-axis highcharts-xaxis" data-z-index="2" aria-hidden="true"><path fill="none" class="highcharts-tick" stroke="#707073" stroke-width="1" d="M 57.5 295 L 57.5 305" opacity="1"></path><path fill="none" class="highcharts-tick" stroke="#707073" stroke-width="1" d="M 137.5 295 L 137.5 305" opacity="1"></path><path fill="none" class="highcharts-tick" stroke="#707073" stroke-width="1" d="M 217.5 295 L 217.5 305" opacity="1"></path><path fill="none" class="highcharts-tick" stroke="#707073" stroke-width="1" d="M 297.5 295 L 297.5 305" opacity="1"></path><path fill="none" class="highcharts-tick" stroke="#707073" stroke-width="1" d="M 377.5 295 L 377.5 305" opacity="1"></path><path fill="none" class="highcharts-tick" stroke="#707073" stroke-width="1" d="M 457.5 295 L 457.5 305" opacity="1"></path><path fill="none" class="highcharts-tick" stroke="#707073" stroke-width="1" d="M 537.5 295 L 537.5 305" opacity="1"></path><text x="323.5" data-z-index="7" text-anchor="middle" transform="translate(0,0)" class="highcharts-axis-title" style="color: rgb(240, 240, 243); font-size: 0.8em; fill: rgb(240, 240, 243);" y="341">Timestamp</text><path fill="none" class="highcharts-axis-line" stroke="#707073" stroke-width="1" data-z-index="7" d="M 57 295.5 L 590 295.5"></path></g><g class="highcharts-axis highcharts-yaxis" data-z-index="2" aria-hidden="true"><path fill="none" class="highcharts-axis-line" stroke="#707073" stroke-width="0" data-z-index="7" d="M 57 42 L 57 295"></path></g><g class="highcharts-series-group" data-z-index="3" filter="none" aria-hidden="false"><g class="highcharts-series highcharts-series-0 highcharts-line-series highcharts-color-0" data-z-index="0.1" opacity="1" transform="translate(57,42) scale(1 1)" clip-path="url(#highcharts-jpq6uxj-104383-)" aria-hidden="false"><path fill="none" d="M 0 42.166666666667 L 1.3358395989975 42.81266 L 2.671679197995 44.261506666667 L 4.0075187969925 44.941233333333 L 5.34335839599 46.30912 L 6.6791979949875 47.005713333333 L 8.015037593985 47.911453333333 L 9.3508771929825 48.55576 L 10.68671679198 49.125853333333 L 12.022556390977 50.227246666667 L 13.358395989975 51.062146666667 L 14.694235588972 52.08764 L 16.03007518797 52.41654 L 17.365914786967 53.187346666667 L 18.701754385965 54.05092 L 20.037593984962 55.152313333333 L 21.37343358396 55.896133333333 L 22.709273182957 56.370086666667 L 24.045112781955 57.469793333333 L 25.380952380952 58.43794 L 26.71679197995 60.03184 L 28.052631578947 60.66434 L 29.388471177945 61.20576 L 30.724310776942 62.47582 L 32.06015037594 63.45746 L 33.395989974937 63.742506666667 L 34.731829573935 64.9451 L 36.067669172932 66.385513333333 L 37.40350877193 67.351973333333 L 38.739348370927 67.69268 L 40.075187969925 68.713113333333 L 41.411027568922 68.890213333333 L 42.74686716792 68.601793333333 L 44.082706766917 70.14172 L 45.418546365915 71.07276 L 46.754385964912 73.014956666667 L 48.09022556391 73.661793333333 L 49.426065162907 74.785113333333 L 50.761904761905 74.884626666667 L 52.097744360902 74.73114 L 53.4335839599 76.060233333333 L 54.769423558897 77.573173333333 L 56.105263157895 77.68112 L 57.441102756892 78.411446666667 L 58.77694235589 79.57356 L 60.112781954887 80.249913333333 L 61.448621553885 81.125293333333 L 62.784461152882 81.892726666667 L 64.12030075188 82.36668 L 65.456140350877 83.60638 L 66.791979949875 84.242253333333 L 68.127819548872 85.820973333333 L 69.46365914787 86.407933333333 L 70.799498746867 86.633946666667 L 72.135338345865 86.633946666667 L 73.471177944862 88.047373333333 L 74.80701754386 88.148573333333 L 76.142857142857 89.545133333333 L 77.478696741855 90.65496 L 78.814536340852 90.678573333333 L 80.15037593985 91.37348 L 81.486215538847 91.314446666667 L 82.822055137845 91.285773333333 L 84.157894736842 91.963813333333 L 85.49373433584 93.09894 L 86.829573934837 93.674093333333 L 88.165413533835 94.60176 L 89.501253132832 95.601953333333 L 90.83709273183 96.880446666667 L 92.172932330827 97.91606 L 93.508771929825 98.90276 L 94.844611528822 99.77814 L 96.18045112782 100.54051333333 L 97.516290726817 101.01952666667 L 98.852130325815 103.79915333333 L 100.18796992481 105.15860666667 L 101.52380952381 105.93784666667 L 102.85964912281 106.74238666667 L 104.1954887218 107.89269333333 L 105.5313283208 108.61964666667 L 106.8671679198 109.73453333333 L 108.2030075188 110.28438666667 L 109.53884711779 111.14964666667 L 110.87468671679 111.82431333333 L 112.21052631579 113.09437333333 L 113.54636591479 114.46394666667 L 114.88220551378 114.36949333333 L 116.21804511278 115.14198666667 L 117.55388471178 116.65071 L 118.88972431078 117.3667 L 120.22556390977 118.45628666667 L 121.56140350877 119.95236 L 122.89724310777 120.63546 L 124.23308270677 121.35229333333 L 125.56892230576 122.61223333333 L 126.90476190476 123.04064666667 L 128.24060150376 123.78446666667 L 129.57644110276 125.08994666667 L 130.91228070175 125.7663 L 132.24812030075 126.87191 L 133.58395989975 127.46308666667 L 134.91979949875 128.61676666667 L 136.25563909774 129.06542 L 137.59147869674 130.57498666667 L 138.92731829574 131.68818666667 L 140.26315789474 132.72886 L 141.59899749373 133.83868666667 L 142.93483709273 133.83868666667 L 144.27067669173 134.45432 L 145.60651629073 136.1646 L 146.94235588972 137.57128 L 148.27819548872 138.5175 L 149.61403508772 138.67436 L 150.94987468672 140.4909 L 152.28571428571 141.57036666667 L 153.62155388471 141.80481333333 L 154.95739348371 142.66838666667 L 156.29323308271 143.10523333333 L 157.6290726817 144.43601333333 L 158.9649122807 145.18995333333 L 160.3007518797 145.82582666667 L 161.6365914787 146.54266 L 162.97243107769 146.74168666667 L 164.30827067669 147.33876666667 L 165.64411027569 148.07584 L 166.97994987469 149.44541333333 L 168.31578947368 150.84703333333 L 169.65162907268 150.71716 L 170.98746867168 151.73084666667 L 172.32330827068 152.88284 L 173.65914786967 153.69412666667 L 174.99498746867 154.33 L 176.33082706767 155.41452666667 L 177.66666666667 155.58150666667 L 179.00250626566 156.2781 L 180.33834586466 158.41173333333 L 181.67418546366 158.21102 L 183.01002506266 158.54666666667 L 184.34586466165 159.41192666667 L 185.68170426065 159.43554 L 187.01754385965 160.00900666667 L 188.35338345865 161.02606666667 L 189.68922305764 162.61322 L 191.02506265664 164.08905333333 L 192.36090225564 164.08905333333 L 193.69674185464 165.37429333333 L 195.03258145363 165.97306 L 196.36842105263 166.43014666667 L 197.70426065163 166.43014666667 L 199.04010025063 167.74237333333 L 200.37593984962 168.26524 L 201.71177944862 168.92641333333 L 203.04761904762 168.92641333333 L 204.38345864662 169.57240666667 L 205.71929824561 170.48320666667 L 207.05513784461 171.11739333333 L 208.39097744361 172.78044666667 L 209.72681704261 173.79413333333 L 211.0626566416 174.48060666667 L 212.3984962406 175.53308666667 L 213.7343358396 176.69014 L 215.0701754386 177.26698 L 216.40601503759 178.45945333333 L 217.74185463659 179.15098666667 L 219.07769423559 179.10376 L 220.41353383459 179.59289333333 L 221.74937343358 179.94034666667 L 223.08521303258 181.22896 L 224.42105263158 182.30842666667 L 225.75689223058 183.89558 L 227.09273182957 185.18419333333 L 228.42857142857 186.6381 L 229.76441102757 187.41228 L 231.10025062657 189.21364 L 232.43609022556 189.56784 L 233.77192982456 190.82272 L 235.10776942356 191.81616666667 L 236.44360902256 193.32067333333 L 237.77944862155 194.15051333333 L 239.11528822055 195.41214 L 240.45112781955 195.88272 L 241.78696741855 196.95712666667 L 243.12280701754 197.94551333333 L 244.45864661654 198.16815333333 L 245.79448621554 199.34207333333 L 247.13032581454 200.09432666667 L 248.46616541353 201.65618 L 249.80200501253 202.34602666667 L 251.13784461153 202.36795333333 L 252.47368421053 202.68504666667 L 253.80952380952 203.13201333333 L 255.14536340852 204.7023 L 256.48120300752 205.14420666667 L 257.81704260652 205.86104 L 259.15288220551 206.50028666667 L 260.48872180451 207.22892666667 L 261.82456140351 208.5479 L 263.16040100251 209.24786666667 L 264.4962406015 209.26979333333 L 265.8320802005 210.78610666667 L 267.1679197995 42.166666666667 L 268.5037593985 42.922293333333 L 269.83959899749 43.031926666667 L 271.17543859649 44.787746666667 L 272.51127819549 45.627706666667 L 273.84711779449 46.44574 L 275.18295739348 47.52352 L 276.51879699248 48.94538 L 277.85463659148 50.203633333333 L 279.19047619048 50.71132 L 280.52631578947 51.436586666667 L 281.86215538847 52.13824 L 283.19799498747 53.264933333333 L 284.53383458647 53.922733333333 L 285.86967418546 54.615953333333 L 287.20551378446 56.903073333333 L 288.54135338346 57.69412 L 289.87719298246 58.613353333333 L 291.21303258145 58.86804 L 292.54887218045 59.08056 L 293.88471177945 59.821006666667 L 295.22055137845 60.551333333333 L 296.55639097744 62.75412 L 297.89223057644 63.58902 L 299.22807017544 65.00582 L 300.56390977444 65.73952 L 301.89974937343 67.078733333333 L 303.23558897243 67.038253333333 L 304.57142857143 68.266146666667 L 305.90726817043 69.93932 L 307.24310776942 70.50098 L 308.57894736842 71.141913333333 L 309.91478696742 72.143793333333 L 311.25062656642 72.958453333333 L 312.58646616541 73.626373333333 L 313.92230576441 75.169673333333 L 315.25814536341 75.213526666667 L 316.59398496241 75.862893333333 L 317.9298245614 76.225526666667 L 319.2656641604 76.3301 L 320.6015037594 77.17006 L 321.9373433584 77.434866666667 L 323.27318295739 77.35222 L 324.60902255639 77.986406666667 L 325.94486215539 79.850173333333 L 327.28070175439 81.3901 L 328.61654135338 82.191266666667 L 329.95238095238 82.466193333333 L 331.28822055138 84.34514 L 332.62406015038 85.009686666667 L 333.95989974937 86.357333333333 L 335.29573934837 88.4235 L 336.63157894737 89.43044 L 337.96741854637 90.385093333333 L 339.30325814536 91.715873333333 L 340.63909774436 91.739486666667 L 341.97493734336 92.474873333333 L 343.31077694236 93.470006666667 L 344.64661654135 93.577953333333 L 345.98245614035 93.916973333333 L 347.31829573935 94.994753333333 L 348.65413533835 94.98126 L 349.98997493734 94.934033333333 L 351.32581453634 95.28486 L 352.66165413534 95.858326666667 L 353.99749373434 97.49608 L 355.33333333333 97.448853333333 L 356.66917293233 98.22978 L 358.00501253133 98.919626666667 L 359.34085213033 99.57574 L 360.67669172932 99.77814 L 362.01253132832 100.03451333333 L 363.34837092732 101.09374 L 364.68421052632 101.45806 L 366.02005012531 102.86895666667 L 367.35588972431 102.90184666667 L 368.69172932331 103.66759333333 L 370.02756892231 103.60856 L 371.3634085213 103.85481333333 L 372.6992481203 103.79578 L 374.0350877193 104.95452 L 375.3709273183 105.23788 L 376.70676691729 105.84170666667 L 378.04260651629 105.78267333333 L 379.37844611529 106.55179333333 L 380.71428571429 106.61082666667 L 382.05012531328 108.36496 L 383.38596491228 108.89963333333 L 384.72180451128 109.8526 L 386.05764411028 110.60232333333 L 387.39348370927 111.87154 L 388.72932330827 112.60186666667 L 390.06516290727 113.12642 L 391.40100250627 113.44857333333 L 392.73684210526 114.06252 L 394.07268170426 114.61912 L 395.40852130326 115.93640666667 L 396.74436090226 115.80653333333 L 398.08020050125 117.00744 L 399.41604010025 118.38376 L 400.75187969925 120.45498666667 L 402.08771929825 120.93568666667 L 403.42355889724 120.85135333333 L 404.75939849624 121.62890666667 L 406.09523809524 122.77078 L 407.43107769424 123.97843333333 L 408.76691729323 124.55696 L 410.10275689223 125.30415333333 L 411.43859649123 126.51012 L 412.77443609023 127.20502666667 L 414.11027568922 129.19360666667 L 415.44611528822 130.20054666667 L 416.78195488722 132.13009333333 L 418.11779448622 132.55176 L 419.45363408521 133.40352666667 L 420.78947368421 134.88104666667 L 422.12531328321 136.00436666667 L 423.46115288221 136.89155333333 L 424.7969924812 137.6573 L 426.1328320802 138.82616 L 427.4686716792 140.59884666667 L 428.8045112782 140.65113333333 L 430.14035087719 141.63614666667 L 431.47619047619 142.96692666667 L 432.81203007519 144.16193 L 434.14786967419 145.64535333333 L 435.48370927318 146.23231333333 L 436.81954887218 146.72482 L 438.15538847118 147.44165333333 L 439.49122807018 148.54642 L 440.82706766917 149.37288666667 L 442.16290726817 150.09478 L 443.49874686717 150.69692 L 444.83458646617 151.68530666667 L 446.17042606516 152.04962666667 L 447.50626566416 152.70911333333 L 448.84210526316 153.98592 L 450.17794486216 154.98948666667 L 451.51378446115 156.23762 L 452.84962406015 156.69133333333 L 454.18546365915 157.31202666667 L 455.52130325815 158.74738 L 456.85714285714 160.20972 L 458.19298245614 160.24345333333 L 459.52882205514 161.34147333333 L 460.86466165414 162.69249333333 L 462.20050125313 162.72875666667 L 463.53634085213 163.4127 L 464.87218045113 163.46498666667 L 466.20802005013 164.24254 L 467.54385964912 165.89716 L 468.87969924812 167.36624666667 L 470.21553884712 167.93971333333 L 471.55137844612 168.29897333333 L 472.88721804511 168.88256 L 474.22305764411 169.03604666667 L 475.55889724311 169.77227666667 L 476.89473684211 170.34996 L 478.2305764411 171.61327333333 L 479.5664160401 172.57804666667 L 480.9022556391 172.71804 L 482.2380952381 174.54976 L 483.57393483709 175.6326 L 484.90977443609 176.93470666667 L 486.24561403509 177.62455333333 L 487.58145363409 178.22669333333 L 488.91729323308 178.95702 L 490.25313283208 179.88637333333 L 491.58897243108 181.1986 L 492.92481203008 181.43642 L 494.26065162907 182.47372 L 495.59649122807 183.07923333333 L 496.93233082707 184.27002 L 498.26817042607 184.40832666667 L 499.60401002506 184.60229333333 L 500.93984962406 186.72580666667 L 502.27568922306 187.08169333333 L 503.61152882206 186.97712 L 504.94736842105 187.14241333333 L 506.28320802005 187.35830666667 L 507.61904761905 188.23537333333 L 508.95488721805 189.28616666667 L 510.29072681704 189.70783333333 L 511.62656641604 190.68778666667 L 512.96240601504 191.45353333333 L 514.29824561403 192.31542 L 515.63408521303 194.14376666667 L 516.96992481203 195.13721333333 L 518.30576441103 196.23354666667 L 519.64160401002 197.29277333333 L 520.97744360902 197.66721333333 L 522.31328320802 198.25923333333 L 523.64912280702 199.47869333333 L 524.98496240601 200.80104 L 526.32080200501 202.02893333333 L 527.65664160401 203.1337 L 528.99248120301 205.0059 L 530.328320802 205.49503333333 L 531.664160401 206.64365333333 L 533 208.48718" class="highcharts-graph" data-z-index="1" stroke="#67B9EE" stroke-width="2" stroke-linejoin="round" stroke-linecap="round" filter="none" aria-hidden="false" role="region" tabindex="-1" style="outline: none;" aria-label="Total, line 1 of 3 with 400 data points."></path></g><g class="highcharts-markers highcharts-series-0 highcharts-line-series highcharts-color-0" data-z-index="0.1" opacity="1" transform="translate(57,42) scale(1 1)" clip-path="none" aria-hidden="true"></g><g class="highcharts-series highcharts-series-1 highcharts-line-series highcharts-color-1" data-z-index="0.1" opacity="1" transform="translate(57,42) scale(1 1)" clip-path="url(#highcharts-jpq6uxj-104383-)" aria-hidden="false"><path fill="none" d="M 0 42.166666666667 L 1.3358395989975 42.08402 L 2.671679197995 42.024986666667 L 4.0075187969925 41.930533333333 L 5.34335839599 41.930533333333 L 6.6791979949875 41.930533333333 L 8.015037593985 41.930533333333 L 9.3508771929825 41.903546666667 L 10.68671679198 41.753433333333 L 12.022556390977 41.65898 L 13.358395989975 41.564526666667 L 14.694235588972 41.493686666667 L 16.03007518797 41.493686666667 L 17.365914786967 41.434653333333 L 18.701754385965 41.37562 L 20.037593984962 41.37562 L 21.37343358396 41.37562 L 22.709273182957 41.281166666667 L 24.045112781955 41.281166666667 L 25.380952380952 41.174906666667 L 26.71679197995 41.174906666667 L 28.052631578947 41.104066666667 L 29.388471177945 41.104066666667 L 30.724310776942 41.02142 L 32.06015037594 41.02142 L 33.395989974937 40.832513333333 L 34.731829573935 40.66722 L 36.067669172932 40.608186666667 L 37.40350877193 40.608186666667 L 38.739348370927 40.395666666667 L 40.075187969925 40.301213333333 L 41.411027568922 40.301213333333 L 42.74686716792 39.947013333333 L 44.082706766917 39.911593333333 L 45.418546365915 39.911593333333 L 46.754385964912 39.911593333333 L 48.09022556391 39.85256 L 49.426065162907 39.85256 L 50.761904761905 39.85256 L 52.097744360902 39.699073333333 L 53.4335839599 39.699073333333 L 54.769423558897 39.699073333333 L 56.105263157895 39.663653333333 L 57.441102756892 39.592813333333 L 58.77694235589 39.474746666667 L 60.112781954887 39.474746666667 L 61.448621553885 39.474746666667 L 62.784461152882 39.415713333333 L 64.12030075188 39.344873333333 L 65.456140350877 39.309453333333 L 66.791979949875 39.309453333333 L 68.127819548872 39.309453333333 L 69.46365914787 39.238613333333 L 70.799498746867 39.132353333333 L 72.135338345865 39.132353333333 L 73.471177944862 39.026093333333 L 74.80701754386 38.96706 L 76.142857142857 38.96706 L 77.478696741855 38.919833333333 L 78.814536340852 38.589246666667 L 80.15037593985 38.8608 L 81.486215538847 38.801766666667 L 82.822055137845 38.494793333333 L 84.157894736842 38.494793333333 L 85.49373433584 38.494793333333 L 86.829573934837 38.3295 L 88.165413533835 38.282273333333 L 89.501253132832 38.164206666667 L 90.83709273183 38.11698 L 92.172932330827 38.11698 L 93.508771929825 37.78808 L 94.844611528822 38.022526666667 L 96.18045112782 37.928073333333 L 97.516290726817 37.857233333333 L 98.852130325815 37.857233333333 L 100.18796992481 37.857233333333 L 101.52380952381 37.7982 L 102.85964912281 37.7982 L 104.1954887218 37.7982 L 105.5313283208 37.72736 L 106.8671679198 37.55026 L 108.2030075188 37.420386666667 L 109.53884711779 37.33774 L 110.87468671679 37.113413333333 L 112.21052631579 37.066186666667 L 113.54636591479 36.98354 L 114.88220551378 36.889086666667 L 116.21804511278 36.889086666667 L 117.55388471178 36.84186 L 118.88972431078 36.84186 L 120.22556390977 36.84186 L 121.56140350877 36.84186 L 122.89724310777 36.5585 L 124.23308270677 36.5585 L 125.56892230576 36.5585 L 126.90476190476 36.48766 L 128.24060150376 36.48766 L 129.57644110276 36.48766 L 130.91228070175 36.48766 L 132.24812030075 36.298753333333 L 133.58395989975 36.298753333333 L 134.91979949875 36.298753333333 L 136.25563909774 36.227913333333 L 137.59147869674 36.227913333333 L 138.92731829574 36.121653333333 L 140.26315789474 36.0272 L 141.59899749373 35.944553333333 L 142.93483709273 35.944553333333 L 144.27067669173 35.909133333333 L 145.60651629073 35.909133333333 L 146.94235588972 35.838293333333 L 148.27819548872 35.77926 L 149.61403508772 35.77926 L 150.94987468672 35.696613333333 L 152.28571428571 35.590353333333 L 153.62155388471 35.590353333333 L 154.95739348371 35.4959 L 156.29323308271 35.4959 L 157.6290726817 35.436866666667 L 158.9649122807 35.342413333333 L 160.3007518797 35.17712 L 161.6365914787 35.371086666667 L 162.97243107769 35.094473333333 L 164.30827067669 35.023633333333 L 165.64411027569 34.881953333333 L 166.97994987469 34.881953333333 L 168.31578947368 34.799306666667 L 169.65162907268 34.669433333333 L 170.98746867168 34.445106666667 L 172.32330827068 34.445106666667 L 173.65914786967 34.445106666667 L 174.99498746867 34.338846666667 L 176.33082706767 34.208973333333 L 177.66666666667 34.04368 L 179.00250626566 33.996453333333 L 180.33834586466 33.902 L 181.67418546366 33.677673333333 L 183.01002506266 33.630446666667 L 184.34586466165 33.559606666667 L 185.68170426065 33.559606666667 L 187.01754385965 33.524186666667 L 188.35338345865 33.47696 L 189.68922305764 33.47696 L 191.02506265664 33.47696 L 192.36090225564 33.47696 L 193.69674185464 33.47696 L 195.03258145363 33.47696 L 196.36842105263 33.429733333333 L 197.70426065163 33.429733333333 L 199.04010025063 33.394313333333 L 200.37593984962 33.205406666667 L 201.71177944862 33.205406666667 L 203.04761904762 33.205406666667 L 204.38345864662 33.110953333333 L 205.71929824561 33.075533333333 L 207.05513784461 33.075533333333 L 208.39097744361 33.075533333333 L 209.72681704261 32.992886666667 L 211.0626566416 32.992886666667 L 212.3984962406 32.94566 L 213.7343358396 32.851206666667 L 215.0701754386 32.851206666667 L 216.40601503759 32.73314 L 217.74185463659 32.674106666667 L 219.07769423559 32.62688 L 220.41353383459 32.331713333333 L 221.74937343358 32.260873333333 L 223.08521303258 32.16642 L 224.42105263158 32.048353333333 L 225.75689223058 32.048353333333 L 227.09273182957 31.894866666667 L 228.42857142857 31.81222 L 229.76441102757 31.81222 L 231.10025062657 31.753186666667 L 232.43609022556 31.694153333333 L 233.77192982456 31.611506666667 L 235.10776942356 31.611506666667 L 236.44360902256 31.611506666667 L 237.77944862155 31.611506666667 L 239.11528822055 31.517053333333 L 240.45112781955 31.517053333333 L 241.78696741855 31.517053333333 L 243.12280701754 31.481633333333 L 244.45864661654 31.481633333333 L 245.79448621554 31.446213333333 L 247.13032581454 31.446213333333 L 248.46616541353 31.38718 L 249.80200501253 31.328146666667 L 251.13784461153 31.328146666667 L 252.47368421053 31.186466666667 L 253.80952380952 31.0684 L 255.14536340852 30.844073333333 L 256.48120300752 30.74962 L 257.81704260652 30.702393333333 L 259.15288220551 30.596133333333 L 260.48872180451 30.596133333333 L 261.82456140351 30.596133333333 L 263.16040100251 30.596133333333 L 264.4962406015 30.596133333333 L 265.8320802005 30.596133333333 L 267.1679197995 42.166666666667 L 268.5037593985 42.126186666667 L 269.83959899749 42.072213333333 L 271.17543859649 42.072213333333 L 272.51127819549 42.072213333333 L 273.84711779449 42.072213333333 L 275.18295739348 42.072213333333 L 276.51879699248 42.036793333333 L 277.85463659148 41.954146666667 L 279.19047619048 41.895113333333 L 280.52631578947 41.895113333333 L 281.86215538847 41.812466666667 L 283.19799498747 41.6944 L 284.53383458647 41.599946666667 L 285.86967418546 41.5173 L 287.20551378446 41.48188 L 288.54135338346 41.48188 L 289.87719298246 41.363813333333 L 291.21303258145 41.26936 L 292.54887218045 40.856126666667 L 293.88471177945 40.867933333333 L 295.22055137845 40.73806 L 296.55639097744 40.690833333333 L 297.89223057644 40.619993333333 L 299.22807017544 40.619993333333 L 300.56390977444 40.619993333333 L 301.89974937343 40.584573333333 L 303.23558897243 40.289406666667 L 304.57142857143 40.147726666667 L 305.90726817043 40.076886666667 L 307.24310776942 40.02966 L 308.57894736842 39.911593333333 L 309.91478696742 39.876173333333 L 311.25062656642 39.876173333333 L 312.58646616541 39.876173333333 L 313.92230576441 39.876173333333 L 315.25814536341 39.876173333333 L 316.59398496241 39.81714 L 317.9298245614 39.81714 L 319.2656641604 39.81714 L 320.6015037594 40.296153333333 L 321.9373433584 39.81714 L 323.27318295739 39.734493333333 L 324.60902255639 39.60462 L 325.94486215539 39.53378 L 327.28070175439 39.53378 L 328.61654135338 39.53378 L 329.95238095238 39.439326666667 L 331.28822055138 39.403906666667 L 332.62406015038 39.297646666667 L 333.95989974937 39.297646666667 L 335.29573934837 39.297646666667 L 336.63157894737 39.297646666667 L 337.96741854637 39.203193333333 L 339.30325814536 39.203193333333 L 340.63909774436 39.203193333333 L 341.97493734336 39.203193333333 L 343.31077694236 39.203193333333 L 344.64661654135 39.132353333333 L 345.98245614035 39.085126666667 L 347.31829573935 38.919833333333 L 348.65413533835 38.8608 L 349.98997493734 38.813573333333 L 351.32581453634 38.71912 L 352.66165413534 38.624666666667 L 353.99749373434 38.624666666667 L 355.33333333333 38.57744 L 356.66917293233 38.57744 L 358.00501253133 38.482986666667 L 359.34085213033 38.482986666667 L 360.67669172932 38.482986666667 L 362.01253132832 38.482986666667 L 363.34837092732 38.388533333333 L 364.68421052632 38.3295 L 366.02005012531 38.282273333333 L 367.35588972431 38.282273333333 L 368.69172932331 38.282273333333 L 370.02756892231 38.22324 L 371.3634085213 38.164206666667 L 372.6992481203 38.105173333333 L 374.0350877193 38.057946666667 L 375.3709273183 38.057946666667 L 376.70676691729 38.057946666667 L 378.04260651629 37.998913333333 L 379.37844611529 37.810006666667 L 380.71428571429 37.739166666667 L 382.05012531328 37.680133333333 L 383.38596491228 37.116786666667 L 384.72180451128 37.538453333333 L 386.05764411028 37.538453333333 L 387.39348370927 37.538453333333 L 388.72932330827 37.349546666667 L 390.06516290727 37.16064 L 391.40100250627 36.98354 L 392.73684210526 36.9127 L 394.07268170426 36.77102 L 395.40852130326 36.652953333333 L 396.74436090226 36.52308 L 398.08020050125 36.52308 L 399.41604010025 36.45224 L 400.75187969925 36.45224 L 402.08771929825 36.45224 L 403.42355889724 36.34598 L 404.75939849624 36.180686666667 L 406.09523809524 35.684806666667 L 407.43107769424 36.050813333333 L 408.76691729323 36.050813333333 L 410.10275689223 35.968166666667 L 411.43859649123 35.968166666667 L 412.77443609023 35.968166666667 L 414.11027568922 35.968166666667 L 415.44611528822 35.968166666667 L 416.78195488722 35.791066666667 L 418.11779448622 35.791066666667 L 419.45363408521 35.673 L 420.78947368421 35.625773333333 L 422.12531328321 35.448673333333 L 423.46115288221 35.448673333333 L 424.7969924812 35.401446666667 L 426.1328320802 35.401446666667 L 427.4686716792 35.271573333333 L 428.8045112782 35.21254 L 430.14035087719 35.1417 L 431.47619047619 35.059053333333 L 432.81203007519 35.059053333333 L 434.14786967419 35.059053333333 L 435.48370927318 34.9646 L 436.81954887218 34.846533333333 L 438.15538847118 34.799306666667 L 439.49122807018 34.763886666667 L 440.82706766917 34.669433333333 L 442.16290726817 34.598593333333 L 443.49874686717 34.598593333333 L 444.83458646617 34.36246 L 446.17042606516 34.315233333333 L 447.50626566416 34.173553333333 L 448.84210526316 34.173553333333 L 450.17794486216 33.925613333333 L 451.51378446115 33.925613333333 L 452.84962406015 33.902 L 454.18546365915 33.83116 L 455.52130325815 33.83116 L 456.85714285714 33.79574 L 458.19298245614 33.68948 L 459.52882205514 33.68948 L 460.86466165414 33.642253333333 L 462.20050125313 33.58322 L 463.53634085213 33.500573333333 L 464.87218045113 33.44154 L 466.20802005013 33.394313333333 L 467.54385964912 33.323473333333 L 468.87969924812 33.252633333333 L 470.21553884712 33.075533333333 L 471.55137844612 32.80398 L 472.88721804511 32.80398 L 474.22305764411 32.80398 L 475.55889724311 32.80398 L 476.89473684211 32.73314 L 478.2305764411 32.6623 L 479.5664160401 32.615073333333 L 480.9022556391 32.615073333333 L 482.2380952381 32.380626666667 L 483.57393483709 32.55604 L 484.90977443609 32.461586666667 L 486.24561403509 32.355326666667 L 487.58145363409 32.319906666667 L 488.91729323308 32.23726 L 490.25313283208 32.119193333333 L 491.58897243108 32.119193333333 L 492.92481203008 32.048353333333 L 494.26065162907 31.9539 L 495.59649122807 31.894866666667 L 496.93233082707 31.894866666667 L 498.26817042607 31.611506666667 L 499.60401002506 31.368626666667 L 500.93984962406 31.552473333333 L 502.27568922306 31.481633333333 L 503.61152882206 31.2455 L 504.94736842105 31.198273333333 L 506.28320802005 31.151046666667 L 507.61904761905 31.151046666667 L 508.95488721805 31.021173333333 L 510.29072681704 30.761426666667 L 511.62656641604 30.761426666667 L 512.96240601504 30.51686 L 514.29824561403 30.67878 L 515.63408521303 30.619746666667 L 516.96992481203 30.584326666667 L 518.30576441103 30.584326666667 L 519.64160401002 30.383613333333 L 520.97744360902 30.383613333333 L 522.31328320802 30.29928 L 523.64912280702 30.1829 L 524.98496240601 30.1829 L 526.32080200501 30.04122 L 527.65664160401 29.887733333333 L 528.99248120301 29.816893333333 L 530.328320802 29.710633333333 L 531.664160401 29.639793333333 L 533 29.639793333333" class="highcharts-graph" data-z-index="1" stroke="#CEEDA5" stroke-width="2" stroke-dasharray="8,6" filter="none" aria-hidden="false" role="region" tabindex="-1" style="outline: none;" aria-label="EMERALDS, line 2 of 3 with 400 data points."></path></g><g class="highcharts-markers highcharts-series-1 highcharts-line-series highcharts-color-1" data-z-index="0.1" opacity="1" transform="translate(57,42) scale(1 1)" clip-path="none" aria-hidden="true"></g><g class="highcharts-series highcharts-series-2 highcharts-line-series highcharts-color-2" data-z-index="0.1" opacity="1" transform="translate(57,42) scale(1 1)" clip-path="url(#highcharts-jpq6uxj-104383-)" aria-hidden="false"><path fill="none" d="M 0 42.166666666667 L 1.3358395989975 42.895306666667 L 2.671679197995 44.403186666667 L 4.0075187969925 45.177366666667 L 5.34335839599 46.545253333333 L 6.6791979949875 47.241846666667 L 8.015037593985 48.147586666667 L 9.3508771929825 48.81888 L 10.68671679198 49.539086666667 L 12.022556390977 50.734933333333 L 13.358395989975 51.664286666667 L 14.694235588972 52.76062 L 16.03007518797 53.08952 L 17.365914786967 53.91936 L 18.701754385965 54.841966666667 L 20.037593984962 55.94336 L 21.37343358396 56.68718 L 22.709273182957 57.255586666667 L 24.045112781955 58.355293333333 L 25.380952380952 59.4297 L 26.71679197995 61.0236 L 28.052631578947 61.72694 L 29.388471177945 62.26836 L 30.724310776942 63.621066666667 L 32.06015037594 64.602706666667 L 33.395989974937 65.07666 L 34.731829573935 66.444546666667 L 36.067669172932 67.943993333333 L 37.40350877193 68.910453333333 L 38.739348370927 69.46368 L 40.075187969925 70.578566666667 L 41.411027568922 70.755666666667 L 42.74686716792 70.821446666667 L 44.082706766917 72.396793333333 L 45.418546365915 73.327833333333 L 46.754385964912 75.27003 L 48.09022556391 75.9759 L 49.426065162907 77.09922 L 50.761904761905 77.198733333333 L 52.097744360902 77.198733333333 L 53.4335839599 78.527826666667 L 54.769423558897 80.040766666667 L 56.105263157895 80.184133333333 L 57.441102756892 80.9853 L 58.77694235589 82.26548 L 60.112781954887 82.941833333333 L 61.448621553885 83.817213333333 L 62.784461152882 84.64368 L 64.12030075188 85.188473333333 L 65.456140350877 86.463593333333 L 66.791979949875 87.099466666667 L 68.127819548872 88.678186666667 L 69.46365914787 89.335986666667 L 70.799498746867 89.66826 L 72.135338345865 89.66826 L 73.471177944862 91.187946666667 L 74.80701754386 91.34818 L 76.142857142857 92.74474 L 77.478696741855 93.901793333333 L 78.814536340852 94.255993333333 L 80.15037593985 94.679346666667 L 81.486215538847 94.679346666667 L 82.822055137845 94.957646666667 L 84.157894736842 95.635686666667 L 85.49373433584 96.770813333333 L 86.829573934837 97.51126 L 88.165413533835 98.486153333333 L 89.501253132832 99.604413333333 L 90.83709273183 100.93013333333 L 92.172932330827 101.96574666667 L 93.508771929825 103.28134666667 L 94.844611528822 103.92228 L 96.18045112782 104.77910666667 L 97.516290726817 105.32896 L 98.852130325815 108.10858666667 L 100.18796992481 109.46804 L 101.52380952381 110.30631333333 L 102.85964912281 111.11085333333 L 104.1954887218 112.26116 L 105.5313283208 113.05895333333 L 106.8671679198 114.35094 L 108.2030075188 115.03066666667 L 109.53884711779 115.97857333333 L 110.87468671679 116.87756666667 L 112.21052631579 118.19485333333 L 113.54636591479 119.64707333333 L 114.88220551378 119.64707333333 L 116.21804511278 120.41956666667 L 117.55388471178 121.97551666667 L 118.88972431078 122.69150666667 L 120.22556390977 123.78109333333 L 121.56140350877 125.27716666667 L 122.89724310777 126.24362666667 L 124.23308270677 126.96046 L 125.56892230576 128.2204 L 126.90476190476 128.71965333333 L 128.24060150376 129.46347333333 L 129.57644110276 130.76895333333 L 130.91228070175 131.44530666667 L 132.24812030075 132.73982333333 L 133.58395989975 133.331 L 134.91979949875 134.48468 L 136.25563909774 135.00417333333 L 137.59147869674 136.51374 L 138.92731829574 137.7332 L 140.26315789474 138.86832666667 L 141.59899749373 140.0608 L 142.93483709273 140.0608 L 144.27067669173 140.71185333333 L 145.60651629073 142.42213333333 L 146.94235588972 143.89965333333 L 148.27819548872 144.90490666667 L 149.61403508772 145.06176666667 L 150.94987468672 146.96095333333 L 152.28571428571 148.14668 L 153.62155388471 148.38112666667 L 154.95739348371 149.33915333333 L 156.29323308271 149.776 L 157.6290726817 151.16581333333 L 158.9649122807 152.01420666667 L 160.3007518797 152.81537333333 L 161.6365914787 153.33824 L 162.97243107769 153.81388 L 164.30827067669 154.4818 L 165.64411027569 155.36055333333 L 166.97994987469 156.73012666667 L 168.31578947368 158.21439333333 L 169.65162907268 158.21439333333 L 170.98746867168 159.45240666667 L 172.32330827068 160.6044 L 173.65914786967 161.41568666667 L 174.99498746867 162.15782 L 176.33082706767 163.37222 L 177.66666666667 163.70449333333 L 179.00250626566 164.44831333333 L 180.33834586466 166.6764 L 181.67418546366 166.70001333333 L 183.01002506266 167.08288666667 L 184.34586466165 168.01898666667 L 185.68170426065 168.0426 L 187.01754385965 168.65148666667 L 188.35338345865 169.71577333333 L 189.68922305764 171.30292666667 L 191.02506265664 172.77876 L 192.36090225564 172.77876 L 193.69674185464 174.064 L 195.03258145363 174.66276666667 L 196.36842105263 175.16708 L 197.70426065163 175.16708 L 199.04010025063 176.51472666667 L 200.37593984962 177.2265 L 201.71177944862 177.88767333333 L 203.04761904762 177.88767333333 L 204.38345864662 178.62812 L 205.71929824561 179.57434 L 207.05513784461 180.20852666667 L 208.39097744361 181.87158 L 209.72681704261 182.96791333333 L 211.0626566416 183.65438666667 L 212.3984962406 184.75409333333 L 213.7343358396 186.0056 L 215.0701754386 186.58244 L 216.40601503759 187.89298 L 217.74185463659 188.64354666667 L 219.07769423559 188.64354666667 L 220.41353383459 189.42784666667 L 221.74937343358 189.84614 L 223.08521303258 191.22920666667 L 224.42105263158 192.42674 L 225.75689223058 194.01389333333 L 227.09273182957 195.45599333333 L 228.42857142857 196.99254666667 L 229.76441102757 197.76672666667 L 231.10025062657 199.62712 L 232.43609022556 200.04035333333 L 233.77192982456 201.37788 L 235.10776942356 202.37132666667 L 236.44360902256 203.87583333333 L 237.77944862155 204.70567333333 L 239.11528822055 206.06175333333 L 240.45112781955 206.53233333333 L 241.78696741855 207.60674 L 243.12280701754 208.63054666667 L 244.45864661654 208.85318666667 L 245.79448621554 210.06252666667 L 247.13032581454 210.81478 L 248.46616541353 212.43566666667 L 249.80200501253 213.18454666667 L 251.13784461153 213.20647333333 L 252.47368421053 213.66524666667 L 253.80952380952 214.23028 L 255.14536340852 216.02489333333 L 256.48120300752 216.56125333333 L 257.81704260652 217.32531333333 L 259.15288220551 218.07082 L 260.48872180451 218.79946 L 261.82456140351 220.11843333333 L 263.16040100251 220.8184 L 264.4962406015 220.84032666667 L 265.8320802005 222.35664 L 267.1679197995 42.166666666667 L 268.5037593985 42.962773333333 L 269.83959899749 43.12638 L 271.17543859649 44.8822 L 272.51127819549 45.72216 L 273.84711779449 46.540193333333 L 275.18295739348 47.617973333333 L 276.51879699248 49.075253333333 L 277.85463659148 50.416153333333 L 279.19047619048 50.982873333333 L 280.52631578947 51.70814 L 281.86215538847 52.49244 L 283.19799498747 53.7372 L 284.53383458647 54.489453333333 L 285.86967418546 55.26532 L 287.20551378446 57.58786 L 288.54135338346 58.378906666667 L 289.87719298246 59.416206666667 L 291.21303258145 59.765346666667 L 292.54887218045 60.3911 L 293.88471177945 61.11974 L 295.22055137845 61.97994 L 296.55639097744 64.229953333333 L 297.89223057644 65.135693333333 L 299.22807017544 66.552493333333 L 300.56390977444 67.286193333333 L 301.89974937343 68.660826666667 L 303.23558897243 68.915513333333 L 304.57142857143 70.285086666667 L 305.90726817043 72.0291 L 307.24310776942 72.637986666667 L 308.57894736842 73.396986666667 L 309.91478696742 74.434286666667 L 311.25062656642 75.248946666667 L 312.58646616541 75.916866666667 L 313.92230576441 77.460166666667 L 315.25814536341 77.50402 L 316.59398496241 78.21242 L 317.9298245614 78.575053333333 L 319.2656641604 78.679626666667 L 320.6015037594 79.040573333333 L 321.9373433584 79.784393333333 L 323.27318295739 79.784393333333 L 324.60902255639 80.548453333333 L 325.94486215539 82.48306 L 327.28070175439 84.022986666667 L 328.61654135338 84.824153333333 L 329.95238095238 85.193533333333 L 331.28822055138 87.1079 L 332.62406015038 87.878706666667 L 333.95989974937 89.226353333333 L 335.29573934837 91.29252 L 336.63157894737 92.29946 L 337.96741854637 93.348566666667 L 339.30325814536 94.679346666667 L 340.63909774436 94.70296 L 341.97493734336 95.438346666667 L 343.31077694236 96.43348 L 344.64661654135 96.612266666667 L 345.98245614035 96.998513333333 L 347.31829573935 98.241586666667 L 348.65413533835 98.287126666667 L 349.98997493734 98.287126666667 L 351.32581453634 98.732406666667 L 352.66165413534 99.400326666667 L 353.99749373434 101.03808 L 355.33333333333 101.03808 L 356.66917293233 101.81900666667 L 358.00501253133 102.60330666667 L 359.34085213033 103.25942 L 360.67669172932 103.46182 L 362.01253132832 103.71819333333 L 363.34837092732 104.87187333333 L 364.68421052632 105.29522666667 L 366.02005012531 106.75335 L 367.35588972431 106.78624 L 368.69172932331 107.55198666667 L 370.02756892231 107.55198666667 L 371.3634085213 107.85727333333 L 372.6992481203 107.85727333333 L 374.0350877193 109.06324 L 375.3709273183 109.3466 L 376.70676691729 109.95042666667 L 378.04260651629 109.95042666667 L 379.37844611529 110.90845333333 L 380.71428571429 111.03832666667 L 382.05012531328 112.85149333333 L 383.38596491228 113.94951333333 L 384.72180451128 114.48081333333 L 386.05764411028 115.23053666667 L 387.39348370927 116.49975333333 L 388.72932330827 117.41898666667 L 390.06516290727 118.13244666667 L 391.40100250627 118.6317 L 392.73684210526 119.31648666667 L 394.07268170426 120.01476666667 L 395.40852130326 121.45012 L 396.74436090226 121.45012 L 398.08020050125 122.65102666667 L 399.41604010025 124.09818666667 L 400.75187969925 126.16941333333 L 402.08771929825 126.65011333333 L 403.42355889724 126.67204 L 404.75939849624 127.61488666667 L 406.09523809524 129.25264 L 407.43107769424 130.09428666667 L 408.76691729323 130.67281333333 L 410.10275689223 131.50265333333 L 411.43859649123 132.70862 L 412.77443609023 133.40352666667 L 414.11027568922 135.39210666667 L 415.44611528822 136.39904666667 L 416.78195488722 138.50569333333 L 418.11779448622 138.92736 L 419.45363408521 139.89719333333 L 420.78947368421 141.42194 L 422.12531328321 142.72236 L 423.46115288221 143.60954666667 L 424.7969924812 144.42252 L 426.1328320802 145.59138 L 427.4686716792 147.49394 L 428.8045112782 147.60526 L 430.14035087719 148.66111333333 L 431.47619047619 150.07454 L 432.81203007519 151.26954333333 L 434.14786967419 152.75296666667 L 435.48370927318 153.43438 L 436.81954887218 154.04495333333 L 438.15538847118 154.80901333333 L 439.49122807018 155.9492 L 440.82706766917 156.87012 L 442.16290726817 157.66285333333 L 443.49874686717 158.26499333333 L 444.83458646617 159.48951333333 L 446.17042606516 159.90106 L 447.50626566416 160.70222666667 L 448.84210526316 161.97903333333 L 450.17794486216 163.23054 L 451.51378446115 164.47867333333 L 452.84962406015 164.956 L 454.18546365915 165.64753333333 L 455.52130325815 167.08288666667 L 456.85714285714 168.58064666667 L 458.19298245614 168.72064 L 459.52882205514 169.81866 L 460.86466165414 171.21690666667 L 462.20050125313 171.31220333333 L 463.53634085213 172.07879333333 L 464.87218045113 172.19011333333 L 466.20802005013 173.01489333333 L 467.54385964912 174.74035333333 L 468.87969924812 176.28028 L 470.21553884712 177.03084666667 L 471.55137844612 177.66166 L 472.88721804511 178.24524666667 L 474.22305764411 178.39873333333 L 475.55889724311 179.13496333333 L 476.89473684211 179.78348666667 L 478.2305764411 181.11764 L 479.5664160401 182.12964 L 480.9022556391 182.26963333333 L 482.2380952381 184.3358 L 483.57393483709 185.24322666667 L 484.90977443609 186.63978666667 L 486.24561403509 187.43589333333 L 487.58145363409 188.07345333333 L 488.91729323308 188.88642666667 L 490.25313283208 189.93384666667 L 491.58897243108 191.24607333333 L 492.92481203008 191.55473333333 L 494.26065162907 192.68648666667 L 495.59649122807 193.35103333333 L 496.93233082707 194.54182 L 498.26817042607 194.96348666667 L 499.60401002506 195.40033333333 L 500.93984962406 197.34 L 502.27568922306 197.76672666667 L 503.61152882206 197.89828666667 L 504.94736842105 198.11080666667 L 506.28320802005 198.37392666667 L 507.61904761905 199.25099333333 L 508.95488721805 200.43166 L 510.29072681704 201.11307333333 L 511.62656641604 202.09302666667 L 512.96240601504 203.10334 L 514.29824561403 203.80330666667 L 515.63408521303 205.69068666667 L 516.96992481203 206.71955333333 L 518.30576441103 207.81588666667 L 519.64160401002 209.07582666667 L 520.97744360902 209.45026666667 L 522.31328320802 210.12662 L 523.64912280702 211.46246 L 524.98496240601 212.78480666667 L 526.32080200501 214.15438 L 527.65664160401 215.41263333333 L 528.99248120301 217.35567333333 L 530.328320802 217.95106666667 L 531.664160401 219.17052666667 L 533 221.01405333333" class="highcharts-graph" data-z-index="1" stroke="#9F6AE1" stroke-width="2" stroke-dasharray="8,6" filter="none" aria-hidden="false" role="region" tabindex="-1" style="outline: none;" aria-label="TOMATOES, line 3 of 3 with 400 data points."></path></g><g class="highcharts-markers highcharts-series-2 highcharts-line-series highcharts-color-2" data-z-index="0.1" opacity="1" transform="translate(57,42) scale(1 1)" clip-path="none" aria-hidden="true"></g></g><text x="300" text-anchor="middle" class="highcharts-title" data-z-index="4" style="font-size: 1em; color: rgb(240, 240, 243); font-weight: bold; fill: rgb(240, 240, 243);" y="22" aria-hidden="true">Profit / Loss</text><text x="300" text-anchor="middle" class="highcharts-subtitle" data-z-index="4" style="color: rgb(240, 240, 243); font-size: 0.8em; fill: rgb(240, 240, 243);" y="41" aria-hidden="true"></text><text x="10" text-anchor="start" class="highcharts-caption" data-z-index="4" style="color: rgb(102, 102, 102); font-size: 0.8em; fill: rgb(102, 102, 102);" y="397" aria-hidden="true"></text><g class="highcharts-legend highcharts-no-tooltip" data-z-index="7" transform="translate(157,355)" aria-hidden="true"><rect fill="transparent" class="highcharts-legend-box" rx="0" ry="0" stroke="#999999" stroke-width="0" filter="none" x="0" y="0" width="286" height="30"></rect><g data-z-index="1"><g><g class="highcharts-legend-item highcharts-line-series highcharts-color-0 highcharts-series-0" data-z-index="1" transform="translate(8,3)"><path fill="none" class="highcharts-graph" stroke-width="2" stroke-linecap="round" d="M 1 13 L 15 13" stroke="#67B9EE"></path><text x="21" style="color: rgb(240, 240, 243); cursor: pointer; font-size: 0.8em; text-decoration: none; fill: rgb(240, 240, 243);" text-anchor="start" data-z-index="2" y="17">Total</text></g><g class="highcharts-legend-item highcharts-line-series highcharts-color-1 highcharts-series-1" data-z-index="1" transform="translate(76.13333320617676,3)"><path fill="none" class="highcharts-graph" stroke-width="2" stroke-dasharray="8,6" d="M 0 13 L 16 13" stroke="#CEEDA5"></path><text x="21" y="17" style="color: rgb(240, 240, 243); cursor: pointer; font-size: 0.8em; text-decoration: none; fill: rgb(240, 240, 243);" text-anchor="start" data-z-index="2">EMERALDS</text></g><g class="highcharts-legend-item highcharts-line-series highcharts-color-2 highcharts-series-2" data-z-index="1" transform="translate(187.60000038146973,3)"><path fill="none" class="highcharts-graph" stroke-width="2" stroke-dasharray="8,6" d="M 0 13 L 16 13" stroke="#9F6AE1"></path><text x="21" y="17" style="color: rgb(240, 240, 243); cursor: pointer; font-size: 0.8em; text-decoration: none; fill: rgb(240, 240, 243);" text-anchor="start" data-z-index="2">TOMATOES</text></g></g></g></g><g class="highcharts-axis-labels highcharts-xaxis-labels" data-z-index="7" aria-hidden="true"><text x="57" style="color: rgb(240, 240, 243); cursor: default; font-size: 0.8em; fill: rgb(240, 240, 243);" text-anchor="middle" transform="translate(0,0)" y="322" opacity="1">0</text><text x="137.15037593985" style="color: rgb(240, 240, 243); cursor: default; font-size: 0.8em; fill: rgb(240, 240, 243);" text-anchor="middle" transform="translate(0,0)" y="322" opacity="1">300,000</text><text x="217.3007518797" style="color: rgb(240, 240, 243); cursor: default; font-size: 0.8em; fill: rgb(240, 240, 243);" text-anchor="middle" transform="translate(0,0)" y="322" opacity="1">600,000</text><text x="297.45112781955" style="color: rgb(240, 240, 243); cursor: default; font-size: 0.8em; fill: rgb(240, 240, 243);" text-anchor="middle" transform="translate(0,0)" y="322" opacity="1">900,000</text><text x="377.6015037594" style="color: rgb(240, 240, 243); cursor: default; font-size: 0.8em; fill: rgb(240, 240, 243);" text-anchor="middle" transform="translate(0,0)" y="322" opacity="1">1,200,000</text><text x="457.75187969925" style="color: rgb(240, 240, 243); cursor: default; font-size: 0.8em; fill: rgb(240, 240, 243);" text-anchor="middle" transform="translate(0,0)" y="322" opacity="1">1,500,000</text><text x="537.9022556391" style="color: rgb(240, 240, 243); cursor: default; font-size: 0.8em; fill: rgb(240, 240, 243);" text-anchor="middle" transform="translate(0,0)" y="322" opacity="1">1,800,000</text></g><g class="highcharts-axis-labels highcharts-yaxis-labels" data-z-index="7" aria-hidden="true"><text x="42" style="color: rgb(240, 240, 243); cursor: default; font-size: 0.8em; fill: rgb(240, 240, 243);" text-anchor="end" transform="translate(0,0)" y="293" opacity="1">-125k</text><text x="42" style="color: rgb(240, 240, 243); cursor: default; font-size: 0.8em; fill: rgb(240, 240, 243);" text-anchor="end" transform="translate(0,0)" y="251" opacity="1">-100k</text><text x="42" style="color: rgb(240, 240, 243); cursor: default; font-size: 0.8em; fill: rgb(240, 240, 243);" text-anchor="end" transform="translate(0,0)" y="209" opacity="1">-75k</text><text x="42" style="color: rgb(240, 240, 243); cursor: default; font-size: 0.8em; fill: rgb(240, 240, 243);" text-anchor="end" transform="translate(0,0)" y="167" opacity="1">-50k</text><text x="42" style="color: rgb(240, 240, 243); cursor: default; font-size: 0.8em; fill: rgb(240, 240, 243);" text-anchor="end" transform="translate(0,0)" y="124" opacity="1">-25k</text><text x="42" style="color: rgb(240, 240, 243); cursor: default; font-size: 0.8em; fill: rgb(240, 240, 243);" text-anchor="end" transform="translate(0,0)" y="82" opacity="1">0</text><text x="0" style="color: rgb(240, 240, 243); cursor: default; font-size: 0.8em; fill: rgb(240, 240, 243);" text-anchor="end" transform="translate(0,0)" visibility="hidden">25k</text></g><text x="590" class="highcharts-credits" text-anchor="end" data-z-index="8" style="cursor: pointer; color: rgb(240, 240, 243); font-size: 0.6em; fill: rgb(240, 240, 243);" y="395" aria-label="Chart credits: Highcharts.com" aria-hidden="false">Highcharts.com</text></svg>