<svg xmlns:xlink="http://www.w3.org/1999/xlink" version="1.1" class="highcharts-root" style="font-family: Helvetica, Arial, sans-serif; font-size: 1rem;" xmlns="http://www.w3.org/2000/svg" width="600" height="400" viewBox="0 0 600 400" aria-label="Interactive chart" aria-hidden="false"><desc aria-hidden="true">Created with Highcharts 11.4.8</desc><defs aria-hidden="true"><filter id="highcharts-drop-shadow-6"><feDropShadow dx="1" dy="1" flood-color="#000000" flood-opacity="0.75" stdDeviation="2.5"></feDropShadow></filter><clipPath id="highcharts-y001gor-19217-"><rect x="0" y="0" width="544" height="253" fill="none"></rect></clipPath></defs><rect fill="#1f1f20" class="highcharts-background" filter="none" x="0" y="0" width="600" height="400" rx="0" ry="0" aria-hidden="true"></rect><rect fill="none" class="highcharts-plot-background" x="46" y="42" width="544" height="253" filter="none" aria-hidden="true"></rect><g class="highcharts-grid highcharts-xaxis-grid" data-z-index="1" aria-hidden="true"><path fill="none" stroke="#707073" stroke-width="0" stroke-dasharray="none" data-z-index="1" class="highcharts-grid-line" d="M 126.5 42 L 126.5 295" opacity="1"></path><path fill="none" stroke="#707073" stroke-width="0" stroke-dasharray="none" data-z-index="1" class="highcharts-grid-line" d="M 231.5 42 L 231.5 295" opacity="1"></path><path fill="none" stroke="#707073" stroke-width="0" stroke-dasharray="none" data-z-index="1" class="highcharts-grid-line" d="M 337.5 42 L 337.5 295" opacity="1"></path><path fill="none" stroke="#707073" stroke-width="0" stroke-dasharray="none" data-z-index="1" class="highcharts-grid-line" d="M 443.5 42 L 443.5 295" opacity="1"></path><path fill="none" stroke="#707073" stroke-width="0" stroke-dasharray="none" data-z-index="1" class="highcharts-grid-line" d="M 549.5 42 L 549.5 295" opacity="1"></path></g><g class="highcharts-grid highcharts-yaxis-grid" data-z-index="1" aria-hidden="true"><path fill="none" stroke="#707073" stroke-width="1" stroke-dasharray="none" data-z-index="1" class="highcharts-grid-line" d="M 46 295.5 L 590 295.5" opacity="1"></path><path fill="none" stroke="#707073" stroke-width="1" stroke-dasharray="none" data-z-index="1" class="highcharts-grid-line" d="M 46 232.5 L 590 232.5" opacity="1"></path><path fill="none" stroke="#707073" stroke-width="1" stroke-dasharray="none" data-z-index="1" class="highcharts-grid-line" d="M 46 169.5 L 590 169.5" opacity="1"></path><path fill="none" stroke="#707073" stroke-width="1" stroke-dasharray="none" data-z-index="1" class="highcharts-grid-line" d="M 46 105.5 L 590 105.5" opacity="1"></path><path fill="none" stroke="#707073" stroke-width="1" stroke-dasharray="none" data-z-index="1" class="highcharts-grid-line" d="M 46 42.5 L 590 42.5" opacity="1"></path></g><rect fill="none" class="highcharts-plot-border" data-z-index="1" stroke="#606063" stroke-width="0" x="46" y="42" width="544" height="253" aria-hidden="true"></rect><g class="highcharts-axis highcharts-xaxis" data-z-index="2" aria-hidden="true"><path fill="none" class="highcharts-tick" stroke="#707073" stroke-width="1" d="M 126.5 295 L 126.5 305" opacity="1"></path><path fill="none" class="highcharts-tick" stroke="#707073" stroke-width="1" d="M 231.5 295 L 231.5 305" opacity="1"></path><path fill="none" class="highcharts-tick" stroke="#707073" stroke-width="1" d="M 337.5 295 L 337.5 305" opacity="1"></path><path fill="none" class="highcharts-tick" stroke="#707073" stroke-width="1" d="M 443.5 295 L 443.5 305" opacity="1"></path><path fill="none" class="highcharts-tick" stroke="#707073" stroke-width="1" d="M 549.5 295 L 549.5 305" opacity="1"></path><text x="318" data-z-index="7" text-anchor="middle" transform="translate(0,0)" class="highcharts-axis-title" style="color: rgb(240, 240, 243); font-size: 0.8em; fill: rgb(240, 240, 243);" y="341">Timestamp</text><path fill="none" class="highcharts-axis-line" stroke="#707073" stroke-width="1" data-z-index="7" d="M 46 295.5 L 590 295.5"></path></g><g class="highcharts-axis highcharts-yaxis" data-z-index="2" aria-hidden="true"><path fill="none" class="highcharts-axis-line" stroke="#707073" stroke-width="0" data-z-index="7" d="M 46 42 L 46 295"></path></g><g class="highcharts-series-group" data-z-index="3" filter="none" aria-hidden="false"><g class="highcharts-series highcharts-series-0 highcharts-line-series highcharts-color-0" data-z-index="0.1" opacity="1" transform="translate(46,42) scale(1 1)" clip-path="url(#highcharts-y001gor-19217-)" aria-hidden="false"><path fill="none" d="M -0.94329218266534 178.2891 L 0.81970290835886 178.70655 L 2.5826979993831 177.49215 L 4.3456930904073 177.0747 L 6.1086881814314 176.63195 L 7.8716832724556 177.08735 L 9.6346783634798 176.6193 L 11.397673454504 174.968475 L 13.160668545528 173.26705 L 14.923663636552 172.868575 L 16.686658727577 171.2051 L 18.449653818601 170.0919 L 20.212648909625 169.301275 L 21.975644000649 167.4101 L 23.738639091673 166.847175 L 25.501634182698 166.96735 L 27.264629273722 166.33485 L 29.027624364746 166.33485 L 30.79061945577 163.798525 L 32.553614546794 163.0585 L 34.316609637819 162.7296 L 36.079604728843 162.0465 L 37.842599819867 162.2236 L 39.605594910891 161.8694 L 41.368590001915 160.99655 L 43.13158509294 158.814425 L 44.894580183964 158.080725 L 46.657575274988 157.473525 L 48.420570366012 156.36665 L 50.183565457036 155.96185 L 51.94656054806 155.5444 L 53.709555639085 154.235125 L 55.472550730109 152.274375 L 57.235545821133 150.440125 L 58.998540912157 150.06695 L 60.761536003181 147.3219 L 62.524531094206 145.79125 L 64.28752618523 145.493975 L 66.050521276254 143.722975 L 67.813516367278 146.42375 L 69.576511458302 144.07085 L 71.339506549327 145.20935 L 73.102501640351 142.67935 L 74.865496731375 142.88175 L 76.628491822399 144.8678 L 78.391486913423 140.22525 L 80.154482004448 138.80845 L 81.917477095472 138.75785 L 83.680472186496 136.63265 L 85.44346727752 137.36635 L 87.206462368544 135.62065 L 88.969457459569 135.36765 L 90.732452550593 132.9009 L 92.495447641617 131.49675 L 94.258442732641 129.972425 L 96.021437823665 128.8276 L 97.784432914689 128.13185 L 99.547428005714 127.3349 L 101.31042309674 126.36085 L 103.07341818776 125.12115 L 104.83641327879 124.3495 L 106.59940836981 123.040225 L 108.36240346083 120.46595 L 110.12539855186 119.80815 L 111.88839364288 118.44195 L 113.65138873391 117.7209 L 115.41438382493 116.9619 L 117.17737891596 116.032125 L 118.94037400698 115.25415 L 120.703369098 113.98915 L 122.46636418903 113.71085 L 124.22935928005 113.02775 L 125.99235437108 111.96515 L 127.7553494621 111.71215 L 129.51834455313 110.491425 L 131.28133964415 109.83995 L 133.04433473517 108.1069 L 134.8073298262 107.76535 L 136.57032491722 107.088575 L 138.33332000825 105.08355 L 140.09631509927 104.14745 L 141.85931019029 102.3891 L 143.62230528132 101.6554 L 145.38530037234 101.1494 L 147.14829546337 100.396725 L 148.91129055439 99.84645 L 150.67428564542 97.94895 L 152.43728073644 97.4303 L 154.20027582746 96.60805 L 155.96327091849 96.361375 L 157.72626600951 96.07675 L 159.48926110054 93.14195 L 161.25225619156 91.7125 L 163.01525128258 89.5873 L 164.77824637361 87.961775 L 166.54124146463 87.961775 L 168.30423655566 85.90615 L 170.06723164668 84.5273 L 171.83022673771 83.407775 L 173.59322182873 81.333175 L 175.35621691975 79.498925 L 177.11921201078 78.13905 L 178.8822071018 77.7469 L 180.64520219283 77.5192 L 182.40819728385 76.46925 L 184.17119237487 73.9013 L 185.9341874659 73.578725 L 187.69718255692 73.07905 L 189.46017764795 72.2062 L 191.22317273897 71.852 L 192.98616783 71.48515 L 194.74916292102 71.33335 L 196.51215801204 69.922875 L 198.27515310307 70.5617 L 200.03814819409 69.53705 L 201.80114328512 69.0437 L 203.56413837614 69.151225 L 205.32713346717 68.139225 L 207.09012855819 66.8173 L 208.85312364921 65.912825 L 210.61611874024 64.584575 L 212.37911383126 63.00965 L 214.14210892229 62.27595 L 215.90510401331 62.750325 L 217.66809910433 61.54225 L 219.43109419536 61.953375 L 221.19408928638 253 L 222.95708437741 252.55725 L 224.72007946843 251.437725 L 226.48307455946 251.57055 L 228.24606965048 251.44405 L 230.0090647415 250.68505 L 231.77205983253 250.53325 L 233.53505492355 250.0146 L 235.29805001458 248.952 L 237.0610451056 248.237275 L 238.82404019662 248.464975 L 240.58703528765 247.24425 L 242.35003037867 246.036175 L 244.1130254697 245.4353 L 245.87602056072 244.5498 L 247.63901565175 244.36005 L 249.40201074277 242.9812 L 251.16500583379 241.520125 L 252.92800092482 240.7548 L 254.69099601584 237.408875 L 256.45399110687 236.4791 L 258.21698619789 234.59425 L 259.97998128892 233.32925 L 261.74297637994 231.7986 L 263.50597147096 230.59685 L 265.26896656199 230.957375 L 267.03196165301 230.483 L 268.79495674404 227.339475 L 270.55795183506 225.2965 L 272.32094692608 225.0688 L 274.08394201711 225.81515 L 275.84693710813 223.86705 L 277.60993219916 225.0941 L 279.37292729018 223.4243 L 281.13592238121 221.748175 L 282.89891747223 220.0594 L 284.66191256325 220.70455 L 286.42490765428 219.066375 L 288.1879027453 214.006375 L 289.95089783633 216.88425 L 291.71389292735 215.6572 L 293.47688801838 212.121525 L 295.2398831094 208.61115 L 297.00287820042 208.7756 L 298.76587329145 211.77365 L 300.52886838247 212.76035 L 302.2918634735 213.1272 L 304.05485856452 213.614225 L 305.81785365554 212.17845 L 307.58084874657 208.8515 L 309.34384383759 212.35555 L 311.10683892862 208.38345 L 312.86983401964 207.694025 L 314.63282911067 207.966 L 316.39582420169 207.3082 L 318.15881929271 206.1444 L 319.92181438374 208.68705 L 321.68480947476 209.186725 L 323.44780456579 205.29685 L 325.21079965681 204.594775 L 326.97379474783 202.2988 L 328.73678983886 203.4626 L 330.49978492988 201.6663 L 332.26278002091 201.5904 L 334.02577511193 197.5677 L 335.78877020296 198.26345 L 337.55176529398 195.58165 L 339.314760385 193.867575 L 341.07775547603 193.12755 L 342.84075056705 191.66015 L 344.60374565808 190.85055 L 346.3667407491 189.43375 L 348.12973584013 187.8525 L 349.89273093115 186.461 L 351.65572602217 185.5249 L 353.4187211132 185.6008 L 355.18171620422 185.2719 L 356.94471129525 183.8804 L 358.70770638627 182.950625 L 360.47070147729 181.103725 L 362.23369656832 180.445925 L 363.99669165934 179.69325 L 365.75968675037 178.459875 L 367.52268184139 177.118975 L 369.28567693242 174.171525 L 371.04867202344 172.15385 L 372.81166711446 171.26835 L 374.57466220549 165.77825 L 376.33765729651 169.51 L 378.10065238754 168.5739 L 379.86364747856 168.162775 L 381.62664256958 165.98065 L 383.38963766061 164.000925 L 385.15263275163 163.115425 L 386.91562784266 162.3501 L 388.67862293368 161.3381 L 390.44161802471 160.56645 L 392.20461311573 159.42795 L 393.96760820675 159.30145 L 395.73060329778 157.9732 L 397.4935983888 157.5178 L 399.25659347983 157.764475 L 401.01958857085 156.67025 L 402.78258366187 155.43055 L 404.5455787529 151.30665 L 406.30857384392 151.6229 L 408.07156893495 151.034675 L 409.83456402597 149.175125 L 411.597559117 148.44775 L 413.36055420802 150.4844 L 415.12354929904 152.818325 L 416.88654439007 150.743725 L 418.64953948109 147.416775 L 420.41253457212 146.6388 L 422.17552966314 145.4497 L 423.93852475417 147.2207 L 425.70151984519 141.74325 L 427.46451493621 146.0316 L 429.22751002724 141.8065 L 430.99050511826 143.938025 L 432.75350020929 142.0595 L 434.51649530031 139.46625 L 436.27949039133 140.09875 L 438.04248548236 137.7079 L 439.80548057338 133.584 L 441.56847566441 135.24115 L 443.33147075543 133.29305 L 445.09446584646 138.878025 L 446.85746093748 139.21325 L 448.6204560285 139.826775 L 450.38345111953 132.9009 L 452.14644621055 133.54605 L 453.90944130158 133.16655 L 455.6724363926 130.162175 L 457.43543148363 129.59925 L 459.19842657465 132.30635 L 460.96142166567 126.33555 L 462.7244167567 123.369125 L 464.48741184772 132.2684 L 466.25040693875 130.706125 L 468.01340202977 133.8117 L 469.77639712079 132.9262 L 471.53939221182 134.15325 L 473.30238730284 135.981175 L 475.06538239387 135.285425 L 476.82837748489 134.754125 L 478.59137257592 138.73255 L 480.35436766694 132.9262 L 482.11736275796 127.0313 L 483.88035784899 120.06115 L 485.64335294001 122.71765 L 487.40634803104 113.072025 L 489.16934312206 109.795675 L 490.93233821308 110.52305 L 492.69533330411 115.05175 L 494.45832839513 114.7861 L 496.22132348616 115.627325 L 497.98431857718 115.7981 L 499.74731366821 113.58435 L 501.51030875923 113.45785 L 503.27330385025 109.20745 L 505.03629894128 106.87985 L 506.7992940323 103.8059 L 508.56228912333 102.610475 L 510.32528421435 100.8964 L 512.08827930537 105.248 L 513.8512743964 103.2493 L 515.61426948742 100.5422 L 517.37726457845 102.5662 L 519.14025966947 98.91035 L 520.9032547605 103.723675 L 522.66624985152 103.03425 L 524.42924494254 103.66675 L 526.19224003357 96.86105 L 527.95523512459 97.904675 L 529.71823021562 94.5967 L 531.48122530664 90.6499 L 533.24422039767 85.3369 L 535.00721548869 78.815825 L 536.77021057971 80.97265 L 538.53320567074 86.03265 L 540.29620076176 86.3995 L 542.05919585279 77.70895 L 543.82219094381 78.01255 L 545.58518603483 80.5046" class="highcharts-graph" data-z-index="1" stroke="#67B9EE" stroke-width="2" stroke-linejoin="round" stroke-linecap="round" filter="none" aria-hidden="false" role="region" tabindex="-1" style="outline: none;" aria-label="Total, line 1 of 3 with 311 data points."></path></g><g class="highcharts-markers highcharts-series-0 highcharts-line-series highcharts-color-0" data-z-index="0.1" opacity="1" transform="translate(46,42) scale(1 1)" clip-path="none" aria-hidden="true"></g><g class="highcharts-series highcharts-series-1 highcharts-line-series highcharts-color-1" data-z-index="0.1" opacity="1" transform="translate(46,42) scale(1 1)" clip-path="url(#highcharts-y001gor-19217-)" aria-hidden="false"><path fill="none" d="M -0.94329218266534 220.67925 L 0.81970290835886 220.67925 L 2.5826979993831 220.2365 L 4.3456930904073 220.2365 L 6.1086881814314 220.2365 L 7.8716832724556 219.7052 L 9.6346783634798 218.37695 L 11.397673454504 217.4029 L 13.160668545528 216.78305 L 14.923663636552 215.1006 L 16.686658727577 214.7464 L 18.449653818601 214.12655 L 20.212648909625 213.41815 L 21.975644000649 213.41815 L 23.738639091673 213.06395 L 25.501634182698 213.06395 L 27.264629273722 213.06395 L 29.027624364746 213.06395 L 30.79061945577 210.93875 L 32.553614546794 210.93875 L 34.316609637819 210.93875 L 36.079604728843 210.40745 L 37.842599819867 210.40745 L 39.605594910891 210.40745 L 41.368590001915 210.40745 L 43.13158509294 208.99065 L 44.894580183964 208.99065 L 46.657575274988 208.99065 L 48.420570366012 208.45935 L 50.183565457036 208.45935 L 51.94656054806 207.6624 L 53.709555639085 206.954 L 55.472550730109 206.33415 L 57.235545821133 206.33415 L 58.998540912157 206.0685 L 60.761536003181 206.0685 L 62.524531094206 205.5372 L 64.28752618523 205.09445 L 66.050521276254 205.09445 L 67.813516367278 204.4746 L 69.576511458302 203.67765 L 71.339506549327 203.67765 L 73.102501640351 202.96925 L 74.865496731375 202.96925 L 76.628491822399 202.5265 L 78.391486913423 201.8181 L 80.154482004448 200.5784 L 81.917477095472 202.03315 L 83.680472186496 199.95855 L 85.44346727752 199.42725 L 87.206462368544 198.36465 L 88.969457459569 198.36465 L 90.732452550593 197.7448 L 92.495447641617 196.77075 L 94.258442732641 195.0883 L 96.021437823665 195.0883 L 97.784432914689 195.0883 L 99.547428005714 194.29135 L 101.31042309674 193.3173 L 103.07341818776 192.0776 L 104.83641327879 191.7234 L 106.59940836981 191.015 L 108.36240346083 189.33255 L 110.12539855186 188.97835 L 111.88839364288 188.44705 L 113.65138873391 188.44705 L 115.41438382493 188.1814 L 117.17737891596 187.8272 L 118.94037400698 187.8272 L 120.703369098 187.8272 L 122.46636418903 187.8272 L 124.22935928005 187.8272 L 125.99235437108 187.8272 L 127.7553494621 187.473 L 129.51834455313 187.473 L 131.28133964415 187.20735 L 133.04433473517 185.79055 L 134.8073298262 185.79055 L 136.57032491722 185.79055 L 138.33332000825 185.08215 L 140.09631509927 184.8165 L 141.85931019029 184.8165 L 143.62230528132 184.8165 L 145.38530037234 184.19665 L 147.14829546337 184.19665 L 148.91129055439 183.84245 L 150.67428564542 183.13405 L 152.43728073644 183.13405 L 154.20027582746 182.24855 L 155.96327091849 181.8058 L 157.72626600951 181.4516 L 159.48926110054 179.23785 L 161.25225619156 178.70655 L 163.01525128258 177.99815 L 164.77824637361 177.11265 L 166.54124146463 177.11265 L 168.30423655566 175.9615 L 170.06723164668 175.34165 L 171.83022673771 175.34165 L 173.59322182873 174.8989 L 175.35621691975 174.45615 L 177.11921201078 173.8363 L 178.8822071018 173.8363 L 180.64520219283 173.8363 L 182.40819728385 173.8363 L 184.17119237487 173.1279 L 185.9341874659 173.1279 L 187.69718255692 173.1279 L 189.46017764795 172.86225 L 191.22317273897 172.86225 L 192.98616783 172.5966 L 194.74916292102 172.5966 L 196.51215801204 172.15385 L 198.27515310307 171.7111 L 200.03814819409 171.7111 L 201.80114328512 170.6485 L 203.56413837614 169.763 L 205.32713346717 168.08055 L 207.09012855819 167.37215 L 208.85312364921 167.01795 L 210.61611874024 166.221 L 212.37911383126 166.221 L 214.14210892229 166.221 L 215.90510401331 166.221 L 217.66809910433 166.221 L 219.43109419536 166.221 L 221.19408928638 253 L 222.95708437741 252.6964 L 224.72007946843 252.2916 L 226.48307455946 252.2916 L 228.24606965048 252.2916 L 230.0090647415 252.2916 L 231.77205983253 252.2916 L 233.53505492355 252.02595 L 235.29805001458 251.4061 L 237.0610451056 250.96335 L 238.82404019662 250.96335 L 240.58703528765 250.3435 L 242.35003037867 249.458 L 244.1130254697 248.7496 L 245.87602056072 248.12975 L 247.63901565175 247.8641 L 249.40201074277 247.8641 L 251.16500583379 246.9786 L 252.92800092482 246.2702 L 254.69099601584 243.17095 L 256.45399110687 243.2595 L 258.21698619789 242.28545 L 259.97998128892 241.93125 L 261.74297637994 241.39995 L 263.50597147096 241.39995 L 265.26896656199 241.39995 L 267.03196165301 241.1343 L 268.79495674404 238.92055 L 270.55795183506 237.85795 L 272.32094692608 237.32665 L 274.08394201711 236.97245 L 275.84693710813 236.08695 L 277.60993219916 235.8213 L 279.37292729018 235.8213 L 281.13592238121 235.8213 L 282.89891747223 235.8213 L 284.66191256325 235.8213 L 286.42490765428 235.37855 L 288.1879027453 235.37855 L 289.95089783633 235.37855 L 291.71389292735 238.97115 L 293.47688801838 235.37855 L 295.2398831094 234.7587 L 297.00287820042 233.78465 L 298.76587329145 233.25335 L 300.52886838247 233.25335 L 302.2918634735 233.25335 L 304.05485856452 232.54495 L 305.81785365554 232.2793 L 307.58084874657 231.48235 L 309.34384383759 231.48235 L 311.10683892862 231.48235 L 312.86983401964 231.48235 L 314.63282911067 230.77395 L 316.39582420169 230.77395 L 318.15881929271 230.77395 L 319.92181438374 230.77395 L 321.68480947476 230.77395 L 323.44780456579 230.24265 L 325.21079965681 229.88845 L 326.97379474783 228.64875 L 328.73678983886 228.206 L 330.49978492988 227.8518 L 332.26278002091 227.1434 L 334.02577511193 226.435 L 335.78877020296 226.435 L 337.55176529398 226.0808 L 339.314760385 226.0808 L 341.07775547603 225.3724 L 342.84075056705 225.3724 L 344.60374565808 225.3724 L 346.3667407491 225.3724 L 348.12973584013 224.664 L 349.89273093115 224.22125 L 351.65572602217 223.86705 L 353.4187211132 223.86705 L 355.18171620422 223.86705 L 356.94471129525 223.4243 L 358.70770638627 222.98155 L 360.47070147729 222.5388 L 362.23369656832 222.1846 L 363.99669165934 222.1846 L 365.75968675037 222.1846 L 367.52268184139 221.74185 L 369.28567693242 220.32505 L 371.04867202344 219.79375 L 372.81166711446 219.351 L 374.57466220549 215.1259 L 376.33765729651 218.2884 L 378.10065238754 218.2884 L 379.86364747856 218.2884 L 381.62664256958 216.8716 L 383.38963766061 215.4548 L 385.15263275163 214.12655 L 386.91562784266 213.59525 L 388.67862293368 212.53265 L 390.44161802471 211.64715 L 392.20461311573 210.6731 L 393.96760820675 210.6731 L 395.73060329778 210.1418 L 397.4935983888 210.1418 L 399.25659347983 210.1418 L 401.01958857085 209.34485 L 402.78258366187 208.10515 L 404.5455787529 204.38605 L 406.30857384392 207.1311 L 408.07156893495 207.1311 L 409.83456402597 206.51125 L 411.597559117 206.51125 L 413.36055420802 206.51125 L 415.12354929904 206.51125 L 416.88654439007 206.51125 L 418.64953948109 205.183 L 420.41253457212 205.183 L 422.17552966314 204.2975 L 423.93852475417 203.9433 L 425.70151984519 202.61505 L 427.46451493621 202.61505 L 429.22751002724 202.26085 L 430.99050511826 202.26085 L 432.75350020929 201.2868 L 434.51649530031 200.84405 L 436.27949039133 200.31275 L 438.04248548236 199.6929 L 439.80548057338 199.6929 L 441.56847566441 199.6929 L 443.33147075543 198.9845 L 445.09446584646 198.099 L 446.85746093748 197.7448 L 448.6204560285 197.47915 L 450.38345111953 196.77075 L 452.14644621055 196.23945 L 453.90944130158 196.23945 L 455.6724363926 194.46845 L 457.43543148363 194.11425 L 459.19842657465 193.05165 L 460.96142166567 193.05165 L 462.7244167567 191.1921 L 464.48741184772 191.1921 L 466.25040693875 191.015 L 468.01340202977 190.4837 L 469.77639712079 190.4837 L 471.53939221182 190.21805 L 473.30238730284 189.4211 L 475.06538239387 189.4211 L 476.82837748489 189.0669 L 478.59137257592 188.62415 L 480.35436766694 188.0043 L 482.11736275796 187.56155 L 483.88035784899 187.20735 L 485.64335294001 186.67605 L 487.40634803104 186.14475 L 489.16934312206 184.8165 L 490.93233821308 182.77985 L 492.69533330411 182.77985 L 494.45832839513 182.77985 L 496.22132348616 182.77985 L 497.98431857718 182.24855 L 499.74731366821 181.71725 L 501.51030875923 181.36305 L 503.27330385025 181.36305 L 505.03629894128 179.6047 L 506.7992940323 180.9203 L 508.56228912333 180.2119 L 510.32528421435 179.41495 L 512.08827930537 179.1493 L 513.8512743964 178.52945 L 515.61426948742 177.64395 L 517.37726457845 177.64395 L 519.14025966947 177.11265 L 520.9032547605 176.40425 L 522.66624985152 175.9615 L 524.42924494254 175.9615 L 526.19224003357 173.8363 L 527.95523512459 172.0147 L 529.71823021562 173.39355 L 531.48122530664 172.86225 L 533.24422039767 171.09125 L 535.00721548869 170.73705 L 536.77021057971 170.38285 L 538.53320567074 170.38285 L 540.29620076176 169.4088 L 542.05919585279 167.4607 L 543.82219094381 167.4607 L 545.58518603483 165.62645" class="highcharts-graph" data-z-index="1" stroke="#CEEDA5" stroke-width="2" stroke-dasharray="8,6" filter="none" aria-hidden="false" role="region" tabindex="-1" style="outline: none;" aria-label="EMERALDS, line 2 of 3 with 311 data points."></path></g><g class="highcharts-markers highcharts-series-1 highcharts-line-series highcharts-color-1" data-z-index="0.1" opacity="1" transform="translate(46,42) scale(1 1)" clip-path="none" aria-hidden="true"></g><g class="highcharts-series highcharts-series-2 highcharts-line-series highcharts-color-2" data-z-index="0.1" opacity="1" transform="translate(46,42) scale(1 1)" clip-path="url(#highcharts-y001gor-19217-)" aria-hidden="false"><path fill="none" d="M -0.94329218266534 210.60985 L 0.81970290835886 211.0273 L 2.5826979993831 210.25565 L 4.3456930904073 209.8382 L 6.1086881814314 209.39545 L 7.8716832724556 210.38215 L 9.6346783634798 211.24235 L 11.397673454504 210.565575 L 13.160668545528 209.484 L 14.923663636552 210.767975 L 16.686658727577 209.4587 L 18.449653818601 208.96535 L 20.212648909625 208.883125 L 21.975644000649 206.99195 L 23.738639091673 206.783225 L 25.501634182698 206.9034 L 27.264629273722 206.2709 L 29.027624364746 206.2709 L 30.79061945577 205.859775 L 32.553614546794 205.11975 L 34.316609637819 204.79085 L 36.079604728843 204.63905 L 37.842599819867 204.81615 L 39.605594910891 204.46195 L 41.368590001915 203.5891 L 43.13158509294 202.823775 L 44.894580183964 202.090075 L 46.657575274988 201.482875 L 48.420570366012 200.9073 L 50.183565457036 200.5025 L 51.94656054806 200.882 L 53.709555639085 200.281125 L 55.472550730109 198.940225 L 57.235545821133 197.105975 L 58.998540912157 196.99845 L 60.761536003181 194.2534 L 62.524531094206 193.25405 L 64.28752618523 193.399525 L 66.050521276254 191.628525 L 67.813516367278 194.94915 L 69.576511458302 193.3932 L 71.339506549327 194.5317 L 73.102501640351 192.7101 L 74.865496731375 192.9125 L 76.628491822399 195.3413 L 78.391486913423 191.40715 L 80.154482004448 191.23005 L 81.917477095472 189.7247 L 83.680472186496 189.6741 L 85.44346727752 190.9391 L 87.206462368544 190.256 L 88.969457459569 190.003 L 90.732452550593 188.1561 L 92.495447641617 187.726 L 94.258442732641 187.884125 L 96.021437823665 186.7393 L 97.784432914689 186.04355 L 99.547428005714 186.04355 L 101.31042309674 186.04355 L 103.07341818776 186.04355 L 104.83641327879 185.6261 L 106.59940836981 185.025225 L 108.36240346083 184.1334 L 110.12539855186 183.8298 L 111.88839364288 182.9949 L 113.65138873391 182.27385 L 115.41438382493 181.7805 L 117.17737891596 181.204925 L 118.94037400698 180.42695 L 120.703369098 179.16195 L 122.46636418903 178.88365 L 124.22935928005 178.20055 L 125.99235437108 177.13795 L 127.7553494621 177.23915 L 129.51834455313 176.018425 L 131.28133964415 175.6326 L 133.04433473517 175.31635 L 134.8073298262 174.9748 L 136.57032491722 174.298025 L 138.33332000825 173.0014 L 140.09631509927 172.33095 L 141.85931019029 170.5726 L 143.62230528132 169.8389 L 145.38530037234 169.95275 L 147.14829546337 169.200075 L 148.91129055439 169.004 L 150.67428564542 167.8149 L 152.43728073644 167.29625 L 154.20027582746 167.3595 L 155.96327091849 167.555575 L 157.72626600951 167.62515 L 159.48926110054 166.9041 L 161.25225619156 166.00595 L 163.01525128258 164.58915 L 164.77824637361 163.849125 L 166.54124146463 163.849125 L 168.30423655566 162.94465 L 170.06723164668 162.18565 L 171.83022673771 161.066125 L 173.59322182873 159.434275 L 175.35621691975 158.042775 L 177.11921201078 157.30275 L 178.8822071018 156.9106 L 180.64520219283 156.6829 L 182.40819728385 155.63295 L 184.17119237487 153.7734 L 185.9341874659 153.450825 L 187.69718255692 152.95115 L 189.46017764795 152.34395 L 191.22317273897 151.98975 L 192.98616783 151.88855 L 194.74916292102 151.73675 L 196.51215801204 150.769025 L 198.27515310307 151.8506 L 200.03814819409 150.82595 L 201.80114328512 151.3952 L 203.56413837614 152.388225 L 205.32713346717 153.058675 L 207.09012855819 152.44515 L 208.85312364921 151.894875 L 210.61611874024 151.363575 L 212.37911383126 149.78865 L 214.14210892229 149.05495 L 215.90510401331 149.529325 L 217.66809910433 148.32125 L 219.43109419536 148.732375 L 221.19408928638 253 L 222.95708437741 252.86085 L 224.72007946843 252.146125 L 226.48307455946 252.27895 L 228.24606965048 252.15245 L 230.0090647415 251.39345 L 231.77205983253 251.24165 L 233.53505492355 250.98865 L 235.29805001458 250.5459 L 237.0610451056 250.273925 L 238.82404019662 250.501625 L 240.58703528765 249.90075 L 242.35003037867 249.578175 L 244.1130254697 249.6857 L 245.87602056072 249.42005 L 247.63901565175 249.49595 L 249.40201074277 248.1171 L 251.16500583379 247.541525 L 252.92800092482 247.4846 L 254.69099601584 247.237925 L 256.45399110687 246.2196 L 258.21698619789 245.3088 L 259.97998128892 244.398 L 261.74297637994 243.39865 L 263.50597147096 242.1969 L 265.26896656199 242.557425 L 267.03196165301 242.3487 L 268.79495674404 241.418925 L 270.55795183506 240.43855 L 272.32094692608 240.74215 L 274.08394201711 241.8427 L 275.84693710813 240.7801 L 277.60993219916 242.2728 L 279.37292729018 240.603 L 281.13592238121 238.926875 L 282.89891747223 237.2381 L 284.66191256325 237.88325 L 286.42490765428 236.687825 L 288.1879027453 231.627825 L 289.95089783633 234.5057 L 291.71389292735 229.68605 L 293.47688801838 229.742975 L 295.2398831094 226.85245 L 297.00287820042 227.99095 L 298.76587329145 231.5203 L 300.52886838247 232.507 L 302.2918634735 232.87385 L 304.05485856452 234.069275 L 305.81785365554 232.89915 L 307.58084874657 230.36915 L 309.34384383759 233.8732 L 311.10683892862 229.9011 L 312.86983401964 229.211675 L 314.63282911067 230.19205 L 316.39582420169 229.53425 L 318.15881929271 228.37045 L 319.92181438374 230.9131 L 321.68480947476 231.412775 L 323.44780456579 228.0542 L 325.21079965681 227.706325 L 326.97379474783 226.65005 L 328.73678983886 228.2566 L 330.49978492988 226.8145 L 332.26278002091 227.447 L 334.02577511193 224.1327 L 335.78877020296 224.82845 L 337.55176529398 222.50085 L 339.314760385 220.786775 L 341.07775547603 220.75515 L 342.84075056705 219.28775 L 344.60374565808 218.47815 L 346.3667407491 217.06135 L 348.12973584013 216.1885 L 349.89273093115 215.23975 L 351.65572602217 214.65785 L 353.4187211132 214.73375 L 355.18171620422 214.40485 L 356.94471129525 213.4561 L 358.70770638627 212.969075 L 360.47070147729 211.564925 L 362.23369656832 211.261325 L 363.99669165934 210.50865 L 365.75968675037 209.275275 L 367.52268184139 208.377125 L 369.28567693242 206.846475 L 371.04867202344 205.3601 L 372.81166711446 204.91735 L 374.57466220549 203.65235 L 376.33765729651 204.2216 L 378.10065238754 203.2855 L 379.86364747856 202.874375 L 381.62664256958 202.10905 L 383.38963766061 201.546125 L 385.15263275163 201.988875 L 386.91562784266 201.75485 L 388.67862293368 201.80545 L 390.44161802471 201.9193 L 392.20461311573 201.75485 L 393.96760820675 201.62835 L 395.73060329778 200.8314 L 397.4935983888 200.376 L 399.25659347983 200.622675 L 401.01958857085 200.3254 L 402.78258366187 200.3254 L 404.5455787529 199.9206 L 406.30857384392 197.4918 L 408.07156893495 196.903575 L 409.83456402597 195.663875 L 411.597559117 194.9365 L 413.36055420802 196.97315 L 415.12354929904 199.307075 L 416.88654439007 197.232475 L 418.64953948109 195.233775 L 420.41253457212 194.4558 L 422.17552966314 194.1522 L 423.93852475417 196.2774 L 425.70151984519 192.1282 L 427.46451493621 196.41655 L 429.22751002724 192.54565 L 430.99050511826 194.677175 L 432.75350020929 193.7727 L 434.51649530031 191.6222 L 436.27949039133 192.786 L 438.04248548236 191.015 L 439.80548057338 186.8911 L 441.56847566441 188.54825 L 443.33147075543 187.30855 L 445.09446584646 193.779025 L 446.85746093748 194.46845 L 448.6204560285 195.347625 L 450.38345111953 189.13015 L 452.14644621055 190.3066 L 453.90944130158 189.9271 L 455.6724363926 188.693725 L 457.43543148363 188.485 L 459.19842657465 192.2547 L 460.96142166567 186.2839 L 462.7244167567 185.177025 L 464.48741184772 194.0763 L 466.25040693875 192.691125 L 468.01340202977 196.328 L 469.77639712079 195.4425 L 471.53939221182 196.9352 L 473.30238730284 199.560075 L 475.06538239387 198.864325 L 476.82837748489 198.687225 L 478.59137257592 203.1084 L 480.35436766694 197.9219 L 482.11736275796 192.46975 L 483.88035784899 185.8538 L 485.64335294001 189.0416 L 487.40634803104 179.927275 L 489.16934312206 177.979175 L 490.93233821308 180.7432 L 492.69533330411 185.2719 L 494.45832839513 185.00625 L 496.22132348616 185.847475 L 497.98431857718 186.54955 L 499.74731366821 184.8671 L 501.51030875923 185.0948 L 503.27330385025 180.8444 L 505.03629894128 180.27515 L 506.7992940323 175.8856 L 508.56228912333 175.398575 L 510.32528421435 174.48145 L 512.08827930537 179.0987 L 513.8512743964 177.71985 L 515.61426948742 175.89825 L 517.37726457845 177.92225 L 519.14025966947 174.7977 L 520.9032547605 180.319425 L 522.66624985152 180.07275 L 524.42924494254 180.70525 L 526.19224003357 176.02475 L 527.95523512459 178.889975 L 529.71823021562 174.20315 L 531.48122530664 170.78765 L 533.24422039767 167.24565 L 535.00721548869 161.078775 L 536.77021057971 163.5898 L 538.53320567074 168.6498 L 540.29620076176 169.9907 L 542.05919585279 163.24825 L 543.82219094381 163.55185 L 545.58518603483 167.87815" class="highcharts-graph" data-z-index="1" stroke="#9F6AE1" stroke-width="2" stroke-dasharray="8,6" filter="none" aria-hidden="false" role="region" tabindex="-1" style="outline: none;" aria-label="TOMATOES, line 3 of 3 with 311 data points."></path></g><g class="highcharts-markers highcharts-series-2 highcharts-line-series highcharts-color-2" data-z-index="0.1" opacity="1" transform="translate(46,42) scale(1 1)" clip-path="none" aria-hidden="true"></g></g><text x="300" text-anchor="middle" class="highcharts-title" data-z-index="4" style="font-size: 1em; color: rgb(240, 240, 243); font-weight: bold; fill: rgb(240, 240, 243);" y="22" aria-hidden="true">Profit / Loss</text><text x="300" text-anchor="middle" class="highcharts-subtitle" data-z-index="4" style="color: rgb(240, 240, 243); font-size: 0.8em; fill: rgb(240, 240, 243);" y="41" aria-hidden="true"></text><text x="10" text-anchor="start" class="highcharts-caption" data-z-index="4" style="color: rgb(102, 102, 102); font-size: 0.8em; fill: rgb(102, 102, 102);" y="397" aria-hidden="true"></text><g class="highcharts-legend highcharts-no-tooltip" data-z-index="7" transform="translate(157,355)" aria-hidden="true"><rect fill="transparent" class="highcharts-legend-box" rx="0" ry="0" stroke="#999999" stroke-width="0" filter="none" x="0" y="0" width="286" height="30"></rect><g data-z-index="1"><g><g class="highcharts-legend-item highcharts-line-series highcharts-color-0 highcharts-series-0" data-z-index="1" transform="translate(8,3)"><path fill="none" class="highcharts-graph" stroke-width="2" stroke-linecap="round" d="M 1 13 L 15 13" stroke="#67B9EE"></path><text x="21" style="color: rgb(240, 240, 243); cursor: pointer; font-size: 0.8em; text-decoration: none; fill: rgb(240, 240, 243);" text-anchor="start" data-z-index="2" y="17">Total</text></g><g class="highcharts-legend-item highcharts-line-series highcharts-color-1 highcharts-series-1" data-z-index="1" transform="translate(76.13333320617676,3)"><path fill="none" class="highcharts-graph" stroke-width="2" stroke-dasharray="8,6" d="M 0 13 L 16 13" stroke="#CEEDA5"></path><text x="21" y="17" style="color: rgb(240, 240, 243); cursor: pointer; font-size: 0.8em; text-decoration: none; fill: rgb(240, 240, 243);" text-anchor="start" data-z-index="2">EMERALDS</text></g><g class="highcharts-legend-item highcharts-line-series highcharts-color-2 highcharts-series-2" data-z-index="1" transform="translate(187.60000038146973,3)"><path fill="none" class="highcharts-graph" stroke-width="2" stroke-dasharray="8,6" d="M 0 13 L 16 13" stroke="#9F6AE1"></path><text x="21" y="17" style="color: rgb(240, 240, 243); cursor: pointer; font-size: 0.8em; text-decoration: none; fill: rgb(240, 240, 243);" text-anchor="start" data-z-index="2">TOMATOES</text></g></g></g></g><g class="highcharts-axis-labels highcharts-xaxis-labels" data-z-index="7" aria-hidden="true"><text x="126.15448200445" style="color: rgb(240, 240, 243); cursor: default; font-size: 0.8em; fill: rgb(240, 240, 243);" text-anchor="middle" transform="translate(0,0)" y="322" opacity="1">600,000</text><text x="231.9341874659" style="color: rgb(240, 240, 243); cursor: default; font-size: 0.8em; fill: rgb(240, 240, 243);" text-anchor="middle" transform="translate(0,0)" y="322" opacity="1">900,000</text><text x="337.71389292735" style="color: rgb(240, 240, 243); cursor: default; font-size: 0.8em; fill: rgb(240, 240, 243);" text-anchor="middle" transform="translate(0,0)" y="322" opacity="1">1,200,000</text><text x="443.4935983888" style="color: rgb(240, 240, 243); cursor: default; font-size: 0.8em; fill: rgb(240, 240, 243);" text-anchor="middle" transform="translate(0,0)" y="322" opacity="1">1,500,000</text><text x="549.27330385025" style="color: rgb(240, 240, 243); cursor: default; font-size: 0.8em; fill: rgb(240, 240, 243);" text-anchor="middle" transform="translate(0,0)" y="322" opacity="1">1,800,000</text></g><g class="highcharts-axis-labels highcharts-yaxis-labels" data-z-index="7" aria-hidden="true"><text x="31" style="color: rgb(240, 240, 243); cursor: default; font-size: 0.8em; fill: rgb(240, 240, 243);" text-anchor="end" transform="translate(0,0)" y="293" opacity="1">0</text><text x="31" style="color: rgb(240, 240, 243); cursor: default; font-size: 0.8em; fill: rgb(240, 240, 243);" text-anchor="end" transform="translate(0,0)" y="230" opacity="1">5k</text><text x="31" style="color: rgb(240, 240, 243); cursor: default; font-size: 0.8em; fill: rgb(240, 240, 243);" text-anchor="end" transform="translate(0,0)" y="167" opacity="1">10k</text><text x="31" style="color: rgb(240, 240, 243); cursor: default; font-size: 0.8em; fill: rgb(240, 240, 243);" text-anchor="end" transform="translate(0,0)" y="103" opacity="1">15k</text><text x="0" style="color: rgb(240, 240, 243); cursor: default; font-size: 0.8em; fill: rgb(240, 240, 243);" text-anchor="end" transform="translate(0,0)" visibility="hidden">20k</text></g><text x="590" class="highcharts-credits" text-anchor="end" data-z-index="8" style="cursor: pointer; color: rgb(240, 240, 243); font-size: 0.6em; fill: rgb(240, 240, 243);" y="395" aria-label="Chart credits: Highcharts.com" aria-hidden="false">Highcharts.com</text></svg>