<svg xmlns:xlink="http://www.w3.org/1999/xlink" version="1.1" class="highcharts-root" style="font-family: Helvetica, Arial, sans-serif; font-size: 1rem;" xmlns="http://www.w3.org/2000/svg" width="600" height="400" viewBox="0 0 600 400" aria-label="Interactive chart" aria-hidden="false"><desc aria-hidden="true">Created with Highcharts 11.4.8</desc><defs aria-hidden="true"><filter id="highcharts-drop-shadow-18"><feDropShadow dx="1" dy="1" flood-color="#000000" flood-opacity="0.75" stdDeviation="2.5"></feDropShadow></filter><clipPath id="highcharts-jpq6uxj-124457-"><rect x="0" y="0" width="539" height="253" fill="none"></rect></clipPath></defs><rect fill="#1f1f20" class="highcharts-background" filter="none" x="0" y="0" width="600" height="400" rx="0" ry="0" aria-hidden="true"></rect><rect fill="none" class="highcharts-plot-background" x="51" y="42" width="539" height="253" filter="none" aria-hidden="true"></rect><g class="highcharts-grid highcharts-xaxis-grid" data-z-index="1" aria-hidden="true"><path fill="none" stroke="#707073" stroke-width="0" stroke-dasharray="none" data-z-index="1" class="highcharts-grid-line" d="M 51.5 42 L 51.5 295" opacity="1"></path><path fill="none" stroke="#707073" stroke-width="0" stroke-dasharray="none" data-z-index="1" class="highcharts-grid-line" d="M 132.5 42 L 132.5 295" opacity="1"></path><path fill="none" stroke="#707073" stroke-width="0" stroke-dasharray="none" data-z-index="1" class="highcharts-grid-line" d="M 213.5 42 L 213.5 295" opacity="1"></path><path fill="none" stroke="#707073" stroke-width="0" stroke-dasharray="none" data-z-index="1" class="highcharts-grid-line" d="M 294.5 42 L 294.5 295" opacity="1"></path><path fill="none" stroke="#707073" stroke-width="0" stroke-dasharray="none" data-z-index="1" class="highcharts-grid-line" d="M 375.5 42 L 375.5 295" opacity="1"></path><path fill="none" stroke="#707073" stroke-width="0" stroke-dasharray="none" data-z-index="1" class="highcharts-grid-line" d="M 456.5 42 L 456.5 295" opacity="1"></path><path fill="none" stroke="#707073" stroke-width="0" stroke-dasharray="none" data-z-index="1" class="highcharts-grid-line" d="M 537.5 42 L 537.5 295" opacity="1"></path></g><g class="highcharts-grid highcharts-yaxis-grid" data-z-index="1" aria-hidden="true"><path fill="none" stroke="#707073" stroke-width="1" stroke-dasharray="none" data-z-index="1" class="highcharts-grid-line" d="M 51 295.5 L 590 295.5" opacity="1"></path><path fill="none" stroke="#707073" stroke-width="1" stroke-dasharray="none" data-z-index="1" class="highcharts-grid-line" d="M 51 232.5 L 590 232.5" opacity="1"></path><path fill="none" stroke="#707073" stroke-width="1" stroke-dasharray="none" data-z-index="1" class="highcharts-grid-line" d="M 51 169.5 L 590 169.5" opacity="1"></path><path fill="none" stroke="#707073" stroke-width="1" stroke-dasharray="none" data-z-index="1" class="highcharts-grid-line" d="M 51 105.5 L 590 105.5" opacity="1"></path><path fill="none" stroke="#707073" stroke-width="1" stroke-dasharray="none" data-z-index="1" class="highcharts-grid-line" d="M 51 42.5 L 590 42.5" opacity="1"></path></g><rect fill="none" class="highcharts-plot-border" data-z-index="1" stroke="#606063" stroke-width="0" x="51" y="42" width="539" height="253" aria-hidden="true"></rect><g class="highcharts-axis highcharts-xaxis" data-z-index="2" aria-hidden="true"><path fill="none" class="highcharts-tick" stroke="#707073" stroke-width="1" d="M 51.5 295 L 51.5 305" opacity="1"></path><path fill="none" class="highcharts-tick" stroke="#707073" stroke-width="1" d="M 132.5 295 L 132.5 305" opacity="1"></path><path fill="none" class="highcharts-tick" stroke="#707073" stroke-width="1" d="M 213.5 295 L 213.5 305" opacity="1"></path><path fill="none" class="highcharts-tick" stroke="#707073" stroke-width="1" d="M 294.5 295 L 294.5 305" opacity="1"></path><path fill="none" class="highcharts-tick" stroke="#707073" stroke-width="1" d="M 375.5 295 L 375.5 305" opacity="1"></path><path fill="none" class="highcharts-tick" stroke="#707073" stroke-width="1" d="M 456.5 295 L 456.5 305" opacity="1"></path><path fill="none" class="highcharts-tick" stroke="#707073" stroke-width="1" d="M 537.5 295 L 537.5 305" opacity="1"></path><text x="320.5" data-z-index="7" text-anchor="middle" transform="translate(0,0)" class="highcharts-axis-title" style="color: rgb(240, 240, 243); font-size: 0.8em; fill: rgb(240, 240, 243);" y="341">Timestamp</text><path fill="none" class="highcharts-axis-line" stroke="#707073" stroke-width="1" data-z-index="7" d="M 51 295.5 L 590 295.5"></path></g><g class="highcharts-axis highcharts-yaxis" data-z-index="2" aria-hidden="true"><path fill="none" class="highcharts-axis-line" stroke="#707073" stroke-width="0" data-z-index="7" d="M 51 42 L 51 295"></path></g><g class="highcharts-series-group" data-z-index="3" filter="none" aria-hidden="false"><g class="highcharts-series highcharts-series-0 highcharts-line-series highcharts-color-1" data-z-index="0.1" opacity="1" transform="translate(51,42) scale(1 1)" clip-path="url(#highcharts-jpq6uxj-124457-)" aria-hidden="false"><path fill="none" d="M 0 126.5 L 1.3508771929825 137.56875 L 2.7017543859649 129.6625 L 4.0526315789474 132.825 L 5.4035087719298 132.825 L 6.7543859649123 132.825 L 8.1052631578947 132.825 L 9.4561403508772 132.825 L 10.80701754386 121.75625 L 12.157894736842 134.40625 L 13.508771929825 147.05625 L 14.859649122807 137.56875 L 16.210526315789 137.56875 L 17.561403508772 145.475 L 18.912280701754 137.56875 L 20.263157894737 137.56875 L 21.614035087719 137.56875 L 22.964912280702 124.91875 L 24.315789473684 124.91875 L 25.666666666667 120.175 L 27.017543859649 120.175 L 28.368421052632 129.6625 L 29.719298245614 129.6625 L 31.070175438596 118.59375 L 32.421052631579 118.59375 L 33.771929824561 93.29375 L 35.122807017544 93.29375 L 36.473684210526 101.2 L 37.824561403509 101.2 L 39.175438596491 113.85 L 40.526315789474 101.2 L 41.877192982456 101.2 L 43.228070175439 104.3625 L 44.578947368421 99.61875 L 45.929824561404 99.61875 L 47.280701754386 99.61875 L 48.631578947368 91.7125 L 49.982456140351 91.7125 L 51.333333333333 91.7125 L 52.684210526316 96.45625 L 54.035087719298 96.45625 L 55.385964912281 96.45625 L 56.736842105263 101.2 L 58.087719298246 91.7125 L 59.438596491228 75.9 L 60.789473684211 75.9 L 62.140350877193 75.9 L 63.491228070175 67.99375 L 64.842105263158 58.50625 L 66.19298245614 53.7625 L 67.543859649123 53.7625 L 68.894736842105 53.7625 L 70.245614035088 44.275 L 71.59649122807 39.53125 L 72.947368421053 39.53125 L 74.298245614035 34.7875 L 75.649122807018 42.69375 L 77 42.69375 L 78.350877192982 49.01875 L 79.701754385965 49.01875 L 81.052631578947 56.925 L 82.40350877193 64.83125 L 83.754385964912 77.48125 L 85.105263157895 77.48125 L 86.456140350877 77.48125 L 87.80701754386 86.96875 L 89.157894736842 80.64375 L 90.508771929825 64.83125 L 91.859649122807 71.15625 L 93.210526315789 71.15625 L 94.561403508772 63.25 L 95.912280701754 58.50625 L 97.263157894737 45.85625 L 98.614035087719 55.34375 L 99.964912280702 55.34375 L 101.31578947368 55.34375 L 102.66666666667 63.25 L 104.01754385965 63.25 L 105.36842105263 63.25 L 106.71929824561 53.7625 L 108.0701754386 55.34375 L 109.42105263158 72.7375 L 110.77192982456 83.80625 L 112.12280701754 66.4125 L 113.47368421053 60.0875 L 114.82456140351 49.01875 L 116.17543859649 61.66875 L 117.52631578947 61.66875 L 118.87719298246 67.99375 L 120.22807017544 67.99375 L 121.57894736842 67.99375 L 122.9298245614 67.99375 L 124.28070175439 80.64375 L 125.63157894737 80.64375 L 126.98245614035 80.64375 L 128.33333333333 90.13125 L 129.68421052632 90.13125 L 131.0350877193 90.13125 L 132.38596491228 90.13125 L 133.73684210526 64.83125 L 135.08771929825 64.83125 L 136.43859649123 64.83125 L 137.78947368421 55.34375 L 139.14035087719 55.34375 L 140.49122807018 50.6 L 141.84210526316 50.6 L 143.19298245614 39.53125 L 144.54385964912 39.53125 L 145.89473684211 34.7875 L 147.24561403509 34.7875 L 148.59649122807 44.275 L 149.94736842105 36.36875 L 151.29824561404 36.36875 L 152.64912280702 47.4375 L 154 45.85625 L 155.35087719298 45.85625 L 156.70175438596 33.20625 L 158.05263157895 33.20625 L 159.40350877193 25.3 L 160.75438596491 37.95 L 162.10526315789 50.6 L 163.45614035088 61.66875 L 164.80701754386 61.66875 L 166.15789473684 52.18125 L 167.50877192982 33.20625 L 168.85964912281 33.20625 L 170.21052631579 22.1375 L 171.56140350877 26.88125 L 172.91228070175 15.8125 L 174.26315789474 15.8125 L 175.61403508772 15.8125 L 176.9649122807 17.39375 L 178.31578947368 2.8421709430404e-14 L 179.66666666667 12.65 L 181.01754385965 6.325 L 182.36842105263 18.975 L 183.71929824561 7.90625 L 185.0701754386 1.58125 L 186.42105263158 1.58125 L 187.77192982456 1.58125 L 189.12280701754 6.325 L 190.47368421053 2.8421709430404e-14 L 191.82456140351 2.8421709430404e-14 L 193.17543859649 2.8421709430404e-14 L 194.52631578947 2.8421709430404e-14 L 195.87719298246 2.8421709430404e-14 L 197.22807017544 2.8421709430404e-14 L 198.57894736842 6.325 L 199.9298245614 6.325 L 201.28070175439 11.06875 L 202.63157894737 11.06875 L 203.98245614035 11.06875 L 205.33333333333 11.06875 L 206.68421052632 23.71875 L 208.0350877193 28.4625 L 209.38596491228 28.4625 L 210.73684210526 28.4625 L 212.08771929825 39.53125 L 213.43859649123 39.53125 L 214.78947368421 45.85625 L 216.14035087719 33.20625 L 217.49122807018 33.20625 L 218.84210526316 17.39375 L 220.19298245614 9.4875 L 221.54385964912 3.1625 L 222.89473684211 17.39375 L 224.24561403509 7.90625 L 225.59649122807 20.55625 L 226.94736842105 36.36875 L 228.29824561404 36.36875 L 229.64912280702 37.95 L 231 49.01875 L 232.35087719298 49.01875 L 233.70175438596 41.1125 L 235.05263157895 33.20625 L 236.40350877193 44.275 L 237.75438596491 44.275 L 239.10526315789 44.275 L 240.45614035088 44.275 L 241.80701754386 56.925 L 243.15789473684 56.925 L 244.50877192982 56.925 L 245.85964912281 61.66875 L 247.21052631579 61.66875 L 248.56140350877 66.4125 L 249.91228070175 66.4125 L 251.26315789474 58.50625 L 252.61403508772 66.4125 L 253.9649122807 66.4125 L 255.31578947368 47.4375 L 256.66666666667 63.25 L 258.01754385965 74.31875 L 259.36842105263 86.96875 L 260.71929824561 93.29375 L 262.0701754386 107.525 L 263.42105263158 107.525 L 264.77192982456 107.525 L 266.12280701754 107.525 L 267.47368421053 107.525 L 268.82456140351 107.525 L 270.17543859649 126.5 L 271.52631578947 113.85 L 272.87719298246 113.85 L 274.22807017544 113.85 L 275.57894736842 113.85 L 276.9298245614 113.85 L 278.28070175439 113.85 L 279.63157894737 118.59375 L 280.98245614035 107.525 L 282.33333333333 99.61875 L 283.68421052632 99.61875 L 285.0350877193 88.55 L 286.38596491228 72.7375 L 287.73684210526 60.0875 L 289.08771929825 71.15625 L 290.43859649123 66.4125 L 291.78947368421 66.4125 L 293.14035087719 50.6 L 294.49122807018 37.95 L 295.84210526316 49.01875 L 297.19298245614 47.4375 L 298.54385964912 49.01875 L 299.89473684211 42.69375 L 301.24561403509 33.20625 L 302.59649122807 33.20625 L 303.94736842105 33.20625 L 305.29824561404 28.4625 L 306.64912280702 39.53125 L 308 20.55625 L 309.35087719298 11.06875 L 310.70175438596 17.39375 L 312.05263157895 1.58125 L 313.40350877193 6.325 L 314.75438596491 6.325 L 316.10526315789 6.325 L 317.45614035088 6.325 L 318.80701754386 6.325 L 320.15789473684 14.23125 L 321.50877192982 14.23125 L 322.85964912281 14.23125 L 324.21052631579 14.23125 L 325.56140350877 14.23125 L 326.91228070175 25.3 L 328.26315789474 7.90625 L 329.61403508772 17.39375 L 330.9649122807 17.39375 L 332.31578947368 17.39375 L 333.66666666667 30.04375 L 335.01754385965 34.7875 L 336.36842105263 36.36875 L 337.71929824561 36.36875 L 339.0701754386 36.36875 L 340.42105263158 36.36875 L 341.77192982456 49.01875 L 343.12280701754 49.01875 L 344.47368421053 49.01875 L 345.82456140351 49.01875 L 347.17543859649 49.01875 L 348.52631578947 39.53125 L 349.87719298246 45.85625 L 351.22807017544 23.71875 L 352.57894736842 31.625 L 353.9298245614 37.95 L 355.28070175439 25.3 L 356.63157894737 12.65 L 357.98245614035 12.65 L 359.33333333333 6.325 L 360.68421052632 6.325 L 362.0350877193 18.975 L 363.38596491228 18.975 L 364.73684210526 18.975 L 366.08771929825 18.975 L 367.43859649123 31.625 L 368.78947368421 23.71875 L 370.14035087719 17.39375 L 371.49122807018 17.39375 L 372.84210526316 17.39375 L 374.19298245614 25.3 L 375.54385964912 33.20625 L 376.89473684211 25.3 L 378.24561403509 18.975 L 379.59649122807 18.975 L 380.94736842105 18.975 L 382.29824561404 11.06875 L 383.64912280702 1.58125 L 385 11.06875 L 386.35087719298 3.1625 L 387.70175438596 2.8421709430404e-14 L 389.05263157895 2.8421709430404e-14 L 390.40350877193 2.8421709430404e-14 L 391.75438596491 2.8421709430404e-14 L 393.10526315789 9.4875 L 394.45614035088 15.8125 L 395.80701754386 17.39375 L 397.15789473684 7.90625 L 398.50877192982 11.06875 L 399.85964912281 26.88125 L 401.21052631579 44.275 L 402.56140350877 44.275 L 403.91228070175 34.7875 L 405.26315789474 34.7875 L 406.61403508772 34.7875 L 407.9649122807 39.53125 L 409.31578947368 17.39375 L 410.66666666667 26.88125 L 412.01754385965 18.975 L 413.36842105263 18.975 L 414.71929824561 7.90625 L 416.0701754386 7.90625 L 417.42105263158 7.90625 L 418.77192982456 7.90625 L 420.12280701754 7.90625 L 421.47368421053 31.625 L 422.82456140351 31.625 L 424.17543859649 15.8125 L 425.52631578947 22.1375 L 426.87719298246 20.55625 L 428.22807017544 20.55625 L 429.57894736842 26.88125 L 430.9298245614 26.88125 L 432.28070175439 34.7875 L 433.63157894737 42.69375 L 434.98245614035 33.20625 L 436.33333333333 44.275 L 437.68421052632 44.275 L 439.0350877193 44.275 L 440.38596491228 56.925 L 441.73684210526 41.1125 L 443.08771929825 34.7875 L 444.43859649123 30.04375 L 445.78947368421 42.69375 L 447.14035087719 33.20625 L 448.49122807018 33.20625 L 449.84210526316 39.53125 L 451.19298245614 33.20625 L 452.54385964912 36.36875 L 453.89473684211 36.36875 L 455.24561403509 3.1625 L 456.59649122807 3.1625 L 457.94736842105 2.8421709430404e-14 L 459.29824561404 9.4875 L 460.64912280702 9.4875 L 462 14.23125 L 463.35087719298 9.4875 L 464.70175438596 9.4875 L 466.05263157895 15.8125 L 467.40350877193 23.71875 L 468.75438596491 34.7875 L 470.10526315789 42.69375 L 471.45614035088 36.36875 L 472.80701754386 45.85625 L 474.15789473684 55.34375 L 475.50877192982 66.4125 L 476.85964912281 102.78125 L 478.21052631579 102.78125 L 479.56140350877 102.78125 L 480.91228070175 102.78125 L 482.26315789474 93.29375 L 483.61403508772 83.80625 L 484.9649122807 77.48125 L 486.31578947368 77.48125 L 487.66666666667 85.3875 L 489.01754385965 85.3875 L 490.36842105263 72.7375 L 491.71929824561 58.50625 L 493.0701754386 53.7625 L 494.42105263158 64.83125 L 495.77192982456 58.50625 L 497.12280701754 58.50625 L 498.47368421053 67.99375 L 499.82456140351 80.64375 L 501.17543859649 72.7375 L 502.52631578947 72.7375 L 503.87719298246 69.575 L 505.22807017544 69.575 L 506.57894736842 77.48125 L 507.9298245614 86.96875 L 509.28070175439 71.15625 L 510.63157894737 64.83125 L 511.98245614035 71.15625 L 513.33333333333 71.15625 L 514.68421052632 79.0625 L 516.0350877193 82.225 L 517.38596491228 82.225 L 518.73684210526 77.48125 L 520.08771929825 83.80625 L 521.43859649123 91.7125 L 522.78947368421 96.45625 L 524.14035087719 96.45625 L 525.49122807018 104.3625 L 526.84210526316 104.3625 L 528.19298245614 107.525 L 529.54385964912 102.78125 L 530.89473684211 102.78125 L 532.24561403509 121.75625 L 533.59649122807 126.5 L 534.94736842105 135.9875 L 536.29824561404 150.21875 L 537.64912280702 159.70625 L 539 159.70625" class="highcharts-graph" data-z-index="1" stroke="#CEEDA5" stroke-width="2" stroke-linejoin="round" stroke-linecap="round" filter="none" aria-hidden="false" role="region" tabindex="-1" style="outline: none;" aria-label="EMERALDS, line 1 of 2 with 400 data points."></path></g><g class="highcharts-markers highcharts-series-0 highcharts-line-series highcharts-color-1" data-z-index="0.1" opacity="1" transform="translate(51,42) scale(1 1)" clip-path="none" aria-hidden="true"></g><g class="highcharts-series highcharts-series-1 highcharts-line-series highcharts-color-2" data-z-index="0.1" opacity="1" transform="translate(51,42) scale(1 1)" clip-path="url(#highcharts-jpq6uxj-124457-)" aria-hidden="false"><path fill="none" d="M 0 126.5 L 1.3508771929825 126.5 L 2.7017543859649 126.5 L 4.0526315789474 126.5 L 5.4035087719298 126.5 L 6.7543859649123 126.5 L 8.1052631578947 126.5 L 9.4561403508772 126.5 L 10.80701754386 126.5 L 12.157894736842 126.5 L 13.508771929825 126.5 L 14.859649122807 126.5 L 16.210526315789 126.5 L 17.561403508772 126.5 L 18.912280701754 126.5 L 20.263157894737 126.5 L 21.614035087719 126.5 L 22.964912280702 126.5 L 24.315789473684 126.5 L 25.666666666667 126.5 L 27.017543859649 126.5 L 28.368421052632 126.5 L 29.719298245614 126.5 L 31.070175438596 126.5 L 32.421052631579 126.5 L 33.771929824561 126.5 L 35.122807017544 126.5 L 36.473684210526 126.5 L 37.824561403509 126.5 L 39.175438596491 126.5 L 40.526315789474 126.5 L 41.877192982456 126.5 L 43.228070175439 126.5 L 44.578947368421 126.5 L 45.929824561404 126.5 L 47.280701754386 130.453125 L 48.631578947368 126.5 L 49.982456140351 126.5 L 51.333333333333 126.5 L 52.684210526316 126.5 L 54.035087719298 126.5 L 55.385964912281 126.5 L 56.736842105263 126.5 L 58.087719298246 126.5 L 59.438596491228 126.5 L 60.789473684211 126.5 L 62.140350877193 94.875 L 63.491228070175 126.5 L 64.842105263158 126.5 L 66.19298245614 126.5 L 67.543859649123 126.5 L 68.894736842105 126.5 L 70.245614035088 126.5 L 71.59649122807 126.5 L 72.947368421053 126.5 L 74.298245614035 126.5 L 75.649122807018 126.5 L 77 126.5 L 78.350877192982 126.5 L 79.701754385965 126.5 L 81.052631578947 126.5 L 82.40350877193 126.5 L 83.754385964912 15.8125 L 85.105263157895 126.5 L 86.456140350877 126.5 L 87.80701754386 126.5 L 89.157894736842 126.5 L 90.508771929825 126.5 L 91.859649122807 126.5 L 93.210526315789 126.5 L 94.561403508772 126.5 L 95.912280701754 126.5 L 97.263157894737 126.5 L 98.614035087719 126.5 L 99.964912280702 126.5 L 101.31578947368 126.5 L 102.66666666667 126.5 L 104.01754385965 94.875 L 105.36842105263 2.8421709430404e-14 L 106.71929824561 126.5 L 108.0701754386 126.5 L 109.42105263158 126.5 L 110.77192982456 126.5 L 112.12280701754 126.5 L 113.47368421053 126.5 L 114.82456140351 126.5 L 116.17543859649 126.5 L 117.52631578947 138.359375 L 118.87719298246 90.921875 L 120.22807017544 126.5 L 121.57894736842 126.5 L 122.9298245614 126.5 L 124.28070175439 126.5 L 125.63157894737 126.5 L 126.98245614035 126.5 L 128.33333333333 126.5 L 129.68421052632 126.5 L 131.0350877193 126.5 L 132.38596491228 126.5 L 133.73684210526 130.453125 L 135.08771929825 126.5 L 136.43859649123 126.5 L 137.78947368421 126.5 L 139.14035087719 126.5 L 140.49122807018 126.5 L 141.84210526316 126.5 L 143.19298245614 126.5 L 144.54385964912 126.5 L 145.89473684211 126.5 L 147.24561403509 126.5 L 148.59649122807 126.5 L 149.94736842105 126.5 L 151.29824561404 126.5 L 152.64912280702 126.5 L 154 126.5 L 155.35087719298 126.5 L 156.70175438596 126.5 L 158.05263157895 126.5 L 159.40350877193 126.5 L 160.75438596491 126.5 L 162.10526315789 126.5 L 163.45614035088 126.5 L 164.80701754386 126.5 L 166.15789473684 126.5 L 167.50877192982 126.5 L 168.85964912281 126.5 L 170.21052631579 126.5 L 171.56140350877 126.5 L 172.91228070175 126.5 L 174.26315789474 134.40625 L 175.61403508772 126.5 L 176.9649122807 126.5 L 178.31578947368 126.5 L 179.66666666667 126.5 L 181.01754385965 126.5 L 182.36842105263 126.5 L 183.71929824561 126.5 L 185.0701754386 126.5 L 186.42105263158 126.5 L 187.77192982456 126.5 L 189.12280701754 126.5 L 190.47368421053 126.5 L 191.82456140351 126.5 L 193.17543859649 126.5 L 194.52631578947 126.5 L 195.87719298246 126.5 L 197.22807017544 126.5 L 198.57894736842 126.5 L 199.9298245614 126.5 L 201.28070175439 126.5 L 202.63157894737 126.5 L 203.98245614035 126.5 L 205.33333333333 126.5 L 206.68421052632 126.5 L 208.0350877193 126.5 L 209.38596491228 126.5 L 210.73684210526 126.5 L 212.08771929825 126.5 L 213.43859649123 126.5 L 214.78947368421 126.5 L 216.14035087719 126.5 L 217.49122807018 126.5 L 218.84210526316 126.5 L 220.19298245614 126.5 L 221.54385964912 126.5 L 222.89473684211 126.5 L 224.24561403509 126.5 L 225.59649122807 126.5 L 226.94736842105 126.5 L 228.29824561404 126.5 L 229.64912280702 126.5 L 231 126.5 L 232.35087719298 126.5 L 233.70175438596 126.5 L 235.05263157895 126.5 L 236.40350877193 126.5 L 237.75438596491 126.5 L 239.10526315789 126.5 L 240.45614035088 126.5 L 241.80701754386 126.5 L 243.15789473684 126.5 L 244.50877192982 126.5 L 245.85964912281 126.5 L 247.21052631579 126.5 L 248.56140350877 126.5 L 249.91228070175 126.5 L 251.26315789474 126.5 L 252.61403508772 126.5 L 253.9649122807 126.5 L 255.31578947368 126.5 L 256.66666666667 126.5 L 258.01754385965 126.5 L 259.36842105263 114.640625 L 260.71929824561 126.5 L 262.0701754386 126.5 L 263.42105263158 126.5 L 264.77192982456 126.5 L 266.12280701754 126.5 L 267.47368421053 126.5 L 268.82456140351 126.5 L 270.17543859649 126.5 L 271.52631578947 126.5 L 272.87719298246 126.5 L 274.22807017544 126.5 L 275.57894736842 126.5 L 276.9298245614 126.5 L 278.28070175439 126.5 L 279.63157894737 126.5 L 280.98245614035 126.5 L 282.33333333333 126.5 L 283.68421052632 126.5 L 285.0350877193 126.5 L 286.38596491228 126.5 L 287.73684210526 126.5 L 289.08771929825 126.5 L 290.43859649123 126.5 L 291.78947368421 126.5 L 293.14035087719 126.5 L 294.49122807018 126.5 L 295.84210526316 126.5 L 297.19298245614 126.5 L 298.54385964912 126.5 L 299.89473684211 166.03125 L 301.24561403509 126.5 L 302.59649122807 126.5 L 303.94736842105 126.5 L 305.29824561404 126.5 L 306.64912280702 126.5 L 308 126.5 L 309.35087719298 126.5 L 310.70175438596 126.5 L 312.05263157895 126.5 L 313.40350877193 130.453125 L 314.75438596491 126.5 L 316.10526315789 126.5 L 317.45614035088 126.5 L 318.80701754386 126.5 L 320.15789473684 126.5 L 321.50877192982 126.5 L 322.85964912281 126.5 L 324.21052631579 126.5 L 325.56140350877 126.5 L 326.91228070175 126.5 L 328.26315789474 126.5 L 329.61403508772 126.5 L 330.9649122807 126.5 L 332.31578947368 130.453125 L 333.66666666667 126.5 L 335.01754385965 126.5 L 336.36842105263 126.5 L 337.71929824561 126.5 L 339.0701754386 126.5 L 340.42105263158 126.5 L 341.77192982456 126.5 L 343.12280701754 126.5 L 344.47368421053 126.5 L 345.82456140351 130.453125 L 347.17543859649 126.5 L 348.52631578947 126.5 L 349.87719298246 126.5 L 351.22807017544 126.5 L 352.57894736842 126.5 L 353.9298245614 126.5 L 355.28070175439 126.5 L 356.63157894737 126.5 L 357.98245614035 126.5 L 359.33333333333 126.5 L 360.68421052632 126.5 L 362.0350877193 126.5 L 363.38596491228 126.5 L 364.73684210526 126.5 L 366.08771929825 126.5 L 367.43859649123 126.5 L 368.78947368421 126.5 L 370.14035087719 130.453125 L 371.49122807018 126.5 L 372.84210526316 126.5 L 374.19298245614 126.5 L 375.54385964912 126.5 L 376.89473684211 126.5 L 378.24561403509 126.5 L 379.59649122807 130.453125 L 380.94736842105 126.5 L 382.29824561404 126.5 L 383.64912280702 126.5 L 385 126.5 L 386.35087719298 126.5 L 387.70175438596 126.5 L 389.05263157895 126.5 L 390.40350877193 154.171875 L 391.75438596491 126.5 L 393.10526315789 126.5 L 394.45614035088 126.5 L 395.80701754386 2.8421709430404e-14 L 397.15789473684 126.5 L 398.50877192982 126.5 L 399.85964912281 126.5 L 401.21052631579 126.5 L 402.56140350877 126.5 L 403.91228070175 126.5 L 405.26315789474 126.5 L 406.61403508772 126.5 L 407.9649122807 126.5 L 409.31578947368 126.5 L 410.66666666667 126.5 L 412.01754385965 126.5 L 413.36842105263 126.5 L 414.71929824561 126.5 L 416.0701754386 126.5 L 417.42105263158 126.5 L 418.77192982456 126.5 L 420.12280701754 126.5 L 421.47368421053 126.5 L 422.82456140351 126.5 L 424.17543859649 126.5 L 425.52631578947 126.5 L 426.87719298246 122.546875 L 428.22807017544 126.5 L 429.57894736842 126.5 L 430.9298245614 126.5 L 432.28070175439 126.5 L 433.63157894737 126.5 L 434.98245614035 126.5 L 436.33333333333 130.453125 L 437.68421052632 209.515625 L 439.0350877193 126.5 L 440.38596491228 126.5 L 441.73684210526 126.5 L 443.08771929825 126.5 L 444.43859649123 126.5 L 445.78947368421 126.5 L 447.14035087719 130.453125 L 448.49122807018 126.5 L 449.84210526316 15.8125 L 451.19298245614 126.5 L 452.54385964912 126.5 L 453.89473684211 126.5 L 455.24561403509 126.5 L 456.59649122807 126.5 L 457.94736842105 126.5 L 459.29824561404 126.5 L 460.64912280702 126.5 L 462 126.5 L 463.35087719298 126.5 L 464.70175438596 126.5 L 466.05263157895 126.5 L 467.40350877193 130.453125 L 468.75438596491 150.21875 L 470.10526315789 126.5 L 471.45614035088 126.5 L 472.80701754386 126.5 L 474.15789473684 126.5 L 475.50877192982 126.5 L 476.85964912281 126.5 L 478.21052631579 126.5 L 479.56140350877 126.5 L 480.91228070175 130.453125 L 482.26315789474 126.5 L 483.61403508772 126.5 L 484.9649122807 126.5 L 486.31578947368 126.5 L 487.66666666667 126.5 L 489.01754385965 181.84375 L 490.36842105263 126.5 L 491.71929824561 126.5 L 493.0701754386 126.5 L 494.42105263158 126.5 L 495.77192982456 126.5 L 497.12280701754 126.5 L 498.47368421053 126.5 L 499.82456140351 126.5 L 501.17543859649 126.5 L 502.52631578947 126.5 L 503.87719298246 126.5 L 505.22807017544 2.8421709430404e-14 L 506.57894736842 126.5 L 507.9298245614 126.5 L 509.28070175439 126.5 L 510.63157894737 126.5 L 511.98245614035 126.5 L 513.33333333333 126.5 L 514.68421052632 126.5 L 516.0350877193 126.5 L 517.38596491228 126.5 L 518.73684210526 126.5 L 520.08771929825 126.5 L 521.43859649123 126.5 L 522.78947368421 126.5 L 524.14035087719 126.5 L 525.49122807018 126.5 L 526.84210526316 126.5 L 528.19298245614 126.5 L 529.54385964912 126.5 L 530.89473684211 126.5 L 532.24561403509 126.5 L 533.59649122807 126.5 L 534.94736842105 126.5 L 536.29824561404 130.453125 L 537.64912280702 126.5 L 539 126.5" class="highcharts-graph" data-z-index="1" stroke="#9F6AE1" stroke-width="2" stroke-linejoin="round" stroke-linecap="round" filter="none" aria-hidden="false" role="region" tabindex="-1" style="outline: none;" aria-label="TOMATOES, line 2 of 2 with 400 data points."></path></g><g class="highcharts-markers highcharts-series-1 highcharts-line-series highcharts-color-2" data-z-index="0.1" opacity="1" transform="translate(51,42) scale(1 1)" clip-path="none" aria-hidden="true"></g></g><text x="300" text-anchor="middle" class="highcharts-title" data-z-index="4" style="font-size: 1em; color: rgb(240, 240, 243); font-weight: bold; fill: rgb(240, 240, 243);" y="22" aria-hidden="true">Positions (% of limit)</text><text x="300" text-anchor="middle" class="highcharts-subtitle" data-z-index="4" style="color: rgb(240, 240, 243); font-size: 0.8em; fill: rgb(240, 240, 243);" y="41" aria-hidden="true"></text><text x="10" text-anchor="start" class="highcharts-caption" data-z-index="4" style="color: rgb(102, 102, 102); font-size: 0.8em; fill: rgb(102, 102, 102);" y="397" aria-hidden="true"></text><g class="highcharts-legend highcharts-no-tooltip" data-z-index="7" transform="translate(191,355)" aria-hidden="true"><rect fill="transparent" class="highcharts-legend-box" rx="0" ry="0" stroke="#999999" stroke-width="0" filter="none" x="0" y="0" width="217" height="30"></rect><g data-z-index="1"><g><g class="highcharts-legend-item highcharts-line-series highcharts-color-1 highcharts-series-0" data-z-index="1" transform="translate(8,3)"><path fill="none" class="highcharts-graph" stroke-width="2" stroke-linecap="round" d="M 1 13 L 15 13" stroke="#CEEDA5"></path><text x="21" style="color: rgb(240, 240, 243); cursor: pointer; font-size: 0.8em; text-decoration: none; fill: rgb(240, 240, 243);" text-anchor="start" data-z-index="2" y="17">EMERALDS</text></g><g class="highcharts-legend-item highcharts-line-series highcharts-color-2 highcharts-series-1" data-z-index="1" transform="translate(119.46666717529297,3)"><path fill="none" class="highcharts-graph" stroke-width="2" stroke-linecap="round" d="M 1 13 L 15 13" stroke="#9F6AE1"></path><text x="21" y="17" style="color: rgb(240, 240, 243); cursor: pointer; font-size: 0.8em; text-decoration: none; fill: rgb(240, 240, 243);" text-anchor="start" data-z-index="2">TOMATOES</text></g></g></g></g><g class="highcharts-axis-labels highcharts-xaxis-labels" data-z-index="7" aria-hidden="true"><text x="51" style="color: rgb(240, 240, 243); cursor: default; font-size: 0.8em; fill: rgb(240, 240, 243);" text-anchor="middle" transform="translate(0,0)" y="322" opacity="1">0</text><text x="132.05263157895" style="color: rgb(240, 240, 243); cursor: default; font-size: 0.8em; fill: rgb(240, 240, 243);" text-anchor="middle" transform="translate(0,0)" y="322" opacity="1">300,000</text><text x="213.10526315789" style="color: rgb(240, 240, 243); cursor: default; font-size: 0.8em; fill: rgb(240, 240, 243);" text-anchor="middle" transform="translate(0,0)" y="322" opacity="1">600,000</text><text x="294.15789473684" style="color: rgb(240, 240, 243); cursor: default; font-size: 0.8em; fill: rgb(240, 240, 243);" text-anchor="middle" transform="translate(0,0)" y="322" opacity="1">900,000</text><text x="375.21052631579" style="color: rgb(240, 240, 243); cursor: default; font-size: 0.8em; fill: rgb(240, 240, 243);" text-anchor="middle" transform="translate(0,0)" y="322" opacity="1">1,200,000</text><text x="456.26315789474" style="color: rgb(240, 240, 243); cursor: default; font-size: 0.8em; fill: rgb(240, 240, 243);" text-anchor="middle" transform="translate(0,0)" y="322" opacity="1">1,500,000</text><text x="537.31578947368" style="color: rgb(240, 240, 243); cursor: default; font-size: 0.8em; fill: rgb(240, 240, 243);" text-anchor="middle" transform="translate(0,0)" y="322" opacity="1">1,800,000</text></g><g class="highcharts-axis-labels highcharts-yaxis-labels" data-z-index="7" aria-hidden="true"><text x="36" style="color: rgb(240, 240, 243); cursor: default; font-size: 0.8em; fill: rgb(240, 240, 243);" text-anchor="end" transform="translate(0,0)" y="293" opacity="1">-100</text><text x="36" style="color: rgb(240, 240, 243); cursor: default; font-size: 0.8em; fill: rgb(240, 240, 243);" text-anchor="end" transform="translate(0,0)" y="230" opacity="1">-50</text><text x="36" style="color: rgb(240, 240, 243); cursor: default; font-size: 0.8em; fill: rgb(240, 240, 243);" text-anchor="end" transform="translate(0,0)" y="167" opacity="1">0</text><text x="36" style="color: rgb(240, 240, 243); cursor: default; font-size: 0.8em; fill: rgb(240, 240, 243);" text-anchor="end" transform="translate(0,0)" y="103" opacity="1">50</text><text x="0" style="color: rgb(240, 240, 243); cursor: default; font-size: 0.8em; fill: rgb(240, 240, 243);" text-anchor="end" transform="translate(0,0)" visibility="hidden">100</text></g><text x="590" class="highcharts-credits" text-anchor="end" data-z-index="8" style="cursor: pointer; color: rgb(240, 240, 243); font-size: 0.6em; fill: rgb(240, 240, 243);" y="395" aria-label="Chart credits: Highcharts.com" aria-hidden="false">Highcharts.com</text></svg>