<svg xmlns:xlink="http://www.w3.org/1999/xlink" version="1.1" class="highcharts-root" style="font-family: Helvetica, Arial, sans-serif; font-size: 1rem;" xmlns="http://www.w3.org/2000/svg" width="600" height="400" viewBox="0 0 600 400" aria-label="Interactive chart" aria-hidden="false"><desc aria-hidden="true">Created with Highcharts 11.4.8</desc><defs aria-hidden="true"><filter id="highcharts-drop-shadow-6"><feDropShadow dx="1" dy="1" flood-color="#000000" flood-opacity="0.75" stdDeviation="2.5"></feDropShadow></filter><clipPath id="highcharts-y001gor-83363-"><rect x="0" y="0" width="533" height="253" fill="none"></rect></clipPath></defs><rect fill="#1f1f20" class="highcharts-background" filter="none" x="0" y="0" width="600" height="400" rx="0" ry="0" aria-hidden="true"></rect><rect fill="none" class="highcharts-plot-background" x="57" y="42" width="533" height="253" filter="none" aria-hidden="true"></rect><g class="highcharts-grid highcharts-xaxis-grid" data-z-index="1" aria-hidden="true"><path fill="none" stroke="#707073" stroke-width="0" stroke-dasharray="none" data-z-index="1" class="highcharts-grid-line" d="M 57.5 42 L 57.5 295" opacity="1"></path><path fill="none" stroke="#707073" stroke-width="0" stroke-dasharray="none" data-z-index="1" class="highcharts-grid-line" d="M 139.5 42 L 139.5 295" opacity="1"></path><path fill="none" stroke="#707073" stroke-width="0" stroke-dasharray="none" data-z-index="1" class="highcharts-grid-line" d="M 218.5 42 L 218.5 295" opacity="1"></path><path fill="none" stroke="#707073" stroke-width="0" stroke-dasharray="none" data-z-index="1" class="highcharts-grid-line" d="M 297.5 42 L 297.5 295" opacity="1"></path><path fill="none" stroke="#707073" stroke-width="0" stroke-dasharray="none" data-z-index="1" class="highcharts-grid-line" d="M 377.5 42 L 377.5 295" opacity="1"></path><path fill="none" stroke="#707073" stroke-width="0" stroke-dasharray="none" data-z-index="1" class="highcharts-grid-line" d="M 456.5 42 L 456.5 295" opacity="1"></path><path fill="none" stroke="#707073" stroke-width="0" stroke-dasharray="none" data-z-index="1" class="highcharts-grid-line" d="M 535.5 42 L 535.5 295" opacity="1"></path></g><g class="highcharts-grid highcharts-yaxis-grid" data-z-index="1" aria-hidden="true"><path fill="none" stroke="#707073" stroke-width="1" stroke-dasharray="none" data-z-index="1" class="highcharts-grid-line" d="M 57 295.5 L 590 295.5" opacity="1"></path><path fill="none" stroke="#707073" stroke-width="1" stroke-dasharray="none" data-z-index="1" class="highcharts-grid-line" d="M 57 244.5 L 590 244.5" opacity="1"></path><path fill="none" stroke="#707073" stroke-width="1" stroke-dasharray="none" data-z-index="1" class="highcharts-grid-line" d="M 57 194.5 L 590 194.5" opacity="1"></path><path fill="none" stroke="#707073" stroke-width="1" stroke-dasharray="none" data-z-index="1" class="highcharts-grid-line" d="M 57 143.5 L 590 143.5" opacity="1"></path><path fill="none" stroke="#707073" stroke-width="1" stroke-dasharray="none" data-z-index="1" class="highcharts-grid-line" d="M 57 93.5 L 590 93.5" opacity="1"></path><path fill="none" stroke="#707073" stroke-width="1" stroke-dasharray="none" data-z-index="1" class="highcharts-grid-line" d="M 57 42.5 L 590 42.5" opacity="1"></path></g><rect fill="none" class="highcharts-plot-border" data-z-index="1" stroke="#606063" stroke-width="0" x="57" y="42" width="533" height="253" aria-hidden="true"></rect><g class="highcharts-axis highcharts-xaxis" data-z-index="2" aria-hidden="true"><path fill="none" class="highcharts-tick" stroke="#707073" stroke-width="1" d="M 57.5 295 L 57.5 305" opacity="1"></path><path fill="none" class="highcharts-tick" stroke="#707073" stroke-width="1" d="M 139.5 295 L 139.5 305" opacity="1"></path><path fill="none" class="highcharts-tick" stroke="#707073" stroke-width="1" d="M 218.5 295 L 218.5 305" opacity="1"></path><path fill="none" class="highcharts-tick" stroke="#707073" stroke-width="1" d="M 297.5 295 L 297.5 305" opacity="1"></path><path fill="none" class="highcharts-tick" stroke="#707073" stroke-width="1" d="M 377.5 295 L 377.5 305" opacity="1"></path><path fill="none" class="highcharts-tick" stroke="#707073" stroke-width="1" d="M 456.5 295 L 456.5 305" opacity="1"></path><path fill="none" class="highcharts-tick" stroke="#707073" stroke-width="1" d="M 535.5 295 L 535.5 305" opacity="1"></path><text x="323.5" data-z-index="7" text-anchor="middle" transform="translate(0,0)" class="highcharts-axis-title" style="color: rgb(240, 240, 243); font-size: 0.8em; fill: rgb(240, 240, 243);" y="341">Timestamp</text><path fill="none" class="highcharts-axis-line" stroke="#707073" stroke-width="1" data-z-index="7" d="M 57 295.5 L 590 295.5"></path></g><g class="highcharts-axis highcharts-yaxis" data-z-index="2" aria-hidden="true"><path fill="none" class="highcharts-axis-line" stroke="#707073" stroke-width="0" data-z-index="7" d="M 57 42 L 57 295"></path></g><g class="highcharts-series-group" data-z-index="3" filter="none" aria-hidden="false"><g class="highcharts-series highcharts-series-0 highcharts-line-series" data-z-index="0.1" opacity="1" transform="translate(57,42) scale(1 1)" clip-path="url(#highcharts-y001gor-83363-)" aria-hidden="false"><path fill="none" d="M 1.3225806451613 117.392 L 3.9677419354839 127.512 L 5.2903225806452 129.536 L 6.6129032258065 133.584 L 7.9354838709677 127.512 L 9.258064516129 125.488 L 10.58064516129 121.44 L 11.903225806452 119.416 L 13.225806451613 129.536 L 14.548387096774 115.368 L 15.870967741935 109.296 L 17.193548387097 115.368 L 19.838709677419 95.128 L 21.161290322581 91.08 L 22.483870967742 93.104 L 23.806451612903 82.984 L 26.451612903226 82.984 L 27.774193548387 82.984 L 29.096774193548 78.936 L 30.41935483871 76.912 L 31.741935483871 82.984 L 33.064516129032 82.984 L 34.387096774194 82.984 L 37.032258064516 91.08 L 39.677419354839 107.272 L 41 113.344 L 42.322580645161 115.368 L 43.645161290323 117.392 L 44.967741935484 125.488 L 46.290322580645 119.416 L 47.612903225806 119.416 L 48.935483870968 129.536 L 50.258064516129 129.536 L 52.903225806452 127.512 L 54.225806451613 123.464 L 55.548387096774 117.392 L 56.870967741935 115.368 L 58.193548387097 115.368 L 60.838709677419 119.416 L 63.483870967742 127.512 L 64.806451612903 121.44 L 66.129032258065 129.536 L 67.451612903226 117.392 L 68.774193548387 121.44 L 70.096774193548 121.44 L 72.741935483871 123.464 L 74.064516129032 119.416 L 75.387096774194 105.248 L 76.709677419355 99.176 L 79.354838709677 113.344 L 80.677419354839 109.296 L 82 113.344 L 84.645161290323 109.296 L 85.967741935484 113.344 L 87.290322580645 105.248 L 89.935483870968 89.056 L 91.258064516129 85.008 L 92.58064516129 91.08 L 93.903225806452 91.08 L 96.548387096774 82.984 L 97.870967741935 85.008 L 99.193548387097 85.008 L 100.51612903226 91.08 L 101.83870967742 91.08 L 103.16129032258 82.984 L 104.48387096774 87.032 L 105.8064516129 93.104 L 107.12903225806 103.224 L 108.45161290323 111.32 L 109.77419354839 99.176 L 111.09677419355 101.2 L 112.41935483871 107.272 L 113.74193548387 91.08 L 116.38709677419 103.224 L 117.70967741935 97.152 L 119.03225806452 107.272 L 120.35483870968 103.224 L 121.67741935484 107.272 L 123 107.272 L 124.32258064516 119.416 L 125.64516129032 121.44 L 126.96774193548 121.44 L 128.29032258065 125.488 L 129.61290322581 125.488 L 130.93548387097 129.536 L 132.25806451613 127.512 L 133.58064516129 133.584 L 134.90322580645 131.56 L 136.22580645161 133.584 L 137.54838709677 129.536 L 140.1935483871 131.56 L 141.51612903226 135.608 L 142.83870967742 129.536 L 144.16129032258 117.392 L 145.48387096774 113.344 L 146.8064516129 101.2 L 150.77419354839 107.272 L 152.09677419355 123.464 L 153.41935483871 119.416 L 154.74193548387 113.344 L 158.70967741935 119.416 L 160.03225806452 113.344 L 161.35483870968 103.224 L 164 105.248 L 165.32258064516 119.416 L 166.64516129032 113.344 L 167.96774193548 113.344 L 169.29032258065 101.2 L 170.61290322581 107.272 L 171.93548387097 103.224 L 173.25806451613 89.056 L 174.58064516129 87.032 L 175.90322580645 76.912 L 177.22580645161 82.984 L 178.54838709677 76.912 L 179.87096774194 91.08 L 181.1935483871 101.2 L 182.51612903226 103.224 L 185.16129032258 125.488 L 186.48387096774 125.488 L 187.8064516129 129.536 L 189.12903225806 129.536 L 190.45161290323 117.392 L 191.77419354839 109.296 L 193.09677419355 111.32 L 194.41935483871 113.344 L 199.70967741935 115.368 L 201.03225806452 113.344 L 202.35483870968 111.32 L 203.67741935484 103.224 L 205 89.056 L 207.64516129032 82.984 L 208.96774193548 80.96 L 210.29032258065 80.96 L 211.61290322581 76.912 L 212.93548387097 80.96 L 214.25806451613 76.912 L 215.58064516129 78.936 L 218.22580645161 56.672 L 219.54838709677 56.672 L 220.87096774194 64.768 L 222.1935483871 64.768 L 226.16129032258 78.936 L 227.48387096774 76.912 L 228.8064516129 66.792 L 230.12903225806 56.672 L 231.45161290323 56.672 L 232.77419354839 66.792 L 234.09677419355 62.744 L 235.41935483871 70.84 L 236.74193548387 54.648 L 238.06451612903 60.72 L 239.38709677419 50.6 L 240.70967741935 50.6 L 242.03225806452 64.768 L 243.35483870968 74.888 L 244.67741935484 74.888 L 246 68.816 L 247.32258064516 64.768 L 248.64516129032 64.768 L 251.29032258065 72.864 L 253.93548387097 95.128 L 255.25806451613 95.128 L 256.58064516129 97.152 L 257.90322580645 99.176 L 259.22580645161 95.128 L 261.87096774194 91.08 L 264.51612903226 97.152 L 265.83870967742 95.128 L 267.16129032258 103.224 L 268.48387096774 113.344 L 269.8064516129 107.272 L 271.12903225806 111.32 L 272.45161290323 121.44 L 273.77419354839 127.512 L 275.09677419355 139.656 L 277.74193548387 149.776 L 279.06451612903 151.8 L 280.38709677419 143.704 L 283.03225806452 137.632 L 284.35483870968 139.656 L 285.67741935484 139.656 L 287 137.632 L 288.32258064516 135.608 L 289.64516129032 149.776 L 290.96774193548 161.92 L 292.29032258065 149.776 L 293.61290322581 143.704 L 294.93548387097 143.704 L 296.25806451613 131.56 L 297.58064516129 123.464 L 300.22580645161 131.56 L 301.54838709677 131.56 L 302.87096774194 129.536 L 304.1935483871 125.488 L 305.51612903226 133.584 L 306.83870967742 137.632 L 308.16129032258 147.752 L 309.48387096774 151.8 L 310.8064516129 147.752 L 312.12903225806 135.608 L 314.77419354839 137.632 L 316.09677419355 129.536 L 317.41935483871 131.56 L 318.74193548387 135.608 L 320.06451612903 119.416 L 322.70967741935 115.368 L 324.03225806452 125.488 L 325.35483870968 145.728 L 326.67741935484 139.656 L 328 155.848 L 329.32258064516 145.728 L 330.64516129032 147.752 L 331.96774193548 137.632 L 333.29032258065 147.752 L 334.61290322581 143.704 L 335.93548387097 141.68 L 337.25806451613 145.728 L 338.58064516129 147.752 L 339.90322580645 147.752 L 341.22580645161 151.8 L 342.54838709677 157.872 L 343.87096774194 149.776 L 345.1935483871 147.752 L 346.51612903226 145.728 L 347.83870967742 153.824 L 349.16129032258 153.824 L 350.48387096774 151.8 L 351.8064516129 145.728 L 353.12903225806 143.704 L 354.45161290323 147.752 L 355.77419354839 137.632 L 357.09677419355 139.656 L 358.41935483871 135.608 L 361.06451612903 123.464 L 362.38709677419 121.44 L 363.70967741935 117.392 L 365.03225806452 127.512 L 366.35483870968 131.56 L 367.67741935484 131.56 L 369 123.464 L 370.32258064516 119.416 L 371.64516129032 127.512 L 374.29032258065 139.656 L 375.61290322581 143.704 L 376.93548387097 139.656 L 378.25806451613 139.656 L 379.58064516129 131.56 L 380.90322580645 123.464 L 383.54838709677 131.56 L 386.1935483871 111.32 L 388.83870967742 123.464 L 390.16129032258 133.584 L 391.48387096774 133.584 L 392.8064516129 147.752 L 394.12903225806 147.752 L 395.45161290323 153.824 L 396.77419354839 159.896 L 399.41935483871 163.944 L 402.06451612903 165.968 L 403.38709677419 176.088 L 404.70967741935 170.016 L 406.03225806452 159.896 L 407.35483870968 151.8 L 408.67741935484 153.824 L 410 155.848 L 411.32258064516 176.088 L 412.64516129032 178.112 L 413.96774193548 174.064 L 416.61290322581 167.992 L 417.93548387097 165.968 L 419.25806451613 167.992 L 420.58064516129 165.968 L 421.90322580645 178.112 L 423.22580645161 167.992 L 424.54838709677 176.088 L 427.1935483871 174.064 L 428.51612903226 170.016 L 429.83870967742 172.04 L 431.16129032258 167.992 L 432.48387096774 170.016 L 435.12903225806 186.208 L 436.45161290323 192.28 L 437.77419354839 186.208 L 439.09677419355 178.112 L 440.41935483871 184.184 L 441.74193548387 174.064 L 444.38709677419 182.16 L 445.70967741935 186.208 L 447.03225806452 174.064 L 448.35483870968 190.256 L 449.67741935484 196.328 L 451 196.328 L 452.32258064516 200.376 L 453.64516129032 206.448 L 454.96774193548 212.52 L 456.29032258065 214.544 L 460.25806451613 214.544 L 461.58064516129 212.52 L 462.90322580645 200.376 L 464.22580645161 192.28 L 466.87096774194 182.16 L 468.1935483871 176.088 L 469.51612903226 190.256 L 470.83870967742 200.376 L 472.16129032258 200.376 L 473.48387096774 200.376 L 474.8064516129 204.424 L 477.45161290323 208.472 L 478.77419354839 196.328 L 481.41935483871 186.208 L 482.74193548387 180.136 L 484.06451612903 194.304 L 485.38709677419 196.328 L 486.70967741935 200.376 L 488.03225806452 194.304 L 489.35483870968 198.352 L 490.67741935484 196.328 L 492 206.448 L 493.32258064516 204.424 L 494.64516129032 202.4 L 495.96774193548 198.352 L 497.29032258065 206.448 L 498.61290322581 196.328 L 501.25806451613 174.064 L 502.58064516129 172.04 L 506.54838709677 188.232 L 507.87096774194 176.088 L 510.51612903226 192.28 L 513.16129032258 198.352 L 514.48387096774 186.208 L 515.8064516129 186.208 L 517.12903225806 198.352 L 518.45161290323 196.328 L 519.77419354839 208.472 L 521.09677419355 210.496 L 522.41935483871 202.4 L 523.74193548387 204.424 L 525.06451612903 198.352 L 526.38709677419 204.424 L 527.70967741935 214.544 L 529.03225806452 216.568 L 531.67741935484 206.448" class="highcharts-graph" data-z-index="1" stroke="rgb(39, 174, 96)" stroke-opacity=" 0.5" stroke-width="2" stroke-linejoin="round" stroke-linecap="round" filter="none" aria-hidden="false" role="region" tabindex="-1" style="outline: none;" aria-label="Bid 3, line 1 of 7 with 343 data points."></path></g><g class="highcharts-markers highcharts-series-0 highcharts-line-series" data-z-index="0.1" opacity="1" transform="translate(57,42) scale(1 1)" clip-path="none" aria-hidden="true"></g><g class="highcharts-series highcharts-series-1 highcharts-line-series" data-z-index="0.1" opacity="1" transform="translate(57,42) scale(1 1)" clip-path="url(#highcharts-y001gor-83363-)" aria-hidden="false"><path fill="none" d="M 0 117.392 L 3.9677419354839 129.536 L 5.2903225806452 129.536 L 6.6129032258065 135.608 L 7.9354838709677 129.536 L 9.258064516129 127.512 L 10.58064516129 123.464 L 11.903225806452 119.416 L 13.225806451613 127.512 L 14.548387096774 117.392 L 15.870967741935 107.272 L 17.193548387097 117.392 L 18.516129032258 107.272 L 19.838709677419 97.152 L 21.161290322581 89.056 L 22.483870967742 91.08 L 23.806451612903 89.056 L 25.129032258065 70.84 L 26.451612903226 74.888 L 27.774193548387 89.056 L 29.096774193548 80.96 L 30.41935483871 78.936 L 31.741935483871 78.936 L 33.064516129032 76.912 L 34.387096774194 85.008 L 35.709677419355 78.936 L 37.032258064516 87.032 L 38.354838709677 95.128 L 39.677419354839 103.224 L 41 109.296 L 42.322580645161 113.344 L 43.645161290323 111.32 L 44.967741935484 121.44 L 46.290322580645 123.464 L 47.612903225806 117.392 L 48.935483870968 125.488 L 50.258064516129 129.536 L 51.58064516129 131.56 L 52.903225806452 127.512 L 54.225806451613 121.44 L 55.548387096774 125.488 L 56.870967741935 117.392 L 58.193548387097 115.368 L 59.516129032258 113.344 L 60.838709677419 121.44 L 62.161290322581 119.416 L 63.483870967742 127.512 L 64.806451612903 121.44 L 66.129032258065 127.512 L 67.451612903226 125.488 L 68.774193548387 117.392 L 70.096774193548 121.44 L 71.41935483871 127.512 L 72.741935483871 121.44 L 74.064516129032 121.44 L 75.387096774194 105.248 L 76.709677419355 99.176 L 78.032258064516 97.152 L 79.354838709677 113.344 L 80.677419354839 107.272 L 82 111.32 L 83.322580645161 113.344 L 84.645161290323 109.296 L 85.967741935484 111.32 L 87.290322580645 105.248 L 88.612903225806 101.2 L 89.935483870968 89.056 L 91.258064516129 87.032 L 92.58064516129 87.032 L 93.903225806452 93.104 L 95.225806451613 89.056 L 96.548387096774 85.008 L 97.870967741935 82.984 L 99.193548387097 91.08 L 100.51612903226 89.056 L 101.83870967742 91.08 L 103.16129032258 89.056 L 104.48387096774 91.08 L 105.8064516129 91.08 L 107.12903225806 99.176 L 108.45161290323 105.248 L 109.77419354839 103.224 L 111.09677419355 99.176 L 112.41935483871 105.248 L 113.74193548387 95.128 L 115.06451612903 95.128 L 116.38709677419 101.2 L 117.70967741935 97.152 L 119.03225806452 103.224 L 120.35483870968 111.32 L 121.67741935484 105.248 L 123 109.296 L 124.32258064516 117.392 L 125.64516129032 117.392 L 126.96774193548 117.392 L 128.29032258065 115.368 L 129.61290322581 125.488 L 130.93548387097 129.536 L 132.25806451613 133.584 L 133.58064516129 133.584 L 134.90322580645 127.512 L 136.22580645161 133.584 L 137.54838709677 131.56 L 138.87096774194 129.536 L 140.1935483871 133.584 L 141.51612903226 131.56 L 142.83870967742 127.512 L 144.16129032258 117.392 L 145.48387096774 113.344 L 146.8064516129 107.272 L 148.12903225806 105.248 L 149.45161290323 107.272 L 150.77419354839 99.176 L 152.09677419355 117.392 L 153.41935483871 117.392 L 154.74193548387 119.416 L 156.06451612903 113.344 L 157.38709677419 113.344 L 158.70967741935 125.488 L 160.03225806452 107.272 L 161.35483870968 107.272 L 162.67741935484 103.224 L 164 105.248 L 165.32258064516 117.392 L 166.64516129032 113.344 L 167.96774193548 113.344 L 169.29032258065 105.248 L 170.61290322581 101.2 L 171.93548387097 105.248 L 173.25806451613 95.128 L 174.58064516129 85.008 L 175.90322580645 80.96 L 177.22580645161 80.96 L 178.54838709677 76.912 L 179.87096774194 82.984 L 181.1935483871 97.152 L 182.51612903226 105.248 L 183.83870967742 103.224 L 185.16129032258 121.44 L 186.48387096774 121.44 L 187.8064516129 127.512 L 189.12903225806 127.512 L 190.45161290323 119.416 L 191.77419354839 113.344 L 193.09677419355 107.272 L 194.41935483871 113.344 L 195.74193548387 105.248 L 197.06451612903 109.296 L 198.38709677419 109.296 L 199.70967741935 117.392 L 201.03225806452 113.344 L 202.35483870968 115.368 L 203.67741935484 109.296 L 205 95.128 L 206.32258064516 93.104 L 207.64516129032 82.984 L 208.96774193548 80.96 L 210.29032258065 87.032 L 211.61290322581 80.96 L 212.93548387097 85.008 L 214.25806451613 72.864 L 215.58064516129 78.936 L 216.90322580645 74.888 L 218.22580645161 64.768 L 219.54838709677 56.672 L 220.87096774194 58.696 L 222.1935483871 66.792 L 223.51612903226 72.864 L 224.83870967742 82.984 L 226.16129032258 80.96 L 227.48387096774 76.912 L 228.8064516129 68.816 L 230.12903225806 64.768 L 231.45161290323 52.624 L 232.77419354839 62.744 L 234.09677419355 62.744 L 235.41935483871 72.864 L 236.74193548387 60.72 L 238.06451612903 56.672 L 239.38709677419 52.624 L 240.70967741935 54.648 L 242.03225806452 56.672 L 243.35483870968 62.744 L 244.67741935484 74.888 L 246 72.864 L 247.32258064516 70.84 L 248.64516129032 64.768 L 249.96774193548 72.864 L 251.29032258065 66.792 L 252.61290322581 74.888 L 253.93548387097 91.08 L 255.25806451613 99.176 L 256.58064516129 97.152 L 257.90322580645 99.176 L 259.22580645161 95.128 L 260.54838709677 97.152 L 261.87096774194 93.104 L 263.1935483871 101.2 L 264.51612903226 99.176 L 265.83870967742 97.152 L 267.16129032258 105.248 L 268.48387096774 111.32 L 269.8064516129 105.248 L 271.12903225806 111.32 L 272.45161290323 119.416 L 273.77419354839 127.512 L 275.09677419355 137.632 L 276.41935483871 133.584 L 277.74193548387 147.752 L 279.06451612903 151.8 L 280.38709677419 139.656 L 281.70967741935 137.632 L 283.03225806452 139.656 L 284.35483870968 135.608 L 285.67741935484 141.68 L 287 135.608 L 288.32258064516 135.608 L 289.64516129032 147.752 L 290.96774193548 157.872 L 292.29032258065 153.824 L 293.61290322581 147.752 L 294.93548387097 139.656 L 296.25806451613 131.56 L 297.58064516129 131.56 L 298.90322580645 121.44 L 300.22580645161 127.512 L 301.54838709677 129.536 L 302.87096774194 131.56 L 304.1935483871 129.536 L 305.51612903226 131.56 L 306.83870967742 137.632 L 308.16129032258 133.584 L 309.48387096774 149.776 L 310.8064516129 147.752 L 312.12903225806 143.704 L 313.45161290323 137.632 L 314.77419354839 141.68 L 316.09677419355 139.656 L 317.41935483871 127.512 L 318.74193548387 139.656 L 320.06451612903 125.488 L 321.38709677419 127.512 L 322.70967741935 119.416 L 324.03225806452 123.464 L 325.35483870968 137.632 L 326.67741935484 141.68 L 328 147.752 L 329.32258064516 151.8 L 330.64516129032 149.776 L 331.96774193548 139.656 L 333.29032258065 149.776 L 334.61290322581 141.68 L 335.93548387097 139.656 L 337.25806451613 143.704 L 338.58064516129 143.704 L 339.90322580645 143.704 L 341.22580645161 149.776 L 342.54838709677 155.848 L 343.87096774194 145.728 L 345.1935483871 145.728 L 346.51612903226 143.704 L 347.83870967742 153.824 L 349.16129032258 151.8 L 350.48387096774 155.848 L 351.8064516129 143.704 L 353.12903225806 149.776 L 354.45161290323 145.728 L 355.77419354839 141.68 L 357.09677419355 143.704 L 358.41935483871 135.608 L 359.74193548387 131.56 L 361.06451612903 127.512 L 362.38709677419 121.44 L 363.70967741935 119.416 L 365.03225806452 125.488 L 366.35483870968 129.536 L 367.67741935484 129.536 L 369 123.464 L 370.32258064516 119.416 L 371.64516129032 129.536 L 372.96774193548 133.584 L 374.29032258065 135.608 L 375.61290322581 139.656 L 376.93548387097 141.68 L 378.25806451613 137.632 L 379.58064516129 135.608 L 380.90322580645 131.56 L 382.22580645161 121.44 L 383.54838709677 131.56 L 384.87096774194 123.464 L 386.1935483871 121.44 L 387.51612903226 109.296 L 388.83870967742 117.392 L 390.16129032258 125.488 L 391.48387096774 135.608 L 392.8064516129 139.656 L 394.12903225806 149.776 L 395.45161290323 151.8 L 396.77419354839 159.896 L 398.09677419355 155.848 L 399.41935483871 159.896 L 400.74193548387 167.992 L 402.06451612903 170.016 L 403.38709677419 170.016 L 404.70967741935 170.016 L 406.03225806452 157.872 L 407.35483870968 157.872 L 408.67741935484 151.8 L 410 155.848 L 411.32258064516 165.968 L 412.64516129032 180.136 L 413.96774193548 174.064 L 415.29032258065 167.992 L 416.61290322581 167.992 L 417.93548387097 167.992 L 419.25806451613 174.064 L 420.58064516129 165.968 L 421.90322580645 178.112 L 423.22580645161 170.016 L 424.54838709677 176.088 L 425.87096774194 176.088 L 427.1935483871 174.064 L 428.51612903226 178.112 L 429.83870967742 174.064 L 431.16129032258 165.968 L 432.48387096774 170.016 L 433.8064516129 170.016 L 435.12903225806 186.208 L 436.45161290323 190.256 L 437.77419354839 194.304 L 439.09677419355 178.112 L 440.41935483871 182.16 L 441.74193548387 184.184 L 443.06451612903 182.16 L 444.38709677419 182.16 L 445.70967741935 188.232 L 447.03225806452 178.112 L 448.35483870968 176.088 L 449.67741935484 198.352 L 451 194.304 L 452.32258064516 204.424 L 453.64516129032 202.4 L 454.96774193548 206.448 L 456.29032258065 212.52 L 457.61290322581 212.52 L 458.93548387097 214.544 L 460.25806451613 220.616 L 461.58064516129 214.544 L 462.90322580645 204.424 L 464.22580645161 192.28 L 465.54838709677 200.376 L 466.87096774194 182.16 L 468.1935483871 178.112 L 469.51612903226 186.208 L 470.83870967742 198.352 L 472.16129032258 198.352 L 473.48387096774 202.4 L 474.8064516129 204.424 L 476.12903225806 200.376 L 477.45161290323 204.424 L 478.77419354839 196.328 L 480.09677419355 196.328 L 481.41935483871 188.232 L 482.74193548387 188.232 L 484.06451612903 188.232 L 485.38709677419 198.352 L 486.70967741935 196.328 L 488.03225806452 194.304 L 489.35483870968 200.376 L 490.67741935484 192.28 L 492 204.424 L 493.32258064516 204.424 L 494.64516129032 206.448 L 495.96774193548 198.352 L 497.29032258065 208.472 L 498.61290322581 196.328 L 499.93548387097 190.256 L 501.25806451613 184.184 L 502.58064516129 172.04 L 503.90322580645 178.112 L 505.22580645161 188.232 L 506.54838709677 192.28 L 507.87096774194 178.112 L 509.1935483871 182.16 L 510.51612903226 190.256 L 511.83870967742 196.328 L 513.16129032258 194.304 L 514.48387096774 196.328 L 515.8064516129 184.184 L 517.12903225806 194.304 L 518.45161290323 196.328 L 519.77419354839 204.424 L 521.09677419355 210.496 L 522.41935483871 210.496 L 523.74193548387 204.424 L 525.06451612903 198.352 L 526.38709677419 204.424 L 527.70967741935 212.52 L 529.03225806452 216.568 L 533 204.424" class="highcharts-graph" data-z-index="1" stroke="rgb(39, 174, 96)" stroke-opacity=" 0.75" stroke-width="2" stroke-linejoin="round" stroke-linecap="round" filter="none" aria-hidden="false" role="region" tabindex="-1" style="outline: none;" aria-label="Bid 2, line 2 of 7 with 400 data points."></path></g><g class="highcharts-markers highcharts-series-1 highcharts-line-series" data-z-index="0.1" opacity="1" transform="translate(57,42) scale(1 1)" clip-path="none" aria-hidden="true"></g><g class="highcharts-series highcharts-series-2 highcharts-line-series" data-z-index="0.1" opacity="1" transform="translate(57,42) scale(1 1)" clip-path="url(#highcharts-y001gor-83363-)" aria-hidden="false"><path fill="none" d="M 0 115.368 L 3.9677419354839 125.488 L 5.2903225806452 127.512 L 6.6129032258065 133.584 L 7.9354838709677 127.512 L 9.258064516129 125.488 L 10.58064516129 121.44 L 11.903225806452 115.368 L 13.225806451613 125.488 L 14.548387096774 115.368 L 15.870967741935 105.248 L 17.193548387097 113.344 L 18.516129032258 105.248 L 19.838709677419 95.128 L 21.161290322581 74.888 L 22.483870967742 87.032 L 23.806451612903 87.032 L 25.129032258065 68.816 L 26.451612903226 72.864 L 27.774193548387 87.032 L 29.096774193548 78.936 L 30.41935483871 76.912 L 31.741935483871 76.912 L 33.064516129032 72.864 L 34.387096774194 82.984 L 35.709677419355 76.912 L 37.032258064516 82.984 L 38.354838709677 93.104 L 39.677419354839 101.2 L 41 107.272 L 42.322580645161 111.32 L 43.645161290323 109.296 L 44.967741935484 119.416 L 46.290322580645 121.44 L 47.612903225806 115.368 L 48.935483870968 121.44 L 50.258064516129 125.488 L 51.58064516129 129.536 L 52.903225806452 125.488 L 54.225806451613 119.416 L 55.548387096774 123.464 L 56.870967741935 113.344 L 58.193548387097 111.32 L 59.516129032258 111.32 L 60.838709677419 119.416 L 62.161290322581 117.392 L 63.483870967742 125.488 L 64.806451612903 117.392 L 66.129032258065 125.488 L 67.451612903226 123.464 L 68.774193548387 115.368 L 70.096774193548 119.416 L 71.41935483871 125.488 L 72.741935483871 117.392 L 74.064516129032 119.416 L 75.387096774194 101.2 L 76.709677419355 95.128 L 78.032258064516 95.128 L 79.354838709677 109.296 L 80.677419354839 105.248 L 82 107.272 L 83.322580645161 109.296 L 84.645161290323 107.272 L 85.967741935484 109.296 L 87.290322580645 103.224 L 88.612903225806 97.152 L 89.935483870968 87.032 L 91.258064516129 85.008 L 92.58064516129 85.008 L 93.903225806452 89.056 L 95.225806451613 87.032 L 96.548387096774 82.984 L 97.870967741935 80.96 L 99.193548387097 89.056 L 100.51612903226 87.032 L 101.83870967742 89.056 L 103.16129032258 85.008 L 104.48387096774 89.056 L 105.8064516129 89.056 L 107.12903225806 97.152 L 108.45161290323 103.224 L 109.77419354839 99.176 L 111.09677419355 82.984 L 112.41935483871 103.224 L 113.74193548387 93.104 L 115.06451612903 91.08 L 116.38709677419 97.152 L 117.70967741935 95.128 L 119.03225806452 101.2 L 120.35483870968 109.296 L 121.67741935484 103.224 L 123 107.272 L 124.32258064516 113.344 L 125.64516129032 115.368 L 126.96774193548 107.272 L 128.29032258065 113.344 L 129.61290322581 123.464 L 130.93548387097 127.512 L 132.25806451613 131.56 L 133.58064516129 131.56 L 134.90322580645 123.464 L 136.22580645161 131.56 L 137.54838709677 127.512 L 138.87096774194 127.512 L 140.1935483871 129.536 L 141.51612903226 129.536 L 142.83870967742 125.488 L 144.16129032258 115.368 L 145.48387096774 109.296 L 146.8064516129 105.248 L 148.12903225806 103.224 L 149.45161290323 105.248 L 150.77419354839 97.152 L 152.09677419355 115.368 L 153.41935483871 107.272 L 154.74193548387 117.392 L 156.06451612903 109.296 L 157.38709677419 111.32 L 158.70967741935 123.464 L 160.03225806452 105.248 L 161.35483870968 105.248 L 162.67741935484 101.2 L 164 103.224 L 165.32258064516 113.344 L 166.64516129032 111.32 L 167.96774193548 111.32 L 169.29032258065 103.224 L 170.61290322581 99.176 L 171.93548387097 103.224 L 173.25806451613 91.08 L 174.58064516129 82.984 L 175.90322580645 76.912 L 177.22580645161 78.936 L 178.54838709677 74.888 L 179.87096774194 80.96 L 181.1935483871 93.104 L 182.51612903226 103.224 L 183.83870967742 99.176 L 185.16129032258 117.392 L 186.48387096774 119.416 L 187.8064516129 125.488 L 189.12903225806 125.488 L 190.45161290323 117.392 L 191.77419354839 111.32 L 193.09677419355 105.248 L 194.41935483871 111.32 L 195.74193548387 103.224 L 197.06451612903 107.272 L 198.38709677419 105.248 L 199.70967741935 113.344 L 201.03225806452 111.32 L 202.35483870968 113.344 L 203.67741935484 107.272 L 205 91.08 L 206.32258064516 91.08 L 207.64516129032 80.96 L 208.96774193548 78.936 L 210.29032258065 85.008 L 211.61290322581 76.912 L 212.93548387097 80.96 L 214.25806451613 62.744 L 215.58064516129 76.912 L 216.90322580645 72.864 L 218.22580645161 60.72 L 219.54838709677 54.648 L 220.87096774194 56.672 L 222.1935483871 64.768 L 223.51612903226 70.84 L 224.83870967742 78.936 L 226.16129032258 78.936 L 227.48387096774 74.888 L 228.8064516129 66.792 L 230.12903225806 60.72 L 231.45161290323 50.6 L 232.77419354839 58.696 L 234.09677419355 60.72 L 235.41935483871 70.84 L 236.74193548387 58.696 L 238.06451612903 54.648 L 239.38709677419 48.576 L 240.70967741935 52.624 L 242.03225806452 54.648 L 243.35483870968 60.72 L 244.67741935484 72.864 L 246 68.816 L 247.32258064516 68.816 L 248.64516129032 60.72 L 249.96774193548 70.84 L 251.29032258065 64.768 L 252.61290322581 70.84 L 253.93548387097 87.032 L 255.25806451613 97.152 L 256.58064516129 95.128 L 257.90322580645 97.152 L 259.22580645161 93.104 L 260.54838709677 95.128 L 261.87096774194 91.08 L 263.1935483871 97.152 L 264.51612903226 97.152 L 265.83870967742 95.128 L 267.16129032258 103.224 L 268.48387096774 109.296 L 269.8064516129 101.2 L 271.12903225806 109.296 L 272.45161290323 117.392 L 273.77419354839 125.488 L 275.09677419355 135.608 L 276.41935483871 131.56 L 277.74193548387 143.704 L 279.06451612903 149.776 L 280.38709677419 137.632 L 281.70967741935 135.608 L 283.03225806452 137.632 L 284.35483870968 133.584 L 285.67741935484 139.656 L 287 121.44 L 288.32258064516 131.56 L 289.64516129032 145.728 L 290.96774193548 155.848 L 292.29032258065 151.8 L 293.61290322581 145.728 L 294.93548387097 137.632 L 296.25806451613 129.536 L 297.58064516129 129.536 L 298.90322580645 119.416 L 300.22580645161 125.488 L 301.54838709677 127.512 L 302.87096774194 129.536 L 304.1935483871 127.512 L 305.51612903226 129.536 L 306.83870967742 135.608 L 308.16129032258 131.56 L 309.48387096774 147.752 L 310.8064516129 145.728 L 312.12903225806 139.656 L 313.45161290323 133.584 L 314.77419354839 139.656 L 316.09677419355 137.632 L 317.41935483871 125.488 L 318.74193548387 137.632 L 320.06451612903 121.44 L 321.38709677419 123.464 L 322.70967741935 117.392 L 324.03225806452 121.44 L 325.35483870968 135.608 L 326.67741935484 139.656 L 328 145.728 L 329.32258064516 149.776 L 330.64516129032 147.752 L 331.96774193548 137.632 L 333.29032258065 147.752 L 334.61290322581 139.656 L 335.93548387097 137.632 L 337.25806451613 141.68 L 338.58064516129 141.68 L 339.90322580645 129.536 L 341.22580645161 147.752 L 342.54838709677 153.824 L 343.87096774194 135.608 L 345.1935483871 141.68 L 346.51612903226 141.68 L 347.83870967742 151.8 L 349.16129032258 147.752 L 350.48387096774 153.824 L 351.8064516129 141.68 L 353.12903225806 147.752 L 354.45161290323 143.704 L 355.77419354839 139.656 L 357.09677419355 141.68 L 358.41935483871 133.584 L 359.74193548387 129.536 L 361.06451612903 125.488 L 362.38709677419 119.416 L 363.70967741935 117.392 L 365.03225806452 123.464 L 366.35483870968 127.512 L 367.67741935484 125.488 L 369 121.44 L 370.32258064516 117.392 L 371.64516129032 125.488 L 372.96774193548 131.56 L 374.29032258065 133.584 L 375.61290322581 137.632 L 376.93548387097 139.656 L 378.25806451613 135.608 L 379.58064516129 133.584 L 380.90322580645 129.536 L 382.22580645161 119.416 L 383.54838709677 129.536 L 384.87096774194 119.416 L 386.1935483871 119.416 L 387.51612903226 107.272 L 388.83870967742 113.344 L 390.16129032258 123.464 L 391.48387096774 133.584 L 392.8064516129 137.632 L 394.12903225806 145.728 L 395.45161290323 149.776 L 396.77419354839 157.872 L 398.09677419355 153.824 L 399.41935483871 157.872 L 400.74193548387 165.968 L 402.06451612903 167.992 L 403.38709677419 167.992 L 404.70967741935 167.992 L 406.03225806452 155.848 L 407.35483870968 153.824 L 408.67741935484 149.776 L 410 151.8 L 411.32258064516 163.944 L 412.64516129032 176.088 L 413.96774193548 172.04 L 415.29032258065 165.968 L 416.61290322581 165.968 L 417.93548387097 163.944 L 419.25806451613 172.04 L 420.58064516129 163.944 L 421.90322580645 176.088 L 423.22580645161 167.992 L 424.54838709677 174.064 L 425.87096774194 174.064 L 427.1935483871 172.04 L 428.51612903226 176.088 L 429.83870967742 172.04 L 431.16129032258 163.944 L 432.48387096774 167.992 L 433.8064516129 167.992 L 435.12903225806 184.184 L 436.45161290323 188.232 L 437.77419354839 190.256 L 439.09677419355 176.088 L 440.41935483871 180.136 L 441.74193548387 182.16 L 443.06451612903 178.112 L 444.38709677419 180.136 L 445.70967741935 186.208 L 447.03225806452 176.088 L 448.35483870968 172.04 L 449.67741935484 196.328 L 451 192.28 L 452.32258064516 202.4 L 453.64516129032 200.376 L 454.96774193548 204.424 L 456.29032258065 210.496 L 457.61290322581 210.496 L 458.93548387097 212.52 L 460.25806451613 216.568 L 461.58064516129 212.52 L 462.90322580645 202.4 L 464.22580645161 190.256 L 465.54838709677 198.352 L 466.87096774194 178.112 L 468.1935483871 174.064 L 469.51612903226 182.16 L 470.83870967742 196.328 L 472.16129032258 196.328 L 473.48387096774 198.352 L 474.8064516129 202.4 L 476.12903225806 198.352 L 477.45161290323 202.4 L 478.77419354839 194.304 L 480.09677419355 192.28 L 481.41935483871 186.208 L 482.74193548387 184.184 L 484.06451612903 186.208 L 485.38709677419 196.328 L 486.70967741935 194.304 L 488.03225806452 192.28 L 489.35483870968 196.328 L 490.67741935484 190.256 L 492 202.4 L 493.32258064516 202.4 L 494.64516129032 204.424 L 495.96774193548 196.328 L 497.29032258065 204.424 L 498.61290322581 194.304 L 499.93548387097 188.232 L 501.25806451613 182.16 L 502.58064516129 170.016 L 503.90322580645 176.088 L 505.22580645161 186.208 L 506.54838709677 190.256 L 507.87096774194 176.088 L 509.1935483871 180.136 L 510.51612903226 188.232 L 511.83870967742 194.304 L 513.16129032258 192.28 L 514.48387096774 194.304 L 515.8064516129 174.064 L 517.12903225806 192.28 L 518.45161290323 194.304 L 519.77419354839 200.376 L 521.09677419355 206.448 L 522.41935483871 208.472 L 523.74193548387 202.4 L 525.06451612903 196.328 L 526.38709677419 202.4 L 527.70967741935 210.496 L 529.03225806452 214.544 L 533 202.4" class="highcharts-graph" data-z-index="1" stroke="rgb(39, 174, 96)" stroke-opacity=" 1" stroke-width="2" stroke-linejoin="round" stroke-linecap="round" filter="none" aria-hidden="false" role="region" tabindex="-1" style="outline: none;" aria-label="Bid 1, line 3 of 7 with 400 data points."></path></g><g class="highcharts-markers highcharts-series-2 highcharts-line-series" data-z-index="0.1" opacity="1" transform="translate(57,42) scale(1 1)" clip-path="none" aria-hidden="true"></g><g class="highcharts-series highcharts-series-3 highcharts-line-series" data-z-index="0.1" opacity="1" transform="translate(57,42) scale(1 1)" clip-path="url(#highcharts-y001gor-83363-)" aria-hidden="false"><path fill="none" d="M 0 101.2 L 3.9677419354839 112.332 L 5.2903225806452 113.344 L 6.6129032258065 119.416 L 7.9354838709677 113.344 L 9.258064516129 111.32 L 10.58064516129 107.272 L 11.903225806452 102.212 L 13.225806451613 111.32 L 14.548387096774 102.212 L 15.870967741935 92.092 L 17.193548387097 106.26 L 18.516129032258 92.092 L 19.838709677419 80.96 L 21.161290322581 67.804 L 22.483870967742 73.876 L 23.806451612903 72.864 L 25.129032258065 55.66 L 26.451612903226 59.708 L 27.774193548387 72.864 L 29.096774193548 65.78 L 30.41935483871 62.744 L 31.741935483871 63.756 L 33.064516129032 59.708 L 34.387096774194 68.816 L 35.709677419355 62.744 L 37.032258064516 69.828 L 38.354838709677 78.936 L 39.677419354839 87.032 L 41 93.104 L 42.322580645161 97.152 L 43.645161290323 96.14 L 44.967741935484 106.26 L 46.290322580645 107.272 L 47.612903225806 101.2 L 48.935483870968 108.284 L 50.258064516129 112.332 L 51.58064516129 116.38 L 52.903225806452 111.32 L 54.225806451613 106.26 L 55.548387096774 109.296 L 56.870967741935 100.188 L 58.193548387097 104.236 L 59.516129032258 98.164 L 60.838709677419 105.248 L 62.161290322581 104.236 L 63.483870967742 111.32 L 64.806451612903 104.236 L 66.129032258065 112.332 L 67.451612903226 109.296 L 68.774193548387 102.212 L 70.096774193548 105.248 L 71.41935483871 111.32 L 72.741935483871 104.236 L 74.064516129032 105.248 L 75.387096774194 88.044 L 76.709677419355 81.972 L 78.032258064516 81.972 L 79.354838709677 96.14 L 80.677419354839 91.08 L 82 94.116 L 83.322580645161 96.14 L 84.645161290323 93.104 L 85.967741935484 95.128 L 87.290322580645 90.068 L 88.612903225806 83.996 L 89.935483870968 73.876 L 91.258064516129 70.84 L 92.58064516129 70.84 L 93.903225806452 75.9 L 95.225806451613 73.876 L 96.548387096774 68.816 L 97.870967741935 66.792 L 99.193548387097 74.888 L 100.51612903226 72.864 L 101.83870967742 74.888 L 103.16129032258 71.852 L 104.48387096774 74.888 L 105.8064516129 74.888 L 107.12903225806 82.984 L 108.45161290323 89.056 L 109.77419354839 86.02 L 111.09677419355 76.912 L 112.41935483871 90.068 L 113.74193548387 78.936 L 115.06451612903 77.924 L 116.38709677419 90.068 L 117.70967741935 80.96 L 119.03225806452 88.044 L 120.35483870968 95.128 L 121.67741935484 90.068 L 123 99.176 L 124.32258064516 100.188 L 125.64516129032 101.2 L 126.96774193548 99.176 L 128.29032258065 99.176 L 129.61290322581 109.296 L 130.93548387097 113.344 L 132.25806451613 118.404 L 133.58064516129 118.404 L 134.90322580645 118.404 L 136.22580645161 118.404 L 137.54838709677 114.356 L 138.87096774194 113.344 L 140.1935483871 116.38 L 141.51612903226 116.38 L 142.83870967742 112.332 L 144.16129032258 102.212 L 145.48387096774 104.236 L 146.8064516129 91.08 L 148.12903225806 89.056 L 149.45161290323 92.092 L 150.77419354839 83.996 L 152.09677419355 102.212 L 153.41935483871 98.164 L 154.74193548387 103.224 L 156.06451612903 96.14 L 157.38709677419 97.152 L 158.70967741935 109.296 L 160.03225806452 92.092 L 161.35483870968 91.08 L 162.67741935484 87.032 L 164 90.068 L 165.32258064516 100.188 L 166.64516129032 97.152 L 167.96774193548 97.152 L 169.29032258065 89.056 L 170.61290322581 85.008 L 171.93548387097 90.068 L 173.25806451613 77.924 L 174.58064516129 68.816 L 175.90322580645 63.756 L 177.22580645161 64.768 L 178.54838709677 60.72 L 179.87096774194 66.792 L 181.1935483871 79.948 L 182.51612903226 96.14 L 183.83870967742 86.02 L 185.16129032258 104.236 L 186.48387096774 105.248 L 187.8064516129 111.32 L 189.12903225806 112.332 L 190.45161290323 103.224 L 191.77419354839 97.152 L 193.09677419355 91.08 L 194.41935483871 97.152 L 195.74193548387 89.056 L 197.06451612903 93.104 L 198.38709677419 92.092 L 199.70967741935 100.188 L 201.03225806452 97.152 L 202.35483870968 99.176 L 203.67741935484 94.116 L 205 77.924 L 206.32258064516 76.912 L 207.64516129032 66.792 L 208.96774193548 64.768 L 210.29032258065 70.84 L 211.61290322581 63.756 L 212.93548387097 67.804 L 214.25806451613 54.648 L 215.58064516129 62.744 L 216.90322580645 58.696 L 218.22580645161 47.564 L 219.54838709677 40.48 L 220.87096774194 43.516 L 222.1935483871 50.6 L 223.51612903226 56.672 L 224.83870967742 65.78 L 226.16129032258 65.78 L 227.48387096774 61.732 L 228.8064516129 52.624 L 230.12903225806 47.564 L 231.45161290323 37.444 L 232.77419354839 45.54 L 234.09677419355 46.552 L 235.41935483871 56.672 L 236.74193548387 44.528 L 238.06451612903 41.492 L 239.38709677419 35.42 L 240.70967741935 39.468 L 242.03225806452 40.48 L 243.35483870968 46.552 L 244.67741935484 58.696 L 246 55.66 L 247.32258064516 54.648 L 248.64516129032 47.564 L 249.96774193548 56.672 L 251.29032258065 50.6 L 252.61290322581 57.684 L 253.93548387097 73.876 L 255.25806451613 83.996 L 256.58064516129 80.96 L 257.90322580645 83.996 L 259.22580645161 88.044 L 260.54838709677 80.96 L 261.87096774194 77.924 L 263.1935483871 83.996 L 264.51612903226 82.984 L 265.83870967742 88.044 L 267.16129032258 89.056 L 268.48387096774 96.14 L 269.8064516129 88.044 L 271.12903225806 95.128 L 272.45161290323 103.224 L 273.77419354839 111.32 L 275.09677419355 130.548 L 276.41935483871 117.392 L 277.74193548387 130.548 L 279.06451612903 136.62 L 280.38709677419 124.476 L 281.70967741935 122.452 L 283.03225806452 124.476 L 284.35483870968 119.416 L 285.67741935484 126.5 L 287 114.356 L 288.32258064516 118.404 L 289.64516129032 132.572 L 290.96774193548 141.68 L 292.29032258065 138.644 L 293.61290322581 131.56 L 294.93548387097 123.464 L 296.25806451613 115.368 L 297.58064516129 116.38 L 298.90322580645 106.26 L 300.22580645161 112.332 L 301.54838709677 113.344 L 302.87096774194 116.38 L 304.1935483871 114.356 L 305.51612903226 115.368 L 306.83870967742 121.44 L 308.16129032258 117.392 L 309.48387096774 133.584 L 310.8064516129 131.56 L 312.12903225806 126.5 L 313.45161290323 120.428 L 314.77419354839 125.488 L 316.09677419355 124.476 L 317.41935483871 112.332 L 318.74193548387 123.464 L 320.06451612903 108.284 L 321.38709677419 110.308 L 322.70967741935 103.224 L 324.03225806452 107.272 L 325.35483870968 122.452 L 326.67741935484 125.488 L 328 131.56 L 329.32258064516 136.62 L 330.64516129032 133.584 L 331.96774193548 123.464 L 333.29032258065 140.668 L 334.61290322581 126.5 L 335.93548387097 124.476 L 337.25806451613 128.524 L 338.58064516129 127.512 L 339.90322580645 123.464 L 341.22580645161 133.584 L 342.54838709677 140.668 L 343.87096774194 127.512 L 345.1935483871 128.524 L 346.51612903226 127.512 L 347.83870967742 137.632 L 349.16129032258 134.596 L 350.48387096774 139.656 L 351.8064516129 128.524 L 353.12903225806 133.584 L 354.45161290323 129.536 L 355.77419354839 126.5 L 357.09677419355 127.512 L 358.41935483871 120.428 L 359.74193548387 116.38 L 361.06451612903 111.32 L 362.38709677419 105.248 L 363.70967741935 103.224 L 365.03225806452 110.308 L 366.35483870968 113.344 L 367.67741935484 112.332 L 369 107.272 L 370.32258064516 104.236 L 371.64516129032 112.332 L 372.96774193548 118.404 L 374.29032258065 119.416 L 375.61290322581 124.476 L 376.93548387097 126.5 L 378.25806451613 122.452 L 379.58064516129 119.416 L 380.90322580645 115.368 L 382.22580645161 105.248 L 383.54838709677 116.38 L 384.87096774194 106.26 L 386.1935483871 114.356 L 387.51612903226 93.104 L 388.83870967742 100.188 L 390.16129032258 110.308 L 391.48387096774 119.416 L 392.8064516129 123.464 L 394.12903225806 132.572 L 395.45161290323 143.704 L 396.77419354839 143.704 L 398.09677419355 139.656 L 399.41935483871 144.716 L 400.74193548387 152.812 L 402.06451612903 153.824 L 403.38709677419 153.824 L 404.70967741935 153.824 L 406.03225806452 141.68 L 407.35483870968 140.668 L 408.67741935484 136.62 L 410 138.644 L 411.32258064516 149.776 L 412.64516129032 162.932 L 413.96774193548 158.884 L 415.29032258065 152.812 L 416.61290322581 151.8 L 417.93548387097 150.788 L 419.25806451613 157.872 L 420.58064516129 149.776 L 421.90322580645 161.92 L 423.22580645161 153.824 L 424.54838709677 160.908 L 425.87096774194 159.896 L 427.1935483871 157.872 L 428.51612903226 161.92 L 429.83870967742 157.872 L 431.16129032258 150.788 L 432.48387096774 154.836 L 433.8064516129 153.824 L 435.12903225806 171.028 L 436.45161290323 174.064 L 437.77419354839 177.1 L 439.09677419355 161.92 L 440.41935483871 165.968 L 441.74193548387 167.992 L 443.06451612903 164.956 L 444.38709677419 165.968 L 445.70967741935 178.112 L 447.03225806452 161.92 L 448.35483870968 158.884 L 449.67741935484 182.16 L 451 179.124 L 452.32258064516 188.232 L 453.64516129032 186.208 L 454.96774193548 191.268 L 456.29032258065 197.34 L 457.61290322581 197.34 L 458.93548387097 199.364 L 460.25806451613 209.484 L 461.58064516129 199.364 L 462.90322580645 189.244 L 464.22580645161 176.088 L 465.54838709677 184.184 L 466.87096774194 164.956 L 468.1935483871 160.908 L 469.51612903226 169.004 L 470.83870967742 182.16 L 472.16129032258 182.16 L 473.48387096774 185.196 L 474.8064516129 188.232 L 476.12903225806 185.196 L 477.45161290323 189.244 L 478.77419354839 180.136 L 480.09677419355 179.124 L 481.41935483871 172.04 L 482.74193548387 171.028 L 484.06451612903 172.04 L 485.38709677419 182.16 L 486.70967741935 180.136 L 488.03225806452 179.124 L 489.35483870968 183.172 L 490.67741935484 177.1 L 492 189.244 L 493.32258064516 189.244 L 494.64516129032 191.268 L 495.96774193548 182.16 L 497.29032258065 191.268 L 498.61290322581 181.148 L 499.93548387097 175.076 L 501.25806451613 167.992 L 502.58064516129 156.86 L 503.90322580645 161.92 L 505.22580645161 172.04 L 506.54838709677 176.088 L 507.87096774194 162.932 L 509.1935483871 165.968 L 510.51612903226 175.076 L 511.83870967742 181.148 L 513.16129032258 178.112 L 514.48387096774 180.136 L 515.8064516129 165.968 L 517.12903225806 178.112 L 518.45161290323 181.148 L 519.77419354839 187.22 L 521.09677419355 193.292 L 522.41935483871 194.304 L 523.74193548387 188.232 L 525.06451612903 182.16 L 526.38709677419 189.244 L 527.70967741935 196.328 L 529.03225806452 201.388 L 533 188.232" class="highcharts-graph" data-z-index="1" stroke="gray" stroke-width="2" stroke-dasharray="8,6" filter="none" aria-hidden="false" role="region" tabindex="-1" style="outline: none;" aria-label="Mid price, line 4 of 7 with 400 data points."></path></g><g class="highcharts-markers highcharts-series-3 highcharts-line-series" data-z-index="0.1" opacity="1" transform="translate(57,42) scale(1 1)" clip-path="none" aria-hidden="true"></g><g class="highcharts-series highcharts-series-4 highcharts-line-series" data-z-index="0.1" opacity="1" transform="translate(57,42) scale(1 1)" clip-path="url(#highcharts-y001gor-83363-)" aria-hidden="false"><path fill="none" d="M 0 87.032 L 3.9677419354839 99.176 L 5.2903225806452 99.176 L 6.6129032258065 105.248 L 7.9354838709677 99.176 L 9.258064516129 97.152 L 10.58064516129 93.104 L 11.903225806452 89.056 L 13.225806451613 97.152 L 14.548387096774 89.056 L 15.870967741935 78.936 L 17.193548387097 99.176 L 18.516129032258 78.936 L 19.838709677419 66.792 L 21.161290322581 60.72 L 22.483870967742 60.72 L 23.806451612903 58.696 L 25.129032258065 42.504 L 26.451612903226 46.552 L 27.774193548387 58.696 L 29.096774193548 52.624 L 30.41935483871 48.576 L 31.741935483871 50.6 L 33.064516129032 46.552 L 34.387096774194 54.648 L 35.709677419355 48.576 L 37.032258064516 56.672 L 38.354838709677 64.768 L 39.677419354839 72.864 L 41 78.936 L 42.322580645161 82.984 L 43.645161290323 82.984 L 44.967741935484 93.104 L 46.290322580645 93.104 L 47.612903225806 87.032 L 48.935483870968 95.128 L 50.258064516129 99.176 L 51.58064516129 103.224 L 52.903225806452 97.152 L 54.225806451613 93.104 L 55.548387096774 95.128 L 56.870967741935 87.032 L 58.193548387097 97.152 L 59.516129032258 85.008 L 60.838709677419 91.08 L 62.161290322581 91.08 L 63.483870967742 97.152 L 64.806451612903 91.08 L 66.129032258065 99.176 L 67.451612903226 95.128 L 68.774193548387 89.056 L 70.096774193548 91.08 L 71.41935483871 97.152 L 72.741935483871 91.08 L 74.064516129032 91.08 L 75.387096774194 74.888 L 76.709677419355 68.816 L 78.032258064516 68.816 L 79.354838709677 82.984 L 80.677419354839 76.912 L 82 80.96 L 83.322580645161 82.984 L 84.645161290323 78.936 L 85.967741935484 80.96 L 87.290322580645 76.912 L 88.612903225806 70.84 L 89.935483870968 60.72 L 91.258064516129 56.672 L 92.58064516129 56.672 L 93.903225806452 62.744 L 95.225806451613 60.72 L 96.548387096774 54.648 L 97.870967741935 52.624 L 99.193548387097 60.72 L 100.51612903226 58.696 L 101.83870967742 60.72 L 103.16129032258 58.696 L 104.48387096774 60.72 L 105.8064516129 60.72 L 107.12903225806 68.816 L 108.45161290323 74.888 L 109.77419354839 72.864 L 111.09677419355 70.84 L 112.41935483871 76.912 L 113.74193548387 64.768 L 115.06451612903 64.768 L 116.38709677419 82.984 L 117.70967741935 66.792 L 119.03225806452 74.888 L 120.35483870968 80.96 L 121.67741935484 76.912 L 123 91.08 L 124.32258064516 87.032 L 125.64516129032 87.032 L 126.96774193548 91.08 L 128.29032258065 85.008 L 129.61290322581 95.128 L 130.93548387097 99.176 L 132.25806451613 105.248 L 133.58064516129 105.248 L 134.90322580645 113.344 L 136.22580645161 105.248 L 137.54838709677 101.2 L 138.87096774194 99.176 L 140.1935483871 103.224 L 141.51612903226 103.224 L 142.83870967742 99.176 L 144.16129032258 89.056 L 145.48387096774 99.176 L 146.8064516129 76.912 L 148.12903225806 74.888 L 149.45161290323 78.936 L 150.77419354839 70.84 L 152.09677419355 89.056 L 153.41935483871 89.056 L 154.74193548387 89.056 L 156.06451612903 82.984 L 157.38709677419 82.984 L 158.70967741935 95.128 L 160.03225806452 78.936 L 161.35483870968 76.912 L 162.67741935484 72.864 L 164 76.912 L 165.32258064516 87.032 L 166.64516129032 82.984 L 167.96774193548 82.984 L 169.29032258065 74.888 L 170.61290322581 70.84 L 171.93548387097 76.912 L 173.25806451613 64.768 L 174.58064516129 54.648 L 175.90322580645 50.6 L 177.22580645161 50.6 L 178.54838709677 46.552 L 179.87096774194 52.624 L 181.1935483871 66.792 L 182.51612903226 89.056 L 183.83870967742 72.864 L 185.16129032258 91.08 L 186.48387096774 91.08 L 187.8064516129 97.152 L 189.12903225806 99.176 L 190.45161290323 89.056 L 191.77419354839 82.984 L 193.09677419355 76.912 L 194.41935483871 82.984 L 195.74193548387 74.888 L 197.06451612903 78.936 L 198.38709677419 78.936 L 199.70967741935 87.032 L 201.03225806452 82.984 L 202.35483870968 85.008 L 203.67741935484 80.96 L 205 64.768 L 206.32258064516 62.744 L 207.64516129032 52.624 L 208.96774193548 50.6 L 210.29032258065 56.672 L 211.61290322581 50.6 L 212.93548387097 54.648 L 214.25806451613 46.552 L 215.58064516129 48.576 L 216.90322580645 44.528 L 218.22580645161 34.408 L 219.54838709677 26.312 L 220.87096774194 30.36 L 222.1935483871 36.432 L 223.51612903226 42.504 L 224.83870967742 52.624 L 226.16129032258 52.624 L 227.48387096774 48.576 L 228.8064516129 38.456 L 230.12903225806 34.408 L 231.45161290323 24.288 L 232.77419354839 32.384 L 234.09677419355 32.384 L 235.41935483871 42.504 L 236.74193548387 30.36 L 238.06451612903 28.336 L 239.38709677419 22.264 L 240.70967741935 26.312 L 242.03225806452 26.312 L 243.35483870968 32.384 L 244.67741935484 44.528 L 246 42.504 L 247.32258064516 40.48 L 248.64516129032 34.408 L 249.96774193548 42.504 L 251.29032258065 36.432 L 252.61290322581 44.528 L 253.93548387097 60.72 L 255.25806451613 70.84 L 256.58064516129 66.792 L 257.90322580645 70.84 L 259.22580645161 82.984 L 260.54838709677 66.792 L 261.87096774194 64.768 L 263.1935483871 70.84 L 264.51612903226 68.816 L 265.83870967742 80.96 L 267.16129032258 74.888 L 268.48387096774 82.984 L 269.8064516129 74.888 L 271.12903225806 80.96 L 272.45161290323 89.056 L 273.77419354839 97.152 L 275.09677419355 125.488 L 276.41935483871 103.224 L 277.74193548387 117.392 L 279.06451612903 123.464 L 280.38709677419 111.32 L 281.70967741935 109.296 L 283.03225806452 111.32 L 284.35483870968 105.248 L 285.67741935484 113.344 L 287 107.272 L 288.32258064516 105.248 L 289.64516129032 119.416 L 290.96774193548 127.512 L 292.29032258065 125.488 L 293.61290322581 117.392 L 294.93548387097 109.296 L 296.25806451613 101.2 L 297.58064516129 103.224 L 298.90322580645 93.104 L 300.22580645161 99.176 L 301.54838709677 99.176 L 302.87096774194 103.224 L 304.1935483871 101.2 L 305.51612903226 101.2 L 306.83870967742 107.272 L 308.16129032258 103.224 L 309.48387096774 119.416 L 310.8064516129 117.392 L 312.12903225806 113.344 L 313.45161290323 107.272 L 314.77419354839 111.32 L 316.09677419355 111.32 L 317.41935483871 99.176 L 318.74193548387 109.296 L 320.06451612903 95.128 L 321.38709677419 97.152 L 322.70967741935 89.056 L 324.03225806452 93.104 L 325.35483870968 109.296 L 326.67741935484 111.32 L 328 117.392 L 329.32258064516 123.464 L 330.64516129032 119.416 L 331.96774193548 109.296 L 333.29032258065 133.584 L 334.61290322581 113.344 L 335.93548387097 111.32 L 337.25806451613 115.368 L 338.58064516129 113.344 L 339.90322580645 117.392 L 341.22580645161 119.416 L 342.54838709677 127.512 L 343.87096774194 119.416 L 345.1935483871 115.368 L 346.51612903226 113.344 L 347.83870967742 123.464 L 349.16129032258 121.44 L 350.48387096774 125.488 L 351.8064516129 115.368 L 353.12903225806 119.416 L 354.45161290323 115.368 L 355.77419354839 113.344 L 357.09677419355 113.344 L 358.41935483871 107.272 L 359.74193548387 103.224 L 361.06451612903 97.152 L 362.38709677419 91.08 L 363.70967741935 89.056 L 365.03225806452 97.152 L 366.35483870968 99.176 L 367.67741935484 99.176 L 369 93.104 L 370.32258064516 91.08 L 371.64516129032 99.176 L 372.96774193548 105.248 L 374.29032258065 105.248 L 375.61290322581 111.32 L 376.93548387097 113.344 L 378.25806451613 109.296 L 379.58064516129 105.248 L 380.90322580645 101.2 L 382.22580645161 91.08 L 383.54838709677 103.224 L 384.87096774194 93.104 L 386.1935483871 109.296 L 387.51612903226 78.936 L 388.83870967742 87.032 L 390.16129032258 97.152 L 391.48387096774 105.248 L 392.8064516129 109.296 L 394.12903225806 119.416 L 395.45161290323 137.632 L 396.77419354839 129.536 L 398.09677419355 125.488 L 399.41935483871 131.56 L 400.74193548387 139.656 L 402.06451612903 139.656 L 403.38709677419 139.656 L 404.70967741935 139.656 L 406.03225806452 127.512 L 407.35483870968 127.512 L 408.67741935484 123.464 L 410 125.488 L 411.32258064516 135.608 L 412.64516129032 149.776 L 413.96774193548 145.728 L 415.29032258065 139.656 L 416.61290322581 137.632 L 417.93548387097 137.632 L 419.25806451613 143.704 L 420.58064516129 135.608 L 421.90322580645 147.752 L 423.22580645161 139.656 L 424.54838709677 147.752 L 425.87096774194 145.728 L 427.1935483871 143.704 L 428.51612903226 147.752 L 429.83870967742 143.704 L 431.16129032258 137.632 L 432.48387096774 141.68 L 433.8064516129 139.656 L 435.12903225806 157.872 L 436.45161290323 159.896 L 437.77419354839 163.944 L 439.09677419355 147.752 L 440.41935483871 151.8 L 441.74193548387 153.824 L 443.06451612903 151.8 L 444.38709677419 151.8 L 445.70967741935 170.016 L 447.03225806452 147.752 L 448.35483870968 145.728 L 449.67741935484 167.992 L 451 165.968 L 452.32258064516 174.064 L 453.64516129032 172.04 L 454.96774193548 178.112 L 456.29032258065 184.184 L 457.61290322581 184.184 L 458.93548387097 186.208 L 460.25806451613 202.4 L 461.58064516129 186.208 L 462.90322580645 176.088 L 464.22580645161 161.92 L 465.54838709677 170.016 L 466.87096774194 151.8 L 468.1935483871 147.752 L 469.51612903226 155.848 L 470.83870967742 167.992 L 472.16129032258 167.992 L 473.48387096774 172.04 L 474.8064516129 174.064 L 476.12903225806 172.04 L 477.45161290323 176.088 L 478.77419354839 165.968 L 480.09677419355 165.968 L 481.41935483871 157.872 L 482.74193548387 157.872 L 484.06451612903 157.872 L 485.38709677419 167.992 L 486.70967741935 165.968 L 488.03225806452 165.968 L 489.35483870968 170.016 L 490.67741935484 163.944 L 492 176.088 L 493.32258064516 176.088 L 494.64516129032 178.112 L 495.96774193548 167.992 L 497.29032258065 178.112 L 498.61290322581 167.992 L 499.93548387097 161.92 L 501.25806451613 153.824 L 502.58064516129 143.704 L 503.90322580645 147.752 L 505.22580645161 157.872 L 506.54838709677 161.92 L 507.87096774194 149.776 L 509.1935483871 151.8 L 510.51612903226 161.92 L 511.83870967742 167.992 L 513.16129032258 163.944 L 514.48387096774 165.968 L 515.8064516129 157.872 L 517.12903225806 163.944 L 518.45161290323 167.992 L 519.77419354839 174.064 L 521.09677419355 180.136 L 522.41935483871 180.136 L 523.74193548387 174.064 L 525.06451612903 167.992 L 526.38709677419 176.088 L 527.70967741935 182.16 L 529.03225806452 188.232 L 533 174.064" class="highcharts-graph" data-z-index="1" stroke="rgb(192, 57, 43)" stroke-opacity=" 1" stroke-width="2" stroke-linejoin="round" stroke-linecap="round" filter="none" aria-hidden="false" role="region" tabindex="-1" style="outline: none;" aria-label="Ask 1, line 5 of 7 with 400 data points."></path></g><g class="highcharts-markers highcharts-series-4 highcharts-line-series" data-z-index="0.1" opacity="1" transform="translate(57,42) scale(1 1)" clip-path="none" aria-hidden="true"></g><g class="highcharts-series highcharts-series-5 highcharts-line-series" data-z-index="0.1" opacity="1" transform="translate(57,42) scale(1 1)" clip-path="url(#highcharts-y001gor-83363-)" aria-hidden="false"><path fill="none" d="M 0 85.008 L 3.9677419354839 97.152 L 5.2903225806452 97.152 L 6.6129032258065 103.224 L 7.9354838709677 97.152 L 9.258064516129 95.128 L 10.58064516129 91.08 L 11.903225806452 87.032 L 13.225806451613 95.128 L 14.548387096774 85.008 L 15.870967741935 74.888 L 17.193548387097 87.032 L 18.516129032258 74.888 L 19.838709677419 64.768 L 21.161290322581 58.696 L 22.483870967742 58.696 L 23.806451612903 56.672 L 25.129032258065 38.456 L 26.451612903226 42.504 L 27.774193548387 56.672 L 29.096774193548 48.576 L 30.41935483871 46.552 L 31.741935483871 46.552 L 33.064516129032 44.528 L 34.387096774194 52.624 L 35.709677419355 46.552 L 37.032258064516 54.648 L 38.354838709677 62.744 L 39.677419354839 70.84 L 41 76.912 L 42.322580645161 80.96 L 43.645161290323 78.936 L 44.967741935484 89.056 L 46.290322580645 91.08 L 47.612903225806 85.008 L 48.935483870968 93.104 L 50.258064516129 97.152 L 51.58064516129 99.176 L 52.903225806452 95.128 L 54.225806451613 89.056 L 55.548387096774 93.104 L 56.870967741935 85.008 L 58.193548387097 85.008 L 59.516129032258 80.96 L 60.838709677419 89.056 L 62.161290322581 87.032 L 63.483870967742 95.128 L 64.806451612903 89.056 L 66.129032258065 95.128 L 67.451612903226 93.104 L 68.774193548387 85.008 L 70.096774193548 89.056 L 71.41935483871 95.128 L 72.741935483871 89.056 L 74.064516129032 89.056 L 75.387096774194 72.864 L 76.709677419355 66.792 L 78.032258064516 64.768 L 79.354838709677 80.96 L 80.677419354839 74.888 L 82 78.936 L 83.322580645161 80.96 L 84.645161290323 76.912 L 85.967741935484 78.936 L 87.290322580645 72.864 L 88.612903225806 68.816 L 89.935483870968 56.672 L 91.258064516129 54.648 L 92.58064516129 54.648 L 93.903225806452 60.72 L 95.225806451613 56.672 L 96.548387096774 52.624 L 97.870967741935 50.6 L 99.193548387097 58.696 L 100.51612903226 56.672 L 101.83870967742 58.696 L 103.16129032258 56.672 L 104.48387096774 58.696 L 105.8064516129 58.696 L 107.12903225806 66.792 L 108.45161290323 72.864 L 109.77419354839 70.84 L 111.09677419355 68.816 L 112.41935483871 72.864 L 113.74193548387 62.744 L 115.06451612903 62.744 L 116.38709677419 70.84 L 117.70967741935 64.768 L 119.03225806452 70.84 L 120.35483870968 78.936 L 121.67741935484 72.864 L 123 78.936 L 124.32258064516 85.008 L 125.64516129032 85.008 L 126.96774193548 89.056 L 128.29032258065 82.984 L 129.61290322581 93.104 L 130.93548387097 97.152 L 132.25806451613 101.2 L 133.58064516129 101.2 L 134.90322580645 97.152 L 136.22580645161 101.2 L 137.54838709677 99.176 L 138.87096774194 97.152 L 140.1935483871 101.2 L 141.51612903226 99.176 L 142.83870967742 95.128 L 144.16129032258 85.008 L 145.48387096774 82.984 L 146.8064516129 74.888 L 148.12903225806 72.864 L 149.45161290323 74.888 L 150.77419354839 66.792 L 152.09677419355 85.008 L 153.41935483871 87.032 L 154.74193548387 87.032 L 156.06451612903 80.96 L 157.38709677419 80.96 L 158.70967741935 93.104 L 160.03225806452 74.888 L 161.35483870968 74.888 L 162.67741935484 70.84 L 164 72.864 L 165.32258064516 85.008 L 166.64516129032 80.96 L 167.96774193548 80.96 L 169.29032258065 72.864 L 170.61290322581 68.816 L 171.93548387097 72.864 L 173.25806451613 62.744 L 174.58064516129 52.624 L 175.90322580645 46.552 L 177.22580645161 48.576 L 178.54838709677 44.528 L 179.87096774194 50.6 L 181.1935483871 64.768 L 182.51612903226 76.912 L 183.83870967742 70.84 L 185.16129032258 89.056 L 186.48387096774 89.056 L 187.8064516129 95.128 L 189.12903225806 95.128 L 190.45161290323 87.032 L 191.77419354839 80.96 L 193.09677419355 74.888 L 194.41935483871 80.96 L 195.74193548387 72.864 L 197.06451612903 76.912 L 198.38709677419 76.912 L 199.70967741935 85.008 L 201.03225806452 80.96 L 202.35483870968 82.984 L 203.67741935484 76.912 L 205 62.744 L 206.32258064516 60.72 L 207.64516129032 50.6 L 208.96774193548 48.576 L 210.29032258065 54.648 L 211.61290322581 48.576 L 212.93548387097 52.624 L 214.25806451613 44.528 L 215.58064516129 46.552 L 216.90322580645 42.504 L 218.22580645161 32.384 L 219.54838709677 24.288 L 220.87096774194 26.312 L 222.1935483871 34.408 L 223.51612903226 40.48 L 224.83870967742 50.6 L 226.16129032258 48.576 L 227.48387096774 44.528 L 228.8064516129 36.432 L 230.12903225806 30.36 L 231.45161290323 20.24 L 232.77419354839 30.36 L 234.09677419355 30.36 L 235.41935483871 40.48 L 236.74193548387 28.336 L 238.06451612903 24.288 L 239.38709677419 20.24 L 240.70967741935 22.264 L 242.03225806452 24.288 L 243.35483870968 30.36 L 244.67741935484 42.504 L 246 40.48 L 247.32258064516 38.456 L 248.64516129032 32.384 L 249.96774193548 40.48 L 251.29032258065 34.408 L 252.61290322581 42.504 L 253.93548387097 58.696 L 255.25806451613 66.792 L 256.58064516129 64.768 L 257.90322580645 66.792 L 259.22580645161 66.792 L 260.54838709677 64.768 L 261.87096774194 60.72 L 263.1935483871 68.816 L 264.51612903226 66.792 L 265.83870967742 66.792 L 267.16129032258 72.864 L 268.48387096774 78.936 L 269.8064516129 72.864 L 271.12903225806 78.936 L 272.45161290323 87.032 L 273.77419354839 95.128 L 275.09677419355 107.272 L 276.41935483871 101.2 L 277.74193548387 115.368 L 279.06451612903 119.416 L 280.38709677419 107.272 L 281.70967741935 105.248 L 283.03225806452 107.272 L 284.35483870968 103.224 L 285.67741935484 109.296 L 287 105.248 L 288.32258064516 103.224 L 289.64516129032 117.392 L 290.96774193548 125.488 L 292.29032258065 121.44 L 293.61290322581 115.368 L 294.93548387097 107.272 L 296.25806451613 99.176 L 297.58064516129 99.176 L 298.90322580645 89.056 L 300.22580645161 95.128 L 301.54838709677 97.152 L 302.87096774194 101.2 L 304.1935483871 97.152 L 305.51612903226 99.176 L 306.83870967742 105.248 L 308.16129032258 101.2 L 309.48387096774 117.392 L 310.8064516129 115.368 L 312.12903225806 111.32 L 313.45161290323 105.248 L 314.77419354839 109.296 L 316.09677419355 109.296 L 317.41935483871 95.128 L 318.74193548387 107.272 L 320.06451612903 93.104 L 321.38709677419 95.128 L 322.70967741935 87.032 L 324.03225806452 91.08 L 325.35483870968 105.248 L 326.67741935484 109.296 L 328 115.368 L 329.32258064516 119.416 L 330.64516129032 117.392 L 331.96774193548 107.272 L 333.29032258065 119.416 L 334.61290322581 109.296 L 335.93548387097 107.272 L 337.25806451613 111.32 L 338.58064516129 111.32 L 339.90322580645 115.368 L 341.22580645161 117.392 L 342.54838709677 123.464 L 343.87096774194 117.392 L 345.1935483871 113.344 L 346.51612903226 111.32 L 347.83870967742 121.44 L 349.16129032258 119.416 L 350.48387096774 123.464 L 351.8064516129 111.32 L 353.12903225806 117.392 L 354.45161290323 113.344 L 355.77419354839 109.296 L 357.09677419355 111.32 L 358.41935483871 103.224 L 359.74193548387 99.176 L 361.06451612903 95.128 L 362.38709677419 89.056 L 363.70967741935 87.032 L 365.03225806452 93.104 L 366.35483870968 97.152 L 367.67741935484 97.152 L 369 91.08 L 370.32258064516 87.032 L 371.64516129032 97.152 L 372.96774193548 101.2 L 374.29032258065 103.224 L 375.61290322581 107.272 L 376.93548387097 109.296 L 378.25806451613 105.248 L 379.58064516129 103.224 L 380.90322580645 99.176 L 382.22580645161 89.056 L 383.54838709677 99.176 L 384.87096774194 91.08 L 386.1935483871 91.08 L 387.51612903226 76.912 L 388.83870967742 85.008 L 390.16129032258 93.104 L 391.48387096774 103.224 L 392.8064516129 107.272 L 394.12903225806 117.392 L 395.45161290323 121.44 L 396.77419354839 127.512 L 398.09677419355 123.464 L 399.41935483871 127.512 L 400.74193548387 135.608 L 402.06451612903 137.632 L 403.38709677419 137.632 L 404.70967741935 137.632 L 406.03225806452 125.488 L 407.35483870968 125.488 L 408.67741935484 119.416 L 410 123.464 L 411.32258064516 133.584 L 412.64516129032 147.752 L 413.96774193548 141.68 L 415.29032258065 135.608 L 416.61290322581 135.608 L 417.93548387097 135.608 L 419.25806451613 141.68 L 420.58064516129 133.584 L 421.90322580645 145.728 L 423.22580645161 137.632 L 424.54838709677 143.704 L 425.87096774194 143.704 L 427.1935483871 141.68 L 428.51612903226 145.728 L 429.83870967742 141.68 L 431.16129032258 135.608 L 432.48387096774 137.632 L 433.8064516129 137.632 L 435.12903225806 153.824 L 436.45161290323 157.872 L 437.77419354839 161.92 L 439.09677419355 145.728 L 440.41935483871 149.776 L 441.74193548387 151.8 L 443.06451612903 149.776 L 444.38709677419 149.776 L 445.70967741935 157.872 L 447.03225806452 145.728 L 448.35483870968 143.704 L 449.67741935484 165.968 L 451 161.92 L 452.32258064516 172.04 L 453.64516129032 170.016 L 454.96774193548 174.064 L 456.29032258065 182.16 L 457.61290322581 180.136 L 458.93548387097 184.184 L 460.25806451613 190.256 L 461.58064516129 182.16 L 462.90322580645 174.064 L 464.22580645161 159.896 L 465.54838709677 167.992 L 466.87096774194 149.776 L 468.1935483871 145.728 L 469.51612903226 153.824 L 470.83870967742 165.968 L 472.16129032258 165.968 L 473.48387096774 170.016 L 474.8064516129 172.04 L 476.12903225806 167.992 L 477.45161290323 174.064 L 478.77419354839 163.944 L 480.09677419355 163.944 L 481.41935483871 155.848 L 482.74193548387 155.848 L 484.06451612903 155.848 L 485.38709677419 165.968 L 486.70967741935 163.944 L 488.03225806452 163.944 L 489.35483870968 167.992 L 490.67741935484 161.92 L 492 172.04 L 493.32258064516 174.064 L 494.64516129032 176.088 L 495.96774193548 165.968 L 497.29032258065 176.088 L 498.61290322581 163.944 L 499.93548387097 157.872 L 501.25806451613 151.8 L 502.58064516129 139.656 L 503.90322580645 145.728 L 505.22580645161 155.848 L 506.54838709677 159.896 L 507.87096774194 145.728 L 509.1935483871 149.776 L 510.51612903226 157.872 L 511.83870967742 163.944 L 513.16129032258 161.92 L 514.48387096774 163.944 L 515.8064516129 153.824 L 517.12903225806 161.92 L 518.45161290323 163.944 L 519.77419354839 172.04 L 521.09677419355 178.112 L 522.41935483871 178.112 L 523.74193548387 172.04 L 525.06451612903 165.968 L 526.38709677419 174.064 L 527.70967741935 180.136 L 529.03225806452 186.208 L 533 172.04" class="highcharts-graph" data-z-index="1" stroke="rgb(192, 57, 43)" stroke-opacity=" 0.75" stroke-width="2" stroke-linejoin="round" stroke-linecap="round" filter="none" aria-hidden="false" role="region" tabindex="-1" style="outline: none;" aria-label="Ask 2, line 6 of 7 with 400 data points."></path></g><g class="highcharts-markers highcharts-series-5 highcharts-line-series" data-z-index="0.1" opacity="1" transform="translate(57,42) scale(1 1)" clip-path="none" aria-hidden="true"></g><g class="highcharts-series highcharts-series-6 highcharts-line-series" data-z-index="0.1" opacity="1" transform="translate(57,42) scale(1 1)" clip-path="url(#highcharts-y001gor-83363-)" aria-hidden="false"><path fill="none" d="M 2.6451612903226 95.128 L 3.9677419354839 97.152 L 6.6129032258065 101.2 L 7.9354838709677 95.128 L 9.258064516129 95.128 L 10.58064516129 91.08 L 11.903225806452 87.032 L 13.225806451613 95.128 L 14.548387096774 80.96 L 15.870967741935 82.984 L 17.193548387097 82.984 L 18.516129032258 72.864 L 19.838709677419 60.72 L 21.161290322581 56.672 L 22.483870967742 56.672 L 23.806451612903 54.648 L 25.129032258065 46.552 L 26.451612903226 44.528 L 27.774193548387 50.6 L 29.096774193548 46.552 L 30.41935483871 48.576 L 31.741935483871 48.576 L 33.064516129032 50.6 L 34.387096774194 50.6 L 35.709677419355 50.6 L 37.032258064516 52.624 L 38.354838709677 64.768 L 39.677419354839 74.888 L 41 80.96 L 42.322580645161 80.96 L 44.967741935484 93.104 L 46.290322580645 85.008 L 47.612903225806 91.08 L 48.935483870968 97.152 L 50.258064516129 99.176 L 52.903225806452 89.056 L 54.225806451613 91.08 L 55.548387096774 91.08 L 56.870967741935 80.96 L 58.193548387097 82.984 L 59.516129032258 85.008 L 60.838709677419 89.056 L 62.161290322581 89.056 L 64.806451612903 87.032 L 66.129032258065 101.2 L 67.451612903226 91.08 L 68.774193548387 89.056 L 71.41935483871 95.128 L 74.064516129032 82.984 L 75.387096774194 70.84 L 76.709677419355 62.744 L 78.032258064516 64.768 L 79.354838709677 78.936 L 80.677419354839 76.912 L 82 78.936 L 83.322580645161 78.936 L 84.645161290323 76.912 L 85.967741935484 72.864 L 87.290322580645 70.84 L 88.612903225806 72.864 L 89.935483870968 54.648 L 91.258064516129 58.696 L 93.903225806452 58.696 L 95.225806451613 50.6 L 96.548387096774 48.576 L 97.870967741935 48.576 L 99.193548387097 58.696 L 100.51612903226 54.648 L 101.83870967742 56.672 L 104.48387096774 54.648 L 105.8064516129 64.768 L 107.12903225806 72.864 L 108.45161290323 78.936 L 109.77419354839 70.84 L 111.09677419355 66.792 L 112.41935483871 70.84 L 113.74193548387 62.744 L 115.06451612903 64.768 L 116.38709677419 68.816 L 117.70967741935 66.792 L 119.03225806452 72.864 L 120.35483870968 72.864 L 121.67741935484 74.888 L 123 76.912 L 124.32258064516 82.984 L 125.64516129032 87.032 L 126.96774193548 85.008 L 128.29032258065 85.008 L 129.61290322581 89.056 L 130.93548387097 99.176 L 132.25806451613 95.128 L 133.58064516129 97.152 L 134.90322580645 95.128 L 137.54838709677 97.152 L 138.87096774194 97.152 L 140.1935483871 93.104 L 141.51612903226 101.2 L 142.83870967742 95.128 L 144.16129032258 85.008 L 145.48387096774 80.96 L 148.12903225806 74.888 L 149.45161290323 74.888 L 150.77419354839 72.864 L 152.09677419355 93.104 L 154.74193548387 87.032 L 156.06451612903 78.936 L 157.38709677419 82.984 L 158.70967741935 89.056 L 160.03225806452 74.888 L 161.35483870968 72.864 L 164 76.912 L 165.32258064516 87.032 L 166.64516129032 78.936 L 167.96774193548 85.008 L 169.29032258065 66.792 L 170.61290322581 68.816 L 171.93548387097 70.84 L 174.58064516129 54.648 L 175.90322580645 40.48 L 177.22580645161 50.6 L 178.54838709677 42.504 L 179.87096774194 54.648 L 181.1935483871 74.888 L 182.51612903226 72.864 L 183.83870967742 70.84 L 186.48387096774 93.104 L 187.8064516129 101.2 L 190.45161290323 85.008 L 191.77419354839 76.912 L 193.09677419355 76.912 L 194.41935483871 80.96 L 195.74193548387 78.936 L 197.06451612903 74.888 L 198.38709677419 78.936 L 199.70967741935 80.96 L 201.03225806452 80.96 L 202.35483870968 82.984 L 203.67741935484 74.888 L 207.64516129032 46.552 L 208.96774193548 46.552 L 210.29032258065 52.624 L 211.61290322581 50.6 L 212.93548387097 42.504 L 215.58064516129 42.504 L 216.90322580645 42.504 L 218.22580645161 24.288 L 219.54838709677 28.336 L 222.1935483871 38.456 L 223.51612903226 40.48 L 224.83870967742 50.6 L 226.16129032258 50.6 L 227.48387096774 38.456 L 228.8064516129 32.384 L 230.12903225806 26.312 L 231.45161290323 22.264 L 232.77419354839 30.36 L 235.41935483871 36.432 L 236.74193548387 26.312 L 238.06451612903 28.336 L 239.38709677419 20.24 L 244.67741935484 44.528 L 246 36.432 L 247.32258064516 32.384 L 249.96774193548 36.432 L 252.61290322581 50.6 L 253.93548387097 58.696 L 257.90322580645 66.792 L 259.22580645161 62.744 L 260.54838709677 58.696 L 261.87096774194 68.816 L 265.83870967742 64.768 L 267.16129032258 80.96 L 269.8064516129 68.816 L 271.12903225806 76.912 L 272.45161290323 87.032 L 273.77419354839 95.128 L 275.09677419355 105.248 L 276.41935483871 107.272 L 277.74193548387 117.392 L 279.06451612903 119.416 L 280.38709677419 111.32 L 281.70967741935 111.32 L 283.03225806452 109.296 L 284.35483870968 105.248 L 285.67741935484 111.32 L 288.32258064516 101.2 L 289.64516129032 117.392 L 290.96774193548 125.488 L 292.29032258065 119.416 L 293.61290322581 107.272 L 294.93548387097 113.344 L 298.90322580645 93.104 L 300.22580645161 101.2 L 301.54838709677 97.152 L 302.87096774194 99.176 L 304.1935483871 99.176 L 308.16129032258 105.248 L 309.48387096774 117.392 L 310.8064516129 115.368 L 312.12903225806 107.272 L 314.77419354839 113.344 L 316.09677419355 101.2 L 318.74193548387 93.104 L 320.06451612903 95.128 L 321.38709677419 91.08 L 324.03225806452 91.08 L 325.35483870968 113.344 L 326.67741935484 105.248 L 329.32258064516 121.44 L 330.64516129032 113.344 L 331.96774193548 105.248 L 333.29032258065 117.392 L 334.61290322581 111.32 L 337.25806451613 111.32 L 339.90322580645 113.344 L 341.22580645161 117.392 L 342.54838709677 127.512 L 345.1935483871 113.344 L 346.51612903226 115.368 L 349.16129032258 123.464 L 350.48387096774 123.464 L 351.8064516129 119.416 L 353.12903225806 111.32 L 354.45161290323 115.368 L 355.77419354839 107.272 L 358.41935483871 103.224 L 359.74193548387 95.128 L 361.06451612903 87.032 L 362.38709677419 91.08 L 363.70967741935 93.104 L 366.35483870968 99.176 L 367.67741935484 99.176 L 369 91.08 L 370.32258064516 87.032 L 371.64516129032 101.2 L 372.96774193548 101.2 L 374.29032258065 107.272 L 375.61290322581 109.296 L 376.93548387097 107.272 L 378.25806451613 103.224 L 379.58064516129 101.2 L 380.90322580645 89.056 L 384.87096774194 91.08 L 386.1935483871 89.056 L 387.51612903226 78.936 L 388.83870967742 91.08 L 392.8064516129 117.392 L 394.12903225806 115.368 L 395.45161290323 119.416 L 396.77419354839 127.512 L 398.09677419355 123.464 L 400.74193548387 133.584 L 403.38709677419 143.704 L 407.35483870968 123.464 L 408.67741935484 123.464 L 410 125.488 L 411.32258064516 143.704 L 412.64516129032 149.776 L 413.96774193548 141.68 L 416.61290322581 137.632 L 417.93548387097 135.608 L 419.25806451613 143.704 L 421.90322580645 149.776 L 423.22580645161 145.728 L 425.87096774194 137.632 L 428.51612903226 143.704 L 429.83870967742 141.68 L 431.16129032258 137.632 L 432.48387096774 141.68 L 433.8064516129 139.656 L 435.12903225806 157.872 L 436.45161290323 157.872 L 437.77419354839 147.752 L 439.09677419355 143.704 L 440.41935483871 153.824 L 441.74193548387 149.776 L 443.06451612903 149.776 L 444.38709677419 151.8 L 445.70967741935 155.848 L 447.03225806452 145.728 L 448.35483870968 155.848 L 449.67741935484 165.968 L 451 163.944 L 452.32258064516 165.968 L 453.64516129032 176.088 L 454.96774193548 178.112 L 456.29032258065 180.136 L 457.61290322581 182.16 L 458.93548387097 178.112 L 460.25806451613 188.232 L 461.58064516129 182.16 L 462.90322580645 170.016 L 464.22580645161 165.968 L 465.54838709677 165.968 L 466.87096774194 147.752 L 468.1935483871 143.704 L 470.83870967742 165.968 L 472.16129032258 161.92 L 473.48387096774 170.016 L 474.8064516129 165.968 L 476.12903225806 170.016 L 477.45161290323 170.016 L 480.09677419355 161.92 L 481.41935483871 155.848 L 482.74193548387 149.776 L 484.06451612903 157.872 L 485.38709677419 161.92 L 486.70967741935 165.968 L 488.03225806452 157.872 L 489.35483870968 167.992 L 490.67741935484 163.944 L 492 172.04 L 493.32258064516 174.064 L 494.64516129032 172.04 L 495.96774193548 165.968 L 497.29032258065 174.064 L 498.61290322581 161.92 L 499.93548387097 153.824 L 501.25806451613 141.68 L 507.87096774194 145.728 L 509.1935483871 153.824 L 511.83870967742 157.872 L 513.16129032258 167.992 L 515.8064516129 155.848 L 522.41935483871 176.088 L 523.74193548387 163.944 L 525.06451612903 170.016 L 527.70967741935 184.184 L 529.03225806452 184.184 L 530.35483870968 182.16" class="highcharts-graph" data-z-index="1" stroke="rgb(192, 57, 43)" stroke-opacity=" 0.5" stroke-width="2" stroke-linejoin="round" stroke-linecap="round" filter="none" aria-hidden="false" role="region" tabindex="-1" style="outline: none;" aria-label="Ask 3, line 7 of 7 with 330 data points."></path></g><g class="highcharts-markers highcharts-series-6 highcharts-line-series" data-z-index="0.1" opacity="1" transform="translate(57,42) scale(1 1)" clip-path="none" aria-hidden="true"></g></g><text x="300" text-anchor="middle" class="highcharts-title" data-z-index="4" style="font-size: 1em; color: rgb(240, 240, 243); font-weight: bold; fill: rgb(240, 240, 243);" y="22" aria-hidden="true">TOMATOES - Price</text><text x="300" text-anchor="middle" class="highcharts-subtitle" data-z-index="4" style="color: rgb(240, 240, 243); font-size: 0.8em; fill: rgb(240, 240, 243);" y="41" aria-hidden="true"></text><text x="10" text-anchor="start" class="highcharts-caption" data-z-index="4" style="color: rgb(102, 102, 102); font-size: 0.8em; fill: rgb(102, 102, 102);" y="397" aria-hidden="true"></text><g class="highcharts-legend highcharts-no-tooltip" data-z-index="7" transform="translate(41,355)" aria-hidden="true"><rect fill="transparent" class="highcharts-legend-box" rx="0" ry="0" stroke="#999999" stroke-width="0" filter="none" x="0" y="0" width="518" height="30"></rect><g data-z-index="1"><g><g class="highcharts-legend-item highcharts-line-series highcharts-color-undefined highcharts-series-0" data-z-index="1" transform="translate(8,3)"><path fill="none" class="highcharts-graph" stroke-width="2" stroke-linecap="round" d="M 1 13 L 15 13" stroke="rgb(39, 174, 96)" stroke-opacity=" 0.5"></path><text x="21" style="color: rgb(240, 240, 243); cursor: pointer; font-size: 0.8em; text-decoration: none; fill: rgb(240, 240, 243);" text-anchor="start" data-z-index="2" y="17">Bid 3</text></g><g class="highcharts-legend-item highcharts-line-series highcharts-color-undefined highcharts-series-1" data-z-index="1" transform="translate(78.14999961853027,3)"><path fill="none" class="highcharts-graph" stroke-width="2" stroke-linecap="round" d="M 1 13 L 15 13" stroke="rgb(39, 174, 96)" stroke-opacity=" 0.75"></path><text x="21" y="17" style="color: rgb(240, 240, 243); cursor: pointer; font-size: 0.8em; text-decoration: none; fill: rgb(240, 240, 243);" text-anchor="start" data-z-index="2">Bid 2</text></g><g class="highcharts-legend-item highcharts-line-series highcharts-color-undefined highcharts-series-2" data-z-index="1" transform="translate(148.29999923706055,3)"><path fill="none" class="highcharts-graph" stroke-width="2" stroke-linecap="round" d="M 1 13 L 15 13" stroke="rgb(39, 174, 96)" stroke-opacity=" 1"></path><text x="21" y="17" style="color: rgb(240, 240, 243); cursor: pointer; font-size: 0.8em; text-decoration: none; fill: rgb(240, 240, 243);" text-anchor="start" data-z-index="2">Bid 1</text></g><g class="highcharts-legend-item highcharts-line-series highcharts-color-undefined highcharts-series-3" data-z-index="1" transform="translate(218.44999885559082,3)"><path fill="none" class="highcharts-graph" stroke-width="2" stroke-dasharray="8,6" d="M 0 13 L 16 13" stroke="gray"></path><text x="21" y="17" style="color: rgb(240, 240, 243); cursor: pointer; font-size: 0.8em; text-decoration: none; fill: rgb(240, 240, 243);" text-anchor="start" data-z-index="2">Mid price</text></g><g class="highcharts-legend-item highcharts-line-series highcharts-color-undefined highcharts-series-4" data-z-index="1" transform="translate(311.4499988555908,3)"><path fill="none" class="highcharts-graph" stroke-width="2" stroke-linecap="round" d="M 1 13 L 15 13" stroke="rgb(192, 57, 43)" stroke-opacity=" 1"></path><text x="21" y="17" style="color: rgb(240, 240, 243); cursor: pointer; font-size: 0.8em; text-decoration: none; fill: rgb(240, 240, 243);" text-anchor="start" data-z-index="2">Ask 1</text></g><g class="highcharts-legend-item highcharts-line-series highcharts-color-undefined highcharts-series-5" data-z-index="1" transform="translate(384.3833312988281,3)"><path fill="none" class="highcharts-graph" stroke-width="2" stroke-linecap="round" d="M 1 13 L 15 13" stroke="rgb(192, 57, 43)" stroke-opacity=" 0.75"></path><text x="21" y="17" style="color: rgb(240, 240, 243); cursor: pointer; font-size: 0.8em; text-decoration: none; fill: rgb(240, 240, 243);" text-anchor="start" data-z-index="2">Ask 2</text></g><g class="highcharts-legend-item highcharts-line-series highcharts-color-undefined highcharts-series-6" data-z-index="1" transform="translate(457.31666374206543,3)"><path fill="none" class="highcharts-graph" stroke-width="2" stroke-linecap="round" d="M 1 13 L 15 13" stroke="rgb(192, 57, 43)" stroke-opacity=" 0.5"></path><text x="21" y="17" style="color: rgb(240, 240, 243); cursor: pointer; font-size: 0.8em; text-decoration: none; fill: rgb(240, 240, 243);" text-anchor="start" data-z-index="2">Ask 3</text></g></g></g></g><g class="highcharts-axis-labels highcharts-xaxis-labels" data-z-index="7" aria-hidden="true"><text x="57" style="color: rgb(240, 240, 243); cursor: default; font-size: 0.8em; fill: rgb(240, 240, 243);" text-anchor="middle" transform="translate(0,0)" y="322" opacity="1">0</text><text x="139" style="color: rgb(240, 240, 243); cursor: default; font-size: 0.8em; fill: rgb(240, 240, 243);" text-anchor="middle" transform="translate(0,0)" y="322" opacity="1">300,000</text><text x="218.35483870968" style="color: rgb(240, 240, 243); cursor: default; font-size: 0.8em; fill: rgb(240, 240, 243);" text-anchor="middle" transform="translate(0,0)" y="322" opacity="1">600,000</text><text x="297.70967741935" style="color: rgb(240, 240, 243); cursor: default; font-size: 0.8em; fill: rgb(240, 240, 243);" text-anchor="middle" transform="translate(0,0)" y="322" opacity="1">900,000</text><text x="377.06451612903" style="color: rgb(240, 240, 243); cursor: default; font-size: 0.8em; fill: rgb(240, 240, 243);" text-anchor="middle" transform="translate(0,0)" y="322" opacity="1">1,200,000</text><text x="456.41935483871" style="color: rgb(240, 240, 243); cursor: default; font-size: 0.8em; fill: rgb(240, 240, 243);" text-anchor="middle" transform="translate(0,0)" y="322" opacity="1">1,500,000</text><text x="535.77419354839" style="color: rgb(240, 240, 243); cursor: default; font-size: 0.8em; fill: rgb(240, 240, 243);" text-anchor="middle" transform="translate(0,0)" y="322" opacity="1">1,800,000</text></g><g class="highcharts-axis-labels highcharts-yaxis-labels" data-z-index="7" aria-hidden="true"><text x="42" style="color: rgb(240, 240, 243); cursor: default; font-size: 0.8em; fill: rgb(240, 240, 243);" text-anchor="end" transform="translate(0,0)" y="293" opacity="1">4,925</text><text x="42" style="color: rgb(240, 240, 243); cursor: default; font-size: 0.8em; fill: rgb(240, 240, 243);" text-anchor="end" transform="translate(0,0)" y="242" opacity="1">4,950</text><text x="42" style="color: rgb(240, 240, 243); cursor: default; font-size: 0.8em; fill: rgb(240, 240, 243);" text-anchor="end" transform="translate(0,0)" y="192" opacity="1">4,975</text><text x="42" style="color: rgb(240, 240, 243); cursor: default; font-size: 0.8em; fill: rgb(240, 240, 243);" text-anchor="end" transform="translate(0,0)" y="141" opacity="1">5,000</text><text x="42" style="color: rgb(240, 240, 243); cursor: default; font-size: 0.8em; fill: rgb(240, 240, 243);" text-anchor="end" transform="translate(0,0)" y="91" opacity="1">5,025</text><text x="0" style="color: rgb(240, 240, 243); cursor: default; font-size: 0.8em; fill: rgb(240, 240, 243);" text-anchor="end" transform="translate(0,0)" visibility="hidden">5,050</text></g><text x="590" class="highcharts-credits" text-anchor="end" data-z-index="8" style="cursor: pointer; color: rgb(240, 240, 243); font-size: 0.6em; fill: rgb(240, 240, 243);" y="395" aria-label="Chart credits: Highcharts.com" aria-hidden="false">Highcharts.com</text></svg>