<svg xmlns:xlink="http://www.w3.org/1999/xlink" version="1.1" class="highcharts-root" style="font-family: Helvetica, Arial, sans-serif; font-size: 1rem;" xmlns="http://www.w3.org/2000/svg" width="600" height="400" viewBox="0 0 600 400" aria-label="Interactive chart" aria-hidden="false"><desc aria-hidden="true">Created with Highcharts 11.4.8</desc><defs aria-hidden="true"><filter id="highcharts-drop-shadow-18"><feDropShadow dx="1" dy="1" flood-color="#000000" flood-opacity="0.75" stdDeviation="2.5"></feDropShadow></filter><clipPath id="highcharts-jpq6uxj-163887-"><rect x="0" y="0" width="533" height="253" fill="none"></rect></clipPath></defs><rect fill="#1f1f20" class="highcharts-background" filter="none" x="0" y="0" width="600" height="400" rx="0" ry="0" aria-hidden="true"></rect><rect fill="none" class="highcharts-plot-background" x="57" y="42" width="533" height="253" filter="none" aria-hidden="true"></rect><g class="highcharts-grid highcharts-xaxis-grid" data-z-index="1" aria-hidden="true"><path fill="none" stroke="#707073" stroke-width="0" stroke-dasharray="none" data-z-index="1" class="highcharts-grid-line" d="M 57.5 42 L 57.5 295" opacity="1"></path><path fill="none" stroke="#707073" stroke-width="0" stroke-dasharray="none" data-z-index="1" class="highcharts-grid-line" d="M 139.5 42 L 139.5 295" opacity="1"></path><path fill="none" stroke="#707073" stroke-width="0" stroke-dasharray="none" data-z-index="1" class="highcharts-grid-line" d="M 219.5 42 L 219.5 295" opacity="1"></path><path fill="none" stroke="#707073" stroke-width="0" stroke-dasharray="none" data-z-index="1" class="highcharts-grid-line" d="M 299.5 42 L 299.5 295" opacity="1"></path><path fill="none" stroke="#707073" stroke-width="0" stroke-dasharray="none" data-z-index="1" class="highcharts-grid-line" d="M 379.5 42 L 379.5 295" opacity="1"></path><path fill="none" stroke="#707073" stroke-width="0" stroke-dasharray="none" data-z-index="1" class="highcharts-grid-line" d="M 459.5 42 L 459.5 295" opacity="1"></path><path fill="none" stroke="#707073" stroke-width="0" stroke-dasharray="none" data-z-index="1" class="highcharts-grid-line" d="M 539.5 42 L 539.5 295" opacity="1"></path></g><g class="highcharts-grid highcharts-yaxis-grid" data-z-index="1" aria-hidden="true"><path fill="none" stroke="#707073" stroke-width="1" stroke-dasharray="none" data-z-index="1" class="highcharts-grid-line" d="M 57 295.5 L 590 295.5" opacity="1"></path><path fill="none" stroke="#707073" stroke-width="1" stroke-dasharray="none" data-z-index="1" class="highcharts-grid-line" d="M 57 244.5 L 590 244.5" opacity="1"></path><path fill="none" stroke="#707073" stroke-width="1" stroke-dasharray="none" data-z-index="1" class="highcharts-grid-line" d="M 57 194.5 L 590 194.5" opacity="1"></path><path fill="none" stroke="#707073" stroke-width="1" stroke-dasharray="none" data-z-index="1" class="highcharts-grid-line" d="M 57 143.5 L 590 143.5" opacity="1"></path><path fill="none" stroke="#707073" stroke-width="1" stroke-dasharray="none" data-z-index="1" class="highcharts-grid-line" d="M 57 93.5 L 590 93.5" opacity="1"></path><path fill="none" stroke="#707073" stroke-width="1" stroke-dasharray="none" data-z-index="1" class="highcharts-grid-line" d="M 57 42.5 L 590 42.5" opacity="1"></path></g><rect fill="none" class="highcharts-plot-border" data-z-index="1" stroke="#606063" stroke-width="0" x="57" y="42" width="533" height="253" aria-hidden="true"></rect><g class="highcharts-axis highcharts-xaxis" data-z-index="2" aria-hidden="true"><path fill="none" class="highcharts-tick" stroke="#707073" stroke-width="1" d="M 57.5 295 L 57.5 305" opacity="1"></path><path fill="none" class="highcharts-tick" stroke="#707073" stroke-width="1" d="M 139.5 295 L 139.5 305" opacity="1"></path><path fill="none" class="highcharts-tick" stroke="#707073" stroke-width="1" d="M 219.5 295 L 219.5 305" opacity="1"></path><path fill="none" class="highcharts-tick" stroke="#707073" stroke-width="1" d="M 299.5 295 L 299.5 305" opacity="1"></path><path fill="none" class="highcharts-tick" stroke="#707073" stroke-width="1" d="M 379.5 295 L 379.5 305" opacity="1"></path><path fill="none" class="highcharts-tick" stroke="#707073" stroke-width="1" d="M 459.5 295 L 459.5 305" opacity="1"></path><path fill="none" class="highcharts-tick" stroke="#707073" stroke-width="1" d="M 539.5 295 L 539.5 305" opacity="1"></path><text x="323.5" data-z-index="7" text-anchor="middle" transform="translate(0,0)" class="highcharts-axis-title" style="color: rgb(240, 240, 243); font-size: 0.8em; fill: rgb(240, 240, 243);" y="341">Timestamp</text><path fill="none" class="highcharts-axis-line" stroke="#707073" stroke-width="1" data-z-index="7" d="M 57 295.5 L 590 295.5"></path></g><g class="highcharts-axis highcharts-yaxis" data-z-index="2" aria-hidden="true"><path fill="none" class="highcharts-axis-line" stroke="#707073" stroke-width="0" data-z-index="7" d="M 57 42 L 57 295"></path></g><g class="highcharts-series-group" data-z-index="3" filter="none" aria-hidden="false"><g class="highcharts-series highcharts-series-0 highcharts-line-series" data-z-index="0.1" opacity="1" transform="translate(57,42) scale(1 1)" clip-path="url(#highcharts-jpq6uxj-163887-)" aria-hidden="false"><path fill="none" d="M 1.3337551595121 117.392 L 4.0012654785363 127.512 L 5.3350206380485 129.536 L 6.6687757975606 133.584 L 8.0025309570727 127.512 L 9.3362861165848 125.488 L 10.670041276097 121.44 L 12.003796435609 119.416 L 13.337551595121 129.536 L 14.671306754633 115.368 L 16.005061914145 109.296 L 17.338817073657 115.368 L 20.006327392682 95.128 L 21.340082552194 91.08 L 22.673837711706 93.104 L 24.007592871218 82.984 L 26.675103190242 82.984 L 28.008858349754 82.984 L 29.342613509267 78.936 L 30.676368668779 76.912 L 32.010123828291 82.984 L 33.343878987803 82.984 L 34.677634147315 82.984 L 37.345144466339 91.08 L 40.012654785363 107.272 L 41.346409944876 113.344 L 42.680165104388 115.368 L 44.0139202639 117.392 L 45.347675423412 125.488 L 46.681430582924 119.416 L 48.015185742436 119.416 L 49.348940901948 129.536 L 50.68269606146 129.536 L 53.350206380485 127.512 L 54.683961539997 123.464 L 56.017716699509 117.392 L 57.351471859021 115.368 L 58.685227018533 115.368 L 61.352737337557 119.416 L 64.020247656581 127.512 L 65.354002816094 121.44 L 66.687757975606 129.536 L 68.021513135118 117.392 L 69.35526829463 121.44 L 70.689023454142 121.44 L 73.356533773166 123.464 L 74.690288932678 119.416 L 76.02404409219 105.248 L 77.357799251703 99.176 L 80.025309570727 113.344 L 81.359064730239 109.296 L 82.692819889751 113.344 L 85.360330208775 109.296 L 86.694085368287 113.344 L 88.0278405278 105.248 L 90.695350846824 89.056 L 92.029106006336 85.008 L 93.362861165848 91.08 L 94.69661632536 91.08 L 97.364126644384 82.984 L 98.697881803896 85.008 L 100.03163696341 85.008 L 101.36539212292 91.08 L 102.69914728243 91.08 L 104.03290244194 82.984 L 105.36665760146 87.032 L 106.70041276097 93.104 L 108.03416792048 103.224 L 109.36792307999 111.32 L 110.70167823951 99.176 L 112.03543339902 101.2 L 113.36918855853 107.272 L 114.70294371804 91.08 L 117.37045403707 103.224 L 118.70420919658 97.152 L 120.03796435609 107.272 L 121.3717195156 103.224 L 122.70547467511 107.272 L 124.03922983463 107.272 L 125.37298499414 119.416 L 126.70674015365 121.44 L 128.04049531316 121.44 L 129.37425047268 125.488 L 130.70800563219 125.488 L 132.0417607917 129.536 L 133.37551595121 127.512 L 134.70927111072 133.584 L 136.04302627024 131.56 L 137.37678142975 133.584 L 138.71053658926 129.536 L 141.37804690828 131.56 L 142.7118020678 135.608 L 144.04555722731 129.536 L 145.37931238682 117.392 L 146.71306754633 113.344 L 148.04682270584 101.2 L 152.04808818438 107.272 L 153.38184334389 123.464 L 154.71559850341 119.416 L 156.04935366292 113.344 L 160.05061914145 119.416 L 161.38437430097 113.344 L 162.71812946048 103.224 L 165.3856397795 105.248 L 166.71939493901 119.416 L 168.05315009853 113.344 L 169.38690525804 113.344 L 170.72066041755 101.2 L 172.05441557706 107.272 L 173.38817073657 103.224 L 174.72192589609 89.056 L 176.0556810556 87.032 L 177.38943621511 76.912 L 178.72319137462 82.984 L 180.05694653414 76.912 L 181.39070169365 91.08 L 182.72445685316 101.2 L 184.05821201267 103.224 L 186.7257223317 125.488 L 188.05947749121 125.488 L 189.39323265072 129.536 L 190.72698781023 129.536 L 192.06074296974 117.392 L 193.39449812926 109.296 L 194.72825328877 111.32 L 196.06200844828 113.344 L 201.39702908633 115.368 L 202.73078424584 113.344 L 204.06453940535 111.32 L 205.39829456487 103.224 L 206.73204972438 89.056 L 209.3995600434 82.984 L 210.73331520291 80.96 L 212.06707036243 80.96 L 213.40082552194 76.912 L 214.73458068145 80.96 L 216.06833584096 76.912 L 217.40209100047 78.936 L 220.0696013195 56.672 L 221.40335647901 56.672 L 222.73711163852 64.768 L 224.07086679804 64.768 L 228.07213227657 78.936 L 229.40588743608 76.912 L 230.7396425956 66.792 L 232.07339775511 56.672 L 233.40715291462 56.672 L 234.74090807413 66.792 L 236.07466323364 62.744 L 237.40841839316 70.84 L 238.74217355267 54.648 L 240.07592871218 60.72 L 241.40968387169 50.6 L 242.7434390312 50.6 L 244.07719419072 64.768 L 245.41094935023 74.888 L 246.74470450974 74.888 L 248.07845966925 68.816 L 249.41221482877 64.768 L 250.74596998828 64.768 L 253.4134803073 72.864 L 256.08099062633 95.128 L 257.41474578584 95.128 L 258.74850094535 97.152 L 260.08225610486 99.176 L 261.41601126437 95.128 L 264.0835215834 91.08 L 266.75103190242 97.152 L 268.08478706193 95.128 L 269.41854222145 103.224 L 270.75229738096 113.344 L 272.08605254047 107.272 L 273.41980769998 111.32 L 274.7535628595 121.44 L 276.08731801901 127.512 L 277.42107317852 139.656 L 280.08858349754 149.776 L 281.42233865706 151.8 L 282.75609381657 143.704 L 285.42360413559 137.632 L 286.7573592951 139.656 L 288.09111445462 139.656 L 289.42486961413 137.632 L 290.75862477364 135.608 L 292.09237993315 149.776 L 293.42613509267 161.92 L 294.75989025218 149.776 L 296.09364541169 143.704 L 297.4274005712 143.704 L 298.76115573071 131.56 L 300.09491089023 123.464 L 302.76242120925 131.56 L 304.09617636876 131.56 L 305.42993152827 129.536 L 306.76368668779 125.488 L 308.0974418473 133.584 L 309.43119700681 137.632 L 310.76495216632 147.752 L 312.09870732583 151.8 L 313.43246248535 147.752 L 314.76621764486 135.608 L 317.43372796388 137.632 L 318.7674831234 129.536 L 320.10123828291 131.56 L 321.43499344242 135.608 L 322.76874860193 119.416 L 325.43625892096 115.368 L 326.77001408047 125.488 L 328.10376923998 145.728 L 329.43752439949 139.656 L 330.771279559 155.848 L 332.10503471852 145.728 L 333.43878987803 147.752 L 334.77254503754 137.632 L 336.10630019705 147.752 L 337.44005535656 143.704 L 338.77381051608 141.68 L 340.10756567559 145.728 L 341.4413208351 147.752 L 342.77507599461 147.752 L 344.10883115413 151.8 L 345.44258631364 157.872 L 346.77634147315 149.776 L 348.11009663266 147.752 L 349.44385179217 145.728 L 350.77760695169 153.824 L 352.1113621112 153.824 L 353.44511727071 151.8 L 354.77887243022 145.728 L 356.11262758973 143.704 L 357.44638274925 147.752 L 358.78013790876 137.632 L 360.11389306827 139.656 L 361.44764822778 135.608 L 364.11515854681 123.464 L 365.44891370632 121.44 L 366.78266886583 117.392 L 368.11642402534 127.512 L 369.45017918486 131.56 L 370.78393434437 131.56 L 372.11768950388 123.464 L 373.45144466339 119.416 L 374.7851998229 127.512 L 377.45271014193 139.656 L 378.78646530144 143.704 L 380.12022046095 139.656 L 381.45397562046 139.656 L 382.78773077998 131.56 L 384.12148593949 123.464 L 386.78899625851 131.56 L 389.45650657754 111.32 L 392.12401689656 123.464 L 393.45777205607 133.584 L 394.79152721559 133.584 L 396.1252823751 147.752 L 397.45903753461 147.752 L 398.79279269412 153.824 L 400.12654785363 159.896 L 402.79405817266 163.944 L 405.46156849168 165.968 L 406.79532365119 176.088 L 408.12907881071 170.016 L 409.46283397022 159.896 L 410.79658912973 151.8 L 412.13034428924 153.824 L 413.46409944876 155.848 L 414.79785460827 176.088 L 416.13160976778 178.112 L 417.46536492729 174.064 L 420.13287524632 167.992 L 421.46663040583 165.968 L 422.80038556534 167.992 L 424.13414072485 165.968 L 425.46789588436 178.112 L 426.80165104388 167.992 L 428.13540620339 176.088 L 430.80291652241 174.064 L 432.13667168192 170.016 L 433.47042684144 172.04 L 434.80418200095 167.992 L 436.13793716046 170.016 L 438.80544747949 186.208 L 440.139202639 192.28 L 441.47295779851 186.208 L 442.80671295802 178.112 L 444.14046811753 184.184 L 445.47422327705 174.064 L 448.14173359607 182.16 L 449.47548875558 186.208 L 450.80924391509 174.064 L 452.14299907461 190.256 L 453.47675423412 196.328 L 454.81050939363 196.328 L 456.14426455314 200.376 L 457.47801971265 206.448 L 458.81177487217 212.52 L 460.14553003168 214.544 L 464.14679551022 214.544 L 465.48055066973 212.52 L 466.81430582924 200.376 L 468.14806098875 192.28 L 470.81557130778 182.16 L 472.14932646729 176.088 L 473.4830816268 190.256 L 474.81683678631 200.376 L 476.15059194582 200.376 L 477.48434710534 200.376 L 478.81810226485 204.424 L 481.48561258387 208.472 L 482.81936774339 196.328 L 485.48687806241 186.208 L 486.82063322192 180.136 L 488.15438838143 194.304 L 489.48814354095 196.328 L 490.82189870046 200.376 L 492.15565385997 194.304 L 493.48940901948 198.352 L 494.82316417899 196.328 L 496.15691933851 206.448 L 497.49067449802 204.424 L 498.82442965753 202.4 L 500.15818481704 198.352 L 501.49193997655 206.448 L 502.82569513607 196.328 L 505.49320545509 174.064 L 506.8269606146 172.04 L 510.82822609314 188.232 L 512.16198125265 176.088 L 514.82949157168 192.28 L 517.4970018907 198.352 L 518.83075705021 186.208 L 520.16451220972 186.208 L 521.49826736924 198.352 L 522.83202252875 196.328 L 524.16577768826 208.472 L 525.49953284777 210.496 L 526.83328800728 202.4 L 528.1670431668 204.424 L 529.50079832631 198.352 L 530.83455348582 204.424 L 532.16830864533 214.544 L 534.83581896436 216.568" class="highcharts-graph" data-z-index="1" stroke="rgb(39, 174, 96)" stroke-opacity=" 0.5" stroke-width="2" stroke-linejoin="round" stroke-linecap="round" filter="none" aria-hidden="false" role="region" tabindex="-1" style="outline: none;" aria-label="Bid 3, line 1 of 7 with 342 data points."></path></g><g class="highcharts-markers highcharts-series-0 highcharts-line-series" data-z-index="0.1" opacity="1" transform="translate(57,42) scale(1 1)" clip-path="none" aria-hidden="true"></g><g class="highcharts-series highcharts-series-1 highcharts-line-series" data-z-index="0.1" opacity="1" transform="translate(57,42) scale(1 1)" clip-path="url(#highcharts-jpq6uxj-163887-)" aria-hidden="false"><path fill="none" d="M 0 117.392 L 4.0012654785363 129.536 L 5.3350206380485 129.536 L 6.6687757975606 135.608 L 8.0025309570727 129.536 L 9.3362861165848 127.512 L 10.670041276097 123.464 L 12.003796435609 119.416 L 13.337551595121 127.512 L 14.671306754633 117.392 L 16.005061914145 107.272 L 17.338817073657 117.392 L 18.67257223317 107.272 L 20.006327392682 97.152 L 21.340082552194 89.056 L 22.673837711706 91.08 L 24.007592871218 89.056 L 25.34134803073 70.84 L 26.675103190242 74.888 L 28.008858349754 89.056 L 29.342613509267 80.96 L 30.676368668779 78.936 L 32.010123828291 78.936 L 33.343878987803 76.912 L 34.677634147315 85.008 L 36.011389306827 78.936 L 37.345144466339 87.032 L 38.678899625851 95.128 L 40.012654785363 103.224 L 41.346409944876 109.296 L 42.680165104388 113.344 L 44.0139202639 111.32 L 45.347675423412 121.44 L 46.681430582924 123.464 L 48.015185742436 117.392 L 49.348940901948 125.488 L 50.68269606146 129.536 L 52.016451220972 131.56 L 53.350206380485 127.512 L 54.683961539997 121.44 L 56.017716699509 125.488 L 57.351471859021 117.392 L 58.685227018533 115.368 L 60.018982178045 113.344 L 61.352737337557 121.44 L 62.686492497069 119.416 L 64.020247656581 127.512 L 65.354002816094 121.44 L 66.687757975606 127.512 L 68.021513135118 125.488 L 69.35526829463 117.392 L 70.689023454142 121.44 L 72.022778613654 127.512 L 73.356533773166 121.44 L 74.690288932678 121.44 L 76.02404409219 105.248 L 77.357799251703 99.176 L 78.691554411215 97.152 L 80.025309570727 113.344 L 81.359064730239 107.272 L 82.692819889751 111.32 L 84.026575049263 113.344 L 85.360330208775 109.296 L 86.694085368287 111.32 L 88.0278405278 105.248 L 89.361595687312 101.2 L 90.695350846824 89.056 L 92.029106006336 87.032 L 93.362861165848 87.032 L 94.69661632536 93.104 L 96.030371484872 89.056 L 97.364126644384 85.008 L 98.697881803896 82.984 L 100.03163696341 91.08 L 101.36539212292 89.056 L 102.69914728243 91.08 L 104.03290244194 89.056 L 105.36665760146 91.08 L 106.70041276097 91.08 L 108.03416792048 99.176 L 109.36792307999 105.248 L 110.70167823951 103.224 L 112.03543339902 99.176 L 113.36918855853 105.248 L 114.70294371804 95.128 L 116.03669887755 95.128 L 117.37045403707 101.2 L 118.70420919658 97.152 L 120.03796435609 103.224 L 121.3717195156 111.32 L 122.70547467511 105.248 L 124.03922983463 109.296 L 125.37298499414 117.392 L 126.70674015365 117.392 L 128.04049531316 117.392 L 129.37425047268 115.368 L 130.70800563219 125.488 L 132.0417607917 129.536 L 133.37551595121 133.584 L 134.70927111072 133.584 L 136.04302627024 127.512 L 137.37678142975 133.584 L 138.71053658926 131.56 L 140.04429174877 129.536 L 141.37804690828 133.584 L 142.7118020678 131.56 L 144.04555722731 127.512 L 145.37931238682 117.392 L 146.71306754633 113.344 L 148.04682270584 107.272 L 149.38057786536 105.248 L 150.71433302487 107.272 L 152.04808818438 99.176 L 153.38184334389 117.392 L 154.71559850341 117.392 L 156.04935366292 119.416 L 157.38310882243 113.344 L 158.71686398194 113.344 L 160.05061914145 125.488 L 161.38437430097 107.272 L 162.71812946048 107.272 L 164.05188461999 103.224 L 165.3856397795 105.248 L 166.71939493901 117.392 L 168.05315009853 113.344 L 169.38690525804 113.344 L 170.72066041755 105.248 L 172.05441557706 101.2 L 173.38817073657 105.248 L 174.72192589609 95.128 L 176.0556810556 85.008 L 177.38943621511 80.96 L 178.72319137462 80.96 L 180.05694653414 76.912 L 181.39070169365 82.984 L 182.72445685316 97.152 L 184.05821201267 105.248 L 185.39196717218 103.224 L 186.7257223317 121.44 L 188.05947749121 121.44 L 189.39323265072 127.512 L 190.72698781023 127.512 L 192.06074296974 119.416 L 193.39449812926 113.344 L 194.72825328877 107.272 L 196.06200844828 113.344 L 197.39576360779 105.248 L 198.7295187673 109.296 L 200.06327392682 109.296 L 201.39702908633 117.392 L 202.73078424584 113.344 L 204.06453940535 115.368 L 205.39829456487 109.296 L 206.73204972438 95.128 L 208.06580488389 93.104 L 209.3995600434 82.984 L 210.73331520291 80.96 L 212.06707036243 87.032 L 213.40082552194 80.96 L 214.73458068145 85.008 L 216.06833584096 72.864 L 217.40209100047 78.936 L 218.73584615999 74.888 L 220.0696013195 64.768 L 221.40335647901 56.672 L 222.73711163852 58.696 L 224.07086679804 66.792 L 225.40462195755 72.864 L 226.73837711706 82.984 L 228.07213227657 80.96 L 229.40588743608 76.912 L 230.7396425956 68.816 L 232.07339775511 64.768 L 233.40715291462 52.624 L 234.74090807413 62.744 L 236.07466323364 62.744 L 237.40841839316 72.864 L 238.74217355267 60.72 L 240.07592871218 56.672 L 241.40968387169 52.624 L 242.7434390312 54.648 L 244.07719419072 56.672 L 245.41094935023 62.744 L 246.74470450974 74.888 L 248.07845966925 72.864 L 249.41221482877 70.84 L 250.74596998828 64.768 L 252.07972514779 72.864 L 253.4134803073 66.792 L 254.74723546681 74.888 L 256.08099062633 91.08 L 257.41474578584 99.176 L 258.74850094535 97.152 L 260.08225610486 99.176 L 261.41601126437 95.128 L 262.74976642389 97.152 L 264.0835215834 93.104 L 265.41727674291 101.2 L 266.75103190242 99.176 L 268.08478706193 97.152 L 269.41854222145 105.248 L 270.75229738096 111.32 L 272.08605254047 105.248 L 273.41980769998 111.32 L 274.7535628595 119.416 L 276.08731801901 127.512 L 277.42107317852 137.632 L 278.75482833803 133.584 L 280.08858349754 147.752 L 281.42233865706 151.8 L 282.75609381657 139.656 L 284.08984897608 137.632 L 285.42360413559 139.656 L 286.7573592951 135.608 L 288.09111445462 141.68 L 289.42486961413 135.608 L 290.75862477364 135.608 L 292.09237993315 147.752 L 293.42613509267 157.872 L 294.75989025218 153.824 L 296.09364541169 147.752 L 297.4274005712 139.656 L 298.76115573071 131.56 L 300.09491089023 131.56 L 301.42866604974 121.44 L 302.76242120925 127.512 L 304.09617636876 129.536 L 305.42993152827 131.56 L 306.76368668779 129.536 L 308.0974418473 131.56 L 309.43119700681 137.632 L 310.76495216632 133.584 L 312.09870732583 149.776 L 313.43246248535 147.752 L 314.76621764486 143.704 L 316.09997280437 137.632 L 317.43372796388 141.68 L 318.7674831234 139.656 L 320.10123828291 127.512 L 321.43499344242 139.656 L 322.76874860193 125.488 L 324.10250376144 127.512 L 325.43625892096 119.416 L 326.77001408047 123.464 L 328.10376923998 137.632 L 329.43752439949 141.68 L 330.771279559 147.752 L 332.10503471852 151.8 L 333.43878987803 149.776 L 334.77254503754 139.656 L 336.10630019705 149.776 L 337.44005535656 141.68 L 338.77381051608 139.656 L 340.10756567559 143.704 L 341.4413208351 143.704 L 342.77507599461 143.704 L 344.10883115413 149.776 L 345.44258631364 155.848 L 346.77634147315 145.728 L 348.11009663266 145.728 L 349.44385179217 143.704 L 350.77760695169 153.824 L 352.1113621112 151.8 L 353.44511727071 155.848 L 354.77887243022 143.704 L 356.11262758973 149.776 L 357.44638274925 145.728 L 358.78013790876 141.68 L 360.11389306827 143.704 L 361.44764822778 135.608 L 362.78140338729 131.56 L 364.11515854681 127.512 L 365.44891370632 121.44 L 366.78266886583 119.416 L 368.11642402534 125.488 L 369.45017918486 129.536 L 370.78393434437 129.536 L 372.11768950388 123.464 L 373.45144466339 119.416 L 374.7851998229 129.536 L 376.11895498242 133.584 L 377.45271014193 135.608 L 378.78646530144 139.656 L 380.12022046095 141.68 L 381.45397562046 137.632 L 382.78773077998 135.608 L 384.12148593949 131.56 L 385.455241099 121.44 L 386.78899625851 131.56 L 388.12275141803 123.464 L 389.45650657754 121.44 L 390.79026173705 109.296 L 392.12401689656 117.392 L 393.45777205607 125.488 L 394.79152721559 135.608 L 396.1252823751 139.656 L 397.45903753461 149.776 L 398.79279269412 151.8 L 400.12654785363 159.896 L 401.46030301315 155.848 L 402.79405817266 159.896 L 404.12781333217 167.992 L 405.46156849168 170.016 L 406.79532365119 170.016 L 408.12907881071 170.016 L 409.46283397022 157.872 L 410.79658912973 157.872 L 412.13034428924 151.8 L 413.46409944876 155.848 L 414.79785460827 165.968 L 416.13160976778 180.136 L 417.46536492729 174.064 L 418.7991200868 167.992 L 420.13287524632 167.992 L 421.46663040583 167.992 L 422.80038556534 174.064 L 424.13414072485 165.968 L 425.46789588436 178.112 L 426.80165104388 170.016 L 428.13540620339 176.088 L 429.4691613629 176.088 L 430.80291652241 174.064 L 432.13667168192 178.112 L 433.47042684144 174.064 L 434.80418200095 165.968 L 436.13793716046 170.016 L 437.47169231997 170.016 L 438.80544747949 186.208 L 440.139202639 190.256 L 441.47295779851 194.304 L 442.80671295802 178.112 L 444.14046811753 182.16 L 445.47422327705 184.184 L 446.80797843656 182.16 L 448.14173359607 182.16 L 449.47548875558 188.232 L 450.80924391509 178.112 L 452.14299907461 176.088 L 453.47675423412 198.352 L 454.81050939363 194.304 L 456.14426455314 204.424 L 457.47801971265 202.4 L 458.81177487217 206.448 L 460.14553003168 212.52 L 461.47928519119 212.52 L 462.8130403507 214.544 L 464.14679551022 220.616 L 465.48055066973 214.544 L 466.81430582924 204.424 L 468.14806098875 192.28 L 469.48181614826 200.376 L 470.81557130778 182.16 L 472.14932646729 178.112 L 473.4830816268 186.208 L 474.81683678631 198.352 L 476.15059194582 198.352 L 477.48434710534 202.4 L 478.81810226485 204.424 L 480.15185742436 200.376 L 481.48561258387 204.424 L 482.81936774339 196.328 L 484.1531229029 196.328 L 485.48687806241 188.232 L 486.82063322192 188.232 L 488.15438838143 188.232 L 489.48814354095 198.352 L 490.82189870046 196.328 L 492.15565385997 194.304 L 493.48940901948 200.376 L 494.82316417899 192.28 L 496.15691933851 204.424 L 497.49067449802 204.424 L 498.82442965753 206.448 L 500.15818481704 198.352 L 501.49193997655 208.472 L 502.82569513607 196.328 L 504.15945029558 190.256 L 505.49320545509 184.184 L 506.8269606146 172.04 L 508.16071577412 178.112 L 509.49447093363 188.232 L 510.82822609314 192.28 L 512.16198125265 178.112 L 513.49573641216 182.16 L 514.82949157168 190.256 L 516.16324673119 196.328 L 517.4970018907 194.304 L 518.83075705021 196.328 L 520.16451220972 184.184 L 521.49826736924 194.304 L 522.83202252875 196.328 L 524.16577768826 204.424 L 525.49953284777 210.496 L 526.83328800728 210.496 L 528.1670431668 204.424 L 529.50079832631 198.352 L 530.83455348582 204.424 L 532.16830864533 212.52 L 536.16957412387 216.568" class="highcharts-graph" data-z-index="1" stroke="rgb(39, 174, 96)" stroke-opacity=" 0.75" stroke-width="2" stroke-linejoin="round" stroke-linecap="round" filter="none" aria-hidden="false" role="region" tabindex="-1" style="outline: none;" aria-label="Bid 2, line 2 of 7 with 399 data points."></path></g><g class="highcharts-markers highcharts-series-1 highcharts-line-series" data-z-index="0.1" opacity="1" transform="translate(57,42) scale(1 1)" clip-path="none" aria-hidden="true"></g><g class="highcharts-series highcharts-series-2 highcharts-line-series" data-z-index="0.1" opacity="1" transform="translate(57,42) scale(1 1)" clip-path="url(#highcharts-jpq6uxj-163887-)" aria-hidden="false"><path fill="none" d="M 0 115.368 L 4.0012654785363 125.488 L 5.3350206380485 127.512 L 6.6687757975606 133.584 L 8.0025309570727 127.512 L 9.3362861165848 125.488 L 10.670041276097 121.44 L 12.003796435609 115.368 L 13.337551595121 125.488 L 14.671306754633 115.368 L 16.005061914145 105.248 L 17.338817073657 113.344 L 18.67257223317 105.248 L 20.006327392682 95.128 L 21.340082552194 74.888 L 22.673837711706 87.032 L 24.007592871218 87.032 L 25.34134803073 68.816 L 26.675103190242 72.864 L 28.008858349754 87.032 L 29.342613509267 78.936 L 30.676368668779 76.912 L 32.010123828291 76.912 L 33.343878987803 72.864 L 34.677634147315 82.984 L 36.011389306827 76.912 L 37.345144466339 82.984 L 38.678899625851 93.104 L 40.012654785363 101.2 L 41.346409944876 107.272 L 42.680165104388 111.32 L 44.0139202639 109.296 L 45.347675423412 119.416 L 46.681430582924 121.44 L 48.015185742436 115.368 L 49.348940901948 121.44 L 50.68269606146 125.488 L 52.016451220972 129.536 L 53.350206380485 125.488 L 54.683961539997 119.416 L 56.017716699509 123.464 L 57.351471859021 113.344 L 58.685227018533 111.32 L 60.018982178045 111.32 L 61.352737337557 119.416 L 62.686492497069 117.392 L 64.020247656581 125.488 L 65.354002816094 117.392 L 66.687757975606 125.488 L 68.021513135118 123.464 L 69.35526829463 115.368 L 70.689023454142 119.416 L 72.022778613654 125.488 L 73.356533773166 117.392 L 74.690288932678 119.416 L 76.02404409219 101.2 L 77.357799251703 95.128 L 78.691554411215 95.128 L 80.025309570727 109.296 L 81.359064730239 105.248 L 82.692819889751 107.272 L 84.026575049263 109.296 L 85.360330208775 107.272 L 86.694085368287 109.296 L 88.0278405278 103.224 L 89.361595687312 97.152 L 90.695350846824 87.032 L 92.029106006336 85.008 L 93.362861165848 85.008 L 94.69661632536 89.056 L 96.030371484872 87.032 L 97.364126644384 82.984 L 98.697881803896 80.96 L 100.03163696341 89.056 L 101.36539212292 87.032 L 102.69914728243 89.056 L 104.03290244194 85.008 L 105.36665760146 89.056 L 106.70041276097 89.056 L 108.03416792048 97.152 L 109.36792307999 103.224 L 110.70167823951 99.176 L 112.03543339902 82.984 L 113.36918855853 103.224 L 114.70294371804 93.104 L 116.03669887755 91.08 L 117.37045403707 97.152 L 118.70420919658 95.128 L 120.03796435609 101.2 L 121.3717195156 109.296 L 122.70547467511 103.224 L 124.03922983463 107.272 L 125.37298499414 113.344 L 126.70674015365 115.368 L 128.04049531316 107.272 L 129.37425047268 113.344 L 130.70800563219 123.464 L 132.0417607917 127.512 L 133.37551595121 131.56 L 134.70927111072 131.56 L 136.04302627024 123.464 L 137.37678142975 131.56 L 138.71053658926 127.512 L 140.04429174877 127.512 L 141.37804690828 129.536 L 142.7118020678 129.536 L 144.04555722731 125.488 L 145.37931238682 115.368 L 146.71306754633 109.296 L 148.04682270584 105.248 L 149.38057786536 103.224 L 150.71433302487 105.248 L 152.04808818438 97.152 L 153.38184334389 115.368 L 154.71559850341 107.272 L 156.04935366292 117.392 L 157.38310882243 109.296 L 158.71686398194 111.32 L 160.05061914145 123.464 L 161.38437430097 105.248 L 162.71812946048 105.248 L 164.05188461999 101.2 L 165.3856397795 103.224 L 166.71939493901 113.344 L 168.05315009853 111.32 L 169.38690525804 111.32 L 170.72066041755 103.224 L 172.05441557706 99.176 L 173.38817073657 103.224 L 174.72192589609 91.08 L 176.0556810556 82.984 L 177.38943621511 76.912 L 178.72319137462 78.936 L 180.05694653414 74.888 L 181.39070169365 80.96 L 182.72445685316 93.104 L 184.05821201267 103.224 L 185.39196717218 99.176 L 186.7257223317 117.392 L 188.05947749121 119.416 L 189.39323265072 125.488 L 190.72698781023 125.488 L 192.06074296974 117.392 L 193.39449812926 111.32 L 194.72825328877 105.248 L 196.06200844828 111.32 L 197.39576360779 103.224 L 198.7295187673 107.272 L 200.06327392682 105.248 L 201.39702908633 113.344 L 202.73078424584 111.32 L 204.06453940535 113.344 L 205.39829456487 107.272 L 206.73204972438 91.08 L 208.06580488389 91.08 L 209.3995600434 80.96 L 210.73331520291 78.936 L 212.06707036243 85.008 L 213.40082552194 76.912 L 214.73458068145 80.96 L 216.06833584096 62.744 L 217.40209100047 76.912 L 218.73584615999 72.864 L 220.0696013195 60.72 L 221.40335647901 54.648 L 222.73711163852 56.672 L 224.07086679804 64.768 L 225.40462195755 70.84 L 226.73837711706 78.936 L 228.07213227657 78.936 L 229.40588743608 74.888 L 230.7396425956 66.792 L 232.07339775511 60.72 L 233.40715291462 50.6 L 234.74090807413 58.696 L 236.07466323364 60.72 L 237.40841839316 70.84 L 238.74217355267 58.696 L 240.07592871218 54.648 L 241.40968387169 48.576 L 242.7434390312 52.624 L 244.07719419072 54.648 L 245.41094935023 60.72 L 246.74470450974 72.864 L 248.07845966925 68.816 L 249.41221482877 68.816 L 250.74596998828 60.72 L 252.07972514779 70.84 L 253.4134803073 64.768 L 254.74723546681 70.84 L 256.08099062633 87.032 L 257.41474578584 97.152 L 258.74850094535 95.128 L 260.08225610486 97.152 L 261.41601126437 93.104 L 262.74976642389 95.128 L 264.0835215834 91.08 L 265.41727674291 97.152 L 266.75103190242 97.152 L 268.08478706193 95.128 L 269.41854222145 103.224 L 270.75229738096 109.296 L 272.08605254047 101.2 L 273.41980769998 109.296 L 274.7535628595 117.392 L 276.08731801901 125.488 L 277.42107317852 135.608 L 278.75482833803 131.56 L 280.08858349754 143.704 L 281.42233865706 149.776 L 282.75609381657 137.632 L 284.08984897608 135.608 L 285.42360413559 137.632 L 286.7573592951 133.584 L 288.09111445462 139.656 L 289.42486961413 121.44 L 290.75862477364 131.56 L 292.09237993315 145.728 L 293.42613509267 155.848 L 294.75989025218 151.8 L 296.09364541169 145.728 L 297.4274005712 137.632 L 298.76115573071 129.536 L 300.09491089023 129.536 L 301.42866604974 119.416 L 302.76242120925 125.488 L 304.09617636876 127.512 L 305.42993152827 129.536 L 306.76368668779 127.512 L 308.0974418473 129.536 L 309.43119700681 135.608 L 310.76495216632 131.56 L 312.09870732583 147.752 L 313.43246248535 145.728 L 314.76621764486 139.656 L 316.09997280437 133.584 L 317.43372796388 139.656 L 318.7674831234 137.632 L 320.10123828291 125.488 L 321.43499344242 137.632 L 322.76874860193 121.44 L 324.10250376144 123.464 L 325.43625892096 117.392 L 326.77001408047 121.44 L 328.10376923998 135.608 L 329.43752439949 139.656 L 330.771279559 145.728 L 332.10503471852 149.776 L 333.43878987803 147.752 L 334.77254503754 137.632 L 336.10630019705 147.752 L 337.44005535656 139.656 L 338.77381051608 137.632 L 340.10756567559 141.68 L 341.4413208351 141.68 L 342.77507599461 129.536 L 344.10883115413 147.752 L 345.44258631364 153.824 L 346.77634147315 135.608 L 348.11009663266 141.68 L 349.44385179217 141.68 L 350.77760695169 151.8 L 352.1113621112 147.752 L 353.44511727071 153.824 L 354.77887243022 141.68 L 356.11262758973 147.752 L 357.44638274925 143.704 L 358.78013790876 139.656 L 360.11389306827 141.68 L 361.44764822778 133.584 L 362.78140338729 129.536 L 364.11515854681 125.488 L 365.44891370632 119.416 L 366.78266886583 117.392 L 368.11642402534 123.464 L 369.45017918486 127.512 L 370.78393434437 125.488 L 372.11768950388 121.44 L 373.45144466339 117.392 L 374.7851998229 125.488 L 376.11895498242 131.56 L 377.45271014193 133.584 L 378.78646530144 137.632 L 380.12022046095 139.656 L 381.45397562046 135.608 L 382.78773077998 133.584 L 384.12148593949 129.536 L 385.455241099 119.416 L 386.78899625851 129.536 L 388.12275141803 119.416 L 389.45650657754 119.416 L 390.79026173705 107.272 L 392.12401689656 113.344 L 393.45777205607 123.464 L 394.79152721559 133.584 L 396.1252823751 137.632 L 397.45903753461 145.728 L 398.79279269412 149.776 L 400.12654785363 157.872 L 401.46030301315 153.824 L 402.79405817266 157.872 L 404.12781333217 165.968 L 405.46156849168 167.992 L 406.79532365119 167.992 L 408.12907881071 167.992 L 409.46283397022 155.848 L 410.79658912973 153.824 L 412.13034428924 149.776 L 413.46409944876 151.8 L 414.79785460827 163.944 L 416.13160976778 176.088 L 417.46536492729 172.04 L 418.7991200868 165.968 L 420.13287524632 165.968 L 421.46663040583 163.944 L 422.80038556534 172.04 L 424.13414072485 163.944 L 425.46789588436 176.088 L 426.80165104388 167.992 L 428.13540620339 174.064 L 429.4691613629 174.064 L 430.80291652241 172.04 L 432.13667168192 176.088 L 433.47042684144 172.04 L 434.80418200095 163.944 L 436.13793716046 167.992 L 437.47169231997 167.992 L 438.80544747949 184.184 L 440.139202639 188.232 L 441.47295779851 190.256 L 442.80671295802 176.088 L 444.14046811753 180.136 L 445.47422327705 182.16 L 446.80797843656 178.112 L 448.14173359607 180.136 L 449.47548875558 186.208 L 450.80924391509 176.088 L 452.14299907461 172.04 L 453.47675423412 196.328 L 454.81050939363 192.28 L 456.14426455314 202.4 L 457.47801971265 200.376 L 458.81177487217 204.424 L 460.14553003168 210.496 L 461.47928519119 210.496 L 462.8130403507 212.52 L 464.14679551022 216.568 L 465.48055066973 212.52 L 466.81430582924 202.4 L 468.14806098875 190.256 L 469.48181614826 198.352 L 470.81557130778 178.112 L 472.14932646729 174.064 L 473.4830816268 182.16 L 474.81683678631 196.328 L 476.15059194582 196.328 L 477.48434710534 198.352 L 478.81810226485 202.4 L 480.15185742436 198.352 L 481.48561258387 202.4 L 482.81936774339 194.304 L 484.1531229029 192.28 L 485.48687806241 186.208 L 486.82063322192 184.184 L 488.15438838143 186.208 L 489.48814354095 196.328 L 490.82189870046 194.304 L 492.15565385997 192.28 L 493.48940901948 196.328 L 494.82316417899 190.256 L 496.15691933851 202.4 L 497.49067449802 202.4 L 498.82442965753 204.424 L 500.15818481704 196.328 L 501.49193997655 204.424 L 502.82569513607 194.304 L 504.15945029558 188.232 L 505.49320545509 182.16 L 506.8269606146 170.016 L 508.16071577412 176.088 L 509.49447093363 186.208 L 510.82822609314 190.256 L 512.16198125265 176.088 L 513.49573641216 180.136 L 514.82949157168 188.232 L 516.16324673119 194.304 L 517.4970018907 192.28 L 518.83075705021 194.304 L 520.16451220972 174.064 L 521.49826736924 192.28 L 522.83202252875 194.304 L 524.16577768826 200.376 L 525.49953284777 206.448 L 526.83328800728 208.472 L 528.1670431668 202.4 L 529.50079832631 196.328 L 530.83455348582 202.4 L 532.16830864533 210.496 L 536.16957412387 214.544" class="highcharts-graph" data-z-index="1" stroke="rgb(39, 174, 96)" stroke-opacity=" 1" stroke-width="2" stroke-linejoin="round" stroke-linecap="round" filter="none" aria-hidden="false" role="region" tabindex="-1" style="outline: none;" aria-label="Bid 1, line 3 of 7 with 399 data points."></path></g><g class="highcharts-markers highcharts-series-2 highcharts-line-series" data-z-index="0.1" opacity="1" transform="translate(57,42) scale(1 1)" clip-path="none" aria-hidden="true"></g><g class="highcharts-series highcharts-series-3 highcharts-line-series" data-z-index="0.1" opacity="1" transform="translate(57,42) scale(1 1)" clip-path="url(#highcharts-jpq6uxj-163887-)" aria-hidden="false"><path fill="none" d="M 0 101.2 L 4.0012654785363 112.332 L 5.3350206380485 113.344 L 6.6687757975606 119.416 L 8.0025309570727 113.344 L 9.3362861165848 111.32 L 10.670041276097 107.272 L 12.003796435609 102.212 L 13.337551595121 111.32 L 14.671306754633 102.212 L 16.005061914145 92.092 L 17.338817073657 106.26 L 18.67257223317 92.092 L 20.006327392682 80.96 L 21.340082552194 67.804 L 22.673837711706 73.876 L 24.007592871218 72.864 L 25.34134803073 55.66 L 26.675103190242 59.708 L 28.008858349754 72.864 L 29.342613509267 65.78 L 30.676368668779 62.744 L 32.010123828291 63.756 L 33.343878987803 59.708 L 34.677634147315 68.816 L 36.011389306827 62.744 L 37.345144466339 69.828 L 38.678899625851 78.936 L 40.012654785363 87.032 L 41.346409944876 93.104 L 42.680165104388 97.152 L 44.0139202639 96.14 L 45.347675423412 106.26 L 46.681430582924 107.272 L 48.015185742436 101.2 L 49.348940901948 108.284 L 50.68269606146 112.332 L 52.016451220972 116.38 L 53.350206380485 111.32 L 54.683961539997 106.26 L 56.017716699509 109.296 L 57.351471859021 100.188 L 58.685227018533 104.236 L 60.018982178045 98.164 L 61.352737337557 105.248 L 62.686492497069 104.236 L 64.020247656581 111.32 L 65.354002816094 104.236 L 66.687757975606 112.332 L 68.021513135118 109.296 L 69.35526829463 102.212 L 70.689023454142 105.248 L 72.022778613654 111.32 L 73.356533773166 104.236 L 74.690288932678 105.248 L 76.02404409219 88.044 L 77.357799251703 81.972 L 78.691554411215 81.972 L 80.025309570727 96.14 L 81.359064730239 91.08 L 82.692819889751 94.116 L 84.026575049263 96.14 L 85.360330208775 93.104 L 86.694085368287 95.128 L 88.0278405278 90.068 L 89.361595687312 83.996 L 90.695350846824 73.876 L 92.029106006336 70.84 L 93.362861165848 70.84 L 94.69661632536 75.9 L 96.030371484872 73.876 L 97.364126644384 68.816 L 98.697881803896 66.792 L 100.03163696341 74.888 L 101.36539212292 72.864 L 102.69914728243 74.888 L 104.03290244194 71.852 L 105.36665760146 74.888 L 106.70041276097 74.888 L 108.03416792048 82.984 L 109.36792307999 89.056 L 110.70167823951 86.02 L 112.03543339902 76.912 L 113.36918855853 90.068 L 114.70294371804 78.936 L 116.03669887755 77.924 L 117.37045403707 90.068 L 118.70420919658 80.96 L 120.03796435609 88.044 L 121.3717195156 95.128 L 122.70547467511 90.068 L 124.03922983463 99.176 L 125.37298499414 100.188 L 126.70674015365 101.2 L 128.04049531316 99.176 L 129.37425047268 99.176 L 130.70800563219 109.296 L 132.0417607917 113.344 L 133.37551595121 118.404 L 134.70927111072 118.404 L 136.04302627024 118.404 L 137.37678142975 118.404 L 138.71053658926 114.356 L 140.04429174877 113.344 L 141.37804690828 116.38 L 142.7118020678 116.38 L 144.04555722731 112.332 L 145.37931238682 102.212 L 146.71306754633 104.236 L 148.04682270584 91.08 L 149.38057786536 89.056 L 150.71433302487 92.092 L 152.04808818438 83.996 L 153.38184334389 102.212 L 154.71559850341 98.164 L 156.04935366292 103.224 L 157.38310882243 96.14 L 158.71686398194 97.152 L 160.05061914145 109.296 L 161.38437430097 92.092 L 162.71812946048 91.08 L 164.05188461999 87.032 L 165.3856397795 90.068 L 166.71939493901 100.188 L 168.05315009853 97.152 L 169.38690525804 97.152 L 170.72066041755 89.056 L 172.05441557706 85.008 L 173.38817073657 90.068 L 174.72192589609 77.924 L 176.0556810556 68.816 L 177.38943621511 63.756 L 178.72319137462 64.768 L 180.05694653414 60.72 L 181.39070169365 66.792 L 182.72445685316 79.948 L 184.05821201267 96.14 L 185.39196717218 86.02 L 186.7257223317 104.236 L 188.05947749121 105.248 L 189.39323265072 111.32 L 190.72698781023 112.332 L 192.06074296974 103.224 L 193.39449812926 97.152 L 194.72825328877 91.08 L 196.06200844828 97.152 L 197.39576360779 89.056 L 198.7295187673 93.104 L 200.06327392682 92.092 L 201.39702908633 100.188 L 202.73078424584 97.152 L 204.06453940535 99.176 L 205.39829456487 94.116 L 206.73204972438 77.924 L 208.06580488389 76.912 L 209.3995600434 66.792 L 210.73331520291 64.768 L 212.06707036243 70.84 L 213.40082552194 63.756 L 214.73458068145 67.804 L 216.06833584096 54.648 L 217.40209100047 62.744 L 218.73584615999 58.696 L 220.0696013195 47.564 L 221.40335647901 40.48 L 222.73711163852 43.516 L 224.07086679804 50.6 L 225.40462195755 56.672 L 226.73837711706 65.78 L 228.07213227657 65.78 L 229.40588743608 61.732 L 230.7396425956 52.624 L 232.07339775511 47.564 L 233.40715291462 37.444 L 234.74090807413 45.54 L 236.07466323364 46.552 L 237.40841839316 56.672 L 238.74217355267 44.528 L 240.07592871218 41.492 L 241.40968387169 35.42 L 242.7434390312 39.468 L 244.07719419072 40.48 L 245.41094935023 46.552 L 246.74470450974 58.696 L 248.07845966925 55.66 L 249.41221482877 54.648 L 250.74596998828 47.564 L 252.07972514779 56.672 L 253.4134803073 50.6 L 254.74723546681 57.684 L 256.08099062633 73.876 L 257.41474578584 83.996 L 258.74850094535 80.96 L 260.08225610486 83.996 L 261.41601126437 88.044 L 262.74976642389 80.96 L 264.0835215834 77.924 L 265.41727674291 83.996 L 266.75103190242 82.984 L 268.08478706193 88.044 L 269.41854222145 89.056 L 270.75229738096 96.14 L 272.08605254047 88.044 L 273.41980769998 95.128 L 274.7535628595 103.224 L 276.08731801901 111.32 L 277.42107317852 130.548 L 278.75482833803 117.392 L 280.08858349754 130.548 L 281.42233865706 136.62 L 282.75609381657 124.476 L 284.08984897608 122.452 L 285.42360413559 124.476 L 286.7573592951 119.416 L 288.09111445462 126.5 L 289.42486961413 114.356 L 290.75862477364 118.404 L 292.09237993315 132.572 L 293.42613509267 141.68 L 294.75989025218 138.644 L 296.09364541169 131.56 L 297.4274005712 123.464 L 298.76115573071 115.368 L 300.09491089023 116.38 L 301.42866604974 106.26 L 302.76242120925 112.332 L 304.09617636876 113.344 L 305.42993152827 116.38 L 306.76368668779 114.356 L 308.0974418473 115.368 L 309.43119700681 121.44 L 310.76495216632 117.392 L 312.09870732583 133.584 L 313.43246248535 131.56 L 314.76621764486 126.5 L 316.09997280437 120.428 L 317.43372796388 125.488 L 318.7674831234 124.476 L 320.10123828291 112.332 L 321.43499344242 123.464 L 322.76874860193 108.284 L 324.10250376144 110.308 L 325.43625892096 103.224 L 326.77001408047 107.272 L 328.10376923998 122.452 L 329.43752439949 125.488 L 330.771279559 131.56 L 332.10503471852 136.62 L 333.43878987803 133.584 L 334.77254503754 123.464 L 336.10630019705 140.668 L 337.44005535656 126.5 L 338.77381051608 124.476 L 340.10756567559 128.524 L 341.4413208351 127.512 L 342.77507599461 123.464 L 344.10883115413 133.584 L 345.44258631364 140.668 L 346.77634147315 127.512 L 348.11009663266 128.524 L 349.44385179217 127.512 L 350.77760695169 137.632 L 352.1113621112 134.596 L 353.44511727071 139.656 L 354.77887243022 128.524 L 356.11262758973 133.584 L 357.44638274925 129.536 L 358.78013790876 126.5 L 360.11389306827 127.512 L 361.44764822778 120.428 L 362.78140338729 116.38 L 364.11515854681 111.32 L 365.44891370632 105.248 L 366.78266886583 103.224 L 368.11642402534 110.308 L 369.45017918486 113.344 L 370.78393434437 112.332 L 372.11768950388 107.272 L 373.45144466339 104.236 L 374.7851998229 112.332 L 376.11895498242 118.404 L 377.45271014193 119.416 L 378.78646530144 124.476 L 380.12022046095 126.5 L 381.45397562046 122.452 L 382.78773077998 119.416 L 384.12148593949 115.368 L 385.455241099 105.248 L 386.78899625851 116.38 L 388.12275141803 106.26 L 389.45650657754 114.356 L 390.79026173705 93.104 L 392.12401689656 100.188 L 393.45777205607 110.308 L 394.79152721559 119.416 L 396.1252823751 123.464 L 397.45903753461 132.572 L 398.79279269412 143.704 L 400.12654785363 143.704 L 401.46030301315 139.656 L 402.79405817266 144.716 L 404.12781333217 152.812 L 405.46156849168 153.824 L 406.79532365119 153.824 L 408.12907881071 153.824 L 409.46283397022 141.68 L 410.79658912973 140.668 L 412.13034428924 136.62 L 413.46409944876 138.644 L 414.79785460827 149.776 L 416.13160976778 162.932 L 417.46536492729 158.884 L 418.7991200868 152.812 L 420.13287524632 151.8 L 421.46663040583 150.788 L 422.80038556534 157.872 L 424.13414072485 149.776 L 425.46789588436 161.92 L 426.80165104388 153.824 L 428.13540620339 160.908 L 429.4691613629 159.896 L 430.80291652241 157.872 L 432.13667168192 161.92 L 433.47042684144 157.872 L 434.80418200095 150.788 L 436.13793716046 154.836 L 437.47169231997 153.824 L 438.80544747949 171.028 L 440.139202639 174.064 L 441.47295779851 177.1 L 442.80671295802 161.92 L 444.14046811753 165.968 L 445.47422327705 167.992 L 446.80797843656 164.956 L 448.14173359607 165.968 L 449.47548875558 178.112 L 450.80924391509 161.92 L 452.14299907461 158.884 L 453.47675423412 182.16 L 454.81050939363 179.124 L 456.14426455314 188.232 L 457.47801971265 186.208 L 458.81177487217 191.268 L 460.14553003168 197.34 L 461.47928519119 197.34 L 462.8130403507 199.364 L 464.14679551022 209.484 L 465.48055066973 199.364 L 466.81430582924 189.244 L 468.14806098875 176.088 L 469.48181614826 184.184 L 470.81557130778 164.956 L 472.14932646729 160.908 L 473.4830816268 169.004 L 474.81683678631 182.16 L 476.15059194582 182.16 L 477.48434710534 185.196 L 478.81810226485 188.232 L 480.15185742436 185.196 L 481.48561258387 189.244 L 482.81936774339 180.136 L 484.1531229029 179.124 L 485.48687806241 172.04 L 486.82063322192 171.028 L 488.15438838143 172.04 L 489.48814354095 182.16 L 490.82189870046 180.136 L 492.15565385997 179.124 L 493.48940901948 183.172 L 494.82316417899 177.1 L 496.15691933851 189.244 L 497.49067449802 189.244 L 498.82442965753 191.268 L 500.15818481704 182.16 L 501.49193997655 191.268 L 502.82569513607 181.148 L 504.15945029558 175.076 L 505.49320545509 167.992 L 506.8269606146 156.86 L 508.16071577412 161.92 L 509.49447093363 172.04 L 510.82822609314 176.088 L 512.16198125265 162.932 L 513.49573641216 165.968 L 514.82949157168 175.076 L 516.16324673119 181.148 L 517.4970018907 178.112 L 518.83075705021 180.136 L 520.16451220972 165.968 L 521.49826736924 178.112 L 522.83202252875 181.148 L 524.16577768826 187.22 L 525.49953284777 193.292 L 526.83328800728 194.304 L 528.1670431668 188.232 L 529.50079832631 182.16 L 530.83455348582 189.244 L 532.16830864533 196.328 L 536.16957412387 201.388" class="highcharts-graph" data-z-index="1" stroke="gray" stroke-width="2" stroke-dasharray="8,6" filter="none" aria-hidden="false" role="region" tabindex="-1" style="outline: none;" aria-label="Mid price, line 4 of 7 with 399 data points."></path></g><g class="highcharts-markers highcharts-series-3 highcharts-line-series" data-z-index="0.1" opacity="1" transform="translate(57,42) scale(1 1)" clip-path="none" aria-hidden="true"></g><g class="highcharts-series highcharts-series-4 highcharts-line-series" data-z-index="0.1" opacity="1" transform="translate(57,42) scale(1 1)" clip-path="url(#highcharts-jpq6uxj-163887-)" aria-hidden="false"><path fill="none" d="M 0 87.032 L 4.0012654785363 99.176 L 5.3350206380485 99.176 L 6.6687757975606 105.248 L 8.0025309570727 99.176 L 9.3362861165848 97.152 L 10.670041276097 93.104 L 12.003796435609 89.056 L 13.337551595121 97.152 L 14.671306754633 89.056 L 16.005061914145 78.936 L 17.338817073657 99.176 L 18.67257223317 78.936 L 20.006327392682 66.792 L 21.340082552194 60.72 L 22.673837711706 60.72 L 24.007592871218 58.696 L 25.34134803073 42.504 L 26.675103190242 46.552 L 28.008858349754 58.696 L 29.342613509267 52.624 L 30.676368668779 48.576 L 32.010123828291 50.6 L 33.343878987803 46.552 L 34.677634147315 54.648 L 36.011389306827 48.576 L 37.345144466339 56.672 L 38.678899625851 64.768 L 40.012654785363 72.864 L 41.346409944876 78.936 L 42.680165104388 82.984 L 44.0139202639 82.984 L 45.347675423412 93.104 L 46.681430582924 93.104 L 48.015185742436 87.032 L 49.348940901948 95.128 L 50.68269606146 99.176 L 52.016451220972 103.224 L 53.350206380485 97.152 L 54.683961539997 93.104 L 56.017716699509 95.128 L 57.351471859021 87.032 L 58.685227018533 97.152 L 60.018982178045 85.008 L 61.352737337557 91.08 L 62.686492497069 91.08 L 64.020247656581 97.152 L 65.354002816094 91.08 L 66.687757975606 99.176 L 68.021513135118 95.128 L 69.35526829463 89.056 L 70.689023454142 91.08 L 72.022778613654 97.152 L 73.356533773166 91.08 L 74.690288932678 91.08 L 76.02404409219 74.888 L 77.357799251703 68.816 L 78.691554411215 68.816 L 80.025309570727 82.984 L 81.359064730239 76.912 L 82.692819889751 80.96 L 84.026575049263 82.984 L 85.360330208775 78.936 L 86.694085368287 80.96 L 88.0278405278 76.912 L 89.361595687312 70.84 L 90.695350846824 60.72 L 92.029106006336 56.672 L 93.362861165848 56.672 L 94.69661632536 62.744 L 96.030371484872 60.72 L 97.364126644384 54.648 L 98.697881803896 52.624 L 100.03163696341 60.72 L 101.36539212292 58.696 L 102.69914728243 60.72 L 104.03290244194 58.696 L 105.36665760146 60.72 L 106.70041276097 60.72 L 108.03416792048 68.816 L 109.36792307999 74.888 L 110.70167823951 72.864 L 112.03543339902 70.84 L 113.36918855853 76.912 L 114.70294371804 64.768 L 116.03669887755 64.768 L 117.37045403707 82.984 L 118.70420919658 66.792 L 120.03796435609 74.888 L 121.3717195156 80.96 L 122.70547467511 76.912 L 124.03922983463 91.08 L 125.37298499414 87.032 L 126.70674015365 87.032 L 128.04049531316 91.08 L 129.37425047268 85.008 L 130.70800563219 95.128 L 132.0417607917 99.176 L 133.37551595121 105.248 L 134.70927111072 105.248 L 136.04302627024 113.344 L 137.37678142975 105.248 L 138.71053658926 101.2 L 140.04429174877 99.176 L 141.37804690828 103.224 L 142.7118020678 103.224 L 144.04555722731 99.176 L 145.37931238682 89.056 L 146.71306754633 99.176 L 148.04682270584 76.912 L 149.38057786536 74.888 L 150.71433302487 78.936 L 152.04808818438 70.84 L 153.38184334389 89.056 L 154.71559850341 89.056 L 156.04935366292 89.056 L 157.38310882243 82.984 L 158.71686398194 82.984 L 160.05061914145 95.128 L 161.38437430097 78.936 L 162.71812946048 76.912 L 164.05188461999 72.864 L 165.3856397795 76.912 L 166.71939493901 87.032 L 168.05315009853 82.984 L 169.38690525804 82.984 L 170.72066041755 74.888 L 172.05441557706 70.84 L 173.38817073657 76.912 L 174.72192589609 64.768 L 176.0556810556 54.648 L 177.38943621511 50.6 L 178.72319137462 50.6 L 180.05694653414 46.552 L 181.39070169365 52.624 L 182.72445685316 66.792 L 184.05821201267 89.056 L 185.39196717218 72.864 L 186.7257223317 91.08 L 188.05947749121 91.08 L 189.39323265072 97.152 L 190.72698781023 99.176 L 192.06074296974 89.056 L 193.39449812926 82.984 L 194.72825328877 76.912 L 196.06200844828 82.984 L 197.39576360779 74.888 L 198.7295187673 78.936 L 200.06327392682 78.936 L 201.39702908633 87.032 L 202.73078424584 82.984 L 204.06453940535 85.008 L 205.39829456487 80.96 L 206.73204972438 64.768 L 208.06580488389 62.744 L 209.3995600434 52.624 L 210.73331520291 50.6 L 212.06707036243 56.672 L 213.40082552194 50.6 L 214.73458068145 54.648 L 216.06833584096 46.552 L 217.40209100047 48.576 L 218.73584615999 44.528 L 220.0696013195 34.408 L 221.40335647901 26.312 L 222.73711163852 30.36 L 224.07086679804 36.432 L 225.40462195755 42.504 L 226.73837711706 52.624 L 228.07213227657 52.624 L 229.40588743608 48.576 L 230.7396425956 38.456 L 232.07339775511 34.408 L 233.40715291462 24.288 L 234.74090807413 32.384 L 236.07466323364 32.384 L 237.40841839316 42.504 L 238.74217355267 30.36 L 240.07592871218 28.336 L 241.40968387169 22.264 L 242.7434390312 26.312 L 244.07719419072 26.312 L 245.41094935023 32.384 L 246.74470450974 44.528 L 248.07845966925 42.504 L 249.41221482877 40.48 L 250.74596998828 34.408 L 252.07972514779 42.504 L 253.4134803073 36.432 L 254.74723546681 44.528 L 256.08099062633 60.72 L 257.41474578584 70.84 L 258.74850094535 66.792 L 260.08225610486 70.84 L 261.41601126437 82.984 L 262.74976642389 66.792 L 264.0835215834 64.768 L 265.41727674291 70.84 L 266.75103190242 68.816 L 268.08478706193 80.96 L 269.41854222145 74.888 L 270.75229738096 82.984 L 272.08605254047 74.888 L 273.41980769998 80.96 L 274.7535628595 89.056 L 276.08731801901 97.152 L 277.42107317852 125.488 L 278.75482833803 103.224 L 280.08858349754 117.392 L 281.42233865706 123.464 L 282.75609381657 111.32 L 284.08984897608 109.296 L 285.42360413559 111.32 L 286.7573592951 105.248 L 288.09111445462 113.344 L 289.42486961413 107.272 L 290.75862477364 105.248 L 292.09237993315 119.416 L 293.42613509267 127.512 L 294.75989025218 125.488 L 296.09364541169 117.392 L 297.4274005712 109.296 L 298.76115573071 101.2 L 300.09491089023 103.224 L 301.42866604974 93.104 L 302.76242120925 99.176 L 304.09617636876 99.176 L 305.42993152827 103.224 L 306.76368668779 101.2 L 308.0974418473 101.2 L 309.43119700681 107.272 L 310.76495216632 103.224 L 312.09870732583 119.416 L 313.43246248535 117.392 L 314.76621764486 113.344 L 316.09997280437 107.272 L 317.43372796388 111.32 L 318.7674831234 111.32 L 320.10123828291 99.176 L 321.43499344242 109.296 L 322.76874860193 95.128 L 324.10250376144 97.152 L 325.43625892096 89.056 L 326.77001408047 93.104 L 328.10376923998 109.296 L 329.43752439949 111.32 L 330.771279559 117.392 L 332.10503471852 123.464 L 333.43878987803 119.416 L 334.77254503754 109.296 L 336.10630019705 133.584 L 337.44005535656 113.344 L 338.77381051608 111.32 L 340.10756567559 115.368 L 341.4413208351 113.344 L 342.77507599461 117.392 L 344.10883115413 119.416 L 345.44258631364 127.512 L 346.77634147315 119.416 L 348.11009663266 115.368 L 349.44385179217 113.344 L 350.77760695169 123.464 L 352.1113621112 121.44 L 353.44511727071 125.488 L 354.77887243022 115.368 L 356.11262758973 119.416 L 357.44638274925 115.368 L 358.78013790876 113.344 L 360.11389306827 113.344 L 361.44764822778 107.272 L 362.78140338729 103.224 L 364.11515854681 97.152 L 365.44891370632 91.08 L 366.78266886583 89.056 L 368.11642402534 97.152 L 369.45017918486 99.176 L 370.78393434437 99.176 L 372.11768950388 93.104 L 373.45144466339 91.08 L 374.7851998229 99.176 L 376.11895498242 105.248 L 377.45271014193 105.248 L 378.78646530144 111.32 L 380.12022046095 113.344 L 381.45397562046 109.296 L 382.78773077998 105.248 L 384.12148593949 101.2 L 385.455241099 91.08 L 386.78899625851 103.224 L 388.12275141803 93.104 L 389.45650657754 109.296 L 390.79026173705 78.936 L 392.12401689656 87.032 L 393.45777205607 97.152 L 394.79152721559 105.248 L 396.1252823751 109.296 L 397.45903753461 119.416 L 398.79279269412 137.632 L 400.12654785363 129.536 L 401.46030301315 125.488 L 402.79405817266 131.56 L 404.12781333217 139.656 L 405.46156849168 139.656 L 406.79532365119 139.656 L 408.12907881071 139.656 L 409.46283397022 127.512 L 410.79658912973 127.512 L 412.13034428924 123.464 L 413.46409944876 125.488 L 414.79785460827 135.608 L 416.13160976778 149.776 L 417.46536492729 145.728 L 418.7991200868 139.656 L 420.13287524632 137.632 L 421.46663040583 137.632 L 422.80038556534 143.704 L 424.13414072485 135.608 L 425.46789588436 147.752 L 426.80165104388 139.656 L 428.13540620339 147.752 L 429.4691613629 145.728 L 430.80291652241 143.704 L 432.13667168192 147.752 L 433.47042684144 143.704 L 434.80418200095 137.632 L 436.13793716046 141.68 L 437.47169231997 139.656 L 438.80544747949 157.872 L 440.139202639 159.896 L 441.47295779851 163.944 L 442.80671295802 147.752 L 444.14046811753 151.8 L 445.47422327705 153.824 L 446.80797843656 151.8 L 448.14173359607 151.8 L 449.47548875558 170.016 L 450.80924391509 147.752 L 452.14299907461 145.728 L 453.47675423412 167.992 L 454.81050939363 165.968 L 456.14426455314 174.064 L 457.47801971265 172.04 L 458.81177487217 178.112 L 460.14553003168 184.184 L 461.47928519119 184.184 L 462.8130403507 186.208 L 464.14679551022 202.4 L 465.48055066973 186.208 L 466.81430582924 176.088 L 468.14806098875 161.92 L 469.48181614826 170.016 L 470.81557130778 151.8 L 472.14932646729 147.752 L 473.4830816268 155.848 L 474.81683678631 167.992 L 476.15059194582 167.992 L 477.48434710534 172.04 L 478.81810226485 174.064 L 480.15185742436 172.04 L 481.48561258387 176.088 L 482.81936774339 165.968 L 484.1531229029 165.968 L 485.48687806241 157.872 L 486.82063322192 157.872 L 488.15438838143 157.872 L 489.48814354095 167.992 L 490.82189870046 165.968 L 492.15565385997 165.968 L 493.48940901948 170.016 L 494.82316417899 163.944 L 496.15691933851 176.088 L 497.49067449802 176.088 L 498.82442965753 178.112 L 500.15818481704 167.992 L 501.49193997655 178.112 L 502.82569513607 167.992 L 504.15945029558 161.92 L 505.49320545509 153.824 L 506.8269606146 143.704 L 508.16071577412 147.752 L 509.49447093363 157.872 L 510.82822609314 161.92 L 512.16198125265 149.776 L 513.49573641216 151.8 L 514.82949157168 161.92 L 516.16324673119 167.992 L 517.4970018907 163.944 L 518.83075705021 165.968 L 520.16451220972 157.872 L 521.49826736924 163.944 L 522.83202252875 167.992 L 524.16577768826 174.064 L 525.49953284777 180.136 L 526.83328800728 180.136 L 528.1670431668 174.064 L 529.50079832631 167.992 L 530.83455348582 176.088 L 532.16830864533 182.16 L 536.16957412387 188.232" class="highcharts-graph" data-z-index="1" stroke="rgb(192, 57, 43)" stroke-opacity=" 1" stroke-width="2" stroke-linejoin="round" stroke-linecap="round" filter="none" aria-hidden="false" role="region" tabindex="-1" style="outline: none;" aria-label="Ask 1, line 5 of 7 with 399 data points."></path></g><g class="highcharts-markers highcharts-series-4 highcharts-line-series" data-z-index="0.1" opacity="1" transform="translate(57,42) scale(1 1)" clip-path="none" aria-hidden="true"></g><g class="highcharts-series highcharts-series-5 highcharts-line-series" data-z-index="0.1" opacity="1" transform="translate(57,42) scale(1 1)" clip-path="url(#highcharts-jpq6uxj-163887-)" aria-hidden="false"><path fill="none" d="M 0 85.008 L 4.0012654785363 97.152 L 5.3350206380485 97.152 L 6.6687757975606 103.224 L 8.0025309570727 97.152 L 9.3362861165848 95.128 L 10.670041276097 91.08 L 12.003796435609 87.032 L 13.337551595121 95.128 L 14.671306754633 85.008 L 16.005061914145 74.888 L 17.338817073657 87.032 L 18.67257223317 74.888 L 20.006327392682 64.768 L 21.340082552194 58.696 L 22.673837711706 58.696 L 24.007592871218 56.672 L 25.34134803073 38.456 L 26.675103190242 42.504 L 28.008858349754 56.672 L 29.342613509267 48.576 L 30.676368668779 46.552 L 32.010123828291 46.552 L 33.343878987803 44.528 L 34.677634147315 52.624 L 36.011389306827 46.552 L 37.345144466339 54.648 L 38.678899625851 62.744 L 40.012654785363 70.84 L 41.346409944876 76.912 L 42.680165104388 80.96 L 44.0139202639 78.936 L 45.347675423412 89.056 L 46.681430582924 91.08 L 48.015185742436 85.008 L 49.348940901948 93.104 L 50.68269606146 97.152 L 52.016451220972 99.176 L 53.350206380485 95.128 L 54.683961539997 89.056 L 56.017716699509 93.104 L 57.351471859021 85.008 L 58.685227018533 85.008 L 60.018982178045 80.96 L 61.352737337557 89.056 L 62.686492497069 87.032 L 64.020247656581 95.128 L 65.354002816094 89.056 L 66.687757975606 95.128 L 68.021513135118 93.104 L 69.35526829463 85.008 L 70.689023454142 89.056 L 72.022778613654 95.128 L 73.356533773166 89.056 L 74.690288932678 89.056 L 76.02404409219 72.864 L 77.357799251703 66.792 L 78.691554411215 64.768 L 80.025309570727 80.96 L 81.359064730239 74.888 L 82.692819889751 78.936 L 84.026575049263 80.96 L 85.360330208775 76.912 L 86.694085368287 78.936 L 88.0278405278 72.864 L 89.361595687312 68.816 L 90.695350846824 56.672 L 92.029106006336 54.648 L 93.362861165848 54.648 L 94.69661632536 60.72 L 96.030371484872 56.672 L 97.364126644384 52.624 L 98.697881803896 50.6 L 100.03163696341 58.696 L 101.36539212292 56.672 L 102.69914728243 58.696 L 104.03290244194 56.672 L 105.36665760146 58.696 L 106.70041276097 58.696 L 108.03416792048 66.792 L 109.36792307999 72.864 L 110.70167823951 70.84 L 112.03543339902 68.816 L 113.36918855853 72.864 L 114.70294371804 62.744 L 116.03669887755 62.744 L 117.37045403707 70.84 L 118.70420919658 64.768 L 120.03796435609 70.84 L 121.3717195156 78.936 L 122.70547467511 72.864 L 124.03922983463 78.936 L 125.37298499414 85.008 L 126.70674015365 85.008 L 128.04049531316 89.056 L 129.37425047268 82.984 L 130.70800563219 93.104 L 132.0417607917 97.152 L 133.37551595121 101.2 L 134.70927111072 101.2 L 136.04302627024 97.152 L 137.37678142975 101.2 L 138.71053658926 99.176 L 140.04429174877 97.152 L 141.37804690828 101.2 L 142.7118020678 99.176 L 144.04555722731 95.128 L 145.37931238682 85.008 L 146.71306754633 82.984 L 148.04682270584 74.888 L 149.38057786536 72.864 L 150.71433302487 74.888 L 152.04808818438 66.792 L 153.38184334389 85.008 L 154.71559850341 87.032 L 156.04935366292 87.032 L 157.38310882243 80.96 L 158.71686398194 80.96 L 160.05061914145 93.104 L 161.38437430097 74.888 L 162.71812946048 74.888 L 164.05188461999 70.84 L 165.3856397795 72.864 L 166.71939493901 85.008 L 168.05315009853 80.96 L 169.38690525804 80.96 L 170.72066041755 72.864 L 172.05441557706 68.816 L 173.38817073657 72.864 L 174.72192589609 62.744 L 176.0556810556 52.624 L 177.38943621511 46.552 L 178.72319137462 48.576 L 180.05694653414 44.528 L 181.39070169365 50.6 L 182.72445685316 64.768 L 184.05821201267 76.912 L 185.39196717218 70.84 L 186.7257223317 89.056 L 188.05947749121 89.056 L 189.39323265072 95.128 L 190.72698781023 95.128 L 192.06074296974 87.032 L 193.39449812926 80.96 L 194.72825328877 74.888 L 196.06200844828 80.96 L 197.39576360779 72.864 L 198.7295187673 76.912 L 200.06327392682 76.912 L 201.39702908633 85.008 L 202.73078424584 80.96 L 204.06453940535 82.984 L 205.39829456487 76.912 L 206.73204972438 62.744 L 208.06580488389 60.72 L 209.3995600434 50.6 L 210.73331520291 48.576 L 212.06707036243 54.648 L 213.40082552194 48.576 L 214.73458068145 52.624 L 216.06833584096 44.528 L 217.40209100047 46.552 L 218.73584615999 42.504 L 220.0696013195 32.384 L 221.40335647901 24.288 L 222.73711163852 26.312 L 224.07086679804 34.408 L 225.40462195755 40.48 L 226.73837711706 50.6 L 228.07213227657 48.576 L 229.40588743608 44.528 L 230.7396425956 36.432 L 232.07339775511 30.36 L 233.40715291462 20.24 L 234.74090807413 30.36 L 236.07466323364 30.36 L 237.40841839316 40.48 L 238.74217355267 28.336 L 240.07592871218 24.288 L 241.40968387169 20.24 L 242.7434390312 22.264 L 244.07719419072 24.288 L 245.41094935023 30.36 L 246.74470450974 42.504 L 248.07845966925 40.48 L 249.41221482877 38.456 L 250.74596998828 32.384 L 252.07972514779 40.48 L 253.4134803073 34.408 L 254.74723546681 42.504 L 256.08099062633 58.696 L 257.41474578584 66.792 L 258.74850094535 64.768 L 260.08225610486 66.792 L 261.41601126437 66.792 L 262.74976642389 64.768 L 264.0835215834 60.72 L 265.41727674291 68.816 L 266.75103190242 66.792 L 268.08478706193 66.792 L 269.41854222145 72.864 L 270.75229738096 78.936 L 272.08605254047 72.864 L 273.41980769998 78.936 L 274.7535628595 87.032 L 276.08731801901 95.128 L 277.42107317852 107.272 L 278.75482833803 101.2 L 280.08858349754 115.368 L 281.42233865706 119.416 L 282.75609381657 107.272 L 284.08984897608 105.248 L 285.42360413559 107.272 L 286.7573592951 103.224 L 288.09111445462 109.296 L 289.42486961413 105.248 L 290.75862477364 103.224 L 292.09237993315 117.392 L 293.42613509267 125.488 L 294.75989025218 121.44 L 296.09364541169 115.368 L 297.4274005712 107.272 L 298.76115573071 99.176 L 300.09491089023 99.176 L 301.42866604974 89.056 L 302.76242120925 95.128 L 304.09617636876 97.152 L 305.42993152827 101.2 L 306.76368668779 97.152 L 308.0974418473 99.176 L 309.43119700681 105.248 L 310.76495216632 101.2 L 312.09870732583 117.392 L 313.43246248535 115.368 L 314.76621764486 111.32 L 316.09997280437 105.248 L 317.43372796388 109.296 L 318.7674831234 109.296 L 320.10123828291 95.128 L 321.43499344242 107.272 L 322.76874860193 93.104 L 324.10250376144 95.128 L 325.43625892096 87.032 L 326.77001408047 91.08 L 328.10376923998 105.248 L 329.43752439949 109.296 L 330.771279559 115.368 L 332.10503471852 119.416 L 333.43878987803 117.392 L 334.77254503754 107.272 L 336.10630019705 119.416 L 337.44005535656 109.296 L 338.77381051608 107.272 L 340.10756567559 111.32 L 341.4413208351 111.32 L 342.77507599461 115.368 L 344.10883115413 117.392 L 345.44258631364 123.464 L 346.77634147315 117.392 L 348.11009663266 113.344 L 349.44385179217 111.32 L 350.77760695169 121.44 L 352.1113621112 119.416 L 353.44511727071 123.464 L 354.77887243022 111.32 L 356.11262758973 117.392 L 357.44638274925 113.344 L 358.78013790876 109.296 L 360.11389306827 111.32 L 361.44764822778 103.224 L 362.78140338729 99.176 L 364.11515854681 95.128 L 365.44891370632 89.056 L 366.78266886583 87.032 L 368.11642402534 93.104 L 369.45017918486 97.152 L 370.78393434437 97.152 L 372.11768950388 91.08 L 373.45144466339 87.032 L 374.7851998229 97.152 L 376.11895498242 101.2 L 377.45271014193 103.224 L 378.78646530144 107.272 L 380.12022046095 109.296 L 381.45397562046 105.248 L 382.78773077998 103.224 L 384.12148593949 99.176 L 385.455241099 89.056 L 386.78899625851 99.176 L 388.12275141803 91.08 L 389.45650657754 91.08 L 390.79026173705 76.912 L 392.12401689656 85.008 L 393.45777205607 93.104 L 394.79152721559 103.224 L 396.1252823751 107.272 L 397.45903753461 117.392 L 398.79279269412 121.44 L 400.12654785363 127.512 L 401.46030301315 123.464 L 402.79405817266 127.512 L 404.12781333217 135.608 L 405.46156849168 137.632 L 406.79532365119 137.632 L 408.12907881071 137.632 L 409.46283397022 125.488 L 410.79658912973 125.488 L 412.13034428924 119.416 L 413.46409944876 123.464 L 414.79785460827 133.584 L 416.13160976778 147.752 L 417.46536492729 141.68 L 418.7991200868 135.608 L 420.13287524632 135.608 L 421.46663040583 135.608 L 422.80038556534 141.68 L 424.13414072485 133.584 L 425.46789588436 145.728 L 426.80165104388 137.632 L 428.13540620339 143.704 L 429.4691613629 143.704 L 430.80291652241 141.68 L 432.13667168192 145.728 L 433.47042684144 141.68 L 434.80418200095 135.608 L 436.13793716046 137.632 L 437.47169231997 137.632 L 438.80544747949 153.824 L 440.139202639 157.872 L 441.47295779851 161.92 L 442.80671295802 145.728 L 444.14046811753 149.776 L 445.47422327705 151.8 L 446.80797843656 149.776 L 448.14173359607 149.776 L 449.47548875558 157.872 L 450.80924391509 145.728 L 452.14299907461 143.704 L 453.47675423412 165.968 L 454.81050939363 161.92 L 456.14426455314 172.04 L 457.47801971265 170.016 L 458.81177487217 174.064 L 460.14553003168 182.16 L 461.47928519119 180.136 L 462.8130403507 184.184 L 464.14679551022 190.256 L 465.48055066973 182.16 L 466.81430582924 174.064 L 468.14806098875 159.896 L 469.48181614826 167.992 L 470.81557130778 149.776 L 472.14932646729 145.728 L 473.4830816268 153.824 L 474.81683678631 165.968 L 476.15059194582 165.968 L 477.48434710534 170.016 L 478.81810226485 172.04 L 480.15185742436 167.992 L 481.48561258387 174.064 L 482.81936774339 163.944 L 484.1531229029 163.944 L 485.48687806241 155.848 L 486.82063322192 155.848 L 488.15438838143 155.848 L 489.48814354095 165.968 L 490.82189870046 163.944 L 492.15565385997 163.944 L 493.48940901948 167.992 L 494.82316417899 161.92 L 496.15691933851 172.04 L 497.49067449802 174.064 L 498.82442965753 176.088 L 500.15818481704 165.968 L 501.49193997655 176.088 L 502.82569513607 163.944 L 504.15945029558 157.872 L 505.49320545509 151.8 L 506.8269606146 139.656 L 508.16071577412 145.728 L 509.49447093363 155.848 L 510.82822609314 159.896 L 512.16198125265 145.728 L 513.49573641216 149.776 L 514.82949157168 157.872 L 516.16324673119 163.944 L 517.4970018907 161.92 L 518.83075705021 163.944 L 520.16451220972 153.824 L 521.49826736924 161.92 L 522.83202252875 163.944 L 524.16577768826 172.04 L 525.49953284777 178.112 L 526.83328800728 178.112 L 528.1670431668 172.04 L 529.50079832631 165.968 L 530.83455348582 174.064 L 532.16830864533 180.136 L 536.16957412387 186.208" class="highcharts-graph" data-z-index="1" stroke="rgb(192, 57, 43)" stroke-opacity=" 0.75" stroke-width="2" stroke-linejoin="round" stroke-linecap="round" filter="none" aria-hidden="false" role="region" tabindex="-1" style="outline: none;" aria-label="Ask 2, line 6 of 7 with 399 data points."></path></g><g class="highcharts-markers highcharts-series-5 highcharts-line-series" data-z-index="0.1" opacity="1" transform="translate(57,42) scale(1 1)" clip-path="none" aria-hidden="true"></g><g class="highcharts-series highcharts-series-6 highcharts-line-series" data-z-index="0.1" opacity="1" transform="translate(57,42) scale(1 1)" clip-path="url(#highcharts-jpq6uxj-163887-)" aria-hidden="false"><path fill="none" d="M 2.6675103190242 95.128 L 4.0012654785363 97.152 L 6.6687757975606 101.2 L 8.0025309570727 95.128 L 9.3362861165848 95.128 L 10.670041276097 91.08 L 12.003796435609 87.032 L 13.337551595121 95.128 L 14.671306754633 80.96 L 16.005061914145 82.984 L 17.338817073657 82.984 L 18.67257223317 72.864 L 20.006327392682 60.72 L 21.340082552194 56.672 L 22.673837711706 56.672 L 24.007592871218 54.648 L 25.34134803073 46.552 L 26.675103190242 44.528 L 28.008858349754 50.6 L 29.342613509267 46.552 L 30.676368668779 48.576 L 32.010123828291 48.576 L 33.343878987803 50.6 L 34.677634147315 50.6 L 36.011389306827 50.6 L 37.345144466339 52.624 L 38.678899625851 64.768 L 40.012654785363 74.888 L 41.346409944876 80.96 L 42.680165104388 80.96 L 45.347675423412 93.104 L 46.681430582924 85.008 L 48.015185742436 91.08 L 49.348940901948 97.152 L 50.68269606146 99.176 L 53.350206380485 89.056 L 54.683961539997 91.08 L 56.017716699509 91.08 L 57.351471859021 80.96 L 58.685227018533 82.984 L 60.018982178045 85.008 L 61.352737337557 89.056 L 62.686492497069 89.056 L 65.354002816094 87.032 L 66.687757975606 101.2 L 68.021513135118 91.08 L 69.35526829463 89.056 L 72.022778613654 95.128 L 74.690288932678 82.984 L 76.02404409219 70.84 L 77.357799251703 62.744 L 78.691554411215 64.768 L 80.025309570727 78.936 L 81.359064730239 76.912 L 82.692819889751 78.936 L 84.026575049263 78.936 L 85.360330208775 76.912 L 86.694085368287 72.864 L 88.0278405278 70.84 L 89.361595687312 72.864 L 90.695350846824 54.648 L 92.029106006336 58.696 L 94.69661632536 58.696 L 96.030371484872 50.6 L 97.364126644384 48.576 L 98.697881803896 48.576 L 100.03163696341 58.696 L 101.36539212292 54.648 L 102.69914728243 56.672 L 105.36665760146 54.648 L 106.70041276097 64.768 L 108.03416792048 72.864 L 109.36792307999 78.936 L 110.70167823951 70.84 L 112.03543339902 66.792 L 113.36918855853 70.84 L 114.70294371804 62.744 L 116.03669887755 64.768 L 117.37045403707 68.816 L 118.70420919658 66.792 L 120.03796435609 72.864 L 121.3717195156 72.864 L 122.70547467511 74.888 L 124.03922983463 76.912 L 125.37298499414 82.984 L 126.70674015365 87.032 L 128.04049531316 85.008 L 129.37425047268 85.008 L 130.70800563219 89.056 L 132.0417607917 99.176 L 133.37551595121 95.128 L 134.70927111072 97.152 L 136.04302627024 95.128 L 138.71053658926 97.152 L 140.04429174877 97.152 L 141.37804690828 93.104 L 142.7118020678 101.2 L 144.04555722731 95.128 L 145.37931238682 85.008 L 146.71306754633 80.96 L 149.38057786536 74.888 L 150.71433302487 74.888 L 152.04808818438 72.864 L 153.38184334389 93.104 L 156.04935366292 87.032 L 157.38310882243 78.936 L 158.71686398194 82.984 L 160.05061914145 89.056 L 161.38437430097 74.888 L 162.71812946048 72.864 L 165.3856397795 76.912 L 166.71939493901 87.032 L 168.05315009853 78.936 L 169.38690525804 85.008 L 170.72066041755 66.792 L 172.05441557706 68.816 L 173.38817073657 70.84 L 176.0556810556 54.648 L 177.38943621511 40.48 L 178.72319137462 50.6 L 180.05694653414 42.504 L 181.39070169365 54.648 L 182.72445685316 74.888 L 184.05821201267 72.864 L 185.39196717218 70.84 L 188.05947749121 93.104 L 189.39323265072 101.2 L 192.06074296974 85.008 L 193.39449812926 76.912 L 194.72825328877 76.912 L 196.06200844828 80.96 L 197.39576360779 78.936 L 198.7295187673 74.888 L 200.06327392682 78.936 L 201.39702908633 80.96 L 202.73078424584 80.96 L 204.06453940535 82.984 L 205.39829456487 74.888 L 209.3995600434 46.552 L 210.73331520291 46.552 L 212.06707036243 52.624 L 213.40082552194 50.6 L 214.73458068145 42.504 L 217.40209100047 42.504 L 218.73584615999 42.504 L 220.0696013195 24.288 L 221.40335647901 28.336 L 224.07086679804 38.456 L 225.40462195755 40.48 L 226.73837711706 50.6 L 228.07213227657 50.6 L 229.40588743608 38.456 L 230.7396425956 32.384 L 232.07339775511 26.312 L 233.40715291462 22.264 L 234.74090807413 30.36 L 237.40841839316 36.432 L 238.74217355267 26.312 L 240.07592871218 28.336 L 241.40968387169 20.24 L 246.74470450974 44.528 L 248.07845966925 36.432 L 249.41221482877 32.384 L 252.07972514779 36.432 L 254.74723546681 50.6 L 256.08099062633 58.696 L 260.08225610486 66.792 L 261.41601126437 62.744 L 262.74976642389 58.696 L 264.0835215834 68.816 L 268.08478706193 64.768 L 269.41854222145 80.96 L 272.08605254047 68.816 L 273.41980769998 76.912 L 274.7535628595 87.032 L 276.08731801901 95.128 L 277.42107317852 105.248 L 278.75482833803 107.272 L 280.08858349754 117.392 L 281.42233865706 119.416 L 282.75609381657 111.32 L 284.08984897608 111.32 L 285.42360413559 109.296 L 286.7573592951 105.248 L 288.09111445462 111.32 L 290.75862477364 101.2 L 292.09237993315 117.392 L 293.42613509267 125.488 L 294.75989025218 119.416 L 296.09364541169 107.272 L 297.4274005712 113.344 L 301.42866604974 93.104 L 302.76242120925 101.2 L 304.09617636876 97.152 L 305.42993152827 99.176 L 306.76368668779 99.176 L 310.76495216632 105.248 L 312.09870732583 117.392 L 313.43246248535 115.368 L 314.76621764486 107.272 L 317.43372796388 113.344 L 318.7674831234 101.2 L 321.43499344242 93.104 L 322.76874860193 95.128 L 324.10250376144 91.08 L 326.77001408047 91.08 L 328.10376923998 113.344 L 329.43752439949 105.248 L 332.10503471852 121.44 L 333.43878987803 113.344 L 334.77254503754 105.248 L 336.10630019705 117.392 L 337.44005535656 111.32 L 340.10756567559 111.32 L 342.77507599461 113.344 L 344.10883115413 117.392 L 345.44258631364 127.512 L 348.11009663266 113.344 L 349.44385179217 115.368 L 352.1113621112 123.464 L 353.44511727071 123.464 L 354.77887243022 119.416 L 356.11262758973 111.32 L 357.44638274925 115.368 L 358.78013790876 107.272 L 361.44764822778 103.224 L 362.78140338729 95.128 L 364.11515854681 87.032 L 365.44891370632 91.08 L 366.78266886583 93.104 L 369.45017918486 99.176 L 370.78393434437 99.176 L 372.11768950388 91.08 L 373.45144466339 87.032 L 374.7851998229 101.2 L 376.11895498242 101.2 L 377.45271014193 107.272 L 378.78646530144 109.296 L 380.12022046095 107.272 L 381.45397562046 103.224 L 382.78773077998 101.2 L 384.12148593949 89.056 L 388.12275141803 91.08 L 389.45650657754 89.056 L 390.79026173705 78.936 L 392.12401689656 91.08 L 396.1252823751 117.392 L 397.45903753461 115.368 L 398.79279269412 119.416 L 400.12654785363 127.512 L 401.46030301315 123.464 L 404.12781333217 133.584 L 406.79532365119 143.704 L 410.79658912973 123.464 L 412.13034428924 123.464 L 413.46409944876 125.488 L 414.79785460827 143.704 L 416.13160976778 149.776 L 417.46536492729 141.68 L 420.13287524632 137.632 L 421.46663040583 135.608 L 422.80038556534 143.704 L 425.46789588436 149.776 L 426.80165104388 145.728 L 429.4691613629 137.632 L 432.13667168192 143.704 L 433.47042684144 141.68 L 434.80418200095 137.632 L 436.13793716046 141.68 L 437.47169231997 139.656 L 438.80544747949 157.872 L 440.139202639 157.872 L 441.47295779851 147.752 L 442.80671295802 143.704 L 444.14046811753 153.824 L 445.47422327705 149.776 L 446.80797843656 149.776 L 448.14173359607 151.8 L 449.47548875558 155.848 L 450.80924391509 145.728 L 452.14299907461 155.848 L 453.47675423412 165.968 L 454.81050939363 163.944 L 456.14426455314 165.968 L 457.47801971265 176.088 L 458.81177487217 178.112 L 460.14553003168 180.136 L 461.47928519119 182.16 L 462.8130403507 178.112 L 464.14679551022 188.232 L 465.48055066973 182.16 L 466.81430582924 170.016 L 468.14806098875 165.968 L 469.48181614826 165.968 L 470.81557130778 147.752 L 472.14932646729 143.704 L 474.81683678631 165.968 L 476.15059194582 161.92 L 477.48434710534 170.016 L 478.81810226485 165.968 L 480.15185742436 170.016 L 481.48561258387 170.016 L 484.1531229029 161.92 L 485.48687806241 155.848 L 486.82063322192 149.776 L 488.15438838143 157.872 L 489.48814354095 161.92 L 490.82189870046 165.968 L 492.15565385997 157.872 L 493.48940901948 167.992 L 494.82316417899 163.944 L 496.15691933851 172.04 L 497.49067449802 174.064 L 498.82442965753 172.04 L 500.15818481704 165.968 L 501.49193997655 174.064 L 502.82569513607 161.92 L 504.15945029558 153.824 L 505.49320545509 141.68 L 512.16198125265 145.728 L 513.49573641216 153.824 L 516.16324673119 157.872 L 517.4970018907 167.992 L 520.16451220972 155.848 L 526.83328800728 176.088 L 528.1670431668 163.944 L 529.50079832631 170.016 L 532.16830864533 184.184 L 533.50206380485 184.184" class="highcharts-graph" data-z-index="1" stroke="rgb(192, 57, 43)" stroke-opacity=" 0.5" stroke-width="2" stroke-linejoin="round" stroke-linecap="round" filter="none" aria-hidden="false" role="region" tabindex="-1" style="outline: none;" aria-label="Ask 3, line 7 of 7 with 329 data points."></path></g><g class="highcharts-markers highcharts-series-6 highcharts-line-series" data-z-index="0.1" opacity="1" transform="translate(57,42) scale(1 1)" clip-path="none" aria-hidden="true"></g></g><text x="300" text-anchor="middle" class="highcharts-title" data-z-index="4" style="font-size: 1em; color: rgb(240, 240, 243); font-weight: bold; fill: rgb(240, 240, 243);" y="22" aria-hidden="true">TOMATOES - Price</text><text x="300" text-anchor="middle" class="highcharts-subtitle" data-z-index="4" style="color: rgb(240, 240, 243); font-size: 0.8em; fill: rgb(240, 240, 243);" y="41" aria-hidden="true"></text><text x="10" text-anchor="start" class="highcharts-caption" data-z-index="4" style="color: rgb(102, 102, 102); font-size: 0.8em; fill: rgb(102, 102, 102);" y="397" aria-hidden="true"></text><g class="highcharts-legend highcharts-no-tooltip" data-z-index="7" transform="translate(41,355)" aria-hidden="true"><rect fill="transparent" class="highcharts-legend-box" rx="0" ry="0" stroke="#999999" stroke-width="0" filter="none" x="0" y="0" width="518" height="30"></rect><g data-z-index="1"><g><g class="highcharts-legend-item highcharts-line-series highcharts-color-undefined highcharts-series-0" data-z-index="1" transform="translate(8,3)"><path fill="none" class="highcharts-graph" stroke-width="2" stroke-linecap="round" d="M 1 13 L 15 13" stroke="rgb(39, 174, 96)" stroke-opacity=" 0.5"></path><text x="21" style="color: rgb(240, 240, 243); cursor: pointer; font-size: 0.8em; text-decoration: none; fill: rgb(240, 240, 243);" text-anchor="start" data-z-index="2" y="17">Bid 3</text></g><g class="highcharts-legend-item highcharts-line-series highcharts-color-undefined highcharts-series-1" data-z-index="1" transform="translate(78.14999961853027,3)"><path fill="none" class="highcharts-graph" stroke-width="2" stroke-linecap="round" d="M 1 13 L 15 13" stroke="rgb(39, 174, 96)" stroke-opacity=" 0.75"></path><text x="21" y="17" style="color: rgb(240, 240, 243); cursor: pointer; font-size: 0.8em; text-decoration: none; fill: rgb(240, 240, 243);" text-anchor="start" data-z-index="2">Bid 2</text></g><g class="highcharts-legend-item highcharts-line-series highcharts-color-undefined highcharts-series-2" data-z-index="1" transform="translate(148.29999923706055,3)"><path fill="none" class="highcharts-graph" stroke-width="2" stroke-linecap="round" d="M 1 13 L 15 13" stroke="rgb(39, 174, 96)" stroke-opacity=" 1"></path><text x="21" y="17" style="color: rgb(240, 240, 243); cursor: pointer; font-size: 0.8em; text-decoration: none; fill: rgb(240, 240, 243);" text-anchor="start" data-z-index="2">Bid 1</text></g><g class="highcharts-legend-item highcharts-line-series highcharts-color-undefined highcharts-series-3" data-z-index="1" transform="translate(218.44999885559082,3)"><path fill="none" class="highcharts-graph" stroke-width="2" stroke-dasharray="8,6" d="M 0 13 L 16 13" stroke="gray"></path><text x="21" y="17" style="color: rgb(240, 240, 243); cursor: pointer; font-size: 0.8em; text-decoration: none; fill: rgb(240, 240, 243);" text-anchor="start" data-z-index="2">Mid price</text></g><g class="highcharts-legend-item highcharts-line-series highcharts-color-undefined highcharts-series-4" data-z-index="1" transform="translate(311.4499988555908,3)"><path fill="none" class="highcharts-graph" stroke-width="2" stroke-linecap="round" d="M 1 13 L 15 13" stroke="rgb(192, 57, 43)" stroke-opacity=" 1"></path><text x="21" y="17" style="color: rgb(240, 240, 243); cursor: pointer; font-size: 0.8em; text-decoration: none; fill: rgb(240, 240, 243);" text-anchor="start" data-z-index="2">Ask 1</text></g><g class="highcharts-legend-item highcharts-line-series highcharts-color-undefined highcharts-series-5" data-z-index="1" transform="translate(384.3833312988281,3)"><path fill="none" class="highcharts-graph" stroke-width="2" stroke-linecap="round" d="M 1 13 L 15 13" stroke="rgb(192, 57, 43)" stroke-opacity=" 0.75"></path><text x="21" y="17" style="color: rgb(240, 240, 243); cursor: pointer; font-size: 0.8em; text-decoration: none; fill: rgb(240, 240, 243);" text-anchor="start" data-z-index="2">Ask 2</text></g><g class="highcharts-legend-item highcharts-line-series highcharts-color-undefined highcharts-series-6" data-z-index="1" transform="translate(457.31666374206543,3)"><path fill="none" class="highcharts-graph" stroke-width="2" stroke-linecap="round" d="M 1 13 L 15 13" stroke="rgb(192, 57, 43)" stroke-opacity=" 0.5"></path><text x="21" y="17" style="color: rgb(240, 240, 243); cursor: pointer; font-size: 0.8em; text-decoration: none; fill: rgb(240, 240, 243);" text-anchor="start" data-z-index="2">Ask 3</text></g></g></g></g><g class="highcharts-axis-labels highcharts-xaxis-labels" data-z-index="7" aria-hidden="true"><text x="57" style="color: rgb(240, 240, 243); cursor: default; font-size: 0.8em; fill: rgb(240, 240, 243);" text-anchor="middle" transform="translate(0,0)" y="322" opacity="1">0</text><text x="139.69281988975" style="color: rgb(240, 240, 243); cursor: default; font-size: 0.8em; fill: rgb(240, 240, 243);" text-anchor="middle" transform="translate(0,0)" y="322" opacity="1">300,000</text><text x="219.71812946048" style="color: rgb(240, 240, 243); cursor: default; font-size: 0.8em; fill: rgb(240, 240, 243);" text-anchor="middle" transform="translate(0,0)" y="322" opacity="1">600,000</text><text x="299.7434390312" style="color: rgb(240, 240, 243); cursor: default; font-size: 0.8em; fill: rgb(240, 240, 243);" text-anchor="middle" transform="translate(0,0)" y="322" opacity="1">900,000</text><text x="379.76874860193" style="color: rgb(240, 240, 243); cursor: default; font-size: 0.8em; fill: rgb(240, 240, 243);" text-anchor="middle" transform="translate(0,0)" y="322" opacity="1">1,200,000</text><text x="459.79405817266" style="color: rgb(240, 240, 243); cursor: default; font-size: 0.8em; fill: rgb(240, 240, 243);" text-anchor="middle" transform="translate(0,0)" y="322" opacity="1">1,500,000</text><text x="539.81936774339" style="color: rgb(240, 240, 243); cursor: default; font-size: 0.8em; fill: rgb(240, 240, 243);" text-anchor="middle" transform="translate(0,0)" y="322" opacity="1">1,800,000</text></g><g class="highcharts-axis-labels highcharts-yaxis-labels" data-z-index="7" aria-hidden="true"><text x="42" style="color: rgb(240, 240, 243); cursor: default; font-size: 0.8em; fill: rgb(240, 240, 243);" text-anchor="end" transform="translate(0,0)" y="293" opacity="1">4,925</text><text x="42" style="color: rgb(240, 240, 243); cursor: default; font-size: 0.8em; fill: rgb(240, 240, 243);" text-anchor="end" transform="translate(0,0)" y="242" opacity="1">4,950</text><text x="42" style="color: rgb(240, 240, 243); cursor: default; font-size: 0.8em; fill: rgb(240, 240, 243);" text-anchor="end" transform="translate(0,0)" y="192" opacity="1">4,975</text><text x="42" style="color: rgb(240, 240, 243); cursor: default; font-size: 0.8em; fill: rgb(240, 240, 243);" text-anchor="end" transform="translate(0,0)" y="141" opacity="1">5,000</text><text x="42" style="color: rgb(240, 240, 243); cursor: default; font-size: 0.8em; fill: rgb(240, 240, 243);" text-anchor="end" transform="translate(0,0)" y="91" opacity="1">5,025</text><text x="0" style="color: rgb(240, 240, 243); cursor: default; font-size: 0.8em; fill: rgb(240, 240, 243);" text-anchor="end" transform="translate(0,0)" visibility="hidden">5,050</text></g><text x="590" class="highcharts-credits" text-anchor="end" data-z-index="8" style="cursor: pointer; color: rgb(240, 240, 243); font-size: 0.6em; fill: rgb(240, 240, 243);" y="395" aria-label="Chart credits: Highcharts.com" aria-hidden="false">Highcharts.com</text></svg>