<svg xmlns:xlink="http://www.w3.org/1999/xlink" version="1.1" class="highcharts-root" style="font-family: Helvetica, Arial, sans-serif; font-size: 1rem;" xmlns="http://www.w3.org/2000/svg" width="600" height="400" viewBox="0 0 600 400" aria-label="Interactive chart" aria-hidden="false"><desc aria-hidden="true">Created with Highcharts 11.4.8</desc><defs aria-hidden="true"><filter id="highcharts-drop-shadow-26"><feDropShadow dx="1" dy="1" flood-color="#000000" flood-opacity="0.75" stdDeviation="2.5"></feDropShadow></filter><clipPath id="highcharts-2gu91ep-685089-"><rect x="0" y="0" width="551" height="253" fill="none"></rect></clipPath></defs><rect fill="#1f1f20" class="highcharts-background" filter="none" x="0" y="0" width="600" height="400" rx="0" ry="0" aria-hidden="true"></rect><rect fill="none" class="highcharts-plot-background" x="39" y="42" width="551" height="253" filter="none" aria-hidden="true"></rect><g class="highcharts-grid highcharts-xaxis-grid" data-z-index="1" aria-hidden="true"><path fill="none" stroke="#707073" stroke-width="0" stroke-dasharray="none" data-z-index="1" class="highcharts-grid-line" d="M 39.5 42 L 39.5 295" opacity="1"></path><path fill="none" stroke="#707073" stroke-width="0" stroke-dasharray="none" data-z-index="1" class="highcharts-grid-line" d="M 150.5 42 L 150.5 295" opacity="1"></path><path fill="none" stroke="#707073" stroke-width="0" stroke-dasharray="none" data-z-index="1" class="highcharts-grid-line" d="M 260.5 42 L 260.5 295" opacity="1"></path><path fill="none" stroke="#707073" stroke-width="0" stroke-dasharray="none" data-z-index="1" class="highcharts-grid-line" d="M 370.5 42 L 370.5 295" opacity="1"></path><path fill="none" stroke="#707073" stroke-width="0" stroke-dasharray="none" data-z-index="1" class="highcharts-grid-line" d="M 480.5 42 L 480.5 295" opacity="1"></path></g><g class="highcharts-grid highcharts-yaxis-grid" data-z-index="1" aria-hidden="true"><path fill="none" stroke="#707073" stroke-width="1" stroke-dasharray="none" data-z-index="1" class="highcharts-grid-line" d="M 39 295.5 L 590 295.5" opacity="1"></path><path fill="none" stroke="#707073" stroke-width="1" stroke-dasharray="none" data-z-index="1" class="highcharts-grid-line" d="M 39 259.5 L 590 259.5" opacity="1"></path><path fill="none" stroke="#707073" stroke-width="1" stroke-dasharray="none" data-z-index="1" class="highcharts-grid-line" d="M 39 223.5 L 590 223.5" opacity="1"></path><path fill="none" stroke="#707073" stroke-width="1" stroke-dasharray="none" data-z-index="1" class="highcharts-grid-line" d="M 39 187.5 L 590 187.5" opacity="1"></path><path fill="none" stroke="#707073" stroke-width="1" stroke-dasharray="none" data-z-index="1" class="highcharts-grid-line" d="M 39 150.5 L 590 150.5" opacity="1"></path><path fill="none" stroke="#707073" stroke-width="1" stroke-dasharray="none" data-z-index="1" class="highcharts-grid-line" d="M 39 114.5 L 590 114.5" opacity="1"></path><path fill="none" stroke="#707073" stroke-width="1" stroke-dasharray="none" data-z-index="1" class="highcharts-grid-line" d="M 39 78.5 L 590 78.5" opacity="1"></path><path fill="none" stroke="#707073" stroke-width="1" stroke-dasharray="none" data-z-index="1" class="highcharts-grid-line" d="M 39 42.5 L 590 42.5" opacity="1"></path></g><rect fill="none" class="highcharts-plot-border" data-z-index="1" stroke="#606063" stroke-width="0" x="39" y="42" width="551" height="253" aria-hidden="true"></rect><g class="highcharts-axis highcharts-xaxis" data-z-index="2" aria-hidden="true"><path fill="none" class="highcharts-tick" stroke="#707073" stroke-width="1" d="M 39.5 295 L 39.5 305" opacity="1"></path><path fill="none" class="highcharts-tick" stroke="#707073" stroke-width="1" d="M 150.5 295 L 150.5 305" opacity="1"></path><path fill="none" class="highcharts-tick" stroke="#707073" stroke-width="1" d="M 260.5 295 L 260.5 305" opacity="1"></path><path fill="none" class="highcharts-tick" stroke="#707073" stroke-width="1" d="M 370.5 295 L 370.5 305" opacity="1"></path><path fill="none" class="highcharts-tick" stroke="#707073" stroke-width="1" d="M 480.5 295 L 480.5 305" opacity="1"></path><text x="314.5" data-z-index="7" text-anchor="middle" transform="translate(0,0)" class="highcharts-axis-title" style="color: rgb(240, 240, 243); font-size: 0.8em; fill: rgb(240, 240, 243);" y="341">Timestamp</text><path fill="none" class="highcharts-axis-line" stroke="#707073" stroke-width="1" data-z-index="7" d="M 39 295.5 L 590 295.5"></path></g><g class="highcharts-axis highcharts-yaxis" data-z-index="2" aria-hidden="true"><path fill="none" class="highcharts-axis-line" stroke="#707073" stroke-width="0" data-z-index="7" d="M 39 42 L 39 295"></path></g><g class="highcharts-series-group" data-z-index="3" filter="none" aria-hidden="false"><g class="highcharts-series highcharts-series-0 highcharts-line-series" data-z-index="0.1" opacity="1" transform="translate(39,42) scale(1 1)" clip-path="url(#highcharts-2gu91ep-685089-)" aria-hidden="true"></g><g class="highcharts-markers highcharts-series-0 highcharts-line-series" data-z-index="0.1" opacity="1" transform="translate(39,42) scale(1 1)" clip-path="none" aria-hidden="true"></g><g class="highcharts-series highcharts-series-1 highcharts-line-series" data-z-index="0.1" opacity="1" transform="translate(39,42) scale(1 1)" clip-path="url(#highcharts-2gu91ep-685089-)" aria-hidden="false"><path fill="none" d="M 0.91528239202658 126.5 L 1.8305647840532 144.57142857143 L 8.2375415282392 144.57142857143 L 9.1528239202658 144.57142857143 L 11.898671096346 126.5 L 13.729235880399 144.57142857143 L 14.644518272425 126.5 L 15.559800664452 126.5 L 16.475083056478 108.42857142857 L 18.305647840532 144.57142857143 L 21.051495016611 144.57142857143 L 22.882059800664 162.64285714286 L 23.797342192691 144.57142857143 L 24.712624584718 126.5 L 25.627906976744 126.5 L 27.458471760797 144.57142857143 L 32.950166112957 126.5 L 36.611295681063 144.57142857143 L 37.52657807309 144.57142857143 L 38.441860465116 144.57142857143 L 40.272425249169 144.57142857143 L 41.187707641196 162.64285714286 L 43.018272425249 144.57142857143 L 43.933554817276 144.57142857143 L 44.848837209302 144.57142857143 L 45.764119601329 144.57142857143 L 46.679401993355 126.5 L 47.594684385382 126.5 L 51.255813953488 126.5 L 55.832225913621 126.5 L 56.747508305648 108.42857142857 L 58.578073089701 108.42857142857 L 59.493355481728 108.42857142857 L 60.408637873754 108.42857142857 L 62.239202657807 90.357142857143 L 63.154485049834 108.42857142857 L 64.06976744186 108.42857142857 L 64.985049833887 108.42857142857 L 65.900332225914 72.285714285714 L 67.730897009967 54.214285714286 L 68.646179401993 72.285714285714 L 69.56146179402 72.285714285714 L 70.476744186047 72.285714285714 L 71.392026578073 90.357142857143 L 73.222591362126 108.42857142857 L 75.053156146179 108.42857142857 L 75.968438538206 90.357142857143 L 76.883720930233 90.357142857143 L 79.629568106312 126.5 L 80.544850498339 126.5 L 84.205980066445 144.57142857143 L 85.121262458472 144.57142857143 L 86.036544850498 162.64285714286 L 86.951827242525 162.64285714286 L 91.528239202658 144.57142857143 L 92.443521594684 126.5 L 96.104651162791 144.57142857143 L 97.935215946844 108.42857142857 L 98.85049833887 126.5 L 99.765780730897 126.5 L 103.426910299 144.57142857143 L 104.34219269103 144.57142857143 L 108.91860465116 144.57142857143 L 110.74916943522 126.5 L 112.57973421927 144.57142857143 L 114.41029900332 162.64285714286 L 115.32558139535 162.64285714286 L 116.24086378738 162.64285714286 L 117.1561461794 162.64285714286 L 121.73255813953 144.57142857143 L 122.64784053156 126.5 L 124.47840531561 144.57142857143 L 126.30897009967 144.57142857143 L 128.13953488372 126.5 L 129.05481727575 126.5 L 130.8853820598 126.5 L 131.80066445183 126.5 L 134.54651162791 90.357142857143 L 135.46179401993 90.357142857143 L 136.37707641196 90.357142857143 L 137.29235880399 90.357142857143 L 138.20764119601 72.285714285714 L 139.12292358804 72.285714285714 L 140.03820598007 90.357142857143 L 140.95348837209 108.42857142857 L 141.86877076412 108.42857142857 L 144.6146179402 126.5 L 145.52990033223 126.5 L 147.36046511628 126.5 L 148.27574750831 126.5 L 150.10631229236 126.5 L 153.76744186047 108.42857142857 L 154.68272425249 108.42857142857 L 156.51328903654 108.42857142857 L 158.3438538206 126.5 L 159.25913621262 126.5 L 160.17441860465 126.5 L 161.08970099668 90.357142857143 L 162.0049833887 108.42857142857 L 162.92026578073 126.5 L 163.83554817276 126.5 L 164.75083056478 108.42857142857 L 165.66611295681 108.42857142857 L 167.49667774086 144.57142857143 L 168.41196013289 126.5 L 169.32724252492 126.5 L 170.24252491694 108.42857142857 L 172.073089701 108.42857142857 L 172.98837209302 108.42857142857 L 173.90365448505 126.5 L 175.7342192691 144.57142857143 L 176.64950166113 162.64285714286 L 177.56478405316 144.57142857143 L 178.48006644518 144.57142857143 L 179.39534883721 162.64285714286 L 186.71760797342 144.57142857143 L 187.63289036545 162.64285714286 L 188.54817275748 162.64285714286 L 189.4634551495 144.57142857143 L 192.20930232558 162.64285714286 L 193.12458471761 144.57142857143 L 194.03986710963 144.57142857143 L 195.87043189369 144.57142857143 L 196.78571428571 144.57142857143 L 197.70099667774 144.57142857143 L 199.53156146179 162.64285714286 L 201.36212624585 144.57142857143 L 202.27740863787 144.57142857143 L 203.1926910299 144.57142857143 L 204.10797342193 126.5 L 205.93853820598 126.5 L 208.68438538206 108.42857142857 L 209.59966777409 126.5 L 211.43023255814 108.42857142857 L 212.34551495017 126.5 L 213.26079734219 144.57142857143 L 216.9219269103 144.57142857143 L 217.83720930233 144.57142857143 L 218.75249169435 162.64285714286 L 219.66777408638 162.64285714286 L 220.58305647841 162.64285714286 L 223.32890365449 126.5 L 226.07475083056 144.57142857143 L 226.99003322259 144.57142857143 L 227.90531561462 144.57142857143 L 228.82059800664 126.5 L 229.73588039867 126.5 L 230.6511627907 108.42857142857 L 231.56644518272 108.42857142857 L 235.22757475083 126.5 L 236.14285714286 126.5 L 238.88870431894 108.42857142857 L 239.80398671096 108.42857142857 L 240.71926910299 108.42857142857 L 242.54983388704 144.57142857143 L 243.46511627907 144.57142857143 L 245.29568106312 162.64285714286 L 246.21096345515 144.57142857143 L 247.12624584718 144.57142857143 L 249.87209302326 144.57142857143 L 251.70265780731 144.57142857143 L 252.61794019934 144.57142857143 L 253.53322259136 144.57142857143 L 254.44850498339 144.57142857143 L 261.7707641196 180.71428571429 L 262.68604651163 180.71428571429 L 263.60132890365 180.71428571429 L 264.51661129568 180.71428571429 L 268.17774086379 162.64285714286 L 269.09302325581 144.57142857143 L 270.00830564784 144.57142857143 L 271.83887043189 144.57142857143 L 272.75415282392 162.64285714286 L 279.16112956811 144.57142857143 L 280.07641196013 144.57142857143 L 280.99169435216 144.57142857143 L 284.65282392027 180.71428571429 L 285.56810631229 180.71428571429 L 288.31395348837 180.71428571429 L 289.2292358804 180.71428571429 L 290.14451827243 180.71428571429 L 291.05980066445 180.71428571429 L 295.63621262458 198.78571428571 L 298.38205980066 180.71428571429 L 302.9584717608 216.85714285714 L 306.6196013289 198.78571428571 L 307.53488372093 198.78571428571 L 314.85714285714 126.5 L 315.77242524917 126.5 L 317.60299003322 144.57142857143 L 318.51827242525 108.42857142857 L 319.43355481728 108.42857142857 L 321.26411960133 126.5 L 322.17940199336 144.57142857143 L 324.00996677741 126.5 L 325.84053156146 144.57142857143 L 326.75581395349 144.57142857143 L 328.58637873754 162.64285714286 L 330.41694352159 162.64285714286 L 331.33222591362 180.71428571429 L 332.24750830565 180.71428571429 L 337.73920265781 162.64285714286 L 339.56976744186 144.57142857143 L 340.48504983389 144.57142857143 L 341.40033222591 126.5 L 342.31561461794 162.64285714286 L 345.97674418605 162.64285714286 L 346.89202657807 162.64285714286 L 349.63787375415 162.64285714286 L 350.55315614618 162.64285714286 L 354.21428571429 126.5 L 356.96013289037 180.71428571429 L 357.87541528239 180.71428571429 L 358.79069767442 162.64285714286 L 361.5365448505 144.57142857143 L 362.45182724252 144.57142857143 L 363.36710963455 162.64285714286 L 367.02823920266 144.57142857143 L 367.94352159468 144.57142857143 L 368.85880398671 144.57142857143 L 370.68936877076 144.57142857143 L 371.60465116279 144.57142857143 L 375.2657807309 162.64285714286 L 376.18106312292 162.64285714286 L 377.09634551495 162.64285714286 L 378.01162790698 180.71428571429 L 378.926910299 180.71428571429 L 379.84219269103 162.64285714286 L 380.75747508306 162.64285714286 L 382.58803986711 144.57142857143 L 386.24916943522 162.64285714286 L 387.16445182724 162.64285714286 L 388.07973421927 162.64285714286 L 395.40199335548 144.57142857143 L 396.31727574751 144.57142857143 L 397.23255813953 144.57142857143 L 399.06312292359 144.57142857143 L 399.97840531561 144.57142857143 L 401.80897009967 162.64285714286 L 404.55481727575 162.64285714286 L 405.47009966777 144.57142857143 L 408.21594684385 162.64285714286 L 409.13122923588 162.64285714286 L 414.62292358804 144.57142857143 L 415.53820598007 126.5 L 417.36877076412 126.5 L 419.19933554817 144.57142857143 L 421.02990033223 144.57142857143 L 422.86046511628 144.57142857143 L 424.69102990033 144.57142857143 L 425.60631229236 144.57142857143 L 426.52159468439 126.5 L 427.43687707641 144.57142857143 L 429.26744186047 144.57142857143 L 430.18272425249 144.57142857143 L 432.92857142857 162.64285714286 L 433.8438538206 162.64285714286 L 436.58970099668 180.71428571429 L 437.5049833887 180.71428571429 L 440.25083056478 198.78571428571 L 441.16611295681 198.78571428571 L 443.91196013289 198.78571428571 L 444.82724252492 198.78571428571 L 445.74252491694 198.78571428571 L 446.65780730897 198.78571428571 L 448.48837209302 198.78571428571 L 450.31893687708 198.78571428571 L 451.2342192691 198.78571428571 L 452.14950166113 198.78571428571 L 453.06478405316 198.78571428571 L 456.72591362126 198.78571428571 L 460.38704318937 198.78571428571 L 467.70930232558 198.78571428571 L 468.62458471761 198.78571428571 L 470.45514950166 198.78571428571 L 473.20099667774 216.85714285714 L 486.93023255814 198.78571428571 L 487.84551495017 180.71428571429 L 488.76079734219 180.71428571429 L 489.67607973422 180.71428571429 L 490.59136212625 162.64285714286 L 494.25249169435 162.64285714286 L 495.16777408638 162.64285714286 L 497.91362126246 180.71428571429 L 498.82890365449 198.78571428571 L 507.06644518272 216.85714285714 L 507.98172757475 216.85714285714 L 514.38870431894 198.78571428571 L 516.21926910299 198.78571428571 L 525.37209302326 198.78571428571 L 526.28737541528 198.78571428571 L 529.03322259136 198.78571428571 L 531.77906976744 162.64285714286 L 532.69435215947 162.64285714286 L 534.52491694352 162.64285714286 L 535.44019933555 162.64285714286 L 536.35548172757 162.64285714286 L 539.10132890365 180.71428571429 L 540.01661129568 180.71428571429 L 541.84717607973 180.71428571429 L 542.76245847176 180.71428571429 L 543.67774086379 180.71428571429 L 546.42358803987 180.71428571429 L 547.33887043189 180.71428571429 L 548.25415282392 162.64285714286 L 549.16943521595 162.64285714286 L 550.08471760797 144.57142857143" class="highcharts-graph" data-z-index="1" stroke="rgb(39, 174, 96)" stroke-opacity=" 0.75" stroke-width="2" stroke-linejoin="round" stroke-linecap="round" filter="none" aria-hidden="false" role="region" tabindex="-1" style="outline: none;" aria-label="Bid 2, line 2 of 7 with 307 data points."></path></g><g class="highcharts-markers highcharts-series-1 highcharts-line-series" data-z-index="0.1" opacity="1" transform="translate(39,42) scale(1 1)" clip-path="none" aria-hidden="true"></g><g class="highcharts-series highcharts-series-2 highcharts-line-series" data-z-index="0.1" opacity="1" transform="translate(39,42) scale(1 1)" clip-path="url(#highcharts-2gu91ep-685089-)" aria-hidden="false"><path fill="none" d="M 0 108.42857142857 L 1.8305647840532 126.5 L 3.6611295681063 144.57142857143 L 4.5764119601329 126.5 L 5.4916943521595 126.5 L 6.406976744186 126.5 L 7.3222591362126 144.57142857143 L 8.2375415282392 144.57142857143 L 9.1528239202658 144.57142857143 L 10.068106312292 126.5 L 10.983388704319 126.5 L 11.898671096346 126.5 L 12.813953488372 126.5 L 13.729235880399 126.5 L 14.644518272425 126.5 L 15.559800664452 126.5 L 16.475083056478 108.42857142857 L 17.390365448505 126.5 L 18.305647840532 126.5 L 19.220930232558 126.5 L 20.136212624585 126.5 L 21.051495016611 126.5 L 21.966777408638 144.57142857143 L 22.882059800664 144.57142857143 L 23.797342192691 144.57142857143 L 24.712624584718 126.5 L 25.627906976744 126.5 L 26.543189368771 126.5 L 27.458471760797 144.57142857143 L 28.373754152824 144.57142857143 L 29.28903654485 144.57142857143 L 30.204318936877 126.5 L 31.119601328904 108.42857142857 L 32.03488372093 108.42857142857 L 32.950166112957 108.42857142857 L 33.865448504983 126.5 L 34.78073089701 126.5 L 35.696013289037 126.5 L 36.611295681063 126.5 L 37.52657807309 144.57142857143 L 38.441860465116 144.57142857143 L 39.357142857143 144.57142857143 L 40.272425249169 144.57142857143 L 41.187707641196 162.64285714286 L 42.102990033223 144.57142857143 L 43.018272425249 144.57142857143 L 43.933554817276 126.5 L 44.848837209302 126.5 L 45.764119601329 126.5 L 46.679401993355 108.42857142857 L 47.594684385382 108.42857142857 L 48.509966777409 126.5 L 49.425249169435 126.5 L 50.340531561462 108.42857142857 L 51.255813953488 108.42857142857 L 52.171096345515 108.42857142857 L 53.086378737542 126.5 L 54.001661129568 126.5 L 54.916943521595 108.42857142857 L 55.832225913621 126.5 L 56.747508305648 108.42857142857 L 57.662790697674 108.42857142857 L 58.578073089701 108.42857142857 L 59.493355481728 90.357142857143 L 60.408637873754 90.357142857143 L 61.323920265781 90.357142857143 L 62.239202657807 90.357142857143 L 63.154485049834 90.357142857143 L 64.06976744186 108.42857142857 L 64.985049833887 108.42857142857 L 65.900332225914 72.285714285714 L 66.81561461794 72.285714285714 L 67.730897009967 54.214285714286 L 68.646179401993 54.214285714286 L 69.56146179402 54.214285714286 L 70.476744186047 54.214285714286 L 71.392026578073 72.285714285714 L 72.3073089701 72.285714285714 L 73.222591362126 90.357142857143 L 74.137873754153 90.357142857143 L 75.053156146179 90.357142857143 L 75.968438538206 90.357142857143 L 76.883720930233 72.285714285714 L 77.799003322259 90.357142857143 L 78.714285714286 90.357142857143 L 79.629568106312 90.357142857143 L 80.544850498339 126.5 L 81.460132890365 126.5 L 82.375415282392 126.5 L 83.290697674419 108.42857142857 L 84.205980066445 126.5 L 85.121262458472 126.5 L 86.036544850498 144.57142857143 L 86.951827242525 144.57142857143 L 87.867109634551 144.57142857143 L 88.782392026578 144.57142857143 L 89.697674418605 126.5 L 90.612956810631 126.5 L 91.528239202658 126.5 L 92.443521594684 126.5 L 93.358803986711 108.42857142857 L 94.274086378738 126.5 L 95.189368770764 144.57142857143 L 96.104651162791 144.57142857143 L 97.019933554817 126.5 L 97.935215946844 108.42857142857 L 98.85049833887 108.42857142857 L 99.765780730897 108.42857142857 L 100.68106312292 126.5 L 101.59634551495 144.57142857143 L 102.51162790698 126.5 L 103.426910299 126.5 L 104.34219269103 144.57142857143 L 105.25747508306 126.5 L 106.17275747508 108.42857142857 L 107.08803986711 126.5 L 108.00332225914 126.5 L 108.91860465116 126.5 L 109.83388704319 126.5 L 110.74916943522 126.5 L 111.66445182724 126.5 L 112.57973421927 144.57142857143 L 113.4950166113 144.57142857143 L 114.41029900332 144.57142857143 L 115.32558139535 144.57142857143 L 116.24086378738 162.64285714286 L 117.1561461794 144.57142857143 L 118.07142857143 144.57142857143 L 118.98671096346 144.57142857143 L 119.90199335548 144.57142857143 L 120.81727574751 144.57142857143 L 121.73255813953 144.57142857143 L 122.64784053156 126.5 L 123.56312292359 126.5 L 124.47840531561 126.5 L 125.39368770764 144.57142857143 L 126.30897009967 126.5 L 127.22425249169 126.5 L 128.13953488372 126.5 L 129.05481727575 126.5 L 129.97009966777 126.5 L 130.8853820598 108.42857142857 L 131.80066445183 126.5 L 132.71594684385 108.42857142857 L 133.63122923588 108.42857142857 L 134.54651162791 90.357142857143 L 135.46179401993 72.285714285714 L 136.37707641196 90.357142857143 L 137.29235880399 90.357142857143 L 138.20764119601 90.357142857143 L 139.12292358804 54.214285714286 L 140.03820598007 72.285714285714 L 140.95348837209 90.357142857143 L 141.86877076412 108.42857142857 L 142.78405315615 90.357142857143 L 143.69933554817 90.357142857143 L 144.6146179402 108.42857142857 L 145.52990033223 126.5 L 146.44518272425 126.5 L 147.36046511628 126.5 L 148.27574750831 108.42857142857 L 149.19102990033 108.42857142857 L 150.10631229236 126.5 L 151.02159468439 108.42857142857 L 151.93687707641 108.42857142857 L 152.85215946844 126.5 L 153.76744186047 90.357142857143 L 154.68272425249 108.42857142857 L 155.59800664452 90.357142857143 L 156.51328903654 108.42857142857 L 157.42857142857 108.42857142857 L 158.3438538206 108.42857142857 L 159.25913621262 108.42857142857 L 160.17441860465 126.5 L 161.08970099668 72.285714285714 L 162.0049833887 108.42857142857 L 162.92026578073 108.42857142857 L 163.83554817276 108.42857142857 L 164.75083056478 108.42857142857 L 165.66611295681 108.42857142857 L 166.58139534884 108.42857142857 L 167.49667774086 144.57142857143 L 168.41196013289 126.5 L 169.32724252492 108.42857142857 L 170.24252491694 108.42857142857 L 171.15780730897 72.285714285714 L 172.073089701 72.285714285714 L 172.98837209302 108.42857142857 L 173.90365448505 108.42857142857 L 174.81893687708 126.5 L 175.7342192691 144.57142857143 L 176.64950166113 144.57142857143 L 177.56478405316 144.57142857143 L 178.48006644518 126.5 L 179.39534883721 144.57142857143 L 180.31063122924 144.57142857143 L 181.22591362126 126.5 L 182.14119601329 126.5 L 183.05647840532 126.5 L 183.97176079734 126.5 L 184.88704318937 126.5 L 185.8023255814 108.42857142857 L 186.71760797342 126.5 L 187.63289036545 144.57142857143 L 188.54817275748 162.64285714286 L 189.4634551495 144.57142857143 L 190.37873754153 144.57142857143 L 191.29401993355 144.57142857143 L 192.20930232558 144.57142857143 L 193.12458471761 126.5 L 194.03986710963 126.5 L 194.95514950166 126.5 L 195.87043189369 126.5 L 196.78571428571 144.57142857143 L 197.70099667774 126.5 L 198.61627906977 144.57142857143 L 199.53156146179 144.57142857143 L 200.44684385382 144.57142857143 L 201.36212624585 144.57142857143 L 202.27740863787 144.57142857143 L 203.1926910299 126.5 L 204.10797342193 126.5 L 205.02325581395 90.357142857143 L 205.93853820598 108.42857142857 L 206.85382059801 108.42857142857 L 207.76910299003 108.42857142857 L 208.68438538206 108.42857142857 L 209.59966777409 108.42857142857 L 210.51495016611 108.42857142857 L 211.43023255814 108.42857142857 L 212.34551495017 108.42857142857 L 213.26079734219 126.5 L 214.17607973422 126.5 L 215.09136212625 126.5 L 216.00664451827 126.5 L 216.9219269103 126.5 L 217.83720930233 144.57142857143 L 218.75249169435 144.57142857143 L 219.66777408638 144.57142857143 L 220.58305647841 162.64285714286 L 221.49833887043 144.57142857143 L 222.41362126246 144.57142857143 L 223.32890365449 126.5 L 224.24418604651 126.5 L 225.15946843854 126.5 L 226.07475083056 126.5 L 226.99003322259 144.57142857143 L 227.90531561462 126.5 L 228.82059800664 126.5 L 229.73588039867 108.42857142857 L 230.6511627907 90.357142857143 L 231.56644518272 108.42857142857 L 232.48172757475 126.5 L 233.39700996678 126.5 L 234.3122923588 126.5 L 235.22757475083 108.42857142857 L 236.14285714286 108.42857142857 L 237.05813953488 108.42857142857 L 237.97342192691 90.357142857143 L 238.88870431894 90.357142857143 L 239.80398671096 108.42857142857 L 240.71926910299 108.42857142857 L 241.63455149502 108.42857142857 L 242.54983388704 126.5 L 243.46511627907 144.57142857143 L 244.3803986711 144.57142857143 L 245.29568106312 144.57142857143 L 246.21096345515 144.57142857143 L 247.12624584718 144.57142857143 L 248.0415282392 144.57142857143 L 248.95681063123 144.57142857143 L 249.87209302326 144.57142857143 L 250.78737541528 144.57142857143 L 251.70265780731 126.5 L 252.61794019934 126.5 L 253.53322259136 126.5 L 254.44850498339 144.57142857143 L 255.36378737542 144.57142857143 L 256.27906976744 144.57142857143 L 257.19435215947 144.57142857143 L 258.10963455149 144.57142857143 L 259.02491694352 144.57142857143 L 259.94019933555 162.64285714286 L 260.85548172757 162.64285714286 L 261.7707641196 180.71428571429 L 262.68604651163 162.64285714286 L 263.60132890365 162.64285714286 L 264.51661129568 162.64285714286 L 265.43189368771 162.64285714286 L 266.34717607973 162.64285714286 L 267.26245847176 144.57142857143 L 268.17774086379 144.57142857143 L 269.09302325581 144.57142857143 L 270.00830564784 144.57142857143 L 270.92358803987 144.57142857143 L 271.83887043189 144.57142857143 L 272.75415282392 144.57142857143 L 273.66943521595 162.64285714286 L 274.58471760797 162.64285714286 L 275.5 162.64285714286 L 276.41528239203 162.64285714286 L 277.33056478405 144.57142857143 L 278.24584717608 126.5 L 279.16112956811 126.5 L 280.07641196013 144.57142857143 L 280.99169435216 126.5 L 281.90697674419 144.57142857143 L 282.82225913621 162.64285714286 L 283.73754152824 162.64285714286 L 284.65282392027 162.64285714286 L 285.56810631229 162.64285714286 L 286.48338870432 180.71428571429 L 287.39867109635 180.71428571429 L 288.31395348837 180.71428571429 L 289.2292358804 162.64285714286 L 290.14451827243 180.71428571429 L 291.05980066445 180.71428571429 L 291.97508305648 162.64285714286 L 292.8903654485 162.64285714286 L 293.80564784053 162.64285714286 L 294.72093023256 180.71428571429 L 295.63621262458 180.71428571429 L 296.55149501661 180.71428571429 L 297.46677740864 180.71428571429 L 298.38205980066 180.71428571429 L 299.29734219269 180.71428571429 L 300.21262458472 180.71428571429 L 301.12790697674 198.78571428571 L 302.04318936877 198.78571428571 L 302.9584717608 198.78571428571 L 303.87375415282 198.78571428571 L 304.78903654485 198.78571428571 L 305.70431893688 198.78571428571 L 306.6196013289 198.78571428571 L 307.53488372093 198.78571428571 L 308.45016611296 180.71428571429 L 309.36544850498 180.71428571429 L 310.28073089701 180.71428571429 L 311.19601328904 162.64285714286 L 312.11129568106 162.64285714286 L 313.02657807309 162.64285714286 L 313.94186046512 144.57142857143 L 314.85714285714 144.57142857143 L 315.77242524917 126.5 L 316.6877076412 126.5 L 317.60299003322 126.5 L 318.51827242525 126.5 L 319.43355481728 90.357142857143 L 320.3488372093 126.5 L 321.26411960133 108.42857142857 L 322.17940199336 126.5 L 323.09468438538 126.5 L 324.00996677741 108.42857142857 L 324.92524916944 126.5 L 325.84053156146 126.5 L 326.75581395349 126.5 L 327.67109634551 144.57142857143 L 328.58637873754 144.57142857143 L 329.50166112957 126.5 L 330.41694352159 144.57142857143 L 331.33222591362 162.64285714286 L 332.24750830565 162.64285714286 L 333.16279069767 162.64285714286 L 334.0780730897 180.71428571429 L 334.99335548173 180.71428571429 L 335.90863787375 162.64285714286 L 336.82392026578 162.64285714286 L 337.73920265781 162.64285714286 L 338.65448504983 144.57142857143 L 339.56976744186 144.57142857143 L 340.48504983389 144.57142857143 L 341.40033222591 126.5 L 342.31561461794 144.57142857143 L 343.23089700997 144.57142857143 L 344.14617940199 162.64285714286 L 345.06146179402 162.64285714286 L 345.97674418605 180.71428571429 L 346.89202657807 162.64285714286 L 347.8073089701 162.64285714286 L 348.72259136213 162.64285714286 L 349.63787375415 162.64285714286 L 350.55315614618 144.57142857143 L 351.46843853821 144.57142857143 L 352.38372093023 144.57142857143 L 353.29900332226 126.5 L 354.21428571429 126.5 L 355.12956810631 126.5 L 356.04485049834 144.57142857143 L 356.96013289037 144.57142857143 L 357.87541528239 180.71428571429 L 358.79069767442 162.64285714286 L 359.70598006645 144.57142857143 L 360.62126245847 144.57142857143 L 361.5365448505 126.5 L 362.45182724252 144.57142857143 L 363.36710963455 144.57142857143 L 364.28239202658 144.57142857143 L 365.1976744186 162.64285714286 L 366.11295681063 162.64285714286 L 367.02823920266 144.57142857143 L 367.94352159468 144.57142857143 L 368.85880398671 126.5 L 369.77408637874 144.57142857143 L 370.68936877076 144.57142857143 L 371.60465116279 144.57142857143 L 372.51993355482 144.57142857143 L 373.43521594684 144.57142857143 L 374.35049833887 144.57142857143 L 375.2657807309 144.57142857143 L 376.18106312292 162.64285714286 L 377.09634551495 144.57142857143 L 378.01162790698 162.64285714286 L 378.926910299 180.71428571429 L 379.84219269103 162.64285714286 L 380.75747508306 144.57142857143 L 381.67275747508 162.64285714286 L 382.58803986711 144.57142857143 L 383.50332225914 144.57142857143 L 384.41860465116 144.57142857143 L 385.33388704319 144.57142857143 L 386.24916943522 144.57142857143 L 387.16445182724 144.57142857143 L 388.07973421927 144.57142857143 L 388.9950166113 162.64285714286 L 389.91029900332 162.64285714286 L 390.82558139535 144.57142857143 L 391.74086378738 162.64285714286 L 392.6561461794 162.64285714286 L 393.57142857143 162.64285714286 L 394.48671096346 144.57142857143 L 395.40199335548 144.57142857143 L 396.31727574751 126.5 L 397.23255813953 126.5 L 398.14784053156 126.5 L 399.06312292359 144.57142857143 L 399.97840531561 126.5 L 400.89368770764 144.57142857143 L 401.80897009967 144.57142857143 L 402.72425249169 144.57142857143 L 403.63953488372 144.57142857143 L 404.55481727575 144.57142857143 L 405.47009966777 144.57142857143 L 406.3853820598 144.57142857143 L 407.30066445183 144.57142857143 L 408.21594684385 144.57142857143 L 409.13122923588 144.57142857143 L 410.04651162791 144.57142857143 L 410.96179401993 144.57142857143 L 411.87707641196 144.57142857143 L 412.79235880399 126.5 L 413.70764119601 126.5 L 414.62292358804 144.57142857143 L 415.53820598007 126.5 L 416.45348837209 108.42857142857 L 417.36877076412 126.5 L 418.28405315615 126.5 L 419.19933554817 144.57142857143 L 420.1146179402 126.5 L 421.02990033223 126.5 L 421.94518272425 126.5 L 422.86046511628 126.5 L 423.77574750831 144.57142857143 L 424.69102990033 126.5 L 425.60631229236 126.5 L 426.52159468439 108.42857142857 L 427.43687707641 126.5 L 428.35215946844 144.57142857143 L 429.26744186047 126.5 L 430.18272425249 144.57142857143 L 431.09800664452 144.57142857143 L 432.01328903654 144.57142857143 L 432.92857142857 144.57142857143 L 433.8438538206 144.57142857143 L 434.75913621262 162.64285714286 L 435.67441860465 162.64285714286 L 436.58970099668 162.64285714286 L 437.5049833887 162.64285714286 L 438.42026578073 180.71428571429 L 439.33554817276 180.71428571429 L 440.25083056478 180.71428571429 L 441.16611295681 180.71428571429 L 442.08139534884 198.78571428571 L 442.99667774086 198.78571428571 L 443.91196013289 198.78571428571 L 444.82724252492 198.78571428571 L 445.74252491694 180.71428571429 L 446.65780730897 180.71428571429 L 447.573089701 180.71428571429 L 448.48837209302 180.71428571429 L 449.40365448505 180.71428571429 L 450.31893687708 180.71428571429 L 451.2342192691 198.78571428571 L 452.14950166113 180.71428571429 L 453.06478405316 198.78571428571 L 453.98006644518 198.78571428571 L 454.89534883721 180.71428571429 L 455.81063122924 180.71428571429 L 456.72591362126 180.71428571429 L 457.64119601329 180.71428571429 L 458.55647840532 180.71428571429 L 459.47176079734 180.71428571429 L 460.38704318937 198.78571428571 L 461.3023255814 198.78571428571 L 462.21760797342 180.71428571429 L 463.13289036545 180.71428571429 L 464.04817275748 180.71428571429 L 464.9634551495 180.71428571429 L 465.87873754153 180.71428571429 L 466.79401993355 180.71428571429 L 467.70930232558 180.71428571429 L 468.62458471761 198.78571428571 L 469.53986710963 180.71428571429 L 470.45514950166 180.71428571429 L 471.37043189369 198.78571428571 L 472.28571428571 198.78571428571 L 473.20099667774 198.78571428571 L 474.11627906977 198.78571428571 L 475.03156146179 216.85714285714 L 475.94684385382 216.85714285714 L 476.86212624585 198.78571428571 L 477.77740863787 180.71428571429 L 478.6926910299 180.71428571429 L 479.60797342193 180.71428571429 L 480.52325581395 180.71428571429 L 481.43853820598 198.78571428571 L 482.35382059801 198.78571428571 L 483.26910299003 180.71428571429 L 484.18438538206 180.71428571429 L 485.09966777409 180.71428571429 L 486.01495016611 180.71428571429 L 486.93023255814 180.71428571429 L 487.84551495017 180.71428571429 L 488.76079734219 162.64285714286 L 489.67607973422 180.71428571429 L 490.59136212625 162.64285714286 L 491.50664451827 144.57142857143 L 492.4219269103 144.57142857143 L 493.33720930233 144.57142857143 L 494.25249169435 144.57142857143 L 495.16777408638 162.64285714286 L 496.08305647841 162.64285714286 L 496.99833887043 162.64285714286 L 497.91362126246 180.71428571429 L 498.82890365449 180.71428571429 L 499.74418604651 180.71428571429 L 500.65946843854 198.78571428571 L 501.57475083056 198.78571428571 L 502.49003322259 198.78571428571 L 503.40531561462 216.85714285714 L 504.32059800664 216.85714285714 L 505.23588039867 216.85714285714 L 506.1511627907 216.85714285714 L 507.06644518272 216.85714285714 L 507.98172757475 216.85714285714 L 508.89700996678 198.78571428571 L 509.8122923588 198.78571428571 L 510.72757475083 198.78571428571 L 511.64285714286 198.78571428571 L 512.55813953488 198.78571428571 L 513.47342192691 198.78571428571 L 514.38870431894 198.78571428571 L 515.30398671096 180.71428571429 L 516.21926910299 180.71428571429 L 517.13455149502 198.78571428571 L 518.04983388704 180.71428571429 L 518.96511627907 180.71428571429 L 519.8803986711 180.71428571429 L 520.79568106312 180.71428571429 L 521.71096345515 180.71428571429 L 522.62624584718 180.71428571429 L 523.5415282392 180.71428571429 L 524.45681063123 180.71428571429 L 525.37209302326 180.71428571429 L 526.28737541528 180.71428571429 L 527.20265780731 198.78571428571 L 528.11794019934 198.78571428571 L 529.03322259136 198.78571428571 L 529.94850498339 180.71428571429 L 530.86378737542 180.71428571429 L 531.77906976744 180.71428571429 L 532.69435215947 144.57142857143 L 533.60963455149 162.64285714286 L 534.52491694352 162.64285714286 L 535.44019933555 144.57142857143 L 536.35548172757 162.64285714286 L 537.2707641196 162.64285714286 L 538.18604651163 162.64285714286 L 539.10132890365 162.64285714286 L 540.01661129568 162.64285714286 L 540.93189368771 162.64285714286 L 541.84717607973 162.64285714286 L 542.76245847176 162.64285714286 L 543.67774086379 162.64285714286 L 544.59302325581 180.71428571429 L 545.50830564784 180.71428571429 L 546.42358803987 180.71428571429 L 547.33887043189 162.64285714286 L 548.25415282392 162.64285714286 L 549.16943521595 144.57142857143 L 551 144.57142857143" class="highcharts-graph" data-z-index="1" stroke="rgb(39, 174, 96)" stroke-opacity=" 1" stroke-width="2" stroke-linejoin="round" stroke-linecap="round" filter="none" aria-hidden="false" role="region" tabindex="-1" style="outline: none;" aria-label="Bid 1, line 3 of 7 with 600 data points."></path></g><g class="highcharts-markers highcharts-series-2 highcharts-line-series" data-z-index="0.1" opacity="1" transform="translate(39,42) scale(1 1)" clip-path="none" aria-hidden="true"></g><g class="highcharts-series highcharts-series-3 highcharts-line-series" data-z-index="0.1" opacity="1" transform="translate(39,42) scale(1 1)" clip-path="url(#highcharts-2gu91ep-685089-)" aria-hidden="false"><path fill="none" d="M 0 99.392857142857 L 1.8305647840532 117.46428571429 L 3.6611295681063 126.5 L 4.5764119601329 117.46428571429 L 5.4916943521595 117.46428571429 L 6.406976744186 117.46428571429 L 7.3222591362126 135.53571428571 L 8.2375415282392 135.53571428571 L 9.1528239202658 126.5 L 10.068106312292 117.46428571429 L 10.983388704319 117.46428571429 L 11.898671096346 117.46428571429 L 12.813953488372 108.42857142857 L 13.729235880399 117.46428571429 L 14.644518272425 117.46428571429 L 15.559800664452 108.42857142857 L 16.475083056478 99.392857142857 L 17.390365448505 108.42857142857 L 18.305647840532 117.46428571429 L 19.220930232558 117.46428571429 L 20.136212624585 117.46428571429 L 21.051495016611 117.46428571429 L 21.966777408638 135.53571428571 L 22.882059800664 135.53571428571 L 23.797342192691 135.53571428571 L 24.712624584718 117.46428571429 L 25.627906976744 108.42857142857 L 26.543189368771 108.42857142857 L 27.458471760797 135.53571428571 L 28.373754152824 135.53571428571 L 29.28903654485 135.53571428571 L 30.204318936877 108.42857142857 L 31.119601328904 99.392857142857 L 32.03488372093 99.392857142857 L 32.950166112957 90.357142857143 L 33.865448504983 108.42857142857 L 34.78073089701 117.46428571429 L 35.696013289037 117.46428571429 L 36.611295681063 117.46428571429 L 37.52657807309 135.53571428571 L 38.441860465116 135.53571428571 L 39.357142857143 135.53571428571 L 40.272425249169 126.5 L 41.187707641196 144.57142857143 L 42.102990033223 135.53571428571 L 43.018272425249 135.53571428571 L 43.933554817276 117.46428571429 L 44.848837209302 117.46428571429 L 45.764119601329 117.46428571429 L 46.679401993355 99.392857142857 L 47.594684385382 99.392857142857 L 48.509966777409 108.42857142857 L 49.425249169435 117.46428571429 L 50.340531561462 99.392857142857 L 51.255813953488 99.392857142857 L 52.171096345515 99.392857142857 L 53.086378737542 117.46428571429 L 54.001661129568 117.46428571429 L 54.916943521595 99.392857142857 L 55.832225913621 117.46428571429 L 56.747508305648 90.357142857143 L 57.662790697674 99.392857142857 L 58.578073089701 99.392857142857 L 59.493355481728 81.321428571429 L 60.408637873754 72.285714285714 L 61.323920265781 81.321428571429 L 62.239202657807 81.321428571429 L 63.154485049834 81.321428571429 L 64.06976744186 90.357142857143 L 64.985049833887 99.392857142857 L 65.900332225914 63.25 L 66.81561461794 63.25 L 67.730897009967 45.178571428571 L 68.646179401993 45.178571428571 L 69.56146179402 45.178571428571 L 70.476744186047 36.142857142857 L 71.392026578073 63.25 L 72.3073089701 63.25 L 73.222591362126 81.321428571429 L 74.137873754153 81.321428571429 L 75.053156146179 81.321428571429 L 75.968438538206 81.321428571429 L 76.883720930233 63.25 L 77.799003322259 81.321428571429 L 78.714285714286 81.321428571429 L 79.629568106312 81.321428571429 L 80.544850498339 108.42857142857 L 81.460132890365 117.46428571429 L 82.375415282392 117.46428571429 L 83.290697674419 99.392857142857 L 84.205980066445 117.46428571429 L 85.121262458472 117.46428571429 L 86.036544850498 135.53571428571 L 86.951827242525 135.53571428571 L 87.867109634551 135.53571428571 L 88.782392026578 135.53571428571 L 89.697674418605 117.46428571429 L 90.612956810631 117.46428571429 L 91.528239202658 117.46428571429 L 92.443521594684 117.46428571429 L 93.358803986711 99.392857142857 L 94.274086378738 117.46428571429 L 95.189368770764 135.53571428571 L 96.104651162791 135.53571428571 L 97.019933554817 117.46428571429 L 97.935215946844 99.392857142857 L 98.85049833887 99.392857142857 L 99.765780730897 99.392857142857 L 100.68106312292 117.46428571429 L 101.59634551495 126.5 L 102.51162790698 117.46428571429 L 103.426910299 117.46428571429 L 104.34219269103 126.5 L 105.25747508306 117.46428571429 L 106.17275747508 99.392857142857 L 107.08803986711 117.46428571429 L 108.00332225914 117.46428571429 L 108.91860465116 117.46428571429 L 109.83388704319 117.46428571429 L 110.74916943522 108.42857142857 L 111.66445182724 117.46428571429 L 112.57973421927 126.5 L 113.4950166113 126.5 L 114.41029900332 135.53571428571 L 115.32558139535 135.53571428571 L 116.24086378738 144.57142857143 L 117.1561461794 135.53571428571 L 118.07142857143 135.53571428571 L 118.98671096346 135.53571428571 L 119.90199335548 135.53571428571 L 120.81727574751 135.53571428571 L 121.73255813953 135.53571428571 L 122.64784053156 117.46428571429 L 123.56312292359 117.46428571429 L 124.47840531561 117.46428571429 L 125.39368770764 135.53571428571 L 126.30897009967 117.46428571429 L 127.22425249169 117.46428571429 L 128.13953488372 117.46428571429 L 129.05481727575 117.46428571429 L 129.97009966777 108.42857142857 L 130.8853820598 99.392857142857 L 131.80066445183 108.42857142857 L 132.71594684385 99.392857142857 L 133.63122923588 99.392857142857 L 134.54651162791 81.321428571429 L 135.46179401993 63.25 L 136.37707641196 81.321428571429 L 137.29235880399 72.285714285714 L 138.20764119601 72.285714285714 L 139.12292358804 45.178571428571 L 140.03820598007 63.25 L 140.95348837209 81.321428571429 L 141.86877076412 90.357142857143 L 142.78405315615 81.321428571429 L 143.69933554817 81.321428571429 L 144.6146179402 99.392857142857 L 145.52990033223 108.42857142857 L 146.44518272425 117.46428571429 L 147.36046511628 117.46428571429 L 148.27574750831 99.392857142857 L 149.19102990033 99.392857142857 L 150.10631229236 117.46428571429 L 151.02159468439 99.392857142857 L 151.93687707641 99.392857142857 L 152.85215946844 117.46428571429 L 153.76744186047 81.321428571429 L 154.68272425249 99.392857142857 L 155.59800664452 81.321428571429 L 156.51328903654 99.392857142857 L 157.42857142857 99.392857142857 L 158.3438538206 90.357142857143 L 159.25913621262 99.392857142857 L 160.17441860465 108.42857142857 L 161.08970099668 63.25 L 162.0049833887 90.357142857143 L 162.92026578073 99.392857142857 L 163.83554817276 99.392857142857 L 164.75083056478 99.392857142857 L 165.66611295681 99.392857142857 L 166.58139534884 99.392857142857 L 167.49667774086 126.5 L 168.41196013289 117.46428571429 L 169.32724252492 90.357142857143 L 170.24252491694 99.392857142857 L 171.15780730897 63.25 L 172.073089701 63.25 L 172.98837209302 99.392857142857 L 173.90365448505 99.392857142857 L 174.81893687708 117.46428571429 L 175.7342192691 135.53571428571 L 176.64950166113 135.53571428571 L 177.56478405316 135.53571428571 L 178.48006644518 117.46428571429 L 179.39534883721 135.53571428571 L 180.31063122924 135.53571428571 L 181.22591362126 117.46428571429 L 182.14119601329 117.46428571429 L 183.05647840532 117.46428571429 L 183.97176079734 108.42857142857 L 184.88704318937 117.46428571429 L 185.8023255814 99.392857142857 L 186.71760797342 117.46428571429 L 187.63289036545 135.53571428571 L 188.54817275748 153.60714285714 L 189.4634551495 135.53571428571 L 190.37873754153 126.5 L 191.29401993355 135.53571428571 L 192.20930232558 135.53571428571 L 193.12458471761 117.46428571429 L 194.03986710963 117.46428571429 L 194.95514950166 117.46428571429 L 195.87043189369 117.46428571429 L 196.78571428571 126.5 L 197.70099667774 117.46428571429 L 198.61627906977 135.53571428571 L 199.53156146179 135.53571428571 L 200.44684385382 135.53571428571 L 201.36212624585 126.5 L 202.27740863787 126.5 L 203.1926910299 117.46428571429 L 204.10797342193 117.46428571429 L 205.02325581395 81.321428571429 L 205.93853820598 99.392857142857 L 206.85382059801 99.392857142857 L 207.76910299003 99.392857142857 L 208.68438538206 99.392857142857 L 209.59966777409 99.392857142857 L 210.51495016611 99.392857142857 L 211.43023255814 99.392857142857 L 212.34551495017 90.357142857143 L 213.26079734219 117.46428571429 L 214.17607973422 117.46428571429 L 215.09136212625 117.46428571429 L 216.00664451827 117.46428571429 L 216.9219269103 117.46428571429 L 217.83720930233 126.5 L 218.75249169435 135.53571428571 L 219.66777408638 135.53571428571 L 220.58305647841 144.57142857143 L 221.49833887043 135.53571428571 L 222.41362126246 126.5 L 223.32890365449 117.46428571429 L 224.24418604651 117.46428571429 L 225.15946843854 117.46428571429 L 226.07475083056 117.46428571429 L 226.99003322259 126.5 L 227.90531561462 117.46428571429 L 228.82059800664 108.42857142857 L 229.73588039867 99.392857142857 L 230.6511627907 81.321428571429 L 231.56644518272 99.392857142857 L 232.48172757475 117.46428571429 L 233.39700996678 117.46428571429 L 234.3122923588 117.46428571429 L 235.22757475083 99.392857142857 L 236.14285714286 99.392857142857 L 237.05813953488 99.392857142857 L 237.97342192691 81.321428571429 L 238.88870431894 81.321428571429 L 239.80398671096 90.357142857143 L 240.71926910299 99.392857142857 L 241.63455149502 99.392857142857 L 242.54983388704 117.46428571429 L 243.46511627907 135.53571428571 L 244.3803986711 126.5 L 245.29568106312 135.53571428571 L 246.21096345515 126.5 L 247.12624584718 126.5 L 248.0415282392 135.53571428571 L 248.95681063123 126.5 L 249.87209302326 135.53571428571 L 250.78737541528 126.5 L 251.70265780731 117.46428571429 L 252.61794019934 117.46428571429 L 253.53322259136 117.46428571429 L 254.44850498339 126.5 L 255.36378737542 135.53571428571 L 256.27906976744 135.53571428571 L 257.19435215947 135.53571428571 L 258.10963455149 135.53571428571 L 259.02491694352 135.53571428571 L 259.94019933555 153.60714285714 L 260.85548172757 153.60714285714 L 261.7707641196 162.64285714286 L 262.68604651163 153.60714285714 L 263.60132890365 153.60714285714 L 264.51661129568 153.60714285714 L 265.43189368771 153.60714285714 L 266.34717607973 144.57142857143 L 267.26245847176 135.53571428571 L 268.17774086379 135.53571428571 L 269.09302325581 135.53571428571 L 270.00830564784 135.53571428571 L 270.92358803987 126.5 L 271.83887043189 135.53571428571 L 272.75415282392 135.53571428571 L 273.66943521595 153.60714285714 L 274.58471760797 153.60714285714 L 275.5 153.60714285714 L 276.41528239203 153.60714285714 L 277.33056478405 135.53571428571 L 278.24584717608 117.46428571429 L 279.16112956811 108.42857142857 L 280.07641196013 126.5 L 280.99169435216 117.46428571429 L 281.90697674419 135.53571428571 L 282.82225913621 153.60714285714 L 283.73754152824 153.60714285714 L 284.65282392027 153.60714285714 L 285.56810631229 153.60714285714 L 286.48338870432 171.67857142857 L 287.39867109635 171.67857142857 L 288.31395348837 162.64285714286 L 289.2292358804 153.60714285714 L 290.14451827243 162.64285714286 L 291.05980066445 162.64285714286 L 291.97508305648 153.60714285714 L 292.8903654485 153.60714285714 L 293.80564784053 153.60714285714 L 294.72093023256 162.64285714286 L 295.63621262458 171.67857142857 L 296.55149501661 171.67857142857 L 297.46677740864 171.67857142857 L 298.38205980066 162.64285714286 L 299.29734219269 162.64285714286 L 300.21262458472 171.67857142857 L 301.12790697674 189.75 L 302.04318936877 189.75 L 302.9584717608 189.75 L 303.87375415282 189.75 L 304.78903654485 189.75 L 305.70431893688 189.75 L 306.6196013289 189.75 L 307.53488372093 180.71428571429 L 308.45016611296 171.67857142857 L 309.36544850498 171.67857142857 L 310.28073089701 171.67857142857 L 311.19601328904 153.60714285714 L 312.11129568106 153.60714285714 L 313.02657807309 153.60714285714 L 313.94186046512 135.53571428571 L 314.85714285714 135.53571428571 L 315.77242524917 117.46428571429 L 316.6877076412 117.46428571429 L 317.60299003322 117.46428571429 L 318.51827242525 117.46428571429 L 319.43355481728 81.321428571429 L 320.3488372093 117.46428571429 L 321.26411960133 99.392857142857 L 322.17940199336 108.42857142857 L 323.09468438538 117.46428571429 L 324.00996677741 99.392857142857 L 324.92524916944 117.46428571429 L 325.84053156146 117.46428571429 L 326.75581395349 117.46428571429 L 327.67109634551 135.53571428571 L 328.58637873754 135.53571428571 L 329.50166112957 117.46428571429 L 330.41694352159 135.53571428571 L 331.33222591362 144.57142857143 L 332.24750830565 153.60714285714 L 333.16279069767 153.60714285714 L 334.0780730897 171.67857142857 L 334.99335548173 171.67857142857 L 335.90863787375 153.60714285714 L 336.82392026578 153.60714285714 L 337.73920265781 153.60714285714 L 338.65448504983 135.53571428571 L 339.56976744186 135.53571428571 L 340.48504983389 126.5 L 341.40033222591 108.42857142857 L 342.31561461794 135.53571428571 L 343.23089700997 135.53571428571 L 344.14617940199 153.60714285714 L 345.06146179402 153.60714285714 L 345.97674418605 171.67857142857 L 346.89202657807 144.57142857143 L 347.8073089701 153.60714285714 L 348.72259136213 153.60714285714 L 349.63787375415 153.60714285714 L 350.55315614618 135.53571428571 L 351.46843853821 135.53571428571 L 352.38372093023 135.53571428571 L 353.29900332226 117.46428571429 L 354.21428571429 117.46428571429 L 355.12956810631 117.46428571429 L 356.04485049834 135.53571428571 L 356.96013289037 135.53571428571 L 357.87541528239 162.64285714286 L 358.79069767442 153.60714285714 L 359.70598006645 135.53571428571 L 360.62126245847 135.53571428571 L 361.5365448505 117.46428571429 L 362.45182724252 135.53571428571 L 363.36710963455 135.53571428571 L 364.28239202658 135.53571428571 L 365.1976744186 153.60714285714 L 366.11295681063 153.60714285714 L 367.02823920266 135.53571428571 L 367.94352159468 135.53571428571 L 368.85880398671 117.46428571429 L 369.77408637874 135.53571428571 L 370.68936877076 135.53571428571 L 371.60465116279 126.5 L 372.51993355482 135.53571428571 L 373.43521594684 135.53571428571 L 374.35049833887 135.53571428571 L 375.2657807309 135.53571428571 L 376.18106312292 144.57142857143 L 377.09634551495 135.53571428571 L 378.01162790698 144.57142857143 L 378.926910299 171.67857142857 L 379.84219269103 153.60714285714 L 380.75747508306 135.53571428571 L 381.67275747508 153.60714285714 L 382.58803986711 135.53571428571 L 383.50332225914 126.5 L 384.41860465116 135.53571428571 L 385.33388704319 135.53571428571 L 386.24916943522 135.53571428571 L 387.16445182724 135.53571428571 L 388.07973421927 135.53571428571 L 388.9950166113 153.60714285714 L 389.91029900332 153.60714285714 L 390.82558139535 135.53571428571 L 391.74086378738 153.60714285714 L 392.6561461794 153.60714285714 L 393.57142857143 153.60714285714 L 394.48671096346 135.53571428571 L 395.40199335548 135.53571428571 L 396.31727574751 117.46428571429 L 397.23255813953 117.46428571429 L 398.14784053156 117.46428571429 L 399.06312292359 135.53571428571 L 399.97840531561 117.46428571429 L 400.89368770764 135.53571428571 L 401.80897009967 135.53571428571 L 402.72425249169 135.53571428571 L 403.63953488372 135.53571428571 L 404.55481727575 135.53571428571 L 405.47009966777 135.53571428571 L 406.3853820598 135.53571428571 L 407.30066445183 135.53571428571 L 408.21594684385 135.53571428571 L 409.13122923588 135.53571428571 L 410.04651162791 135.53571428571 L 410.96179401993 126.5 L 411.87707641196 135.53571428571 L 412.79235880399 117.46428571429 L 413.70764119601 117.46428571429 L 414.62292358804 135.53571428571 L 415.53820598007 108.42857142857 L 416.45348837209 99.392857142857 L 417.36877076412 108.42857142857 L 418.28405315615 117.46428571429 L 419.19933554817 126.5 L 420.1146179402 117.46428571429 L 421.02990033223 117.46428571429 L 421.94518272425 117.46428571429 L 422.86046511628 117.46428571429 L 423.77574750831 126.5 L 424.69102990033 117.46428571429 L 425.60631229236 117.46428571429 L 426.52159468439 99.392857142857 L 427.43687707641 117.46428571429 L 428.35215946844 135.53571428571 L 429.26744186047 117.46428571429 L 430.18272425249 135.53571428571 L 431.09800664452 135.53571428571 L 432.01328903654 135.53571428571 L 432.92857142857 135.53571428571 L 433.8438538206 135.53571428571 L 434.75913621262 153.60714285714 L 435.67441860465 153.60714285714 L 436.58970099668 153.60714285714 L 437.5049833887 153.60714285714 L 438.42026578073 162.64285714286 L 439.33554817276 171.67857142857 L 440.25083056478 171.67857142857 L 441.16611295681 171.67857142857 L 442.08139534884 180.71428571429 L 442.99667774086 189.75 L 443.91196013289 189.75 L 444.82724252492 180.71428571429 L 445.74252491694 171.67857142857 L 446.65780730897 171.67857142857 L 447.573089701 171.67857142857 L 448.48837209302 171.67857142857 L 449.40365448505 171.67857142857 L 450.31893687708 171.67857142857 L 451.2342192691 189.75 L 452.14950166113 171.67857142857 L 453.06478405316 180.71428571429 L 453.98006644518 189.75 L 454.89534883721 171.67857142857 L 455.81063122924 171.67857142857 L 456.72591362126 171.67857142857 L 457.64119601329 171.67857142857 L 458.55647840532 171.67857142857 L 459.47176079734 171.67857142857 L 460.38704318937 189.75 L 461.3023255814 189.75 L 462.21760797342 171.67857142857 L 463.13289036545 171.67857142857 L 464.04817275748 171.67857142857 L 464.9634551495 171.67857142857 L 465.87873754153 171.67857142857 L 466.79401993355 171.67857142857 L 467.70930232558 171.67857142857 L 468.62458471761 189.75 L 469.53986710963 171.67857142857 L 470.45514950166 171.67857142857 L 471.37043189369 189.75 L 472.28571428571 189.75 L 473.20099667774 189.75 L 474.11627906977 189.75 L 475.03156146179 207.82142857143 L 475.94684385382 207.82142857143 L 476.86212624585 189.75 L 477.77740863787 171.67857142857 L 478.6926910299 171.67857142857 L 479.60797342193 171.67857142857 L 480.52325581395 171.67857142857 L 481.43853820598 180.71428571429 L 482.35382059801 180.71428571429 L 483.26910299003 171.67857142857 L 484.18438538206 171.67857142857 L 485.09966777409 171.67857142857 L 486.01495016611 171.67857142857 L 486.93023255814 171.67857142857 L 487.84551495017 171.67857142857 L 488.76079734219 153.60714285714 L 489.67607973422 162.64285714286 L 490.59136212625 153.60714285714 L 491.50664451827 135.53571428571 L 492.4219269103 135.53571428571 L 493.33720930233 135.53571428571 L 494.25249169435 135.53571428571 L 495.16777408638 153.60714285714 L 496.08305647841 144.57142857143 L 496.99833887043 153.60714285714 L 497.91362126246 162.64285714286 L 498.82890365449 171.67857142857 L 499.74418604651 171.67857142857 L 500.65946843854 189.75 L 501.57475083056 189.75 L 502.49003322259 189.75 L 503.40531561462 207.82142857143 L 504.32059800664 207.82142857143 L 505.23588039867 207.82142857143 L 506.1511627907 198.78571428571 L 507.06644518272 207.82142857143 L 507.98172757475 198.78571428571 L 508.89700996678 189.75 L 509.8122923588 189.75 L 510.72757475083 189.75 L 511.64285714286 189.75 L 512.55813953488 189.75 L 513.47342192691 189.75 L 514.38870431894 180.71428571429 L 515.30398671096 171.67857142857 L 516.21926910299 171.67857142857 L 517.13455149502 189.75 L 518.04983388704 171.67857142857 L 518.96511627907 171.67857142857 L 519.8803986711 171.67857142857 L 520.79568106312 171.67857142857 L 521.71096345515 171.67857142857 L 522.62624584718 171.67857142857 L 523.5415282392 171.67857142857 L 524.45681063123 171.67857142857 L 525.37209302326 171.67857142857 L 526.28737541528 171.67857142857 L 527.20265780731 189.75 L 528.11794019934 189.75 L 529.03322259136 180.71428571429 L 529.94850498339 171.67857142857 L 530.86378737542 171.67857142857 L 531.77906976744 162.64285714286 L 532.69435215947 135.53571428571 L 533.60963455149 153.60714285714 L 534.52491694352 153.60714285714 L 535.44019933555 135.53571428571 L 536.35548172757 144.57142857143 L 537.2707641196 144.57142857143 L 538.18604651163 153.60714285714 L 539.10132890365 153.60714285714 L 540.01661129568 153.60714285714 L 540.93189368771 153.60714285714 L 541.84717607973 153.60714285714 L 542.76245847176 153.60714285714 L 543.67774086379 153.60714285714 L 544.59302325581 171.67857142857 L 545.50830564784 171.67857142857 L 546.42358803987 162.64285714286 L 547.33887043189 153.60714285714 L 548.25415282392 153.60714285714 L 549.16943521595 135.53571428571 L 551 126.5" class="highcharts-graph" data-z-index="1" stroke="gray" stroke-width="2" stroke-dasharray="8,6" filter="none" aria-hidden="false" role="region" tabindex="-1" style="outline: none;" aria-label="Mid price, line 4 of 7 with 600 data points."></path></g><g class="highcharts-markers highcharts-series-3 highcharts-line-series" data-z-index="0.1" opacity="1" transform="translate(39,42) scale(1 1)" clip-path="none" aria-hidden="true"></g><g class="highcharts-series highcharts-series-4 highcharts-line-series" data-z-index="0.1" opacity="1" transform="translate(39,42) scale(1 1)" clip-path="url(#highcharts-2gu91ep-685089-)" aria-hidden="false"><path fill="none" d="M 0 90.357142857143 L 1.8305647840532 108.42857142857 L 3.6611295681063 108.42857142857 L 4.5764119601329 108.42857142857 L 5.4916943521595 108.42857142857 L 6.406976744186 108.42857142857 L 7.3222591362126 126.5 L 8.2375415282392 126.5 L 9.1528239202658 108.42857142857 L 10.068106312292 108.42857142857 L 10.983388704319 108.42857142857 L 11.898671096346 108.42857142857 L 12.813953488372 90.357142857143 L 13.729235880399 108.42857142857 L 14.644518272425 108.42857142857 L 15.559800664452 90.357142857143 L 16.475083056478 90.357142857143 L 17.390365448505 90.357142857143 L 18.305647840532 108.42857142857 L 19.220930232558 108.42857142857 L 20.136212624585 108.42857142857 L 21.051495016611 108.42857142857 L 21.966777408638 126.5 L 22.882059800664 126.5 L 23.797342192691 126.5 L 24.712624584718 108.42857142857 L 25.627906976744 90.357142857143 L 26.543189368771 90.357142857143 L 27.458471760797 126.5 L 28.373754152824 126.5 L 29.28903654485 126.5 L 30.204318936877 90.357142857143 L 31.119601328904 90.357142857143 L 32.03488372093 90.357142857143 L 32.950166112957 72.285714285714 L 33.865448504983 90.357142857143 L 34.78073089701 108.42857142857 L 35.696013289037 108.42857142857 L 36.611295681063 108.42857142857 L 37.52657807309 126.5 L 38.441860465116 126.5 L 39.357142857143 126.5 L 40.272425249169 108.42857142857 L 41.187707641196 126.5 L 42.102990033223 126.5 L 43.018272425249 126.5 L 43.933554817276 108.42857142857 L 44.848837209302 108.42857142857 L 45.764119601329 108.42857142857 L 46.679401993355 90.357142857143 L 47.594684385382 90.357142857143 L 48.509966777409 90.357142857143 L 49.425249169435 108.42857142857 L 50.340531561462 90.357142857143 L 51.255813953488 90.357142857143 L 52.171096345515 90.357142857143 L 53.086378737542 108.42857142857 L 54.001661129568 108.42857142857 L 54.916943521595 90.357142857143 L 55.832225913621 108.42857142857 L 56.747508305648 72.285714285714 L 57.662790697674 90.357142857143 L 58.578073089701 90.357142857143 L 59.493355481728 72.285714285714 L 60.408637873754 54.214285714286 L 61.323920265781 72.285714285714 L 62.239202657807 72.285714285714 L 63.154485049834 72.285714285714 L 64.06976744186 72.285714285714 L 64.985049833887 90.357142857143 L 65.900332225914 54.214285714286 L 66.81561461794 54.214285714286 L 67.730897009967 36.142857142857 L 68.646179401993 36.142857142857 L 69.56146179402 36.142857142857 L 70.476744186047 18.071428571429 L 71.392026578073 54.214285714286 L 72.3073089701 54.214285714286 L 73.222591362126 72.285714285714 L 74.137873754153 72.285714285714 L 75.053156146179 72.285714285714 L 75.968438538206 72.285714285714 L 76.883720930233 54.214285714286 L 77.799003322259 72.285714285714 L 78.714285714286 72.285714285714 L 79.629568106312 72.285714285714 L 80.544850498339 90.357142857143 L 81.460132890365 108.42857142857 L 82.375415282392 108.42857142857 L 83.290697674419 90.357142857143 L 84.205980066445 108.42857142857 L 85.121262458472 108.42857142857 L 86.036544850498 126.5 L 86.951827242525 126.5 L 87.867109634551 126.5 L 88.782392026578 126.5 L 89.697674418605 108.42857142857 L 90.612956810631 108.42857142857 L 91.528239202658 108.42857142857 L 92.443521594684 108.42857142857 L 93.358803986711 90.357142857143 L 94.274086378738 108.42857142857 L 95.189368770764 126.5 L 96.104651162791 126.5 L 97.019933554817 108.42857142857 L 97.935215946844 90.357142857143 L 98.85049833887 90.357142857143 L 99.765780730897 90.357142857143 L 100.68106312292 108.42857142857 L 101.59634551495 108.42857142857 L 102.51162790698 108.42857142857 L 103.426910299 108.42857142857 L 104.34219269103 108.42857142857 L 105.25747508306 108.42857142857 L 106.17275747508 90.357142857143 L 107.08803986711 108.42857142857 L 108.00332225914 108.42857142857 L 108.91860465116 108.42857142857 L 109.83388704319 108.42857142857 L 110.74916943522 90.357142857143 L 111.66445182724 108.42857142857 L 112.57973421927 108.42857142857 L 113.4950166113 108.42857142857 L 114.41029900332 126.5 L 115.32558139535 126.5 L 116.24086378738 126.5 L 117.1561461794 126.5 L 118.07142857143 126.5 L 118.98671096346 126.5 L 119.90199335548 126.5 L 120.81727574751 126.5 L 121.73255813953 126.5 L 122.64784053156 108.42857142857 L 123.56312292359 108.42857142857 L 124.47840531561 108.42857142857 L 125.39368770764 126.5 L 126.30897009967 108.42857142857 L 127.22425249169 108.42857142857 L 128.13953488372 108.42857142857 L 129.05481727575 108.42857142857 L 129.97009966777 90.357142857143 L 130.8853820598 90.357142857143 L 131.80066445183 90.357142857143 L 132.71594684385 90.357142857143 L 133.63122923588 90.357142857143 L 134.54651162791 72.285714285714 L 135.46179401993 54.214285714286 L 136.37707641196 72.285714285714 L 137.29235880399 54.214285714286 L 138.20764119601 54.214285714286 L 139.12292358804 36.142857142857 L 140.03820598007 54.214285714286 L 140.95348837209 72.285714285714 L 141.86877076412 72.285714285714 L 142.78405315615 72.285714285714 L 143.69933554817 72.285714285714 L 144.6146179402 90.357142857143 L 145.52990033223 90.357142857143 L 146.44518272425 108.42857142857 L 147.36046511628 108.42857142857 L 148.27574750831 90.357142857143 L 149.19102990033 90.357142857143 L 150.10631229236 108.42857142857 L 151.02159468439 90.357142857143 L 151.93687707641 90.357142857143 L 152.85215946844 108.42857142857 L 153.76744186047 72.285714285714 L 154.68272425249 90.357142857143 L 155.59800664452 72.285714285714 L 156.51328903654 90.357142857143 L 157.42857142857 90.357142857143 L 158.3438538206 72.285714285714 L 159.25913621262 90.357142857143 L 160.17441860465 90.357142857143 L 161.08970099668 54.214285714286 L 162.0049833887 72.285714285714 L 162.92026578073 90.357142857143 L 163.83554817276 90.357142857143 L 164.75083056478 90.357142857143 L 165.66611295681 90.357142857143 L 166.58139534884 90.357142857143 L 167.49667774086 108.42857142857 L 168.41196013289 108.42857142857 L 169.32724252492 72.285714285714 L 170.24252491694 90.357142857143 L 171.15780730897 54.214285714286 L 172.073089701 54.214285714286 L 172.98837209302 90.357142857143 L 173.90365448505 90.357142857143 L 174.81893687708 108.42857142857 L 175.7342192691 126.5 L 176.64950166113 126.5 L 177.56478405316 126.5 L 178.48006644518 108.42857142857 L 179.39534883721 126.5 L 180.31063122924 126.5 L 181.22591362126 108.42857142857 L 182.14119601329 108.42857142857 L 183.05647840532 108.42857142857 L 183.97176079734 90.357142857143 L 184.88704318937 108.42857142857 L 185.8023255814 90.357142857143 L 186.71760797342 108.42857142857 L 187.63289036545 126.5 L 188.54817275748 144.57142857143 L 189.4634551495 126.5 L 190.37873754153 108.42857142857 L 191.29401993355 126.5 L 192.20930232558 126.5 L 193.12458471761 108.42857142857 L 194.03986710963 108.42857142857 L 194.95514950166 108.42857142857 L 195.87043189369 108.42857142857 L 196.78571428571 108.42857142857 L 197.70099667774 108.42857142857 L 198.61627906977 126.5 L 199.53156146179 126.5 L 200.44684385382 126.5 L 201.36212624585 108.42857142857 L 202.27740863787 108.42857142857 L 203.1926910299 108.42857142857 L 204.10797342193 108.42857142857 L 205.02325581395 72.285714285714 L 205.93853820598 90.357142857143 L 206.85382059801 90.357142857143 L 207.76910299003 90.357142857143 L 208.68438538206 90.357142857143 L 209.59966777409 90.357142857143 L 210.51495016611 90.357142857143 L 211.43023255814 90.357142857143 L 212.34551495017 72.285714285714 L 213.26079734219 108.42857142857 L 214.17607973422 108.42857142857 L 215.09136212625 108.42857142857 L 216.00664451827 108.42857142857 L 216.9219269103 108.42857142857 L 217.83720930233 108.42857142857 L 218.75249169435 126.5 L 219.66777408638 126.5 L 220.58305647841 126.5 L 221.49833887043 126.5 L 222.41362126246 108.42857142857 L 223.32890365449 108.42857142857 L 224.24418604651 108.42857142857 L 225.15946843854 108.42857142857 L 226.07475083056 108.42857142857 L 226.99003322259 108.42857142857 L 227.90531561462 108.42857142857 L 228.82059800664 90.357142857143 L 229.73588039867 90.357142857143 L 230.6511627907 72.285714285714 L 231.56644518272 90.357142857143 L 232.48172757475 108.42857142857 L 233.39700996678 108.42857142857 L 234.3122923588 108.42857142857 L 235.22757475083 90.357142857143 L 236.14285714286 90.357142857143 L 237.05813953488 90.357142857143 L 237.97342192691 72.285714285714 L 238.88870431894 72.285714285714 L 239.80398671096 72.285714285714 L 240.71926910299 90.357142857143 L 241.63455149502 90.357142857143 L 242.54983388704 108.42857142857 L 243.46511627907 126.5 L 244.3803986711 108.42857142857 L 245.29568106312 126.5 L 246.21096345515 108.42857142857 L 247.12624584718 108.42857142857 L 248.0415282392 126.5 L 248.95681063123 108.42857142857 L 249.87209302326 126.5 L 250.78737541528 108.42857142857 L 251.70265780731 108.42857142857 L 252.61794019934 108.42857142857 L 253.53322259136 108.42857142857 L 254.44850498339 108.42857142857 L 255.36378737542 126.5 L 256.27906976744 126.5 L 257.19435215947 126.5 L 258.10963455149 126.5 L 259.02491694352 126.5 L 259.94019933555 144.57142857143 L 260.85548172757 144.57142857143 L 261.7707641196 144.57142857143 L 262.68604651163 144.57142857143 L 263.60132890365 144.57142857143 L 264.51661129568 144.57142857143 L 265.43189368771 144.57142857143 L 266.34717607973 126.5 L 267.26245847176 126.5 L 268.17774086379 126.5 L 269.09302325581 126.5 L 270.00830564784 126.5 L 270.92358803987 108.42857142857 L 271.83887043189 126.5 L 272.75415282392 126.5 L 273.66943521595 144.57142857143 L 274.58471760797 144.57142857143 L 275.5 144.57142857143 L 276.41528239203 144.57142857143 L 277.33056478405 126.5 L 278.24584717608 108.42857142857 L 279.16112956811 90.357142857143 L 280.07641196013 108.42857142857 L 280.99169435216 108.42857142857 L 281.90697674419 126.5 L 282.82225913621 144.57142857143 L 283.73754152824 144.57142857143 L 284.65282392027 144.57142857143 L 285.56810631229 144.57142857143 L 286.48338870432 162.64285714286 L 287.39867109635 162.64285714286 L 288.31395348837 144.57142857143 L 289.2292358804 144.57142857143 L 290.14451827243 144.57142857143 L 291.05980066445 144.57142857143 L 291.97508305648 144.57142857143 L 292.8903654485 144.57142857143 L 293.80564784053 144.57142857143 L 294.72093023256 144.57142857143 L 295.63621262458 162.64285714286 L 296.55149501661 162.64285714286 L 297.46677740864 162.64285714286 L 298.38205980066 144.57142857143 L 299.29734219269 144.57142857143 L 300.21262458472 162.64285714286 L 301.12790697674 180.71428571429 L 302.04318936877 180.71428571429 L 302.9584717608 180.71428571429 L 303.87375415282 180.71428571429 L 304.78903654485 180.71428571429 L 305.70431893688 180.71428571429 L 306.6196013289 180.71428571429 L 307.53488372093 162.64285714286 L 308.45016611296 162.64285714286 L 309.36544850498 162.64285714286 L 310.28073089701 162.64285714286 L 311.19601328904 144.57142857143 L 312.11129568106 144.57142857143 L 313.02657807309 144.57142857143 L 313.94186046512 126.5 L 314.85714285714 126.5 L 315.77242524917 108.42857142857 L 316.6877076412 108.42857142857 L 317.60299003322 108.42857142857 L 318.51827242525 108.42857142857 L 319.43355481728 72.285714285714 L 320.3488372093 108.42857142857 L 321.26411960133 90.357142857143 L 322.17940199336 90.357142857143 L 323.09468438538 108.42857142857 L 324.00996677741 90.357142857143 L 324.92524916944 108.42857142857 L 325.84053156146 108.42857142857 L 326.75581395349 108.42857142857 L 327.67109634551 126.5 L 328.58637873754 126.5 L 329.50166112957 108.42857142857 L 330.41694352159 126.5 L 331.33222591362 126.5 L 332.24750830565 144.57142857143 L 333.16279069767 144.57142857143 L 334.0780730897 162.64285714286 L 334.99335548173 162.64285714286 L 335.90863787375 144.57142857143 L 336.82392026578 144.57142857143 L 337.73920265781 144.57142857143 L 338.65448504983 126.5 L 339.56976744186 126.5 L 340.48504983389 108.42857142857 L 341.40033222591 90.357142857143 L 342.31561461794 126.5 L 343.23089700997 126.5 L 344.14617940199 144.57142857143 L 345.06146179402 144.57142857143 L 345.97674418605 162.64285714286 L 346.89202657807 126.5 L 347.8073089701 144.57142857143 L 348.72259136213 144.57142857143 L 349.63787375415 144.57142857143 L 350.55315614618 126.5 L 351.46843853821 126.5 L 352.38372093023 126.5 L 353.29900332226 108.42857142857 L 354.21428571429 108.42857142857 L 355.12956810631 108.42857142857 L 356.04485049834 126.5 L 356.96013289037 126.5 L 357.87541528239 144.57142857143 L 358.79069767442 144.57142857143 L 359.70598006645 126.5 L 360.62126245847 126.5 L 361.5365448505 108.42857142857 L 362.45182724252 126.5 L 363.36710963455 126.5 L 364.28239202658 126.5 L 365.1976744186 144.57142857143 L 366.11295681063 144.57142857143 L 367.02823920266 126.5 L 367.94352159468 126.5 L 368.85880398671 108.42857142857 L 369.77408637874 126.5 L 370.68936877076 126.5 L 371.60465116279 108.42857142857 L 372.51993355482 126.5 L 373.43521594684 126.5 L 374.35049833887 126.5 L 375.2657807309 126.5 L 376.18106312292 126.5 L 377.09634551495 126.5 L 378.01162790698 126.5 L 378.926910299 162.64285714286 L 379.84219269103 144.57142857143 L 380.75747508306 126.5 L 381.67275747508 144.57142857143 L 382.58803986711 126.5 L 383.50332225914 108.42857142857 L 384.41860465116 126.5 L 385.33388704319 126.5 L 386.24916943522 126.5 L 387.16445182724 126.5 L 388.07973421927 126.5 L 388.9950166113 144.57142857143 L 389.91029900332 144.57142857143 L 390.82558139535 126.5 L 391.74086378738 144.57142857143 L 392.6561461794 144.57142857143 L 393.57142857143 144.57142857143 L 394.48671096346 126.5 L 395.40199335548 126.5 L 396.31727574751 108.42857142857 L 397.23255813953 108.42857142857 L 398.14784053156 108.42857142857 L 399.06312292359 126.5 L 399.97840531561 108.42857142857 L 400.89368770764 126.5 L 401.80897009967 126.5 L 402.72425249169 126.5 L 403.63953488372 126.5 L 404.55481727575 126.5 L 405.47009966777 126.5 L 406.3853820598 126.5 L 407.30066445183 126.5 L 408.21594684385 126.5 L 409.13122923588 126.5 L 410.04651162791 126.5 L 410.96179401993 108.42857142857 L 411.87707641196 126.5 L 412.79235880399 108.42857142857 L 413.70764119601 108.42857142857 L 414.62292358804 126.5 L 415.53820598007 90.357142857143 L 416.45348837209 90.357142857143 L 417.36877076412 90.357142857143 L 418.28405315615 108.42857142857 L 419.19933554817 108.42857142857 L 420.1146179402 108.42857142857 L 421.02990033223 108.42857142857 L 421.94518272425 108.42857142857 L 422.86046511628 108.42857142857 L 423.77574750831 108.42857142857 L 424.69102990033 108.42857142857 L 425.60631229236 108.42857142857 L 426.52159468439 90.357142857143 L 427.43687707641 108.42857142857 L 428.35215946844 126.5 L 429.26744186047 108.42857142857 L 430.18272425249 126.5 L 431.09800664452 126.5 L 432.01328903654 126.5 L 432.92857142857 126.5 L 433.8438538206 126.5 L 434.75913621262 144.57142857143 L 435.67441860465 144.57142857143 L 436.58970099668 144.57142857143 L 437.5049833887 144.57142857143 L 438.42026578073 144.57142857143 L 439.33554817276 162.64285714286 L 440.25083056478 162.64285714286 L 441.16611295681 162.64285714286 L 442.08139534884 162.64285714286 L 442.99667774086 180.71428571429 L 443.91196013289 180.71428571429 L 444.82724252492 162.64285714286 L 445.74252491694 162.64285714286 L 446.65780730897 162.64285714286 L 447.573089701 162.64285714286 L 448.48837209302 162.64285714286 L 449.40365448505 162.64285714286 L 450.31893687708 162.64285714286 L 451.2342192691 180.71428571429 L 452.14950166113 162.64285714286 L 453.06478405316 162.64285714286 L 453.98006644518 180.71428571429 L 454.89534883721 162.64285714286 L 455.81063122924 162.64285714286 L 456.72591362126 162.64285714286 L 457.64119601329 162.64285714286 L 458.55647840532 162.64285714286 L 459.47176079734 162.64285714286 L 460.38704318937 180.71428571429 L 461.3023255814 180.71428571429 L 462.21760797342 162.64285714286 L 463.13289036545 162.64285714286 L 464.04817275748 162.64285714286 L 464.9634551495 162.64285714286 L 465.87873754153 162.64285714286 L 466.79401993355 162.64285714286 L 467.70930232558 162.64285714286 L 468.62458471761 180.71428571429 L 469.53986710963 162.64285714286 L 470.45514950166 162.64285714286 L 471.37043189369 180.71428571429 L 472.28571428571 180.71428571429 L 473.20099667774 180.71428571429 L 474.11627906977 180.71428571429 L 475.03156146179 198.78571428571 L 475.94684385382 198.78571428571 L 476.86212624585 180.71428571429 L 477.77740863787 162.64285714286 L 478.6926910299 162.64285714286 L 479.60797342193 162.64285714286 L 480.52325581395 162.64285714286 L 481.43853820598 162.64285714286 L 482.35382059801 162.64285714286 L 483.26910299003 162.64285714286 L 484.18438538206 162.64285714286 L 485.09966777409 162.64285714286 L 486.01495016611 162.64285714286 L 486.93023255814 162.64285714286 L 487.84551495017 162.64285714286 L 488.76079734219 144.57142857143 L 489.67607973422 144.57142857143 L 490.59136212625 144.57142857143 L 491.50664451827 126.5 L 492.4219269103 126.5 L 493.33720930233 126.5 L 494.25249169435 126.5 L 495.16777408638 144.57142857143 L 496.08305647841 126.5 L 496.99833887043 144.57142857143 L 497.91362126246 144.57142857143 L 498.82890365449 162.64285714286 L 499.74418604651 162.64285714286 L 500.65946843854 180.71428571429 L 501.57475083056 180.71428571429 L 502.49003322259 180.71428571429 L 503.40531561462 198.78571428571 L 504.32059800664 198.78571428571 L 505.23588039867 198.78571428571 L 506.1511627907 180.71428571429 L 507.06644518272 198.78571428571 L 507.98172757475 180.71428571429 L 508.89700996678 180.71428571429 L 509.8122923588 180.71428571429 L 510.72757475083 180.71428571429 L 511.64285714286 180.71428571429 L 512.55813953488 180.71428571429 L 513.47342192691 180.71428571429 L 514.38870431894 162.64285714286 L 515.30398671096 162.64285714286 L 516.21926910299 162.64285714286 L 517.13455149502 180.71428571429 L 518.04983388704 162.64285714286 L 518.96511627907 162.64285714286 L 519.8803986711 162.64285714286 L 520.79568106312 162.64285714286 L 521.71096345515 162.64285714286 L 522.62624584718 162.64285714286 L 523.5415282392 162.64285714286 L 524.45681063123 162.64285714286 L 525.37209302326 162.64285714286 L 526.28737541528 162.64285714286 L 527.20265780731 180.71428571429 L 528.11794019934 180.71428571429 L 529.03322259136 162.64285714286 L 529.94850498339 162.64285714286 L 530.86378737542 162.64285714286 L 531.77906976744 144.57142857143 L 532.69435215947 126.5 L 533.60963455149 144.57142857143 L 534.52491694352 144.57142857143 L 535.44019933555 126.5 L 536.35548172757 126.5 L 537.2707641196 126.5 L 538.18604651163 144.57142857143 L 539.10132890365 144.57142857143 L 540.01661129568 144.57142857143 L 540.93189368771 144.57142857143 L 541.84717607973 144.57142857143 L 542.76245847176 144.57142857143 L 543.67774086379 144.57142857143 L 544.59302325581 162.64285714286 L 545.50830564784 162.64285714286 L 546.42358803987 144.57142857143 L 547.33887043189 144.57142857143 L 548.25415282392 144.57142857143 L 549.16943521595 126.5 L 551 108.42857142857" class="highcharts-graph" data-z-index="1" stroke="rgb(192, 57, 43)" stroke-opacity=" 1" stroke-width="2" stroke-linejoin="round" stroke-linecap="round" filter="none" aria-hidden="false" role="region" tabindex="-1" style="outline: none;" aria-label="Ask 1, line 5 of 7 with 600 data points."></path></g><g class="highcharts-markers highcharts-series-4 highcharts-line-series" data-z-index="0.1" opacity="1" transform="translate(39,42) scale(1 1)" clip-path="none" aria-hidden="true"></g><g class="highcharts-series highcharts-series-5 highcharts-line-series" data-z-index="0.1" opacity="1" transform="translate(39,42) scale(1 1)" clip-path="url(#highcharts-2gu91ep-685089-)" aria-hidden="false"><path fill="none" d="M 2.7458471760797 108.42857142857 L 3.6611295681063 90.357142857143 L 4.5764119601329 90.357142857143 L 6.406976744186 108.42857142857 L 7.3222591362126 108.42857142857 L 8.2375415282392 108.42857142857 L 9.1528239202658 108.42857142857 L 10.983388704319 90.357142857143 L 11.898671096346 90.357142857143 L 12.813953488372 90.357142857143 L 13.729235880399 108.42857142857 L 14.644518272425 90.357142857143 L 15.559800664452 90.357142857143 L 17.390365448505 90.357142857143 L 19.220930232558 90.357142857143 L 21.051495016611 108.42857142857 L 23.797342192691 108.42857142857 L 24.712624584718 90.357142857143 L 25.627906976744 90.357142857143 L 26.543189368771 90.357142857143 L 27.458471760797 108.42857142857 L 28.373754152824 108.42857142857 L 29.28903654485 90.357142857143 L 30.204318936877 90.357142857143 L 31.119601328904 72.285714285714 L 32.03488372093 72.285714285714 L 32.950166112957 72.285714285714 L 33.865448504983 90.357142857143 L 36.611295681063 108.42857142857 L 38.441860465116 108.42857142857 L 43.018272425249 108.42857142857 L 43.933554817276 90.357142857143 L 44.848837209302 108.42857142857 L 48.509966777409 90.357142857143 L 49.425249169435 90.357142857143 L 50.340531561462 90.357142857143 L 52.171096345515 90.357142857143 L 53.086378737542 90.357142857143 L 54.916943521595 90.357142857143 L 55.832225913621 90.357142857143 L 56.747508305648 72.285714285714 L 58.578073089701 72.285714285714 L 59.493355481728 54.214285714286 L 60.408637873754 54.214285714286 L 61.323920265781 54.214285714286 L 62.239202657807 54.214285714286 L 64.06976744186 72.285714285714 L 65.900332225914 36.142857142857 L 66.81561461794 36.142857142857 L 67.730897009967 18.071428571429 L 68.646179401993 36.142857142857 L 69.56146179402 18.071428571429 L 70.476744186047 18.071428571429 L 71.392026578073 36.142857142857 L 72.3073089701 54.214285714286 L 73.222591362126 54.214285714286 L 75.968438538206 54.214285714286 L 78.714285714286 54.214285714286 L 79.629568106312 72.285714285714 L 81.460132890365 90.357142857143 L 83.290697674419 90.357142857143 L 84.205980066445 108.42857142857 L 85.121262458472 108.42857142857 L 88.782392026578 108.42857142857 L 89.697674418605 90.357142857143 L 91.528239202658 108.42857142857 L 92.443521594684 90.357142857143 L 96.104651162791 108.42857142857 L 97.019933554817 90.357142857143 L 97.935215946844 72.285714285714 L 98.85049833887 72.285714285714 L 100.68106312292 90.357142857143 L 102.51162790698 90.357142857143 L 104.34219269103 108.42857142857 L 105.25747508306 90.357142857143 L 110.74916943522 90.357142857143 L 112.57973421927 108.42857142857 L 114.41029900332 126.5 L 115.32558139535 126.5 L 116.24086378738 126.5 L 120.81727574751 108.42857142857 L 121.73255813953 108.42857142857 L 122.64784053156 90.357142857143 L 124.47840531561 90.357142857143 L 125.39368770764 108.42857142857 L 126.30897009967 108.42857142857 L 128.13953488372 90.357142857143 L 129.05481727575 90.357142857143 L 132.71594684385 72.285714285714 L 133.63122923588 72.285714285714 L 134.54651162791 54.214285714286 L 136.37707641196 54.214285714286 L 137.29235880399 54.214285714286 L 139.12292358804 18.071428571429 L 140.03820598007 54.214285714286 L 140.95348837209 72.285714285714 L 141.86877076412 72.285714285714 L 142.78405315615 54.214285714286 L 146.44518272425 90.357142857143 L 148.27574750831 72.285714285714 L 150.10631229236 90.357142857143 L 151.02159468439 72.285714285714 L 151.93687707641 72.285714285714 L 153.76744186047 72.285714285714 L 154.68272425249 72.285714285714 L 155.59800664452 72.285714285714 L 157.42857142857 72.285714285714 L 159.25913621262 90.357142857143 L 160.17441860465 72.285714285714 L 162.0049833887 72.285714285714 L 162.92026578073 72.285714285714 L 164.75083056478 72.285714285714 L 165.66611295681 72.285714285714 L 166.58139534884 90.357142857143 L 168.41196013289 90.357142857143 L 169.32724252492 72.285714285714 L 171.15780730897 36.142857142857 L 172.073089701 54.214285714286 L 172.98837209302 72.285714285714 L 173.90365448505 90.357142857143 L 175.7342192691 108.42857142857 L 178.48006644518 108.42857142857 L 180.31063122924 108.42857142857 L 183.05647840532 90.357142857143 L 184.88704318937 90.357142857143 L 186.71760797342 108.42857142857 L 188.54817275748 126.5 L 189.4634551495 108.42857142857 L 197.70099667774 108.42857142857 L 200.44684385382 108.42857142857 L 201.36212624585 108.42857142857 L 202.27740863787 108.42857142857 L 205.02325581395 72.285714285714 L 206.85382059801 72.285714285714 L 207.76910299003 72.285714285714 L 208.68438538206 72.285714285714 L 210.51495016611 90.357142857143 L 211.43023255814 72.285714285714 L 212.34551495017 90.357142857143 L 215.09136212625 90.357142857143 L 216.9219269103 108.42857142857 L 218.75249169435 126.5 L 221.49833887043 108.42857142857 L 222.41362126246 108.42857142857 L 223.32890365449 90.357142857143 L 224.24418604651 90.357142857143 L 225.15946843854 108.42857142857 L 226.07475083056 90.357142857143 L 226.99003322259 108.42857142857 L 227.90531561462 90.357142857143 L 228.82059800664 90.357142857143 L 229.73588039867 90.357142857143 L 230.6511627907 72.285714285714 L 231.56644518272 72.285714285714 L 232.48172757475 90.357142857143 L 234.3122923588 90.357142857143 L 235.22757475083 90.357142857143 L 237.05813953488 72.285714285714 L 238.88870431894 54.214285714286 L 239.80398671096 72.285714285714 L 241.63455149502 72.285714285714 L 242.54983388704 108.42857142857 L 243.46511627907 108.42857142857 L 244.3803986711 108.42857142857 L 246.21096345515 108.42857142857 L 247.12624584718 108.42857142857 L 248.0415282392 108.42857142857 L 248.95681063123 108.42857142857 L 249.87209302326 108.42857142857 L 251.70265780731 108.42857142857 L 253.53322259136 108.42857142857 L 254.44850498339 108.42857142857 L 255.36378737542 108.42857142857 L 259.02491694352 126.5 L 261.7707641196 144.57142857143 L 265.43189368771 126.5 L 268.17774086379 126.5 L 269.09302325581 108.42857142857 L 270.92358803987 108.42857142857 L 274.58471760797 126.5 L 276.41528239203 126.5 L 277.33056478405 108.42857142857 L 278.24584717608 90.357142857143 L 279.16112956811 90.357142857143 L 284.65282392027 144.57142857143 L 285.56810631229 144.57142857143 L 287.39867109635 144.57142857143 L 288.31395348837 144.57142857143 L 290.14451827243 144.57142857143 L 296.55149501661 144.57142857143 L 297.46677740864 144.57142857143 L 298.38205980066 144.57142857143 L 299.29734219269 162.64285714286 L 300.21262458472 162.64285714286 L 306.6196013289 162.64285714286 L 310.28073089701 144.57142857143 L 313.94186046512 108.42857142857 L 314.85714285714 108.42857142857 L 315.77242524917 90.357142857143 L 316.6877076412 90.357142857143 L 317.60299003322 108.42857142857 L 318.51827242525 90.357142857143 L 319.43355481728 72.285714285714 L 320.3488372093 90.357142857143 L 322.17940199336 108.42857142857 L 323.09468438538 90.357142857143 L 324.00996677741 90.357142857143 L 325.84053156146 108.42857142857 L 332.24750830565 126.5 L 335.90863787375 144.57142857143 L 340.48504983389 108.42857142857 L 341.40033222591 90.357142857143 L 345.06146179402 144.57142857143 L 345.97674418605 126.5 L 346.89202657807 126.5 L 347.8073089701 126.5 L 349.63787375415 126.5 L 350.55315614618 126.5 L 352.38372093023 108.42857142857 L 354.21428571429 90.357142857143 L 355.12956810631 108.42857142857 L 356.96013289037 126.5 L 360.62126245847 108.42857142857 L 362.45182724252 108.42857142857 L 364.28239202658 126.5 L 366.11295681063 126.5 L 368.85880398671 108.42857142857 L 370.68936877076 108.42857142857 L 371.60465116279 108.42857142857 L 372.51993355482 108.42857142857 L 373.43521594684 108.42857142857 L 374.35049833887 108.42857142857 L 375.2657807309 126.5 L 376.18106312292 126.5 L 377.09634551495 126.5 L 378.01162790698 126.5 L 379.84219269103 126.5 L 380.75747508306 126.5 L 381.67275747508 126.5 L 382.58803986711 108.42857142857 L 383.50332225914 108.42857142857 L 388.07973421927 126.5 L 388.9950166113 126.5 L 391.74086378738 126.5 L 393.57142857143 126.5 L 395.40199335548 108.42857142857 L 398.14784053156 108.42857142857 L 399.06312292359 108.42857142857 L 399.97840531561 90.357142857143 L 400.89368770764 108.42857142857 L 401.80897009967 126.5 L 405.47009966777 108.42857142857 L 406.3853820598 108.42857142857 L 409.13122923588 108.42857142857 L 410.96179401993 108.42857142857 L 411.87707641196 108.42857142857 L 412.79235880399 90.357142857143 L 413.70764119601 108.42857142857 L 414.62292358804 108.42857142857 L 415.53820598007 90.357142857143 L 416.45348837209 72.285714285714 L 417.36877076412 90.357142857143 L 418.28405315615 90.357142857143 L 419.19933554817 108.42857142857 L 420.1146179402 90.357142857143 L 422.86046511628 108.42857142857 L 425.60631229236 90.357142857143 L 426.52159468439 90.357142857143 L 427.43687707641 108.42857142857 L 428.35215946844 108.42857142857 L 429.26744186047 108.42857142857 L 430.18272425249 108.42857142857 L 432.01328903654 126.5 L 434.75913621262 126.5 L 438.42026578073 144.57142857143 L 440.25083056478 162.64285714286 L 441.16611295681 162.64285714286 L 444.82724252492 162.64285714286 L 448.48837209302 162.64285714286 L 449.40365448505 144.57142857143 L 452.14950166113 162.64285714286 L 453.06478405316 162.64285714286 L 453.98006644518 162.64285714286 L 456.72591362126 162.64285714286 L 459.47176079734 162.64285714286 L 460.38704318937 162.64285714286 L 462.21760797342 144.57142857143 L 464.04817275748 144.57142857143 L 467.70930232558 162.64285714286 L 470.45514950166 162.64285714286 L 471.37043189369 162.64285714286 L 474.11627906977 180.71428571429 L 475.03156146179 180.71428571429 L 475.94684385382 180.71428571429 L 476.86212624585 162.64285714286 L 481.43853820598 162.64285714286 L 489.67607973422 144.57142857143 L 492.4219269103 108.42857142857 L 494.25249169435 126.5 L 495.16777408638 126.5 L 506.1511627907 180.71428571429 L 507.06644518272 180.71428571429 L 507.98172757475 180.71428571429 L 511.64285714286 162.64285714286 L 514.38870431894 162.64285714286 L 515.30398671096 144.57142857143 L 516.21926910299 162.64285714286 L 527.20265780731 162.64285714286 L 529.03322259136 162.64285714286 L 529.94850498339 144.57142857143 L 531.77906976744 126.5 L 537.2707641196 126.5 L 543.67774086379 144.57142857143 L 546.42358803987 144.57142857143 L 548.25415282392 126.5 L 549.16943521595 126.5" class="highcharts-graph" data-z-index="1" stroke="rgb(192, 57, 43)" stroke-opacity=" 0.75" stroke-width="2" stroke-linejoin="round" stroke-linecap="round" filter="none" aria-hidden="false" role="region" tabindex="-1" style="outline: none;" aria-label="Ask 2, line 6 of 7 with 316 data points."></path></g><g class="highcharts-markers highcharts-series-5 highcharts-line-series" data-z-index="0.1" opacity="1" transform="translate(39,42) scale(1 1)" clip-path="none" aria-hidden="true"></g><g class="highcharts-series highcharts-series-6 highcharts-line-series" data-z-index="0.1" opacity="1" transform="translate(39,42) scale(1 1)" clip-path="url(#highcharts-2gu91ep-685089-)" aria-hidden="true"></g><g class="highcharts-markers highcharts-series-6 highcharts-line-series" data-z-index="0.1" opacity="1" transform="translate(39,42) scale(1 1)" clip-path="none" aria-hidden="true"></g></g><text x="300" text-anchor="middle" class="highcharts-title" data-z-index="4" style="font-size: 1em; color: rgb(240, 240, 243); font-weight: bold; fill: rgb(240, 240, 243);" y="22" aria-hidden="true">VEV_5500 - Price</text><text x="300" text-anchor="middle" class="highcharts-subtitle" data-z-index="4" style="color: rgb(240, 240, 243); font-size: 0.8em; fill: rgb(240, 240, 243);" y="41" aria-hidden="true"></text><text x="10" text-anchor="start" class="highcharts-caption" data-z-index="4" style="color: rgb(102, 102, 102); font-size: 0.8em; fill: rgb(102, 102, 102);" y="397" aria-hidden="true"></text><g class="highcharts-legend highcharts-no-tooltip" data-z-index="7" transform="translate(41,355)" aria-hidden="true"><rect fill="transparent" class="highcharts-legend-box" rx="0" ry="0" stroke="#999999" stroke-width="0" filter="none" x="0" y="0" width="518" height="30"></rect><g data-z-index="1"><g><g class="highcharts-legend-item highcharts-line-series highcharts-color-undefined highcharts-series-0" data-z-index="1" transform="translate(8,3)"><path fill="none" class="highcharts-graph" stroke-width="2" stroke-linecap="round" d="M 1 13 L 15 13" stroke="rgb(39, 174, 96)" stroke-opacity=" 0.5"></path><text x="21" style="color: rgb(240, 240, 243); cursor: pointer; font-size: 0.8em; text-decoration: none; fill: rgb(240, 240, 243);" text-anchor="start" data-z-index="2" y="17">Bid 3</text></g><g class="highcharts-legend-item highcharts-line-series highcharts-color-undefined highcharts-series-1" data-z-index="1" transform="translate(78.14999961853027,3)"><path fill="none" class="highcharts-graph" stroke-width="2" stroke-linecap="round" d="M 1 13 L 15 13" stroke="rgb(39, 174, 96)" stroke-opacity=" 0.75"></path><text x="21" y="17" style="color: rgb(240, 240, 243); cursor: pointer; font-size: 0.8em; text-decoration: none; fill: rgb(240, 240, 243);" text-anchor="start" data-z-index="2">Bid 2</text></g><g class="highcharts-legend-item highcharts-line-series highcharts-color-undefined highcharts-series-2" data-z-index="1" transform="translate(148.29999923706055,3)"><path fill="none" class="highcharts-graph" stroke-width="2" stroke-linecap="round" d="M 1 13 L 15 13" stroke="rgb(39, 174, 96)" stroke-opacity=" 1"></path><text x="21" y="17" style="color: rgb(240, 240, 243); cursor: pointer; font-size: 0.8em; text-decoration: none; fill: rgb(240, 240, 243);" text-anchor="start" data-z-index="2">Bid 1</text></g><g class="highcharts-legend-item highcharts-line-series highcharts-color-undefined highcharts-series-3" data-z-index="1" transform="translate(218.44999885559082,3)"><path fill="none" class="highcharts-graph" stroke-width="2" stroke-dasharray="8,6" d="M 0 13 L 16 13" stroke="gray"></path><text x="21" y="17" style="color: rgb(240, 240, 243); cursor: pointer; font-size: 0.8em; text-decoration: none; fill: rgb(240, 240, 243);" text-anchor="start" data-z-index="2">Mid price</text></g><g class="highcharts-legend-item highcharts-line-series highcharts-color-undefined highcharts-series-4" data-z-index="1" transform="translate(311.4499988555908,3)"><path fill="none" class="highcharts-graph" stroke-width="2" stroke-linecap="round" d="M 1 13 L 15 13" stroke="rgb(192, 57, 43)" stroke-opacity=" 1"></path><text x="21" y="17" style="color: rgb(240, 240, 243); cursor: pointer; font-size: 0.8em; text-decoration: none; fill: rgb(240, 240, 243);" text-anchor="start" data-z-index="2">Ask 1</text></g><g class="highcharts-legend-item highcharts-line-series highcharts-color-undefined highcharts-series-5" data-z-index="1" transform="translate(384.3833312988281,3)"><path fill="none" class="highcharts-graph" stroke-width="2" stroke-linecap="round" d="M 1 13 L 15 13" stroke="rgb(192, 57, 43)" stroke-opacity=" 0.75"></path><text x="21" y="17" style="color: rgb(240, 240, 243); cursor: pointer; font-size: 0.8em; text-decoration: none; fill: rgb(240, 240, 243);" text-anchor="start" data-z-index="2">Ask 2</text></g><g class="highcharts-legend-item highcharts-line-series highcharts-color-undefined highcharts-series-6" data-z-index="1" transform="translate(457.31666374206543,3)"><path fill="none" class="highcharts-graph" stroke-width="2" stroke-linecap="round" d="M 1 13 L 15 13" stroke="rgb(192, 57, 43)" stroke-opacity=" 0.5"></path><text x="21" y="17" style="color: rgb(240, 240, 243); cursor: pointer; font-size: 0.8em; text-decoration: none; fill: rgb(240, 240, 243);" text-anchor="start" data-z-index="2">Ask 3</text></g></g></g></g><g class="highcharts-axis-labels highcharts-xaxis-labels" data-z-index="7" aria-hidden="true"><text x="39" style="color: rgb(240, 240, 243); cursor: default; font-size: 0.8em; fill: rgb(240, 240, 243);" text-anchor="middle" transform="translate(0,0)" y="322" opacity="1">0</text><text x="150.66445182724" style="color: rgb(240, 240, 243); cursor: default; font-size: 0.8em; fill: rgb(240, 240, 243);" text-anchor="middle" transform="translate(0,0)" y="322" opacity="1">600,000</text><text x="260.49833887043" style="color: rgb(240, 240, 243); cursor: default; font-size: 0.8em; fill: rgb(240, 240, 243);" text-anchor="middle" transform="translate(0,0)" y="322" opacity="1">1,200,000</text><text x="370.33222591362" style="color: rgb(240, 240, 243); cursor: default; font-size: 0.8em; fill: rgb(240, 240, 243);" text-anchor="middle" transform="translate(0,0)" y="322" opacity="1">1,800,000</text><text x="480.16611295681" style="color: rgb(240, 240, 243); cursor: default; font-size: 0.8em; fill: rgb(240, 240, 243);" text-anchor="middle" transform="translate(0,0)" y="322" opacity="1">2,400,000</text></g><g class="highcharts-axis-labels highcharts-yaxis-labels" data-z-index="7" aria-hidden="true"><text x="24" style="color: rgb(240, 240, 243); cursor: default; font-size: 0.8em; fill: rgb(240, 240, 243);" text-anchor="end" transform="translate(0,0)" y="293" opacity="1">0</text><text x="24" style="color: rgb(240, 240, 243); cursor: default; font-size: 0.8em; fill: rgb(240, 240, 243);" text-anchor="end" transform="translate(0,0)" y="257" opacity="1">2</text><text x="24" style="color: rgb(240, 240, 243); cursor: default; font-size: 0.8em; fill: rgb(240, 240, 243);" text-anchor="end" transform="translate(0,0)" y="221" opacity="1">4</text><text x="24" style="color: rgb(240, 240, 243); cursor: default; font-size: 0.8em; fill: rgb(240, 240, 243);" text-anchor="end" transform="translate(0,0)" y="185" opacity="1">6</text><text x="24" style="color: rgb(240, 240, 243); cursor: default; font-size: 0.8em; fill: rgb(240, 240, 243);" text-anchor="end" transform="translate(0,0)" y="148" opacity="1">8</text><text x="24" style="color: rgb(240, 240, 243); cursor: default; font-size: 0.8em; fill: rgb(240, 240, 243);" text-anchor="end" transform="translate(0,0)" y="112" opacity="1">10</text><text x="24" style="color: rgb(240, 240, 243); cursor: default; font-size: 0.8em; fill: rgb(240, 240, 243);" text-anchor="end" transform="translate(0,0)" y="76" opacity="1">12</text><text x="0" style="color: rgb(240, 240, 243); cursor: default; font-size: 0.8em; fill: rgb(240, 240, 243);" text-anchor="end" transform="translate(0,0)" visibility="hidden">14</text></g><text x="590" class="highcharts-credits" text-anchor="end" data-z-index="8" style="cursor: pointer; color: rgb(240, 240, 243); font-size: 0.6em; fill: rgb(240, 240, 243);" y="395" aria-label="Chart credits: Highcharts.com" aria-hidden="false">Highcharts.com</text></svg>