<svg xmlns:xlink="http://www.w3.org/1999/xlink" version="1.1" class="highcharts-root" style="font-family: Helvetica, Arial, sans-serif; font-size: 1rem;" xmlns="http://www.w3.org/2000/svg" width="600" height="400" viewBox="0 0 600 400" aria-label="Interactive chart" aria-hidden="false"><desc aria-hidden="true">Created with Highcharts 11.4.8</desc><defs aria-hidden="true"><filter id="highcharts-drop-shadow-6"><feDropShadow dx="1" dy="1" flood-color="#000000" flood-opacity="0.75" stdDeviation="2.5"></feDropShadow></filter><clipPath id="highcharts-m2etevr-37981-"><rect x="0" y="0" width="539" height="253" fill="none"></rect></clipPath></defs><rect fill="#1f1f20" class="highcharts-background" filter="none" x="0" y="0" width="600" height="400" rx="0" ry="0" aria-hidden="true"></rect><rect fill="none" class="highcharts-plot-background" x="51" y="42" width="539" height="253" filter="none" aria-hidden="true"></rect><g class="highcharts-grid highcharts-xaxis-grid" data-z-index="1" aria-hidden="true"><path fill="none" stroke="#707073" stroke-width="0" stroke-dasharray="none" data-z-index="1" class="highcharts-grid-line" d="M 51.5 42 L 51.5 295" opacity="1"></path><path fill="none" stroke="#707073" stroke-width="0" stroke-dasharray="none" data-z-index="1" class="highcharts-grid-line" d="M 159.5 42 L 159.5 295" opacity="1"></path><path fill="none" stroke="#707073" stroke-width="0" stroke-dasharray="none" data-z-index="1" class="highcharts-grid-line" d="M 267.5 42 L 267.5 295" opacity="1"></path><path fill="none" stroke="#707073" stroke-width="0" stroke-dasharray="none" data-z-index="1" class="highcharts-grid-line" d="M 375.5 42 L 375.5 295" opacity="1"></path><path fill="none" stroke="#707073" stroke-width="0" stroke-dasharray="none" data-z-index="1" class="highcharts-grid-line" d="M 483.5 42 L 483.5 295" opacity="1"></path></g><g class="highcharts-grid highcharts-yaxis-grid" data-z-index="1" aria-hidden="true"><path fill="none" stroke="#707073" stroke-width="1" stroke-dasharray="none" data-z-index="1" class="highcharts-grid-line" d="M 51 295.5 L 590 295.5" opacity="1"></path><path fill="none" stroke="#707073" stroke-width="1" stroke-dasharray="none" data-z-index="1" class="highcharts-grid-line" d="M 51 232.5 L 590 232.5" opacity="1"></path><path fill="none" stroke="#707073" stroke-width="1" stroke-dasharray="none" data-z-index="1" class="highcharts-grid-line" d="M 51 169.5 L 590 169.5" opacity="1"></path><path fill="none" stroke="#707073" stroke-width="1" stroke-dasharray="none" data-z-index="1" class="highcharts-grid-line" d="M 51 105.5 L 590 105.5" opacity="1"></path><path fill="none" stroke="#707073" stroke-width="1" stroke-dasharray="none" data-z-index="1" class="highcharts-grid-line" d="M 51 42.5 L 590 42.5" opacity="1"></path></g><rect fill="none" class="highcharts-plot-border" data-z-index="1" stroke="#606063" stroke-width="0" x="51" y="42" width="539" height="253" aria-hidden="true"></rect><g class="highcharts-axis highcharts-xaxis" data-z-index="2" aria-hidden="true"><path fill="none" class="highcharts-tick" stroke="#707073" stroke-width="1" d="M 51.5 295 L 51.5 305" opacity="1"></path><path fill="none" class="highcharts-tick" stroke="#707073" stroke-width="1" d="M 159.5 295 L 159.5 305" opacity="1"></path><path fill="none" class="highcharts-tick" stroke="#707073" stroke-width="1" d="M 267.5 295 L 267.5 305" opacity="1"></path><path fill="none" class="highcharts-tick" stroke="#707073" stroke-width="1" d="M 375.5 295 L 375.5 305" opacity="1"></path><path fill="none" class="highcharts-tick" stroke="#707073" stroke-width="1" d="M 483.5 295 L 483.5 305" opacity="1"></path><text x="320.5" data-z-index="7" text-anchor="middle" transform="translate(0,0)" class="highcharts-axis-title" style="color: rgb(240, 240, 243); font-size: 0.8em; fill: rgb(240, 240, 243);" y="341">Timestamp</text><path fill="none" class="highcharts-axis-line" stroke="#707073" stroke-width="1" data-z-index="7" d="M 51 295.5 L 590 295.5"></path></g><g class="highcharts-axis highcharts-yaxis" data-z-index="2" aria-hidden="true"><path fill="none" class="highcharts-axis-line" stroke="#707073" stroke-width="0" data-z-index="7" d="M 51 42 L 51 295"></path></g><g class="highcharts-series-group" data-z-index="3" filter="none" aria-hidden="false"><g class="highcharts-series highcharts-series-0 highcharts-line-series highcharts-color-1" data-z-index="0.1" opacity="1" transform="translate(51,42) scale(1 1)" clip-path="url(#highcharts-m2etevr-37981-)" aria-hidden="false"><path fill="none" d="M 0 126.5 L 1.8026755852843 154.9625 L 3.6053511705686 192.9125 L 5.4080267558528 227.7 L 7.2107023411371 253 L 9.0133779264214 253 L 10.816053511706 241.93125 L 12.61872909699 221.375 L 14.421404682274 207.14375 L 16.224080267559 197.65625 L 18.026755852843 215.05 L 19.829431438127 156.54375 L 21.632107023411 162.86875 L 23.434782608696 180.2625 L 25.23745819398 147.05625 L 27.040133779264 156.54375 L 28.842809364548 161.2875 L 30.645484949833 172.35625 L 32.448160535117 186.5875 L 34.250836120401 199.2375 L 36.053511705686 159.70625 L 37.85618729097 183.425 L 39.658862876254 172.35625 L 41.461538461538 177.1 L 43.264214046823 175.51875 L 45.066889632107 166.03125 L 46.869565217391 154.9625 L 48.672240802676 120.175 L 50.47491638796 99.61875 L 52.277591973244 88.55 L 54.080267558528 66.4125 L 55.882943143813 61.66875 L 57.685618729097 58.50625 L 59.488294314381 66.4125 L 61.290969899666 25.3 L 63.09364548495 18.975 L 64.896321070234 31.625 L 66.698996655518 66.4125 L 68.501672240803 42.69375 L 70.304347826087 56.925 L 72.107023411371 28.4625 L 73.909698996656 47.4375 L 75.71237458194 45.85625 L 77.515050167224 53.7625 L 79.317725752508 23.71875 L 81.120401337793 39.53125 L 82.923076923077 28.4625 L 84.725752508361 39.53125 L 86.528428093645 50.6 L 88.33110367893 33.20625 L 90.133779264214 14.23125 L 91.936454849498 2.8421709430404e-14 L 93.739130434783 7.90625 L 95.541806020067 2.8421709430404e-14 L 97.344481605351 12.65 L 99.147157190635 2.8421709430404e-14 L 100.94983277592 6.325 L 102.7525083612 2.8421709430404e-14 L 104.55518394649 11.06875 L 106.35785953177 9.4875 L 108.16053511706 4.74375 L 109.96321070234 2.8421709430404e-14 L 111.76588628763 1.58125 L 113.56856187291 2.8421709430404e-14 L 115.37123745819 2.8421709430404e-14 L 117.17391304348 14.23125 L 118.97658862876 7.90625 L 120.77926421405 15.8125 L 122.58193979933 2.8421709430404e-14 L 124.38461538462 15.8125 L 126.1872909699 2.8421709430404e-14 L 127.98996655518 14.23125 L 129.79264214047 4.74375 L 131.59531772575 6.325 L 133.39799331104 2.8421709430404e-14 L 135.20066889632 3.1625 L 137.00334448161 18.975 L 138.80602006689 36.36875 L 140.60869565217 47.4375 L 142.41137123746 26.88125 L 144.21404682274 30.04375 L 146.01672240803 44.275 L 147.81939799331 9.4875 L 149.6220735786 2.8421709430404e-14 L 151.42474916388 9.4875 L 153.22742474916 9.4875 L 155.03010033445 2.8421709430404e-14 L 156.83277591973 2.8421709430404e-14 L 158.63545150502 9.4875 L 160.4381270903 9.4875 L 162.24080267559 25.3 L 164.04347826087 9.4875 L 165.84615384615 2.8421709430404e-14 L 167.64882943144 2.8421709430404e-14 L 169.45150501672 17.39375 L 171.25418060201 7.90625 L 173.05685618729 22.1375 L 174.85953177258 25.3 L 176.66220735786 2.8421709430404e-14 L 178.46488294314 2.8421709430404e-14 L 180.26755852843 126.5 L 182.07023411371 118.59375 L 183.872909699 132.825 L 185.67558528428 180.2625 L 187.47826086957 177.1 L 189.28093645485 169.19375 L 191.08361204013 222.95625 L 192.88628762542 189.75 L 194.6889632107 205.5625 L 196.49163879599 224.5375 L 198.29431438127 251.41875 L 200.09698996656 229.28125 L 201.89966555184 238.76875 L 203.70234113712 218.2125 L 205.50501672241 230.8625 L 207.30769230769 238.76875 L 209.11036789298 227.7 L 210.91304347826 240.35 L 212.71571906355 227.7 L 214.51839464883 221.375 L 216.32107023411 234.025 L 218.1237458194 229.28125 L 219.92642140468 237.1875 L 221.72909698997 241.93125 L 223.53177257525 253 L 225.33444816054 253 L 227.13712374582 213.46875 L 228.9397993311 241.93125 L 230.74247491639 234.025 L 232.54515050167 229.28125 L 234.34782608696 203.98125 L 236.15050167224 183.425 L 237.95317725753 207.14375 L 239.75585284281 240.35 L 241.55852842809 253 L 243.36120401338 243.5125 L 245.16387959866 234.025 L 246.96655518395 229.28125 L 248.76923076923 253 L 250.57190635452 240.35 L 252.3745819398 218.2125 L 254.17725752508 243.5125 L 255.97993311037 253 L 257.78260869565 227.7 L 259.58528428094 232.44375 L 261.38795986622 238.76875 L 263.1906354515 248.25625 L 264.99331103679 249.8375 L 266.79598662207 237.1875 L 268.59866220736 224.5375 L 270.40133779264 234.025 L 272.20401337793 235.60625 L 274.00668896321 253 L 275.80936454849 253 L 277.61204013378 243.5125 L 279.41471571906 253 L 281.21739130435 253 L 283.02006688963 227.7 L 284.82274247492 241.93125 L 286.6254180602 248.25625 L 288.42809364548 207.14375 L 290.23076923077 218.2125 L 292.03344481605 219.79375 L 293.83612040134 211.8875 L 295.63879598662 229.28125 L 297.44147157191 253 L 299.24414715719 246.675 L 301.04682274247 253 L 302.84949832776 245.09375 L 304.65217391304 243.5125 L 306.45484949833 240.35 L 308.25752508361 232.44375 L 310.0602006689 243.5125 L 311.86287625418 229.28125 L 313.66555183946 224.5375 L 315.46822742475 245.09375 L 317.27090301003 248.25625 L 319.07357859532 230.8625 L 320.8762541806 237.1875 L 322.67892976589 232.44375 L 324.48160535117 207.14375 L 326.28428093645 148.6375 L 328.08695652174 121.75625 L 329.88963210702 107.525 L 331.69230769231 91.7125 L 333.49498327759 64.83125 L 335.29765886288 20.55625 L 337.10033444816 39.53125 L 338.90301003344 2.8421709430404e-14 L 340.70568561873 17.39375 L 342.50836120401 49.01875 L 344.3110367893 47.4375 L 346.11371237458 4.74375 L 347.91638795987 6.325 L 349.71906354515 14.23125 L 351.52173913043 2.8421709430404e-14 L 353.32441471572 7.90625 L 355.127090301 2.8421709430404e-14 L 356.92976588629 2.8421709430404e-14 L 358.73244147157 12.65 L 360.53511705686 126.5 L 362.33779264214 150.21875 L 364.14046822742 188.16875 L 365.94314381271 169.19375 L 367.74581939799 167.6125 L 369.54849498328 154.9625 L 371.35117056856 170.775 L 373.15384615385 215.05 L 374.95652173913 194.49375 L 376.75919732441 188.16875 L 378.5618729097 188.16875 L 380.36454849498 199.2375 L 382.16722408027 185.00625 L 383.96989966555 164.45 L 385.77257525084 148.6375 L 387.57525083612 148.6375 L 389.3779264214 115.43125 L 391.18060200669 154.9625 L 392.98327759197 162.86875 L 394.78595317726 164.45 L 396.58862876254 189.75 L 398.39130434783 197.65625 L 400.19397993311 175.51875 L 401.99665551839 156.54375 L 403.79933110368 158.125 L 405.60200668896 129.6625 L 407.40468227425 90.13125 L 409.20735785953 118.59375 L 411.01003344482 126.5 L 412.8127090301 91.7125 L 414.61538461538 115.43125 L 416.41806020067 139.15 L 418.22073578595 115.43125 L 420.02341137124 91.7125 L 421.82608695652 80.64375 L 423.62876254181 72.7375 L 425.43143812709 83.80625 L 427.23411371237 118.59375 L 429.03678929766 94.875 L 430.83946488294 98.0375 L 432.64214046823 113.85 L 434.44481605351 99.61875 L 436.2474916388 112.26875 L 438.05016722408 154.9625 L 439.85284280936 132.825 L 441.65551839465 142.3125 L 443.45819397993 120.175 L 445.26086956522 139.15 L 447.0635451505 161.2875 L 448.86622073579 135.9875 L 450.66889632107 115.43125 L 452.47157190635 121.75625 L 454.27424749164 120.175 L 456.07692307692 170.775 L 457.87959866221 227.7 L 459.68227424749 253 L 461.48494983278 253 L 463.28762541806 253 L 465.09030100334 234.025 L 466.89297658863 237.1875 L 468.69565217391 253 L 470.4983277592 253 L 472.30100334448 253 L 474.10367892977 245.09375 L 475.90635451505 235.60625 L 477.70903010033 234.025 L 479.51170568562 245.09375 L 481.3143812709 251.41875 L 483.11705685619 230.8625 L 484.91973244147 175.51875 L 486.72240802676 177.1 L 488.52508361204 158.125 L 490.32775919732 2.8421709430404e-14 L 492.13043478261 42.69375 L 493.93311036789 2.8421709430404e-14 L 495.73578595318 15.8125 L 497.53846153846 14.23125 L 499.34113712375 2.8421709430404e-14 L 501.14381270903 2.8421709430404e-14 L 502.94648829431 7.90625 L 504.7491638796 36.36875 L 506.55183946488 77.48125 L 508.35451505017 63.25 L 510.15719063545 49.01875 L 511.95986622074 53.7625 L 513.76254180602 67.99375 L 515.5652173913 93.29375 L 517.36789297659 86.96875 L 519.17056856187 74.31875 L 520.97324414716 74.31875 L 522.77591973244 66.4125 L 524.57859531773 93.29375 L 526.38127090301 156.54375 L 528.18394648829 162.86875 L 529.98662207358 205.5625 L 531.78929765886 246.675 L 533.59197324415 253 L 535.39464882943 241.93125 L 537.19732441472 253 L 539 235.60625" class="highcharts-graph" data-z-index="1" stroke="#CEEDA5" stroke-width="2" stroke-linejoin="round" stroke-linecap="round" filter="none" aria-hidden="false" role="region" tabindex="-1" style="outline: none;" aria-label="ASH_COATED_OSMIUM, line 1 of 2 with 300 data points."></path></g><g class="highcharts-markers highcharts-series-0 highcharts-line-series highcharts-color-1" data-z-index="0.1" opacity="1" transform="translate(51,42) scale(1 1)" clip-path="none" aria-hidden="true"></g><g class="highcharts-series highcharts-series-1 highcharts-line-series highcharts-color-2" data-z-index="0.1" opacity="1" transform="translate(51,42) scale(1 1)" clip-path="url(#highcharts-m2etevr-37981-)" aria-hidden="false"><path fill="none" d="M 0 126.5 L 1.8026755852843 118.59375 L 3.6053511705686 121.75625 L 5.4080267558528 101.2 L 7.2107023411371 74.31875 L 9.0133779264214 72.7375 L 10.816053511706 49.01875 L 12.61872909699 23.71875 L 14.421404682274 15.8125 L 16.224080267559 4.74375 L 18.026755852843 2.8421709430404e-14 L 19.829431438127 2.8421709430404e-14 L 21.632107023411 2.8421709430404e-14 L 23.434782608696 14.23125 L 25.23745819398 3.1625 L 27.040133779264 2.8421709430404e-14 L 28.842809364548 2.8421709430404e-14 L 30.645484949833 2.8421709430404e-14 L 32.448160535117 2.8421709430404e-14 L 34.250836120401 2.8421709430404e-14 L 36.053511705686 2.8421709430404e-14 L 37.85618729097 2.8421709430404e-14 L 39.658862876254 2.8421709430404e-14 L 41.461538461538 4.74375 L 43.264214046823 2.8421709430404e-14 L 45.066889632107 2.8421709430404e-14 L 46.869565217391 2.8421709430404e-14 L 48.672240802676 4.74375 L 50.47491638796 2.8421709430404e-14 L 52.277591973244 7.90625 L 54.080267558528 12.65 L 55.882943143813 3.1625 L 57.685618729097 2.8421709430404e-14 L 59.488294314381 9.4875 L 61.290969899666 2.8421709430404e-14 L 63.09364548495 3.1625 L 64.896321070234 3.1625 L 66.698996655518 4.74375 L 68.501672240803 2.8421709430404e-14 L 70.304347826087 9.4875 L 72.107023411371 23.71875 L 73.909698996656 2.8421709430404e-14 L 75.71237458194 17.39375 L 77.515050167224 15.8125 L 79.317725752508 2.8421709430404e-14 L 81.120401337793 9.4875 L 82.923076923077 2.8421709430404e-14 L 84.725752508361 2.8421709430404e-14 L 86.528428093645 9.4875 L 88.33110367893 2.8421709430404e-14 L 90.133779264214 2.8421709430404e-14 L 91.936454849498 6.325 L 93.739130434783 2.8421709430404e-14 L 95.541806020067 2.8421709430404e-14 L 97.344481605351 2.8421709430404e-14 L 99.147157190635 6.325 L 100.94983277592 7.90625 L 102.7525083612 2.8421709430404e-14 L 104.55518394649 2.8421709430404e-14 L 106.35785953177 2.8421709430404e-14 L 108.16053511706 2.8421709430404e-14 L 109.96321070234 2.8421709430404e-14 L 111.76588628763 2.8421709430404e-14 L 113.56856187291 2.8421709430404e-14 L 115.37123745819 2.8421709430404e-14 L 117.17391304348 12.65 L 118.97658862876 2.8421709430404e-14 L 120.77926421405 2.8421709430404e-14 L 122.58193979933 2.8421709430404e-14 L 124.38461538462 7.90625 L 126.1872909699 2.8421709430404e-14 L 127.98996655518 2.8421709430404e-14 L 129.79264214047 2.8421709430404e-14 L 131.59531772575 2.8421709430404e-14 L 133.39799331104 2.8421709430404e-14 L 135.20066889632 2.8421709430404e-14 L 137.00334448161 7.90625 L 138.80602006689 2.8421709430404e-14 L 140.60869565217 2.8421709430404e-14 L 142.41137123746 2.8421709430404e-14 L 144.21404682274 2.8421709430404e-14 L 146.01672240803 17.39375 L 147.81939799331 41.1125 L 149.6220735786 36.36875 L 151.42474916388 28.4625 L 153.22742474916 4.74375 L 155.03010033445 2.8421709430404e-14 L 156.83277591973 2.8421709430404e-14 L 158.63545150502 17.39375 L 160.4381270903 2.8421709430404e-14 L 162.24080267559 12.65 L 164.04347826087 30.04375 L 165.84615384615 56.925 L 167.64882943144 45.85625 L 169.45150501672 17.39375 L 171.25418060201 2.8421709430404e-14 L 173.05685618729 2.8421709430404e-14 L 174.85953177258 12.65 L 176.66220735786 2.8421709430404e-14 L 178.46488294314 2.8421709430404e-14 L 180.26755852843 126.5 L 182.07023411371 83.80625 L 183.872909699 45.85625 L 185.67558528428 50.6 L 187.47826086957 52.18125 L 189.28093645485 26.88125 L 191.08361204013 2.8421709430404e-14 L 192.88628762542 2.8421709430404e-14 L 194.6889632107 2.8421709430404e-14 L 196.49163879599 2.8421709430404e-14 L 198.29431438127 1.58125 L 200.09698996656 2.8421709430404e-14 L 201.89966555184 2.8421709430404e-14 L 203.70234113712 7.90625 L 205.50501672241 2.8421709430404e-14 L 207.30769230769 2.8421709430404e-14 L 209.11036789298 2.8421709430404e-14 L 210.91304347826 34.7875 L 212.71571906355 18.975 L 214.51839464883 28.4625 L 216.32107023411 33.20625 L 218.1237458194 15.8125 L 219.92642140468 6.325 L 221.72909698997 11.06875 L 223.53177257525 9.4875 L 225.33444816054 9.4875 L 227.13712374582 36.36875 L 228.9397993311 6.325 L 230.74247491639 18.975 L 232.54515050167 26.88125 L 234.34782608696 50.6 L 236.15050167224 25.3 L 237.95317725753 3.1625 L 239.75585284281 2.8421709430404e-14 L 241.55852842809 2.8421709430404e-14 L 243.36120401338 2.8421709430404e-14 L 245.16387959866 2.8421709430404e-14 L 246.96655518395 11.06875 L 248.76923076923 2.8421709430404e-14 L 250.57190635452 22.1375 L 252.3745819398 1.58125 L 254.17725752508 15.8125 L 255.97993311037 2.8421709430404e-14 L 257.78260869565 1.58125 L 259.58528428094 9.4875 L 261.38795986622 12.65 L 263.1906354515 25.3 L 264.99331103679 39.53125 L 266.79598662207 33.20625 L 268.59866220736 15.8125 L 270.40133779264 4.74375 L 272.20401337793 2.8421709430404e-14 L 274.00668896321 2.8421709430404e-14 L 275.80936454849 1.58125 L 277.61204013378 33.20625 L 279.41471571906 12.65 L 281.21739130435 4.74375 L 283.02006688963 4.74375 L 284.82274247492 2.8421709430404e-14 L 286.6254180602 11.06875 L 288.42809364548 6.325 L 290.23076923077 4.74375 L 292.03344481605 9.4875 L 293.83612040134 2.8421709430404e-14 L 295.63879598662 28.4625 L 297.44147157191 28.4625 L 299.24414715719 2.8421709430404e-14 L 301.04682274247 12.65 L 302.84949832776 31.625 L 304.65217391304 7.90625 L 306.45484949833 7.90625 L 308.25752508361 2.8421709430404e-14 L 310.0602006689 2.8421709430404e-14 L 311.86287625418 31.625 L 313.66555183946 17.39375 L 315.46822742475 20.55625 L 317.27090301003 2.8421709430404e-14 L 319.07357859532 12.65 L 320.8762541806 2.8421709430404e-14 L 322.67892976589 2.8421709430404e-14 L 324.48160535117 15.8125 L 326.28428093645 11.06875 L 328.08695652174 22.1375 L 329.88963210702 2.8421709430404e-14 L 331.69230769231 7.90625 L 333.49498327759 7.90625 L 335.29765886288 14.23125 L 337.10033444816 4.74375 L 338.90301003344 2.8421709430404e-14 L 340.70568561873 6.325 L 342.50836120401 26.88125 L 344.3110367893 36.36875 L 346.11371237458 6.325 L 347.91638795987 14.23125 L 349.71906354515 18.975 L 351.52173913043 2.8421709430404e-14 L 353.32441471572 11.06875 L 355.127090301 2.8421709430404e-14 L 356.92976588629 2.8421709430404e-14 L 358.73244147157 2.8421709430404e-14 L 360.53511705686 126.5 L 362.33779264214 94.875 L 364.14046822742 101.2 L 365.94314381271 77.48125 L 367.74581939799 25.3 L 369.54849498328 7.90625 L 371.35117056856 20.55625 L 373.15384615385 23.71875 L 374.95652173913 2.8421709430404e-14 L 376.75919732441 31.625 L 378.5618729097 28.4625 L 380.36454849498 34.7875 L 382.16722408027 34.7875 L 383.96989966555 12.65 L 385.77257525084 6.325 L 387.57525083612 2.8421709430404e-14 L 389.3779264214 2.8421709430404e-14 L 391.18060200669 2.8421709430404e-14 L 392.98327759197 2.8421709430404e-14 L 394.78595317726 2.8421709430404e-14 L 396.58862876254 4.74375 L 398.39130434783 17.39375 L 400.19397993311 23.71875 L 401.99665551839 41.1125 L 403.79933110368 6.325 L 405.60200668896 2.8421709430404e-14 L 407.40468227425 23.71875 L 409.20735785953 2.8421709430404e-14 L 411.01003344482 14.23125 L 412.8127090301 26.88125 L 414.61538461538 4.74375 L 416.41806020067 2.8421709430404e-14 L 418.22073578595 2.8421709430404e-14 L 420.02341137124 2.8421709430404e-14 L 421.82608695652 17.39375 L 423.62876254181 25.3 L 425.43143812709 6.325 L 427.23411371237 2.8421709430404e-14 L 429.03678929766 7.90625 L 430.83946488294 22.1375 L 432.64214046823 2.8421709430404e-14 L 434.44481605351 2.8421709430404e-14 L 436.2474916388 2.8421709430404e-14 L 438.05016722408 2.8421709430404e-14 L 439.85284280936 15.8125 L 441.65551839465 11.06875 L 443.45819397993 2.8421709430404e-14 L 445.26086956522 4.74375 L 447.0635451505 23.71875 L 448.86622073579 14.23125 L 450.66889632107 20.55625 L 452.47157190635 30.04375 L 454.27424749164 2.8421709430404e-14 L 456.07692307692 14.23125 L 457.87959866221 2.8421709430404e-14 L 459.68227424749 4.74375 L 461.48494983278 2.8421709430404e-14 L 463.28762541806 12.65 L 465.09030100334 15.8125 L 466.89297658863 2.8421709430404e-14 L 468.69565217391 4.74375 L 470.4983277592 2.8421709430404e-14 L 472.30100334448 2.8421709430404e-14 L 474.10367892977 2.8421709430404e-14 L 475.90635451505 7.90625 L 477.70903010033 4.74375 L 479.51170568562 2.8421709430404e-14 L 481.3143812709 2.8421709430404e-14 L 483.11705685619 6.325 L 484.91973244147 2.8421709430404e-14 L 486.72240802676 39.53125 L 488.52508361204 49.01875 L 490.32775919732 44.275 L 492.13043478261 28.4625 L 493.93311036789 17.39375 L 495.73578595318 22.1375 L 497.53846153846 17.39375 L 499.34113712375 22.1375 L 501.14381270903 25.3 L 502.94648829431 12.65 L 504.7491638796 1.58125 L 506.55183946488 2.8421709430404e-14 L 508.35451505017 4.74375 L 510.15719063545 12.65 L 511.95986622074 12.65 L 513.76254180602 30.04375 L 515.5652173913 15.8125 L 517.36789297659 18.975 L 519.17056856187 26.88125 L 520.97324414716 12.65 L 522.77591973244 2.8421709430404e-14 L 524.57859531773 2.8421709430404e-14 L 526.38127090301 15.8125 L 528.18394648829 2.8421709430404e-14 L 529.98662207358 12.65 L 531.78929765886 14.23125 L 533.59197324415 2.8421709430404e-14 L 535.39464882943 12.65 L 537.19732441472 1.58125 L 539 2.8421709430404e-14" class="highcharts-graph" data-z-index="1" stroke="#9F6AE1" stroke-width="2" stroke-linejoin="round" stroke-linecap="round" filter="none" aria-hidden="false" role="region" tabindex="-1" style="outline: none;" aria-label="INTARIAN_PEPPER_ROOT, line 2 of 2 with 300 data points."></path></g><g class="highcharts-markers highcharts-series-1 highcharts-line-series highcharts-color-2" data-z-index="0.1" opacity="1" transform="translate(51,42) scale(1 1)" clip-path="none" aria-hidden="true"></g></g><text x="300" text-anchor="middle" class="highcharts-title" data-z-index="4" style="font-size: 1em; color: rgb(240, 240, 243); font-weight: bold; fill: rgb(240, 240, 243);" y="22" aria-hidden="true">Positions (% of limit)</text><text x="300" text-anchor="middle" class="highcharts-subtitle" data-z-index="4" style="color: rgb(240, 240, 243); font-size: 0.8em; fill: rgb(240, 240, 243);" y="41" aria-hidden="true"></text><text x="10" text-anchor="start" class="highcharts-caption" data-z-index="4" style="color: rgb(102, 102, 102); font-size: 0.8em; fill: rgb(102, 102, 102);" y="397" aria-hidden="true"></text><g class="highcharts-legend highcharts-no-tooltip" data-z-index="7" transform="translate(109,355)" aria-hidden="true"><rect fill="transparent" class="highcharts-legend-box" rx="0" ry="0" stroke="#999999" stroke-width="0" filter="none" x="0" y="0" width="381" height="30"></rect><g data-z-index="1"><g><g class="highcharts-legend-item highcharts-line-series highcharts-color-1 highcharts-series-0" data-z-index="1" transform="translate(8,3)"><path fill="none" class="highcharts-graph" stroke-width="2" stroke-linecap="round" d="M 1 13 L 15 13" stroke="#CEEDA5"></path><text x="21" style="color: rgb(240, 240, 243); cursor: pointer; font-size: 0.8em; text-decoration: none; fill: rgb(240, 240, 243);" text-anchor="start" data-z-index="2" y="17">ASH_COATED_OSMIUM</text></g><g class="highcharts-legend-item highcharts-line-series highcharts-color-2 highcharts-series-1" data-z-index="1" transform="translate(193.11666870117188,3)"><path fill="none" class="highcharts-graph" stroke-width="2" stroke-linecap="round" d="M 1 13 L 15 13" stroke="#9F6AE1"></path><text x="21" y="17" style="color: rgb(240, 240, 243); cursor: pointer; font-size: 0.8em; text-decoration: none; fill: rgb(240, 240, 243);" text-anchor="start" data-z-index="2">INTARIAN_PEPPER_ROOT</text></g></g></g></g><g class="highcharts-axis-labels highcharts-xaxis-labels" data-z-index="7" aria-hidden="true"><text x="51" style="color: rgb(240, 240, 243); cursor: default; font-size: 0.8em; fill: rgb(240, 240, 243);" text-anchor="middle" transform="translate(0,0)" y="322" opacity="1">0</text><text x="159.16053511706" style="color: rgb(240, 240, 243); cursor: default; font-size: 0.8em; fill: rgb(240, 240, 243);" text-anchor="middle" transform="translate(0,0)" y="322" opacity="1">600,000</text><text x="267.32107023411" style="color: rgb(240, 240, 243); cursor: default; font-size: 0.8em; fill: rgb(240, 240, 243);" text-anchor="middle" transform="translate(0,0)" y="322" opacity="1">1,200,000</text><text x="375.48160535117" style="color: rgb(240, 240, 243); cursor: default; font-size: 0.8em; fill: rgb(240, 240, 243);" text-anchor="middle" transform="translate(0,0)" y="322" opacity="1">1,800,000</text><text x="483.64214046823" style="color: rgb(240, 240, 243); cursor: default; font-size: 0.8em; fill: rgb(240, 240, 243);" text-anchor="middle" transform="translate(0,0)" y="322" opacity="1">2,400,000</text></g><g class="highcharts-axis-labels highcharts-yaxis-labels" data-z-index="7" aria-hidden="true"><text x="36" style="color: rgb(240, 240, 243); cursor: default; font-size: 0.8em; fill: rgb(240, 240, 243);" text-anchor="end" transform="translate(0,0)" y="293" opacity="1">-100</text><text x="36" style="color: rgb(240, 240, 243); cursor: default; font-size: 0.8em; fill: rgb(240, 240, 243);" text-anchor="end" transform="translate(0,0)" y="230" opacity="1">-50</text><text x="36" style="color: rgb(240, 240, 243); cursor: default; font-size: 0.8em; fill: rgb(240, 240, 243);" text-anchor="end" transform="translate(0,0)" y="167" opacity="1">0</text><text x="36" style="color: rgb(240, 240, 243); cursor: default; font-size: 0.8em; fill: rgb(240, 240, 243);" text-anchor="end" transform="translate(0,0)" y="103" opacity="1">50</text><text x="0" style="color: rgb(240, 240, 243); cursor: default; font-size: 0.8em; fill: rgb(240, 240, 243);" text-anchor="end" transform="translate(0,0)" visibility="hidden">100</text></g><text x="590" class="highcharts-credits" text-anchor="end" data-z-index="8" style="cursor: pointer; color: rgb(240, 240, 243); font-size: 0.6em; fill: rgb(240, 240, 243);" y="395" aria-label="Chart credits: Highcharts.com" aria-hidden="false">Highcharts.com</text></svg>