<svg xmlns:xlink="http://www.w3.org/1999/xlink" version="1.1" class="highcharts-root" style="font-family: Helvetica, Arial, sans-serif; font-size: 1rem;" xmlns="http://www.w3.org/2000/svg" width="600" height="400" viewBox="0 0 600 400" aria-label="Interactive chart" aria-hidden="false"><desc aria-hidden="true">Created with Highcharts 11.4.8</desc><defs aria-hidden="true"><filter id="highcharts-drop-shadow-6"><feDropShadow dx="1" dy="1" flood-color="#000000" flood-opacity="0.75" stdDeviation="2.5"></feDropShadow></filter><clipPath id="highcharts-m2etevr-14235-"><rect x="0" y="0" width="537" height="253" fill="none"></rect></clipPath></defs><rect fill="#1f1f20" class="highcharts-background" filter="none" x="0" y="0" width="600" height="400" rx="0" ry="0" aria-hidden="true"></rect><rect fill="none" class="highcharts-plot-background" x="53" y="42" width="537" height="253" filter="none" aria-hidden="true"></rect><g class="highcharts-grid highcharts-xaxis-grid" data-z-index="1" aria-hidden="true"><path fill="none" stroke="#707073" stroke-width="0" stroke-dasharray="none" data-z-index="1" class="highcharts-grid-line" d="M 53.5 42 L 53.5 295" opacity="1"></path><path fill="none" stroke="#707073" stroke-width="0" stroke-dasharray="none" data-z-index="1" class="highcharts-grid-line" d="M 160.5 42 L 160.5 295" opacity="1"></path><path fill="none" stroke="#707073" stroke-width="0" stroke-dasharray="none" data-z-index="1" class="highcharts-grid-line" d="M 268.5 42 L 268.5 295" opacity="1"></path><path fill="none" stroke="#707073" stroke-width="0" stroke-dasharray="none" data-z-index="1" class="highcharts-grid-line" d="M 376.5 42 L 376.5 295" opacity="1"></path><path fill="none" stroke="#707073" stroke-width="0" stroke-dasharray="none" data-z-index="1" class="highcharts-grid-line" d="M 484.5 42 L 484.5 295" opacity="1"></path></g><g class="highcharts-grid highcharts-yaxis-grid" data-z-index="1" aria-hidden="true"><path fill="none" stroke="#707073" stroke-width="1" stroke-dasharray="none" data-z-index="1" class="highcharts-grid-line" d="M 53 295.5 L 590 295.5" opacity="1"></path><path fill="none" stroke="#707073" stroke-width="1" stroke-dasharray="none" data-z-index="1" class="highcharts-grid-line" d="M 53 211.5 L 590 211.5" opacity="1"></path><path fill="none" stroke="#707073" stroke-width="1" stroke-dasharray="none" data-z-index="1" class="highcharts-grid-line" d="M 53 126.5 L 590 126.5" opacity="1"></path><path fill="none" stroke="#707073" stroke-width="1" stroke-dasharray="none" data-z-index="1" class="highcharts-grid-line" d="M 53 42.5 L 590 42.5" opacity="1"></path></g><rect fill="none" class="highcharts-plot-border" data-z-index="1" stroke="#606063" stroke-width="0" x="53" y="42" width="537" height="253" aria-hidden="true"></rect><g class="highcharts-axis highcharts-xaxis" data-z-index="2" aria-hidden="true"><path fill="none" class="highcharts-tick" stroke="#707073" stroke-width="1" d="M 53.5 295 L 53.5 305" opacity="1"></path><path fill="none" class="highcharts-tick" stroke="#707073" stroke-width="1" d="M 160.5 295 L 160.5 305" opacity="1"></path><path fill="none" class="highcharts-tick" stroke="#707073" stroke-width="1" d="M 268.5 295 L 268.5 305" opacity="1"></path><path fill="none" class="highcharts-tick" stroke="#707073" stroke-width="1" d="M 376.5 295 L 376.5 305" opacity="1"></path><path fill="none" class="highcharts-tick" stroke="#707073" stroke-width="1" d="M 484.5 295 L 484.5 305" opacity="1"></path><text x="321.5" data-z-index="7" text-anchor="middle" transform="translate(0,0)" class="highcharts-axis-title" style="color: rgb(240, 240, 243); font-size: 0.8em; fill: rgb(240, 240, 243);" y="341">Timestamp</text><path fill="none" class="highcharts-axis-line" stroke="#707073" stroke-width="1" data-z-index="7" d="M 53 295.5 L 590 295.5"></path></g><g class="highcharts-axis highcharts-yaxis" data-z-index="2" aria-hidden="true"><path fill="none" class="highcharts-axis-line" stroke="#707073" stroke-width="0" data-z-index="7" d="M 53 42 L 53 295"></path></g><g class="highcharts-series-group" data-z-index="3" filter="none" aria-hidden="false"><g class="highcharts-series highcharts-series-0 highcharts-line-series highcharts-color-0" data-z-index="0.1" opacity="1" transform="translate(53,42) scale(1 1)" clip-path="url(#highcharts-m2etevr-14235-)" aria-hidden="false"><path fill="none" d="M 0 253 L 1.7959866220736 252.75459 L 3.5919732441472 252.38268 L 5.3879598662207 252.06980333333 L 7.1839464882943 251.76704666667 L 8.9799331103679 251.99474666667 L 10.775919732441 250.66143666667 L 12.571906354515 249.70509666667 L 14.367892976589 248.93850666667 L 16.163879598662 247.92018166667 L 17.959866220736 247.0545 L 19.755852842809 246.21791333333 L 21.551839464883 245.66468666667 L 23.347826086957 244.32041333333 L 25.14381270903 243.21902 L 26.939799331104 242.68519 L 28.735785953177 242.05353333333 L 30.531772575251 241.42440666667 L 32.327759197324 240.38963666667 L 34.123745819398 239.73858333333 L 35.919732441472 238.7308 L 37.715719063545 237.80397666667 L 39.511705685619 236.748545 L 41.307692307692 236.39729666667 L 43.103678929766 235.13904333333 L 44.899665551839 234.63430833333 L 46.695652173913 234.29149333333 L 48.491638795987 232.86457333333 L 50.28762541806 231.84962166667 L 52.083612040134 231.11634333333 L 53.879598662207 230.29240666667 L 55.675585284281 229.34787333333 L 57.471571906355 228.38141333333 L 59.267558528428 227.62157 L 61.063545150502 226.99834666667 L 62.859531772575 226.08501666667 L 64.655518394649 224.89591666667 L 66.451505016722 224.26004333333 L 68.247491638796 222.97733333333 L 70.04347826087 222.12894 L 71.839464882943 221.42391333333 L 73.635451505017 220.12096333333 L 75.43143812709 218.72524666667 L 77.227424749164 218.67043 L 79.023411371237 217.44422333333 L 80.819397993311 217.29073666667 L 82.615384615385 216.26861666667 L 84.411371237458 215.92453666667 L 86.207357859532 214.71351 L 88.003344481605 214.51701333333 L 89.799331103679 213.5067 L 91.595317725752 213.21912333333 L 93.391304347826 211.90436666667 L 95.1872909699 210.55250333333 L 96.983277591973 210.37287333333 L 98.779264214047 209.68387 L 100.57525083612 208.9021 L 102.37123745819 207.45831333333 L 104.16722408027 206.33499333333 L 105.96321070234 206.45137333333 L 107.75919732441 205.67803666667 L 109.55518394649 204.99831 L 111.35117056856 204.24184 L 113.14715719064 203.20032333333 L 114.94314381271 202.78203 L 116.73913043478 201.67979333333 L 118.53511705686 200.72471833333 L 120.33110367893 199.74434333333 L 122.127090301 199.06124333333 L 123.92307692308 197.70432 L 125.71906354515 197.36951666667 L 127.51505016722 196.60377 L 129.3110367893 195.73260666667 L 131.10702341137 194.94662 L 132.90301003344 193.94052333333 L 134.69899665552 193.58885333333 L 136.49498327759 192.53890333333 L 138.29096989967 191.71791833333 L 140.08695652174 190.84970666667 L 141.88294314381 190.14383666667 L 143.67892976589 189.26002333333 L 145.47491638796 188.70258 L 147.27090301003 187.57504333333 L 149.06688963211 186.41714666667 L 150.86287625418 185.93307333333 L 152.65886287625 184.92444666667 L 154.45484949833 184.25315333333 L 156.2508361204 183.82727 L 158.04682274247 182.7925 L 159.84280936455 182.16168666667 L 161.63879598662 181.27028333333 L 163.4347826087 180.59055666667 L 165.23076923077 180.20431 L 167.02675585284 179.01436666667 L 168.82274247492 178.06393 L 170.61872909699 177.65913 L 172.41471571906 177.14807 L 174.21070234114 176.23558333333 L 176.00668896321 174.97227 L 177.80267558528 175.329 L 179.59866220736 174.02436333333 L 181.39464882943 173.450475 L 183.1906354515 172.88249 L 184.98662207358 172.41275333333 L 186.78260869565 171.80639666667 L 188.57859531773 171.15913833333 L 190.3745819398 170.110875 L 192.17056856187 169.11363333333 L 193.96655518395 168.47017 L 195.76254180602 167.82586333333 L 197.55852842809 166.68314666667 L 199.35451505017 165.84571666667 L 201.15050167224 164.72577 L 202.94648829431 163.78039333333 L 204.74247491639 163.36884666667 L 206.53846153846 162.62376166667 L 208.33444816054 161.36846 L 210.13043478261 160.80595666667 L 211.92642140468 160.45597333333 L 213.72240802676 159.63035 L 215.51839464883 158.89833666667 L 217.3143812709 158.05584666667 L 219.11036789298 156.82795333333 L 220.90635451505 156.40755166667 L 222.70234113712 155.40862333333 L 224.4983277592 154.99876333333 L 226.29431438127 154.48601666667 L 228.09030100334 153.38968333333 L 229.88628762542 152.22672666667 L 231.68227424749 151.66169333333 L 233.47826086957 150.98702666667 L 235.27424749164 150.25754333333 L 237.07023411371 149.50444666667 L 238.86622073579 148.79183 L 240.66220735786 148.47726666667 L 242.45819397993 147.11781333333 L 244.25418060201 145.69005 L 246.05016722408 145.13134166667 L 247.84615384615 144.36433 L 249.64214046823 143.67279666667 L 251.4381270903 142.98885333333 L 253.23411371237 141.86300333333 L 255.03010033445 140.81474 L 256.82608695652 140.17127666667 L 258.6220735786 139.58726833333 L 260.41806020067 138.63809666667 L 262.21404682274 137.643385 L 264.01003344482 137.38743333333 L 265.80602006689 136.398625 L 267.60200668896 135.91497333333 L 269.39799331104 134.39613 L 271.19397993311 133.99596833333 L 272.98996655518 133.19269333333 L 274.78595317726 132.284845 L 276.58193979933 131.35043166667 L 278.3779264214 130.44089666667 L 280.17391304348 130.240605 L 281.96989966555 128.92542666667 L 283.76588628763 128.01715666667 L 285.5618729097 127.42513666667 L 287.35785953177 126.46120666667 L 289.15384615385 125.49896333333 L 290.94983277592 124.9314 L 292.74581939799 124.03831 L 294.54180602007 123.35099333333 L 296.33779264214 122.79861 L 298.13377926421 121.89708666667 L 299.92976588629 121.27976666667 L 301.72575250836 120.05103 L 303.52173913043 119.59478666667 L 305.31772575251 119.27642833333 L 307.11371237458 117.23556166667 L 308.90969899666 116.40614333333 L 310.70568561873 115.77786 L 312.5016722408 114.83838666667 L 314.29765886288 113.78464166667 L 316.09364548495 112.36320333333 L 317.88963210702 112.79583333333 L 319.6856187291 111.44228333333 L 321.48160535117 110.95230666667 L 323.27759197324 110.04698833333 L 325.07357859532 109.22094333333 L 326.86956521739 108.54163833333 L 328.66555183946 107.66583666667 L 330.46153846154 106.87732 L 332.25752508361 105.95302666667 L 334.05351170569 104.970965 L 335.84949832776 104.292925 L 337.64548494983 103.04774333333 L 339.44147157191 102.2373 L 341.23745819398 101.87129333333 L 343.03344481605 100.64508666667 L 344.82943143813 99.672723333333 L 346.6254180602 98.933963333333 L 348.42140468227 98.07039 L 350.21739130435 96.9749 L 352.01337792642 95.693033333333 L 353.80936454849 95.27221 L 355.60535117057 95.205586666667 L 357.40133779264 93.895046666667 L 359.19732441472 93.1293 L 360.99331103679 92.799556666667 L 362.78929765886 92.283436666667 L 364.58528428094 92.118143333333 L 366.38127090301 91.36083 L 368.17725752508 90.482498333333 L 369.97324414716 89.19262 L 371.76923076923 88.652465 L 373.5652173913 88.082793333333 L 375.36120401338 87.285 L 377.15719063545 86.394861666667 L 378.95317725753 86.105176666667 L 380.7491638796 85.552371666667 L 382.54515050167 84.903426666667 L 384.34113712375 83.992626666667 L 386.13712374582 83.255553333333 L 387.93311036789 82.55137 L 389.72909698997 81.485396666667 L 391.52508361204 80.780791666667 L 393.32107023411 80.00113 L 395.11705685619 79.14093 L 396.91304347826 77.416313333333 L 398.70903010033 77.1397 L 400.50501672241 76.53756 L 402.30100334448 75.402433333333 L 404.09698996656 74.699936666667 L 405.89297658863 73.623 L 407.6889632107 72.77292 L 409.48494983278 71.984403333333 L 411.28093645485 71.145286666667 L 413.07692307692 70.861505 L 414.872909699 69.419826666667 L 416.66889632107 68.511556666667 L 418.46488294314 67.704486666667 L 420.26086956522 67.071143333333 L 422.05685618729 66.324793333333 L 423.85284280936 65.426643333333 L 425.64882943144 64.54283 L 427.44481605351 63.23482 L 429.24080267559 62.790383333333 L 431.03678929766 61.814646666667 L 432.83277591973 60.973843333333 L 434.62876254181 60.23171 L 436.42474916388 58.69347 L 438.22073578595 58.241443333333 L 440.01672240803 57.559186666667 L 441.8127090301 56.76308 L 443.60869565217 56.035283333333 L 445.40468227425 55.084846666667 L 447.20066889632 54.264283333333 L 448.99665551839 53.533535 L 450.79264214047 52.782125 L 452.58862876254 51.98897 L 454.38461538462 51.099253333333 L 456.18060200669 50.416996666667 L 457.97658862876 49.958645 L 459.77257525084 48.88719 L 461.56856187291 48.645996666667 L 463.36454849498 47.621346666667 L 465.16053511706 46.00299 L 466.95652173913 44.978761666667 L 468.7525083612 44.303673333333 L 470.54849498328 43.625633333333 L 472.34448160535 42.8835 L 474.14046822742 42.123656666667 L 475.9364548495 41.136113333333 L 477.73244147157 40.00689 L 479.52842809365 39.172411666667 L 481.32441471572 38.217336666667 L 483.12040133779 37.341113333333 L 484.91638795987 36.25996 L 486.71237458194 35.775043333333 L 488.50836120401 35.780103333333 L 490.30434782609 34.460286666667 L 492.10033444816 34.015006666667 L 493.89632107023 33.42636 L 495.69230769231 32.036125 L 497.48829431438 31.056593333333 L 499.28428093645 30.4106 L 501.08026755853 29.832916666667 L 502.8762541806 28.919586666667 L 504.67224080268 27.72121 L 506.46822742475 26.928476666667 L 508.26421404682 26.215016666667 L 510.0602006689 25.175186666667 L 511.85618729097 24.43474 L 513.65217391304 23.81489 L 515.44816053512 23.029746666667 L 517.24414715719 22.352128333333 L 519.04013377926 21.62138 L 520.83612040134 20.679376666667 L 522.63210702341 19.705326666667 L 524.42809364548 18.983855 L 526.22408026756 17.93517 L 528.02006688963 16.931603333333 L 529.81605351171 16.469456666667 L 531.61204013378 15.844546666667 L 533.40802675585 15.133616666667 L 535.20401337793 13.987948333333 L 537 12.481333333333" class="highcharts-graph" data-z-index="1" stroke="#67B9EE" stroke-width="2" stroke-linejoin="round" stroke-linecap="round" filter="none" aria-hidden="false" role="region" tabindex="-1" style="outline: none;" aria-label="Total, line 1 of 3 with 300 data points."></path></g><g class="highcharts-markers highcharts-series-0 highcharts-line-series highcharts-color-0" data-z-index="0.1" opacity="1" transform="translate(53,42) scale(1 1)" clip-path="none" aria-hidden="true"></g><g class="highcharts-series highcharts-series-1 highcharts-line-series highcharts-color-1" data-z-index="0.1" opacity="1" transform="translate(53,42) scale(1 1)" clip-path="url(#highcharts-m2etevr-14235-)" aria-hidden="false"><path fill="none" d="M 0 253 L 1.7959866220736 252.85916333333 L 3.5919732441472 252.53026333333 L 5.3879598662207 252.35316333333 L 7.1839464882943 252.32280333333 L 8.9799331103679 252.71242333333 L 10.775919732441 251.99559 L 12.571906354515 251.61693333333 L 14.367892976589 251.45332666667 L 16.163879598662 251.116415 L 17.959866220736 250.93299 L 19.755852842809 250.78203333333 L 21.551839464883 250.56614 L 23.347826086957 250.25748 L 25.14381270903 250.17483333333 L 26.939799331104 250.12339 L 28.735785953177 250.09893333333 L 30.531772575251 250.07700666667 L 32.327759197324 249.85183666667 L 34.123745819398 249.74051666667 L 35.919732441472 249.47486666667 L 37.715719063545 249.24295 L 39.511705685619 249.277105 L 41.307692307692 249.19066333333 L 43.103678929766 248.65683333333 L 44.899665551839 248.847005 L 46.695652173913 248.66948333333 L 48.491638795987 248.47804666667 L 50.28762541806 248.45654166667 L 52.083612040134 248.05975333333 L 53.879598662207 248.03529666667 L 55.675585284281 247.75362333333 L 57.471571906355 247.50062333333 L 59.267558528428 247.42556666667 L 61.063545150502 247.46773333333 L 62.859531772575 247.29147666667 L 64.655518394649 246.80571666667 L 66.451505016722 246.48525 L 68.247491638796 246.28200666667 L 70.04347826087 246.1184 L 71.839464882943 245.82323333333 L 73.635451505017 245.51373 L 75.43143812709 245.13338666667 L 77.227424749164 245.34422 L 79.023411371237 244.80111333333 L 80.819397993311 245.32735333333 L 82.615384615385 244.9799 L 84.411371237458 244.90568666667 L 86.207357859532 244.71678 L 88.003344481605 244.83316 L 89.799331103679 244.83484666667 L 91.595317725752 245.38132666667 L 93.391304347826 244.68557666667 L 95.1872909699 244.07584666667 L 96.983277591973 244.5245 L 98.779264214047 244.53799333333 L 100.57525083612 244.48402 L 102.37123745819 244.03536666667 L 104.16722408027 243.21227333333 L 105.96321070234 244.10030333333 L 107.75919732441 243.96199666667 L 109.55518394649 243.95693666667 L 111.35117056856 243.91477 L 113.14715719064 243.54792 L 114.94314381271 243.46696 L 116.73913043478 243.40371 L 118.53511705686 243.15281833333 L 120.33110367893 243.03095666667 L 122.127090301 243.03770333333 L 123.92307692308 242.25846333333 L 125.71906354515 242.60676 L 127.51505016722 242.51568 L 129.3110367893 242.31918333333 L 131.10702341137 242.36219333333 L 132.90301003344 242.23316333333 L 134.69899665552 242.28545 L 136.49498327759 241.92281666667 L 138.29096989967 241.78493166667 L 140.08695652174 241.60656666667 L 141.88294314381 241.57536333333 L 143.67892976589 241.47416333333 L 145.47491638796 241.55512333333 L 147.27090301003 241.06936333333 L 149.06688963211 240.68311666667 L 150.86287625418 240.45373 L 152.65886287625 240.20241666667 L 154.45484949833 240.20579 L 156.2508361204 240.13832333333 L 158.04682274247 240.09109666667 L 159.84280936455 240.15350333333 L 161.63879598662 239.94351333333 L 163.4347826087 239.94351333333 L 165.23076923077 240.28169 L 167.02675585284 239.51425666667 L 168.82274247492 239.21403 L 170.61872909699 239.52353333333 L 172.41471571906 239.58594 L 174.21070234114 239.46281333333 L 176.00668896321 239.46534333333 L 177.80267558528 240.01857 L 179.59866220736 239.3886 L 181.39464882943 239.043255 L 183.1906354515 238.89609333333 L 184.98662207358 238.71224666667 L 186.78260869565 238.50647333333 L 188.57859531773 238.54358 L 190.3745819398 238.36184166667 L 192.17056856187 237.87228666667 L 193.96655518395 238.00469 L 195.76254180602 238.03505 L 197.55852842809 237.67747666667 L 199.35451505017 237.51724333333 L 201.15050167224 237.07196333333 L 202.94648829431 237.24231666667 L 204.74247491639 237.14280333333 L 206.53846153846 237.00491833333 L 208.33444816054 236.93028333333 L 210.13043478261 236.58536 L 211.92642140468 236.79282 L 213.72240802676 236.70342666667 L 215.51839464883 236.52126666667 L 217.3143812709 236.36778 L 219.11036789298 235.75973666667 L 220.90635451505 236.11731 L 222.70234113712 236.06586666667 L 224.4983277592 235.93093333333 L 226.29431438127 235.99587 L 228.09030100334 235.543 L 229.88628762542 235.32457666667 L 231.68227424749 235.11964666667 L 233.47826086957 234.99146 L 235.27424749164 234.99483333333 L 237.07023411371 234.82363666667 L 238.86622073579 234.9358 L 240.66220735786 234.78990333333 L 242.45819397993 234.43064333333 L 244.25418060201 233.87994666667 L 246.05016722408 233.86223666667 L 247.84615384615 233.89175333333 L 249.64214046823 233.83440666667 L 251.4381270903 233.81754 L 253.23411371237 233.27949333333 L 255.03010033445 233.01806 L 256.82608695652 233.06613 L 258.6220735786 233.138235 L 260.41806020067 232.95649666667 L 262.21404682274 232.62380166667 L 264.01003344482 232.69928 L 265.80602006689 232.51459 L 267.60200668896 232.39821 L 269.39799331104 232.30291333333 L 271.19397993311 232.19032833333 L 272.98996655518 232.12244 L 274.78595317726 231.84835666667 L 276.58193979933 231.57005666667 L 278.3779264214 231.31031 L 280.17391304348 231.85004333333 L 281.96989966555 231.32380333333 L 283.76588628763 231.18634 L 285.5618729097 231.16778666667 L 287.35785953177 230.88695666667 L 289.15384615385 230.66853333333 L 290.94983277592 230.79334666667 L 292.74581939799 230.66516 L 294.54180602007 230.67275 L 296.33779264214 230.61371666667 L 298.13377926421 230.64492 L 299.92976588629 230.60781333333 L 301.72575250836 230.26963666667 L 303.52173913043 230.11952333333 L 305.31772575251 230.58673 L 307.11371237458 229.593705 L 308.90969899666 229.44232666667 L 310.70568561873 229.09824666667 L 312.5016722408 228.88572666667 L 314.29765886288 228.52478 L 316.09364548495 228.33081333333 L 317.88963210702 228.83934333333 L 319.6856187291 228.60236666667 L 321.48160535117 228.41261666667 L 323.27759197324 228.27220166667 L 325.07357859532 228.05251333333 L 326.86956521739 227.997275 L 328.66555183946 227.89059333333 L 330.46153846154 227.77674333333 L 332.25752508361 227.53555 L 334.05351170569 227.263575 L 335.84949832776 227.27959833333 L 337.64548494983 226.76896 L 339.44147157191 226.63993 L 341.23745819398 226.42403666667 L 343.03344481605 226.28235666667 L 344.82943143813 225.98466 L 346.6254180602 225.89526666667 L 348.42140468227 225.676 L 350.21739130435 225.28047666667 L 352.01337792642 225.04856 L 353.80936454849 225.05193333333 L 355.60535117057 225.0182 L 357.40133779264 225.02494666667 L 359.19732441472 224.83435333333 L 360.99331103679 224.65556666667 L 362.78929765886 224.43208333333 L 364.58528428094 224.45485333333 L 366.38127090301 224.05258333333 L 368.17725752508 223.85693 L 369.97324414716 223.68657666667 L 371.76923076923 223.46562333333 L 373.5652173913 223.49598333333 L 375.36120401338 223.39225333333 L 377.15719063545 223.31761833333 L 378.95317725753 223.28936666667 L 380.7491638796 223.225695 L 382.54515050167 223.26744 L 384.34113712375 223.00516333333 L 386.13712374582 222.99926 L 387.93311036789 222.90986666667 L 389.72909698997 222.61976 L 391.52508361204 222.65222833333 L 393.32107023411 222.54723333333 L 395.11705685619 222.43422666667 L 396.91304347826 221.96364666667 L 398.70903010033 221.73088666667 L 400.50501672241 221.67775666667 L 402.30100334448 221.24765666667 L 404.09698996656 221.15910666667 L 405.89297658863 220.83779666667 L 407.6889632107 220.67250333333 L 409.48494983278 220.55106333333 L 411.28093645485 220.39420333333 L 413.07692307692 220.14752833333 L 414.872909699 220.07879666667 L 416.66889632107 219.94639333333 L 418.46488294314 219.71279 L 420.26086956522 219.74989666667 L 422.05685618729 219.52472666667 L 423.85284280936 219.33497666667 L 425.64882943144 219.23546333333 L 427.44481605351 219.08788 L 429.24080267559 218.79187 L 431.03678929766 218.61392666667 L 432.83277591973 218.44779 L 434.62876254181 218.29177333333 L 436.42474916388 218.03961666667 L 438.22073578595 217.84312 L 440.01672240803 217.79842333333 L 441.8127090301 217.74107666667 L 443.60869565217 217.68035666667 L 445.40468227425 217.40711666667 L 447.20066889632 217.22327 L 448.99665551839 217.15538166667 L 450.79264214047 217.02593 L 452.58862876254 216.98039 L 454.38461538462 216.68353666667 L 456.18060200669 216.83449333333 L 457.97658862876 216.98966666667 L 459.77257525084 216.69028333333 L 461.56856187291 216.71221 L 463.36454849498 216.38921333333 L 465.16053511706 215.89164666667 L 466.95652173913 215.67238 L 468.7525083612 215.56696333333 L 470.54849498328 215.56359 L 472.34448160535 215.54250666667 L 474.14046822742 215.54588 L 475.9364548495 215.30721666667 L 477.73244147157 215.33251666667 L 479.52842809365 214.84549166667 L 481.32441471572 214.50942333333 L 483.12040133779 214.23955666667 L 484.91638795987 213.9115 L 486.71237458194 213.89547666667 L 488.50836120401 214.26738666667 L 490.30434782609 213.92921 L 492.10033444816 213.73271333333 L 493.89632107023 213.37345333333 L 495.69230769231 213.10358666667 L 497.48829431438 212.95853333333 L 499.28428093645 213.026 L 501.08026755853 212.73673666667 L 502.8762541806 212.61108 L 504.67224080268 212.09074333333 L 506.46822742475 212.00725333333 L 508.26421404682 211.92966666667 L 510.0602006689 211.74750666667 L 511.85618729097 211.62859666667 L 513.65217391304 211.62606666667 L 515.44816053512 211.53414333333 L 517.24414715719 211.392885 L 519.04013377926 211.29548 L 520.83612040134 211.08549 L 522.63210702341 210.78610666667 L 524.42809364548 210.773035 L 526.22408026756 210.45973666667 L 528.02006688963 210.26239666667 L 529.81605351171 210.41588333333 L 531.61204013378 210.58623666667 L 533.40802675585 210.37793333333 L 535.20401337793 210.17722 L 537 210.02289" class="highcharts-graph" data-z-index="1" stroke="#CEEDA5" stroke-width="2" stroke-dasharray="8,6" filter="none" aria-hidden="false" role="region" tabindex="-1" style="outline: none;" aria-label="ASH_COATED_OSMIUM, line 2 of 3 with 300 data points."></path></g><g class="highcharts-markers highcharts-series-1 highcharts-line-series highcharts-color-1" data-z-index="0.1" opacity="1" transform="translate(53,42) scale(1 1)" clip-path="none" aria-hidden="true"></g><g class="highcharts-series highcharts-series-2 highcharts-line-series highcharts-color-2" data-z-index="0.1" opacity="1" transform="translate(53,42) scale(1 1)" clip-path="url(#highcharts-m2etevr-14235-)" aria-hidden="false"><path fill="none" d="M 0 253 L 1.7959866220736 252.89542666667 L 3.5919732441472 252.85241666667 L 5.3879598662207 252.71664 L 7.1839464882943 252.44424333333 L 8.9799331103679 252.28232333333 L 10.775919732441 251.66584666667 L 12.571906354515 251.08816333333 L 14.367892976589 250.48518 L 16.163879598662 249.80376666667 L 17.959866220736 249.12151 L 19.755852842809 248.43588 L 21.551839464883 248.09854666667 L 23.347826086957 247.06293333333 L 25.14381270903 246.04418666667 L 26.939799331104 245.5618 L 28.735785953177 244.9546 L 30.531772575251 244.3474 L 32.327759197324 243.5378 L 34.123745819398 242.99806666667 L 35.919732441472 242.25593333333 L 37.715719063545 241.56102666667 L 39.511705685619 240.47144 L 41.307692307692 240.20663333333 L 43.103678929766 239.48221 L 44.899665551839 238.78730333333 L 46.695652173913 238.62201 L 48.491638795987 237.38652666667 L 50.28762541806 236.39308 L 52.083612040134 236.05659 L 53.879598662207 235.25711 L 55.675585284281 234.59425 L 57.471571906355 233.88079 L 59.267558528428 233.19600333333 L 61.063545150502 232.53061333333 L 62.859531772575 231.79354 L 64.655518394649 231.0902 L 66.451505016722 230.77479333333 L 68.247491638796 229.69532666667 L 70.04347826087 229.01054 L 71.839464882943 228.60068 L 73.635451505017 227.60723333333 L 75.43143812709 226.59186 L 77.227424749164 226.32621 L 79.023411371237 225.64311 L 80.819397993311 224.96338333333 L 82.615384615385 224.28871666667 L 84.411371237458 224.01885 L 86.207357859532 222.99673 L 88.003344481605 222.68385333333 L 89.799331103679 221.67185333333 L 91.595317725752 220.83779666667 L 93.391304347826 220.21879 L 95.1872909699 219.47665666667 L 96.983277591973 218.84837333333 L 98.779264214047 218.14587666667 L 100.57525083612 217.41808 L 102.37123745819 216.42294666667 L 104.16722408027 216.12272 L 105.96321070234 215.35107 L 107.75919732441 214.71604 L 109.55518394649 214.04137333333 L 111.35117056856 213.32707 L 113.14715719064 212.65240333333 L 114.94314381271 212.31507 L 116.73913043478 211.27608333333 L 118.53511705686 210.5719 L 120.33110367893 209.71338666667 L 122.127090301 209.02354 L 123.92307692308 208.44585666667 L 125.71906354515 207.76275666667 L 127.51505016722 207.08809 L 129.3110367893 206.41342333333 L 131.10702341137 205.58442666667 L 132.90301003344 204.70736 L 134.69899665552 204.30340333333 L 136.49498327759 203.61608666667 L 138.29096989967 202.93298666667 L 140.08695652174 202.24314 L 141.88294314381 201.56847333333 L 143.67892976589 200.78586 L 145.47491638796 200.14745666667 L 147.27090301003 199.50568 L 149.06688963211 198.73403 L 150.86287625418 198.47934333333 L 152.65886287625 197.72203 L 154.45484949833 197.04736333333 L 156.2508361204 196.68894666667 L 158.04682274247 195.70140333333 L 159.84280936455 195.00818333333 L 161.63879598662 194.32677 L 163.4347826087 193.64704333333 L 165.23076923077 192.92262 L 167.02675585284 192.50011 L 168.82274247492 191.8499 L 170.61872909699 191.13559666667 L 172.41471571906 190.56213 L 174.21070234114 189.77277 L 176.00668896321 188.50692666667 L 177.80267558528 188.31043 L 179.59866220736 187.63576333333 L 181.39464882943 187.40722 L 183.1906354515 186.98639666667 L 184.98662207358 186.70050666667 L 186.78260869565 186.29992333333 L 188.57859531773 185.61555833333 L 190.3745819398 184.74903333333 L 192.17056856187 184.24134666667 L 193.96655518395 183.46548 L 195.76254180602 182.79081333333 L 197.55852842809 182.00567 L 199.35451505017 181.32847333333 L 201.15050167224 180.65380666667 L 202.94648829431 179.53807666667 L 204.74247491639 179.22604333333 L 206.53846153846 178.61884333333 L 208.33444816054 177.43817666667 L 210.13043478261 177.22059666667 L 211.92642140468 176.66315333333 L 213.72240802676 175.92692333333 L 215.51839464883 175.37707 L 217.3143812709 174.68806666667 L 219.11036789298 174.06821666667 L 220.90635451505 173.29024166667 L 222.70234113712 172.34275666667 L 224.4983277592 172.06783 L 226.29431438127 171.49014666667 L 228.09030100334 170.84668333333 L 229.88628762542 169.90215 L 231.68227424749 169.54204666667 L 233.47826086957 168.99556666667 L 235.27424749164 168.26271 L 237.07023411371 167.68081 L 238.86622073579 166.85603 L 240.66220735786 166.68736333333 L 242.45819397993 165.68717 L 244.25418060201 164.81010333333 L 246.05016722408 164.269105 L 247.84615384615 163.47257666667 L 249.64214046823 162.83839 L 251.4381270903 162.17131333333 L 253.23411371237 161.58351 L 255.03010033445 160.79668 L 256.82608695652 160.10514666667 L 258.6220735786 159.44903333333 L 260.41806020067 158.6816 L 262.21404682274 158.01958333333 L 264.01003344482 157.68815333333 L 265.80602006689 156.884035 L 267.60200668896 156.51676333333 L 269.39799331104 155.09321666667 L 271.19397993311 154.80564 L 272.98996655518 154.07025333333 L 274.78595317726 153.43648833333 L 276.58193979933 152.780375 L 278.3779264214 152.13058666667 L 280.17391304348 151.39056166667 L 281.96989966555 150.60162333333 L 283.76588628763 149.83081666667 L 285.5618729097 149.25735 L 287.35785953177 148.57425 L 289.15384615385 147.83043 L 290.94983277592 147.13805333333 L 292.74581939799 146.37315 L 294.54180602007 145.67824333333 L 296.33779264214 145.18489333333 L 298.13377926421 144.25216666667 L 299.92976588629 143.67195333333 L 301.72575250836 142.78139333333 L 303.52173913043 142.47526333333 L 305.31772575251 141.68969833333 L 307.11371237458 140.64185666667 L 308.90969899666 139.96381666667 L 310.70568561873 139.67961333333 L 312.5016722408 138.95266 L 314.29765886288 138.25986166667 L 316.09364548495 137.03239 L 317.88963210702 136.95649 L 319.6856187291 135.83991666667 L 321.48160535117 135.53969 L 323.27759197324 134.77478666667 L 325.07357859532 134.16843 L 326.86956521739 133.54436333333 L 328.66555183946 132.77524333333 L 330.46153846154 132.10057666667 L 332.25752508361 131.41747666667 L 334.05351170569 130.70739 L 335.84949832776 130.01332666667 L 337.64548494983 129.27878333333 L 339.44147157191 128.59737 L 341.23745819398 128.44725666667 L 343.03344481605 127.36273 L 344.82943143813 126.68806333333 L 346.6254180602 126.03869666667 L 348.42140468227 125.39439 L 350.21739130435 124.69442333333 L 352.01337792642 123.64447333333 L 353.80936454849 123.22027666667 L 355.60535117057 123.18738666667 L 357.40133779264 121.8701 L 359.19732441472 121.29494666667 L 360.99331103679 121.14399 L 362.78929765886 120.85135333333 L 364.58528428094 120.66329 L 366.38127090301 120.30824666667 L 368.17725752508 119.62556833333 L 369.97324414716 118.50604333333 L 371.76923076923 118.18684166667 L 373.5652173913 117.58681 L 375.36120401338 116.89274666667 L 377.15719063545 116.07724333333 L 378.95317725753 115.81581 L 380.7491638796 115.32667666667 L 382.54515050167 114.63598666667 L 384.34113712375 113.98746333333 L 386.13712374582 113.25629333333 L 387.93311036789 112.64150333333 L 389.72909698997 111.86563666667 L 391.52508361204 111.12856333333 L 393.32107023411 110.45389666667 L 395.11705685619 109.70670333333 L 396.91304347826 108.45266666667 L 398.70903010033 108.40881333333 L 400.50501672241 107.85980333333 L 402.30100334448 107.15477666667 L 404.09698996656 106.54083 L 405.89297658863 105.78520333333 L 407.6889632107 105.10041666667 L 409.48494983278 104.43334 L 411.28093645485 103.75108333333 L 413.07692307692 103.71397666667 L 414.872909699 102.34103 L 416.66889632107 101.56516333333 L 418.46488294314 100.99169666667 L 420.26086956522 100.32124666667 L 422.05685618729 99.800066666667 L 423.85284280936 99.091666666667 L 425.64882943144 98.307366666667 L 427.44481605351 97.14694 L 429.24080267559 96.998513333333 L 431.03678929766 96.20072 L 432.83277591973 95.526053333333 L 434.62876254181 94.939936666667 L 436.42474916388 93.653853333333 L 438.22073578595 93.398323333333 L 440.01672240803 92.760763333333 L 441.8127090301 92.022003333333 L 443.60869565217 91.354926666667 L 445.40468227425 90.67773 L 447.20066889632 90.041013333333 L 448.99665551839 89.378153333333 L 450.79264214047 88.756195 L 452.58862876254 88.00858 L 454.38461538462 87.415716666667 L 456.18060200669 86.582503333333 L 457.97658862876 85.968978333333 L 459.77257525084 85.196906666667 L 461.56856187291 84.933786666667 L 463.36454849498 84.232133333333 L 465.16053511706 83.111343333333 L 466.95652173913 82.306381666667 L 468.7525083612 81.73671 L 470.54849498328 81.062043333333 L 472.34448160535 80.340993333333 L 474.14046822742 79.577776666667 L 475.9364548495 78.828896666667 L 477.73244147157 77.674373333333 L 479.52842809365 77.32692 L 481.32441471572 76.707913333333 L 483.12040133779 76.101556666667 L 484.91638795987 75.34846 L 486.71237458194 74.879566666667 L 488.50836120401 74.512716666667 L 490.30434782609 73.531076666667 L 492.10033444816 73.282293333333 L 493.89632107023 73.052906666667 L 495.69230769231 71.932538333333 L 497.48829431438 71.09806 L 499.28428093645 70.3846 L 501.08026755853 70.09618 L 502.8762541806 69.308506666667 L 504.67224080268 68.630466666667 L 506.46822742475 67.921223333333 L 508.26421404682 67.28535 L 510.0602006689 66.42768 L 511.85618729097 65.806143333333 L 513.65217391304 65.188823333333 L 515.44816053512 64.495603333333 L 517.24414715719 63.959243333333 L 519.04013377926 63.3259 L 520.83612040134 62.593886666667 L 522.63210702341 61.91922 L 524.42809364548 61.21082 L 526.22408026756 60.475433333333 L 528.02006688963 59.669206666667 L 529.81605351171 59.053573333333 L 531.61204013378 58.25831 L 533.40802675585 57.755683333333 L 535.20401337793 56.810728333333 L 537 55.458443333333" class="highcharts-graph" data-z-index="1" stroke="#9F6AE1" stroke-width="2" stroke-dasharray="8,6" filter="none" aria-hidden="false" role="region" tabindex="-1" style="outline: none;" aria-label="INTARIAN_PEPPER_ROOT, line 3 of 3 with 300 data points."></path></g><g class="highcharts-markers highcharts-series-2 highcharts-line-series highcharts-color-2" data-z-index="0.1" opacity="1" transform="translate(53,42) scale(1 1)" clip-path="none" aria-hidden="true"></g></g><text x="300" text-anchor="middle" class="highcharts-title" data-z-index="4" style="font-size: 1em; color: rgb(240, 240, 243); font-weight: bold; fill: rgb(240, 240, 243);" y="22" aria-hidden="true">Profit / Loss</text><text x="300" text-anchor="middle" class="highcharts-subtitle" data-z-index="4" style="color: rgb(240, 240, 243); font-size: 0.8em; fill: rgb(240, 240, 243);" y="41" aria-hidden="true"></text><text x="10" text-anchor="start" class="highcharts-caption" data-z-index="4" style="color: rgb(102, 102, 102); font-size: 0.8em; fill: rgb(102, 102, 102);" y="397" aria-hidden="true"></text><g class="highcharts-legend highcharts-no-tooltip" data-z-index="7" transform="translate(75,355)" aria-hidden="true"><rect fill="transparent" class="highcharts-legend-box" rx="0" ry="0" stroke="#999999" stroke-width="0" filter="none" x="0" y="0" width="449" height="30"></rect><g data-z-index="1"><g><g class="highcharts-legend-item highcharts-line-series highcharts-color-0 highcharts-series-0" data-z-index="1" transform="translate(8,3)"><path fill="none" class="highcharts-graph" stroke-width="2" stroke-linecap="round" d="M 1 13 L 15 13" stroke="#67B9EE"></path><text x="21" style="color: rgb(240, 240, 243); cursor: pointer; font-size: 0.8em; text-decoration: none; fill: rgb(240, 240, 243);" text-anchor="start" data-z-index="2" y="17">Total</text></g><g class="highcharts-legend-item highcharts-line-series highcharts-color-1 highcharts-series-1" data-z-index="1" transform="translate(76.13333320617676,3)"><path fill="none" class="highcharts-graph" stroke-width="2" stroke-dasharray="8,6" d="M 0 13 L 16 13" stroke="#CEEDA5"></path><text x="21" y="17" style="color: rgb(240, 240, 243); cursor: pointer; font-size: 0.8em; text-decoration: none; fill: rgb(240, 240, 243);" text-anchor="start" data-z-index="2">ASH_COATED_OSMIUM</text></g><g class="highcharts-legend-item highcharts-line-series highcharts-color-2 highcharts-series-2" data-z-index="1" transform="translate(261.25000190734863,3)"><path fill="none" class="highcharts-graph" stroke-width="2" stroke-dasharray="8,6" d="M 0 13 L 16 13" stroke="#9F6AE1"></path><text x="21" y="17" style="color: rgb(240, 240, 243); cursor: pointer; font-size: 0.8em; text-decoration: none; fill: rgb(240, 240, 243);" text-anchor="start" data-z-index="2">INTARIAN_PEPPER_ROOT</text></g></g></g></g><g class="highcharts-axis-labels highcharts-xaxis-labels" data-z-index="7" aria-hidden="true"><text x="53" style="color: rgb(240, 240, 243); cursor: default; font-size: 0.8em; fill: rgb(240, 240, 243);" text-anchor="middle" transform="translate(0,0)" y="322" opacity="1">0</text><text x="160.75919732441" style="color: rgb(240, 240, 243); cursor: default; font-size: 0.8em; fill: rgb(240, 240, 243);" text-anchor="middle" transform="translate(0,0)" y="322" opacity="1">600,000</text><text x="268.51839464883" style="color: rgb(240, 240, 243); cursor: default; font-size: 0.8em; fill: rgb(240, 240, 243);" text-anchor="middle" transform="translate(0,0)" y="322" opacity="1">1,200,000</text><text x="376.27759197324" style="color: rgb(240, 240, 243); cursor: default; font-size: 0.8em; fill: rgb(240, 240, 243);" text-anchor="middle" transform="translate(0,0)" y="322" opacity="1">1,800,000</text><text x="484.03678929766" style="color: rgb(240, 240, 243); cursor: default; font-size: 0.8em; fill: rgb(240, 240, 243);" text-anchor="middle" transform="translate(0,0)" y="322" opacity="1">2,400,000</text></g><g class="highcharts-axis-labels highcharts-yaxis-labels" data-z-index="7" aria-hidden="true"><text x="38" style="color: rgb(240, 240, 243); cursor: default; font-size: 0.8em; fill: rgb(240, 240, 243);" text-anchor="end" transform="translate(0,0)" y="293" opacity="1">0</text><text x="38" style="color: rgb(240, 240, 243); cursor: default; font-size: 0.8em; fill: rgb(240, 240, 243);" text-anchor="end" transform="translate(0,0)" y="209" opacity="1">100k</text><text x="38" style="color: rgb(240, 240, 243); cursor: default; font-size: 0.8em; fill: rgb(240, 240, 243);" text-anchor="end" transform="translate(0,0)" y="124" opacity="1">200k</text><text x="0" style="color: rgb(240, 240, 243); cursor: default; font-size: 0.8em; fill: rgb(240, 240, 243);" text-anchor="end" transform="translate(0,0)" visibility="hidden">300k</text></g><text x="590" class="highcharts-credits" text-anchor="end" data-z-index="8" style="cursor: pointer; color: rgb(240, 240, 243); font-size: 0.6em; fill: rgb(240, 240, 243);" y="395" aria-label="Chart credits: Highcharts.com" aria-hidden="false">Highcharts.com</text></svg>