<svg xmlns:xlink="http://www.w3.org/1999/xlink" version="1.1" class="highcharts-root" style="font-family: Helvetica, Arial, sans-serif; font-size: 1rem;" xmlns="http://www.w3.org/2000/svg" width="600" height="400" viewBox="0 0 600 400" aria-label="Interactive chart" aria-hidden="false"><desc aria-hidden="true">Created with Highcharts 11.4.8</desc><defs aria-hidden="true"><filter id="highcharts-drop-shadow-6"><feDropShadow dx="1" dy="1" flood-color="#000000" flood-opacity="0.75" stdDeviation="2.5"></feDropShadow></filter><clipPath id="highcharts-te5i4sn-77572-"><rect x="0" y="0" width="539" height="253" fill="none"></rect></clipPath></defs><rect fill="#1f1f20" class="highcharts-background" filter="none" x="0" y="0" width="600" height="400" rx="0" ry="0" aria-hidden="true"></rect><rect fill="none" class="highcharts-plot-background" x="51" y="42" width="539" height="253" filter="none" aria-hidden="true"></rect><g class="highcharts-grid highcharts-xaxis-grid" data-z-index="1" aria-hidden="true"><path fill="none" stroke="#707073" stroke-width="0" stroke-dasharray="none" data-z-index="1" class="highcharts-grid-line" d="M 51.5 42 L 51.5 295" opacity="1"></path><path fill="none" stroke="#707073" stroke-width="0" stroke-dasharray="none" data-z-index="1" class="highcharts-grid-line" d="M 132.5 42 L 132.5 295" opacity="1"></path><path fill="none" stroke="#707073" stroke-width="0" stroke-dasharray="none" data-z-index="1" class="highcharts-grid-line" d="M 213.5 42 L 213.5 295" opacity="1"></path><path fill="none" stroke="#707073" stroke-width="0" stroke-dasharray="none" data-z-index="1" class="highcharts-grid-line" d="M 294.5 42 L 294.5 295" opacity="1"></path><path fill="none" stroke="#707073" stroke-width="0" stroke-dasharray="none" data-z-index="1" class="highcharts-grid-line" d="M 375.5 42 L 375.5 295" opacity="1"></path><path fill="none" stroke="#707073" stroke-width="0" stroke-dasharray="none" data-z-index="1" class="highcharts-grid-line" d="M 456.5 42 L 456.5 295" opacity="1"></path><path fill="none" stroke="#707073" stroke-width="0" stroke-dasharray="none" data-z-index="1" class="highcharts-grid-line" d="M 537.5 42 L 537.5 295" opacity="1"></path></g><g class="highcharts-grid highcharts-yaxis-grid" data-z-index="1" aria-hidden="true"><path fill="none" stroke="#707073" stroke-width="1" stroke-dasharray="none" data-z-index="1" class="highcharts-grid-line" d="M 51 295.5 L 590 295.5" opacity="1"></path><path fill="none" stroke="#707073" stroke-width="1" stroke-dasharray="none" data-z-index="1" class="highcharts-grid-line" d="M 51 232.5 L 590 232.5" opacity="1"></path><path fill="none" stroke="#707073" stroke-width="1" stroke-dasharray="none" data-z-index="1" class="highcharts-grid-line" d="M 51 169.5 L 590 169.5" opacity="1"></path><path fill="none" stroke="#707073" stroke-width="1" stroke-dasharray="none" data-z-index="1" class="highcharts-grid-line" d="M 51 105.5 L 590 105.5" opacity="1"></path><path fill="none" stroke="#707073" stroke-width="1" stroke-dasharray="none" data-z-index="1" class="highcharts-grid-line" d="M 51 42.5 L 590 42.5" opacity="1"></path></g><rect fill="none" class="highcharts-plot-border" data-z-index="1" stroke="#606063" stroke-width="0" x="51" y="42" width="539" height="253" aria-hidden="true"></rect><g class="highcharts-axis highcharts-xaxis" data-z-index="2" aria-hidden="true"><path fill="none" class="highcharts-tick" stroke="#707073" stroke-width="1" d="M 51.5 295 L 51.5 305" opacity="1"></path><path fill="none" class="highcharts-tick" stroke="#707073" stroke-width="1" d="M 132.5 295 L 132.5 305" opacity="1"></path><path fill="none" class="highcharts-tick" stroke="#707073" stroke-width="1" d="M 213.5 295 L 213.5 305" opacity="1"></path><path fill="none" class="highcharts-tick" stroke="#707073" stroke-width="1" d="M 294.5 295 L 294.5 305" opacity="1"></path><path fill="none" class="highcharts-tick" stroke="#707073" stroke-width="1" d="M 375.5 295 L 375.5 305" opacity="1"></path><path fill="none" class="highcharts-tick" stroke="#707073" stroke-width="1" d="M 456.5 295 L 456.5 305" opacity="1"></path><path fill="none" class="highcharts-tick" stroke="#707073" stroke-width="1" d="M 537.5 295 L 537.5 305" opacity="1"></path><text x="320.5" data-z-index="7" text-anchor="middle" transform="translate(0,0)" class="highcharts-axis-title" style="color: rgb(240, 240, 243); font-size: 0.8em; fill: rgb(240, 240, 243);" y="341">Timestamp</text><path fill="none" class="highcharts-axis-line" stroke="#707073" stroke-width="1" data-z-index="7" d="M 51 295.5 L 590 295.5"></path></g><g class="highcharts-axis highcharts-yaxis" data-z-index="2" aria-hidden="true"><path fill="none" class="highcharts-axis-line" stroke="#707073" stroke-width="0" data-z-index="7" d="M 51 42 L 51 295"></path></g><g class="highcharts-series-group" data-z-index="3" filter="none" aria-hidden="false"><g class="highcharts-series highcharts-series-0 highcharts-line-series highcharts-color-1" data-z-index="0.1" opacity="1" transform="translate(51,42) scale(1 1)" clip-path="url(#highcharts-te5i4sn-77572-)" aria-hidden="false"><path fill="none" d="M 0 126.5 L 1.3508771929825 137.56875 L 2.7017543859649 129.6625 L 4.0526315789474 132.825 L 5.4035087719298 132.825 L 6.7543859649123 132.825 L 8.1052631578947 132.825 L 9.4561403508772 132.825 L 10.80701754386 121.75625 L 12.157894736842 134.40625 L 13.508771929825 147.05625 L 14.859649122807 137.56875 L 16.210526315789 137.56875 L 17.561403508772 145.475 L 18.912280701754 137.56875 L 20.263157894737 137.56875 L 21.614035087719 137.56875 L 22.964912280702 124.91875 L 24.315789473684 124.91875 L 25.666666666667 120.175 L 27.017543859649 120.175 L 28.368421052632 129.6625 L 29.719298245614 129.6625 L 31.070175438596 118.59375 L 32.421052631579 118.59375 L 33.771929824561 93.29375 L 35.122807017544 93.29375 L 36.473684210526 101.2 L 37.824561403509 101.2 L 39.175438596491 113.85 L 40.526315789474 101.2 L 41.877192982456 101.2 L 43.228070175439 104.3625 L 44.578947368421 99.61875 L 45.929824561404 99.61875 L 47.280701754386 99.61875 L 48.631578947368 91.7125 L 49.982456140351 91.7125 L 51.333333333333 91.7125 L 52.684210526316 88.55 L 54.035087719298 88.55 L 55.385964912281 88.55 L 56.736842105263 80.64375 L 58.087719298246 71.15625 L 59.438596491228 55.34375 L 60.789473684211 55.34375 L 62.140350877193 55.34375 L 63.491228070175 47.4375 L 64.842105263158 37.95 L 66.19298245614 33.20625 L 67.543859649123 33.20625 L 68.894736842105 33.20625 L 70.245614035088 23.71875 L 71.59649122807 18.975 L 72.947368421053 18.975 L 74.298245614035 14.23125 L 75.649122807018 22.1375 L 77 22.1375 L 78.350877192982 28.4625 L 79.701754385965 28.4625 L 81.052631578947 36.36875 L 82.40350877193 44.275 L 83.754385964912 56.925 L 85.105263157895 56.925 L 86.456140350877 56.925 L 87.80701754386 66.4125 L 89.157894736842 60.0875 L 90.508771929825 44.275 L 91.859649122807 50.6 L 93.210526315789 50.6 L 94.561403508772 42.69375 L 95.912280701754 37.95 L 97.263157894737 25.3 L 98.614035087719 34.7875 L 99.964912280702 34.7875 L 101.31578947368 34.7875 L 102.66666666667 42.69375 L 104.01754385965 42.69375 L 105.36842105263 42.69375 L 106.71929824561 33.20625 L 108.0701754386 34.7875 L 109.42105263158 52.18125 L 110.77192982456 63.25 L 112.12280701754 45.85625 L 113.47368421053 39.53125 L 114.82456140351 28.4625 L 116.17543859649 41.1125 L 117.52631578947 41.1125 L 118.87719298246 47.4375 L 120.22807017544 47.4375 L 121.57894736842 47.4375 L 122.9298245614 47.4375 L 124.28070175439 60.0875 L 125.63157894737 60.0875 L 126.98245614035 60.0875 L 128.33333333333 69.575 L 129.68421052632 69.575 L 131.0350877193 69.575 L 132.38596491228 69.575 L 133.73684210526 44.275 L 135.08771929825 44.275 L 136.43859649123 44.275 L 137.78947368421 34.7875 L 139.14035087719 34.7875 L 140.49122807018 30.04375 L 141.84210526316 30.04375 L 143.19298245614 18.975 L 144.54385964912 18.975 L 145.89473684211 14.23125 L 147.24561403509 14.23125 L 148.59649122807 23.71875 L 149.94736842105 15.8125 L 151.29824561404 15.8125 L 152.64912280702 26.88125 L 154 25.3 L 155.35087719298 25.3 L 156.70175438596 12.65 L 158.05263157895 12.65 L 159.40350877193 4.74375 L 160.75438596491 17.39375 L 162.10526315789 30.04375 L 163.45614035088 41.1125 L 164.80701754386 41.1125 L 166.15789473684 31.625 L 167.50877192982 12.65 L 168.85964912281 12.65 L 170.21052631579 1.58125 L 171.56140350877 6.325 L 172.91228070175 2.8421709430404e-14 L 174.26315789474 2.8421709430404e-14 L 175.61403508772 2.8421709430404e-14 L 176.9649122807 7.90625 L 178.31578947368 2.8421709430404e-14 L 179.66666666667 12.65 L 181.01754385965 6.325 L 182.36842105263 18.975 L 183.71929824561 7.90625 L 185.0701754386 1.58125 L 186.42105263158 1.58125 L 187.77192982456 1.58125 L 189.12280701754 6.325 L 190.47368421053 2.8421709430404e-14 L 191.82456140351 2.8421709430404e-14 L 193.17543859649 2.8421709430404e-14 L 194.52631578947 2.8421709430404e-14 L 195.87719298246 2.8421709430404e-14 L 197.22807017544 2.8421709430404e-14 L 198.57894736842 6.325 L 199.9298245614 6.325 L 201.28070175439 18.975 L 202.63157894737 18.975 L 203.98245614035 18.975 L 205.33333333333 18.975 L 206.68421052632 31.625 L 208.0350877193 36.36875 L 209.38596491228 36.36875 L 210.73684210526 36.36875 L 212.08771929825 47.4375 L 213.43859649123 47.4375 L 214.78947368421 53.7625 L 216.14035087719 41.1125 L 217.49122807018 41.1125 L 218.84210526316 25.3 L 220.19298245614 17.39375 L 221.54385964912 11.06875 L 222.89473684211 22.1375 L 224.24561403509 12.65 L 225.59649122807 25.3 L 226.94736842105 41.1125 L 228.29824561404 41.1125 L 229.64912280702 42.69375 L 231 53.7625 L 232.35087719298 53.7625 L 233.70175438596 45.85625 L 235.05263157895 37.95 L 236.40350877193 49.01875 L 237.75438596491 49.01875 L 239.10526315789 49.01875 L 240.45614035088 49.01875 L 241.80701754386 61.66875 L 243.15789473684 61.66875 L 244.50877192982 61.66875 L 245.85964912281 66.4125 L 247.21052631579 66.4125 L 248.56140350877 71.15625 L 249.91228070175 71.15625 L 251.26315789474 63.25 L 252.61403508772 71.15625 L 253.9649122807 71.15625 L 255.31578947368 63.25 L 256.66666666667 79.0625 L 258.01754385965 90.13125 L 259.36842105263 102.78125 L 260.71929824561 109.10625 L 262.0701754386 123.3375 L 263.42105263158 123.3375 L 264.77192982456 123.3375 L 266.12280701754 123.3375 L 267.47368421053 123.3375 L 268.82456140351 123.3375 L 270.17543859649 126.5 L 271.52631578947 113.85 L 272.87719298246 102.78125 L 274.22807017544 102.78125 L 275.57894736842 102.78125 L 276.9298245614 102.78125 L 278.28070175439 102.78125 L 279.63157894737 107.525 L 280.98245614035 96.45625 L 282.33333333333 88.55 L 283.68421052632 88.55 L 285.0350877193 77.48125 L 286.38596491228 61.66875 L 287.73684210526 49.01875 L 289.08771929825 49.01875 L 290.43859649123 44.275 L 291.78947368421 44.275 L 293.14035087719 28.4625 L 294.49122807018 15.8125 L 295.84210526316 26.88125 L 297.19298245614 25.3 L 298.54385964912 26.88125 L 299.89473684211 20.55625 L 301.24561403509 11.06875 L 302.59649122807 11.06875 L 303.94736842105 11.06875 L 305.29824561404 6.325 L 306.64912280702 17.39375 L 308 2.8421709430404e-14 L 309.35087719298 2.8421709430404e-14 L 310.70175438596 6.325 L 312.05263157895 2.8421709430404e-14 L 313.40350877193 4.74375 L 314.75438596491 4.74375 L 316.10526315789 4.74375 L 317.45614035088 4.74375 L 318.80701754386 4.74375 L 320.15789473684 12.65 L 321.50877192982 12.65 L 322.85964912281 12.65 L 324.21052631579 12.65 L 325.56140350877 12.65 L 326.91228070175 23.71875 L 328.26315789474 6.325 L 329.61403508772 15.8125 L 330.9649122807 15.8125 L 332.31578947368 28.4625 L 333.66666666667 41.1125 L 335.01754385965 45.85625 L 336.36842105263 47.4375 L 337.71929824561 47.4375 L 339.0701754386 47.4375 L 340.42105263158 47.4375 L 341.77192982456 60.0875 L 343.12280701754 60.0875 L 344.47368421053 60.0875 L 345.82456140351 60.0875 L 347.17543859649 60.0875 L 348.52631578947 50.6 L 349.87719298246 56.925 L 351.22807017544 34.7875 L 352.57894736842 42.69375 L 353.9298245614 49.01875 L 355.28070175439 36.36875 L 356.63157894737 23.71875 L 357.98245614035 23.71875 L 359.33333333333 17.39375 L 360.68421052632 17.39375 L 362.0350877193 30.04375 L 363.38596491228 30.04375 L 364.73684210526 30.04375 L 366.08771929825 30.04375 L 367.43859649123 42.69375 L 368.78947368421 34.7875 L 370.14035087719 28.4625 L 371.49122807018 28.4625 L 372.84210526316 28.4625 L 374.19298245614 36.36875 L 375.54385964912 44.275 L 376.89473684211 36.36875 L 378.24561403509 30.04375 L 379.59649122807 20.55625 L 380.94736842105 20.55625 L 382.29824561404 12.65 L 383.64912280702 3.1625 L 385 12.65 L 386.35087719298 4.74375 L 387.70175438596 2.8421709430404e-14 L 389.05263157895 2.8421709430404e-14 L 390.40350877193 2.8421709430404e-14 L 391.75438596491 2.8421709430404e-14 L 393.10526315789 9.4875 L 394.45614035088 15.8125 L 395.80701754386 17.39375 L 397.15789473684 7.90625 L 398.50877192982 11.06875 L 399.85964912281 26.88125 L 401.21052631579 44.275 L 402.56140350877 44.275 L 403.91228070175 34.7875 L 405.26315789474 34.7875 L 406.61403508772 34.7875 L 407.9649122807 39.53125 L 409.31578947368 17.39375 L 410.66666666667 26.88125 L 412.01754385965 18.975 L 413.36842105263 18.975 L 414.71929824561 7.90625 L 416.0701754386 7.90625 L 417.42105263158 7.90625 L 418.77192982456 7.90625 L 420.12280701754 7.90625 L 421.47368421053 31.625 L 422.82456140351 31.625 L 424.17543859649 15.8125 L 425.52631578947 22.1375 L 426.87719298246 20.55625 L 428.22807017544 20.55625 L 429.57894736842 26.88125 L 430.9298245614 26.88125 L 432.28070175439 34.7875 L 433.63157894737 42.69375 L 434.98245614035 33.20625 L 436.33333333333 44.275 L 437.68421052632 44.275 L 439.0350877193 44.275 L 440.38596491228 56.925 L 441.73684210526 45.85625 L 443.08771929825 39.53125 L 444.43859649123 34.7875 L 445.78947368421 47.4375 L 447.14035087719 37.95 L 448.49122807018 37.95 L 449.84210526316 44.275 L 451.19298245614 37.95 L 452.54385964912 41.1125 L 453.89473684211 41.1125 L 455.24561403509 7.90625 L 456.59649122807 7.90625 L 457.94736842105 3.1625 L 459.29824561404 12.65 L 460.64912280702 12.65 L 462 17.39375 L 463.35087719298 12.65 L 464.70175438596 12.65 L 466.05263157895 18.975 L 467.40350877193 26.88125 L 468.75438596491 37.95 L 470.10526315789 45.85625 L 471.45614035088 39.53125 L 472.80701754386 49.01875 L 474.15789473684 58.50625 L 475.50877192982 69.575 L 476.85964912281 105.94375 L 478.21052631579 105.94375 L 479.56140350877 105.94375 L 480.91228070175 105.94375 L 482.26315789474 96.45625 L 483.61403508772 86.96875 L 484.9649122807 80.64375 L 486.31578947368 80.64375 L 487.66666666667 88.55 L 489.01754385965 88.55 L 490.36842105263 75.9 L 491.71929824561 61.66875 L 493.0701754386 56.925 L 494.42105263158 67.99375 L 495.77192982456 61.66875 L 497.12280701754 61.66875 L 498.47368421053 71.15625 L 499.82456140351 83.80625 L 501.17543859649 75.9 L 502.52631578947 75.9 L 503.87719298246 72.7375 L 505.22807017544 72.7375 L 506.57894736842 80.64375 L 507.9298245614 90.13125 L 509.28070175439 74.31875 L 510.63157894737 67.99375 L 511.98245614035 74.31875 L 513.33333333333 74.31875 L 514.68421052632 82.225 L 516.0350877193 85.3875 L 517.38596491228 85.3875 L 518.73684210526 80.64375 L 520.08771929825 86.96875 L 521.43859649123 94.875 L 522.78947368421 99.61875 L 524.14035087719 99.61875 L 525.49122807018 107.525 L 526.84210526316 107.525 L 528.19298245614 110.6875 L 529.54385964912 105.94375 L 530.89473684211 105.94375 L 532.24561403509 124.91875 L 533.59649122807 129.6625 L 534.94736842105 139.15 L 536.29824561404 153.38125 L 537.64912280702 162.86875 L 539 162.86875" class="highcharts-graph" data-z-index="1" stroke="#CEEDA5" stroke-width="2" stroke-linejoin="round" stroke-linecap="round" filter="none" aria-hidden="false" role="region" tabindex="-1" style="outline: none;" aria-label="EMERALDS, line 1 of 2 with 400 data points."></path></g><g class="highcharts-markers highcharts-series-0 highcharts-line-series highcharts-color-1" data-z-index="0.1" opacity="1" transform="translate(51,42) scale(1 1)" clip-path="none" aria-hidden="true"></g><g class="highcharts-series highcharts-series-1 highcharts-line-series highcharts-color-2" data-z-index="0.1" opacity="1" transform="translate(51,42) scale(1 1)" clip-path="url(#highcharts-te5i4sn-77572-)" aria-hidden="false"><path fill="none" d="M 0 126.5 L 1.3508771929825 142.56349206349 L 2.7017543859649 138.54761904762 L 4.0526315789474 134.53174603175 L 5.4035087719298 110.43650793651 L 6.7543859649123 120.47619047619 L 8.1052631578947 110.43650793651 L 9.4561403508772 116.46031746032 L 10.80701754386 126.5 L 12.157894736842 116.46031746032 L 13.508771929825 116.46031746032 L 14.859649122807 112.44444444444 L 16.210526315789 112.44444444444 L 17.561403508772 112.44444444444 L 18.912280701754 134.53174603175 L 20.263157894737 144.57142857143 L 21.614035087719 144.57142857143 L 22.964912280702 144.57142857143 L 24.315789473684 144.57142857143 L 25.666666666667 128.50793650794 L 27.017543859649 142.56349206349 L 28.368421052632 130.51587301587 L 29.719298245614 130.51587301587 L 31.070175438596 116.46031746032 L 32.421052631579 136.53968253968 L 33.771929824561 148.5873015873 L 35.122807017544 136.53968253968 L 36.473684210526 148.5873015873 L 37.824561403509 146.57936507937 L 39.175438596491 142.56349206349 L 40.526315789474 158.62698412698 L 41.877192982456 152.60317460317 L 43.228070175439 154.61111111111 L 44.578947368421 144.57142857143 L 45.929824561404 132.52380952381 L 47.280701754386 122.48412698413 L 48.631578947368 134.53174603175 L 49.982456140351 140.55555555556 L 51.333333333333 130.51587301587 L 52.684210526316 128.50793650794 L 54.035087719298 122.48412698413 L 55.385964912281 128.50793650794 L 56.736842105263 116.46031746032 L 58.087719298246 96.380952380952 L 59.438596491228 94.373015873016 L 60.789473684211 94.373015873016 L 62.140350877193 100.39682539683 L 63.491228070175 92.365079365079 L 64.842105263158 82.325396825397 L 66.19298245614 76.301587301587 L 67.543859649123 78.309523809524 L 68.894736842105 72.285714285714 L 70.245614035088 84.333333333333 L 71.59649122807 68.269841269841 L 72.947368421053 68.269841269841 L 74.298245614035 80.31746031746 L 75.649122807018 80.31746031746 L 77 80.31746031746 L 78.350877192982 70.277777777778 L 79.701754385965 80.31746031746 L 81.052631578947 86.34126984127 L 82.40350877193 86.34126984127 L 83.754385964912 78.309523809524 L 85.105263157895 72.285714285714 L 86.456140350877 80.31746031746 L 87.80701754386 84.333333333333 L 89.157894736842 84.333333333333 L 90.508771929825 84.333333333333 L 91.859649122807 102.40476190476 L 93.210526315789 90.357142857143 L 94.561403508772 94.373015873016 L 95.912280701754 84.333333333333 L 97.263157894737 70.277777777778 L 98.614035087719 70.277777777778 L 99.964912280702 54.214285714286 L 101.31578947368 60.238095238095 L 102.66666666667 46.18253968254 L 104.01754385965 48.190476190476 L 105.36842105263 58.230158730159 L 106.71929824561 74.293650793651 L 108.0701754386 78.309523809524 L 109.42105263158 88.349206349206 L 110.77192982456 88.349206349206 L 112.12280701754 88.349206349206 L 113.47368421053 90.357142857143 L 114.82456140351 98.388888888889 L 116.17543859649 108.42857142857 L 117.52631578947 108.42857142857 L 118.87719298246 108.42857142857 L 120.22807017544 108.42857142857 L 121.57894736842 98.388888888889 L 122.9298245614 92.365079365079 L 124.28070175439 108.42857142857 L 125.63157894737 110.43650793651 L 126.98245614035 106.42063492063 L 128.33333333333 102.40476190476 L 129.68421052632 114.45238095238 L 131.0350877193 122.48412698413 L 132.38596491228 114.45238095238 L 133.73684210526 112.44444444444 L 135.08771929825 84.333333333333 L 136.43859649123 100.39682539683 L 137.78947368421 94.373015873016 L 139.14035087719 86.34126984127 L 140.49122807018 86.34126984127 L 141.84210526316 84.333333333333 L 143.19298245614 68.269841269841 L 144.54385964912 68.269841269841 L 145.89473684211 78.309523809524 L 147.24561403509 56.222222222222 L 148.59649122807 54.214285714286 L 149.94736842105 56.222222222222 L 151.29824561404 56.222222222222 L 152.64912280702 66.261904761905 L 154 54.214285714286 L 155.35087719298 54.214285714286 L 156.70175438596 62.246031746032 L 158.05263157895 62.246031746032 L 159.40350877193 62.246031746032 L 160.75438596491 70.277777777778 L 162.10526315789 70.277777777778 L 163.45614035088 72.285714285714 L 164.80701754386 78.309523809524 L 166.15789473684 78.309523809524 L 167.50877192982 92.365079365079 L 168.85964912281 84.333333333333 L 170.21052631579 92.365079365079 L 171.56140350877 92.365079365079 L 172.91228070175 100.39682539683 L 174.26315789474 110.43650793651 L 175.61403508772 126.5 L 176.9649122807 126.5 L 178.31578947368 126.5 L 179.66666666667 126.5 L 181.01754385965 106.42063492063 L 182.36842105263 128.50793650794 L 183.71929824561 138.54761904762 L 185.0701754386 130.51587301587 L 186.42105263158 126.5 L 187.77192982456 120.47619047619 L 189.12280701754 124.49206349206 L 190.47368421053 120.47619047619 L 191.82456140351 110.43650793651 L 193.17543859649 118.46825396825 L 194.52631578947 114.45238095238 L 195.87719298246 102.40476190476 L 197.22807017544 94.373015873016 L 198.57894736842 102.40476190476 L 199.9298245614 120.47619047619 L 201.28070175439 130.51587301587 L 202.63157894737 128.50793650794 L 203.98245614035 116.46031746032 L 205.33333333333 112.44444444444 L 206.68421052632 106.42063492063 L 208.0350877193 84.333333333333 L 209.38596491228 88.349206349206 L 210.73684210526 86.34126984127 L 212.08771929825 98.388888888889 L 213.43859649123 104.4126984127 L 214.78947368421 114.45238095238 L 216.14035087719 130.51587301587 L 217.49122807018 142.56349206349 L 218.84210526316 128.50793650794 L 220.19298245614 144.57142857143 L 221.54385964912 154.61111111111 L 222.89473684211 138.54761904762 L 224.24561403509 140.55555555556 L 225.59649122807 152.60317460317 L 226.94736842105 152.60317460317 L 228.29824561404 152.60317460317 L 229.64912280702 126.5 L 231 126.5 L 232.35087719298 140.55555555556 L 233.70175438596 128.50793650794 L 235.05263157895 140.55555555556 L 236.40350877193 136.53968253968 L 237.75438596491 132.52380952381 L 239.10526315789 120.47619047619 L 240.45614035088 102.40476190476 L 241.80701754386 94.373015873016 L 243.15789473684 112.44444444444 L 244.50877192982 108.42857142857 L 245.85964912281 124.49206349206 L 247.21052631579 92.365079365079 L 248.56140350877 102.40476190476 L 249.91228070175 98.388888888889 L 251.26315789474 88.349206349206 L 252.61403508772 88.349206349206 L 253.9649122807 96.380952380952 L 255.31578947368 86.34126984127 L 256.66666666667 104.4126984127 L 258.01754385965 96.380952380952 L 259.36842105263 92.365079365079 L 260.71929824561 88.349206349206 L 262.0701754386 96.380952380952 L 263.42105263158 92.365079365079 L 264.77192982456 82.325396825397 L 266.12280701754 88.349206349206 L 267.47368421053 80.31746031746 L 268.82456140351 76.301587301587 L 270.17543859649 126.5 L 271.52631578947 130.51587301587 L 272.87719298246 120.47619047619 L 274.22807017544 120.47619047619 L 275.57894736842 120.47619047619 L 276.9298245614 130.51587301587 L 278.28070175439 126.5 L 279.63157894737 134.53174603175 L 280.98245614035 122.48412698413 L 282.33333333333 132.52380952381 L 283.68421052632 132.52380952381 L 285.0350877193 142.56349206349 L 286.38596491228 152.60317460317 L 287.73684210526 144.57142857143 L 289.08771929825 138.54761904762 L 290.43859649123 146.57936507937 L 291.78947368421 138.54761904762 L 293.14035087719 104.4126984127 L 294.49122807018 110.43650793651 L 295.84210526316 104.4126984127 L 297.19298245614 90.357142857143 L 298.54385964912 90.357142857143 L 299.89473684211 90.357142857143 L 301.24561403509 90.357142857143 L 302.59649122807 94.373015873016 L 303.94736842105 84.333333333333 L 305.29824561404 82.325396825397 L 306.64912280702 80.31746031746 L 308 82.325396825397 L 309.35087719298 68.269841269841 L 310.70175438596 68.269841269841 L 312.05263157895 72.285714285714 L 313.40350877193 74.293650793651 L 314.75438596491 48.190476190476 L 316.10526315789 52.206349206349 L 317.45614035088 46.18253968254 L 318.80701754386 44.174603174603 L 320.15789473684 20.079365079365 L 321.50877192982 28.111111111111 L 322.85964912281 28.111111111111 L 324.21052631579 22.087301587302 L 325.56140350877 36.142857142857 L 326.91228070175 26.103174603175 L 328.26315789474 14.055555555556 L 329.61403508772 22.087301587302 L 330.9649122807 22.087301587302 L 332.31578947368 36.142857142857 L 333.66666666667 36.142857142857 L 335.01754385965 46.18253968254 L 336.36842105263 46.18253968254 L 337.71929824561 50.198412698413 L 339.0701754386 50.198412698413 L 340.42105263158 44.174603174603 L 341.77192982456 38.150793650794 L 343.12280701754 44.174603174603 L 344.47368421053 40.15873015873 L 345.82456140351 22.087301587302 L 347.17543859649 48.190476190476 L 348.52631578947 56.222222222222 L 349.87719298246 52.206349206349 L 351.22807017544 52.206349206349 L 352.57894736842 64.253968253968 L 353.9298245614 62.246031746032 L 355.28070175439 62.246031746032 L 356.63157894737 58.230158730159 L 357.98245614035 68.269841269841 L 359.33333333333 52.206349206349 L 360.68421052632 64.253968253968 L 362.0350877193 70.277777777778 L 363.38596491228 62.246031746032 L 364.73684210526 62.246031746032 L 366.08771929825 80.31746031746 L 367.43859649123 80.31746031746 L 368.78947368421 82.325396825397 L 370.14035087719 94.373015873016 L 371.49122807018 94.373015873016 L 372.84210526316 102.40476190476 L 374.19298245614 116.46031746032 L 375.54385964912 114.45238095238 L 376.89473684211 146.57936507937 L 378.24561403509 142.56349206349 L 379.59649122807 160.63492063492 L 380.94736842105 130.51587301587 L 382.29824561404 102.40476190476 L 383.64912280702 98.388888888889 L 385 122.48412698413 L 386.35087719298 116.46031746032 L 387.70175438596 106.42063492063 L 389.05263157895 116.46031746032 L 390.40350877193 132.52380952381 L 391.75438596491 134.53174603175 L 393.10526315789 128.50793650794 L 394.45614035088 122.48412698413 L 395.80701754386 122.48412698413 L 397.15789473684 132.52380952381 L 398.50877192982 132.52380952381 L 399.85964912281 132.52380952381 L 401.21052631579 136.53968253968 L 402.56140350877 126.5 L 403.91228070175 112.44444444444 L 405.26315789474 112.44444444444 L 406.61403508772 94.373015873016 L 407.9649122807 88.349206349206 L 409.31578947368 88.349206349206 L 410.66666666667 80.31746031746 L 412.01754385965 82.325396825397 L 413.36842105263 78.309523809524 L 414.71929824561 78.309523809524 L 416.0701754386 72.285714285714 L 417.42105263158 66.261904761905 L 418.77192982456 62.246031746032 L 420.12280701754 58.230158730159 L 421.47368421053 54.214285714286 L 422.82456140351 40.15873015873 L 424.17543859649 40.15873015873 L 425.52631578947 40.15873015873 L 426.87719298246 14.055555555556 L 428.22807017544 20.079365079365 L 429.57894736842 6.0238095238095 L 430.9298245614 10.039682539683 L 432.28070175439 26.103174603175 L 433.63157894737 12.047619047619 L 434.98245614035 20.079365079365 L 436.33333333333 24.095238095238 L 437.68421052632 2.0079365079365 L 439.0350877193 2.0079365079365 L 440.38596491228 24.095238095238 L 441.73684210526 24.095238095238 L 443.08771929825 8.0317460317461 L 444.43859649123 20.079365079365 L 445.78947368421 24.095238095238 L 447.14035087719 30.119047619048 L 448.49122807018 34.134920634921 L 449.84210526316 28.111111111111 L 451.19298245614 46.18253968254 L 452.54385964912 32.126984126984 L 453.89473684211 32.126984126984 L 455.24561403509 28.111111111111 L 456.59649122807 16.063492063492 L 457.94736842105 20.079365079365 L 459.29824561404 10.039682539683 L 460.64912280702 10.039682539683 L 462 2.0079365079365 L 463.35087719298 12.047619047619 L 464.70175438596 12.047619047619 L 466.05263157895 24.095238095238 L 467.40350877193 18.071428571429 L 468.75438596491 2.0079365079365 L 470.10526315789 6.0238095238095 L 471.45614035088 14.055555555556 L 472.80701754386 18.071428571429 L 474.15789473684 32.126984126984 L 475.50877192982 32.126984126984 L 476.85964912281 30.119047619048 L 478.21052631579 26.103174603175 L 479.56140350877 32.126984126984 L 480.91228070175 44.174603174603 L 482.26315789474 44.174603174603 L 483.61403508772 58.230158730159 L 484.9649122807 42.166666666667 L 486.31578947368 24.095238095238 L 487.66666666667 22.087301587302 L 489.01754385965 10.039682539683 L 490.36842105263 10.039682539683 L 491.71929824561 18.071428571429 L 493.0701754386 18.071428571429 L 494.42105263158 30.119047619048 L 495.77192982456 2.0079365079365 L 497.12280701754 2.0079365079365 L 498.47368421053 6.0238095238095 L 499.82456140351 12.047619047619 L 501.17543859649 18.071428571429 L 502.52631578947 2.8421709430404e-14 L 503.87719298246 14.055555555556 L 505.22807017544 22.087301587302 L 506.57894736842 16.063492063492 L 507.9298245614 6.0238095238095 L 509.28070175439 6.0238095238095 L 510.63157894737 12.047619047619 L 511.98245614035 4.0158730158731 L 513.33333333333 4.0158730158731 L 514.68421052632 2.0079365079365 L 516.0350877193 6.0238095238095 L 517.38596491228 10.039682539683 L 518.73684210526 10.039682539683 L 520.08771929825 2.0079365079365 L 521.43859649123 22.087301587302 L 522.78947368421 32.126984126984 L 524.14035087719 46.18253968254 L 525.49122807018 52.206349206349 L 526.84210526316 46.18253968254 L 528.19298245614 48.190476190476 L 529.54385964912 38.150793650794 L 530.89473684211 38.150793650794 L 532.24561403509 54.214285714286 L 533.59649122807 54.214285714286 L 534.94736842105 54.214285714286 L 536.29824561404 48.190476190476 L 537.64912280702 44.174603174603 L 539 54.214285714286" class="highcharts-graph" data-z-index="1" stroke="#9F6AE1" stroke-width="2" stroke-linejoin="round" stroke-linecap="round" filter="none" aria-hidden="false" role="region" tabindex="-1" style="outline: none;" aria-label="TOMATOES, line 2 of 2 with 400 data points."></path></g><g class="highcharts-markers highcharts-series-1 highcharts-line-series highcharts-color-2" data-z-index="0.1" opacity="1" transform="translate(51,42) scale(1 1)" clip-path="none" aria-hidden="true"></g></g><text x="300" text-anchor="middle" class="highcharts-title" data-z-index="4" style="font-size: 1em; color: rgb(240, 240, 243); font-weight: bold; fill: rgb(240, 240, 243);" y="22" aria-hidden="true">Positions (% of limit)</text><text x="300" text-anchor="middle" class="highcharts-subtitle" data-z-index="4" style="color: rgb(240, 240, 243); font-size: 0.8em; fill: rgb(240, 240, 243);" y="41" aria-hidden="true"></text><text x="10" text-anchor="start" class="highcharts-caption" data-z-index="4" style="color: rgb(102, 102, 102); font-size: 0.8em; fill: rgb(102, 102, 102);" y="397" aria-hidden="true"></text><g class="highcharts-legend highcharts-no-tooltip" data-z-index="7" transform="translate(191,355)" aria-hidden="true"><rect fill="transparent" class="highcharts-legend-box" rx="0" ry="0" stroke="#999999" stroke-width="0" filter="none" x="0" y="0" width="217" height="30"></rect><g data-z-index="1"><g><g class="highcharts-legend-item highcharts-line-series highcharts-color-1 highcharts-series-0" data-z-index="1" transform="translate(8,3)"><path fill="none" class="highcharts-graph" stroke-width="2" stroke-linecap="round" d="M 1 13 L 15 13" stroke="#CEEDA5"></path><text x="21" style="color: rgb(240, 240, 243); cursor: pointer; font-size: 0.8em; text-decoration: none; fill: rgb(240, 240, 243);" text-anchor="start" data-z-index="2" y="17">EMERALDS</text></g><g class="highcharts-legend-item highcharts-line-series highcharts-color-2 highcharts-series-1" data-z-index="1" transform="translate(119.46666717529297,3)"><path fill="none" class="highcharts-graph" stroke-width="2" stroke-linecap="round" d="M 1 13 L 15 13" stroke="#9F6AE1"></path><text x="21" y="17" style="color: rgb(240, 240, 243); cursor: pointer; font-size: 0.8em; text-decoration: none; fill: rgb(240, 240, 243);" text-anchor="start" data-z-index="2">TOMATOES</text></g></g></g></g><g class="highcharts-axis-labels highcharts-xaxis-labels" data-z-index="7" aria-hidden="true"><text x="51" style="color: rgb(240, 240, 243); cursor: default; font-size: 0.8em; fill: rgb(240, 240, 243);" text-anchor="middle" transform="translate(0,0)" y="322" opacity="1">0</text><text x="132.05263157895" style="color: rgb(240, 240, 243); cursor: default; font-size: 0.8em; fill: rgb(240, 240, 243);" text-anchor="middle" transform="translate(0,0)" y="322" opacity="1">300,000</text><text x="213.10526315789" style="color: rgb(240, 240, 243); cursor: default; font-size: 0.8em; fill: rgb(240, 240, 243);" text-anchor="middle" transform="translate(0,0)" y="322" opacity="1">600,000</text><text x="294.15789473684" style="color: rgb(240, 240, 243); cursor: default; font-size: 0.8em; fill: rgb(240, 240, 243);" text-anchor="middle" transform="translate(0,0)" y="322" opacity="1">900,000</text><text x="375.21052631579" style="color: rgb(240, 240, 243); cursor: default; font-size: 0.8em; fill: rgb(240, 240, 243);" text-anchor="middle" transform="translate(0,0)" y="322" opacity="1">1,200,000</text><text x="456.26315789474" style="color: rgb(240, 240, 243); cursor: default; font-size: 0.8em; fill: rgb(240, 240, 243);" text-anchor="middle" transform="translate(0,0)" y="322" opacity="1">1,500,000</text><text x="537.31578947368" style="color: rgb(240, 240, 243); cursor: default; font-size: 0.8em; fill: rgb(240, 240, 243);" text-anchor="middle" transform="translate(0,0)" y="322" opacity="1">1,800,000</text></g><g class="highcharts-axis-labels highcharts-yaxis-labels" data-z-index="7" aria-hidden="true"><text x="36" style="color: rgb(240, 240, 243); cursor: default; font-size: 0.8em; fill: rgb(240, 240, 243);" text-anchor="end" transform="translate(0,0)" y="293" opacity="1">-100</text><text x="36" style="color: rgb(240, 240, 243); cursor: default; font-size: 0.8em; fill: rgb(240, 240, 243);" text-anchor="end" transform="translate(0,0)" y="230" opacity="1">-50</text><text x="36" style="color: rgb(240, 240, 243); cursor: default; font-size: 0.8em; fill: rgb(240, 240, 243);" text-anchor="end" transform="translate(0,0)" y="167" opacity="1">0</text><text x="36" style="color: rgb(240, 240, 243); cursor: default; font-size: 0.8em; fill: rgb(240, 240, 243);" text-anchor="end" transform="translate(0,0)" y="103" opacity="1">50</text><text x="0" style="color: rgb(240, 240, 243); cursor: default; font-size: 0.8em; fill: rgb(240, 240, 243);" text-anchor="end" transform="translate(0,0)" visibility="hidden">100</text></g><text x="590" class="highcharts-credits" text-anchor="end" data-z-index="8" style="cursor: pointer; color: rgb(240, 240, 243); font-size: 0.6em; fill: rgb(240, 240, 243);" y="395" aria-label="Chart credits: Highcharts.com" aria-hidden="false">Highcharts.com</text></svg>