<svg xmlns:xlink="http://www.w3.org/1999/xlink" version="1.1" class="highcharts-root" style="font-family: Helvetica, Arial, sans-serif; font-size: 1rem;" xmlns="http://www.w3.org/2000/svg" width="600" height="400" viewBox="0 0 600 400" aria-label="Interactive chart" aria-hidden="false"><desc aria-hidden="true">Created with Highcharts 11.4.8</desc><defs aria-hidden="true"><filter id="highcharts-drop-shadow-6"><feDropShadow dx="1" dy="1" flood-color="#000000" flood-opacity="0.75" stdDeviation="2.5"></feDropShadow></filter><clipPath id="highcharts-te5i4sn-59206-"><rect x="0" y="0" width="544" height="253" fill="none"></rect></clipPath></defs><rect fill="#1f1f20" class="highcharts-background" filter="none" x="0" y="0" width="600" height="400" rx="0" ry="0" aria-hidden="true"></rect><rect fill="none" class="highcharts-plot-background" x="46" y="42" width="544" height="253" filter="none" aria-hidden="true"></rect><g class="highcharts-grid highcharts-xaxis-grid" data-z-index="1" aria-hidden="true"><path fill="none" stroke="#707073" stroke-width="0" stroke-dasharray="none" data-z-index="1" class="highcharts-grid-line" d="M 46.5 42 L 46.5 295" opacity="1"></path><path fill="none" stroke="#707073" stroke-width="0" stroke-dasharray="none" data-z-index="1" class="highcharts-grid-line" d="M 127.5 42 L 127.5 295" opacity="1"></path><path fill="none" stroke="#707073" stroke-width="0" stroke-dasharray="none" data-z-index="1" class="highcharts-grid-line" d="M 209.5 42 L 209.5 295" opacity="1"></path><path fill="none" stroke="#707073" stroke-width="0" stroke-dasharray="none" data-z-index="1" class="highcharts-grid-line" d="M 291.5 42 L 291.5 295" opacity="1"></path><path fill="none" stroke="#707073" stroke-width="0" stroke-dasharray="none" data-z-index="1" class="highcharts-grid-line" d="M 373.5 42 L 373.5 295" opacity="1"></path><path fill="none" stroke="#707073" stroke-width="0" stroke-dasharray="none" data-z-index="1" class="highcharts-grid-line" d="M 455.5 42 L 455.5 295" opacity="1"></path><path fill="none" stroke="#707073" stroke-width="0" stroke-dasharray="none" data-z-index="1" class="highcharts-grid-line" d="M 536.5 42 L 536.5 295" opacity="1"></path></g><g class="highcharts-grid highcharts-yaxis-grid" data-z-index="1" aria-hidden="true"><path fill="none" stroke="#707073" stroke-width="1" stroke-dasharray="none" data-z-index="1" class="highcharts-grid-line" d="M 46 295.5 L 590 295.5" opacity="1"></path><path fill="none" stroke="#707073" stroke-width="1" stroke-dasharray="none" data-z-index="1" class="highcharts-grid-line" d="M 46 232.5 L 590 232.5" opacity="1"></path><path fill="none" stroke="#707073" stroke-width="1" stroke-dasharray="none" data-z-index="1" class="highcharts-grid-line" d="M 46 169.5 L 590 169.5" opacity="1"></path><path fill="none" stroke="#707073" stroke-width="1" stroke-dasharray="none" data-z-index="1" class="highcharts-grid-line" d="M 46 105.5 L 590 105.5" opacity="1"></path><path fill="none" stroke="#707073" stroke-width="1" stroke-dasharray="none" data-z-index="1" class="highcharts-grid-line" d="M 46 42.5 L 590 42.5" opacity="1"></path></g><rect fill="none" class="highcharts-plot-border" data-z-index="1" stroke="#606063" stroke-width="0" x="46" y="42" width="544" height="253" aria-hidden="true"></rect><g class="highcharts-axis highcharts-xaxis" data-z-index="2" aria-hidden="true"><path fill="none" class="highcharts-tick" stroke="#707073" stroke-width="1" d="M 46.5 295 L 46.5 305" opacity="1"></path><path fill="none" class="highcharts-tick" stroke="#707073" stroke-width="1" d="M 127.5 295 L 127.5 305" opacity="1"></path><path fill="none" class="highcharts-tick" stroke="#707073" stroke-width="1" d="M 209.5 295 L 209.5 305" opacity="1"></path><path fill="none" class="highcharts-tick" stroke="#707073" stroke-width="1" d="M 291.5 295 L 291.5 305" opacity="1"></path><path fill="none" class="highcharts-tick" stroke="#707073" stroke-width="1" d="M 373.5 295 L 373.5 305" opacity="1"></path><path fill="none" class="highcharts-tick" stroke="#707073" stroke-width="1" d="M 455.5 295 L 455.5 305" opacity="1"></path><path fill="none" class="highcharts-tick" stroke="#707073" stroke-width="1" d="M 536.5 295 L 536.5 305" opacity="1"></path><text x="318" data-z-index="7" text-anchor="middle" transform="translate(0,0)" class="highcharts-axis-title" style="color: rgb(240, 240, 243); font-size: 0.8em; fill: rgb(240, 240, 243);" y="341">Timestamp</text><path fill="none" class="highcharts-axis-line" stroke="#707073" stroke-width="1" data-z-index="7" d="M 46 295.5 L 590 295.5"></path></g><g class="highcharts-axis highcharts-yaxis" data-z-index="2" aria-hidden="true"><path fill="none" class="highcharts-axis-line" stroke="#707073" stroke-width="0" data-z-index="7" d="M 46 42 L 46 295"></path></g><g class="highcharts-series-group" data-z-index="3" filter="none" aria-hidden="false"><g class="highcharts-series highcharts-series-0 highcharts-line-series highcharts-color-0" data-z-index="0.1" opacity="1" transform="translate(46,42) scale(1 1)" clip-path="url(#highcharts-te5i4sn-59206-)" aria-hidden="false"><path fill="none" d="M 0 253 L 1.3634085213033 251.41875 L 2.7268170426065 250.4194 L 4.0902255639098 248.9267 L 5.453634085213 248.1677 L 6.8170426065163 247.75025 L 8.1804511278195 247.16835 L 9.5438596491228 246.580125 L 10.907268170426 245.16965 L 12.270676691729 243.936275 L 13.634085213033 242.911625 L 14.997493734336 242.861025 L 16.360902255639 242.241175 L 17.724310776942 241.3114 L 19.087719298246 239.2874 L 20.451127819549 238.661225 L 21.814536340852 238.71815 L 23.177944862155 238.977475 L 24.541353383459 238.749775 L 25.904761904762 236.97245 L 27.268170426065 236.5297 L 28.631578947368 235.73275 L 29.994987468672 235.7201 L 31.358395989975 234.790325 L 32.721804511278 234.18945 L 34.085213032581 231.495 L 35.448621553885 229.553225 L 36.812030075188 228.34515 L 38.175438596491 227.40905 L 39.538847117794 225.35975 L 40.902255639098 223.89235 L 42.265664160401 223.784825 L 43.629072681704 219.84435 L 44.992481203008 218.98415 L 46.355889724311 218.37695 L 47.719298245614 217.9595 L 49.082706766917 216.78305 L 50.446115288221 215.688825 L 51.809523809524 214.9741 L 53.172932330827 212.437775 L 54.53634085213 212.267 L 55.899749373434 211.185425 L 57.263157894737 210.046925 L 58.62656641604 208.427725 L 59.989974937343 207.67505 L 61.353383458647 207.57385 L 62.71679197995 207.90275 L 64.080200501253 206.201325 L 65.443609022556 206.3721 L 66.80701754386 205.3854 L 68.170426065163 203.8674 L 69.533834586466 204.0951 L 70.897243107769 203.55115 L 72.260651629073 200.610025 L 73.624060150376 200.79345 L 74.987468671679 196.815025 L 76.350877192982 194.892225 L 77.714285714286 193.829625 L 79.077694235589 195.2148 L 80.441102756892 191.12885 L 81.804511278195 194.16485 L 83.167919799499 193.9751 L 84.531328320802 191.0403 L 85.894736842105 190.52165 L 87.258145363409 189.541275 L 88.621553884712 186.948025 L 89.984962406015 185.265575 L 91.348370927318 182.93165 L 92.711779448622 181.97025 L 94.075187969925 182.0082 L 95.438596491228 178.09935 L 96.802005012531 179.56675 L 98.165413533835 177.7325 L 99.528822055138 178.618 L 100.89223057644 177.7831 L 102.25563909774 177.79575 L 103.61904761905 176.4928 L 104.98245614035 176.088 L 106.34586466165 175.7085 L 107.70927318296 176.2651 L 109.07268170426 175.82235 L 110.43609022556 174.234775 L 111.79949874687 172.53335 L 113.16290726817 172.134875 L 114.52631578947 170.4714 L 115.88972431078 169.3582 L 117.25313283208 168.567575 L 118.61654135338 166.6764 L 119.97994987469 166.113475 L 121.34335839599 166.23365 L 122.70676691729 165.60115 L 124.0701754386 165.60115 L 125.4335839599 163.064825 L 126.7969924812 162.3248 L 128.16040100251 161.9959 L 129.52380952381 161.3128 L 130.88721804511 161.4899 L 132.25062656642 161.1357 L 133.61403508772 160.26285 L 134.97744360902 158.080725 L 136.34085213033 157.347025 L 137.70426065163 156.790425 L 139.06766917293 155.68355 L 140.43107769424 155.27875 L 141.79448621554 154.8613 L 143.15789473684 153.552025 L 144.52130325815 151.490075 L 145.88471177945 149.655825 L 147.24812030075 149.3459 L 148.61152882206 146.4617 L 149.97493734336 144.9184 L 151.33834586466 144.633775 L 152.70175438596 142.862775 L 154.06516290727 145.6268 L 155.42857142857 143.198 L 156.79197994987 144.3365 L 158.15538847118 141.8571 L 159.51879699248 142.0595 L 160.88220551378 144.04555 L 162.24561403509 139.4536 L 163.60902255639 138.0368 L 164.97243107769 138.65665 L 166.335839599 135.9116 L 167.6992481203 136.6453 L 169.0626566416 134.9502 L 170.42606516291 134.6972 L 171.78947368421 132.3443 L 173.15288220551 130.94015 L 174.51629072682 129.681475 L 175.87969924812 128.53665 L 177.24310776942 127.8409 L 178.60651629073 127.39815 L 179.96992481203 126.9554 L 181.33333333333 125.7157 L 182.69674185464 124.94405 L 184.06015037594 123.634775 L 185.42355889724 121.0605 L 186.78696741855 120.4027 L 188.15037593985 119.0365 L 189.51378446115 118.31545 L 190.87719298246 117.55645 L 192.24060150376 116.626675 L 193.60401002506 115.8487 L 194.96741854637 114.5837 L 196.33082706767 114.3054 L 197.69423558897 113.6223 L 199.05764411028 112.5597 L 200.42105263158 112.3067 L 201.78446115288 111.085975 L 203.14786967419 109.99175 L 204.51127819549 108.2587 L 205.87468671679 107.91715 L 207.2380952381 107.240375 L 208.6015037594 105.23535 L 209.9649122807 104.29925 L 211.32832080201 102.5662 L 212.69172932331 101.8325 L 214.05513784461 101.3265 L 215.41854636591 100.573825 L 216.78195488722 100.02355 L 218.14536340852 98.12605 L 219.50877192982 97.6074 L 220.87218045113 96.78515 L 222.23558897243 96.538475 L 223.59899749373 96.25385 L 224.96240601504 93.14195 L 226.32581453634 91.7125 L 227.68922305764 89.5873 L 229.05263157895 87.961775 L 230.41604010025 87.961775 L 231.77944862155 85.90615 L 233.14285714286 84.5273 L 234.50626566416 83.407775 L 235.86967418546 81.333175 L 237.23308270677 79.498925 L 238.59649122807 78.13905 L 239.95989974937 77.7469 L 241.32330827068 77.5192 L 242.68671679198 76.46925 L 244.05012531328 73.96455 L 245.41353383459 73.717875 L 246.77694235589 73.2182 L 248.14035087719 72.34535 L 249.5037593985 71.99115 L 250.8671679198 71.6243 L 252.2305764411 71.4725 L 253.59398496241 70.062025 L 254.95739348371 70.70085 L 256.32080200501 69.6762 L 257.68421052632 68.563 L 259.04761904762 68.670525 L 260.41102756892 67.658525 L 261.77443609023 66.3366 L 263.13784461153 65.432125 L 264.50125313283 64.154475 L 265.86466165414 62.57955 L 267.22807017544 61.84585 L 268.59147869674 62.358175 L 269.95488721805 61.1754 L 271.31829573935 61.561225 L 272.68170426065 253 L 274.04511278195 252.55725 L 275.40852130326 250.817875 L 276.77192982456 250.9507 L 278.13533834586 250.8242 L 279.49874686717 250.0652 L 280.86215538847 249.9134 L 282.22556390977 249.39475 L 283.58897243108 248.33215 L 284.95238095238 247.617425 L 286.31578947368 247.845125 L 287.67919799499 246.6244 L 289.04260651629 245.416325 L 290.40601503759 244.81545 L 291.7694235589 243.3101 L 293.1328320802 243.12035 L 294.4962406015 241.7415 L 295.85964912281 240.280425 L 297.22305764411 239.5151 L 298.58646616541 235.460775 L 299.94987468672 235.2394 L 301.31328320802 233.35455 L 302.67669172932 232.08955 L 304.04010025063 230.62215 L 305.40350877193 229.4204 L 306.76691729323 229.780925 L 308.13032581454 229.2939 L 309.49373433584 226.137725 L 310.85714285714 224.19595 L 312.22055137845 224.411 L 313.58395989975 225.15735 L 314.94736842105 223.76585 L 316.31077694236 225.00555 L 317.67418546366 223.1713 L 319.03759398496 221.520475 L 320.40100250627 219.79375 L 321.76441102757 220.42625 L 323.12781954887 218.636275 L 324.49122807018 213.626875 L 325.85463659148 216.50475 L 327.21804511278 215.29035 L 328.58145363409 211.792625 L 329.94486215539 208.219 L 331.30827067669 208.30755 L 332.67167919799 211.3562 L 334.0350877193 212.3429 L 335.3984962406 212.0899 L 336.7619047619 212.576925 L 338.12531328321 211.2044 L 339.48872180451 207.87745 L 340.85213032581 211.4068 L 342.21553884712 207.4347 L 343.57894736842 206.707325 L 344.94235588972 206.94135 L 346.30576441103 206.3215 L 347.66917293233 205.1324 L 349.03258145363 207.5612 L 350.39598997494 208.225325 L 351.75939849624 204.38605 L 353.12280701754 203.658675 L 354.48621553885 201.3627 L 355.84962406015 202.6024 L 357.21303258145 200.79345 L 358.57644110276 200.71755 L 359.93984962406 196.66955 L 361.30325814536 197.42855 L 362.66666666667 194.64555 L 364.03007518797 193.007375 L 365.39348370927 192.3053 L 366.75689223058 190.7873 L 368.12030075188 189.9777 L 369.48370927318 188.67475 L 370.84711779449 187.0935 L 372.21052631579 185.7526 L 373.57393483709 184.8418 L 374.9373433584 184.9177 L 376.3007518797 184.5888 L 377.664160401 183.64005 L 379.02756892231 182.80515 L 380.39097744361 180.70525 L 381.75438596491 179.8577 L 383.11779448622 178.5421 L 384.48120300752 177.1506 L 385.84461152882 175.74645 L 387.20802005013 172.9255 L 388.57142857143 171.0027 L 389.93483709273 170.2437 L 391.29824561404 164.9813 L 392.66165413534 168.365175 L 394.02506265664 167.745325 L 395.38847117794 167.0812 L 396.75187969925 165.5632 L 398.11528822055 163.3621 L 399.47869674185 162.16035 L 400.84210526316 161.1104 L 402.20551378446 159.9719 L 403.56892230576 158.915625 L 404.93233082707 157.42925 L 406.29573934837 157.30275 L 407.65914786967 156.101 L 409.02255639098 155.487475 L 410.38596491228 155.48115 L 411.74937343358 154.3806 L 413.11278195489 153.1409 L 414.47619047619 149.017 L 415.83959899749 149.7507 L 417.2030075188 149.1688 L 418.5664160401 147.499 L 419.9298245614 146.670425 L 421.29323308271 148.32125 L 422.65664160401 150.21875 L 424.02005012531 148.24535 L 425.38345864662 145.08285 L 426.74686716792 144.24795 L 428.11027568922 143.090475 L 429.47368421053 144.6401 L 430.83709273183 139.2512 L 432.20050125313 143.198 L 433.56390977444 139.13735 L 434.92731829574 141.13605 L 436.29072681704 139.39035 L 437.65413533835 136.7718 L 439.01754385965 137.3284 L 440.38095238095 135.08935 L 441.74436090226 131.3576 L 443.10776942356 132.9262 L 444.47117794486 131.4335 L 445.83458646617 135.462525 L 447.19799498747 135.46885 L 448.56140350877 135.930575 L 449.92481203008 130.1685 L 451.28822055138 130.548 L 452.65162907268 130.042 L 454.01503759398 127.227375 L 455.37844611529 126.7024 L 456.74185463659 128.41015 L 458.10526315789 123.65375 L 459.4686716792 120.889725 L 460.8320802005 127.9674 L 462.1954887218 126.569575 L 463.55889724311 128.9288 L 464.92230576441 128.1951 L 466.28571428571 129.4854 L 467.64912280702 130.756725 L 469.01253132832 130.098925 L 470.37593984962 129.491725 L 471.73934837093 132.2937 L 473.10275689223 127.52465 L 474.46616541353 122.84415 L 475.82957393484 117.45525 L 477.19298245614 119.22625 L 478.55639097744 111.832325 L 479.91979949875 109.011375 L 481.28320802005 108.8153 L 482.64661654135 111.83865 L 484.01002506266 111.61095 L 485.37343358396 112.186525 L 486.73684210526 112.01575 L 488.10025062657 110.2321 L 489.46365914787 109.549 L 490.82706766917 106.2094 L 492.19047619048 104.0842 L 493.55388471178 101.74395 L 494.91729323308 100.6687 L 496.28070175439 98.88505 L 497.64411027569 102.0349 L 499.00751879699 100.35245 L 500.3709273183 97.4809 L 501.7343358396 99.0495 L 503.0977443609 96.12735 L 504.46115288221 99.688325 L 505.82456140351 99.03685 L 507.18796992481 99.055825 L 508.55137844612 93.39495 L 509.91478696742 93.62265 L 511.27819548872 91.250775 L 512.64160401003 88.0946 L 514.00501253133 83.6671 L 515.36842105263 78.626075 L 516.73182957393 80.1251 L 518.09523809524 83.98335 L 519.45864661654 83.8189 L 520.82205513784 76.659 L 522.18546365915 76.7096 L 523.54887218045 78.2782 L 524.91228070175 81.4154 L 526.27568922306 78.94865 L 527.63909774436 79.0878 L 529.00250626566 74.85005 L 530.36591478697 75.7988 L 531.72932330827 76.21625 L 533.09273182957 76.640025 L 534.45614035088 76.9373 L 535.81954887218 77.2156 L 537.18295739348 73.9772 L 538.54636591479 71.45985 L 539.90977443609 71.8267 L 541.27318295739 72.5098 L 542.6365914787 73.098025 L 544 69.84065" class="highcharts-graph" data-z-index="1" stroke="#67B9EE" stroke-width="2" stroke-linejoin="round" stroke-linecap="round" filter="none" aria-hidden="false" role="region" tabindex="-1" style="outline: none;" aria-label="Total, line 1 of 3 with 400 data points."></path></g><g class="highcharts-markers highcharts-series-0 highcharts-line-series highcharts-color-0" data-z-index="0.1" opacity="1" transform="translate(46,42) scale(1 1)" clip-path="none" aria-hidden="true"></g><g class="highcharts-series highcharts-series-1 highcharts-line-series highcharts-color-1" data-z-index="0.1" opacity="1" transform="translate(46,42) scale(1 1)" clip-path="url(#highcharts-te5i4sn-59206-)" aria-hidden="false"><path fill="none" d="M 0 253 L 1.3634085213033 252.38015 L 2.7268170426065 251.9374 L 4.0902255639098 251.229 L 5.453634085213 251.229 L 6.8170426065163 251.229 L 8.1804511278195 251.229 L 9.5438596491228 251.0266 L 10.907268170426 249.90075 L 12.270676691729 249.19235 L 13.634085213033 248.48395 L 14.997493734336 247.95265 L 16.360902255639 247.95265 L 17.724310776942 247.5099 L 19.087719298246 247.06715 L 20.451127819549 247.06715 L 21.814536340852 247.06715 L 23.177944862155 246.35875 L 24.541353383459 246.35875 L 25.904761904762 245.5618 L 27.268170426065 245.5618 L 28.631578947368 245.0305 L 29.994987468672 245.0305 L 31.358395989975 244.41065 L 32.721804511278 244.41065 L 34.085213032581 242.99385 L 35.448621553885 241.75415 L 36.812030075188 241.3114 L 38.175438596491 241.3114 L 39.538847117794 239.7175 L 40.902255639098 239.0091 L 42.265664160401 239.0091 L 43.629072681704 236.3526 L 44.992481203008 236.08695 L 46.355889724311 236.08695 L 47.719298245614 236.08695 L 49.082706766917 235.6442 L 50.446115288221 235.6442 L 51.809523809524 235.6442 L 53.172932330827 234.0503 L 54.53634085213 234.0503 L 55.899749373434 234.0503 L 57.263157894737 233.07625 L 58.62656641604 232.54495 L 59.989974937343 231.65945 L 61.353383458647 231.65945 L 62.71679197995 231.65945 L 64.080200501253 231.2167 L 65.443609022556 230.6854 L 66.80701754386 230.41975 L 68.170426065163 230.41975 L 69.533834586466 230.41975 L 70.897243107769 229.88845 L 72.260651629073 229.0915 L 73.624060150376 229.0915 L 74.987468671679 228.29455 L 76.350877192982 227.8518 L 77.714285714286 227.8518 L 79.077694235589 227.4976 L 80.441102756892 224.3604 L 81.804511278195 227.05485 L 83.167919799499 226.6121 L 84.531328320802 224.3098 L 85.894736842105 224.3098 L 87.258145363409 224.3098 L 88.621553884712 223.0701 L 89.984962406015 222.7159 L 91.348370927318 221.8304 L 92.711779448622 221.4762 L 94.075187969925 221.4762 L 95.438596491228 218.35165 L 96.802005012531 220.7678 L 98.165413533835 220.0594 L 99.528822055138 219.5281 L 100.89223057644 219.5281 L 102.25563909774 219.5281 L 103.61904761905 219.08535 L 104.98245614035 219.08535 L 106.34586466165 219.08535 L 107.70927318296 218.55405 L 109.07268170426 217.2258 L 110.43609022556 216.25175 L 111.79949874687 215.6319 L 113.16290726817 213.94945 L 114.52631578947 213.59525 L 115.88972431078 212.9754 L 117.25313283208 212.267 L 118.61654135338 212.267 L 119.97994987469 211.9128 L 121.34335839599 211.9128 L 122.70676691729 211.9128 L 124.0701754386 211.9128 L 125.4335839599 209.7876 L 126.7969924812 209.7876 L 128.16040100251 209.7876 L 129.52380952381 209.2563 L 130.88721804511 209.2563 L 132.25062656642 209.2563 L 133.61403508772 209.2563 L 134.97744360902 207.8395 L 136.34085213033 207.8395 L 137.70426065163 207.8395 L 139.06766917293 207.3082 L 140.43107769424 207.3082 L 141.79448621554 206.51125 L 143.15789473684 205.80285 L 144.52130325815 205.183 L 145.88471177945 205.183 L 147.24812030075 204.91735 L 148.61152882206 204.91735 L 149.97493734336 204.38605 L 151.33834586466 203.9433 L 152.70175438596 203.9433 L 154.06516290727 203.32345 L 155.42857142857 202.5265 L 156.79197994987 202.5265 L 158.15538847118 201.8181 L 159.51879699248 201.8181 L 160.88220551378 201.37535 L 162.24561403509 200.66695 L 163.60902255639 199.42725 L 164.97243107769 201.5398 L 166.335839599 198.8074 L 167.6992481203 198.2761 L 169.0626566416 197.2135 L 170.42606516291 197.2135 L 171.78947368421 196.59365 L 173.15288220551 195.6196 L 174.51629072682 194.2028 L 175.87969924812 194.2028 L 177.24310776942 194.2028 L 178.60651629073 193.76005 L 179.96992481203 193.3173 L 181.33333333333 192.0776 L 182.69674185464 191.7234 L 184.06015037594 191.015 L 185.42355889724 189.33255 L 186.78696741855 188.97835 L 188.15037593985 188.44705 L 189.51378446115 188.44705 L 190.87719298246 188.1814 L 192.24060150376 187.8272 L 193.60401002506 187.8272 L 194.96741854637 187.8272 L 196.33082706767 187.8272 L 197.69423558897 187.8272 L 199.05764411028 187.8272 L 200.42105263158 187.473 L 201.78446115288 187.473 L 203.14786967419 186.7646 L 204.51127819549 185.3478 L 205.87468671679 185.3478 L 207.2380952381 185.3478 L 208.6015037594 184.6394 L 209.9649122807 184.37375 L 211.32832080201 184.37375 L 212.69172932331 184.37375 L 214.05513784461 183.7539 L 215.41854636591 183.7539 L 216.78195488722 183.3997 L 218.14536340852 182.6913 L 219.50877192982 182.6913 L 220.87218045113 181.8058 L 222.23558897243 181.36305 L 223.59899749373 181.00885 L 224.96240601504 178.618 L 226.32581453634 178.0867 L 227.68922305764 177.3783 L 229.05263157895 176.4928 L 230.41604010025 176.4928 L 231.77944862155 175.34165 L 233.14285714286 174.7218 L 234.50626566416 174.7218 L 235.86967418546 174.27905 L 237.23308270677 173.8363 L 238.59649122807 173.21645 L 239.95989974937 173.21645 L 241.32330827068 173.21645 L 242.68671679198 173.21645 L 244.05012531328 172.50805 L 245.41353383459 172.50805 L 246.77694235589 172.50805 L 248.14035087719 172.2424 L 249.5037593985 172.2424 L 250.8671679198 171.97675 L 252.2305764411 171.97675 L 253.59398496241 171.534 L 254.95739348371 171.09125 L 256.32080200501 171.09125 L 257.68421052632 169.4088 L 259.04761904762 168.5233 L 260.41102756892 166.84085 L 261.77443609023 166.13245 L 263.13784461153 165.77825 L 264.50125313283 164.9813 L 265.86466165414 164.9813 L 267.22807017544 164.9813 L 268.59147869674 164.9813 L 269.95488721805 164.9813 L 271.31829573935 164.9813 L 272.68170426065 253 L 274.04511278195 252.6964 L 275.40852130326 251.67175 L 276.77192982456 251.67175 L 278.13533834586 251.67175 L 279.49874686717 251.67175 L 280.86215538847 251.67175 L 282.22556390977 251.4061 L 283.58897243108 250.78625 L 284.95238095238 250.3435 L 286.31578947368 250.3435 L 287.67919799499 249.72365 L 289.04260651629 248.83815 L 290.40601503759 248.12975 L 291.7694235589 246.89005 L 293.1328320802 246.6244 L 294.4962406015 246.6244 L 295.85964912281 245.7389 L 297.22305764411 245.0305 L 298.58646616541 241.22285 L 299.94987468672 242.0198 L 301.31328320802 241.04575 L 302.67669172932 240.69155 L 304.04010025063 240.16025 L 305.40350877193 240.16025 L 306.76691729323 240.16025 L 308.13032581454 239.8946 L 309.49373433584 237.68085 L 310.85714285714 236.7068 L 312.22055137845 236.7068 L 313.58395989975 236.3526 L 314.94736842105 235.9984 L 316.31077694236 235.73275 L 317.67418546366 235.73275 L 319.03759398496 235.73275 L 320.40100250627 235.73275 L 321.76441102757 235.73275 L 323.12781954887 235.29 L 324.49122807018 235.29 L 325.85463659148 235.29 L 327.21804511278 238.9332 L 328.58145363409 235.29 L 329.94486215539 234.67015 L 331.30827067669 233.6961 L 332.67167919799 233.1648 L 334.0350877193 233.1648 L 335.3984962406 232.4564 L 336.7619047619 231.748 L 338.12531328321 231.48235 L 339.48872180451 230.6854 L 340.85213032581 230.6854 L 342.21553884712 230.6854 L 343.57894736842 230.6854 L 344.94235588972 229.977 L 346.30576441103 229.977 L 347.66917293233 229.977 L 349.03258145363 229.977 L 350.39598997494 229.977 L 351.75939849624 229.4457 L 353.12280701754 229.0915 L 354.48621553885 227.8518 L 355.84962406015 227.40905 L 357.21303258145 227.05485 L 358.57644110276 226.34645 L 359.93984962406 225.63805 L 361.30325814536 225.63805 L 362.66666666667 225.28385 L 364.03007518797 225.28385 L 365.39348370927 224.57545 L 366.75689223058 224.57545 L 368.12030075188 224.57545 L 369.48370927318 224.57545 L 370.84711779449 223.86705 L 372.21052631579 223.4243 L 373.57393483709 223.0701 L 374.9373433584 223.0701 L 376.3007518797 223.0701 L 377.664160401 222.62735 L 379.02756892231 222.1846 L 380.39097744361 221.74185 L 381.75438596491 221.38765 L 383.11779448622 220.85635 L 384.48120300752 220.85635 L 385.84461152882 220.4136 L 387.20802005013 218.9968 L 388.57142857143 218.4655 L 389.93483709273 218.02275 L 391.29824561404 213.7091 L 392.66165413534 216.8716 L 394.02506265664 216.8716 L 395.38847117794 216.8716 L 396.75187969925 215.4548 L 398.11528822055 214.038 L 399.47869674185 212.70975 L 400.84210526316 212.17845 L 402.20551378446 211.11585 L 403.56892230576 210.23035 L 404.93233082707 209.2563 L 406.29573934837 209.2563 L 407.65914786967 208.725 L 409.02255639098 208.725 L 410.38596491228 208.725 L 411.74937343358 207.92805 L 413.11278195489 206.68835 L 414.47619047619 202.96925 L 415.83959899749 205.7143 L 417.2030075188 205.7143 L 418.5664160401 205.09445 L 419.9298245614 205.09445 L 421.29323308271 205.09445 L 422.65664160401 205.09445 L 424.02005012531 205.09445 L 425.38345864662 203.7662 L 426.74686716792 203.7662 L 428.11027568922 202.8807 L 429.47368421053 202.5265 L 430.83709273183 201.19825 L 432.20050125313 201.19825 L 433.56390977444 200.84405 L 434.92731829574 200.84405 L 436.29072681704 199.87 L 437.65413533835 199.42725 L 439.01754385965 198.89595 L 440.38095238095 198.2761 L 441.74436090226 198.2761 L 443.10776942356 198.2761 L 444.47117794486 197.5677 L 445.83458646617 196.41655 L 447.19799498747 196.06235 L 448.56140350877 195.7967 L 449.92481203008 195.0883 L 451.28822055138 194.557 L 452.65162907268 194.557 L 454.01503759398 192.786 L 455.37844611529 192.4318 L 456.74185463659 191.3692 L 458.10526315789 191.3692 L 459.4686716792 189.50965 L 460.8320802005 189.50965 L 462.1954887218 189.244 L 463.55889724311 188.7127 L 464.92230576441 188.7127 L 466.28571428571 188.44705 L 467.64912280702 187.6501 L 469.01253132832 187.6501 L 470.37593984962 187.2959 L 471.73934837093 186.85315 L 473.10275689223 186.2333 L 474.46616541353 185.79055 L 475.82957393484 185.43635 L 477.19298245614 184.90505 L 478.55639097744 184.37375 L 479.91979949875 183.0455 L 481.28320802005 181.00885 L 482.64661654135 181.00885 L 484.01002506266 181.00885 L 485.37343358396 181.00885 L 486.73684210526 180.47755 L 488.10025062657 179.94625 L 489.46365914787 179.59205 L 490.82706766917 179.59205 L 492.19047619048 177.9349 L 493.55388471178 179.1493 L 494.91729323308 178.4409 L 496.28070175439 177.64395 L 497.64411027569 177.3783 L 499.00751879699 176.75845 L 500.3709273183 175.87295 L 501.7343358396 175.87295 L 503.0977443609 175.34165 L 504.46115288221 174.63325 L 505.82456140351 174.1905 L 507.18796992481 174.1905 L 508.55137844612 172.0653 L 509.91478696742 170.3449 L 511.27819548872 171.62255 L 512.64160401003 171.09125 L 514.00501253133 169.32025 L 515.36842105263 168.96605 L 516.73182957393 168.61185 L 518.09523809524 168.61185 L 519.45864661654 167.6378 L 520.82205513784 165.6897 L 522.18546365915 165.6897 L 523.54887218045 163.95665 L 524.91228070175 165.06985 L 526.27568922306 164.6271 L 527.63909774436 164.36145 L 529.00250626566 164.36145 L 530.36591478697 162.8561 L 531.72932330827 162.8561 L 533.09273182957 162.1224 L 534.45614035088 161.35075 L 535.81954887218 161.35075 L 537.18295739348 160.28815 L 538.54636591479 159.137 L 539.90977443609 158.6057 L 541.27318295739 157.80875 L 542.6365914787 157.27745 L 544 157.27745" class="highcharts-graph" data-z-index="1" stroke="#CEEDA5" stroke-width="2" stroke-dasharray="8,6" filter="none" aria-hidden="false" role="region" tabindex="-1" style="outline: none;" aria-label="EMERALDS, line 2 of 3 with 400 data points."></path></g><g class="highcharts-markers highcharts-series-1 highcharts-line-series highcharts-color-1" data-z-index="0.1" opacity="1" transform="translate(46,42) scale(1 1)" clip-path="none" aria-hidden="true"></g><g class="highcharts-series highcharts-series-2 highcharts-line-series highcharts-color-2" data-z-index="0.1" opacity="1" transform="translate(46,42) scale(1 1)" clip-path="url(#highcharts-te5i4sn-59206-)" aria-hidden="false"><path fill="none" d="M 0 253 L 1.3634085213033 252.0386 L 2.7268170426065 251.482 L 4.0902255639098 250.6977 L 5.453634085213 249.9387 L 6.8170426065163 249.52125 L 8.1804511278195 248.93935 L 9.5438596491228 248.553525 L 10.907268170426 248.2689 L 12.270676691729 247.743925 L 13.634085213033 247.427675 L 14.997493734336 247.908375 L 16.360902255639 247.288525 L 17.724310776942 246.8015 L 19.087719298246 245.22025 L 20.451127819549 244.594075 L 21.814536340852 244.651 L 23.177944862155 245.618725 L 24.541353383459 245.391025 L 25.904761904762 244.41065 L 27.268170426065 243.9679 L 28.631578947368 243.70225 L 29.994987468672 243.6896 L 31.358395989975 243.379675 L 32.721804511278 242.7788 L 34.085213032581 241.50115 L 35.448621553885 240.799075 L 36.812030075188 240.03375 L 38.175438596491 239.09765 L 39.538847117794 238.64225 L 40.902255639098 237.88325 L 42.265664160401 237.775725 L 43.629072681704 236.49175 L 44.992481203008 235.8972 L 46.355889724311 235.29 L 47.719298245614 234.87255 L 49.082706766917 234.13885 L 50.446115288221 233.044625 L 51.809523809524 232.3299 L 53.172932330827 231.387475 L 54.53634085213 231.2167 L 55.899749373434 230.135125 L 57.263157894737 229.970675 L 58.62656641604 228.882775 L 59.989974937343 229.0156 L 61.353383458647 228.9144 L 62.71679197995 229.2433 L 64.080200501253 227.984625 L 65.443609022556 228.6867 L 66.80701754386 227.96565 L 68.170426065163 226.44765 L 69.533834586466 226.67535 L 70.897243107769 226.6627 L 72.260651629073 224.518525 L 73.624060150376 224.70195 L 74.987468671679 221.520475 L 76.350877192982 220.040425 L 77.714285714286 218.977825 L 79.077694235589 220.7172 L 80.441102756892 219.76845 L 81.804511278195 220.11 L 83.167919799499 220.363 L 84.531328320802 219.7305 L 85.894736842105 219.21185 L 87.258145363409 218.231475 L 88.621553884712 216.877925 L 89.984962406015 215.549675 L 91.348370927318 214.10125 L 92.711779448622 213.49405 L 94.075187969925 213.532 L 95.438596491228 212.7477 L 96.802005012531 211.79895 L 98.165413533835 210.6731 L 99.528822055138 212.0899 L 100.89223057644 211.255 L 102.25563909774 211.26765 L 103.61904761905 210.40745 L 104.98245614035 210.00265 L 106.34586466165 209.62315 L 107.70927318296 210.71105 L 109.07268170426 211.59655 L 110.43609022556 210.983025 L 111.79949874687 209.90145 L 113.16290726817 211.185425 L 114.52631578947 209.87615 L 115.88972431078 209.3828 L 117.25313283208 209.300575 L 118.61654135338 207.4094 L 119.97994987469 207.200675 L 121.34335839599 207.32085 L 122.70676691729 206.68835 L 124.0701754386 206.68835 L 125.4335839599 206.277225 L 126.7969924812 205.5372 L 128.16040100251 205.2083 L 129.52380952381 205.0565 L 130.88721804511 205.2336 L 132.25062656642 204.8794 L 133.61403508772 204.00655 L 134.97744360902 203.241225 L 136.34085213033 202.507525 L 137.70426065163 201.950925 L 139.06766917293 201.37535 L 140.43107769424 200.97055 L 141.79448621554 201.35005 L 143.15789473684 200.749175 L 144.52130325815 199.307075 L 145.88471177945 197.472825 L 147.24812030075 197.42855 L 148.61152882206 194.54435 L 149.97493734336 193.53235 L 151.33834586466 193.690475 L 152.70175438596 191.919475 L 154.06516290727 195.30335 L 155.42857142857 193.6715 L 156.79197994987 194.81 L 158.15538847118 193.039 L 159.51879699248 193.2414 L 160.88220551378 195.6702 L 162.24561403509 191.78665 L 163.60902255639 191.60955 L 164.97243107769 190.11685 L 166.335839599 190.1042 L 167.6992481203 191.3692 L 169.0626566416 190.7367 L 170.42606516291 190.4837 L 171.78947368421 188.75065 L 173.15288220551 188.32055 L 174.51629072682 188.478675 L 175.87969924812 187.33385 L 177.24310776942 186.6381 L 178.60651629073 186.6381 L 179.96992481203 186.6381 L 181.33333333333 186.6381 L 182.69674185464 186.22065 L 184.06015037594 185.619775 L 185.42355889724 184.72795 L 186.78696741855 184.42435 L 188.15037593985 183.58945 L 189.51378446115 182.8684 L 190.87719298246 182.37505 L 192.24060150376 181.799475 L 193.60401002506 181.0215 L 194.96741854637 179.7565 L 196.33082706767 179.4782 L 197.69423558897 178.7951 L 199.05764411028 177.7325 L 200.42105263158 177.8337 L 201.78446115288 176.612975 L 203.14786967419 176.22715 L 204.51127819549 175.9109 L 205.87468671679 175.56935 L 207.2380952381 174.892575 L 208.6015037594 173.59595 L 209.9649122807 172.9255 L 211.32832080201 171.19245 L 212.69172932331 170.45875 L 214.05513784461 170.5726 L 215.41854636591 169.819925 L 216.78195488722 169.62385 L 218.14536340852 168.43475 L 219.50877192982 167.9161 L 220.87218045113 167.97935 L 222.23558897243 168.175425 L 223.59899749373 168.245 L 224.96240601504 167.52395 L 226.32581453634 166.6258 L 227.68922305764 165.209 L 229.05263157895 164.468975 L 230.41604010025 164.468975 L 231.77944862155 163.5645 L 233.14285714286 162.8055 L 234.50626566416 161.685975 L 235.86967418546 160.054125 L 237.23308270677 158.662625 L 238.59649122807 157.9226 L 239.95989974937 157.53045 L 241.32330827068 157.30275 L 242.68671679198 156.2528 L 244.05012531328 154.4565 L 245.41353383459 154.209825 L 246.77694235589 153.71015 L 248.14035087719 153.10295 L 249.5037593985 152.74875 L 250.8671679198 152.64755 L 252.2305764411 152.49575 L 253.59398496241 151.528025 L 254.95739348371 152.6096 L 256.32080200501 151.58495 L 257.68421052632 152.1542 L 259.04761904762 153.147225 L 260.41102756892 153.817675 L 261.77443609023 153.20415 L 263.13784461153 152.653875 L 264.50125313283 152.173175 L 265.86466165414 150.59825 L 267.22807017544 149.86455 L 268.59147869674 150.376875 L 269.95488721805 149.1941 L 271.31829573935 149.579925 L 272.68170426065 253 L 274.04511278195 252.86085 L 275.40852130326 252.146125 L 276.77192982456 252.27895 L 278.13533834586 252.15245 L 279.49874686717 251.39345 L 280.86215538847 251.24165 L 282.22556390977 250.98865 L 283.58897243108 250.5459 L 284.95238095238 250.273925 L 286.31578947368 250.501625 L 287.67919799499 249.90075 L 289.04260651629 249.578175 L 290.40601503759 249.6857 L 291.7694235589 249.42005 L 293.1328320802 249.49595 L 294.4962406015 248.1171 L 295.85964912281 247.541525 L 297.22305764411 247.4846 L 298.58646616541 247.237925 L 299.94987468672 246.2196 L 301.31328320802 245.3088 L 302.67669172932 244.398 L 304.04010025063 243.4619 L 305.40350877193 242.26015 L 306.76691729323 242.620675 L 308.13032581454 242.3993 L 309.49373433584 241.456875 L 310.85714285714 240.48915 L 312.22055137845 240.7042 L 313.58395989975 241.80475 L 314.94736842105 240.76745 L 316.31077694236 242.2728 L 317.67418546366 240.43855 L 319.03759398496 238.787725 L 320.40100250627 237.061 L 321.76441102757 237.6935 L 323.12781954887 236.346275 L 324.49122807018 231.336875 L 325.85463659148 234.21475 L 327.21804511278 229.35715 L 328.58145363409 229.502625 L 329.94486215539 226.54885 L 331.30827067669 227.61145 L 332.67167919799 231.1914 L 334.0350877193 232.1781 L 335.3984962406 232.6335 L 336.7619047619 233.828925 L 338.12531328321 232.72205 L 339.48872180451 230.19205 L 340.85213032581 233.7214 L 342.21553884712 229.7493 L 343.57894736842 229.021925 L 344.94235588972 229.96435 L 346.30576441103 229.3445 L 347.66917293233 228.1554 L 349.03258145363 230.5842 L 350.39598997494 231.248325 L 351.75939849624 227.94035 L 353.12280701754 227.567175 L 354.48621553885 226.5109 L 355.84962406015 228.19335 L 357.21303258145 226.7386 L 358.57644110276 227.3711 L 359.93984962406 224.0315 L 361.30325814536 224.7905 L 362.66666666667 222.3617 L 364.03007518797 220.723525 L 365.39348370927 220.72985 L 366.75689223058 219.21185 L 368.12030075188 218.40225 L 369.48370927318 217.0993 L 370.84711779449 216.22645 L 372.21052631579 215.3283 L 373.57393483709 214.7717 L 374.9373433584 214.8476 L 376.3007518797 214.5187 L 377.664160401 214.0127 L 379.02756892231 213.62055 L 380.39097744361 211.9634 L 381.75438596491 211.47005 L 383.11779448622 210.68575 L 384.48120300752 209.29425 L 385.84461152882 208.33285 L 387.20802005013 206.9287 L 388.57142857143 205.5372 L 389.93483709273 205.22095 L 391.29824561404 204.2722 L 392.66165413534 204.493575 L 394.02506265664 203.873725 L 395.38847117794 203.2096 L 396.75187969925 203.1084 L 398.11528822055 202.3241 L 399.47869674185 202.4506 L 400.84210526316 201.93195 L 402.20551378446 201.85605 L 403.56892230576 201.685275 L 404.93233082707 201.17295 L 406.29573934837 201.04645 L 407.65914786967 200.376 L 409.02255639098 199.762475 L 410.38596491228 199.75615 L 411.74937343358 199.45255 L 413.11278195489 199.45255 L 414.47619047619 199.04775 L 415.83959899749 197.0364 L 417.2030075188 196.4545 L 418.5664160401 195.40455 L 419.9298245614 194.575975 L 421.29323308271 196.2268 L 422.65664160401 198.1243 L 424.02005012531 196.1509 L 425.38345864662 194.31665 L 426.74686716792 193.48175 L 428.11027568922 193.209775 L 429.47368421053 195.1136 L 430.83709273183 191.05295 L 432.20050125313 194.99975 L 433.56390977444 191.2933 L 434.92731829574 193.292 L 436.29072681704 192.52035 L 437.65413533835 190.34455 L 439.01754385965 191.43245 L 440.38095238095 189.81325 L 441.74436090226 186.0815 L 443.10776942356 187.6501 L 444.47117794486 186.8658 L 445.83458646617 192.045975 L 447.19799498747 192.4065 L 448.56140350877 193.133875 L 449.92481203008 188.0802 L 451.28822055138 188.991 L 452.65162907268 188.485 L 454.01503759398 187.441375 L 455.37844611529 187.2706 L 456.74185463659 190.04095 L 458.10526315789 185.28455 L 459.4686716792 184.380075 L 460.8320802005 191.45775 L 462.1954887218 190.325575 L 463.55889724311 193.2161 L 464.92230576441 192.4824 L 466.28571428571 194.03835 L 467.64912280702 196.106625 L 469.01253132832 195.448825 L 470.37593984962 195.195825 L 471.73934837093 198.44055 L 473.10275689223 194.29135 L 474.46616541353 190.0536 L 475.82957393484 185.0189 L 477.19298245614 187.3212 L 478.55639097744 180.458575 L 479.91979949875 178.965875 L 481.28320802005 180.80645 L 482.64661654135 183.8298 L 484.01002506266 183.6021 L 485.37343358396 184.177675 L 486.73684210526 184.5382 L 488.10025062657 183.28585 L 489.46365914787 182.95695 L 490.82706766917 179.61735 L 492.19047619048 179.1493 L 493.55388471178 175.59465 L 494.91729323308 175.2278 L 496.28070175439 174.2411 L 497.64411027569 177.6566 L 499.00751879699 176.594 L 500.3709273183 174.60795 L 501.7343358396 176.17655 L 503.0977443609 173.7857 L 504.46115288221 178.055075 L 505.82456140351 177.84635 L 507.18796992481 177.865325 L 508.55137844612 174.32965 L 509.91478696742 176.27775 L 511.27819548872 172.628225 L 512.64160401003 170.00335 L 514.00501253133 167.34685 L 515.36842105263 162.660025 L 516.73182957393 164.51325 L 518.09523809524 168.3715 L 519.45864661654 169.1811 L 520.82205513784 163.9693 L 522.18546365915 164.0199 L 523.54887218045 167.32155 L 524.91228070175 169.34555 L 526.27568922306 167.32155 L 527.63909774436 167.72635 L 529.00250626566 163.4886 L 530.36591478697 165.9427 L 531.72932330827 166.36015 L 533.09273182957 167.517625 L 534.45614035088 168.58655 L 535.81954887218 168.86485 L 537.18295739348 166.68905 L 538.54636591479 165.32285 L 539.90977443609 166.221 L 541.27318295739 167.70105 L 542.6365914787 168.820575 L 544 165.5632" class="highcharts-graph" data-z-index="1" stroke="#9F6AE1" stroke-width="2" stroke-dasharray="8,6" filter="none" aria-hidden="false" role="region" tabindex="-1" style="outline: none;" aria-label="TOMATOES, line 3 of 3 with 400 data points."></path></g><g class="highcharts-markers highcharts-series-2 highcharts-line-series highcharts-color-2" data-z-index="0.1" opacity="1" transform="translate(46,42) scale(1 1)" clip-path="none" aria-hidden="true"></g></g><text x="300" text-anchor="middle" class="highcharts-title" data-z-index="4" style="font-size: 1em; color: rgb(240, 240, 243); font-weight: bold; fill: rgb(240, 240, 243);" y="22" aria-hidden="true">Profit / Loss</text><text x="300" text-anchor="middle" class="highcharts-subtitle" data-z-index="4" style="color: rgb(240, 240, 243); font-size: 0.8em; fill: rgb(240, 240, 243);" y="41" aria-hidden="true"></text><text x="10" text-anchor="start" class="highcharts-caption" data-z-index="4" style="color: rgb(102, 102, 102); font-size: 0.8em; fill: rgb(102, 102, 102);" y="397" aria-hidden="true"></text><g class="highcharts-legend highcharts-no-tooltip" data-z-index="7" transform="translate(157,355)" aria-hidden="true"><rect fill="transparent" class="highcharts-legend-box" rx="0" ry="0" stroke="#999999" stroke-width="0" filter="none" x="0" y="0" width="286" height="30"></rect><g data-z-index="1"><g><g class="highcharts-legend-item highcharts-line-series highcharts-color-0 highcharts-series-0" data-z-index="1" transform="translate(8,3)"><path fill="none" class="highcharts-graph" stroke-width="2" stroke-linecap="round" d="M 1 13 L 15 13" stroke="#67B9EE"></path><text x="21" style="color: rgb(240, 240, 243); cursor: pointer; font-size: 0.8em; text-decoration: none; fill: rgb(240, 240, 243);" text-anchor="start" data-z-index="2" y="17">Total</text></g><g class="highcharts-legend-item highcharts-line-series highcharts-color-1 highcharts-series-1" data-z-index="1" transform="translate(76.13333320617676,3)"><path fill="none" class="highcharts-graph" stroke-width="2" stroke-dasharray="8,6" d="M 0 13 L 16 13" stroke="#CEEDA5"></path><text x="21" y="17" style="color: rgb(240, 240, 243); cursor: pointer; font-size: 0.8em; text-decoration: none; fill: rgb(240, 240, 243);" text-anchor="start" data-z-index="2">EMERALDS</text></g><g class="highcharts-legend-item highcharts-line-series highcharts-color-2 highcharts-series-2" data-z-index="1" transform="translate(187.60000038146973,3)"><path fill="none" class="highcharts-graph" stroke-width="2" stroke-dasharray="8,6" d="M 0 13 L 16 13" stroke="#9F6AE1"></path><text x="21" y="17" style="color: rgb(240, 240, 243); cursor: pointer; font-size: 0.8em; text-decoration: none; fill: rgb(240, 240, 243);" text-anchor="start" data-z-index="2">TOMATOES</text></g></g></g></g><g class="highcharts-axis-labels highcharts-xaxis-labels" data-z-index="7" aria-hidden="true"><text x="46" style="color: rgb(240, 240, 243); cursor: default; font-size: 0.8em; fill: rgb(240, 240, 243);" text-anchor="middle" transform="translate(0,0)" y="322" opacity="1">0</text><text x="127.80451127819" style="color: rgb(240, 240, 243); cursor: default; font-size: 0.8em; fill: rgb(240, 240, 243);" text-anchor="middle" transform="translate(0,0)" y="322" opacity="1">300,000</text><text x="209.60902255639" style="color: rgb(240, 240, 243); cursor: default; font-size: 0.8em; fill: rgb(240, 240, 243);" text-anchor="middle" transform="translate(0,0)" y="322" opacity="1">600,000</text><text x="291.41353383459" style="color: rgb(240, 240, 243); cursor: default; font-size: 0.8em; fill: rgb(240, 240, 243);" text-anchor="middle" transform="translate(0,0)" y="322" opacity="1">900,000</text><text x="373.21804511278" style="color: rgb(240, 240, 243); cursor: default; font-size: 0.8em; fill: rgb(240, 240, 243);" text-anchor="middle" transform="translate(0,0)" y="322" opacity="1">1,200,000</text><text x="455.02255639098" style="color: rgb(240, 240, 243); cursor: default; font-size: 0.8em; fill: rgb(240, 240, 243);" text-anchor="middle" transform="translate(0,0)" y="322" opacity="1">1,500,000</text><text x="536.82706766917" style="color: rgb(240, 240, 243); cursor: default; font-size: 0.8em; fill: rgb(240, 240, 243);" text-anchor="middle" transform="translate(0,0)" y="322" opacity="1">1,800,000</text></g><g class="highcharts-axis-labels highcharts-yaxis-labels" data-z-index="7" aria-hidden="true"><text x="31" style="color: rgb(240, 240, 243); cursor: default; font-size: 0.8em; fill: rgb(240, 240, 243);" text-anchor="end" transform="translate(0,0)" y="293" opacity="1">0</text><text x="31" style="color: rgb(240, 240, 243); cursor: default; font-size: 0.8em; fill: rgb(240, 240, 243);" text-anchor="end" transform="translate(0,0)" y="230" opacity="1">5k</text><text x="31" style="color: rgb(240, 240, 243); cursor: default; font-size: 0.8em; fill: rgb(240, 240, 243);" text-anchor="end" transform="translate(0,0)" y="167" opacity="1">10k</text><text x="31" style="color: rgb(240, 240, 243); cursor: default; font-size: 0.8em; fill: rgb(240, 240, 243);" text-anchor="end" transform="translate(0,0)" y="103" opacity="1">15k</text><text x="0" style="color: rgb(240, 240, 243); cursor: default; font-size: 0.8em; fill: rgb(240, 240, 243);" text-anchor="end" transform="translate(0,0)" visibility="hidden">20k</text></g><text x="590" class="highcharts-credits" text-anchor="end" data-z-index="8" style="cursor: pointer; color: rgb(240, 240, 243); font-size: 0.6em; fill: rgb(240, 240, 243);" y="395" aria-label="Chart credits: Highcharts.com" aria-hidden="false">Highcharts.com</text></svg>