<svg xmlns:xlink="http://www.w3.org/1999/xlink" version="1.1" class="highcharts-root" style="font-family: Helvetica, Arial, sans-serif; font-size: 1rem;" xmlns="http://www.w3.org/2000/svg" width="600" height="400" viewBox="0 0 600 400" aria-label="Interactive chart" aria-hidden="false"><desc aria-hidden="true">Created with Highcharts 11.4.8</desc><defs aria-hidden="true"><filter id="highcharts-drop-shadow-12"><feDropShadow dx="1" dy="1" flood-color="#000000" flood-opacity="0.75" stdDeviation="2.5"></feDropShadow></filter><clipPath id="highcharts-w4803tj-41293-"><rect x="0" y="0" width="539" height="253" fill="none"></rect></clipPath></defs><rect fill="#1f1f20" class="highcharts-background" filter="none" x="0" y="0" width="600" height="400" rx="0" ry="0" aria-hidden="true"></rect><rect fill="none" class="highcharts-plot-background" x="51" y="42" width="539" height="253" filter="none" aria-hidden="true"></rect><g class="highcharts-grid highcharts-xaxis-grid" data-z-index="1" aria-hidden="true"><path fill="none" stroke="#707073" stroke-width="0" stroke-dasharray="none" data-z-index="1" class="highcharts-grid-line" d="M 51.5 42 L 51.5 295" opacity="1"></path><path fill="none" stroke="#707073" stroke-width="0" stroke-dasharray="none" data-z-index="1" class="highcharts-grid-line" d="M 115.5 42 L 115.5 295" opacity="1"></path><path fill="none" stroke="#707073" stroke-width="0" stroke-dasharray="none" data-z-index="1" class="highcharts-grid-line" d="M 180.5 42 L 180.5 295" opacity="1"></path><path fill="none" stroke="#707073" stroke-width="0" stroke-dasharray="none" data-z-index="1" class="highcharts-grid-line" d="M 245.5 42 L 245.5 295" opacity="1"></path><path fill="none" stroke="#707073" stroke-width="0" stroke-dasharray="none" data-z-index="1" class="highcharts-grid-line" d="M 310.5 42 L 310.5 295" opacity="1"></path><path fill="none" stroke="#707073" stroke-width="0" stroke-dasharray="none" data-z-index="1" class="highcharts-grid-line" d="M 375.5 42 L 375.5 295" opacity="1"></path><path fill="none" stroke="#707073" stroke-width="0" stroke-dasharray="none" data-z-index="1" class="highcharts-grid-line" d="M 439.5 42 L 439.5 295" opacity="1"></path><path fill="none" stroke="#707073" stroke-width="0" stroke-dasharray="none" data-z-index="1" class="highcharts-grid-line" d="M 504.5 42 L 504.5 295" opacity="1"></path><path fill="none" stroke="#707073" stroke-width="0" stroke-dasharray="none" data-z-index="1" class="highcharts-grid-line" d="M 569.5 42 L 569.5 295" opacity="1"></path></g><g class="highcharts-grid highcharts-yaxis-grid" data-z-index="1" aria-hidden="true"><path fill="none" stroke="#707073" stroke-width="1" stroke-dasharray="none" data-z-index="1" class="highcharts-grid-line" d="M 51 295.5 L 590 295.5" opacity="1"></path><path fill="none" stroke="#707073" stroke-width="1" stroke-dasharray="none" data-z-index="1" class="highcharts-grid-line" d="M 51 232.5 L 590 232.5" opacity="1"></path><path fill="none" stroke="#707073" stroke-width="1" stroke-dasharray="none" data-z-index="1" class="highcharts-grid-line" d="M 51 169.5 L 590 169.5" opacity="1"></path><path fill="none" stroke="#707073" stroke-width="1" stroke-dasharray="none" data-z-index="1" class="highcharts-grid-line" d="M 51 105.5 L 590 105.5" opacity="1"></path><path fill="none" stroke="#707073" stroke-width="1" stroke-dasharray="none" data-z-index="1" class="highcharts-grid-line" d="M 51 42.5 L 590 42.5" opacity="1"></path></g><rect fill="none" class="highcharts-plot-border" data-z-index="1" stroke="#606063" stroke-width="0" x="51" y="42" width="539" height="253" aria-hidden="true"></rect><g class="highcharts-axis highcharts-xaxis" data-z-index="2" aria-hidden="true"><path fill="none" class="highcharts-tick" stroke="#707073" stroke-width="1" d="M 51.5 295 L 51.5 305" opacity="1"></path><path fill="none" class="highcharts-tick" stroke="#707073" stroke-width="1" d="M 115.5 295 L 115.5 305" opacity="1"></path><path fill="none" class="highcharts-tick" stroke="#707073" stroke-width="1" d="M 180.5 295 L 180.5 305" opacity="1"></path><path fill="none" class="highcharts-tick" stroke="#707073" stroke-width="1" d="M 245.5 295 L 245.5 305" opacity="1"></path><path fill="none" class="highcharts-tick" stroke="#707073" stroke-width="1" d="M 310.5 295 L 310.5 305" opacity="1"></path><path fill="none" class="highcharts-tick" stroke="#707073" stroke-width="1" d="M 375.5 295 L 375.5 305" opacity="1"></path><path fill="none" class="highcharts-tick" stroke="#707073" stroke-width="1" d="M 439.5 295 L 439.5 305" opacity="1"></path><path fill="none" class="highcharts-tick" stroke="#707073" stroke-width="1" d="M 504.5 295 L 504.5 305" opacity="1"></path><path fill="none" class="highcharts-tick" stroke="#707073" stroke-width="1" d="M 569.5 295 L 569.5 305" opacity="1"></path><text x="320.5" data-z-index="7" text-anchor="middle" transform="translate(0,0)" class="highcharts-axis-title" style="color: rgb(240, 240, 243); font-size: 0.8em; fill: rgb(240, 240, 243);" y="341">Timestamp</text><path fill="none" class="highcharts-axis-line" stroke="#707073" stroke-width="1" data-z-index="7" d="M 51 295.5 L 590 295.5"></path></g><g class="highcharts-axis highcharts-yaxis" data-z-index="2" aria-hidden="true"><path fill="none" class="highcharts-axis-line" stroke="#707073" stroke-width="0" data-z-index="7" d="M 51 42 L 51 295"></path></g><g class="highcharts-series-group" data-z-index="3" filter="none" aria-hidden="false"><g class="highcharts-series highcharts-series-0 highcharts-line-series highcharts-color-1" data-z-index="0.1" opacity="1" transform="translate(51,42) scale(1 1)" clip-path="url(#highcharts-w4803tj-41293-)" aria-hidden="false"><path fill="none" d="M 0 126.5 L 1.0801603206413 126.5 L 2.1603206412826 126.5 L 3.2404809619238 129.6625 L 4.3206412825651 129.6625 L 5.4008016032064 129.6625 L 6.4809619238477 132.825 L 7.561122244489 132.825 L 8.6412825651303 132.825 L 9.7214428857715 132.825 L 10.801603206413 132.825 L 11.881763527054 132.825 L 12.961923847695 132.825 L 14.042084168337 132.825 L 15.122244488978 132.825 L 16.202404809619 132.825 L 17.282565130261 132.825 L 18.362725450902 132.825 L 19.442885771543 124.91875 L 20.523046092184 124.91875 L 21.603206412826 121.75625 L 22.683366733467 121.75625 L 23.763527054108 134.40625 L 24.843687374749 140.73125 L 25.923847695391 147.05625 L 27.004008016032 147.05625 L 28.084168336673 147.05625 L 29.164328657315 137.56875 L 30.244488977956 137.56875 L 31.324649298597 137.56875 L 32.404809619238 137.56875 L 33.48496993988 137.56875 L 34.565130260521 145.475 L 35.645290581162 137.56875 L 36.725450901804 137.56875 L 37.805611222445 137.56875 L 38.885771543086 137.56875 L 39.965931863727 137.56875 L 41.046092184369 137.56875 L 42.12625250501 137.56875 L 43.206412825651 137.56875 L 44.286573146293 137.56875 L 45.366733466934 137.56875 L 46.446893787575 124.91875 L 47.527054108216 124.91875 L 48.607214428858 124.91875 L 49.687374749499 129.6625 L 50.76753507014 120.175 L 51.847695390782 120.175 L 52.927855711423 120.175 L 54.008016032064 120.175 L 55.088176352705 120.175 L 56.168336673347 120.175 L 57.248496993988 129.6625 L 58.328657314629 129.6625 L 59.408817635271 129.6625 L 60.488977955912 118.59375 L 61.569138276553 118.59375 L 62.649298597194 118.59375 L 63.729458917836 118.59375 L 64.809619238477 118.59375 L 65.889779559118 105.94375 L 66.96993987976 93.29375 L 68.050100200401 86.96875 L 69.130260521042 98.0375 L 70.210420841683 93.29375 L 71.290581162325 93.29375 L 72.370741482966 101.2 L 73.450901803607 101.2 L 74.531062124249 101.2 L 75.61122244489 101.2 L 76.691382765531 105.94375 L 77.771543086172 113.85 L 78.851703406814 113.85 L 79.931863727455 113.85 L 81.012024048096 101.2 L 82.092184368737 101.2 L 83.172344689379 101.2 L 84.25250501002 101.2 L 85.332665330661 91.7125 L 86.412825651303 104.3625 L 87.492985971944 104.3625 L 88.573146292585 104.3625 L 89.653306613226 99.61875 L 90.733466933868 99.61875 L 91.813627254509 99.61875 L 92.89378757515 99.61875 L 93.973947895792 99.61875 L 95.054108216433 99.61875 L 96.134268537074 99.61875 L 97.214428857715 91.7125 L 98.294589178357 91.7125 L 99.374749498998 91.7125 L 100.45490981964 91.7125 L 101.53507014028 91.7125 L 102.61523046092 91.7125 L 103.69539078156 91.7125 L 104.7755511022 96.45625 L 105.85571142285 96.45625 L 106.93587174349 96.45625 L 108.01603206413 96.45625 L 109.09619238477 96.45625 L 110.17635270541 96.45625 L 111.25651302605 96.45625 L 112.33667334669 101.2 L 113.41683366733 101.2 L 114.49699398798 91.7125 L 115.57715430862 91.7125 L 116.65731462926 80.64375 L 117.7374749499 75.9 L 118.81763527054 75.9 L 119.89779559118 75.9 L 120.97795591182 75.9 L 122.05811623246 75.9 L 123.13827655311 75.9 L 124.21843687375 75.9 L 125.29859719439 75.9 L 126.37875751503 67.99375 L 127.45891783567 67.99375 L 128.53907815631 58.50625 L 129.61923847695 58.50625 L 130.6993987976 58.50625 L 131.77955911824 58.50625 L 132.85971943888 53.7625 L 133.93987975952 53.7625 L 135.02004008016 53.7625 L 136.1002004008 53.7625 L 137.18036072144 53.7625 L 138.26052104208 44.275 L 139.34068136273 44.275 L 140.42084168337 44.275 L 141.50100200401 49.01875 L 142.58116232465 44.275 L 143.66132264529 39.53125 L 144.74148296593 39.53125 L 145.82164328657 39.53125 L 146.90180360721 44.275 L 147.98196392786 34.7875 L 149.0621242485 34.7875 L 150.14228456914 34.7875 L 151.22244488978 42.69375 L 152.30260521042 42.69375 L 153.38276553106 42.69375 L 154.4629258517 42.69375 L 155.54308617234 42.69375 L 156.62324649299 49.01875 L 157.70340681363 49.01875 L 158.78356713427 49.01875 L 159.86372745491 49.01875 L 160.94388777555 49.01875 L 162.02404809619 56.925 L 163.10420841683 56.925 L 164.18436873747 64.83125 L 165.26452905812 75.9 L 166.34468937876 82.225 L 167.4248496994 77.48125 L 168.50501002004 77.48125 L 169.58517034068 77.48125 L 170.66533066132 77.48125 L 171.74549098196 77.48125 L 172.82565130261 77.48125 L 173.90581162325 77.48125 L 174.98597194389 77.48125 L 176.06613226453 80.64375 L 177.14629258517 80.64375 L 178.22645290581 80.64375 L 179.30661322645 71.15625 L 180.38677354709 64.83125 L 181.46693386774 71.15625 L 182.54709418838 71.15625 L 183.62725450902 71.15625 L 184.70741482966 71.15625 L 185.7875751503 71.15625 L 186.86773547094 63.25 L 187.94789579158 63.25 L 189.02805611222 63.25 L 190.10821643287 58.50625 L 191.18837675351 58.50625 L 192.26853707415 45.85625 L 193.34869739479 45.85625 L 194.42885771543 45.85625 L 195.50901803607 45.85625 L 196.58917835671 55.34375 L 197.66933867735 55.34375 L 198.749498998 55.34375 L 199.82965931864 55.34375 L 200.90981963928 55.34375 L 201.98997995992 55.34375 L 203.07014028056 55.34375 L 204.1503006012 63.25 L 205.23046092184 63.25 L 206.31062124248 63.25 L 207.39078156313 63.25 L 208.47094188377 63.25 L 209.55110220441 63.25 L 210.63126252505 63.25 L 211.71142284569 63.25 L 212.79158316633 53.7625 L 213.87174348697 53.7625 L 214.95190380762 42.69375 L 216.03206412826 55.34375 L 217.1122244489 55.34375 L 218.19238476954 64.83125 L 219.27254509018 72.7375 L 220.35270541082 72.7375 L 221.43286573146 83.80625 L 222.5130260521 83.80625 L 223.59318637275 77.48125 L 224.67334669339 66.4125 L 225.75350701403 66.4125 L 226.83366733467 60.0875 L 227.91382765531 49.01875 L 228.99398797595 49.01875 L 230.07414829659 49.01875 L 231.15430861723 49.01875 L 232.23446893788 61.66875 L 233.31462925852 61.66875 L 234.39478957916 61.66875 L 235.4749498998 61.66875 L 236.55511022044 67.99375 L 237.63527054108 67.99375 L 238.71543086172 67.99375 L 239.79559118236 67.99375 L 240.87575150301 67.99375 L 241.95591182365 67.99375 L 243.03607214429 67.99375 L 244.11623246493 67.99375 L 245.19639278557 67.99375 L 246.27655310621 67.99375 L 247.35671342685 67.99375 L 248.4368737475 80.64375 L 249.51703406814 80.64375 L 250.59719438878 80.64375 L 251.67735470942 80.64375 L 252.75751503006 80.64375 L 253.8376753507 80.64375 L 254.91783567134 80.64375 L 255.99799599198 90.13125 L 257.07815631263 90.13125 L 258.15831663327 90.13125 L 259.23847695391 90.13125 L 260.31863727455 90.13125 L 261.39879759519 90.13125 L 262.47895791583 90.13125 L 263.55911823647 90.13125 L 264.63927855711 90.13125 L 265.71943887776 74.31875 L 266.7995991984 64.83125 L 267.87975951904 64.83125 L 268.95991983968 64.83125 L 270.04008016032 64.83125 L 271.12024048096 64.83125 L 272.2004008016 64.83125 L 273.28056112224 64.83125 L 274.36072144289 55.34375 L 275.44088176353 55.34375 L 276.52104208417 55.34375 L 277.60120240481 55.34375 L 278.68136272545 55.34375 L 279.76152304609 50.6 L 280.84168336673 50.6 L 281.92184368737 56.925 L 283.00200400802 56.925 L 284.08216432866 50.6 L 285.1623246493 44.275 L 286.24248496994 39.53125 L 287.32264529058 39.53125 L 288.40280561122 39.53125 L 289.48296593186 34.7875 L 290.56312625251 34.7875 L 291.64328657315 34.7875 L 292.72344689379 34.7875 L 293.80360721443 34.7875 L 294.88376753507 34.7875 L 295.96392785571 34.7875 L 297.04408817635 44.275 L 298.12424849699 36.36875 L 299.20440881764 36.36875 L 300.28456913828 36.36875 L 301.36472945892 36.36875 L 302.44488977956 36.36875 L 303.5250501002 36.36875 L 304.60521042084 47.4375 L 305.68537074148 47.4375 L 306.76553106212 39.53125 L 307.84569138277 45.85625 L 308.92585170341 45.85625 L 310.00601202405 45.85625 L 311.08617234469 45.85625 L 312.16633266533 33.20625 L 313.24649298597 33.20625 L 314.32665330661 33.20625 L 315.40681362725 33.20625 L 316.4869739479 33.20625 L 317.56713426854 33.20625 L 318.64729458918 25.3 L 319.72745490982 25.3 L 320.80761523046 37.95 L 321.8877755511 47.4375 L 322.96793587174 42.69375 L 324.04809619238 50.6 L 325.12825651303 50.6 L 326.20841683367 50.6 L 327.28857715431 61.66875 L 328.36873747495 61.66875 L 329.44889779559 61.66875 L 330.52905811623 52.18125 L 331.60921843687 52.18125 L 332.68937875752 52.18125 L 333.76953907816 41.1125 L 334.8496993988 33.20625 L 335.92985971944 33.20625 L 337.01002004008 33.20625 L 338.09018036072 33.20625 L 339.17034068136 22.1375 L 340.250501002 22.1375 L 341.33066132265 22.1375 L 342.41082164329 26.88125 L 343.49098196393 36.36875 L 344.57114228457 15.8125 L 345.65130260521 15.8125 L 346.73146292585 15.8125 L 347.81162324649 15.8125 L 348.89178356713 15.8125 L 349.97194388778 15.8125 L 351.05210420842 15.8125 L 352.13226452906 17.39375 L 353.2124248497 17.39375 L 354.29258517034 6.325 L 355.37274549098 2.8421709430404e-14 L 356.45290581162 2.8421709430404e-14 L 357.53306613226 4.74375 L 358.61322645291 12.65 L 359.69338677355 6.325 L 360.77354709419 6.325 L 361.85370741483 6.325 L 362.93386773547 6.325 L 364.01402805611 6.325 L 365.09418837675 18.975 L 366.17434869739 28.4625 L 367.25450901804 7.90625 L 368.33466933868 7.90625 L 369.41482965932 1.58125 L 370.49498997996 1.58125 L 371.5751503006 1.58125 L 372.65531062124 1.58125 L 373.73547094188 1.58125 L 374.81563126253 1.58125 L 375.89579158317 1.58125 L 376.97595190381 1.58125 L 378.05611222445 6.325 L 379.13627254509 6.325 L 380.21643286573 2.8421709430404e-14 L 381.29659318637 2.8421709430404e-14 L 382.37675350701 2.8421709430404e-14 L 383.45691382766 2.8421709430404e-14 L 384.5370741483 2.8421709430404e-14 L 385.61723446894 2.8421709430404e-14 L 386.69739478958 2.8421709430404e-14 L 387.77755511022 2.8421709430404e-14 L 388.85771543086 2.8421709430404e-14 L 389.9378757515 2.8421709430404e-14 L 391.01803607214 2.8421709430404e-14 L 392.09819639279 2.8421709430404e-14 L 393.17835671343 2.8421709430404e-14 L 394.25851703407 2.8421709430404e-14 L 395.33867735471 6.325 L 396.41883767535 6.325 L 397.49899799599 6.325 L 398.57915831663 6.325 L 399.65931863727 6.325 L 400.73947895792 6.325 L 401.81963927856 6.325 L 402.8997995992 23.71875 L 403.97995991984 23.71875 L 405.06012024048 11.06875 L 406.14028056112 11.06875 L 407.22044088176 11.06875 L 408.3006012024 11.06875 L 409.38076152305 11.06875 L 410.46092184369 11.06875 L 411.54108216433 23.71875 L 412.62124248497 23.71875 L 413.70140280561 23.71875 L 414.78156312625 28.4625 L 415.86172344689 28.4625 L 416.94188376754 28.4625 L 418.02204408818 28.4625 L 419.10220440882 28.4625 L 420.18236472946 28.4625 L 421.2625250501 28.4625 L 422.34268537074 28.4625 L 423.42284569138 39.53125 L 424.50300601202 39.53125 L 425.58316633267 39.53125 L 426.66332665331 39.53125 L 427.74348697395 39.53125 L 428.82364729459 45.85625 L 429.90380761523 45.85625 L 430.98396793587 33.20625 L 432.06412825651 33.20625 L 433.14428857715 33.20625 L 434.2244488978 33.20625 L 435.30460921844 33.20625 L 436.38476953908 22.1375 L 437.46492985972 17.39375 L 438.54509018036 9.4875 L 439.625250501 9.4875 L 440.70541082164 9.4875 L 441.78557114228 3.1625 L 442.86573146293 3.1625 L 443.94589178357 3.1625 L 445.02605210421 26.88125 L 446.10621242485 17.39375 L 447.18637274549 7.90625 L 448.26653306613 7.90625 L 449.34669338677 7.90625 L 450.42685370741 7.90625 L 451.50701402806 20.55625 L 452.5871743487 31.625 L 453.66733466934 36.36875 L 454.74749498998 36.36875 L 455.82765531062 36.36875 L 456.90781563126 36.36875 L 457.9879759519 36.36875 L 459.06813627255 37.95 L 460.14829659319 49.01875 L 461.22845691383 49.01875 L 462.30861723447 49.01875 L 463.38877755511 49.01875 L 464.46893787575 49.01875 L 465.54909819639 49.01875 L 466.62925851703 49.01875 L 467.70941883768 41.1125 L 468.78957915832 41.1125 L 469.86973947896 33.20625 L 470.9498997996 44.275 L 472.03006012024 44.275 L 473.11022044088 44.275 L 474.19038076152 44.275 L 475.27054108216 44.275 L 476.35070140281 44.275 L 477.43086172345 44.275 L 478.51102204409 44.275 L 479.59118236473 44.275 L 480.67134268537 44.275 L 481.75150300601 56.925 L 482.83166332665 56.925 L 483.91182364729 56.925 L 484.99198396794 56.925 L 486.07214428858 56.925 L 487.15230460922 56.925 L 488.23246492986 56.925 L 489.3126252505 56.925 L 490.39278557114 56.925 L 491.47294589178 61.66875 L 492.55310621242 61.66875 L 493.63326653307 61.66875 L 494.71342685371 61.66875 L 495.79358717435 61.66875 L 496.87374749499 66.4125 L 497.95390781563 66.4125 L 499.03406813627 66.4125 L 500.11422845691 66.4125 L 501.19438877756 58.50625 L 502.2745490982 58.50625 L 503.35470941884 58.50625 L 504.43486973948 66.4125 L 505.51503006012 66.4125 L 506.59519038076 66.4125 L 507.6753507014 66.4125 L 508.75551102204 66.4125 L 509.83567134269 47.4375 L 510.91583166333 47.4375 L 511.99599198397 53.7625 L 513.07615230461 63.25 L 514.15631262525 75.9 L 515.23647294589 66.4125 L 516.31663326653 74.31875 L 517.39679358717 86.96875 L 518.47695390782 86.96875 L 519.55711422846 93.29375 L 520.6372745491 93.29375 L 521.71743486974 93.29375 L 522.79759519038 102.78125 L 523.87775551102 107.525 L 524.95791583166 107.525 L 526.0380761523 107.525 L 527.11823647295 107.525 L 528.19839679359 107.525 L 529.27855711423 107.525 L 530.35871743487 107.525 L 531.43887775551 107.525 L 532.51903807615 107.525 L 533.59919839679 107.525 L 534.67935871743 107.525 L 535.75951903808 107.525 L 536.83967935872 107.525 L 537.91983967936 107.525 L 539 107.525" class="highcharts-graph" data-z-index="1" stroke="#CEEDA5" stroke-width="2" stroke-linejoin="round" stroke-linecap="round" filter="none" aria-hidden="false" role="region" tabindex="-1" style="outline: none;" aria-label="EMERALDS, line 1 of 2 with 500 data points."></path></g><g class="highcharts-markers highcharts-series-0 highcharts-line-series highcharts-color-1" data-z-index="0.1" opacity="1" transform="translate(51,42) scale(1 1)" clip-path="none" aria-hidden="true"></g><g class="highcharts-series highcharts-series-1 highcharts-line-series highcharts-color-2" data-z-index="0.1" opacity="1" transform="translate(51,42) scale(1 1)" clip-path="url(#highcharts-w4803tj-41293-)" aria-hidden="false"><path fill="none" d="M 0 126.5 L 1.0801603206413 253 L 2.1603206412826 253 L 3.2404809619238 253 L 4.3206412825651 253 L 5.4008016032064 253 L 6.4809619238477 253 L 7.561122244489 253 L 8.6412825651303 253 L 9.7214428857715 253 L 10.801603206413 253 L 11.881763527054 253 L 12.961923847695 253 L 14.042084168337 253 L 15.122244488978 253 L 16.202404809619 253 L 17.282565130261 253 L 18.362725450902 253 L 19.442885771543 253 L 20.523046092184 253 L 21.603206412826 253 L 22.683366733467 253 L 23.763527054108 253 L 24.843687374749 253 L 25.923847695391 253 L 27.004008016032 253 L 28.084168336673 253 L 29.164328657315 253 L 30.244488977956 253 L 31.324649298597 253 L 32.404809619238 253 L 33.48496993988 253 L 34.565130260521 253 L 35.645290581162 253 L 36.725450901804 253 L 37.805611222445 253 L 38.885771543086 253 L 39.965931863727 253 L 41.046092184369 253 L 42.12625250501 253 L 43.206412825651 253 L 44.286573146293 253 L 45.366733466934 253 L 46.446893787575 253 L 47.527054108216 253 L 48.607214428858 253 L 49.687374749499 253 L 50.76753507014 253 L 51.847695390782 253 L 52.927855711423 253 L 54.008016032064 253 L 55.088176352705 253 L 56.168336673347 253 L 57.248496993988 253 L 58.328657314629 253 L 59.408817635271 253 L 60.488977955912 253 L 61.569138276553 253 L 62.649298597194 253 L 63.729458917836 253 L 64.809619238477 253 L 65.889779559118 253 L 66.96993987976 253 L 68.050100200401 253 L 69.130260521042 253 L 70.210420841683 253 L 71.290581162325 253 L 72.370741482966 253 L 73.450901803607 253 L 74.531062124249 253 L 75.61122244489 253 L 76.691382765531 253 L 77.771543086172 253 L 78.851703406814 253 L 79.931863727455 253 L 81.012024048096 253 L 82.092184368737 253 L 83.172344689379 253 L 84.25250501002 253 L 85.332665330661 253 L 86.412825651303 253 L 87.492985971944 253 L 88.573146292585 253 L 89.653306613226 253 L 90.733466933868 253 L 91.813627254509 253 L 92.89378757515 253 L 93.973947895792 253 L 95.054108216433 253 L 96.134268537074 253 L 97.214428857715 253 L 98.294589178357 253 L 99.374749498998 253 L 100.45490981964 253 L 101.53507014028 253 L 102.61523046092 253 L 103.69539078156 253 L 104.7755511022 253 L 105.85571142285 253 L 106.93587174349 253 L 108.01603206413 253 L 109.09619238477 253 L 110.17635270541 253 L 111.25651302605 253 L 112.33667334669 253 L 113.41683366733 253 L 114.49699398798 253 L 115.57715430862 253 L 116.65731462926 253 L 117.7374749499 253 L 118.81763527054 253 L 119.89779559118 253 L 120.97795591182 253 L 122.05811623246 253 L 123.13827655311 253 L 124.21843687375 253 L 125.29859719439 253 L 126.37875751503 253 L 127.45891783567 253 L 128.53907815631 253 L 129.61923847695 253 L 130.6993987976 253 L 131.77955911824 253 L 132.85971943888 253 L 133.93987975952 253 L 135.02004008016 253 L 136.1002004008 253 L 137.18036072144 253 L 138.26052104208 253 L 139.34068136273 253 L 140.42084168337 253 L 141.50100200401 253 L 142.58116232465 253 L 143.66132264529 253 L 144.74148296593 253 L 145.82164328657 253 L 146.90180360721 253 L 147.98196392786 253 L 149.0621242485 253 L 150.14228456914 253 L 151.22244488978 253 L 152.30260521042 253 L 153.38276553106 253 L 154.4629258517 253 L 155.54308617234 253 L 156.62324649299 253 L 157.70340681363 253 L 158.78356713427 253 L 159.86372745491 253 L 160.94388777555 253 L 162.02404809619 253 L 163.10420841683 253 L 164.18436873747 253 L 165.26452905812 253 L 166.34468937876 253 L 167.4248496994 253 L 168.50501002004 253 L 169.58517034068 253 L 170.66533066132 253 L 171.74549098196 253 L 172.82565130261 253 L 173.90581162325 253 L 174.98597194389 253 L 176.06613226453 253 L 177.14629258517 253 L 178.22645290581 253 L 179.30661322645 253 L 180.38677354709 253 L 181.46693386774 253 L 182.54709418838 253 L 183.62725450902 253 L 184.70741482966 253 L 185.7875751503 253 L 186.86773547094 253 L 187.94789579158 253 L 189.02805611222 253 L 190.10821643287 253 L 191.18837675351 253 L 192.26853707415 253 L 193.34869739479 253 L 194.42885771543 253 L 195.50901803607 253 L 196.58917835671 253 L 197.66933867735 253 L 198.749498998 253 L 199.82965931864 253 L 200.90981963928 253 L 201.98997995992 253 L 203.07014028056 253 L 204.1503006012 253 L 205.23046092184 253 L 206.31062124248 253 L 207.39078156313 253 L 208.47094188377 253 L 209.55110220441 253 L 210.63126252505 253 L 211.71142284569 253 L 212.79158316633 253 L 213.87174348697 253 L 214.95190380762 253 L 216.03206412826 253 L 217.1122244489 253 L 218.19238476954 253 L 219.27254509018 253 L 220.35270541082 253 L 221.43286573146 253 L 222.5130260521 253 L 223.59318637275 253 L 224.67334669339 253 L 225.75350701403 253 L 226.83366733467 253 L 227.91382765531 253 L 228.99398797595 253 L 230.07414829659 253 L 231.15430861723 253 L 232.23446893788 253 L 233.31462925852 253 L 234.39478957916 253 L 235.4749498998 253 L 236.55511022044 253 L 237.63527054108 253 L 238.71543086172 253 L 239.79559118236 253 L 240.87575150301 253 L 241.95591182365 253 L 243.03607214429 253 L 244.11623246493 253 L 245.19639278557 253 L 246.27655310621 253 L 247.35671342685 253 L 248.4368737475 253 L 249.51703406814 253 L 250.59719438878 253 L 251.67735470942 253 L 252.75751503006 253 L 253.8376753507 253 L 254.91783567134 253 L 255.99799599198 253 L 257.07815631263 253 L 258.15831663327 253 L 259.23847695391 253 L 260.31863727455 253 L 261.39879759519 253 L 262.47895791583 253 L 263.55911823647 253 L 264.63927855711 253 L 265.71943887776 253 L 266.7995991984 253 L 267.87975951904 253 L 268.95991983968 253 L 270.04008016032 253 L 271.12024048096 253 L 272.2004008016 253 L 273.28056112224 253 L 274.36072144289 253 L 275.44088176353 253 L 276.52104208417 253 L 277.60120240481 253 L 278.68136272545 253 L 279.76152304609 253 L 280.84168336673 253 L 281.92184368737 253 L 283.00200400802 253 L 284.08216432866 253 L 285.1623246493 253 L 286.24248496994 253 L 287.32264529058 253 L 288.40280561122 253 L 289.48296593186 253 L 290.56312625251 253 L 291.64328657315 253 L 292.72344689379 253 L 293.80360721443 253 L 294.88376753507 253 L 295.96392785571 253 L 297.04408817635 253 L 298.12424849699 253 L 299.20440881764 253 L 300.28456913828 253 L 301.36472945892 253 L 302.44488977956 253 L 303.5250501002 253 L 304.60521042084 253 L 305.68537074148 253 L 306.76553106212 253 L 307.84569138277 253 L 308.92585170341 253 L 310.00601202405 253 L 311.08617234469 253 L 312.16633266533 253 L 313.24649298597 253 L 314.32665330661 253 L 315.40681362725 253 L 316.4869739479 253 L 317.56713426854 253 L 318.64729458918 253 L 319.72745490982 253 L 320.80761523046 253 L 321.8877755511 253 L 322.96793587174 253 L 324.04809619238 253 L 325.12825651303 253 L 326.20841683367 253 L 327.28857715431 253 L 328.36873747495 253 L 329.44889779559 253 L 330.52905811623 253 L 331.60921843687 253 L 332.68937875752 253 L 333.76953907816 253 L 334.8496993988 253 L 335.92985971944 253 L 337.01002004008 253 L 338.09018036072 253 L 339.17034068136 253 L 340.250501002 253 L 341.33066132265 253 L 342.41082164329 253 L 343.49098196393 253 L 344.57114228457 253 L 345.65130260521 253 L 346.73146292585 253 L 347.81162324649 253 L 348.89178356713 253 L 349.97194388778 253 L 351.05210420842 253 L 352.13226452906 253 L 353.2124248497 253 L 354.29258517034 253 L 355.37274549098 253 L 356.45290581162 253 L 357.53306613226 253 L 358.61322645291 253 L 359.69338677355 253 L 360.77354709419 253 L 361.85370741483 253 L 362.93386773547 253 L 364.01402805611 253 L 365.09418837675 253 L 366.17434869739 253 L 367.25450901804 253 L 368.33466933868 253 L 369.41482965932 253 L 370.49498997996 253 L 371.5751503006 253 L 372.65531062124 253 L 373.73547094188 253 L 374.81563126253 253 L 375.89579158317 253 L 376.97595190381 253 L 378.05611222445 253 L 379.13627254509 253 L 380.21643286573 253 L 381.29659318637 253 L 382.37675350701 253 L 383.45691382766 253 L 384.5370741483 253 L 385.61723446894 253 L 386.69739478958 253 L 387.77755511022 253 L 388.85771543086 253 L 389.9378757515 253 L 391.01803607214 253 L 392.09819639279 253 L 393.17835671343 253 L 394.25851703407 253 L 395.33867735471 253 L 396.41883767535 253 L 397.49899799599 253 L 398.57915831663 253 L 399.65931863727 253 L 400.73947895792 253 L 401.81963927856 253 L 402.8997995992 253 L 403.97995991984 253 L 405.06012024048 253 L 406.14028056112 253 L 407.22044088176 253 L 408.3006012024 253 L 409.38076152305 253 L 410.46092184369 253 L 411.54108216433 253 L 412.62124248497 253 L 413.70140280561 253 L 414.78156312625 253 L 415.86172344689 253 L 416.94188376754 253 L 418.02204408818 253 L 419.10220440882 253 L 420.18236472946 253 L 421.2625250501 253 L 422.34268537074 253 L 423.42284569138 253 L 424.50300601202 253 L 425.58316633267 253 L 426.66332665331 253 L 427.74348697395 253 L 428.82364729459 253 L 429.90380761523 253 L 430.98396793587 253 L 432.06412825651 253 L 433.14428857715 253 L 434.2244488978 253 L 435.30460921844 253 L 436.38476953908 253 L 437.46492985972 253 L 438.54509018036 253 L 439.625250501 253 L 440.70541082164 253 L 441.78557114228 253 L 442.86573146293 253 L 443.94589178357 253 L 445.02605210421 253 L 446.10621242485 253 L 447.18637274549 253 L 448.26653306613 253 L 449.34669338677 253 L 450.42685370741 253 L 451.50701402806 253 L 452.5871743487 253 L 453.66733466934 253 L 454.74749498998 253 L 455.82765531062 253 L 456.90781563126 253 L 457.9879759519 253 L 459.06813627255 253 L 460.14829659319 253 L 461.22845691383 253 L 462.30861723447 253 L 463.38877755511 253 L 464.46893787575 253 L 465.54909819639 253 L 466.62925851703 253 L 467.70941883768 253 L 468.78957915832 253 L 469.86973947896 253 L 470.9498997996 253 L 472.03006012024 253 L 473.11022044088 253 L 474.19038076152 253 L 475.27054108216 253 L 476.35070140281 253 L 477.43086172345 253 L 478.51102204409 253 L 479.59118236473 253 L 480.67134268537 253 L 481.75150300601 253 L 482.83166332665 253 L 483.91182364729 253 L 484.99198396794 253 L 486.07214428858 253 L 487.15230460922 253 L 488.23246492986 253 L 489.3126252505 253 L 490.39278557114 253 L 491.47294589178 253 L 492.55310621242 253 L 493.63326653307 253 L 494.71342685371 253 L 495.79358717435 253 L 496.87374749499 253 L 497.95390781563 253 L 499.03406813627 253 L 500.11422845691 253 L 501.19438877756 253 L 502.2745490982 253 L 503.35470941884 253 L 504.43486973948 253 L 505.51503006012 253 L 506.59519038076 253 L 507.6753507014 253 L 508.75551102204 253 L 509.83567134269 253 L 510.91583166333 253 L 511.99599198397 253 L 513.07615230461 253 L 514.15631262525 253 L 515.23647294589 253 L 516.31663326653 253 L 517.39679358717 253 L 518.47695390782 253 L 519.55711422846 253 L 520.6372745491 253 L 521.71743486974 253 L 522.79759519038 253 L 523.87775551102 253 L 524.95791583166 253 L 526.0380761523 253 L 527.11823647295 253 L 528.19839679359 253 L 529.27855711423 253 L 530.35871743487 253 L 531.43887775551 253 L 532.51903807615 253 L 533.59919839679 253 L 534.67935871743 253 L 535.75951903808 253 L 536.83967935872 253 L 537.91983967936 253 L 539 253" class="highcharts-graph" data-z-index="1" stroke="#9F6AE1" stroke-width="2" stroke-linejoin="round" stroke-linecap="round" filter="none" aria-hidden="false" role="region" tabindex="-1" style="outline: none;" aria-label="TOMATOES, line 2 of 2 with 500 data points."></path></g><g class="highcharts-markers highcharts-series-1 highcharts-line-series highcharts-color-2" data-z-index="0.1" opacity="1" transform="translate(51,42) scale(1 1)" clip-path="none" aria-hidden="true"></g></g><text x="300" text-anchor="middle" class="highcharts-title" data-z-index="4" style="font-size: 1em; color: rgb(240, 240, 243); font-weight: bold; fill: rgb(240, 240, 243);" y="22" aria-hidden="true">Positions (% of limit)</text><text x="300" text-anchor="middle" class="highcharts-subtitle" data-z-index="4" style="color: rgb(240, 240, 243); font-size: 0.8em; fill: rgb(240, 240, 243);" y="41" aria-hidden="true"></text><text x="10" text-anchor="start" class="highcharts-caption" data-z-index="4" style="color: rgb(102, 102, 102); font-size: 0.8em; fill: rgb(102, 102, 102);" y="397" aria-hidden="true"></text><g class="highcharts-legend highcharts-no-tooltip" data-z-index="7" transform="translate(191,355)" aria-hidden="true"><rect fill="transparent" class="highcharts-legend-box" rx="0" ry="0" stroke="#999999" stroke-width="0" filter="none" x="0" y="0" width="217" height="30"></rect><g data-z-index="1"><g><g class="highcharts-legend-item highcharts-line-series highcharts-color-1 highcharts-series-0" data-z-index="1" transform="translate(8,3)"><path fill="none" class="highcharts-graph" stroke-width="2" stroke-linecap="round" d="M 1 13 L 15 13" stroke="#CEEDA5"></path><text x="21" style="color: rgb(240, 240, 243); cursor: pointer; font-size: 0.8em; text-decoration: none; fill: rgb(240, 240, 243);" text-anchor="start" data-z-index="2" y="17">EMERALDS</text></g><g class="highcharts-legend-item highcharts-line-series highcharts-color-2 highcharts-series-1" data-z-index="1" transform="translate(119.46666717529297,3)"><path fill="none" class="highcharts-graph" stroke-width="2" stroke-linecap="round" d="M 1 13 L 15 13" stroke="#9F6AE1"></path><text x="21" y="17" style="color: rgb(240, 240, 243); cursor: pointer; font-size: 0.8em; text-decoration: none; fill: rgb(240, 240, 243);" text-anchor="start" data-z-index="2">TOMATOES</text></g></g></g></g><g class="highcharts-axis-labels highcharts-xaxis-labels" data-z-index="7" aria-hidden="true"><text x="51" style="color: rgb(240, 240, 243); cursor: default; font-size: 0.8em; fill: rgb(240, 240, 243);" text-anchor="middle" transform="translate(0,0)" y="322" opacity="1">0</text><text x="115.80961923848" style="color: rgb(240, 240, 243); cursor: default; font-size: 0.8em; fill: rgb(240, 240, 243);" text-anchor="middle" transform="translate(0,0)" y="322" opacity="1">120,000</text><text x="180.61923847695" style="color: rgb(240, 240, 243); cursor: default; font-size: 0.8em; fill: rgb(240, 240, 243);" text-anchor="middle" transform="translate(0,0)" y="322" opacity="1">240,000</text><text x="245.42885771543" style="color: rgb(240, 240, 243); cursor: default; font-size: 0.8em; fill: rgb(240, 240, 243);" text-anchor="middle" transform="translate(0,0)" y="322" opacity="1">360,000</text><text x="310.23847695391" style="color: rgb(240, 240, 243); cursor: default; font-size: 0.8em; fill: rgb(240, 240, 243);" text-anchor="middle" transform="translate(0,0)" y="322" opacity="1">480,000</text><text x="375.04809619238" style="color: rgb(240, 240, 243); cursor: default; font-size: 0.8em; fill: rgb(240, 240, 243);" text-anchor="middle" transform="translate(0,0)" y="322" opacity="1">600,000</text><text x="439.85771543086" style="color: rgb(240, 240, 243); cursor: default; font-size: 0.8em; fill: rgb(240, 240, 243);" text-anchor="middle" transform="translate(0,0)" y="322" opacity="1">720,000</text><text x="504.66733466934" style="color: rgb(240, 240, 243); cursor: default; font-size: 0.8em; fill: rgb(240, 240, 243);" text-anchor="middle" transform="translate(0,0)" y="322" opacity="1">840,000</text><text x="566.8666667938232" style="color: rgb(240, 240, 243); cursor: default; font-size: 0.8em; fill: rgb(240, 240, 243);" text-anchor="middle" transform="translate(0,0)" y="322" opacity="1">960,000</text></g><g class="highcharts-axis-labels highcharts-yaxis-labels" data-z-index="7" aria-hidden="true"><text x="36" style="color: rgb(240, 240, 243); cursor: default; font-size: 0.8em; fill: rgb(240, 240, 243);" text-anchor="end" transform="translate(0,0)" y="293" opacity="1">-100</text><text x="36" style="color: rgb(240, 240, 243); cursor: default; font-size: 0.8em; fill: rgb(240, 240, 243);" text-anchor="end" transform="translate(0,0)" y="230" opacity="1">-50</text><text x="36" style="color: rgb(240, 240, 243); cursor: default; font-size: 0.8em; fill: rgb(240, 240, 243);" text-anchor="end" transform="translate(0,0)" y="167" opacity="1">0</text><text x="36" style="color: rgb(240, 240, 243); cursor: default; font-size: 0.8em; fill: rgb(240, 240, 243);" text-anchor="end" transform="translate(0,0)" y="103" opacity="1">50</text><text x="0" style="color: rgb(240, 240, 243); cursor: default; font-size: 0.8em; fill: rgb(240, 240, 243);" text-anchor="end" transform="translate(0,0)" visibility="hidden">100</text></g><text x="590" class="highcharts-credits" text-anchor="end" data-z-index="8" style="cursor: pointer; color: rgb(240, 240, 243); font-size: 0.6em; fill: rgb(240, 240, 243);" y="395" aria-label="Chart credits: Highcharts.com" aria-hidden="false">Highcharts.com</text></svg>