<svg xmlns:xlink="http://www.w3.org/1999/xlink" version="1.1" class="highcharts-root" style="font-family: Helvetica, Arial, sans-serif; font-size: 1rem;" xmlns="http://www.w3.org/2000/svg" width="600" height="400" viewBox="0 0 600 400" aria-label="Interactive chart" aria-hidden="false"><desc aria-hidden="true">Created with Highcharts 11.4.8</desc><defs aria-hidden="true"><filter id="highcharts-drop-shadow-12"><feDropShadow dx="1" dy="1" flood-color="#000000" flood-opacity="0.75" stdDeviation="2.5"></feDropShadow></filter><clipPath id="highcharts-w4803tj-20857-"><rect x="0" y="0" width="547" height="253" fill="none"></rect></clipPath></defs><rect fill="#1f1f20" class="highcharts-background" filter="none" x="0" y="0" width="600" height="400" rx="0" ry="0" aria-hidden="true"></rect><rect fill="none" class="highcharts-plot-background" x="43" y="42" width="547" height="253" filter="none" aria-hidden="true"></rect><g class="highcharts-grid highcharts-xaxis-grid" data-z-index="1" aria-hidden="true"><path fill="none" stroke="#707073" stroke-width="0" stroke-dasharray="none" data-z-index="1" class="highcharts-grid-line" d="M 43.5 42 L 43.5 295" opacity="1"></path><path fill="none" stroke="#707073" stroke-width="0" stroke-dasharray="none" data-z-index="1" class="highcharts-grid-line" d="M 108.5 42 L 108.5 295" opacity="1"></path><path fill="none" stroke="#707073" stroke-width="0" stroke-dasharray="none" data-z-index="1" class="highcharts-grid-line" d="M 174.5 42 L 174.5 295" opacity="1"></path><path fill="none" stroke="#707073" stroke-width="0" stroke-dasharray="none" data-z-index="1" class="highcharts-grid-line" d="M 240.5 42 L 240.5 295" opacity="1"></path><path fill="none" stroke="#707073" stroke-width="0" stroke-dasharray="none" data-z-index="1" class="highcharts-grid-line" d="M 306.5 42 L 306.5 295" opacity="1"></path><path fill="none" stroke="#707073" stroke-width="0" stroke-dasharray="none" data-z-index="1" class="highcharts-grid-line" d="M 371.5 42 L 371.5 295" opacity="1"></path><path fill="none" stroke="#707073" stroke-width="0" stroke-dasharray="none" data-z-index="1" class="highcharts-grid-line" d="M 437.5 42 L 437.5 295" opacity="1"></path><path fill="none" stroke="#707073" stroke-width="0" stroke-dasharray="none" data-z-index="1" class="highcharts-grid-line" d="M 503.5 42 L 503.5 295" opacity="1"></path><path fill="none" stroke="#707073" stroke-width="0" stroke-dasharray="none" data-z-index="1" class="highcharts-grid-line" d="M 569.5 42 L 569.5 295" opacity="1"></path></g><g class="highcharts-grid highcharts-yaxis-grid" data-z-index="1" aria-hidden="true"><path fill="none" stroke="#707073" stroke-width="1" stroke-dasharray="none" data-z-index="1" class="highcharts-grid-line" d="M 43 295.5 L 590 295.5" opacity="1"></path><path fill="none" stroke="#707073" stroke-width="1" stroke-dasharray="none" data-z-index="1" class="highcharts-grid-line" d="M 43 244.5 L 590 244.5" opacity="1"></path><path fill="none" stroke="#707073" stroke-width="1" stroke-dasharray="none" data-z-index="1" class="highcharts-grid-line" d="M 43 194.5 L 590 194.5" opacity="1"></path><path fill="none" stroke="#707073" stroke-width="1" stroke-dasharray="none" data-z-index="1" class="highcharts-grid-line" d="M 43 143.5 L 590 143.5" opacity="1"></path><path fill="none" stroke="#707073" stroke-width="1" stroke-dasharray="none" data-z-index="1" class="highcharts-grid-line" d="M 43 93.5 L 590 93.5" opacity="1"></path><path fill="none" stroke="#707073" stroke-width="1" stroke-dasharray="none" data-z-index="1" class="highcharts-grid-line" d="M 43 42.5 L 590 42.5" opacity="1"></path></g><rect fill="none" class="highcharts-plot-border" data-z-index="1" stroke="#606063" stroke-width="0" x="43" y="42" width="547" height="253" aria-hidden="true"></rect><g class="highcharts-axis highcharts-xaxis" data-z-index="2" aria-hidden="true"><path fill="none" class="highcharts-tick" stroke="#707073" stroke-width="1" d="M 43.5 295 L 43.5 305" opacity="1"></path><path fill="none" class="highcharts-tick" stroke="#707073" stroke-width="1" d="M 108.5 295 L 108.5 305" opacity="1"></path><path fill="none" class="highcharts-tick" stroke="#707073" stroke-width="1" d="M 174.5 295 L 174.5 305" opacity="1"></path><path fill="none" class="highcharts-tick" stroke="#707073" stroke-width="1" d="M 240.5 295 L 240.5 305" opacity="1"></path><path fill="none" class="highcharts-tick" stroke="#707073" stroke-width="1" d="M 306.5 295 L 306.5 305" opacity="1"></path><path fill="none" class="highcharts-tick" stroke="#707073" stroke-width="1" d="M 371.5 295 L 371.5 305" opacity="1"></path><path fill="none" class="highcharts-tick" stroke="#707073" stroke-width="1" d="M 437.5 295 L 437.5 305" opacity="1"></path><path fill="none" class="highcharts-tick" stroke="#707073" stroke-width="1" d="M 503.5 295 L 503.5 305" opacity="1"></path><path fill="none" class="highcharts-tick" stroke="#707073" stroke-width="1" d="M 569.5 295 L 569.5 305" opacity="1"></path><text x="316.5" data-z-index="7" text-anchor="middle" transform="translate(0,0)" class="highcharts-axis-title" style="color: rgb(240, 240, 243); font-size: 0.8em; fill: rgb(240, 240, 243);" y="341">Timestamp</text><path fill="none" class="highcharts-axis-line" stroke="#707073" stroke-width="1" data-z-index="7" d="M 43 295.5 L 590 295.5"></path></g><g class="highcharts-axis highcharts-yaxis" data-z-index="2" aria-hidden="true"><path fill="none" class="highcharts-axis-line" stroke="#707073" stroke-width="0" data-z-index="7" d="M 43 42 L 43 295"></path></g><g class="highcharts-series-group" data-z-index="3" filter="none" aria-hidden="false"><g class="highcharts-series highcharts-series-0 highcharts-line-series highcharts-color-0" data-z-index="0.1" opacity="1" transform="translate(43,42) scale(1 1)" clip-path="url(#highcharts-w4803tj-20857-)" aria-hidden="false"><path fill="none" d="M 0 202.4 L 1.0961923847695 201.9699 L 2.1923847695391 201.8181 L 3.2885771543086 199.6423 L 4.3847695390782 199.6423 L 5.4809619238477 199.617 L 6.5771543086172 198.1496 L 7.6733466933868 198.0737 L 8.7695390781563 198.099 L 9.8657314629259 198.2255 L 10.961923847695 198.2002 L 12.058116232465 198.1496 L 13.154308617234 198.2002 L 14.250501002004 198.352 L 15.346693386774 198.1749 L 16.442885771543 198.352 L 17.539078156313 198.4279 L 18.635270541082 198.4026 L 19.731462925852 197.5677 L 20.827655310621 197.5424 L 21.923847695391 195.5943 L 23.02004008016 195.6955 L 24.11623246493 194.4052 L 25.212424849699 194.7088 L 26.308617234469 193.1908 L 27.404809619238 193.2414 L 28.501002004008 193.2161 L 29.597194388778 191.9764 L 30.693386773547 191.9764 L 31.789579158317 192.1282 L 32.885771543086 192.1788 L 33.981963927856 192.2041 L 35.078156312625 191.5716 L 36.174348697395 190.8126 L 37.270541082164 190.8632 L 38.366733466934 191.015 L 39.462925851703 190.8632 L 40.559118236473 190.9391 L 41.655310621242 190.8885 L 42.751503006012 190.9644 L 43.847695390782 190.8885 L 44.943887775551 191.015 L 46.040080160321 191.2933 L 47.13627254509 189.8259 L 48.23246492986 189.8512 L 49.328657314629 189.8006 L 50.424849699399 189.2187 L 51.521042084168 187.9284 L 52.617234468938 187.9284 L 53.713426853707 188.0296 L 54.809619238477 188.0549 L 55.905811623246 188.3079 L 57.002004008016 188.1561 L 58.098196392786 186.9923 L 59.194388777555 187.0682 L 60.290581162325 187.0429 L 61.386773547094 185.8791 L 62.482965931864 185.9297 L 63.579158316633 185.8032 L 64.675350701403 185.7526 L 65.771543086172 185.6767 L 66.867735470942 184.5129 L 67.963927855711 182.9696 L 69.060120240481 182.3118 L 70.15631262525 180.9203 L 71.25250501002 180.3384 L 72.34869739479 180.136 L 73.444889779559 179.1493 L 74.541082164329 179.0987 L 75.637274549098 179.0987 L 76.733466933868 179.0228 L 77.829659318637 176.6952 L 78.925851703407 175.7844 L 80.022044088176 175.5314 L 81.118236472946 175.6832 L 82.214428857715 174.1652 L 83.310621242485 174.0893 L 84.406813627255 174.1146 L 85.503006012024 174.0893 L 86.599198396794 172.9002 L 87.695390781563 168.6245 L 88.791583166333 168.5233 L 89.887775551102 168.6245 L 90.983967935872 168.2703 L 92.080160320641 168.0679 L 93.176352705411 168.2197 L 94.27254509018 168.1438 L 95.36873747495 168.3209 L 96.464929859719 167.9161 L 97.561122244489 167.9161 L 98.657314629259 167.0559 L 99.753507014028 167.0053 L 100.8496993988 166.9547 L 101.94589178357 166.9041 L 103.04208416834 167.1065 L 104.13827655311 167.0812 L 105.23446893788 167.1824 L 106.33066132265 164.8801 L 107.42685370741 164.8548 L 108.52304609218 164.9813 L 109.61923847695 164.8295 L 110.71543086172 165.0319 L 111.81162324649 165.1837 L 112.90781563126 165.1584 L 114.00400801603 166.3475 L 115.1002004008 164.4247 L 116.19639278557 163.5392 L 117.29258517034 163.4886 L 118.38877755511 162.1477 L 119.48496993988 161.5911 L 120.58116232465 161.5658 L 121.67735470942 161.4393 L 122.77354709419 161.5405 L 123.86973947896 161.5911 L 124.96593186373 161.4646 L 126.0621242485 161.414 L 127.15831663327 161.4899 L 128.25450901804 160.5791 L 129.35070140281 160.7056 L 130.44689378758 159.39 L 131.54308617234 159.4406 L 132.63927855711 159.4153 L 133.73547094188 159.39 L 134.83166332665 159.0864 L 135.92785571142 159.137 L 137.02404809619 159.1623 L 138.12024048096 159.0105 L 139.21643286573 158.9599 L 140.3126252505 158.0238 L 141.40881763527 157.8973 L 142.50501002004 157.872 L 143.60120240481 157.3407 L 144.69739478958 156.9865 L 145.79358717435 156.4046 L 146.88977955912 156.3287 L 147.98597194389 156.4299 L 149.08216432866 156.0251 L 150.17835671343 155.1396 L 151.2745490982 155.2661 L 152.37074148297 155.1649 L 153.46693386774 154.5324 L 154.56312625251 154.5577 L 155.65931863727 154.4565 L 156.75551102204 154.3806 L 157.85170340681 154.2794 L 158.94789579158 153.4698 L 160.04408817635 153.4698 L 161.14028056112 153.4698 L 162.23647294589 153.6722 L 163.33266533066 153.3939 L 164.42885771543 152.6349 L 165.5250501002 152.4325 L 166.62124248497 151.6988 L 167.71743486974 150.535 L 168.81362725451 149.8266 L 169.90981963928 147.1701 L 171.00601202405 147.0689 L 172.10220440882 147.0183 L 173.19839679359 147.0942 L 174.29458917836 147.0689 L 175.39078156313 147.246 L 176.4869739479 147.2966 L 177.58316633267 147.3725 L 178.67935871743 144.0835 L 179.7755511022 144.2353 L 180.87174348697 144.463 L 181.96793587174 143.3751 L 183.06412825651 142.5908 L 184.16032064128 141.8318 L 185.25651302605 142.0342 L 186.35270541082 142.0595 L 187.44889779559 141.8824 L 188.54509018036 141.933 L 189.64128256513 141.0728 L 190.7374749499 141.0981 L 191.83366733467 137.0501 L 192.92985971944 140.6174 L 194.02605210421 140.7439 L 195.12224448898 139.3271 L 196.21843687375 139.3777 L 197.31462925852 139.3271 L 198.41082164329 139.3271 L 199.50701402806 138.138 L 200.60320641283 138.1127 L 201.6993987976 138.1886 L 202.79559118236 138.1127 L 203.89178356713 142.7173 L 204.9879759519 138.0621 L 206.08416833667 138.0874 L 207.18036072144 137.2272 L 208.27655310621 137.2525 L 209.37274549098 137.4296 L 210.46893787575 137.379 L 211.56513026052 137.2525 L 212.66132264529 137.3537 L 213.75751503006 137.1766 L 214.85370741483 136.9995 L 215.9498997996 135.9116 L 217.04609218437 135.8357 L 218.14228456914 139.8837 L 219.23847695391 133.1033 L 220.33466933868 132.7997 L 221.43086172345 131.9901 L 222.52705410822 131.2564 L 223.62324649299 131.3576 L 224.71943887776 130.2191 L 225.81563126253 130.0167 L 226.91182364729 127.9168 L 228.00801603206 126.4747 L 229.10420841683 126.7024 L 230.2004008016 126.0952 L 231.29659318637 124.9061 L 232.39278557114 124.6278 L 233.48897795591 124.8302 L 234.58517034068 129.6372 L 235.68136272545 123.1604 L 236.77755511022 123.2616 L 237.87374749499 123.2616 L 238.96993987976 123.3628 L 240.06613226453 122.6038 L 241.1623246493 122.5026 L 242.25851703407 122.4267 L 243.35470941884 118.7329 L 244.45090180361 122.4773 L 245.54709418838 122.452 L 246.64328657315 122.452 L 247.73947895792 122.4014 L 248.83567134269 122.3761 L 249.93186372745 122.2749 L 251.02805611222 119.2136 L 252.12424849699 117.9486 L 253.22044088176 117.7462 L 254.31663326653 117.9486 L 255.4128256513 117.9233 L 256.50901803607 117.8474 L 257.60521042084 117.9739 L 258.70140280561 117.9486 L 259.79759519038 116.886 L 260.89378757515 116.8607 L 261.98997995992 116.633 L 263.08617234469 116.6583 L 264.18236472946 116.7342 L 265.27855711423 116.633 L 266.374749499 116.5318 L 267.47094188377 116.5824 L 268.56713426854 116.4306 L 269.66332665331 114.8114 L 270.75951903808 113.6729 L 271.85571142285 113.6476 L 272.95190380762 113.6476 L 274.04809619238 113.597 L 275.14428857715 113.6729 L 276.24048096192 113.7741 L 277.33667334669 113.6982 L 278.43286573146 112.6356 L 279.52905811623 112.6356 L 280.625250501 112.6609 L 281.72144288577 112.5597 L 282.81763527054 112.7115 L 283.91382765531 111.1176 L 285.01002004008 110.9911 L 286.10621242485 110.4092 L 287.20240480962 110.3333 L 288.29859719439 109.4731 L 289.39478957916 108.8406 L 290.49098196393 108.4358 L 291.5871743487 108.4358 L 292.68336673347 108.5876 L 293.77955911824 108.1575 L 294.87575150301 108.2334 L 295.97194388778 108.1069 L 297.06813627255 108.3599 L 298.16432865731 108.3599 L 299.26052104208 108.7394 L 300.35671342685 108.4611 L 301.45290581162 107.4238 L 302.54909819639 106.3865 L 303.64529058116 106.4624 L 304.74148296593 106.4624 L 305.8376753507 106.5636 L 306.93386773547 106.6648 L 308.03006012024 106.4371 L 309.12625250501 105.0962 L 310.22244488978 104.9444 L 311.31863727455 103.9324 L 312.41482965932 103.477 L 313.51102204409 103.3505 L 314.60721442886 103.224 L 315.70340681363 103.4011 L 316.7995991984 102.1867 L 317.89579158317 102.1108 L 318.99198396794 102.1108 L 320.08817635271 102.0349 L 321.18436873747 102.0855 L 322.28056112224 101.9337 L 323.37675350701 100.8964 L 324.47294589178 101.0482 L 325.56913827655 99.9603 L 326.66533066132 98.8471 L 327.76152304609 98.4423 L 328.85771543086 97.4556 L 329.95390781563 97.4809 L 331.0501002004 97.6833 L 332.14629258517 96.3171 L 333.24248496994 96.1906 L 334.33867735471 96.2412 L 335.43486973948 90.4728 L 336.53106212425 95.0521 L 337.62725450902 90.0427 L 338.72344689379 93.6353 L 339.81963927856 92.8763 L 340.91583166333 92.9775 L 342.0120240481 92.8257 L 343.10821643287 92.8763 L 344.20440881764 91.6872 L 345.3006012024 91.839 L 346.39679358717 91.9402 L 347.49298597194 89.9162 L 348.58917835671 88.9295 L 349.68537074148 86.273 L 350.78156312625 86.5007 L 351.87775551102 86.6525 L 352.97394789579 86.6525 L 354.07014028056 86.8802 L 355.16633266533 86.8296 L 356.2625250501 87.032 L 357.35871743487 85.4381 L 358.45490981964 85.3622 L 359.55110220441 84.4261 L 360.64729458918 83.6165 L 361.74348697395 83.5912 L 362.83967935872 83.237 L 363.93587174349 81.213 L 365.03206412826 80.5046 L 366.12825651303 80.5299 L 367.2244488978 80.3528 L 368.32064128257 80.1251 L 369.41683366733 80.0998 L 370.5130260521 78.5059 L 371.60921843687 77.3927 L 372.70541082164 74.8374 L 373.80160320641 75.2675 L 374.89779559118 74.2555 L 375.99398797595 73.1929 L 377.09018036072 73.117 L 378.18637274549 72.864 L 379.28256513026 72.7881 L 380.37875751503 72.8134 L 381.4749498998 64.7933 L 382.57114228457 72.7375 L 383.66733466934 72.1556 L 384.76352705411 72.0291 L 385.85971943888 71.4725 L 386.95591182365 71.346 L 388.05210420842 71.5484 L 389.14829659319 71.6496 L 390.24448897796 71.6496 L 391.34068136273 71.8267 L 392.43687374749 71.9279 L 393.53306613226 72.0291 L 394.62925851703 71.9532 L 395.7254509018 71.9532 L 396.82164328657 71.7761 L 397.91783567134 79.9227 L 399.01402805611 71.852 L 400.11022044088 72.0038 L 401.20641282565 71.1689 L 402.30260521042 71.093 L 403.39879759519 71.1689 L 404.49498997996 71.1436 L 405.59118236473 71.2195 L 406.6873747495 71.1183 L 407.78356713427 71.093 L 408.87975951904 69.0943 L 409.97595190381 69.1449 L 411.07214428858 67.7281 L 412.16833667335 67.7281 L 413.26452905812 67.7281 L 414.36072144289 67.7534 L 415.45691382766 75.1663 L 416.55310621242 67.804 L 417.64929859719 66.5643 L 418.74549098196 66.7667 L 419.84168336673 60.214 L 420.9378757515 66.3872 L 422.03406813627 66.286 L 423.13026052104 66.4378 L 424.22645290581 66.539 L 425.32264529058 66.5643 L 426.41883767535 66.6149 L 427.51503006012 66.5896 L 428.61122244489 66.6655 L 429.70741482966 65.2234 L 430.80360721443 65.1475 L 431.8997995992 65.274 L 432.99599198397 65.3752 L 434.09218436874 65.2993 L 435.18837675351 64.5909 L 436.28456913828 64.6415 L 437.38076152305 63.3006 L 438.47695390782 63.4777 L 439.57314629259 63.3765 L 440.66933867735 63.1741 L 441.76553106212 63.4018 L 442.86172344689 62.1115 L 443.95791583166 61.6055 L 445.05410821643 60.6694 L 446.1503006012 60.8718 L 447.24649298597 61.0742 L 448.34268537074 60.5429 L 449.43887775551 60.467 L 450.53507014028 68.31 L 451.63126252505 57.0262 L 452.72745490982 55.8371 L 453.82364729459 54.8504 L 454.91983967936 54.7239 L 456.01603206413 54.648 L 457.1122244489 54.6733 L 458.20841683367 53.13 L 459.30460921844 51.7638 L 460.40080160321 51.1566 L 461.49699398798 51.1819 L 462.59318637275 51.1566 L 463.68937875752 51.1313 L 464.78557114228 51.1819 L 465.88176352705 48.9555 L 466.97795591182 48.07 L 468.07414829659 47.9435 L 469.17034068136 48.0194 L 470.26653306613 48.1459 L 471.3627254509 48.07 L 472.45891783567 48.0953 L 473.55511022044 48.2218 L 474.65130260521 47.4375 L 475.74749498998 47.4375 L 476.84368737475 46.3496 L 477.93987975952 45.0087 L 479.03607214429 45.034 L 480.13226452906 44.9581 L 481.22845691383 44.781 L 482.3246492986 44.8316 L 483.42084168337 44.9834 L 484.51703406814 45.1352 L 485.61322645291 45.1858 L 486.70941883768 45.2617 L 487.80561122244 45.2111 L 488.90180360721 43.769 L 489.99799599198 43.8449 L 491.09418837675 43.9208 L 492.19038076152 44.0473 L 493.28657314629 43.8449 L 494.38276553106 43.9208 L 495.47895791583 43.769 L 496.5751503006 43.8449 L 497.67134268537 43.7437 L 498.76753507014 43.1365 L 499.86372745491 42.9847 L 500.95991983968 42.8582 L 502.05611222445 42.757 L 503.15230460922 42.9847 L 504.24849699399 42.3775 L 505.34468937876 42.6558 L 506.44088176353 42.3775 L 507.5370741483 42.504 L 508.63326653307 41.6944 L 509.72945891784 41.6944 L 510.82565130261 41.6944 L 511.92184368737 40.6065 L 513.01803607214 40.5053 L 514.11422845691 40.7836 L 515.21042084168 40.733 L 516.30661322645 40.6318 L 517.40280561122 38.3801 L 518.49899799599 38.3042 L 519.59519038076 37.444 L 520.69138276553 36.2549 L 521.7875751503 34.5851 L 522.88376753507 33.4466 L 523.97995991984 32.6876 L 525.07615230461 31.372 L 526.17234468938 31.2961 L 527.26853707415 30.5877 L 528.36472945892 30.5877 L 529.46092184369 30.5371 L 530.55711422846 29.4239 L 531.65330661323 28.8167 L 532.749498998 29.0697 L 533.84569138277 28.9685 L 534.94188376754 28.9685 L 536.0380761523 29.1456 L 537.13426853707 29.0697 L 538.23046092184 29.0191 L 539.32665330661 28.9179 L 540.42284569138 30.1576 L 541.51903807615 28.9432 L 542.61523046092 28.9432 L 543.71142284569 29.095 L 544.80761523046 29.095 L 545.90380761523 29.0697 L 547 28.8167" class="highcharts-graph" data-z-index="1" stroke="#67B9EE" stroke-width="2" stroke-linejoin="round" stroke-linecap="round" filter="none" aria-hidden="false" role="region" tabindex="-1" style="outline: none;" aria-label="Total, line 1 of 3 with 500 data points."></path></g><g class="highcharts-markers highcharts-series-0 highcharts-line-series highcharts-color-0" data-z-index="0.1" opacity="1" transform="translate(43,42) scale(1 1)" clip-path="none" aria-hidden="true"></g><g class="highcharts-series highcharts-series-1 highcharts-line-series highcharts-color-1" data-z-index="0.1" opacity="1" transform="translate(43,42) scale(1 1)" clip-path="url(#highcharts-w4803tj-20857-)" aria-hidden="false"><path fill="none" d="M 0 202.4 L 1.0961923847695 202.4 L 2.1923847695391 202.4 L 3.2885771543086 200.2748 L 4.3847695390782 200.2748 L 5.4809619238477 200.2748 L 6.5771543086172 198.858 L 7.6733466933868 198.858 L 8.7695390781563 198.858 L 9.8657314629259 198.858 L 10.961923847695 198.858 L 12.058116232465 198.858 L 13.154308617234 198.858 L 14.250501002004 198.858 L 15.346693386774 198.858 L 16.442885771543 198.858 L 17.539078156313 198.858 L 18.635270541082 198.858 L 19.731462925852 197.9725 L 20.827655310621 197.9725 L 21.923847695391 196.2015 L 23.02004008016 196.2015 L 24.11623246493 194.7847 L 25.212424849699 194.9871 L 26.308617234469 193.3679 L 27.404809619238 193.3679 L 28.501002004008 193.3679 L 29.597194388778 192.3053 L 30.693386773547 192.3053 L 31.789579158317 192.3053 L 32.885771543086 192.3053 L 33.981963927856 192.3053 L 35.078156312625 191.4198 L 36.174348697395 190.5343 L 37.270541082164 190.5343 L 38.366733466934 190.5343 L 39.462925851703 190.5343 L 40.559118236473 190.5343 L 41.655310621242 190.5343 L 42.751503006012 190.5343 L 43.847695390782 190.5343 L 44.943887775551 190.5343 L 46.040080160321 190.5343 L 47.13627254509 189.1175 L 48.23246492986 189.1175 L 49.328657314629 189.1175 L 50.424849699399 188.5862 L 51.521042084168 187.5236 L 52.617234468938 187.5236 L 53.713426853707 187.5236 L 54.809619238477 187.5236 L 55.905811623246 187.5236 L 57.002004008016 187.5236 L 58.098196392786 186.461 L 59.194388777555 186.461 L 60.290581162325 186.461 L 61.386773547094 185.2213 L 62.482965931864 185.2213 L 63.579158316633 185.2213 L 64.675350701403 185.2213 L 65.771543086172 185.2213 L 66.867735470942 183.8045 L 67.963927855711 182.3877 L 69.060120240481 181.6793 L 70.15631262525 180.4396 L 71.25250501002 179.9083 L 72.34869739479 179.9083 L 73.444889779559 179.0228 L 74.541082164329 179.0228 L 75.637274549098 179.0228 L 76.733466933868 179.0228 L 77.829659318637 176.7205 L 78.925851703407 175.835 L 80.022044088176 175.835 L 81.118236472946 175.835 L 82.214428857715 174.4182 L 83.310621242485 174.4182 L 84.406813627255 174.4182 L 85.503006012024 174.4182 L 86.599198396794 173.3556 L 87.695390781563 169.1052 L 88.791583166333 169.1052 L 89.887775551102 169.1052 L 90.983967935872 168.5739 L 92.080160320641 168.5739 L 93.176352705411 168.5739 L 94.27254509018 168.5739 L 95.36873747495 168.5739 L 96.464929859719 168.5739 L 97.561122244489 168.5739 L 98.657314629259 167.6884 L 99.753507014028 167.6884 L 100.8496993988 167.6884 L 101.94589178357 167.6884 L 103.04208416834 167.6884 L 104.13827655311 167.6884 L 105.23446893788 167.6884 L 106.33066132265 165.3861 L 107.42685370741 165.3861 L 108.52304609218 165.3861 L 109.61923847695 165.3861 L 110.71543086172 165.3861 L 111.81162324649 165.3861 L 112.90781563126 165.3861 L 114.00400801603 166.474 L 115.1002004008 164.8548 L 116.19639278557 163.7922 L 117.29258517034 163.7922 L 118.38877755511 162.5525 L 119.48496993988 162.0212 L 120.58116232465 162.0212 L 121.67735470942 162.0212 L 122.77354709419 162.0212 L 123.86973947896 162.0212 L 124.96593186373 162.0212 L 126.0621242485 162.0212 L 127.15831663327 162.0212 L 128.25450901804 161.1357 L 129.35070140281 161.1357 L 130.44689378758 160.0731 L 131.54308617234 160.0731 L 132.63927855711 160.0731 L 133.73547094188 160.0731 L 134.83166332665 159.5418 L 135.92785571142 159.5418 L 137.02404809619 159.5418 L 138.12024048096 159.5418 L 139.21643286573 159.5418 L 140.3126252505 158.4792 L 141.40881763527 158.4792 L 142.50501002004 158.4792 L 143.60120240481 157.9479 L 144.69739478958 157.4166 L 145.79358717435 156.8853 L 146.88977955912 156.8853 L 147.98597194389 156.8853 L 149.08216432866 156.354 L 150.17835671343 155.2914 L 151.2745490982 155.2914 L 152.37074148297 155.2914 L 153.46693386774 154.4059 L 154.56312625251 154.4059 L 155.65931863727 154.4059 L 156.75551102204 154.4059 L 157.85170340681 154.4059 L 158.94789579158 153.6975 L 160.04408817635 153.6975 L 161.14028056112 153.6975 L 162.23647294589 153.6975 L 163.33266533066 153.6975 L 164.42885771543 152.812 L 165.5250501002 152.812 L 166.62124248497 151.9265 L 167.71743486974 150.6868 L 168.81362725451 149.9784 L 169.90981963928 147.3219 L 171.00601202405 147.3219 L 172.10220440882 147.3219 L 173.19839679359 147.3219 L 174.29458917836 147.3219 L 175.39078156313 147.3219 L 176.4869739479 147.3219 L 177.58316633267 147.3219 L 178.67935871743 144.1341 L 179.7755511022 144.1341 L 180.87174348697 144.1341 L 181.96793587174 143.0715 L 183.06412825651 142.3631 L 184.16032064128 141.6547 L 185.25651302605 141.6547 L 186.35270541082 141.6547 L 187.44889779559 141.6547 L 188.54509018036 141.6547 L 189.64128256513 140.7692 L 190.7374749499 140.7692 L 191.83366733467 136.7212 L 192.92985971944 140.2379 L 194.02605210421 140.2379 L 195.12224448898 138.8211 L 196.21843687375 138.8211 L 197.31462925852 138.8211 L 198.41082164329 138.8211 L 199.50701402806 137.7585 L 200.60320641283 137.7585 L 201.6993987976 137.7585 L 202.79559118236 137.7585 L 203.89178356713 142.3125 L 204.9879759519 137.7585 L 206.08416833667 137.7585 L 207.18036072144 136.873 L 208.27655310621 136.873 L 209.37274549098 136.873 L 210.46893787575 136.873 L 211.56513026052 136.873 L 212.66132264529 136.873 L 213.75751503006 136.873 L 214.85370741483 136.873 L 215.9498997996 135.8104 L 217.04609218437 135.8104 L 218.14228456914 139.9343 L 219.23847695391 133.1539 L 220.33466933868 133.1539 L 221.43086172345 132.0913 L 222.52705410822 131.2058 L 223.62324649299 131.2058 L 224.71943887776 129.9661 L 225.81563126253 129.9661 L 226.91182364729 127.8409 L 228.00801603206 126.6012 L 229.10420841683 126.6012 L 230.2004008016 125.8928 L 231.29659318637 124.6531 L 232.39278557114 124.6531 L 233.48897795591 124.6531 L 234.58517034068 129.6119 L 235.68136272545 123.2363 L 236.77755511022 123.2363 L 237.87374749499 123.2363 L 238.96993987976 123.2363 L 240.06613226453 122.5279 L 241.1623246493 122.5279 L 242.25851703407 122.5279 L 243.35470941884 118.7835 L 244.45090180361 122.5279 L 245.54709418838 122.5279 L 246.64328657315 122.5279 L 247.73947895792 122.5279 L 248.83567134269 122.5279 L 249.93186372745 122.5279 L 251.02805611222 119.6943 L 252.12424849699 118.2775 L 253.22044088176 118.2775 L 254.31663326653 118.2775 L 255.4128256513 118.2775 L 256.50901803607 118.2775 L 257.60521042084 118.2775 L 258.70140280561 118.2775 L 259.79759519038 117.2149 L 260.89378757515 117.2149 L 261.98997995992 117.2149 L 263.08617234469 117.2149 L 264.18236472946 117.2149 L 265.27855711423 117.2149 L 266.374749499 117.2149 L 267.47094188377 117.2149 L 268.56713426854 117.2149 L 269.66332665331 115.4439 L 270.75951903808 114.3813 L 271.85571142285 114.3813 L 272.95190380762 114.3813 L 274.04809619238 114.3813 L 275.14428857715 114.3813 L 276.24048096192 114.3813 L 277.33667334669 114.3813 L 278.43286573146 113.3187 L 279.52905811623 113.3187 L 280.625250501 113.3187 L 281.72144288577 113.3187 L 282.81763527054 113.3187 L 283.91382765531 111.7248 L 285.01002004008 111.7248 L 286.10621242485 111.0164 L 287.20240480962 111.0164 L 288.29859719439 110.308 L 289.39478957916 109.5996 L 290.49098196393 109.0683 L 291.5871743487 109.0683 L 292.68336673347 109.0683 L 293.77955911824 108.537 L 294.87575150301 108.537 L 295.97194388778 108.537 L 297.06813627255 108.537 L 298.16432865731 108.537 L 299.26052104208 108.537 L 300.35671342685 108.537 L 301.45290581162 107.4744 L 302.54909819639 106.5889 L 303.64529058116 106.5889 L 304.74148296593 106.5889 L 305.8376753507 106.5889 L 306.93386773547 106.5889 L 308.03006012024 106.5889 L 309.12625250501 105.3492 L 310.22244488978 105.3492 L 311.31863727455 104.4637 L 312.41482965932 103.7553 L 313.51102204409 103.7553 L 314.60721442886 103.7553 L 315.70340681363 103.7553 L 316.7995991984 102.3385 L 317.89579158317 102.3385 L 318.99198396794 102.3385 L 320.08817635271 102.3385 L 321.18436873747 102.3385 L 322.28056112224 102.3385 L 323.37675350701 101.453 L 324.47294589178 101.453 L 325.56913827655 100.0362 L 326.66533066132 98.9736 L 327.76152304609 98.4423 L 328.85771543086 97.5568 L 329.95390781563 97.5568 L 331.0501002004 97.5568 L 332.14629258517 96.3171 L 333.24248496994 96.3171 L 334.33867735471 96.3171 L 335.43486973948 90.4981 L 336.53106212425 95.2545 L 337.62725450902 90.4981 L 338.72344689379 94.0148 L 339.81963927856 93.1293 L 340.91583166333 93.1293 L 342.0120240481 93.1293 L 343.10821643287 93.1293 L 344.20440881764 91.8896 L 345.3006012024 91.8896 L 346.39679358717 91.8896 L 347.49298597194 89.9415 L 348.58917835671 88.8789 L 349.68537074148 86.5766 L 350.78156312625 86.5766 L 351.87775551102 86.5766 L 352.97394789579 86.5766 L 354.07014028056 86.5766 L 355.16633266533 86.5766 L 356.2625250501 86.5766 L 357.35871743487 84.9827 L 358.45490981964 84.9827 L 359.55110220441 83.743 L 360.64729458918 83.0346 L 361.74348697395 83.0346 L 362.83967935872 82.5033 L 363.93587174349 80.5552 L 365.03206412826 79.8468 L 366.12825651303 79.8468 L 367.2244488978 79.8468 L 368.32064128257 79.8468 L 369.41683366733 79.8468 L 370.5130260521 78.43 L 371.60921843687 77.3674 L 372.70541082164 75.0651 L 373.80160320641 75.0651 L 374.89779559118 74.3567 L 375.99398797595 73.2941 L 377.09018036072 73.2941 L 378.18637274549 73.2941 L 379.28256513026 73.2941 L 380.37875751503 73.2941 L 381.4749498998 65.2993 L 382.57114228457 73.2941 L 383.66733466934 72.7628 L 384.76352705411 72.7628 L 385.85971943888 72.0544 L 386.95591182365 72.0544 L 388.05210420842 72.0544 L 389.14829659319 72.0544 L 390.24448897796 72.0544 L 391.34068136273 72.0544 L 392.43687374749 72.0544 L 393.53306613226 72.0544 L 394.62925851703 72.0544 L 395.7254509018 72.0544 L 396.82164328657 72.0544 L 397.91783567134 80.1504 L 399.01402805611 72.0544 L 400.11022044088 72.0544 L 401.20641282565 71.346 L 402.30260521042 71.346 L 403.39879759519 71.346 L 404.49498997996 71.346 L 405.59118236473 71.346 L 406.6873747495 71.346 L 407.78356713427 71.346 L 408.87975951904 69.3979 L 409.97595190381 69.3979 L 411.07214428858 67.9811 L 412.16833667335 67.9811 L 413.26452905812 67.9811 L 414.36072144289 67.9811 L 415.45691382766 75.3687 L 416.55310621242 67.9811 L 417.64929859719 66.5643 L 418.74549098196 66.5643 L 419.84168336673 59.9863 L 420.9378757515 66.033 L 422.03406813627 66.033 L 423.13026052104 66.033 L 424.22645290581 66.033 L 425.32264529058 66.033 L 426.41883767535 66.033 L 427.51503006012 66.033 L 428.61122244489 66.033 L 429.70741482966 64.7933 L 430.80360721443 64.7933 L 431.8997995992 64.7933 L 432.99599198397 64.7933 L 434.09218436874 64.7933 L 435.18837675351 64.0849 L 436.28456913828 64.0849 L 437.38076152305 62.6681 L 438.47695390782 62.6681 L 439.57314629259 62.6681 L 440.66933867735 62.6681 L 441.76553106212 62.6681 L 442.86172344689 61.4284 L 443.95791583166 60.8971 L 445.05410821643 60.0116 L 446.1503006012 60.0116 L 447.24649298597 60.0116 L 448.34268537074 59.3032 L 449.43887775551 59.3032 L 450.53507014028 67.1968 L 451.63126252505 55.9383 L 452.72745490982 54.8757 L 453.82364729459 53.8131 L 454.91983967936 53.8131 L 456.01603206413 53.8131 L 457.1122244489 53.8131 L 458.20841683367 52.3963 L 459.30460921844 51.1566 L 460.40080160321 50.6253 L 461.49699398798 50.6253 L 462.59318637275 50.6253 L 463.68937875752 50.6253 L 464.78557114228 50.6253 L 465.88176352705 48.323 L 466.97795591182 47.0833 L 468.07414829659 47.0833 L 469.17034068136 47.0833 L 470.26653306613 47.0833 L 471.3627254509 47.0833 L 472.45891783567 47.0833 L 473.55511022044 47.0833 L 474.65130260521 46.1978 L 475.74749498998 46.1978 L 476.84368737475 45.3123 L 477.93987975952 44.0726 L 479.03607214429 44.0726 L 480.13226452906 44.0726 L 481.22845691383 44.0726 L 482.3246492986 44.0726 L 483.42084168337 44.0726 L 484.51703406814 44.0726 L 485.61322645291 44.0726 L 486.70941883768 44.0726 L 487.80561122244 44.0726 L 488.90180360721 42.6558 L 489.99799599198 42.6558 L 491.09418837675 42.6558 L 492.19038076152 42.6558 L 493.28657314629 42.6558 L 494.38276553106 42.6558 L 495.47895791583 42.6558 L 496.5751503006 42.6558 L 497.67134268537 42.6558 L 498.76753507014 42.1245 L 499.86372745491 42.1245 L 500.95991983968 42.1245 L 502.05611222445 42.1245 L 503.15230460922 42.1245 L 504.24849699399 41.5932 L 505.34468937876 41.5932 L 506.44088176353 41.5932 L 507.5370741483 41.5932 L 508.63326653307 40.7077 L 509.72945891784 40.7077 L 510.82565130261 40.7077 L 511.92184368737 39.8222 L 513.01803607214 39.8222 L 514.11422845691 39.8222 L 515.21042084168 39.8222 L 516.30661322645 39.8222 L 517.40280561122 37.697 L 518.49899799599 37.697 L 519.59519038076 36.9886 L 520.69138276553 35.926 L 521.7875751503 34.5092 L 522.88376753507 33.4466 L 523.97995991984 32.5611 L 525.07615230461 31.1443 L 526.17234468938 31.1443 L 527.26853707415 30.4359 L 528.36472945892 30.4359 L 529.46092184369 30.4359 L 530.55711422846 29.3733 L 531.65330661323 28.842 L 532.749498998 28.842 L 533.84569138277 28.842 L 534.94188376754 28.842 L 536.0380761523 28.842 L 537.13426853707 28.842 L 538.23046092184 28.842 L 539.32665330661 28.842 L 540.42284569138 30.0564 L 541.51903807615 28.842 L 542.61523046092 28.842 L 543.71142284569 28.842 L 544.80761523046 28.842 L 545.90380761523 28.842 L 547 28.842" class="highcharts-graph" data-z-index="1" stroke="#CEEDA5" stroke-width="2" stroke-dasharray="8,6" filter="none" aria-hidden="false" role="region" tabindex="-1" style="outline: none;" aria-label="EMERALDS, line 2 of 3 with 500 data points."></path></g><g class="highcharts-markers highcharts-series-1 highcharts-line-series highcharts-color-1" data-z-index="0.1" opacity="1" transform="translate(43,42) scale(1 1)" clip-path="none" aria-hidden="true"></g><g class="highcharts-series highcharts-series-2 highcharts-line-series highcharts-color-2" data-z-index="0.1" opacity="1" transform="translate(43,42) scale(1 1)" clip-path="url(#highcharts-w4803tj-20857-)" aria-hidden="false"><path fill="none" d="M 0 202.4 L 1.0961923847695 201.9699 L 2.1923847695391 201.8181 L 3.2885771543086 201.7675 L 4.3847695390782 201.7675 L 5.4809619238477 201.7422 L 6.5771543086172 201.6916 L 7.6733466933868 201.6157 L 8.7695390781563 201.641 L 9.8657314629259 201.7675 L 10.961923847695 201.7422 L 12.058116232465 201.6916 L 13.154308617234 201.7422 L 14.250501002004 201.894 L 15.346693386774 201.7169 L 16.442885771543 201.894 L 17.539078156313 201.9699 L 18.635270541082 201.9446 L 19.731462925852 201.9952 L 20.827655310621 201.9699 L 21.923847695391 201.7928 L 23.02004008016 201.894 L 24.11623246493 202.0205 L 25.212424849699 202.1217 L 26.308617234469 202.2229 L 27.404809619238 202.2735 L 28.501002004008 202.2482 L 29.597194388778 202.0711 L 30.693386773547 202.0711 L 31.789579158317 202.2229 L 32.885771543086 202.2735 L 33.981963927856 202.2988 L 35.078156312625 202.5518 L 36.174348697395 202.6783 L 37.270541082164 202.7289 L 38.366733466934 202.8807 L 39.462925851703 202.7289 L 40.559118236473 202.8048 L 41.655310621242 202.7542 L 42.751503006012 202.8301 L 43.847695390782 202.7542 L 44.943887775551 202.8807 L 46.040080160321 203.159 L 47.13627254509 203.1084 L 48.23246492986 203.1337 L 49.328657314629 203.0831 L 50.424849699399 203.0325 L 51.521042084168 202.8048 L 52.617234468938 202.8048 L 53.713426853707 202.906 L 54.809619238477 202.9313 L 55.905811623246 203.1843 L 57.002004008016 203.0325 L 58.098196392786 202.9313 L 59.194388777555 203.0072 L 60.290581162325 202.9819 L 61.386773547094 203.0578 L 62.482965931864 203.1084 L 63.579158316633 202.9819 L 64.675350701403 202.9313 L 65.771543086172 202.8554 L 66.867735470942 203.1084 L 67.963927855711 202.9819 L 69.060120240481 203.0325 L 70.15631262525 202.8807 L 71.25250501002 202.8301 L 72.34869739479 202.6277 L 73.444889779559 202.5265 L 74.541082164329 202.4759 L 75.637274549098 202.4759 L 76.733466933868 202.4 L 77.829659318637 202.3747 L 78.925851703407 202.3494 L 80.022044088176 202.0964 L 81.118236472946 202.2482 L 82.214428857715 202.147 L 83.310621242485 202.0711 L 84.406813627255 202.0964 L 85.503006012024 202.0711 L 86.599198396794 201.9446 L 87.695390781563 201.9193 L 88.791583166333 201.8181 L 89.887775551102 201.9193 L 90.983967935872 202.0964 L 92.080160320641 201.894 L 93.176352705411 202.0458 L 94.27254509018 201.9699 L 95.36873747495 202.147 L 96.464929859719 201.7422 L 97.561122244489 201.7422 L 98.657314629259 201.7675 L 99.753507014028 201.7169 L 100.8496993988 201.6663 L 101.94589178357 201.6157 L 103.04208416834 201.8181 L 104.13827655311 201.7928 L 105.23446893788 201.894 L 106.33066132265 201.894 L 107.42685370741 201.8687 L 108.52304609218 201.9952 L 109.61923847695 201.8434 L 110.71543086172 202.0458 L 111.81162324649 202.1976 L 112.90781563126 202.1723 L 114.00400801603 202.2735 L 115.1002004008 201.9699 L 116.19639278557 202.147 L 117.29258517034 202.0964 L 118.38877755511 201.9952 L 119.48496993988 201.9699 L 120.58116232465 201.9446 L 121.67735470942 201.8181 L 122.77354709419 201.9193 L 123.86973947896 201.9699 L 124.96593186373 201.8434 L 126.0621242485 201.7928 L 127.15831663327 201.8687 L 128.25450901804 201.8434 L 129.35070140281 201.9699 L 130.44689378758 201.7169 L 131.54308617234 201.7675 L 132.63927855711 201.7422 L 133.73547094188 201.7169 L 134.83166332665 201.9446 L 135.92785571142 201.9952 L 137.02404809619 202.0205 L 138.12024048096 201.8687 L 139.21643286573 201.8181 L 140.3126252505 201.9446 L 141.40881763527 201.8181 L 142.50501002004 201.7928 L 143.60120240481 201.7928 L 144.69739478958 201.9699 L 145.79358717435 201.9193 L 146.88977955912 201.8434 L 147.98597194389 201.9446 L 149.08216432866 202.0711 L 150.17835671343 202.2482 L 151.2745490982 202.3747 L 152.37074148297 202.2735 L 153.46693386774 202.5265 L 154.56312625251 202.5518 L 155.65931863727 202.4506 L 156.75551102204 202.3747 L 157.85170340681 202.2735 L 158.94789579158 202.1723 L 160.04408817635 202.1723 L 161.14028056112 202.1723 L 162.23647294589 202.3747 L 163.33266533066 202.0964 L 164.42885771543 202.2229 L 165.5250501002 202.0205 L 166.62124248497 202.1723 L 167.71743486974 202.2482 L 168.81362725451 202.2482 L 169.90981963928 202.2482 L 171.00601202405 202.147 L 172.10220440882 202.0964 L 173.19839679359 202.1723 L 174.29458917836 202.147 L 175.39078156313 202.3241 L 176.4869739479 202.3747 L 177.58316633267 202.4506 L 178.67935871743 202.3494 L 179.7755511022 202.5012 L 180.87174348697 202.7289 L 181.96793587174 202.7036 L 183.06412825651 202.6277 L 184.16032064128 202.5771 L 185.25651302605 202.7795 L 186.35270541082 202.8048 L 187.44889779559 202.6277 L 188.54509018036 202.6783 L 189.64128256513 202.7036 L 190.7374749499 202.7289 L 191.83366733467 202.7289 L 192.92985971944 202.7795 L 194.02605210421 202.906 L 195.12224448898 202.906 L 196.21843687375 202.9566 L 197.31462925852 202.906 L 198.41082164329 202.906 L 199.50701402806 202.7795 L 200.60320641283 202.7542 L 201.6993987976 202.8301 L 202.79559118236 202.7542 L 203.89178356713 202.8048 L 204.9879759519 202.7036 L 206.08416833667 202.7289 L 207.18036072144 202.7542 L 208.27655310621 202.7795 L 209.37274549098 202.9566 L 210.46893787575 202.906 L 211.56513026052 202.7795 L 212.66132264529 202.8807 L 213.75751503006 202.7036 L 214.85370741483 202.5265 L 215.9498997996 202.5012 L 217.04609218437 202.4253 L 218.14228456914 202.3494 L 219.23847695391 202.3494 L 220.33466933868 202.0458 L 221.43086172345 202.2988 L 222.52705410822 202.4506 L 223.62324649299 202.5518 L 224.71943887776 202.653 L 225.81563126253 202.4506 L 226.91182364729 202.4759 L 228.00801603206 202.2735 L 229.10420841683 202.5012 L 230.2004008016 202.6024 L 231.29659318637 202.653 L 232.39278557114 202.3747 L 233.48897795591 202.5771 L 234.58517034068 202.4253 L 235.68136272545 202.3241 L 236.77755511022 202.4253 L 237.87374749499 202.4253 L 238.96993987976 202.5265 L 240.06613226453 202.4759 L 241.1623246493 202.3747 L 242.25851703407 202.2988 L 243.35470941884 202.3494 L 244.45090180361 202.3494 L 245.54709418838 202.3241 L 246.64328657315 202.3241 L 247.73947895792 202.2735 L 248.83567134269 202.2482 L 249.93186372745 202.147 L 251.02805611222 201.9193 L 252.12424849699 202.0711 L 253.22044088176 201.8687 L 254.31663326653 202.0711 L 255.4128256513 202.0458 L 256.50901803607 201.9699 L 257.60521042084 202.0964 L 258.70140280561 202.0711 L 259.79759519038 202.0711 L 260.89378757515 202.0458 L 261.98997995992 201.8181 L 263.08617234469 201.8434 L 264.18236472946 201.9193 L 265.27855711423 201.8181 L 266.374749499 201.7169 L 267.47094188377 201.7675 L 268.56713426854 201.6157 L 269.66332665331 201.7675 L 270.75951903808 201.6916 L 271.85571142285 201.6663 L 272.95190380762 201.6663 L 274.04809619238 201.6157 L 275.14428857715 201.6916 L 276.24048096192 201.7928 L 277.33667334669 201.7169 L 278.43286573146 201.7169 L 279.52905811623 201.7169 L 280.625250501 201.7422 L 281.72144288577 201.641 L 282.81763527054 201.7928 L 283.91382765531 201.7928 L 285.01002004008 201.6663 L 286.10621242485 201.7928 L 287.20240480962 201.7169 L 288.29859719439 201.5651 L 289.39478957916 201.641 L 290.49098196393 201.7675 L 291.5871743487 201.7675 L 292.68336673347 201.9193 L 293.77955911824 202.0205 L 294.87575150301 202.0964 L 295.97194388778 201.9699 L 297.06813627255 202.2229 L 298.16432865731 202.2229 L 299.26052104208 202.6024 L 300.35671342685 202.3241 L 301.45290581162 202.3494 L 302.54909819639 202.1976 L 303.64529058116 202.2735 L 304.74148296593 202.2735 L 305.8376753507 202.3747 L 306.93386773547 202.4759 L 308.03006012024 202.2482 L 309.12625250501 202.147 L 310.22244488978 201.9952 L 311.31863727455 201.8687 L 312.41482965932 202.1217 L 313.51102204409 201.9952 L 314.60721442886 201.8687 L 315.70340681363 202.0458 L 316.7995991984 202.2482 L 317.89579158317 202.1723 L 318.99198396794 202.1723 L 320.08817635271 202.0964 L 321.18436873747 202.147 L 322.28056112224 201.9952 L 323.37675350701 201.8434 L 324.47294589178 201.9952 L 325.56913827655 202.3241 L 326.66533066132 202.2735 L 327.76152304609 202.4 L 328.85771543086 202.2988 L 329.95390781563 202.3241 L 331.0501002004 202.5265 L 332.14629258517 202.4 L 333.24248496994 202.2735 L 334.33867735471 202.3241 L 335.43486973948 202.3747 L 336.53106212425 202.1976 L 337.62725450902 201.9446 L 338.72344689379 202.0205 L 339.81963927856 202.147 L 340.91583166333 202.2482 L 342.0120240481 202.0964 L 343.10821643287 202.147 L 344.20440881764 202.1976 L 345.3006012024 202.3494 L 346.39679358717 202.4506 L 347.49298597194 202.3747 L 348.58917835671 202.4506 L 349.68537074148 202.0964 L 350.78156312625 202.3241 L 351.87775551102 202.4759 L 352.97394789579 202.4759 L 354.07014028056 202.7036 L 355.16633266533 202.653 L 356.2625250501 202.8554 L 357.35871743487 202.8554 L 358.45490981964 202.7795 L 359.55110220441 203.0831 L 360.64729458918 202.9819 L 361.74348697395 202.9566 L 362.83967935872 203.1337 L 363.93587174349 203.0578 L 365.03206412826 203.0578 L 366.12825651303 203.0831 L 367.2244488978 202.906 L 368.32064128257 202.6783 L 369.41683366733 202.653 L 370.5130260521 202.4759 L 371.60921843687 202.4253 L 372.70541082164 202.1723 L 373.80160320641 202.6024 L 374.89779559118 202.2988 L 375.99398797595 202.2988 L 377.09018036072 202.2229 L 378.18637274549 201.9699 L 379.28256513026 201.894 L 380.37875751503 201.9193 L 381.4749498998 201.894 L 382.57114228457 201.8434 L 383.66733466934 201.7928 L 384.76352705411 201.6663 L 385.85971943888 201.8181 L 386.95591182365 201.6916 L 388.05210420842 201.894 L 389.14829659319 201.9952 L 390.24448897796 201.9952 L 391.34068136273 202.1723 L 392.43687374749 202.2735 L 393.53306613226 202.3747 L 394.62925851703 202.2988 L 395.7254509018 202.2988 L 396.82164328657 202.1217 L 397.91783567134 202.1723 L 399.01402805611 202.1976 L 400.11022044088 202.3494 L 401.20641282565 202.2229 L 402.30260521042 202.147 L 403.39879759519 202.2229 L 404.49498997996 202.1976 L 405.59118236473 202.2735 L 406.6873747495 202.1723 L 407.78356713427 202.147 L 408.87975951904 202.0964 L 409.97595190381 202.147 L 411.07214428858 202.147 L 412.16833667335 202.147 L 413.26452905812 202.147 L 414.36072144289 202.1723 L 415.45691382766 202.1976 L 416.55310621242 202.2229 L 417.64929859719 202.4 L 418.74549098196 202.6024 L 419.84168336673 202.6277 L 420.9378757515 202.7542 L 422.03406813627 202.653 L 423.13026052104 202.8048 L 424.22645290581 202.906 L 425.32264529058 202.9313 L 426.41883767535 202.9819 L 427.51503006012 202.9566 L 428.61122244489 203.0325 L 429.70741482966 202.8301 L 430.80360721443 202.7542 L 431.8997995992 202.8807 L 432.99599198397 202.9819 L 434.09218436874 202.906 L 435.18837675351 202.906 L 436.28456913828 202.9566 L 437.38076152305 203.0325 L 438.47695390782 203.2096 L 439.57314629259 203.1084 L 440.66933867735 202.906 L 441.76553106212 203.1337 L 442.86172344689 203.0831 L 443.95791583166 203.1084 L 445.05410821643 203.0578 L 446.1503006012 203.2602 L 447.24649298597 203.4626 L 448.34268537074 203.6397 L 449.43887775551 203.5638 L 450.53507014028 203.5132 L 451.63126252505 203.4879 L 452.72745490982 203.3614 L 453.82364729459 203.4373 L 454.91983967936 203.3108 L 456.01603206413 203.2349 L 457.1122244489 203.2602 L 458.20841683367 203.1337 L 459.30460921844 203.0072 L 460.40080160321 202.9313 L 461.49699398798 202.9566 L 462.59318637275 202.9313 L 463.68937875752 202.906 L 464.78557114228 202.9566 L 465.88176352705 203.0325 L 466.97795591182 203.3867 L 468.07414829659 203.2602 L 469.17034068136 203.3361 L 470.26653306613 203.4626 L 471.3627254509 203.3867 L 472.45891783567 203.412 L 473.55511022044 203.5385 L 474.65130260521 203.6397 L 475.74749498998 203.6397 L 476.84368737475 203.4373 L 477.93987975952 203.3361 L 479.03607214429 203.3614 L 480.13226452906 203.2855 L 481.22845691383 203.1084 L 482.3246492986 203.159 L 483.42084168337 203.3108 L 484.51703406814 203.4626 L 485.61322645291 203.5132 L 486.70941883768 203.5891 L 487.80561122244 203.5385 L 488.90180360721 203.5132 L 489.99799599198 203.5891 L 491.09418837675 203.665 L 492.19038076152 203.7915 L 493.28657314629 203.5891 L 494.38276553106 203.665 L 495.47895791583 203.5132 L 496.5751503006 203.5891 L 497.67134268537 203.4879 L 498.76753507014 203.412 L 499.86372745491 203.2602 L 500.95991983968 203.1337 L 502.05611222445 203.0325 L 503.15230460922 203.2602 L 504.24849699399 203.1843 L 505.34468937876 203.4626 L 506.44088176353 203.1843 L 507.5370741483 203.3108 L 508.63326653307 203.3867 L 509.72945891784 203.3867 L 510.82565130261 203.3867 L 511.92184368737 203.1843 L 513.01803607214 203.0831 L 514.11422845691 203.3614 L 515.21042084168 203.3108 L 516.30661322645 203.2096 L 517.40280561122 203.0831 L 518.49899799599 203.0072 L 519.59519038076 202.8554 L 520.69138276553 202.7289 L 521.7875751503 202.4759 L 522.88376753507 202.4 L 523.97995991984 202.5265 L 525.07615230461 202.6277 L 526.17234468938 202.5518 L 527.26853707415 202.5518 L 528.36472945892 202.5518 L 529.46092184369 202.5012 L 530.55711422846 202.4506 L 531.65330661323 202.3747 L 532.749498998 202.6277 L 533.84569138277 202.5265 L 534.94188376754 202.5265 L 536.0380761523 202.7036 L 537.13426853707 202.6277 L 538.23046092184 202.5771 L 539.32665330661 202.4759 L 540.42284569138 202.5012 L 541.51903807615 202.5012 L 542.61523046092 202.5012 L 543.71142284569 202.653 L 544.80761523046 202.653 L 545.90380761523 202.6277 L 547 202.3747" class="highcharts-graph" data-z-index="1" stroke="#9F6AE1" stroke-width="2" stroke-dasharray="8,6" filter="none" aria-hidden="false" role="region" tabindex="-1" style="outline: none;" aria-label="TOMATOES, line 3 of 3 with 500 data points."></path></g><g class="highcharts-markers highcharts-series-2 highcharts-line-series highcharts-color-2" data-z-index="0.1" opacity="1" transform="translate(43,42) scale(1 1)" clip-path="none" aria-hidden="true"></g></g><text x="300" text-anchor="middle" class="highcharts-title" data-z-index="4" style="font-size: 1em; color: rgb(240, 240, 243); font-weight: bold; fill: rgb(240, 240, 243);" y="22" aria-hidden="true">Profit / Loss</text><text x="300" text-anchor="middle" class="highcharts-subtitle" data-z-index="4" style="color: rgb(240, 240, 243); font-size: 0.8em; fill: rgb(240, 240, 243);" y="41" aria-hidden="true"></text><text x="10" text-anchor="start" class="highcharts-caption" data-z-index="4" style="color: rgb(102, 102, 102); font-size: 0.8em; fill: rgb(102, 102, 102);" y="397" aria-hidden="true"></text><g class="highcharts-legend highcharts-no-tooltip" data-z-index="7" transform="translate(157,355)" aria-hidden="true"><rect fill="transparent" class="highcharts-legend-box" rx="0" ry="0" stroke="#999999" stroke-width="0" filter="none" x="0" y="0" width="286" height="30"></rect><g data-z-index="1"><g><g class="highcharts-legend-item highcharts-line-series highcharts-color-0 highcharts-series-0" data-z-index="1" transform="translate(8,3)"><path fill="none" class="highcharts-graph" stroke-width="2" stroke-linecap="round" d="M 1 13 L 15 13" stroke="#67B9EE"></path><text x="21" style="color: rgb(240, 240, 243); cursor: pointer; font-size: 0.8em; text-decoration: none; fill: rgb(240, 240, 243);" text-anchor="start" data-z-index="2" y="17">Total</text></g><g class="highcharts-legend-item highcharts-line-series highcharts-color-1 highcharts-series-1" data-z-index="1" transform="translate(76.13333320617676,3)"><path fill="none" class="highcharts-graph" stroke-width="2" stroke-dasharray="8,6" d="M 0 13 L 16 13" stroke="#CEEDA5"></path><text x="21" y="17" style="color: rgb(240, 240, 243); cursor: pointer; font-size: 0.8em; text-decoration: none; fill: rgb(240, 240, 243);" text-anchor="start" data-z-index="2">EMERALDS</text></g><g class="highcharts-legend-item highcharts-line-series highcharts-color-2 highcharts-series-2" data-z-index="1" transform="translate(187.60000038146973,3)"><path fill="none" class="highcharts-graph" stroke-width="2" stroke-dasharray="8,6" d="M 0 13 L 16 13" stroke="#9F6AE1"></path><text x="21" y="17" style="color: rgb(240, 240, 243); cursor: pointer; font-size: 0.8em; text-decoration: none; fill: rgb(240, 240, 243);" text-anchor="start" data-z-index="2">TOMATOES</text></g></g></g></g><g class="highcharts-axis-labels highcharts-xaxis-labels" data-z-index="7" aria-hidden="true"><text x="43" style="color: rgb(240, 240, 243); cursor: default; font-size: 0.8em; fill: rgb(240, 240, 243);" text-anchor="middle" transform="translate(0,0)" y="322" opacity="1">0</text><text x="108.77154308617" style="color: rgb(240, 240, 243); cursor: default; font-size: 0.8em; fill: rgb(240, 240, 243);" text-anchor="middle" transform="translate(0,0)" y="322" opacity="1">120,000</text><text x="174.54308617234" style="color: rgb(240, 240, 243); cursor: default; font-size: 0.8em; fill: rgb(240, 240, 243);" text-anchor="middle" transform="translate(0,0)" y="322" opacity="1">240,000</text><text x="240.31462925852" style="color: rgb(240, 240, 243); cursor: default; font-size: 0.8em; fill: rgb(240, 240, 243);" text-anchor="middle" transform="translate(0,0)" y="322" opacity="1">360,000</text><text x="306.08617234469" style="color: rgb(240, 240, 243); cursor: default; font-size: 0.8em; fill: rgb(240, 240, 243);" text-anchor="middle" transform="translate(0,0)" y="322" opacity="1">480,000</text><text x="371.85771543086" style="color: rgb(240, 240, 243); cursor: default; font-size: 0.8em; fill: rgb(240, 240, 243);" text-anchor="middle" transform="translate(0,0)" y="322" opacity="1">600,000</text><text x="437.62925851703" style="color: rgb(240, 240, 243); cursor: default; font-size: 0.8em; fill: rgb(240, 240, 243);" text-anchor="middle" transform="translate(0,0)" y="322" opacity="1">720,000</text><text x="503.40080160321" style="color: rgb(240, 240, 243); cursor: default; font-size: 0.8em; fill: rgb(240, 240, 243);" text-anchor="middle" transform="translate(0,0)" y="322" opacity="1">840,000</text><text x="566.8666667938232" style="color: rgb(240, 240, 243); cursor: default; font-size: 0.8em; fill: rgb(240, 240, 243);" text-anchor="middle" transform="translate(0,0)" y="322" opacity="1">960,000</text></g><g class="highcharts-axis-labels highcharts-yaxis-labels" data-z-index="7" aria-hidden="true"><text x="28" style="color: rgb(240, 240, 243); cursor: default; font-size: 0.8em; fill: rgb(240, 240, 243);" text-anchor="end" transform="translate(0,0)" y="293" opacity="1">-2k</text><text x="28" style="color: rgb(240, 240, 243); cursor: default; font-size: 0.8em; fill: rgb(240, 240, 243);" text-anchor="end" transform="translate(0,0)" y="242" opacity="1">0</text><text x="28" style="color: rgb(240, 240, 243); cursor: default; font-size: 0.8em; fill: rgb(240, 240, 243);" text-anchor="end" transform="translate(0,0)" y="192" opacity="1">2k</text><text x="28" style="color: rgb(240, 240, 243); cursor: default; font-size: 0.8em; fill: rgb(240, 240, 243);" text-anchor="end" transform="translate(0,0)" y="141" opacity="1">4k</text><text x="28" style="color: rgb(240, 240, 243); cursor: default; font-size: 0.8em; fill: rgb(240, 240, 243);" text-anchor="end" transform="translate(0,0)" y="91" opacity="1">6k</text><text x="0" style="color: rgb(240, 240, 243); cursor: default; font-size: 0.8em; fill: rgb(240, 240, 243);" text-anchor="end" transform="translate(0,0)" visibility="hidden">8k</text></g><text x="590" class="highcharts-credits" text-anchor="end" data-z-index="8" style="cursor: pointer; color: rgb(240, 240, 243); font-size: 0.6em; fill: rgb(240, 240, 243);" y="395" aria-label="Chart credits: Highcharts.com" aria-hidden="false">Highcharts.com</text></svg>