<svg xmlns:xlink="http://www.w3.org/1999/xlink" version="1.1" class="highcharts-root" style="font-family: Helvetica, Arial, sans-serif; font-size: 1rem;" xmlns="http://www.w3.org/2000/svg" width="600" height="400" viewBox="0 0 600 400" aria-label="Interactive chart" aria-hidden="false"><desc aria-hidden="true">Created with Highcharts 11.4.8</desc><defs aria-hidden="true"><filter id="highcharts-drop-shadow-12"><feDropShadow dx="1" dy="1" flood-color="#000000" flood-opacity="0.75" stdDeviation="2.5"></feDropShadow></filter><clipPath id="highcharts-w4803tj-89191-"><rect x="0" y="0" width="533" height="253" fill="none"></rect></clipPath></defs><rect fill="#1f1f20" class="highcharts-background" filter="none" x="0" y="0" width="600" height="400" rx="0" ry="0" aria-hidden="true"></rect><rect fill="none" class="highcharts-plot-background" x="57" y="42" width="533" height="253" filter="none" aria-hidden="true"></rect><g class="highcharts-grid highcharts-xaxis-grid" data-z-index="1" aria-hidden="true"><path fill="none" stroke="#707073" stroke-width="0" stroke-dasharray="none" data-z-index="1" class="highcharts-grid-line" d="M 57.5 42 L 57.5 295" opacity="1"></path><path fill="none" stroke="#707073" stroke-width="0" stroke-dasharray="none" data-z-index="1" class="highcharts-grid-line" d="M 122.5 42 L 122.5 295" opacity="1"></path><path fill="none" stroke="#707073" stroke-width="0" stroke-dasharray="none" data-z-index="1" class="highcharts-grid-line" d="M 186.5 42 L 186.5 295" opacity="1"></path><path fill="none" stroke="#707073" stroke-width="0" stroke-dasharray="none" data-z-index="1" class="highcharts-grid-line" d="M 250.5 42 L 250.5 295" opacity="1"></path><path fill="none" stroke="#707073" stroke-width="0" stroke-dasharray="none" data-z-index="1" class="highcharts-grid-line" d="M 313.5 42 L 313.5 295" opacity="1"></path><path fill="none" stroke="#707073" stroke-width="0" stroke-dasharray="none" data-z-index="1" class="highcharts-grid-line" d="M 377.5 42 L 377.5 295" opacity="1"></path><path fill="none" stroke="#707073" stroke-width="0" stroke-dasharray="none" data-z-index="1" class="highcharts-grid-line" d="M 441.5 42 L 441.5 295" opacity="1"></path><path fill="none" stroke="#707073" stroke-width="0" stroke-dasharray="none" data-z-index="1" class="highcharts-grid-line" d="M 505.5 42 L 505.5 295" opacity="1"></path><path fill="none" stroke="#707073" stroke-width="0" stroke-dasharray="none" data-z-index="1" class="highcharts-grid-line" d="M 568.5 42 L 568.5 295" opacity="1"></path></g><g class="highcharts-grid highcharts-yaxis-grid" data-z-index="1" aria-hidden="true"><path fill="none" stroke="#707073" stroke-width="1" stroke-dasharray="none" data-z-index="1" class="highcharts-grid-line" d="M 57 295.5 L 590 295.5" opacity="1"></path><path fill="none" stroke="#707073" stroke-width="1" stroke-dasharray="none" data-z-index="1" class="highcharts-grid-line" d="M 57 244.5 L 590 244.5" opacity="1"></path><path fill="none" stroke="#707073" stroke-width="1" stroke-dasharray="none" data-z-index="1" class="highcharts-grid-line" d="M 57 194.5 L 590 194.5" opacity="1"></path><path fill="none" stroke="#707073" stroke-width="1" stroke-dasharray="none" data-z-index="1" class="highcharts-grid-line" d="M 57 143.5 L 590 143.5" opacity="1"></path><path fill="none" stroke="#707073" stroke-width="1" stroke-dasharray="none" data-z-index="1" class="highcharts-grid-line" d="M 57 93.5 L 590 93.5" opacity="1"></path><path fill="none" stroke="#707073" stroke-width="1" stroke-dasharray="none" data-z-index="1" class="highcharts-grid-line" d="M 57 42.5 L 590 42.5" opacity="1"></path></g><rect fill="none" class="highcharts-plot-border" data-z-index="1" stroke="#606063" stroke-width="0" x="57" y="42" width="533" height="253" aria-hidden="true"></rect><g class="highcharts-axis highcharts-xaxis" data-z-index="2" aria-hidden="true"><path fill="none" class="highcharts-tick" stroke="#707073" stroke-width="1" d="M 57.5 295 L 57.5 305" opacity="1"></path><path fill="none" class="highcharts-tick" stroke="#707073" stroke-width="1" d="M 122.5 295 L 122.5 305" opacity="1"></path><path fill="none" class="highcharts-tick" stroke="#707073" stroke-width="1" d="M 186.5 295 L 186.5 305" opacity="1"></path><path fill="none" class="highcharts-tick" stroke="#707073" stroke-width="1" d="M 250.5 295 L 250.5 305" opacity="1"></path><path fill="none" class="highcharts-tick" stroke="#707073" stroke-width="1" d="M 313.5 295 L 313.5 305" opacity="1"></path><path fill="none" class="highcharts-tick" stroke="#707073" stroke-width="1" d="M 377.5 295 L 377.5 305" opacity="1"></path><path fill="none" class="highcharts-tick" stroke="#707073" stroke-width="1" d="M 441.5 295 L 441.5 305" opacity="1"></path><path fill="none" class="highcharts-tick" stroke="#707073" stroke-width="1" d="M 505.5 295 L 505.5 305" opacity="1"></path><path fill="none" class="highcharts-tick" stroke="#707073" stroke-width="1" d="M 568.5 295 L 568.5 305" opacity="1"></path><text x="323.5" data-z-index="7" text-anchor="middle" transform="translate(0,0)" class="highcharts-axis-title" style="color: rgb(240, 240, 243); font-size: 0.8em; fill: rgb(240, 240, 243);" y="341">Timestamp</text><path fill="none" class="highcharts-axis-line" stroke="#707073" stroke-width="1" data-z-index="7" d="M 57 295.5 L 590 295.5"></path></g><g class="highcharts-axis highcharts-yaxis" data-z-index="2" aria-hidden="true"><path fill="none" class="highcharts-axis-line" stroke="#707073" stroke-width="0" data-z-index="7" d="M 57 42 L 57 295"></path></g><g class="highcharts-series-group" data-z-index="3" filter="none" aria-hidden="false"><g class="highcharts-series highcharts-series-0 highcharts-line-series" data-z-index="0.1" opacity="1" transform="translate(57,42) scale(1 1)" clip-path="url(#highcharts-w4803tj-89191-)" aria-hidden="false"><path fill="none" d="M 1.0617529880478 172.04 L 4.2470119521912 184.69 L 5.308764940239 187.22 L 6.3705179282869 187.22 L 7.4322709163347 187.22 L 8.4940239043825 189.75 L 9.5557768924303 197.34 L 10.617529880478 192.28 L 11.679282868526 192.28 L 13.802788844622 184.69 L 14.864541832669 182.16 L 15.926294820717 182.16 L 16.988047808765 184.69 L 18.049800796813 177.1 L 21.235059760956 174.57 L 22.296812749004 177.1 L 23.358565737052 187.22 L 26.543824701195 169.51 L 28.667330677291 161.92 L 29.729083665339 164.45 L 32.914342629482 169.51 L 36.099601593625 144.21 L 39.284860557769 139.15 L 40.346613545817 134.09 L 41.408366533865 134.09 L 42.470119521912 131.56 L 43.53187250996 136.62 L 45.655378486056 129.03 L 50.964143426295 129.03 L 52.025896414343 129.03 L 53.08764940239 129.03 L 54.149402390438 129.03 L 56.272908366534 123.97 L 59.458167330677 121.44 L 61.581673306773 129.03 L 63.705179282869 129.03 L 64.766932270916 126.5 L 65.828685258964 129.03 L 66.890438247012 118.91 L 67.95219123506 123.97 L 72.199203187251 139.15 L 76.446215139442 159.39 L 80.693227091633 166.98 L 81.754980079681 169.51 L 82.816733067729 161.92 L 83.878486055777 166.98 L 84.940239043825 172.04 L 87.06374501992 182.16 L 88.125498007968 187.22 L 89.187250996016 184.69 L 90.249003984064 174.57 L 93.434262948207 174.57 L 94.496015936255 177.1 L 96.619521912351 187.22 L 97.681274900398 187.22 L 102.99003984064 184.69 L 105.11354581673 179.63 L 107.23705179283 172.04 L 110.42231075697 172.04 L 112.54581673307 161.92 L 113.60756972112 169.51 L 114.66932270916 166.98 L 119.9780876494 174.57 L 121.03984063745 177.1 L 124.22509960159 184.69 L 126.34860557769 174.57 L 127.41035856574 177.1 L 129.53386454183 187.22 L 130.59561752988 184.69 L 133.78087649402 172.04 L 134.84262948207 177.1 L 136.96613545817 177.1 L 139.08964143426 187.22 L 142.27490039841 179.63 L 143.33665338645 179.63 L 145.46015936255 174.57 L 147.58366533865 156.86 L 148.64541832669 154.33 L 149.70717131474 154.33 L 150.76892430279 149.27 L 157.13944223108 166.98 L 159.26294820717 161.92 L 161.38645418327 166.98 L 162.44820717131 169.51 L 166.69521912351 161.92 L 167.75697211155 164.45 L 168.8187250996 166.98 L 169.88047808765 164.45 L 172.00398406375 156.86 L 173.06573705179 156.86 L 177.31274900398 136.62 L 180.49800796813 131.56 L 183.68326693227 139.15 L 184.74501992032 139.15 L 190.05378486056 129.03 L 192.17729083665 131.56 L 193.2390438247 131.56 L 194.30079681275 129.03 L 196.42430278884 131.56 L 197.48605577689 131.56 L 200.67131474104 139.15 L 201.73306772908 134.09 L 204.91832669323 129.03 L 207.04183266932 134.09 L 209.16533864542 141.68 L 210.22709163347 151.8 L 213.41235059761 154.33 L 214.47410358566 164.45 L 215.53585657371 166.98 L 217.6593625498 149.27 L 218.72111553785 149.27 L 219.7828685259 151.8 L 221.90637450199 159.39 L 222.96812749004 161.92 L 224.02988047809 144.21 L 226.15338645418 139.15 L 231.46215139442 154.33 L 233.58565737052 146.74 L 235.70916334661 159.39 L 236.77091633466 159.39 L 237.83266932271 164.45 L 238.89442231076 154.33 L 239.9561752988 161.92 L 241.01792828685 159.39 L 243.14143426295 156.86 L 245.26494023904 169.51 L 246.32669322709 174.57 L 248.45019920319 172.04 L 249.51195219124 177.1 L 251.63545816733 177.1 L 252.69721115538 172.04 L 254.82071713147 182.16 L 255.88247011952 182.16 L 258.00597609562 182.16 L 259.06772908367 187.22 L 263.31474103586 184.69 L 265.43824701195 192.28 L 267.56175298805 189.75 L 269.68525896414 192.28 L 272.87051792829 187.22 L 273.93227091633 187.22 L 279.24103585657 189.75 L 280.30278884462 194.81 L 281.36454183267 197.34 L 282.42629482072 192.28 L 283.48804780876 187.22 L 284.54980079681 182.16 L 286.67330677291 172.04 L 288.796812749 166.98 L 289.85856573705 159.39 L 291.98207171315 151.8 L 293.0438247012 156.86 L 300.47609561753 159.39 L 302.59960159363 179.63 L 303.66135458167 182.16 L 304.72310756972 174.57 L 306.84661354582 179.63 L 308.97011952191 166.98 L 315.3406374502 174.57 L 317.46414342629 166.98 L 321.71115537849 154.33 L 325.95816733068 156.86 L 328.08167330677 166.98 L 330.20517928287 169.51 L 332.32868525896 166.98 L 334.45219123506 166.98 L 337.6374501992 151.8 L 338.69920318725 156.86 L 340.82270916335 159.39 L 341.88446215139 154.33 L 345.06972111554 136.62 L 348.25498007968 134.09 L 350.37848605578 121.44 L 351.44023904382 126.5 L 352.50199203187 129.03 L 353.56374501992 123.97 L 355.68725099602 121.44 L 358.87250996016 139.15 L 360.99601593625 151.8 L 362.0577689243 156.86 L 364.1812749004 154.33 L 369.49003984064 182.16 L 371.61354581673 182.16 L 372.67529880478 187.22 L 373.73705179283 187.22 L 376.92231075697 187.22 L 377.98406374502 184.69 L 379.04581673307 172.04 L 381.16932270916 169.51 L 382.23107569721 159.39 L 385.41633466135 164.45 L 387.53984063745 166.98 L 397.09561752988 169.51 L 398.15737051793 166.98 L 400.28087649402 166.98 L 402.40438247012 169.51 L 403.46613545817 164.45 L 404.52788844622 161.92 L 406.65139442231 154.33 L 409.83665338645 136.62 L 414.08366533865 129.03 L 416.20717131474 126.5 L 417.26892430279 131.56 L 420.45418326693 126.5 L 422.57768924303 121.44 L 424.70119521912 126.5 L 425.76294820717 121.44 L 426.82470119522 121.44 L 427.88645418327 129.03 L 428.94820717131 123.97 L 431.07171314741 116.38 L 435.3187250996 96.14 L 437.4422310757 96.14 L 440.62749003984 106.26 L 442.75099601594 106.26 L 444.87450199203 111.32 L 452.30677290837 123.97 L 453.36852589641 121.44 L 454.43027888446 111.32 L 456.55378486056 108.79 L 457.61553784861 108.79 L 460.80079681275 96.14 L 461.8625498008 96.14 L 466.10956175299 108.79 L 468.23306772908 121.44 L 469.29482071713 113.85 L 470.35657370518 108.79 L 473.54183266932 93.61 L 474.60358565737 101.2 L 476.72709163347 88.55 L 478.85059760956 88.55 L 480.97410358566 88.55 L 484.1593625498 106.26 L 486.2828685259 118.91 L 487.34462151394 118.91 L 488.40637450199 123.97 L 489.46812749004 118.91 L 490.52988047809 111.32 L 491.59163346614 108.79 L 492.65338645418 106.26 L 493.71513944223 106.26 L 495.83864541833 106.26 L 496.90039840637 106.26 L 502.20916334661 116.38 L 507.51792828685 144.21 L 508.5796812749 144.21 L 509.64143426295 146.74 L 510.703187251 139.15 L 512.82669322709 146.74 L 513.88844621514 149.27 L 517.07370517928 144.21 L 518.13545816733 149.27 L 519.19721115538 146.74 L 522.38247011952 139.15 L 523.44422310757 149.27 L 524.50597609562 149.27 L 527.69123505976 146.74 L 528.75298804781 141.68 L 529.81474103586 144.21" class="highcharts-graph" data-z-index="1" stroke="rgb(39, 174, 96)" stroke-opacity=" 0.5" stroke-width="2" stroke-linejoin="round" stroke-linecap="round" filter="none" aria-hidden="false" role="region" tabindex="-1" style="outline: none;" aria-label="Bid 3, line 1 of 7 with 259 data points."></path></g><g class="highcharts-markers highcharts-series-0 highcharts-line-series" data-z-index="0.1" opacity="1" transform="translate(57,42) scale(1 1)" clip-path="none" aria-hidden="true"></g><g class="highcharts-series highcharts-series-1 highcharts-line-series" data-z-index="0.1" opacity="1" transform="translate(57,42) scale(1 1)" clip-path="url(#highcharts-w4803tj-89191-)" aria-hidden="false"><path fill="none" d="M 0 172.04 L 2.1235059760956 177.1 L 4.2470119521912 182.16 L 5.308764940239 187.22 L 6.3705179282869 187.22 L 7.4322709163347 187.22 L 8.4940239043825 189.75 L 9.5557768924303 192.28 L 10.617529880478 192.28 L 11.679282868526 189.75 L 12.741035856574 187.22 L 13.802788844622 189.75 L 14.864541832669 187.22 L 15.926294820717 179.63 L 16.988047808765 187.22 L 18.049800796813 179.63 L 19.111553784861 177.1 L 20.173306772908 177.1 L 21.235059760956 174.57 L 22.296812749004 177.1 L 23.358565737052 184.69 L 24.4203187251 179.63 L 25.482071713147 174.57 L 26.543824701195 169.51 L 27.605577689243 164.45 L 28.667330677291 159.39 L 29.729083665339 161.92 L 30.790836653386 169.51 L 31.852589641434 172.04 L 32.914342629482 166.98 L 33.97609561753 159.39 L 35.037848605578 159.39 L 36.099601593625 146.74 L 37.161354581673 141.68 L 38.223107569721 139.15 L 39.284860557769 136.62 L 40.346613545817 139.15 L 41.408366533865 134.09 L 42.470119521912 136.62 L 43.53187250996 131.56 L 44.593625498008 136.62 L 45.655378486056 129.03 L 46.717131474104 116.38 L 47.778884462151 118.91 L 48.840637450199 118.91 L 49.902390438247 118.91 L 50.964143426295 123.97 L 52.025896414343 134.09 L 53.08764940239 134.09 L 54.149402390438 129.03 L 55.211155378486 126.5 L 56.272908366534 121.44 L 57.334661354582 123.97 L 58.396414342629 129.03 L 59.458167330677 123.97 L 60.519920318725 123.97 L 61.581673306773 126.5 L 62.643426294821 118.91 L 63.705179282869 123.97 L 64.766932270916 129.03 L 65.828685258964 131.56 L 66.890438247012 118.91 L 67.95219123506 126.5 L 69.013944223108 123.97 L 70.075697211155 129.03 L 71.137450199203 134.09 L 72.199203187251 141.68 L 73.260956175299 149.27 L 74.322709163347 149.27 L 75.384462151394 149.27 L 76.446215139442 154.33 L 77.50796812749 156.86 L 78.569721115538 156.86 L 79.631474103586 169.51 L 80.693227091633 164.45 L 81.754980079681 166.98 L 82.816733067729 169.51 L 83.878486055777 169.51 L 84.940239043825 169.51 L 86.001992031873 177.1 L 87.06374501992 177.1 L 88.125498007968 182.16 L 89.187250996016 182.16 L 90.249003984064 172.04 L 91.310756972112 179.63 L 92.372509960159 172.04 L 93.434262948207 177.1 L 94.496015936255 172.04 L 95.557768924303 187.22 L 96.619521912351 187.22 L 97.681274900398 187.22 L 98.743027888446 187.22 L 99.804780876494 192.28 L 100.86653386454 192.28 L 101.92828685259 182.16 L 102.99003984064 184.69 L 104.05179282869 179.63 L 105.11354581673 179.63 L 106.17529880478 182.16 L 107.23705179283 174.57 L 108.29880478088 182.16 L 109.36055776892 172.04 L 110.42231075697 169.51 L 111.48406374502 166.98 L 112.54581673307 161.92 L 113.60756972112 169.51 L 114.66932270916 166.98 L 115.73107569721 169.51 L 116.79282868526 174.57 L 117.85458167331 174.57 L 118.91633466135 177.1 L 119.9780876494 172.04 L 121.03984063745 179.63 L 122.1015936255 177.1 L 123.16334661355 182.16 L 124.22509960159 184.69 L 125.28685258964 182.16 L 126.34860557769 182.16 L 127.41035856574 174.57 L 128.47211155378 177.1 L 129.53386454183 184.69 L 130.59561752988 187.22 L 131.65737051793 187.22 L 132.71912350598 177.1 L 133.78087649402 174.57 L 134.84262948207 172.04 L 135.90438247012 182.16 L 136.96613545817 184.69 L 138.02788844622 177.1 L 139.08964143426 184.69 L 140.15139442231 184.69 L 141.21314741036 184.69 L 142.27490039841 177.1 L 143.33665338645 179.63 L 144.3984063745 182.16 L 145.46015936255 177.1 L 146.5219123506 172.04 L 147.58366533865 161.92 L 148.64541832669 154.33 L 149.70717131474 154.33 L 150.76892430279 149.27 L 151.83067729084 146.74 L 152.89243027888 151.8 L 153.95418326693 146.74 L 155.01593625498 159.39 L 156.07768924303 166.98 L 157.13944223108 166.98 L 158.20119521912 166.98 L 159.26294820717 159.39 L 160.32470119522 169.51 L 161.38645418327 164.45 L 162.44820717131 172.04 L 163.50996015936 166.98 L 164.57171314741 161.92 L 165.63346613546 161.92 L 166.69521912351 161.92 L 167.75697211155 166.98 L 168.8187250996 169.51 L 169.88047808765 164.45 L 170.9422310757 166.98 L 172.00398406375 156.86 L 173.06573705179 156.86 L 174.12749003984 151.8 L 175.18924302789 156.86 L 176.25099601594 149.27 L 177.31274900398 136.62 L 178.37450199203 139.15 L 179.43625498008 134.09 L 180.49800796813 136.62 L 181.55976095618 136.62 L 182.62151394422 134.09 L 183.68326693227 141.68 L 184.74501992032 141.68 L 185.80677290837 139.15 L 186.86852589641 139.15 L 187.93027888446 136.62 L 188.99203187251 134.09 L 190.05378486056 129.03 L 191.11553784861 129.03 L 192.17729083665 126.5 L 193.2390438247 129.03 L 194.30079681275 129.03 L 195.3625498008 134.09 L 196.42430278884 136.62 L 197.48605577689 134.09 L 198.54780876494 136.62 L 199.60956175299 134.09 L 200.67131474104 139.15 L 201.73306772908 139.15 L 202.79482071713 136.62 L 203.85657370518 136.62 L 204.91832669323 126.5 L 205.98007968127 129.03 L 207.04183266932 136.62 L 208.10358565737 129.03 L 209.16533864542 139.15 L 210.22709163347 149.27 L 211.28884462151 149.27 L 212.35059760956 154.33 L 213.41235059761 156.86 L 214.47410358566 156.86 L 215.53585657371 172.04 L 216.59760956175 159.39 L 217.6593625498 151.8 L 218.72111553785 146.74 L 219.7828685259 149.27 L 220.84462151394 151.8 L 221.90637450199 151.8 L 222.96812749004 161.92 L 224.02988047809 149.27 L 225.09163346614 144.21 L 226.15338645418 141.68 L 227.21513944223 144.21 L 228.27689243028 144.21 L 229.33864541833 154.33 L 230.40039840637 151.8 L 231.46215139442 154.33 L 232.52390438247 154.33 L 233.58565737052 146.74 L 234.64741035857 151.8 L 235.70916334661 154.33 L 236.77091633466 159.39 L 237.83266932271 159.39 L 238.89442231076 156.86 L 239.9561752988 159.39 L 241.01792828685 156.86 L 242.0796812749 161.92 L 243.14143426295 161.92 L 244.203187251 166.98 L 245.26494023904 172.04 L 246.32669322709 172.04 L 247.38844621514 169.51 L 248.45019920319 169.51 L 249.51195219124 172.04 L 250.57370517928 177.1 L 251.63545816733 172.04 L 252.69721115538 169.51 L 253.75896414343 172.04 L 254.82071713147 172.04 L 255.88247011952 182.16 L 256.94422310757 182.16 L 258.00597609562 179.63 L 259.06772908367 182.16 L 260.12948207171 189.75 L 261.19123505976 187.22 L 262.25298804781 192.28 L 263.31474103586 184.69 L 264.3764940239 189.75 L 265.43824701195 189.75 L 266.5 189.75 L 267.56175298805 184.69 L 268.6235059761 189.75 L 269.68525896414 187.22 L 270.74701195219 189.75 L 271.80876494024 187.22 L 272.87051792829 189.75 L 273.93227091633 187.22 L 274.99402390438 192.28 L 276.05577689243 184.69 L 277.11752988048 184.69 L 278.17928286853 192.28 L 279.24103585657 184.69 L 280.30278884462 187.22 L 281.36454183267 197.34 L 282.42629482072 192.28 L 283.48804780876 184.69 L 284.54980079681 187.22 L 285.61155378486 179.63 L 286.67330677291 172.04 L 287.73505976096 169.51 L 288.796812749 166.98 L 289.85856573705 164.45 L 290.9203187251 161.92 L 291.98207171315 149.27 L 293.0438247012 159.39 L 294.10557768924 156.86 L 295.16733067729 164.45 L 296.22908366534 159.39 L 297.29083665339 159.39 L 298.35258964143 156.86 L 299.41434262948 149.27 L 300.47609561753 161.92 L 301.53784860558 166.98 L 302.59960159363 174.57 L 303.66135458167 179.63 L 304.72310756972 172.04 L 305.78486055777 174.57 L 306.84661354582 182.16 L 307.90836653386 172.04 L 308.97011952191 161.92 L 310.03187250996 166.98 L 311.09362549801 166.98 L 312.15537848606 169.51 L 313.2171314741 166.98 L 314.27888446215 174.57 L 315.3406374502 182.16 L 316.40239043825 174.57 L 317.46414342629 159.39 L 318.52589641434 161.92 L 319.58764940239 154.33 L 320.64940239044 159.39 L 321.71115537849 156.86 L 322.77290836653 146.74 L 323.83466135458 154.33 L 324.89641434263 161.92 L 325.95816733068 156.86 L 327.01992031873 154.33 L 328.08167330677 164.45 L 329.14342629482 177.1 L 330.20517928287 174.57 L 331.26693227092 166.98 L 332.32868525896 161.92 L 333.39043824701 169.51 L 334.45219123506 166.98 L 335.51394422311 164.45 L 336.57569721116 156.86 L 337.6374501992 151.8 L 338.69920318725 156.86 L 339.7609561753 151.8 L 340.82270916335 159.39 L 341.88446215139 156.86 L 342.94621513944 151.8 L 344.00796812749 149.27 L 345.06972111554 139.15 L 346.13147410359 141.68 L 347.19322709163 131.56 L 348.25498007968 131.56 L 349.31673306773 126.5 L 350.37848605578 121.44 L 351.44023904382 126.5 L 352.50199203187 126.5 L 353.56374501992 121.44 L 354.62549800797 121.44 L 355.68725099602 121.44 L 356.74900398406 118.91 L 357.81075697211 129.03 L 358.87250996016 139.15 L 359.93426294821 141.68 L 360.99601593625 149.27 L 362.0577689243 151.8 L 363.11952191235 156.86 L 364.1812749004 151.8 L 365.24302788845 159.39 L 366.30478087649 159.39 L 367.36653386454 164.45 L 368.42828685259 177.1 L 369.49003984064 179.63 L 370.55179282869 177.1 L 371.61354581673 179.63 L 372.67529880478 182.16 L 373.73705179283 184.69 L 374.79880478088 192.28 L 375.86055776892 184.69 L 376.92231075697 189.75 L 377.98406374502 179.63 L 379.04581673307 174.57 L 380.10756972112 174.57 L 381.16932270916 166.98 L 382.23107569721 161.92 L 383.29282868526 156.86 L 384.35458167331 159.39 L 385.41633466135 159.39 L 386.4780876494 169.51 L 387.53984063745 166.98 L 388.6015936255 164.45 L 389.66334661355 156.86 L 390.72509960159 161.92 L 391.78685258964 166.98 L 392.84860557769 164.45 L 393.91035856574 164.45 L 394.97211155378 161.92 L 396.03386454183 164.45 L 397.09561752988 166.98 L 398.15737051793 169.51 L 399.21912350598 166.98 L 400.28087649402 166.98 L 401.34262948207 166.98 L 402.40438247012 166.98 L 403.46613545817 166.98 L 404.52788844622 164.45 L 405.58964143426 161.92 L 406.65139442231 154.33 L 407.71314741036 144.21 L 408.77490039841 141.68 L 409.83665338645 136.62 L 410.8984063745 141.68 L 411.96015936255 134.09 L 413.0219123506 129.03 L 414.08366533865 129.03 L 415.14541832669 123.97 L 416.20717131474 126.5 L 417.26892430279 123.97 L 418.33067729084 131.56 L 419.39243027888 136.62 L 420.45418326693 131.56 L 421.51593625498 126.5 L 422.57768924303 129.03 L 423.63944223108 129.03 L 424.70119521912 126.5 L 425.76294820717 123.97 L 426.82470119522 116.38 L 427.88645418327 118.91 L 428.94820717131 129.03 L 430.00996015936 118.91 L 431.07171314741 121.44 L 432.13346613546 118.91 L 433.19521912351 121.44 L 434.25697211155 111.32 L 435.3187250996 101.2 L 436.38047808765 93.61 L 437.4422310757 96.14 L 438.50398406374 98.67 L 439.56573705179 101.2 L 440.62749003984 106.26 L 441.68924302789 101.2 L 442.75099601594 108.79 L 443.81274900398 113.85 L 444.87450199203 111.32 L 445.93625498008 118.91 L 446.99800796813 123.97 L 448.05976095618 129.03 L 449.12151394422 126.5 L 450.18326693227 126.5 L 451.24501992032 129.03 L 452.30677290837 126.5 L 453.36852589641 121.44 L 454.43027888446 108.79 L 455.49203187251 111.32 L 456.55378486056 106.26 L 457.61553784861 103.73 L 458.67729083665 106.26 L 459.7390438247 103.73 L 460.80079681275 98.67 L 461.8625498008 91.08 L 462.92430278884 91.08 L 463.98605577689 103.73 L 465.04780876494 108.79 L 466.10956175299 106.26 L 467.17131474104 111.32 L 468.23306772908 118.91 L 469.29482071713 116.38 L 470.35657370518 108.79 L 471.41832669323 101.2 L 472.48007968127 98.67 L 473.54183266932 96.14 L 474.60358565737 96.14 L 475.66533864542 98.67 L 476.72709163347 93.61 L 477.78884462151 91.08 L 478.85059760956 83.49 L 479.91235059761 93.61 L 480.97410358566 91.08 L 482.03585657371 98.67 L 483.09760956175 93.61 L 484.1593625498 98.67 L 485.22111553785 103.73 L 486.2828685259 111.32 L 487.34462151394 116.38 L 488.40637450199 121.44 L 489.46812749004 116.38 L 490.52988047809 116.38 L 491.59163346614 103.73 L 492.65338645418 113.85 L 493.71513944223 108.79 L 494.77689243028 106.26 L 495.83864541833 106.26 L 496.90039840637 103.73 L 497.96215139442 116.38 L 499.02390438247 111.32 L 500.08565737052 106.26 L 501.14741035857 108.79 L 502.20916334661 113.85 L 503.27091633466 121.44 L 504.33266932271 123.97 L 505.39442231076 131.56 L 506.4561752988 139.15 L 507.51792828685 151.8 L 508.5796812749 146.74 L 509.64143426295 149.27 L 510.703187251 141.68 L 511.76494023904 146.74 L 512.82669322709 146.74 L 513.88844621514 146.74 L 514.95019920319 149.27 L 516.01195219123 151.8 L 517.07370517928 144.21 L 518.13545816733 141.68 L 519.19721115538 146.74 L 520.25896414343 146.74 L 521.32071713147 139.15 L 522.38247011952 141.68 L 523.44422310757 146.74 L 524.50597609562 151.8 L 525.56772908367 149.27 L 526.62948207171 149.27 L 527.69123505976 149.27 L 528.75298804781 141.68 L 529.81474103586 141.68 L 530.8764940239 144.21 L 533 156.86" class="highcharts-graph" data-z-index="1" stroke="rgb(39, 174, 96)" stroke-opacity=" 0.75" stroke-width="2" stroke-linejoin="round" stroke-linecap="round" filter="none" aria-hidden="false" role="region" tabindex="-1" style="outline: none;" aria-label="Bid 2, line 2 of 7 with 500 data points."></path></g><g class="highcharts-markers highcharts-series-1 highcharts-line-series" data-z-index="0.1" opacity="1" transform="translate(57,42) scale(1 1)" clip-path="none" aria-hidden="true"></g><g class="highcharts-series highcharts-series-2 highcharts-line-series" data-z-index="0.1" opacity="1" transform="translate(57,42) scale(1 1)" clip-path="url(#highcharts-w4803tj-89191-)" aria-hidden="false"><path fill="none" d="M 0 169.51 L 2.1235059760956 172.04 L 4.2470119521912 179.63 L 5.308764940239 182.16 L 6.3705179282869 182.16 L 7.4322709163347 184.69 L 8.4940239043825 187.22 L 9.5557768924303 189.75 L 10.617529880478 189.75 L 11.679282868526 177.1 L 12.741035856574 184.69 L 13.802788844622 187.22 L 14.864541832669 184.69 L 15.926294820717 177.1 L 16.988047808765 184.69 L 18.049800796813 177.1 L 19.111553784861 172.04 L 20.173306772908 174.57 L 21.235059760956 172.04 L 22.296812749004 172.04 L 23.358565737052 182.16 L 24.4203187251 177.1 L 25.482071713147 169.51 L 26.543824701195 164.45 L 27.605577689243 159.39 L 28.667330677291 156.86 L 29.729083665339 159.39 L 30.790836653386 166.98 L 31.852589641434 166.98 L 32.914342629482 154.33 L 33.97609561753 156.86 L 35.037848605578 156.86 L 36.099601593625 144.21 L 37.161354581673 136.62 L 38.223107569721 134.09 L 39.284860557769 118.91 L 40.346613545817 134.09 L 41.408366533865 131.56 L 42.470119521912 134.09 L 43.53187250996 129.03 L 44.593625498008 134.09 L 45.655378486056 126.5 L 46.717131474104 113.85 L 47.778884462151 116.38 L 48.840637450199 113.85 L 49.902390438247 116.38 L 50.964143426295 118.91 L 52.025896414343 131.56 L 53.08764940239 131.56 L 54.149402390438 126.5 L 55.211155378486 123.97 L 56.272908366534 103.73 L 57.334661354582 118.91 L 58.396414342629 123.97 L 59.458167330677 121.44 L 60.519920318725 121.44 L 61.581673306773 111.32 L 62.643426294821 116.38 L 63.705179282869 121.44 L 64.766932270916 123.97 L 65.828685258964 129.03 L 66.890438247012 116.38 L 67.95219123506 121.44 L 69.013944223108 118.91 L 70.075697211155 126.5 L 71.137450199203 129.03 L 72.199203187251 139.15 L 73.260956175299 144.21 L 74.322709163347 146.74 L 75.384462151394 146.74 L 76.446215139442 151.8 L 77.50796812749 151.8 L 78.569721115538 154.33 L 79.631474103586 166.98 L 80.693227091633 151.8 L 81.754980079681 164.45 L 82.816733067729 166.98 L 83.878486055777 166.98 L 84.940239043825 166.98 L 86.001992031873 174.57 L 87.06374501992 174.57 L 88.125498007968 179.63 L 89.187250996016 169.51 L 90.249003984064 159.39 L 91.310756972112 177.1 L 92.372509960159 169.51 L 93.434262948207 172.04 L 94.496015936255 154.33 L 95.557768924303 184.69 L 96.619521912351 184.69 L 97.681274900398 182.16 L 98.743027888446 184.69 L 99.804780876494 187.22 L 100.86653386454 189.75 L 101.92828685259 179.63 L 102.99003984064 182.16 L 104.05179282869 177.1 L 105.11354581673 177.1 L 106.17529880478 177.1 L 107.23705179283 172.04 L 108.29880478088 179.63 L 109.36055776892 169.51 L 110.42231075697 154.33 L 111.48406374502 161.92 L 112.54581673307 156.86 L 113.60756972112 164.45 L 114.66932270916 164.45 L 115.73107569721 166.98 L 116.79282868526 172.04 L 117.85458167331 172.04 L 118.91633466135 174.57 L 119.9780876494 169.51 L 121.03984063745 174.57 L 122.1015936255 172.04 L 123.16334661355 179.63 L 124.22509960159 182.16 L 125.28685258964 177.1 L 126.34860557769 179.63 L 127.41035856574 172.04 L 128.47211155378 174.57 L 129.53386454183 182.16 L 130.59561752988 184.69 L 131.65737051793 184.69 L 132.71912350598 174.57 L 133.78087649402 172.04 L 134.84262948207 169.51 L 135.90438247012 177.1 L 136.96613545817 179.63 L 138.02788844622 174.57 L 139.08964143426 179.63 L 140.15139442231 182.16 L 141.21314741036 182.16 L 142.27490039841 172.04 L 143.33665338645 174.57 L 144.3984063745 179.63 L 145.46015936255 174.57 L 146.5219123506 166.98 L 147.58366533865 159.39 L 148.64541832669 151.8 L 149.70717131474 149.27 L 150.76892430279 144.21 L 151.83067729084 144.21 L 152.89243027888 149.27 L 153.95418326693 144.21 L 155.01593625498 156.86 L 156.07768924303 161.92 L 157.13944223108 161.92 L 158.20119521912 161.92 L 159.26294820717 146.74 L 160.32470119522 166.98 L 161.38645418327 159.39 L 162.44820717131 169.51 L 163.50996015936 161.92 L 164.57171314741 159.39 L 165.63346613546 159.39 L 166.69521912351 159.39 L 167.75697211155 164.45 L 168.8187250996 166.98 L 169.88047808765 161.92 L 170.9422310757 164.45 L 172.00398406375 154.33 L 173.06573705179 151.8 L 174.12749003984 149.27 L 175.18924302789 154.33 L 176.25099601594 146.74 L 177.31274900398 134.09 L 178.37450199203 136.62 L 179.43625498008 129.03 L 180.49800796813 134.09 L 181.55976095618 131.56 L 182.62151394422 131.56 L 183.68326693227 139.15 L 184.74501992032 136.62 L 185.80677290837 136.62 L 186.86852589641 134.09 L 187.93027888446 134.09 L 188.99203187251 131.56 L 190.05378486056 126.5 L 191.11553784861 126.5 L 192.17729083665 123.97 L 193.2390438247 126.5 L 194.30079681275 126.5 L 195.3625498008 131.56 L 196.42430278884 134.09 L 197.48605577689 129.03 L 198.54780876494 134.09 L 199.60956175299 131.56 L 200.67131474104 136.62 L 201.73306772908 134.09 L 202.79482071713 134.09 L 203.85657370518 131.56 L 204.91832669323 123.97 L 205.98007968127 126.5 L 207.04183266932 131.56 L 208.10358565737 126.5 L 209.16533864542 136.62 L 210.22709163347 144.21 L 211.28884462151 146.74 L 212.35059760956 149.27 L 213.41235059761 154.33 L 214.47410358566 154.33 L 215.53585657371 169.51 L 216.59760956175 156.86 L 217.6593625498 149.27 L 218.72111553785 144.21 L 219.7828685259 129.03 L 220.84462151394 149.27 L 221.90637450199 146.74 L 222.96812749004 156.86 L 224.02988047809 146.74 L 225.09163346614 141.68 L 226.15338645418 139.15 L 227.21513944223 141.68 L 228.27689243028 141.68 L 229.33864541833 149.27 L 230.40039840637 146.74 L 231.46215139442 149.27 L 232.52390438247 149.27 L 233.58565737052 144.21 L 234.64741035857 146.74 L 235.70916334661 151.8 L 236.77091633466 156.86 L 237.83266932271 146.74 L 238.89442231076 154.33 L 239.9561752988 154.33 L 241.01792828685 154.33 L 242.0796812749 156.86 L 243.14143426295 159.39 L 244.203187251 164.45 L 245.26494023904 166.98 L 246.32669322709 166.98 L 247.38844621514 166.98 L 248.45019920319 166.98 L 249.51195219124 169.51 L 250.57370517928 172.04 L 251.63545816733 159.39 L 252.69721115538 166.98 L 253.75896414343 166.98 L 254.82071713147 169.51 L 255.88247011952 179.63 L 256.94422310757 179.63 L 258.00597609562 174.57 L 259.06772908367 179.63 L 260.12948207171 184.69 L 261.19123505976 182.16 L 262.25298804781 189.75 L 263.31474103586 182.16 L 264.3764940239 187.22 L 265.43824701195 187.22 L 266.5 187.22 L 267.56175298805 179.63 L 268.6235059761 187.22 L 269.68525896414 174.57 L 270.74701195219 184.69 L 271.80876494024 184.69 L 272.87051792829 184.69 L 273.93227091633 184.69 L 274.99402390438 189.75 L 276.05577689243 182.16 L 277.11752988048 182.16 L 278.17928286853 187.22 L 279.24103585657 182.16 L 280.30278884462 184.69 L 281.36454183267 192.28 L 282.42629482072 189.75 L 283.48804780876 182.16 L 284.54980079681 182.16 L 285.61155378486 174.57 L 286.67330677291 169.51 L 287.73505976096 166.98 L 288.796812749 161.92 L 289.85856573705 159.39 L 290.9203187251 159.39 L 291.98207171315 131.56 L 293.0438247012 154.33 L 294.10557768924 154.33 L 295.16733067729 161.92 L 296.22908366534 156.86 L 297.29083665339 156.86 L 298.35258964143 151.8 L 299.41434262948 146.74 L 300.47609561753 159.39 L 301.53784860558 164.45 L 302.59960159363 172.04 L 303.66135458167 177.1 L 304.72310756972 159.39 L 305.78486055777 172.04 L 306.84661354582 177.1 L 307.90836653386 169.51 L 308.97011952191 159.39 L 310.03187250996 161.92 L 311.09362549801 161.92 L 312.15537848606 166.98 L 313.2171314741 164.45 L 314.27888446215 172.04 L 315.3406374502 179.63 L 316.40239043825 172.04 L 317.46414342629 154.33 L 318.52589641434 156.86 L 319.58764940239 151.8 L 320.64940239044 156.86 L 321.71115537849 154.33 L 322.77290836653 144.21 L 323.83466135458 151.8 L 324.89641434263 156.86 L 325.95816733068 154.33 L 327.01992031873 151.8 L 328.08167330677 161.92 L 329.14342629482 174.57 L 330.20517928287 169.51 L 331.26693227092 164.45 L 332.32868525896 159.39 L 333.39043824701 166.98 L 334.45219123506 164.45 L 335.51394422311 161.92 L 336.57569721116 154.33 L 337.6374501992 149.27 L 338.69920318725 151.8 L 339.7609561753 149.27 L 340.82270916335 156.86 L 341.88446215139 154.33 L 342.94621513944 146.74 L 344.00796812749 146.74 L 345.06972111554 136.62 L 346.13147410359 139.15 L 347.19322709163 129.03 L 348.25498007968 129.03 L 349.31673306773 123.97 L 350.37848605578 116.38 L 351.44023904382 121.44 L 352.50199203187 123.97 L 353.56374501992 108.79 L 354.62549800797 118.91 L 355.68725099602 118.91 L 356.74900398406 116.38 L 357.81075697211 126.5 L 358.87250996016 136.62 L 359.93426294821 139.15 L 360.99601593625 146.74 L 362.0577689243 149.27 L 363.11952191235 154.33 L 364.1812749004 131.56 L 365.24302788845 156.86 L 366.30478087649 156.86 L 367.36653386454 159.39 L 368.42828685259 172.04 L 369.49003984064 177.1 L 370.55179282869 174.57 L 371.61354581673 177.1 L 372.67529880478 179.63 L 373.73705179283 182.16 L 374.79880478088 187.22 L 375.86055776892 179.63 L 376.92231075697 187.22 L 377.98406374502 177.1 L 379.04581673307 172.04 L 380.10756972112 172.04 L 381.16932270916 161.92 L 382.23107569721 156.86 L 383.29282868526 151.8 L 384.35458167331 156.86 L 385.41633466135 156.86 L 386.4780876494 164.45 L 387.53984063745 161.92 L 388.6015936255 161.92 L 389.66334661355 154.33 L 390.72509960159 159.39 L 391.78685258964 164.45 L 392.84860557769 159.39 L 393.91035856574 161.92 L 394.97211155378 156.86 L 396.03386454183 161.92 L 397.09561752988 164.45 L 398.15737051793 166.98 L 399.21912350598 164.45 L 400.28087649402 164.45 L 401.34262948207 164.45 L 402.40438247012 164.45 L 403.46613545817 161.92 L 404.52788844622 161.92 L 405.58964143426 159.39 L 406.65139442231 151.8 L 407.71314741036 141.68 L 408.77490039841 139.15 L 409.83665338645 134.09 L 410.8984063745 139.15 L 411.96015936255 131.56 L 413.0219123506 126.5 L 414.08366533865 123.97 L 415.14541832669 121.44 L 416.20717131474 123.97 L 417.26892430279 118.91 L 418.33067729084 129.03 L 419.39243027888 134.09 L 420.45418326693 126.5 L 421.51593625498 121.44 L 422.57768924303 126.5 L 423.63944223108 126.5 L 424.70119521912 123.97 L 425.76294820717 118.91 L 426.82470119522 103.73 L 427.88645418327 116.38 L 428.94820717131 126.5 L 430.00996015936 113.85 L 431.07171314741 116.38 L 432.13346613546 116.38 L 433.19521912351 118.91 L 434.25697211155 108.79 L 435.3187250996 98.67 L 436.38047808765 88.55 L 437.4422310757 93.61 L 438.50398406374 96.14 L 439.56573705179 96.14 L 440.62749003984 103.73 L 441.68924302789 98.67 L 442.75099601594 106.26 L 443.81274900398 108.79 L 444.87450199203 108.79 L 445.93625498008 113.85 L 446.99800796813 121.44 L 448.05976095618 123.97 L 449.12151394422 123.97 L 450.18326693227 123.97 L 451.24501992032 126.5 L 452.30677290837 123.97 L 453.36852589641 118.91 L 454.43027888446 96.14 L 455.49203187251 108.79 L 456.55378486056 103.73 L 457.61553784861 91.08 L 458.67729083665 101.2 L 459.7390438247 101.2 L 460.80079681275 93.61 L 461.8625498008 88.55 L 462.92430278884 88.55 L 463.98605577689 98.67 L 465.04780876494 103.73 L 466.10956175299 103.73 L 467.17131474104 106.26 L 468.23306772908 116.38 L 469.29482071713 113.85 L 470.35657370518 106.26 L 471.41832669323 98.67 L 472.48007968127 96.14 L 473.54183266932 91.08 L 474.60358565737 93.61 L 475.66533864542 96.14 L 476.72709163347 91.08 L 477.78884462151 88.55 L 478.85059760956 80.96 L 479.91235059761 91.08 L 480.97410358566 88.55 L 482.03585657371 96.14 L 483.09760956175 91.08 L 484.1593625498 96.14 L 485.22111553785 101.2 L 486.2828685259 108.79 L 487.34462151394 113.85 L 488.40637450199 118.91 L 489.46812749004 101.2 L 490.52988047809 111.32 L 491.59163346614 91.08 L 492.65338645418 111.32 L 493.71513944223 106.26 L 494.77689243028 101.2 L 495.83864541833 101.2 L 496.90039840637 101.2 L 497.96215139442 111.32 L 499.02390438247 108.79 L 500.08565737052 103.73 L 501.14741035857 106.26 L 502.20916334661 111.32 L 503.27091633466 116.38 L 504.33266932271 121.44 L 505.39442231076 129.03 L 506.4561752988 134.09 L 507.51792828685 146.74 L 508.5796812749 144.21 L 509.64143426295 144.21 L 510.703187251 139.15 L 511.76494023904 144.21 L 512.82669322709 144.21 L 513.88844621514 144.21 L 514.95019920319 146.74 L 516.01195219123 149.27 L 517.07370517928 141.68 L 518.13545816733 139.15 L 519.19721115538 144.21 L 520.25896414343 144.21 L 521.32071713147 136.62 L 522.38247011952 139.15 L 523.44422310757 141.68 L 524.50597609562 146.74 L 525.56772908367 146.74 L 526.62948207171 146.74 L 527.69123505976 146.74 L 528.75298804781 139.15 L 529.81474103586 139.15 L 530.8764940239 139.15 L 533 151.8" class="highcharts-graph" data-z-index="1" stroke="rgb(39, 174, 96)" stroke-opacity=" 1" stroke-width="2" stroke-linejoin="round" stroke-linecap="round" filter="none" aria-hidden="false" role="region" tabindex="-1" style="outline: none;" aria-label="Bid 1, line 3 of 7 with 500 data points."></path></g><g class="highcharts-markers highcharts-series-2 highcharts-line-series" data-z-index="0.1" opacity="1" transform="translate(57,42) scale(1 1)" clip-path="none" aria-hidden="true"></g><g class="highcharts-series highcharts-series-3 highcharts-line-series" data-z-index="0.1" opacity="1" transform="translate(57,42) scale(1 1)" clip-path="url(#highcharts-w4803tj-89191-)" aria-hidden="false"><path fill="none" d="M 0 151.8 L 2.1235059760956 155.595 L 4.2470119521912 163.185 L 5.308764940239 165.715 L 6.3705179282869 165.715 L 7.4322709163347 166.98 L 8.4940239043825 169.51 L 9.5557768924303 173.305 L 10.617529880478 172.04 L 11.679282868526 165.715 L 12.741035856574 166.98 L 13.802788844622 169.51 L 14.864541832669 166.98 L 15.926294820717 159.39 L 16.988047808765 168.245 L 18.049800796813 159.39 L 19.111553784861 155.595 L 20.173306772908 156.86 L 21.235059760956 154.33 L 22.296812749004 155.595 L 23.358565737052 164.45 L 24.4203187251 159.39 L 25.482071713147 153.065 L 26.543824701195 148.005 L 27.605577689243 142.945 L 28.667330677291 140.415 L 29.729083665339 141.68 L 30.790836653386 150.535 L 31.852589641434 150.535 L 32.914342629482 142.945 L 33.97609561753 140.415 L 35.037848605578 139.15 L 36.099601593625 126.5 L 37.161354581673 120.175 L 38.223107569721 117.645 L 39.284860557769 110.055 L 40.346613545817 117.645 L 41.408366533865 113.85 L 42.470119521912 116.38 L 43.53187250996 112.585 L 44.593625498008 116.38 L 45.655378486056 110.055 L 46.717131474104 96.14 L 47.778884462151 98.67 L 48.840637450199 97.405 L 49.902390438247 99.935 L 50.964143426295 102.465 L 52.025896414343 113.85 L 53.08764940239 113.85 L 54.149402390438 108.79 L 55.211155378486 107.525 L 56.272908366534 94.875 L 57.334661354582 102.465 L 58.396414342629 107.525 L 59.458167330677 103.73 L 60.519920318725 104.995 L 61.581673306773 101.2 L 62.643426294821 98.67 L 63.705179282869 104.995 L 64.766932270916 107.525 L 65.828685258964 111.32 L 66.890438247012 98.67 L 67.95219123506 104.995 L 69.013944223108 102.465 L 70.075697211155 110.055 L 71.137450199203 112.585 L 72.199203187251 122.705 L 73.260956175299 127.765 L 74.322709163347 130.295 L 75.384462151394 130.295 L 76.446215139442 134.09 L 77.50796812749 135.355 L 78.569721115538 136.62 L 79.631474103586 149.27 L 80.693227091633 141.68 L 81.754980079681 146.74 L 82.816733067729 150.535 L 83.878486055777 149.27 L 84.940239043825 150.535 L 86.001992031873 156.86 L 87.06374501992 158.125 L 88.125498007968 163.185 L 89.187250996016 158.125 L 90.249003984064 149.27 L 91.310756972112 159.39 L 92.372509960159 151.8 L 93.434262948207 155.595 L 94.496015936255 146.74 L 95.557768924303 166.98 L 96.619521912351 166.98 L 97.681274900398 165.715 L 98.743027888446 168.245 L 99.804780876494 170.775 L 100.86653386454 173.305 L 101.92828685259 163.185 L 102.99003984064 164.45 L 104.05179282869 159.39 L 105.11354581673 159.39 L 106.17529880478 160.655 L 107.23705179283 154.33 L 108.29880478088 161.92 L 109.36055776892 151.8 L 110.42231075697 144.21 L 111.48406374502 145.475 L 112.54581673307 140.415 L 113.60756972112 155.595 L 114.66932270916 146.74 L 115.73107569721 149.27 L 116.79282868526 154.33 L 117.85458167331 155.595 L 118.91633466135 156.86 L 119.9780876494 163.185 L 121.03984063745 158.125 L 122.1015936255 155.595 L 123.16334661355 161.92 L 124.22509960159 164.45 L 125.28685258964 160.655 L 126.34860557769 161.92 L 127.41035856574 155.595 L 128.47211155378 168.245 L 129.53386454183 165.715 L 130.59561752988 166.98 L 131.65737051793 168.245 L 132.71912350598 156.86 L 133.78087649402 154.33 L 134.84262948207 153.065 L 135.90438247012 160.655 L 136.96613545817 163.185 L 138.02788844622 156.86 L 139.08964143426 163.185 L 140.15139442231 164.45 L 141.21314741036 164.45 L 142.27490039841 155.595 L 143.33665338645 158.125 L 144.3984063745 161.92 L 145.46015936255 156.86 L 146.5219123506 150.535 L 147.58366533865 141.68 L 148.64541832669 135.355 L 149.70717131474 140.415 L 150.76892430279 127.765 L 151.83067729084 126.5 L 152.89243027888 131.56 L 153.95418326693 135.355 L 155.01593625498 140.415 L 156.07768924303 145.475 L 157.13944223108 145.475 L 158.20119521912 145.475 L 159.26294820717 135.355 L 160.32470119522 149.27 L 161.38645418327 142.945 L 162.44820717131 153.065 L 163.50996015936 145.475 L 164.57171314741 141.68 L 165.63346613546 141.68 L 166.69521912351 141.68 L 167.75697211155 146.74 L 168.8187250996 149.27 L 169.88047808765 145.475 L 170.9422310757 146.74 L 172.00398406375 137.885 L 173.06573705179 135.355 L 174.12749003984 131.56 L 175.18924302789 136.62 L 176.25099601594 129.03 L 177.31274900398 117.645 L 178.37450199203 118.91 L 179.43625498008 122.705 L 180.49800796813 125.235 L 181.55976095618 115.115 L 182.62151394422 113.85 L 183.68326693227 122.705 L 184.74501992032 120.175 L 185.80677290837 118.91 L 186.86852589641 117.645 L 187.93027888446 117.645 L 188.99203187251 115.115 L 190.05378486056 108.79 L 191.11553784861 108.79 L 192.17729083665 106.26 L 193.2390438247 108.79 L 194.30079681275 108.79 L 195.3625498008 115.115 L 196.42430278884 116.38 L 197.48605577689 112.585 L 198.54780876494 116.38 L 199.60956175299 113.85 L 200.67131474104 118.91 L 201.73306772908 117.645 L 202.79482071713 116.38 L 203.85657370518 115.115 L 204.91832669323 106.26 L 205.98007968127 108.79 L 207.04183266932 115.115 L 208.10358565737 110.055 L 209.16533864542 118.91 L 210.22709163347 127.765 L 211.28884462151 129.03 L 212.35059760956 132.825 L 213.41235059761 136.62 L 214.47410358566 136.62 L 215.53585657371 151.8 L 216.59760956175 139.15 L 217.6593625498 131.56 L 218.72111553785 126.5 L 219.7828685259 121.44 L 220.84462151394 131.56 L 221.90637450199 130.295 L 222.96812749004 140.415 L 224.02988047809 129.03 L 225.09163346614 123.97 L 226.15338645418 121.44 L 227.21513944223 135.355 L 228.27689243028 125.235 L 229.33864541833 132.825 L 230.40039840637 137.885 L 231.46215139442 132.825 L 232.52390438247 132.825 L 233.58565737052 127.765 L 234.64741035857 130.295 L 235.70916334661 135.355 L 236.77091633466 139.15 L 237.83266932271 136.62 L 238.89442231076 136.62 L 239.9561752988 137.885 L 241.01792828685 137.885 L 242.0796812749 140.415 L 243.14143426295 141.68 L 244.203187251 146.74 L 245.26494023904 158.125 L 246.32669322709 150.535 L 247.38844621514 160.655 L 248.45019920319 150.535 L 249.51195219124 151.8 L 250.57370517928 155.595 L 251.63545816733 149.27 L 252.69721115538 150.535 L 253.75896414343 150.535 L 254.82071713147 151.8 L 255.88247011952 163.185 L 256.94422310757 161.92 L 258.00597609562 158.125 L 259.06772908367 163.185 L 260.12948207171 168.245 L 261.19123505976 165.715 L 262.25298804781 173.305 L 263.31474103586 165.715 L 264.3764940239 169.51 L 265.43824701195 170.775 L 266.5 170.775 L 267.56175298805 173.305 L 268.6235059761 169.51 L 269.68525896414 164.45 L 270.74701195219 168.245 L 271.80876494024 168.245 L 272.87051792829 168.245 L 273.93227091633 166.98 L 274.99402390438 172.04 L 276.05577689243 164.45 L 277.11752988048 164.45 L 278.17928286853 170.775 L 279.24103585657 164.45 L 280.30278884462 168.245 L 281.36454183267 175.835 L 282.42629482072 172.04 L 283.48804780876 165.715 L 284.54980079681 165.715 L 285.61155378486 158.125 L 286.67330677291 153.065 L 287.73505976096 149.27 L 288.796812749 155.595 L 289.85856573705 142.945 L 290.9203187251 142.945 L 291.98207171315 123.97 L 293.0438247012 137.885 L 294.10557768924 136.62 L 295.16733067729 144.21 L 296.22908366534 140.415 L 297.29083665339 140.415 L 298.35258964143 135.355 L 299.41434262948 130.295 L 300.47609561753 141.68 L 301.53784860558 146.74 L 302.59960159363 154.33 L 303.66135458167 160.655 L 304.72310756972 148.005 L 305.78486055777 154.33 L 306.84661354582 160.655 L 307.90836653386 151.8 L 308.97011952191 141.68 L 310.03187250996 145.475 L 311.09362549801 145.475 L 312.15537848606 149.27 L 313.2171314741 146.74 L 314.27888446215 154.33 L 315.3406374502 161.92 L 316.40239043825 154.33 L 317.46414342629 137.885 L 318.52589641434 140.415 L 319.58764940239 134.09 L 320.64940239044 139.15 L 321.71115537849 137.885 L 322.77290836653 127.765 L 323.83466135458 134.09 L 324.89641434263 140.415 L 325.95816733068 137.885 L 327.01992031873 135.355 L 328.08167330677 144.21 L 329.14342629482 156.86 L 330.20517928287 153.065 L 331.26693227092 146.74 L 332.32868525896 141.68 L 333.39043824701 149.27 L 334.45219123506 146.74 L 335.51394422311 144.21 L 336.57569721116 136.62 L 337.6374501992 131.56 L 338.69920318725 135.355 L 339.7609561753 131.56 L 340.82270916335 149.27 L 341.88446215139 137.885 L 342.94621513944 130.295 L 344.00796812749 130.295 L 345.06972111554 118.91 L 346.13147410359 121.44 L 347.19322709163 111.32 L 348.25498007968 111.32 L 349.31673306773 115.115 L 350.37848605578 99.935 L 351.44023904382 104.995 L 352.50199203187 106.26 L 353.56374501992 97.405 L 354.62549800797 101.2 L 355.68725099602 101.2 L 356.74900398406 99.935 L 357.81075697211 108.79 L 358.87250996016 120.175 L 359.93426294821 121.44 L 360.99601593625 130.295 L 362.0577689243 132.825 L 363.11952191235 145.475 L 364.1812749004 123.97 L 365.24302788845 139.15 L 366.30478087649 139.15 L 367.36653386454 142.945 L 368.42828685259 155.595 L 369.49003984064 159.39 L 370.55179282869 158.125 L 371.61354581673 159.39 L 372.67529880478 161.92 L 373.73705179283 164.45 L 374.79880478088 170.775 L 375.86055776892 163.185 L 376.92231075697 169.51 L 377.98406374502 159.39 L 379.04581673307 154.33 L 380.10756972112 154.33 L 381.16932270916 145.475 L 382.23107569721 140.415 L 383.29282868526 135.355 L 384.35458167331 139.15 L 385.41633466135 139.15 L 386.4780876494 148.005 L 387.53984063745 145.475 L 388.6015936255 144.21 L 389.66334661355 136.62 L 390.72509960159 142.945 L 391.78685258964 146.74 L 392.84860557769 142.945 L 393.91035856574 144.21 L 394.97211155378 140.415 L 396.03386454183 145.475 L 397.09561752988 146.74 L 398.15737051793 149.27 L 399.21912350598 146.74 L 400.28087649402 146.74 L 401.34262948207 146.74 L 402.40438247012 146.74 L 403.46613545817 145.475 L 404.52788844622 144.21 L 405.58964143426 142.945 L 406.65139442231 134.09 L 407.71314741036 123.97 L 408.77490039841 122.705 L 409.83665338645 116.38 L 410.8984063745 121.44 L 411.96015936255 113.85 L 413.0219123506 108.79 L 414.08366533865 107.525 L 415.14541832669 104.995 L 416.20717131474 106.26 L 417.26892430279 102.465 L 418.33067729084 112.585 L 419.39243027888 116.38 L 420.45418326693 110.055 L 421.51593625498 104.995 L 422.57768924303 108.79 L 423.63944223108 108.79 L 424.70119521912 106.26 L 425.76294820717 102.465 L 426.82470119522 93.61 L 427.88645418327 98.67 L 428.94820717131 108.79 L 430.00996015936 97.405 L 431.07171314741 99.935 L 432.13346613546 98.67 L 433.19521912351 101.2 L 434.25697211155 91.08 L 435.3187250996 80.96 L 436.38047808765 72.105 L 437.4422310757 75.9 L 438.50398406374 78.43 L 439.56573705179 79.695 L 440.62749003984 86.02 L 441.68924302789 82.225 L 442.75099601594 88.55 L 443.81274900398 92.345 L 444.87450199203 91.08 L 445.93625498008 97.405 L 446.99800796813 103.73 L 448.05976095618 107.525 L 449.12151394422 106.26 L 450.18326693227 107.525 L 451.24501992032 108.79 L 452.30677290837 106.26 L 453.36852589641 102.465 L 454.43027888446 84.755 L 455.49203187251 91.08 L 456.55378486056 87.285 L 457.61553784861 80.96 L 458.67729083665 84.755 L 459.7390438247 83.49 L 460.80079681275 77.165 L 461.8625498008 72.105 L 462.92430278884 72.105 L 463.98605577689 82.225 L 465.04780876494 87.285 L 466.10956175299 86.02 L 467.17131474104 89.815 L 468.23306772908 98.67 L 469.29482071713 96.14 L 470.35657370518 88.55 L 471.41832669323 80.96 L 472.48007968127 78.43 L 473.54183266932 74.635 L 474.60358565737 77.165 L 475.66533864542 78.43 L 476.72709163347 74.635 L 477.78884462151 70.84 L 478.85059760956 64.515 L 479.91235059761 74.635 L 480.97410358566 70.84 L 482.03585657371 78.43 L 483.09760956175 74.635 L 484.1593625498 79.695 L 485.22111553785 83.49 L 486.2828685259 91.08 L 487.34462151394 97.405 L 488.40637450199 102.465 L 489.46812749004 91.08 L 490.52988047809 94.875 L 491.59163346614 80.96 L 492.65338645418 94.875 L 493.71513944223 88.55 L 494.77689243028 84.755 L 495.83864541833 84.755 L 496.90039840637 84.755 L 497.96215139442 94.875 L 499.02390438247 99.935 L 500.08565737052 86.02 L 501.14741035857 88.55 L 502.20916334661 93.61 L 503.27091633466 99.935 L 504.33266932271 103.73 L 505.39442231076 111.32 L 506.4561752988 117.645 L 507.51792828685 130.295 L 508.5796812749 134.09 L 509.64143426295 127.765 L 510.703187251 122.705 L 511.76494023904 126.5 L 512.82669322709 126.5 L 513.88844621514 126.5 L 514.95019920319 129.03 L 516.01195219123 131.56 L 517.07370517928 135.355 L 518.13545816733 122.705 L 519.19721115538 127.765 L 520.25896414343 127.765 L 521.32071713147 118.91 L 522.38247011952 122.705 L 523.44422310757 125.235 L 524.50597609562 130.295 L 525.56772908367 129.03 L 526.62948207171 129.03 L 527.69123505976 129.03 L 528.75298804781 121.44 L 529.81474103586 121.44 L 530.8764940239 122.705 L 533 135.355" class="highcharts-graph" data-z-index="1" stroke="gray" stroke-width="2" stroke-dasharray="8,6" filter="none" aria-hidden="false" role="region" tabindex="-1" style="outline: none;" aria-label="Mid price, line 4 of 7 with 500 data points."></path></g><g class="highcharts-markers highcharts-series-3 highcharts-line-series" data-z-index="0.1" opacity="1" transform="translate(57,42) scale(1 1)" clip-path="none" aria-hidden="true"></g><g class="highcharts-series highcharts-series-4 highcharts-line-series" data-z-index="0.1" opacity="1" transform="translate(57,42) scale(1 1)" clip-path="url(#highcharts-w4803tj-89191-)" aria-hidden="false"><path fill="none" d="M 0 134.09 L 2.1235059760956 139.15 L 4.2470119521912 146.74 L 5.308764940239 149.27 L 6.3705179282869 149.27 L 7.4322709163347 149.27 L 8.4940239043825 151.8 L 9.5557768924303 156.86 L 10.617529880478 154.33 L 11.679282868526 154.33 L 12.741035856574 149.27 L 13.802788844622 151.8 L 14.864541832669 149.27 L 15.926294820717 141.68 L 16.988047808765 151.8 L 18.049800796813 141.68 L 19.111553784861 139.15 L 20.173306772908 139.15 L 21.235059760956 136.62 L 22.296812749004 139.15 L 23.358565737052 146.74 L 24.4203187251 141.68 L 25.482071713147 136.62 L 26.543824701195 131.56 L 27.605577689243 126.5 L 28.667330677291 123.97 L 29.729083665339 123.97 L 30.790836653386 134.09 L 31.852589641434 134.09 L 32.914342629482 131.56 L 33.97609561753 123.97 L 35.037848605578 121.44 L 36.099601593625 108.79 L 37.161354581673 103.73 L 38.223107569721 101.2 L 39.284860557769 101.2 L 40.346613545817 101.2 L 41.408366533865 96.14 L 42.470119521912 98.67 L 43.53187250996 96.14 L 44.593625498008 98.67 L 45.655378486056 93.61 L 46.717131474104 78.43 L 47.778884462151 80.96 L 48.840637450199 80.96 L 49.902390438247 83.49 L 50.964143426295 86.02 L 52.025896414343 96.14 L 53.08764940239 96.14 L 54.149402390438 91.08 L 55.211155378486 91.08 L 56.272908366534 86.02 L 57.334661354582 86.02 L 58.396414342629 91.08 L 59.458167330677 86.02 L 60.519920318725 88.55 L 61.581673306773 91.08 L 62.643426294821 80.96 L 63.705179282869 88.55 L 64.766932270916 91.08 L 65.828685258964 93.61 L 66.890438247012 80.96 L 67.95219123506 88.55 L 69.013944223108 86.02 L 70.075697211155 93.61 L 71.137450199203 96.14 L 72.199203187251 106.26 L 73.260956175299 111.32 L 74.322709163347 113.85 L 75.384462151394 113.85 L 76.446215139442 116.38 L 77.50796812749 118.91 L 78.569721115538 118.91 L 79.631474103586 131.56 L 80.693227091633 131.56 L 81.754980079681 129.03 L 82.816733067729 134.09 L 83.878486055777 131.56 L 84.940239043825 134.09 L 86.001992031873 139.15 L 87.06374501992 141.68 L 88.125498007968 146.74 L 89.187250996016 146.74 L 90.249003984064 139.15 L 91.310756972112 141.68 L 92.372509960159 134.09 L 93.434262948207 139.15 L 94.496015936255 139.15 L 95.557768924303 149.27 L 96.619521912351 149.27 L 97.681274900398 149.27 L 98.743027888446 151.8 L 99.804780876494 154.33 L 100.86653386454 156.86 L 101.92828685259 146.74 L 102.99003984064 146.74 L 104.05179282869 141.68 L 105.11354581673 141.68 L 106.17529880478 144.21 L 107.23705179283 136.62 L 108.29880478088 144.21 L 109.36055776892 134.09 L 110.42231075697 134.09 L 111.48406374502 129.03 L 112.54581673307 123.97 L 113.60756972112 146.74 L 114.66932270916 129.03 L 115.73107569721 131.56 L 116.79282868526 136.62 L 117.85458167331 139.15 L 118.91633466135 139.15 L 119.9780876494 156.86 L 121.03984063745 141.68 L 122.1015936255 139.15 L 123.16334661355 144.21 L 124.22509960159 146.74 L 125.28685258964 144.21 L 126.34860557769 144.21 L 127.41035856574 139.15 L 128.47211155378 161.92 L 129.53386454183 149.27 L 130.59561752988 149.27 L 131.65737051793 151.8 L 132.71912350598 139.15 L 133.78087649402 136.62 L 134.84262948207 136.62 L 135.90438247012 144.21 L 136.96613545817 146.74 L 138.02788844622 139.15 L 139.08964143426 146.74 L 140.15139442231 146.74 L 141.21314741036 146.74 L 142.27490039841 139.15 L 143.33665338645 141.68 L 144.3984063745 144.21 L 145.46015936255 139.15 L 146.5219123506 134.09 L 147.58366533865 123.97 L 148.64541832669 118.91 L 149.70717131474 131.56 L 150.76892430279 111.32 L 151.83067729084 108.79 L 152.89243027888 113.85 L 153.95418326693 126.5 L 155.01593625498 123.97 L 156.07768924303 129.03 L 157.13944223108 129.03 L 158.20119521912 129.03 L 159.26294820717 123.97 L 160.32470119522 131.56 L 161.38645418327 126.5 L 162.44820717131 136.62 L 163.50996015936 129.03 L 164.57171314741 123.97 L 165.63346613546 123.97 L 166.69521912351 123.97 L 167.75697211155 129.03 L 168.8187250996 131.56 L 169.88047808765 129.03 L 170.9422310757 129.03 L 172.00398406375 121.44 L 173.06573705179 118.91 L 174.12749003984 113.85 L 175.18924302789 118.91 L 176.25099601594 111.32 L 177.31274900398 101.2 L 178.37450199203 101.2 L 179.43625498008 116.38 L 180.49800796813 116.38 L 181.55976095618 98.67 L 182.62151394422 96.14 L 183.68326693227 106.26 L 184.74501992032 103.73 L 185.80677290837 101.2 L 186.86852589641 101.2 L 187.93027888446 101.2 L 188.99203187251 98.67 L 190.05378486056 91.08 L 191.11553784861 91.08 L 192.17729083665 88.55 L 193.2390438247 91.08 L 194.30079681275 91.08 L 195.3625498008 98.67 L 196.42430278884 98.67 L 197.48605577689 96.14 L 198.54780876494 98.67 L 199.60956175299 96.14 L 200.67131474104 101.2 L 201.73306772908 101.2 L 202.79482071713 98.67 L 203.85657370518 98.67 L 204.91832669323 88.55 L 205.98007968127 91.08 L 207.04183266932 98.67 L 208.10358565737 93.61 L 209.16533864542 101.2 L 210.22709163347 111.32 L 211.28884462151 111.32 L 212.35059760956 116.38 L 213.41235059761 118.91 L 214.47410358566 118.91 L 215.53585657371 134.09 L 216.59760956175 121.44 L 217.6593625498 113.85 L 218.72111553785 108.79 L 219.7828685259 113.85 L 220.84462151394 113.85 L 221.90637450199 113.85 L 222.96812749004 123.97 L 224.02988047809 111.32 L 225.09163346614 106.26 L 226.15338645418 103.73 L 227.21513944223 129.03 L 228.27689243028 108.79 L 229.33864541833 116.38 L 230.40039840637 129.03 L 231.46215139442 116.38 L 232.52390438247 116.38 L 233.58565737052 111.32 L 234.64741035857 113.85 L 235.70916334661 118.91 L 236.77091633466 121.44 L 237.83266932271 126.5 L 238.89442231076 118.91 L 239.9561752988 121.44 L 241.01792828685 121.44 L 242.0796812749 123.97 L 243.14143426295 123.97 L 244.203187251 129.03 L 245.26494023904 149.27 L 246.32669322709 134.09 L 247.38844621514 154.33 L 248.45019920319 134.09 L 249.51195219124 134.09 L 250.57370517928 139.15 L 251.63545816733 139.15 L 252.69721115538 134.09 L 253.75896414343 134.09 L 254.82071713147 134.09 L 255.88247011952 146.74 L 256.94422310757 144.21 L 258.00597609562 141.68 L 259.06772908367 146.74 L 260.12948207171 151.8 L 261.19123505976 149.27 L 262.25298804781 156.86 L 263.31474103586 149.27 L 264.3764940239 151.8 L 265.43824701195 154.33 L 266.5 154.33 L 267.56175298805 166.98 L 268.6235059761 151.8 L 269.68525896414 154.33 L 270.74701195219 151.8 L 271.80876494024 151.8 L 272.87051792829 151.8 L 273.93227091633 149.27 L 274.99402390438 154.33 L 276.05577689243 146.74 L 277.11752988048 146.74 L 278.17928286853 154.33 L 279.24103585657 146.74 L 280.30278884462 151.8 L 281.36454183267 159.39 L 282.42629482072 154.33 L 283.48804780876 149.27 L 284.54980079681 149.27 L 285.61155378486 141.68 L 286.67330677291 136.62 L 287.73505976096 131.56 L 288.796812749 149.27 L 289.85856573705 126.5 L 290.9203187251 126.5 L 291.98207171315 116.38 L 293.0438247012 121.44 L 294.10557768924 118.91 L 295.16733067729 126.5 L 296.22908366534 123.97 L 297.29083665339 123.97 L 298.35258964143 118.91 L 299.41434262948 113.85 L 300.47609561753 123.97 L 301.53784860558 129.03 L 302.59960159363 136.62 L 303.66135458167 144.21 L 304.72310756972 136.62 L 305.78486055777 136.62 L 306.84661354582 144.21 L 307.90836653386 134.09 L 308.97011952191 123.97 L 310.03187250996 129.03 L 311.09362549801 129.03 L 312.15537848606 131.56 L 313.2171314741 129.03 L 314.27888446215 136.62 L 315.3406374502 144.21 L 316.40239043825 136.62 L 317.46414342629 121.44 L 318.52589641434 123.97 L 319.58764940239 116.38 L 320.64940239044 121.44 L 321.71115537849 121.44 L 322.77290836653 111.32 L 323.83466135458 116.38 L 324.89641434263 123.97 L 325.95816733068 121.44 L 327.01992031873 118.91 L 328.08167330677 126.5 L 329.14342629482 139.15 L 330.20517928287 136.62 L 331.26693227092 129.03 L 332.32868525896 123.97 L 333.39043824701 131.56 L 334.45219123506 129.03 L 335.51394422311 126.5 L 336.57569721116 118.91 L 337.6374501992 113.85 L 338.69920318725 118.91 L 339.7609561753 113.85 L 340.82270916335 141.68 L 341.88446215139 121.44 L 342.94621513944 113.85 L 344.00796812749 113.85 L 345.06972111554 101.2 L 346.13147410359 103.73 L 347.19322709163 93.61 L 348.25498007968 93.61 L 349.31673306773 106.26 L 350.37848605578 83.49 L 351.44023904382 88.55 L 352.50199203187 88.55 L 353.56374501992 86.02 L 354.62549800797 83.49 L 355.68725099602 83.49 L 356.74900398406 83.49 L 357.81075697211 91.08 L 358.87250996016 103.73 L 359.93426294821 103.73 L 360.99601593625 113.85 L 362.0577689243 116.38 L 363.11952191235 136.62 L 364.1812749004 116.38 L 365.24302788845 121.44 L 366.30478087649 121.44 L 367.36653386454 126.5 L 368.42828685259 139.15 L 369.49003984064 141.68 L 370.55179282869 141.68 L 371.61354581673 141.68 L 372.67529880478 144.21 L 373.73705179283 146.74 L 374.79880478088 154.33 L 375.86055776892 146.74 L 376.92231075697 151.8 L 377.98406374502 141.68 L 379.04581673307 136.62 L 380.10756972112 136.62 L 381.16932270916 129.03 L 382.23107569721 123.97 L 383.29282868526 118.91 L 384.35458167331 121.44 L 385.41633466135 121.44 L 386.4780876494 131.56 L 387.53984063745 129.03 L 388.6015936255 126.5 L 389.66334661355 118.91 L 390.72509960159 126.5 L 391.78685258964 129.03 L 392.84860557769 126.5 L 393.91035856574 126.5 L 394.97211155378 123.97 L 396.03386454183 129.03 L 397.09561752988 129.03 L 398.15737051793 131.56 L 399.21912350598 129.03 L 400.28087649402 129.03 L 401.34262948207 129.03 L 402.40438247012 129.03 L 403.46613545817 129.03 L 404.52788844622 126.5 L 405.58964143426 126.5 L 406.65139442231 116.38 L 407.71314741036 106.26 L 408.77490039841 106.26 L 409.83665338645 98.67 L 410.8984063745 103.73 L 411.96015936255 96.14 L 413.0219123506 91.08 L 414.08366533865 91.08 L 415.14541832669 88.55 L 416.20717131474 88.55 L 417.26892430279 86.02 L 418.33067729084 96.14 L 419.39243027888 98.67 L 420.45418326693 93.61 L 421.51593625498 88.55 L 422.57768924303 91.08 L 423.63944223108 91.08 L 424.70119521912 88.55 L 425.76294820717 86.02 L 426.82470119522 83.49 L 427.88645418327 80.96 L 428.94820717131 91.08 L 430.00996015936 80.96 L 431.07171314741 83.49 L 432.13346613546 80.96 L 433.19521912351 83.49 L 434.25697211155 73.37 L 435.3187250996 63.25 L 436.38047808765 55.66 L 437.4422310757 58.19 L 438.50398406374 60.72 L 439.56573705179 63.25 L 440.62749003984 68.31 L 441.68924302789 65.78 L 442.75099601594 70.84 L 443.81274900398 75.9 L 444.87450199203 73.37 L 445.93625498008 80.96 L 446.99800796813 86.02 L 448.05976095618 91.08 L 449.12151394422 88.55 L 450.18326693227 91.08 L 451.24501992032 91.08 L 452.30677290837 88.55 L 453.36852589641 86.02 L 454.43027888446 73.37 L 455.49203187251 73.37 L 456.55378486056 70.84 L 457.61553784861 70.84 L 458.67729083665 68.31 L 459.7390438247 65.78 L 460.80079681275 60.72 L 461.8625498008 55.66 L 462.92430278884 55.66 L 463.98605577689 65.78 L 465.04780876494 70.84 L 466.10956175299 68.31 L 467.17131474104 73.37 L 468.23306772908 80.96 L 469.29482071713 78.43 L 470.35657370518 70.84 L 471.41832669323 63.25 L 472.48007968127 60.72 L 473.54183266932 58.19 L 474.60358565737 60.72 L 475.66533864542 60.72 L 476.72709163347 58.19 L 477.78884462151 53.13 L 478.85059760956 48.07 L 479.91235059761 58.19 L 480.97410358566 53.13 L 482.03585657371 60.72 L 483.09760956175 58.19 L 484.1593625498 63.25 L 485.22111553785 65.78 L 486.2828685259 73.37 L 487.34462151394 80.96 L 488.40637450199 86.02 L 489.46812749004 80.96 L 490.52988047809 78.43 L 491.59163346614 70.84 L 492.65338645418 78.43 L 493.71513944223 70.84 L 494.77689243028 68.31 L 495.83864541833 68.31 L 496.90039840637 68.31 L 497.96215139442 78.43 L 499.02390438247 91.08 L 500.08565737052 68.31 L 501.14741035857 70.84 L 502.20916334661 75.9 L 503.27091633466 83.49 L 504.33266932271 86.02 L 505.39442231076 93.61 L 506.4561752988 101.2 L 507.51792828685 113.85 L 508.5796812749 123.97 L 509.64143426295 111.32 L 510.703187251 106.26 L 511.76494023904 108.79 L 512.82669322709 108.79 L 513.88844621514 108.79 L 514.95019920319 111.32 L 516.01195219123 113.85 L 517.07370517928 129.03 L 518.13545816733 106.26 L 519.19721115538 111.32 L 520.25896414343 111.32 L 521.32071713147 101.2 L 522.38247011952 106.26 L 523.44422310757 108.79 L 524.50597609562 113.85 L 525.56772908367 111.32 L 526.62948207171 111.32 L 527.69123505976 111.32 L 528.75298804781 103.73 L 529.81474103586 103.73 L 530.8764940239 106.26 L 533 118.91" class="highcharts-graph" data-z-index="1" stroke="rgb(192, 57, 43)" stroke-opacity=" 1" stroke-width="2" stroke-linejoin="round" stroke-linecap="round" filter="none" aria-hidden="false" role="region" tabindex="-1" style="outline: none;" aria-label="Ask 1, line 5 of 7 with 500 data points."></path></g><g class="highcharts-markers highcharts-series-4 highcharts-line-series" data-z-index="0.1" opacity="1" transform="translate(57,42) scale(1 1)" clip-path="none" aria-hidden="true"></g><g class="highcharts-series highcharts-series-5 highcharts-line-series" data-z-index="0.1" opacity="1" transform="translate(57,42) scale(1 1)" clip-path="url(#highcharts-w4803tj-89191-)" aria-hidden="false"><path fill="none" d="M 0 131.56 L 2.1235059760956 136.62 L 4.2470119521912 141.68 L 5.308764940239 146.74 L 6.3705179282869 146.74 L 7.4322709163347 146.74 L 8.4940239043825 149.27 L 9.5557768924303 151.8 L 10.617529880478 151.8 L 11.679282868526 151.8 L 12.741035856574 146.74 L 13.802788844622 149.27 L 14.864541832669 146.74 L 15.926294820717 139.15 L 16.988047808765 146.74 L 18.049800796813 139.15 L 19.111553784861 136.62 L 20.173306772908 136.62 L 21.235059760956 134.09 L 22.296812749004 136.62 L 23.358565737052 144.21 L 24.4203187251 139.15 L 25.482071713147 134.09 L 26.543824701195 129.03 L 27.605577689243 123.97 L 28.667330677291 118.91 L 29.729083665339 121.44 L 30.790836653386 129.03 L 31.852589641434 131.56 L 32.914342629482 129.03 L 33.97609561753 118.91 L 35.037848605578 118.91 L 36.099601593625 106.26 L 37.161354581673 101.2 L 38.223107569721 96.14 L 39.284860557769 98.67 L 40.346613545817 96.14 L 41.408366533865 93.61 L 42.470119521912 96.14 L 43.53187250996 91.08 L 44.593625498008 96.14 L 45.655378486056 88.55 L 46.717131474104 75.9 L 47.778884462151 78.43 L 48.840637450199 75.9 L 49.902390438247 78.43 L 50.964143426295 83.49 L 52.025896414343 93.61 L 53.08764940239 93.61 L 54.149402390438 88.55 L 55.211155378486 86.02 L 56.272908366534 83.49 L 57.334661354582 83.49 L 58.396414342629 86.02 L 59.458167330677 83.49 L 60.519920318725 83.49 L 61.581673306773 88.55 L 62.643426294821 78.43 L 63.705179282869 83.49 L 64.766932270916 88.55 L 65.828685258964 91.08 L 66.890438247012 78.43 L 67.95219123506 86.02 L 69.013944223108 80.96 L 70.075697211155 88.55 L 71.137450199203 93.61 L 72.199203187251 101.2 L 73.260956175299 108.79 L 74.322709163347 108.79 L 75.384462151394 108.79 L 76.446215139442 113.85 L 77.50796812749 116.38 L 78.569721115538 116.38 L 79.631474103586 129.03 L 80.693227091633 126.5 L 81.754980079681 126.5 L 82.816733067729 129.03 L 83.878486055777 129.03 L 84.940239043825 129.03 L 86.001992031873 136.62 L 87.06374501992 136.62 L 88.125498007968 141.68 L 89.187250996016 144.21 L 90.249003984064 134.09 L 91.310756972112 139.15 L 92.372509960159 131.56 L 93.434262948207 136.62 L 94.496015936255 136.62 L 95.557768924303 146.74 L 96.619521912351 146.74 L 97.681274900398 146.74 L 98.743027888446 146.74 L 99.804780876494 151.8 L 100.86653386454 151.8 L 101.92828685259 141.68 L 102.99003984064 144.21 L 104.05179282869 139.15 L 105.11354581673 139.15 L 106.17529880478 141.68 L 107.23705179283 134.09 L 108.29880478088 141.68 L 109.36055776892 131.56 L 110.42231075697 131.56 L 111.48406374502 126.5 L 112.54581673307 121.44 L 113.60756972112 131.56 L 114.66932270916 126.5 L 115.73107569721 129.03 L 116.79282868526 134.09 L 117.85458167331 134.09 L 118.91633466135 136.62 L 119.9780876494 136.62 L 121.03984063745 139.15 L 122.1015936255 136.62 L 123.16334661355 141.68 L 124.22509960159 144.21 L 125.28685258964 141.68 L 126.34860557769 141.68 L 127.41035856574 134.09 L 128.47211155378 141.68 L 129.53386454183 144.21 L 130.59561752988 146.74 L 131.65737051793 146.74 L 132.71912350598 136.62 L 133.78087649402 134.09 L 134.84262948207 131.56 L 135.90438247012 141.68 L 136.96613545817 144.21 L 138.02788844622 136.62 L 139.08964143426 144.21 L 140.15139442231 144.21 L 141.21314741036 144.21 L 142.27490039841 136.62 L 143.33665338645 139.15 L 144.3984063745 141.68 L 145.46015936255 136.62 L 146.5219123506 131.56 L 147.58366533865 121.44 L 148.64541832669 113.85 L 149.70717131474 116.38 L 150.76892430279 108.79 L 151.83067729084 106.26 L 152.89243027888 111.32 L 153.95418326693 108.79 L 155.01593625498 118.91 L 156.07768924303 126.5 L 157.13944223108 126.5 L 158.20119521912 126.5 L 159.26294820717 121.44 L 160.32470119522 129.03 L 161.38645418327 123.97 L 162.44820717131 131.56 L 163.50996015936 126.5 L 164.57171314741 121.44 L 165.63346613546 121.44 L 166.69521912351 121.44 L 167.75697211155 126.5 L 168.8187250996 129.03 L 169.88047808765 123.97 L 170.9422310757 126.5 L 172.00398406375 116.38 L 173.06573705179 116.38 L 174.12749003984 111.32 L 175.18924302789 116.38 L 176.25099601594 108.79 L 177.31274900398 96.14 L 178.37450199203 98.67 L 179.43625498008 96.14 L 180.49800796813 98.67 L 181.55976095618 96.14 L 182.62151394422 93.61 L 183.68326693227 101.2 L 184.74501992032 101.2 L 185.80677290837 98.67 L 186.86852589641 98.67 L 187.93027888446 96.14 L 188.99203187251 93.61 L 190.05378486056 88.55 L 191.11553784861 88.55 L 192.17729083665 86.02 L 193.2390438247 88.55 L 194.30079681275 88.55 L 195.3625498008 93.61 L 196.42430278884 96.14 L 197.48605577689 93.61 L 198.54780876494 96.14 L 199.60956175299 93.61 L 200.67131474104 98.67 L 201.73306772908 98.67 L 202.79482071713 96.14 L 203.85657370518 96.14 L 204.91832669323 86.02 L 205.98007968127 88.55 L 207.04183266932 96.14 L 208.10358565737 88.55 L 209.16533864542 98.67 L 210.22709163347 108.79 L 211.28884462151 108.79 L 212.35059760956 113.85 L 213.41235059761 116.38 L 214.47410358566 116.38 L 215.53585657371 131.56 L 216.59760956175 118.91 L 217.6593625498 111.32 L 218.72111553785 106.26 L 219.7828685259 111.32 L 220.84462151394 111.32 L 221.90637450199 111.32 L 222.96812749004 121.44 L 224.02988047809 108.79 L 225.09163346614 103.73 L 226.15338645418 101.2 L 227.21513944223 108.79 L 228.27689243028 103.73 L 229.33864541833 113.85 L 230.40039840637 113.85 L 231.46215139442 113.85 L 232.52390438247 113.85 L 233.58565737052 106.26 L 234.64741035857 111.32 L 235.70916334661 113.85 L 236.77091633466 118.91 L 237.83266932271 123.97 L 238.89442231076 116.38 L 239.9561752988 118.91 L 241.01792828685 116.38 L 242.0796812749 121.44 L 243.14143426295 121.44 L 244.203187251 126.5 L 245.26494023904 134.09 L 246.32669322709 131.56 L 247.38844621514 131.56 L 248.45019920319 129.03 L 249.51195219124 131.56 L 250.57370517928 136.62 L 251.63545816733 136.62 L 252.69721115538 129.03 L 253.75896414343 131.56 L 254.82071713147 131.56 L 255.88247011952 141.68 L 256.94422310757 141.68 L 258.00597609562 139.15 L 259.06772908367 141.68 L 260.12948207171 149.27 L 261.19123505976 146.74 L 262.25298804781 151.8 L 263.31474103586 144.21 L 264.3764940239 149.27 L 265.43824701195 149.27 L 266.5 149.27 L 267.56175298805 146.74 L 268.6235059761 149.27 L 269.68525896414 151.8 L 270.74701195219 149.27 L 271.80876494024 146.74 L 272.87051792829 149.27 L 273.93227091633 146.74 L 274.99402390438 151.8 L 276.05577689243 144.21 L 277.11752988048 144.21 L 278.17928286853 151.8 L 279.24103585657 144.21 L 280.30278884462 146.74 L 281.36454183267 156.86 L 282.42629482072 151.8 L 283.48804780876 144.21 L 284.54980079681 146.74 L 285.61155378486 139.15 L 286.67330677291 131.56 L 287.73505976096 129.03 L 288.796812749 129.03 L 289.85856573705 123.97 L 290.9203187251 121.44 L 291.98207171315 111.32 L 293.0438247012 118.91 L 294.10557768924 116.38 L 295.16733067729 123.97 L 296.22908366534 118.91 L 297.29083665339 118.91 L 298.35258964143 116.38 L 299.41434262948 108.79 L 300.47609561753 121.44 L 301.53784860558 126.5 L 302.59960159363 134.09 L 303.66135458167 139.15 L 304.72310756972 134.09 L 305.78486055777 134.09 L 306.84661354582 141.68 L 307.90836653386 131.56 L 308.97011952191 121.44 L 310.03187250996 126.5 L 311.09362549801 126.5 L 312.15537848606 129.03 L 313.2171314741 126.5 L 314.27888446215 134.09 L 315.3406374502 141.68 L 316.40239043825 134.09 L 317.46414342629 118.91 L 318.52589641434 121.44 L 319.58764940239 113.85 L 320.64940239044 118.91 L 321.71115537849 116.38 L 322.77290836653 106.26 L 323.83466135458 113.85 L 324.89641434263 121.44 L 325.95816733068 116.38 L 327.01992031873 113.85 L 328.08167330677 123.97 L 329.14342629482 136.62 L 330.20517928287 134.09 L 331.26693227092 126.5 L 332.32868525896 121.44 L 333.39043824701 129.03 L 334.45219123506 126.5 L 335.51394422311 123.97 L 336.57569721116 116.38 L 337.6374501992 111.32 L 338.69920318725 116.38 L 339.7609561753 111.32 L 340.82270916335 121.44 L 341.88446215139 116.38 L 342.94621513944 111.32 L 344.00796812749 108.79 L 345.06972111554 98.67 L 346.13147410359 101.2 L 347.19322709163 91.08 L 348.25498007968 91.08 L 349.31673306773 88.55 L 350.37848605578 80.96 L 351.44023904382 86.02 L 352.50199203187 86.02 L 353.56374501992 83.49 L 354.62549800797 80.96 L 355.68725099602 80.96 L 356.74900398406 78.43 L 357.81075697211 88.55 L 358.87250996016 98.67 L 359.93426294821 101.2 L 360.99601593625 108.79 L 362.0577689243 111.32 L 363.11952191235 121.44 L 364.1812749004 113.85 L 365.24302788845 118.91 L 366.30478087649 118.91 L 367.36653386454 123.97 L 368.42828685259 136.62 L 369.49003984064 139.15 L 370.55179282869 136.62 L 371.61354581673 139.15 L 372.67529880478 141.68 L 373.73705179283 144.21 L 374.79880478088 151.8 L 375.86055776892 144.21 L 376.92231075697 149.27 L 377.98406374502 139.15 L 379.04581673307 134.09 L 380.10756972112 134.09 L 381.16932270916 126.5 L 382.23107569721 121.44 L 383.29282868526 116.38 L 384.35458167331 118.91 L 385.41633466135 118.91 L 386.4780876494 129.03 L 387.53984063745 126.5 L 388.6015936255 123.97 L 389.66334661355 116.38 L 390.72509960159 121.44 L 391.78685258964 126.5 L 392.84860557769 123.97 L 393.91035856574 123.97 L 394.97211155378 121.44 L 396.03386454183 123.97 L 397.09561752988 126.5 L 398.15737051793 129.03 L 399.21912350598 126.5 L 400.28087649402 126.5 L 401.34262948207 126.5 L 402.40438247012 126.5 L 403.46613545817 126.5 L 404.52788844622 123.97 L 405.58964143426 121.44 L 406.65139442231 113.85 L 407.71314741036 103.73 L 408.77490039841 101.2 L 409.83665338645 96.14 L 410.8984063745 101.2 L 411.96015936255 93.61 L 413.0219123506 88.55 L 414.08366533865 88.55 L 415.14541832669 83.49 L 416.20717131474 86.02 L 417.26892430279 83.49 L 418.33067729084 91.08 L 419.39243027888 96.14 L 420.45418326693 88.55 L 421.51593625498 86.02 L 422.57768924303 88.55 L 423.63944223108 88.55 L 424.70119521912 86.02 L 425.76294820717 83.49 L 426.82470119522 80.96 L 427.88645418327 78.43 L 428.94820717131 88.55 L 430.00996015936 78.43 L 431.07171314741 78.43 L 432.13346613546 78.43 L 433.19521912351 80.96 L 434.25697211155 70.84 L 435.3187250996 60.72 L 436.38047808765 53.13 L 437.4422310757 55.66 L 438.50398406374 58.19 L 439.56573705179 60.72 L 440.62749003984 65.78 L 441.68924302789 60.72 L 442.75099601594 68.31 L 443.81274900398 70.84 L 444.87450199203 70.84 L 445.93625498008 75.9 L 446.99800796813 83.49 L 448.05976095618 88.55 L 449.12151394422 86.02 L 450.18326693227 86.02 L 451.24501992032 88.55 L 452.30677290837 86.02 L 453.36852589641 80.96 L 454.43027888446 70.84 L 455.49203187251 70.84 L 456.55378486056 65.78 L 457.61553784861 68.31 L 458.67729083665 63.25 L 459.7390438247 63.25 L 460.80079681275 55.66 L 461.8625498008 50.6 L 462.92430278884 50.6 L 463.98605577689 63.25 L 465.04780876494 68.31 L 466.10956175299 65.78 L 467.17131474104 68.31 L 468.23306772908 78.43 L 469.29482071713 75.9 L 470.35657370518 68.31 L 471.41832669323 60.72 L 472.48007968127 58.19 L 473.54183266932 55.66 L 474.60358565737 55.66 L 475.66533864542 58.19 L 476.72709163347 53.13 L 477.78884462151 50.6 L 478.85059760956 43.01 L 479.91235059761 53.13 L 480.97410358566 50.6 L 482.03585657371 58.19 L 483.09760956175 53.13 L 484.1593625498 58.19 L 485.22111553785 63.25 L 486.2828685259 70.84 L 487.34462151394 75.9 L 488.40637450199 80.96 L 489.46812749004 78.43 L 490.52988047809 75.9 L 491.59163346614 65.78 L 492.65338645418 73.37 L 493.71513944223 68.31 L 494.77689243028 63.25 L 495.83864541833 65.78 L 496.90039840637 63.25 L 497.96215139442 75.9 L 499.02390438247 73.37 L 500.08565737052 65.78 L 501.14741035857 68.31 L 502.20916334661 73.37 L 503.27091633466 78.43 L 504.33266932271 83.49 L 505.39442231076 91.08 L 506.4561752988 98.67 L 507.51792828685 111.32 L 508.5796812749 108.79 L 509.64143426295 108.79 L 510.703187251 101.2 L 511.76494023904 106.26 L 512.82669322709 106.26 L 513.88844621514 106.26 L 514.95019920319 108.79 L 516.01195219123 111.32 L 517.07370517928 108.79 L 518.13545816733 101.2 L 519.19721115538 106.26 L 520.25896414343 106.26 L 521.32071713147 98.67 L 522.38247011952 101.2 L 523.44422310757 106.26 L 524.50597609562 111.32 L 525.56772908367 108.79 L 526.62948207171 108.79 L 527.69123505976 108.79 L 528.75298804781 101.2 L 529.81474103586 101.2 L 530.8764940239 103.73 L 533 113.85" class="highcharts-graph" data-z-index="1" stroke="rgb(192, 57, 43)" stroke-opacity=" 0.75" stroke-width="2" stroke-linejoin="round" stroke-linecap="round" filter="none" aria-hidden="false" role="region" tabindex="-1" style="outline: none;" aria-label="Ask 2, line 6 of 7 with 500 data points."></path></g><g class="highcharts-markers highcharts-series-5 highcharts-line-series" data-z-index="0.1" opacity="1" transform="translate(57,42) scale(1 1)" clip-path="none" aria-hidden="true"></g><g class="highcharts-series highcharts-series-6 highcharts-line-series" data-z-index="0.1" opacity="1" transform="translate(57,42) scale(1 1)" clip-path="url(#highcharts-w4803tj-89191-)" aria-hidden="false"><path fill="none" d="M 3.1852589641434 144.21 L 5.308764940239 146.74 L 10.617529880478 151.8 L 13.802788844622 144.21 L 15.926294820717 144.21 L 16.988047808765 146.74 L 18.049800796813 139.15 L 19.111553784861 139.15 L 20.173306772908 134.09 L 23.358565737052 144.21 L 26.543824701195 126.5 L 29.729083665339 129.03 L 30.790836653386 129.03 L 32.914342629482 118.91 L 35.037848605578 116.38 L 37.161354581673 101.2 L 39.284860557769 96.14 L 42.470119521912 96.14 L 44.593625498008 93.61 L 48.840637450199 83.49 L 49.902390438247 80.96 L 54.149402390438 88.55 L 56.272908366534 83.49 L 57.334661354582 86.02 L 59.458167330677 83.49 L 60.519920318725 86.02 L 63.705179282869 88.55 L 64.766932270916 86.02 L 65.828685258964 88.55 L 66.890438247012 75.9 L 69.013944223108 88.55 L 71.137450199203 91.08 L 73.260956175299 106.26 L 74.322709163347 106.26 L 76.446215139442 118.91 L 77.50796812749 113.85 L 79.631474103586 126.5 L 80.693227091633 123.97 L 82.816733067729 126.5 L 87.06374501992 141.68 L 88.125498007968 146.74 L 91.310756972112 131.56 L 94.496015936255 139.15 L 95.557768924303 146.74 L 97.681274900398 149.27 L 98.743027888446 146.74 L 99.804780876494 151.8 L 104.05179282869 136.62 L 105.11354581673 139.15 L 107.23705179283 134.09 L 108.29880478088 139.15 L 111.48406374502 126.5 L 112.54581673307 121.44 L 113.60756972112 129.03 L 114.66932270916 123.97 L 115.73107569721 126.5 L 116.79282868526 136.62 L 118.91633466135 136.62 L 119.9780876494 131.56 L 121.03984063745 136.62 L 122.1015936255 139.15 L 126.34860557769 134.09 L 127.41035856574 136.62 L 128.47211155378 139.15 L 129.53386454183 151.8 L 131.65737051793 141.68 L 132.71912350598 139.15 L 134.84262948207 136.62 L 135.90438247012 139.15 L 136.96613545817 141.68 L 140.15139442231 144.21 L 141.21314741036 141.68 L 142.27490039841 134.09 L 145.46015936255 129.03 L 149.70717131474 113.85 L 150.76892430279 103.73 L 151.83067729084 111.32 L 153.95418326693 106.26 L 156.07768924303 123.97 L 157.13944223108 129.03 L 158.20119521912 126.5 L 160.32470119522 123.97 L 161.38645418327 123.97 L 163.50996015936 123.97 L 164.57171314741 118.91 L 165.63346613546 121.44 L 166.69521912351 121.44 L 168.8187250996 123.97 L 170.9422310757 116.38 L 172.00398406375 113.85 L 173.06573705179 116.38 L 175.18924302789 116.38 L 178.37450199203 93.61 L 179.43625498008 93.61 L 180.49800796813 96.14 L 181.55976095618 96.14 L 186.86852589641 98.67 L 188.99203187251 88.55 L 190.05378486056 88.55 L 191.11553784861 86.02 L 192.17729083665 88.55 L 193.2390438247 86.02 L 195.3625498008 98.67 L 197.48605577689 93.61 L 199.60956175299 93.61 L 202.79482071713 96.14 L 208.10358565737 93.61 L 209.16533864542 106.26 L 212.35059760956 116.38 L 215.53585657371 123.97 L 216.59760956175 113.85 L 218.72111553785 108.79 L 219.7828685259 108.79 L 220.84462151394 113.85 L 222.96812749004 113.85 L 227.21513944223 103.73 L 230.40039840637 111.32 L 233.58565737052 108.79 L 235.70916334661 116.38 L 237.83266932271 116.38 L 238.89442231076 116.38 L 241.01792828685 118.91 L 242.0796812749 121.44 L 243.14143426295 121.44 L 244.203187251 126.5 L 245.26494023904 131.56 L 247.38844621514 129.03 L 248.45019920319 129.03 L 249.51195219124 134.09 L 250.57370517928 136.62 L 252.69721115538 131.56 L 254.82071713147 131.56 L 258.00597609562 136.62 L 259.06772908367 144.21 L 262.25298804781 144.21 L 266.5 146.74 L 267.56175298805 144.21 L 268.6235059761 149.27 L 272.87051792829 146.74 L 273.93227091633 151.8 L 277.11752988048 146.74 L 279.24103585657 141.68 L 280.30278884462 151.8 L 282.42629482072 144.21 L 284.54980079681 144.21 L 285.61155378486 139.15 L 287.73505976096 131.56 L 288.796812749 126.5 L 289.85856573705 123.97 L 294.10557768924 118.91 L 296.22908366534 118.91 L 299.41434262948 116.38 L 300.47609561753 121.44 L 301.53784860558 129.03 L 303.66135458167 141.68 L 306.84661354582 134.09 L 308.97011952191 123.97 L 310.03187250996 123.97 L 313.2171314741 129.03 L 314.27888446215 134.09 L 315.3406374502 136.62 L 316.40239043825 131.56 L 319.58764940239 118.91 L 320.64940239044 116.38 L 321.71115537849 113.85 L 322.77290836653 108.79 L 325.95816733068 121.44 L 329.14342629482 134.09 L 332.32868525896 123.97 L 333.39043824701 131.56 L 336.57569721116 108.79 L 337.6374501992 111.32 L 338.69920318725 111.32 L 340.82270916335 118.91 L 341.88446215139 113.85 L 347.19322709163 93.61 L 349.31673306773 86.02 L 351.44023904382 86.02 L 352.50199203187 88.55 L 355.68725099602 78.43 L 356.74900398406 78.43 L 357.81075697211 93.61 L 358.87250996016 101.2 L 362.0577689243 118.91 L 363.11952191235 116.38 L 364.1812749004 118.91 L 365.24302788845 113.85 L 367.36653386454 134.09 L 371.61354581673 141.68 L 373.73705179283 151.8 L 380.10756972112 131.56 L 382.23107569721 121.44 L 383.29282868526 113.85 L 385.41633466135 121.44 L 387.53984063745 126.5 L 388.6015936255 121.44 L 391.78685258964 123.97 L 394.97211155378 123.97 L 396.03386454183 121.44 L 398.15737051793 126.5 L 401.34262948207 126.5 L 402.40438247012 129.03 L 404.52788844622 123.97 L 405.58964143426 118.91 L 406.65139442231 111.32 L 407.71314741036 103.73 L 415.14541832669 83.49 L 416.20717131474 83.49 L 417.26892430279 86.02 L 418.33067729084 91.08 L 419.39243027888 91.08 L 422.57768924303 88.55 L 423.63944223108 88.55 L 425.76294820717 78.43 L 430.00996015936 78.43 L 432.13346613546 78.43 L 434.25697211155 70.84 L 435.3187250996 55.66 L 436.38047808765 53.13 L 438.50398406374 60.72 L 443.81274900398 73.37 L 444.87450199203 75.9 L 445.93625498008 83.49 L 446.99800796813 83.49 L 448.05976095618 88.55 L 449.12151394422 86.02 L 450.18326693227 88.55 L 451.24501992032 86.02 L 455.49203187251 73.37 L 457.61553784861 65.78 L 460.80079681275 58.19 L 461.8625498008 53.13 L 462.92430278884 48.07 L 463.98605577689 63.25 L 466.10956175299 65.78 L 469.29482071713 70.84 L 471.41832669323 60.72 L 472.48007968127 58.19 L 473.54183266932 55.66 L 474.60358565737 60.72 L 476.72709163347 53.13 L 477.78884462151 50.6 L 487.34462151394 80.96 L 488.40637450199 83.49 L 490.52988047809 70.84 L 493.71513944223 65.78 L 494.77689243028 65.78 L 499.02390438247 70.84 L 505.39442231076 88.55 L 506.4561752988 98.67 L 507.51792828685 103.73 L 508.5796812749 106.26 L 516.01195219123 108.79 L 517.07370517928 103.73 L 518.13545816733 103.73 L 519.19721115538 106.26 L 521.32071713147 98.67 L 523.44422310757 111.32 L 524.50597609562 106.26 L 529.81474103586 106.26 L 531.93824701195 108.79" class="highcharts-graph" data-z-index="1" stroke="rgb(192, 57, 43)" stroke-opacity=" 0.5" stroke-width="2" stroke-linejoin="round" stroke-linecap="round" filter="none" aria-hidden="false" role="region" tabindex="-1" style="outline: none;" aria-label="Ask 3, line 7 of 7 with 261 data points."></path></g><g class="highcharts-markers highcharts-series-6 highcharts-line-series" data-z-index="0.1" opacity="1" transform="translate(57,42) scale(1 1)" clip-path="none" aria-hidden="true"></g></g><text x="300" text-anchor="middle" class="highcharts-title" data-z-index="4" style="font-size: 1em; color: rgb(240, 240, 243); font-weight: bold; fill: rgb(240, 240, 243);" y="22" aria-hidden="true">TOMATOES - Price</text><text x="300" text-anchor="middle" class="highcharts-subtitle" data-z-index="4" style="color: rgb(240, 240, 243); font-size: 0.8em; fill: rgb(240, 240, 243);" y="41" aria-hidden="true"></text><text x="10" text-anchor="start" class="highcharts-caption" data-z-index="4" style="color: rgb(102, 102, 102); font-size: 0.8em; fill: rgb(102, 102, 102);" y="397" aria-hidden="true"></text><g class="highcharts-legend highcharts-no-tooltip" data-z-index="7" transform="translate(41,355)" aria-hidden="true"><rect fill="transparent" class="highcharts-legend-box" rx="0" ry="0" stroke="#999999" stroke-width="0" filter="none" x="0" y="0" width="518" height="30"></rect><g data-z-index="1"><g><g class="highcharts-legend-item highcharts-line-series highcharts-color-undefined highcharts-series-0" data-z-index="1" transform="translate(8,3)"><path fill="none" class="highcharts-graph" stroke-width="2" stroke-linecap="round" d="M 1 13 L 15 13" stroke="rgb(39, 174, 96)" stroke-opacity=" 0.5"></path><text x="21" style="color: rgb(240, 240, 243); cursor: pointer; font-size: 0.8em; text-decoration: none; fill: rgb(240, 240, 243);" text-anchor="start" data-z-index="2" y="17">Bid 3</text></g><g class="highcharts-legend-item highcharts-line-series highcharts-color-undefined highcharts-series-1" data-z-index="1" transform="translate(78.14999961853027,3)"><path fill="none" class="highcharts-graph" stroke-width="2" stroke-linecap="round" d="M 1 13 L 15 13" stroke="rgb(39, 174, 96)" stroke-opacity=" 0.75"></path><text x="21" y="17" style="color: rgb(240, 240, 243); cursor: pointer; font-size: 0.8em; text-decoration: none; fill: rgb(240, 240, 243);" text-anchor="start" data-z-index="2">Bid 2</text></g><g class="highcharts-legend-item highcharts-line-series highcharts-color-undefined highcharts-series-2" data-z-index="1" transform="translate(148.29999923706055,3)"><path fill="none" class="highcharts-graph" stroke-width="2" stroke-linecap="round" d="M 1 13 L 15 13" stroke="rgb(39, 174, 96)" stroke-opacity=" 1"></path><text x="21" y="17" style="color: rgb(240, 240, 243); cursor: pointer; font-size: 0.8em; text-decoration: none; fill: rgb(240, 240, 243);" text-anchor="start" data-z-index="2">Bid 1</text></g><g class="highcharts-legend-item highcharts-line-series highcharts-color-undefined highcharts-series-3" data-z-index="1" transform="translate(218.44999885559082,3)"><path fill="none" class="highcharts-graph" stroke-width="2" stroke-dasharray="8,6" d="M 0 13 L 16 13" stroke="gray"></path><text x="21" y="17" style="color: rgb(240, 240, 243); cursor: pointer; font-size: 0.8em; text-decoration: none; fill: rgb(240, 240, 243);" text-anchor="start" data-z-index="2">Mid price</text></g><g class="highcharts-legend-item highcharts-line-series highcharts-color-undefined highcharts-series-4" data-z-index="1" transform="translate(311.4499988555908,3)"><path fill="none" class="highcharts-graph" stroke-width="2" stroke-linecap="round" d="M 1 13 L 15 13" stroke="rgb(192, 57, 43)" stroke-opacity=" 1"></path><text x="21" y="17" style="color: rgb(240, 240, 243); cursor: pointer; font-size: 0.8em; text-decoration: none; fill: rgb(240, 240, 243);" text-anchor="start" data-z-index="2">Ask 1</text></g><g class="highcharts-legend-item highcharts-line-series highcharts-color-undefined highcharts-series-5" data-z-index="1" transform="translate(384.3833312988281,3)"><path fill="none" class="highcharts-graph" stroke-width="2" stroke-linecap="round" d="M 1 13 L 15 13" stroke="rgb(192, 57, 43)" stroke-opacity=" 0.75"></path><text x="21" y="17" style="color: rgb(240, 240, 243); cursor: pointer; font-size: 0.8em; text-decoration: none; fill: rgb(240, 240, 243);" text-anchor="start" data-z-index="2">Ask 2</text></g><g class="highcharts-legend-item highcharts-line-series highcharts-color-undefined highcharts-series-6" data-z-index="1" transform="translate(457.31666374206543,3)"><path fill="none" class="highcharts-graph" stroke-width="2" stroke-linecap="round" d="M 1 13 L 15 13" stroke="rgb(192, 57, 43)" stroke-opacity=" 0.5"></path><text x="21" y="17" style="color: rgb(240, 240, 243); cursor: pointer; font-size: 0.8em; text-decoration: none; fill: rgb(240, 240, 243);" text-anchor="start" data-z-index="2">Ask 3</text></g></g></g></g><g class="highcharts-axis-labels highcharts-xaxis-labels" data-z-index="7" aria-hidden="true"><text x="57" style="color: rgb(240, 240, 243); cursor: default; font-size: 0.8em; fill: rgb(240, 240, 243);" text-anchor="middle" transform="translate(0,0)" y="322" opacity="1">0</text><text x="122.82868525896" style="color: rgb(240, 240, 243); cursor: default; font-size: 0.8em; fill: rgb(240, 240, 243);" text-anchor="middle" transform="translate(0,0)" y="322" opacity="1">120,000</text><text x="186.53386454183" style="color: rgb(240, 240, 243); cursor: default; font-size: 0.8em; fill: rgb(240, 240, 243);" text-anchor="middle" transform="translate(0,0)" y="322" opacity="1">240,000</text><text x="250.2390438247" style="color: rgb(240, 240, 243); cursor: default; font-size: 0.8em; fill: rgb(240, 240, 243);" text-anchor="middle" transform="translate(0,0)" y="322" opacity="1">360,000</text><text x="313.94422310757" style="color: rgb(240, 240, 243); cursor: default; font-size: 0.8em; fill: rgb(240, 240, 243);" text-anchor="middle" transform="translate(0,0)" y="322" opacity="1">480,000</text><text x="377.64940239044" style="color: rgb(240, 240, 243); cursor: default; font-size: 0.8em; fill: rgb(240, 240, 243);" text-anchor="middle" transform="translate(0,0)" y="322" opacity="1">600,000</text><text x="441.35458167331" style="color: rgb(240, 240, 243); cursor: default; font-size: 0.8em; fill: rgb(240, 240, 243);" text-anchor="middle" transform="translate(0,0)" y="322" opacity="1">720,000</text><text x="505.05976095618" style="color: rgb(240, 240, 243); cursor: default; font-size: 0.8em; fill: rgb(240, 240, 243);" text-anchor="middle" transform="translate(0,0)" y="322" opacity="1">840,000</text><text x="566.8666667938232" style="color: rgb(240, 240, 243); cursor: default; font-size: 0.8em; fill: rgb(240, 240, 243);" text-anchor="middle" transform="translate(0,0)" y="322" opacity="1">960,000</text></g><g class="highcharts-axis-labels highcharts-yaxis-labels" data-z-index="7" aria-hidden="true"><text x="42" style="color: rgb(240, 240, 243); cursor: default; font-size: 0.8em; fill: rgb(240, 240, 243);" text-anchor="end" transform="translate(0,0)" y="293" opacity="1">4,960</text><text x="42" style="color: rgb(240, 240, 243); cursor: default; font-size: 0.8em; fill: rgb(240, 240, 243);" text-anchor="end" transform="translate(0,0)" y="242" opacity="1">4,980</text><text x="42" style="color: rgb(240, 240, 243); cursor: default; font-size: 0.8em; fill: rgb(240, 240, 243);" text-anchor="end" transform="translate(0,0)" y="192" opacity="1">5,000</text><text x="42" style="color: rgb(240, 240, 243); cursor: default; font-size: 0.8em; fill: rgb(240, 240, 243);" text-anchor="end" transform="translate(0,0)" y="141" opacity="1">5,020</text><text x="42" style="color: rgb(240, 240, 243); cursor: default; font-size: 0.8em; fill: rgb(240, 240, 243);" text-anchor="end" transform="translate(0,0)" y="91" opacity="1">5,040</text><text x="0" style="color: rgb(240, 240, 243); cursor: default; font-size: 0.8em; fill: rgb(240, 240, 243);" text-anchor="end" transform="translate(0,0)" visibility="hidden">5,060</text></g><text x="590" class="highcharts-credits" text-anchor="end" data-z-index="8" style="cursor: pointer; color: rgb(240, 240, 243); font-size: 0.6em; fill: rgb(240, 240, 243);" y="395" aria-label="Chart credits: Highcharts.com" aria-hidden="false">Highcharts.com</text></svg>